0
SECTION
2
HEADER
9
$INSUNITS
70
4
9
$ACADVER
1
AC1014
9
$HANDSEED
5
FFFF
0
ENDSEC
0
SECTION
2
TABLES
0
TABLE
2
VPORT
5
8
100
AcDbSymbolTable
0
ENDTAB
0
TABLE
2
LTYPE
5
5
100
AcDbSymbolTable
0
LTYPE
5
14
100
AcDbSymbolTableRecord
100
AcDbLinetypeTableRecord
2
BYBLOCK
70
0
0
LTYPE
5
15
100
AcDbSymbolTableRecord
100
AcDbLinetypeTableRecord
2
BYLAYER
70
0
0
ENDTAB
0
TABLE
2
LAYER
5
2
100
AcDbSymbolTable
70
2
0
LAYER
5
50
100
AcDbSymbolTableRecord
100
AcDbLayerTableRecord
2
0
70
0
6
CONTINUOUS
0
ENDTAB
0
TABLE
2
STYLE
5
3
100
AcDbSymbolTable
70
1
0
STYLE
5
11
100
AcDbSymbolTableRecord
100
AcDbTextStyleTableRecord
2
STANDARD
70
0
0
ENDTAB
0
TABLE
2
VIEW
5
6
100
AcDbSymbolTable
70
0
0
ENDTAB
0
TABLE
2
UCS
5
7
100
AcDbSymbolTable
70
0
0
ENDTAB
0
TABLE
2
APPID
5
9
100
AcDbSymbolTable
70
2
0
APPID
5
12
100
AcDbSymbolTableRecord
100
AcDbRegAppTableRecord
2
ACAD
70
0
0
ENDTAB
0
TABLE
2
DIMSTYLE
5
A
100
AcDbSymbolTable
70
1
0
ENDTAB
0
TABLE
2
BLOCK_RECORD
5
1
100
AcDbSymbolTable
70
1
0
BLOCK_RECORD
5
1F
100
AcDbSymbolTableRecord
100
AcDbBlockTableRecord
2
*MODEL_SPACE
0
BLOCK_RECORD
5
1B
100
AcDbSymbolTableRecord
100
AcDbBlockTableRecord
2
*PAPER_SPACE
0
ENDTAB
0
ENDSEC
0
SECTION
2
BLOCKS
0
BLOCK
5
20
100
AcDbEntity
100
AcDbBlockBegin
2
*MODEL_SPACE
0
ENDBLK
5
21
100
AcDbEntity
100
AcDbBlockEnd
0
BLOCK
5
1C
100
AcDbEntity
100
AcDbBlockBegin
2
*PAPER_SPACE
0
ENDBLK
5
1D
100
AcDbEntity
100
AcDbBlockEnd
0
ENDSEC
0
SECTION
2
ENTITIES
0
SPLINE
5
100
100
AcDbEntity
8
0
100
AcDbSpline
70
0
71
3
72
8
73
4
74
0
42
0.000000001
43
0.0000000001
44
0.0000000001
40
22
40
22
40
22
40
22
40
23
40
23
40
23
40
23
10
-325.92686668240106
20
-210.0374858075871
30
0
10
-325.96467934291206
20
-210.03748580758639
30
0
10
-326.00627326947063
20
-209.98555998343889
30
0
10
-326.05164846207754
20
-209.88170833514658
30
0
0
SPLINE
5
101
100
AcDbEntity
8
0
100
AcDbSpline
70
0
71
3
72
29
73
25
74
0
42
0.000000001
43
0.0000000001
44
0.0000000001
40
0
40
0
40
0
40
0
40
1
40
1
40
1
40
2
40
2
40
2
40
3
40
3
40
3
40
4
40
4
40
4
40
5
40
5
40
5
40
6
40
6
40
6
40
7
40
7
40
7
40
8
40
8
40
8
40
8
10
-339.10722030270529
20
-209.86816561135825
30
0
10
-339.23124219335028
20
-209.98104574179862
30
0
10
-339.37861885560886
20
-210.03748580701603
30
0
10
-339.54935028947801
20
-210.03748580700776
30
0
10
-339.72330307115607
20
-210.03748580700062
30
0
10
-339.87148507036005
20
-209.98180844535611
30
0
10
-339.99389628709207
20
-209.87045372207263
30
0
10
-340.11630750382318
20
-209.75909899878903
30
0
10
-340.17751311218404
20
-209.61952424289646
30
0
10
-340.17751311217592
20
-209.45172945439552
30
0
10
-340.1775131121687
20
-209.28393466589449
30
0
10
-340.11550216684111
20
-209.14130909567092
30
0
10
-339.99148027619441
20
-209.02385274372654
30
0
10
-339.86745838554924
20
-208.90639639178033
30
0
10
-339.72008172329083
20
-208.84766821581218
30
0
10
-339.54935028942168
20
-208.84766821581863
30
0
10
-339.37539750774363
20
-208.84766821582588
30
0
10
-339.22721550853942
20
-208.90792179897616
30
0
10
-339.10480429180734
20
-209.02842896526889
30
0
10
-338.98239307507731
20
-209.14893613156138
30
0
10
-338.92118746671542
20
-209.29079899820479
30
0
10
-338.92118746672281
20
-209.45401756520164
30
0
10
-338.92118746673088
20
-209.61723613219846
30
0
10
-338.98319841205762
20
-209.75528548091609
30
0
10
-339.10722030270529
20
-209.86816561135825
30
0
0
SPLINE
5
102
100
AcDbEntity
8
0
100
AcDbSpline
70
0
71
3
72
10
73
6
74
0
42
0.000000001
43
0.0000000001
44
0.0000000001
40
15
40
15
40
15
40
15
40
16
40
16
40
17
40
17
40
17
40
17
10
-322.93210396975263
20
-205.05797832675455
30
0
10
-322.84135358452772
20
-205.05797832675819
30
0
10
-322.79597839191808
20
-205.09557978562464
30
0
10
-322.79597839192519
20
-205.24598562107965
30
0
10
-322.87538497899845
20
-205.29074926258065
30
0
10
-323.03419815314209
20
-205.30507362785528
30
0
0
LINE
5
103
100
AcDbEntity
8
0
100
AcDbLine
10
-355.8518062099057
20
-203.43574395723184
30
0
11
-355.85180621017685
21
-209.15653734150649
31
0
0
SPLINE
5
104
100
AcDbEntity
8
0
100
AcDbSpline
70
0
71
3
72
8
73
4
74
0
42
0.000000001
43
0.0000000001
44
0.0000000001
40
9
40
9
40
9
40
9
40
10
40
10
40
10
40
10
10
-331.82564172199648
20
-209.93542470470646
30
0
10
-332.41930049199811
20
-209.74204577338213
30
0
10
-332.93544330794703
20
-209.39288936962529
30
0
10
-333.37407016984179
20
-208.88795549343538
30
0
0
LINE
5
105
100
AcDbEntity
8
0
100
AcDbLine
10
-299.44428457302649
20
-204.32687307768884
30
0
11
-298.54379567090683
21
-204.32687307772687
31
0
0
SPLINE
5
106
100
AcDbEntity
8
0
100
AcDbSpline
70
0
71
3
72
8
73
4
74
0
42
0.000000001
43
0.0000000001
44
0.0000000001
40
11
40
11
40
11
40
11
40
12
40
12
40
12
40
12
10
-325.07608182069561
20
-205.28358707984586
30
0
10
-325.25002005904236
20
-205.28716817115921
30
0
10
-325.37102057267487
20
-205.27642489719318
30
0
10
-325.43908336159171
20
-205.25135725794797
30
0
0
SPLINE
5
107
100
AcDbEntity
8
0
100
AcDbSpline
70
0
71
3
72
10
73
6
74
0
42
0.000000001
43
0.0000000001
44
0.0000000001
40
10
40
10
40
10
40
10
40
11
40
11
40
12
40
12
40
12
40
12
10
-333.37407016984179
20
-208.88795549343538
30
0
10
-333.35516383958577
20
-208.87721221947487
30
0
10
-333.33531219281775
20
-208.85483039872329
30
0
10
-333.29371826625282
20
-208.78678966363881
30
0
10
-333.27197598645768
20
-208.76977947986751
30
0
10
-333.24928839015234
20
-208.7697794798693
30
0
0
LINE
5
108
100
AcDbEntity
8
0
100
AcDbLine
10
-298.46193304344729
20
-204.47627997252562
30
0
11
-298.46193304395285
21
-215.13456468565411
31
0
0
SPLINE
5
109
100
AcDbEntity
8
0
100
AcDbSpline
70
0
71
3
72
8
73
4
74
0
42
0.000000001
43
0.0000000001
44
0.0000000001
40
17
40
17
40
17
40
17
40
18
40
18
40
18
40
18
10
-323.03419815314209
20
-205.30507362785528
30
0
10
-323.07201081365207
20
-205.308654719174
30
0
10
-323.10415157508595
20
-205.31402635615333
30
0
10
-323.13062043744429
20
-205.32118853879331
30
0
0
SPLINE
5
110
100
AcDbEntity
8
0
100
AcDbSpline
70
0
71
3
72
8
73
4
74
0
42
0.000000001
43
0.0000000001
44
0.0000000001
40
31
40
31
40
31
40
31
40
32
40
32
40
32
40
32
10
-337.79247955032963
20
-206.04098789356129
30
0
10
-337.87944866950335
20
-206.0409878935576
30
0
10
-337.96641778867354
20
-205.95683224752582
30
0
10
-338.05338690783918
20
-205.7885209554658
30
0
0
LINE
5
111
100
AcDbEntity
8
0
100
AcDbLine
10
-325.83611629711328
20
-208.71606311037937
30
0
11
-324.68472078443483
21
-205.73480458622799
31
0
0
LINE
5
112
100
AcDbEntity
8
0
100
AcDbLine
10
-317.07691596422774
20
-206.53951804269454
30
0
11
-316.85861562432012
21
-206.53951804270469
31
0
0
SPLINE
5
113
100
AcDbEntity
8
0
100
AcDbSpline
70
0
71
3
72
10
73
6
74
0
42
0.000000001
43
0.0000000001
44
0.0000000001
40
10
40
10
40
10
40
10
40
11
40
11
40
12
40
12
40
12
40
12
10
-316.85861562432012
20
-206.53951804270469
30
0
10
-316.74036960686971
20
-206.5395180427092
30
0
10
-316.50046662915986
20
-206.54781842576426
30
0
10
-315.77734675321528
20
-206.58101995797165
30
0
10
-315.50560830926776
20
-206.59880649307681
30
0
10
-315.32369135934482
20
-206.61777879718616
30
0
0
LINE
5
114
100
AcDbEntity
8
0
100
AcDbLine
10
-356.56646549350364
20
-202.48496421164575
30
0
11
-356.24883914521729
21
-202.48496421166024
31
0
0
LINE
5
115
100
AcDbEntity
8
0
100
AcDbLine
10
-317.07009407850825
20
-204.44782151558289
30
0
11
-317.45894155900726
21
-205.25177290183706
31
0
0
LINE
5
116
100
AcDbEntity
8
0
100
AcDbLine
10
-324.68472078443483
20
-205.73480458622799
30
0
11
-324.65068938996973
21
-205.60588529869682
31
0
0
LINE
5
117
100
AcDbEntity
8
0
100
AcDbLine
10
-302.48684556076853
20
-210.06125199202657
30
0
11
-302.48684556080121
21
-210.74425493965612
31
0
0
SPLINE
5
118
100
AcDbEntity
8
0
100
AcDbSpline
70
0
71
3
72
8
73
4
74
0
42
0.000000001
43
0.0000000001
44
0.0000000001
40
37
40
37
40
37
40
37
40
38
40
38
40
38
40
38
10
-302.43909236141025
20
-210.03279353587786
30
0
10
-302.45728405640341
20
-210.032793535877
30
0
10
-302.47320178952225
20
-210.0422796879262
30
0
10
-302.48684556076853
20
-210.06125199202657
30
0
0
LINE
5
119
100
AcDbEntity
8
0
100
AcDbLine
10
-299.5261472009862
20
-214.7432609135291
30
0
11
-299.52614720080072
21
-210.84385953631198
31
0
0
SPLINE
5
120
100
AcDbEntity
8
0
100
AcDbSpline
70
0
71
3
72
10
73
6
74
0
42
0.000000001
43
0.0000000001
44
0.0000000001
40
12
40
12
40
12
40
12
40
13
40
13
40
14
40
14
40
14
40
14
10
-325.43908336159171
20
-205.25135725794797
30
0
10
-325.48067728815215
20
-205.2334518013447
30
0
10
-325.50147425143138
20
-205.19674561530948
30
0
10
-325.50147425142603
20
-205.08573178437885
30
0
10
-325.4863491872203
20
-205.05797832664547
30
0
10
-325.45609905881179
20
-205.05797832664726
30
0
0
LINE
5
121
100
AcDbEntity
8
0
100
AcDbLine
10
-345.56298128537048
20
-209.89245160827849
30
0
11
-348.97746452944654
21
-209.89245160813212
31
0
0
SPLINE
5
122
100
AcDbEntity
8
0
100
AcDbSpline
70
0
71
3
72
11
73
7
74
0
42
0.000000001
43
0.0000000001
44
0.0000000001
40
18
40
18
40
18
40
18
40
19
40
19
40
19
40
20
40
20
40
20
40
20
10
-334.50844998518744
20
-209.68832940348761
30
0
10
-334.33073048079046
20
-209.70981595141689
30
0
10
-334.24187072859252
20
-209.75278904726537
30
0
10
-334.24187072859638
20
-209.81724869103232
30
0
10
-334.24187072859809
20
-209.8602217868762
30
0
10
-334.26077705885399
20
-209.88528942611777
30
0
10
-334.29858971936483
20
-209.89245160875697
30
0
0
SPLINE
5
123
100
AcDbEntity
8
0
100
AcDbSpline
70
0
71
3
72
8
73
4
74
0
42
0.000000001
43
0.0000000001
44
0.0000000001
40
10
40
10
40
10
40
10
40
11
40
11
40
11
40
11
10
-345.51760609275703
20
-209.84947851243547
30
0
10
-345.51760609275891
20
-209.87812724299843
30
0
10
-345.53273115696271
20
-209.89245160827963
30
0
10
-345.56298128537048
20
-209.89245160827849
30
0
0
LINE
5
124
100
AcDbEntity
8
0
100
AcDbLine
10
-330.81004196264695
20
-207.06159892016046
30
0
11
-330.81004196262927
21
-206.64798287265938
31
0
0
LWPOLYLINE
5
125
100
AcDbEntity
8
0
100
AcDbPolyline
90
24
70
1
43
0.0
10
-15.255087253299804
20
-218.97785285848613
10
-15.255087253299848
20
-217.85203158172612
10
-15.255087253299848
20
-216.85203163
10
-15.255087253299848
20
-86.901173901244164
10
-15.254907922688332
20
-85.901532739482533
10
-15.254715621180289
20
-84.829588014934444
42
0.41422165466092142
10
-17.254412056472148
20
-82.829229248002662
10
-71.491729298214608
20
-82.80278803554198
42
0.22754309641506432
10
-73.052430659825774
20
-83.550887747399386
10
-74.842490218954381
20
-85.781100173723644
42
0.17067831109240383
10
-75.062627036167541
20
-86.406898432712879
10
-75.062627036167555
20
-97.406714068965499
42
-0.41426755731787013
10
-76.062811382919918
20
-98.406714051973623
10
-84.464838556999538
20
-98.405165165524352
42
-0.41421356237309503
10
-85.464654193255313
20
-97.404980835763865
10
-85.462626379016754
20
-86.404981226576723
42
0.17052312726026239
10
-85.682195960161948
20
-85.779586803991563
10
-87.454128766024439
20
-83.567853123567787
42
0.2276134183495267
10
-89.014686048175378
20
-82.818338459272212
10
-371.86758720723753
20
-82.775410931031416
42
0.41425801438114646
10
-373.86789073976325
20
-84.775410907998463
10
-373.88791642853687
20
-218.9240315586967
42
0.41416911176226306
10
-371.8882199610627
20
-220.92403153566369
10
-17.255390785825494
20
-220.97785283545304
42
0.41425801438118093
0
LINE
5
126
100
AcDbEntity
8
0
100
AcDbLine
10
-345.44387140450107
20
-204.36503715530819
30
0
11
-345.47790279896083
21
-204.35966551832621
31
0
0
SPLINE
5
127
100
AcDbEntity
8
0
100
AcDbSpline
70
0
71
3
72
12
73
8
74
0
42
0.000000001
43
0.0000000001
44
0.0000000001
40
6
40
6
40
6
40
6
40
7
40
7
40
8
40
8
40
9
40
9
40
9
40
9
10
-329.67032007288185
20
-209.30694317807465
30
0
10
-329.8593833754432
20
-209.52538974860886
30
0
10
-330.08625933851363
20
-209.70175849612733
30
0
10
-330.61563658566968
20
-209.97034034513192
30
0
10
-330.87654394319372
20
-210.03748580737792
30
0
10
-331.39079612613398
20
-210.03748580735518
30
0
10
-331.62145335524485
20
-210.00346543980203
30
0
10
-331.82564172199648
20
-209.93542470470646
30
0
0
SPLINE
5
128
100
AcDbEntity
8
0
100
AcDbSpline
70
0
71
3
72
18
73
14
74
0
42
0.000000001
43
0.0000000001
44
0.0000000001
40
26
40
26
40
26
40
26
40
27
40
27
40
28
40
28
40
28
40
29
40
29
40
30
40
30
40
30
40
31
40
31
40
31
40
31
10
-314.58692771216749
20
-206.86679028854059
30
0
10
-314.11849156611891
20
-206.9663948850891
30
0
10
-313.74669879972237
20
-207.16441830915721
30
0
10
-313.19640002623163
20
-207.75730281233029
30
0
10
-313.05882533286893
20
-208.12133389727092
30
0
10
-313.0588253328898
20
-208.55295381556402
30
0
10
-313.05882533291981
20
-209.20749830704125
30
0
10
-313.28053661566463
20
-209.71382167272239
30
0
10
-314.16738174657542
20
-210.43002615248923
30
0
10
-314.80522805225257
20
-210.60907727241357
30
0
10
-315.63749809815192
20
-210.60907727237893
30
0
10
-316.57891831400599
20
-210.60907727233899
30
0
10
-317.36116119866716
20
-210.39563885117119
30
0
10
-317.98422675213453
20
-209.96876200887684
30
0
0
SPLINE
5
129
100
AcDbEntity
8
0
100
AcDbSpline
70
0
71
3
72
11
73
7
74
0
42
0.000000001
43
0.0000000001
44
0.0000000001
40
14
40
14
40
14
40
14
40
15
40
15
40
15
40
16
40
16
40
16
40
16
10
-349.02283972205078
20
-209.72055922475349
30
0
10
-349.02283972205078
20
-209.69191049419052
30
0
10
-349.0077146578443
20
-209.67758612891032
30
0
10
-348.97746452943665
20
-209.67758612891117
30
0
10
-348.41027462178255
20
-209.67758612893488
30
0
10
-348.03403864970386
20
-209.62566030480659
30
0
10
-347.84875661319802
20
-209.52180865652343
30
0
0
SPLINE
5
130
100
AcDbEntity
8
0
100
AcDbSpline
70
0
71
3
72
8
73
4
74
0
42
0.000000001
43
0.0000000001
44
0.0000000001
40
16
40
16
40
16
40
16
40
17
40
17
40
17
40
17
10
-356.74796626428736
20
-209.52180865614508
30
0
10
-356.69880980562186
20
-209.49315992558491
30
0
10
-356.67423157628497
20
-209.36603118371272
30
0
10
-356.67423157627405
20
-209.14042243053032
30
0
0
CIRCLE
5
131
100
AcDbEntity
8
0
100
AcDbCircle
10
-126.25454906835309
20
-86.776173949517954
30
0
40
2.9999999999999982
210
0
220
0
230
1
0
LINE
5
132
100
AcDbEntity
8
0
100
AcDbLine
10
-325.45609905881179
20
-205.05797832664726
30
0
11
-322.93210396975263
21
-205.05797832675455
31
0
0
LINE
5
133
100
AcDbEntity
8
0
100
AcDbLine
10
-317.45894155900726
20
-205.25177290183706
30
0
11
-317.78639206886885
21
-205.25177290182327
31
0
0
SPLINE
5
134
100
AcDbEntity
8
0
100
AcDbSpline
70
0
71
3
72
16
73
12
74
0
42
0.000000001
43
0.0000000001
44
0.0000000001
40
0
40
0
40
0
40
0
40
1
40
1
40
1
40
2
40
2
40
3
40
3
40
3
40
4
40
4
40
4
40
4
10
-338.05338690783918
20
-205.7885209554658
30
0
10
-338.14035602700471
20
-205.62020966340484
30
0
10
-338.18384058658575
20
-205.49487146719059
30
0
10
-338.18384058658205
20
-205.41250636682221
30
0
10
-338.18384058657836
20
-205.34446563173481
30
0
10
-338.04676969222442
20
-205.26030998571215
30
0
10
-337.49848611481696
20
-205.05976887179585
30
0
10
-337.29524306457108
20
-205.00963359331919
30
0
10
-337.16289875278574
20
-205.00963359332457
30
0
10
-336.92846025762202
20
-205.00963359333454
30
0
10
-336.63163087262831
20
-205.24777616615086
30
0
10
-336.27241059780232
20
-205.72406131177445
30
0
0
LINE
5
135
100
AcDbEntity
8
0
100
AcDbLine
10
-317.98422675213453
20
-209.96876200887684
30
0
11
-317.98422675211282
21
-209.50631209642017
31
0
0
SPLINE
5
136
100
AcDbEntity
8
0
100
AcDbSpline
70
0
71
3
72
8
73
4
74
0
42
0.000000001
43
0.0000000001
44
0.0000000001
40
10
40
10
40
10
40
10
40
11
40
11
40
11
40
11
10
-324.65068938996973
20
-205.60588529869682
30
0
10
-324.65068938995967
20
-205.38385763683411
30
0
10
-324.79248686686725
20
-205.27642489721771
30
0
10
-325.07608182069561
20
-205.28358707984586
30
0
0
SPLINE
5
137
100
AcDbEntity
8
0
100
AcDbSpline
70
0
71
3
72
10
73
6
74
0
42
0.000000001
43
0.0000000001
44
0.0000000001
40
18
40
18
40
18
40
18
40
19
40
19
40
20
40
20
40
20
40
20
10
-347.7750219248739
20
-202.58702531465033
30
0
10
-347.77502192487191
20
-202.54763331012654
30
0
10
-347.76935002579376
20
-202.52077512522334
30
0
10
-347.74666242948763
20
-202.49212639466137
30
0
10
-347.71641230107826
20
-202.48496421202242
30
0
10
-347.66725584241442
20
-202.48496421202404
30
0
0
SPLINE
5
138
100
AcDbEntity
8
0
100
AcDbSpline
70
0
71
3
72
8
73
4
74
0
42
0.000000001
43
0.0000000001
44
0.0000000001
40
0
40
0
40
0
40
0
40
1
40
1
40
1
40
1
10
-354.3771124500492
20
-204.35966551794775
30
0
10
-354.78548918355153
20
-204.17344876927089
30
0
10
-355.23545984360965
20
-203.89412364626381
30
0
10
-355.72702443022456
20
-203.52169014892539
30
0
0
LINE
5
139
100
AcDbEntity
8
0
100
AcDbLine
10
-316.85861562435286
20
-207.22252099033329
30
0
11
-317.07691596426048
21
-207.22252099032417
31
0
0
SPLINE
5
140
100
AcDbEntity
8
0
100
AcDbSpline
70
0
71
3
72
11
73
7
74
0
42
0.000000001
43
0.0000000001
44
0.0000000001
40
7
40
7
40
7
40
7
40
8
40
8
40
8
40
9
40
9
40
9
40
9
10
-336.0058313411738
20
-205.04186341525727
30
0
10
-336.00583134116926
20
-204.95591722356829
30
0
10
-335.97369057973361
20
-204.91294412772612
30
0
10
-335.90940905686608
20
-204.91294412772888
30
0
10
-335.89806525871359
20
-204.91294412772888
30
0
10
-335.86970576333096
20
-204.92368740169121
30
0
10
-335.82433057071921
20
-204.94517394961497
30
0
0
SPLINE
5
141
100
AcDbEntity
8
0
100
AcDbSpline
70
0
71
3
72
12
73
8
74
0
42
0.000000001
43
0.0000000001
44
0.0000000001
40
21
40
21
40
21
40
21
40
22
40
22
40
23
40
23
40
24
40
24
40
24
40
24
10
-356.24883914521729
20
-202.48496421166024
30
0
10
-355.98415052166109
20
-202.78577588258102
30
0
10
-355.64950847615927
20
-203.10628355576739
30
0
10
-354.84031754127329
20
-203.78669090666938
30
0
10
-354.56995701863349
20
-203.99887056741284
30
0
10
-354.29770586296854
20
-204.16718185948122
30
0
10
-354.22964307405266
20
-204.21463131947959
30
0
10
-354.22964307405266
20
-204.22537459344099
30
0
0
LINE
5
142
100
AcDbEntity
8
0
100
AcDbLine
10
-325.47878665535529
20
-210.0374858076072
30
0
11
-325.92686668240106
21
-210.0374858075871
31
0
0
LINE
5
143
100
AcDbEntity
8
0
100
AcDbLine
10
-323.85095162019763
20
-206.01950134623218
30
0
11
-325.35400487566329
21
-209.87096506121509
31
0
0
SPLINE
5
144
100
AcDbEntity
8
0
100
AcDbSpline
70
0
71
3
72
10
73
6
74
0
42
0.000000001
43
0.0000000001
44
0.0000000001
40
11
40
11
40
11
40
11
40
12
40
12
40
13
40
13
40
13
40
13
10
-302.56870818796244
20
-204.32687307755612
30
0
10
-302.52777687422912
20
-204.32687307755771
30
0
10
-302.50390027455256
20
-204.33517346060285
30
0
10
-302.49025650331009
20
-204.36837499278028
30
0
10
-302.48684556050125
20
-204.40987690800071
30
0
10
-302.48684556050296
20
-204.47627997235372
30
0
0
LINE
5
145
100
AcDbEntity
8
0
100
AcDbLine
10
-335.82433057071921
20
-204.94517394961497
30
0
11
-334.37799630623266
21
-205.5897703873413
31
0
0
SPLINE
5
146
100
AcDbEntity
8
0
100
AcDbSpline
70
0
71
3
72
8
73
4
74
0
42
0.000000001
43
0.0000000001
44
0.0000000001
40
24
40
24
40
24
40
24
40
25
40
25
40
25
40
25
10
-354.22964307405266
20
-204.22537459344099
30
0
10
-354.27879953272088
20
-204.31848296776721
30
0
10
-354.31661219323274
20
-204.36503715493089
30
0
10
-354.34308105559006
20
-204.36503715492989
30
0
0
SPLINE
5
147
100
AcDbEntity
8
0
100
AcDbSpline
70
0
71
3
72
20
73
16
74
0
42
0.000000001
43
0.0000000001
44
0.0000000001
40
12
40
12
40
12
40
12
40
13
40
13
40
14
40
14
40
14
40
15
40
15
40
16
40
16
40
16
40
17
40
17
40
18
40
18
40
18
40
18
10
-315.32369135934482
20
-206.61777879718616
30
0
10
-315.06900762944872
20
-206.54188958079402
30
0
10
-314.86548804171451
20
-206.39366845501414
30
0
10
-314.5607771505729
20
-205.95256238468451
30
0
10
-314.48459942777959
20
-205.68102128224442
30
0
10
-314.48459942776401
20
-205.35849211253009
30
0
10
-314.48459942774582
20
-204.97904603051444
30
0
10
-314.60853034986684
20
-204.68378954794082
30
0
10
-315.10425403838974
20
-204.26165578167698
30
0
10
-315.45558114792323
20
-204.15612234010101
30
0
10
-315.91037352273185
20
-204.15612234008205
30
0
10
-316.11957801514393
20
-204.15612234007287
30
0
10
-316.33446741224202
20
-204.18576656522106
30
0
10
-316.77561601581249
20
-204.30434346583354
30
0
10
-316.94730013730549
20
-204.37193229918444
30
0
10
-317.07009407850825
20
-204.44782151558289
30
0
0
SPLINE
5
148
100
AcDbEntity
8
0
100
AcDbSpline
70
0
71
3
72
8
73
4
74
0
42
0.000000001
43
0.0000000001
44
0.0000000001
40
8
40
8
40
8
40
8
40
9
40
9
40
9
40
9
10
-345.56298128536042
20
-209.67758612905692
30
0
10
-345.53273115695191
20
-209.67758612905769
30
0
10
-345.51760609274982
20
-209.6919104943396
30
0
10
-345.51760609274982
20
-209.72055922490256
30
0
0
CIRCLE
5
149
100
AcDbEntity
8
0
100
AcDbCircle
10
-20.255087253299926
20
-216.92403158176154
30
0
40
1.7499999999999984
210
0
220
0
230
1
0
SPLINE
5
150
100
AcDbEntity
8
0
100
AcDbSpline
70
0
71
3
72
8
73
4
74
0
42
0.000000001
43
0.0000000001
44
0.0000000001
40
20
40
20
40
20
40
20
40
21
40
21
40
21
40
21
10
-325.35400487566329
20
-209.87096506121509
30
0
10
-325.39938006828032
20
-209.9819788921447
30
0
10
-325.44097399484423
20
-210.03748580760799
30
0
10
-325.47878665535529
20
-210.0374858076072
30
0
0
LINE
5
151
100
AcDbEntity
8
0
100
AcDbLine
10
-336.00583134121388
20
-205.91206860610484
30
0
11
-336.0058313411738
21
-205.04186341525727
31
0
0
SPLINE
5
152
100
AcDbEntity
8
0
100
AcDbSpline
70
0
71
3
72
20
73
16
74
0
42
0.000000001
43
0.0000000001
44
0.0000000001
40
24
40
24
40
24
40
24
40
25
40
25
40
26
40
26
40
27
40
27
40
28
40
28
40
29
40
29
40
30
40
30
40
31
40
31
40
31
40
31
10
-327.60007690979307
20
-206.08933262682044
30
0
10
-327.63410830424812
20
-206.02129189173198
30
0
10
-327.67003033172949
20
-205.9451937011724
30
0
10
-327.74565565274253
20
-205.77688240911243
30
0
10
-327.79008552883823
20
-205.69541258157247
30
0
10
-327.89217971220762
20
-205.53784456347216
30
0
10
-327.95078933599603
20
-205.46711800989289
30
0
10
-328.08313364777598
20
-205.34177981367392
30
0
10
-328.19373567976726
20
-205.29970199065488
30
0
10
-328.50379949594839
20
-205.25672889479821
30
0
10
-328.58698734907023
20
-205.23703289253245
30
0
10
-328.60967494537476
20
-205.2012219793275
30
0
10
-328.6153468444499
20
-205.17257324876454
30
0
10
-328.61534684444558
20
-205.09378923971653
30
0
10
-328.59454988116454
20
-205.06872160047496
30
0
10
-328.55295595460228
20
-205.05797832651538
30
0
0
LINE
5
153
100
AcDbEntity
8
0
100
AcDbLine
10
-328.55295595460228
20
-205.05797832651538
30
0
11
-326.40330620459389
21
-205.05797832660733
31
0
0
SPLINE
5
154
100
AcDbEntity
8
0
100
AcDbSpline
70
0
71
3
72
19
73
15
74
0
42
0.000000001
43
0.0000000001
44
0.0000000001
40
0
40
0
40
0
40
0
40
1
40
1
40
1
40
2
40
2
40
3
40
3
40
4
40
4
40
5
40
5
40
6
40
6
40
6
40
6
10
-326.40330620459389
20
-205.05797832660733
30
0
10
-326.32011835147125
20
-205.05797832661088
30
0
10
-326.27852442491184
20
-205.08841760283559
30
0
10
-326.27852442491445
20
-205.14929615528189
30
0
10
-326.27852442492008
20
-205.25672889489289
30
0
10
-326.3711654431728
20
-205.31044526469361
30
0
10
-326.74172951617317
20
-205.31044526467738
30
0
10
-326.88919889216601
20
-205.36326636164682
30
0
10
-327.10851232313524
20
-205.5745507495391
30
0
10
-327.16334068087974
20
-205.67571657933655
30
0
10
-327.16334068088884
20
-205.86909551063641
30
0
10
-327.13214523597452
20
-206.01412970911201
30
0
10
-327.00736345630969
20
-206.40088757171611
30
0
10
-326.72093255297762
20
-207.11531529013962
30
0
10
-326.21046163614864
20
-208.35079179568561
30
0
0
LINE
5
155
100
AcDbEntity
8
0
100
AcDbLine
10
-347.66725584241442
20
-202.48496421202404
30
0
11
-347.34962949412807
21
-202.48496421203771
31
0
0
SPLINE
5
156
100
AcDbEntity
8
0
100
AcDbSpline
70
0
71
3
72
8
73
4
74
0
42
0.000000001
43
0.0000000001
44
0.0000000001
40
39
40
39
40
39
40
39
40
40
40
40
40
40
40
40
10
-302.48684556080121
20
-210.74425493965612
30
0
10
-302.48684556080485
20
-210.86283184028503
30
0
10
-302.50617423673805
20
-210.9221202906015
30
0
10
-302.54483158859716
20
-210.92212029059812
30
0
0
SPLINE
5
157
100
AcDbEntity
8
0
100
AcDbSpline
70
0
71
3
72
8
73
4
74
0
42
0.000000001
43
0.0000000001
44
0.0000000001
40
30
40
30
40
30
40
30
40
31
40
31
40
31
40
31
10
-299.46475023039432
20
-214.88555319428514
30
0
10
-299.50568154412593
20
-214.86658089018482
30
0
10
-299.52614720098978
20
-214.819150129934
30
0
10
-299.5261472009862
20
-214.7432609135291
30
0
0
SPLINE
5
158
100
AcDbEntity
8
0
100
AcDbSpline
70
0
71
3
72
8
73
4
74
0
42
0.000000001
43
0.0000000001
44
0.0000000001
40
12
40
12
40
12
40
12
40
13
40
13
40
13
40
13
10
-357.87667418053564
20
-209.89245160775468
30
0
10
-357.90692430894455
20
-209.89245160775289
30
0
10
-357.92204937314818
20
-209.87812724247092
30
0
10
-357.92204937314659
20
-209.84947851190799
30
0
0
SPLINE
5
159
100
AcDbEntity
8
0
100
AcDbSpline
70
0
71
3
72
14
73
10
74
0
42
0.000000001
43
0.0000000001
44
0.0000000001
40
21
40
21
40
21
40
21
40
22
40
22
40
23
40
23
40
24
40
24
40
25
40
25
40
25
40
25
10
-337.14021115671142
20
-209.89245160863604
30
0
10
-337.17802381722061
20
-209.88528942599413
30
0
10
-337.19693014747463
20
-209.86111705958018
30
0
10
-337.19693014747122
20
-209.77875195921172
30
0
10
-337.17896913372721
20
-209.75099850147998
30
0
10
-337.1071250787565
20
-209.72234977092072
30
0
10
-337.02677317517112
20
-209.70713013281298
30
0
10
-336.77720961580258
20
-209.67490031094042
30
0
10
-336.64297467099016
20
-209.64893739887216
30
0
10
-336.49928656104942
20
-209.61312648567548
30
0
0
LINE
5
160
100
AcDbEntity
8
0
100
AcDbLine
10
-330.04466541180329
20
-206.54592177006157
30
0
11
-330.04466541179971
21
-206.48146212629555
31
0
0
SPLINE
5
161
100
AcDbEntity
8
0
100
AcDbSpline
70
0
71
3
72
8
73
4
74
0
42
0.000000001
43
0.0000000001
44
0.0000000001
40
12
40
12
40
12
40
12
40
13
40
13
40
13
40
13
10
-348.97746452944654
20
-209.89245160813212
30
0
10
-349.00771465785522
20
-209.89245160813212
30
0
10
-349.02283972205908
20
-209.87812724284933
30
0
10
-349.02283972205731
20
-209.84947851228642
30
0
0
SPLINE
5
162
100
AcDbEntity
8
0
100
AcDbSpline
70
0
71
3
72
8
73
4
74
0
42
0.000000001
43
0.0000000001
44
0.0000000001
40
13
40
13
40
13
40
13
40
14
40
14
40
14
40
14
10
-333.22092889476886
20
-208.76977947987012
30
0
10
-333.20958509661631
20
-208.76977947987115
30
0
10
-333.20013193148964
20
-208.77336057119166
30
0
10
-333.19256939938725
20
-208.78052275383169
30
0
0
CIRCLE
5
163
100
AcDbEntity
8
0
100
AcDbCircle
10
-368.86758725330003
20
-86.776173903451976
30
0
40
3.0000000000000071
210
0
220
0
230
1
0
LINE
5
164
100
AcDbEntity
8
0
100
AcDbLine
10
-331.63706522979942
20
-207.06159892012522
30
0
11
-331.64283791134983
21
-206.64798287262386
31
0
0
SPLINE
5
165
100
AcDbEntity
8
0
100
AcDbSpline
70
0
71
3
72
10
73
6
74
0
42
0.000000001
43
0.0000000001
44
0.0000000001
40
2
40
2
40
2
40
2
40
3
40
3
40
4
40
4
40
4
40
4
10
-304.49930181930006
20
-210.09682506213039
30
0
10
-304.56752067551878
20
-210.06362352995129
30
0
10
-304.60163010362703
20
-210.01975007671604
30
0
10
-304.60163010362174
20
-209.91065932813652
30
0
10
-304.58798633237365
20
-209.88338664099211
30
0
10
-304.56069878988831
20
-209.88338664099388
30
0
0
CIRCLE
5
166
100
AcDbEntity
8
0
100
AcDbCircle
10
-20.254549068353075
20
-86.776173949517954
30
0
40
2.9999999999999964
210
0
220
0
230
1
0
LINE
5
167
100
AcDbEntity
8
0
100
AcDbLine
10
-357.92204937314659
20
-209.84947851190799
30
0
11
-357.9220493731392
21
-209.72055922437505
31
0
0
SPLINE
5
168
100
AcDbEntity
8
0
100
AcDbSpline
70
0
71
3
72
12
73
8
74
0
42
0.000000001
43
0.0000000001
44
0.0000000001
40
3.3362302473910992
40
3.3362302473910992
40
3.3362302473910992
40
3.3362302473910992
40
4
40
4
40
5
40
5
40
6
40
6
40
6
40
6
10
-330.81004209352227
20
-205.00767789640761
30
0
10
-330.37604173905839
20
-205.13235716119385
30
0
10
-330.01409541253133
20
-205.38010436137643
30
0
10
-329.28746688507374
20
-206.30956974295049
30
0
10
-329.06909877065573
20
-206.92820326855212
30
0
10
-329.06909877072042
20
-208.28543687896831
30
0
10
-329.26950587145194
20
-208.85214458040599
30
0
10
-329.67032007288185
20
-209.30694317807465
30
0
0
LWPOLYLINE
5
169
100
AcDbEntity
8
0
100
AcDbPolyline
90
4
70
1
43
0.0
10
-311.39113335713608
20
-206.61777879735354
10
-311.39113335718326
20
-207.5924809205313
10
-306.32247233993803
20
-207.5924809207479
10
-306.32247233989261
20
-206.61777879756912
0
LINE
5
170
100
AcDbEntity
8
0
100
AcDbLine
10
-317.78639206886885
20
-205.25177290182327
30
0
11
-317.7932139544256
21
-203.85730855041473
31
0
0
SPLINE
5
171
100
AcDbEntity
8
0
100
AcDbSpline
70
0
71
3
72
10
73
6
74
0
42
0.000000001
43
0.0000000001
44
0.0000000001
40
0
40
0
40
0
40
0
40
1
40
1
40
1.4378364934598793
40
1.4378364934598793
40
1.4378364934598793
40
1.4378364934598793
10
-330.04466541179971
20
-206.48146212629555
30
0
10
-330.10894693465167
20
-206.16990718142154
30
0
10
-330.25736162714117
20
-205.89237260408731
30
0
10
-330.59172742978342
20
-205.54223898656829
30
0
10
-330.6984382543294
20
-205.45896051264944
30
0
10
-330.81004196290621
20
-205.39902297253587
30
0
0
LINE
5
172
100
AcDbEntity
8
0
100
AcDbLine
10
-331.63706522979942
20
-207.06159892012522
30
0
11
-333.27197598637679
21
-207.06159892005559
31
0
0
SPLINE
5
173
100
AcDbEntity
8
0
100
AcDbSpline
70
0
71
3
72
8
73
4
74
0
42
0.000000001
43
0.0000000001
44
0.0000000001
40
25
40
25
40
25
40
25
40
26
40
26
40
26
40
26
10
-336.49928656104942
20
-209.61312648567548
30
0
10
-336.17031641460579
20
-209.52359920268071
30
0
10
-336.00583134137662
20
-209.34454463666921
30
0
10
-336.0058313413648
20
-209.07596278764203
30
0
0
LINE
5
174
100
AcDbEntity
8
0
100
AcDbLine
10
-298.54379567142519
20
-215.28397158044456
30
0
11
-299.46475023039432
21
-214.88555319428514
31
0
0
LINE
5
175
100
AcDbEntity
8
0
100
AcDbLine
10
-326.21046163614864
20
-208.35079179568561
30
0
11
-326.06299226017484
21
-208.69994819942772
31
0
0
SPLINE
5
176
100
AcDbEntity
8
0
100
AcDbSpline
70
0
71
3
72
10
73
6
74
0
42
0.000000001
43
0.0000000001
44
0.0000000001
40
8
40
8
40
8
40
8
40
9
40
9
40
10
40
10
40
10
40
10
10
-303.55105971755626
20
-204.4762799723091
30
0
10
-303.55105971755273
20
-204.40987690795623
30
0
10
-303.54764877473838
20
-204.3683749927348
30
0
10
-303.53400500349574
20
-204.33517346055908
30
0
10
-303.51012840381571
20
-204.32687307751598
30
0
10
-303.46919709008222
20
-204.32687307751769
30
0
0
LINE
5
177
100
AcDbEntity
8
0
100
AcDbLine
10
-332.28506554704029
20
-206.64798287259657
30
0
11
-331.64283791134983
21
-206.64798287262386
31
0
0
LINE
5
178
100
AcDbEntity
8
0
100
AcDbLine
10
-302.48684556050296
20
-204.47627997235372
30
0
11
-302.48684556074488
21
-209.56322900938059
31
0
0
SPLINE
5
179
100
AcDbEntity
8
0
100
AcDbSpline
70
0
71
3
72
11
73
7
74
0
42
0.000000001
43
0.0000000001
44
0.0000000001
40
14
40
14
40
14
40
14
40
15
40
15
40
15
40
16
40
16
40
16
40
16
10
-357.9220493731392
20
-209.72055922437505
30
0
10
-357.9220493731392
20
-209.69191049381212
30
0
10
-357.90692430893341
20
-209.67758612853203
30
0
10
-357.8766741805249
20
-209.67758612853302
30
0
10
-357.3094842728716
20
-209.67758612855746
30
0
10
-356.93324830079314
20
-209.62566030442815
30
0
10
-356.74796626428736
20
-209.52180865614508
30
0
0
SPLINE
5
180
100
AcDbEntity
8
0
100
AcDbSpline
70
0
71
3
72
12
73
8
74
0
42
0.000000001
43
0.0000000001
44
0.0000000001
40
27
40
27
40
27
40
27
40
28
40
28
40
29
40
29
40
30
40
30
40
30
40
30
10
-336.00583134124923
20
-206.6479828724384
30
0
10
-336.00583134124116
20
-206.47967158038185
30
0
10
-336.10319894204622
20
-206.29076901322847
30
0
10
-336.49266934528185
20
-205.87178132873009
30
0
10
-336.67889669829049
20
-205.7670344076021
30
0
10
-337.03433570708711
20
-205.76703440758649
30
0
10
-337.28011800040628
20
-205.83507514266304
30
0
10
-337.59396308264883
20
-205.97115661282319
30
0
0
SPLINE
5
181
100
AcDbEntity
8
0
100
AcDbSpline
70
0
71
3
72
10
73
6
74
0
42
0.000000001
43
0.0000000001
44
0.0000000001
40
27
40
27
40
27
40
27
40
28
40
28
40
29
40
29
40
29
40
29
10
-298.46193304395285
20
-215.13456468565411
30
0
10
-298.46193304395649
20
-215.20096775000701
30
0
10
-298.46534398676897
20
-215.24128389621964
30
0
10
-298.47898775801525
20
-215.27448542839602
30
0
10
-298.50286435769181
20
-215.28397158044456
30
0
10
-298.54379567142519
20
-215.28397158044456
30
0
0
LINE
5
182
100
AcDbEntity
8
0
100
AcDbLine
10
-336.0058313413648
20
-209.07596278764203
30
0
11
-336.00583134124923
21
-206.6479828724384
31
0
0
SPLINE
5
183
100
AcDbEntity
8
0
100
AcDbSpline
70
0
71
3
72
8
73
4
74
0
42
0.000000001
43
0.0000000001
44
0.0000000001
40
16
40
16
40
16
40
16
40
17
40
17
40
17
40
17
10
-347.84875661319802
20
-209.52180865652343
30
0
10
-347.7996001545327
20
-209.4931599259632
30
0
10
-347.77502192519586
20
-209.36603118409096
30
0
10
-347.7750219251858
20
-209.14042243090876
30
0
0
LINE
5
184
100
AcDbEntity
8
0
100
AcDbLine
10
-330.81004196290621
20
-205.39902297253587
30
0
11
-330.81004209352227
21
-205.00767789640761
31
0
0
LINE
5
185
100
AcDbEntity
8
0
100
AcDbLine
10
-329.98227452198466
20
-207.06159892019565
30
0
11
-330.81004196264695
21
-207.06159892016046
31
0
0
SPLINE
5
186
100
AcDbEntity
8
0
100
AcDbSpline
70
0
71
3
72
15
73
11
74
0
42
0.000000001
43
0.0000000001
44
0.0000000001
40
14
40
14
40
14
40
14
40
15
40
15
40
16
40
16
40
17
40
17
40
17
40
18
40
18
40
18
40
18
10
-333.19256939938725
20
-208.78052275383169
30
0
10
-332.71612987697893
20
-209.20309152965515
30
0
10
-332.2198387077907
20
-209.41437591757736
30
0
10
-331.18755307586082
20
-209.4143759176221
30
0
10
-330.75554342952273
20
-209.22636862332055
30
0
10
-330.05979047609821
20
-208.47433944607448
30
0
10
-329.88585223772878
20
-208.00879757443511
30
0
10
-329.88585223770235
20
-207.45372841978011
30
0
10
-329.88585223768962
20
-207.19230875339298
30
0
10
-329.91799299911719
20
-207.06159892019852
30
0
10
-329.98227452198466
20
-207.06159892019565
30
0
0
SPLINE
5
187
100
AcDbEntity
8
0
100
AcDbSpline
70
0
71
3
72
8
73
4
74
0
42
0.000000001
43
0.0000000001
44
0.0000000001
40
0
40
0
40
0
40
0
40
1
40
1
40
1
40
1
10
-302.54483158859716
20
-210.92212029059812
30
0
10
-302.58348894045599
20
-210.92212029059812
30
0
10
-302.63010515887265
20
-210.90789106251819
30
0
10
-302.68468024384879
20
-210.87943260636683
30
0
0
LINE
5
188
100
AcDbEntity
8
0
100
AcDbLine
10
-331.66061917822208
20
-205.37394453678658
30
0
11
-331.66697850512236
21
-204.91829486498105
31
0
0
SPLINE
5
189
100
AcDbEntity
8
0
100
AcDbSpline
70
0
71
3
72
8
73
4
74
0
42
0.000000001
43
0.0000000001
44
0.0000000001
40
30
40
30
40
30
40
30
40
31
40
31
40
31
40
31
10
-337.59396308264883
20
-205.97115661282319
30
0
10
-337.68093220182351
20
-206.01054861734411
30
0
10
-337.74710435771703
20
-206.03382571092311
30
0
10
-337.79247955032963
20
-206.04098789356129
30
0
0
SPLINE
5
190
100
AcDbEntity
8
0
100
AcDbSpline
70
0
71
3
72
16
73
12
74
0
42
0.000000001
43
0.0000000001
44
0.0000000001
40
10
40
10
40
10
40
10
40
11
40
11
40
12
40
12
40
13
40
13
40
14
40
14
40
15
40
15
40
15
40
15
10
-334.37799630623266
20
-205.5897703873413
30
0
10
-334.32127731546927
20
-205.61841911790694
30
0
10
-334.29291782008852
20
-205.65333475828135
30
0
10
-334.29291782009125
20
-205.73569985864989
30
0
10
-334.29953503568152
20
-205.76255804355213
30
0
10
-334.32600389804088
20
-205.78762568279373
30
0
10
-334.35814465947544
20
-205.80105477524341
30
0
10
-334.4602388428541
20
-205.82970350580189
30
0
10
-334.52924694828567
20
-205.84492314391048
30
0
10
-334.70318518663504
20
-205.87715296578574
30
0
10
-334.78448240673237
20
-205.89774424087466
30
0
10
-334.8601077277545
20
-205.92281188011441
30
0
0
SPLINE
5
191
100
AcDbEntity
8
0
100
AcDbSpline
70
0
71
3
72
20
73
16
74
0
42
0.000000001
43
0.0000000001
44
0.0000000001
40
0
40
0
40
0
40
0
40
1
40
1
40
2
40
2
40
2
40
3
40
3
40
4
40
4
40
4
40
5
40
5
40
6
40
6
40
6
40
6
10
-317.98422675211282
20
-209.50631209642017
30
0
10
-317.56581776729593
20
-209.6533474532186
30
0
10
-317.20425782932682
20
-209.75058051175128
30
0
10
-316.59483604708771
20
-209.84544203228126
30
0
10
-316.28557723222008
20
-209.86915741242012
30
0
10
-315.97177049360209
20
-209.86915741243376
30
0
10
-315.43056756757971
20
-209.86915741245568
30
0
10
-315.00647367806516
20
-209.74583743581903
30
0
10
-314.39250397204893
20
-209.25255752922362
30
0
10
-314.23901154553562
20
-208.91579913144199
30
0
10
-314.23901154551561
20
-208.48892228917308
30
0
10
-314.2390115454993
20
-208.15690696740933
30
0
10
-314.32087417295236
20
-207.87113663688771
30
0
10
-314.64832468279116
20
-207.39208595832835
30
0
10
-314.88709067955745
20
-207.2248925284299
30
0
10
-315.20089741817088
20
-207.13003100791283
30
0
0
SPLINE
5
192
100
AcDbEntity
8
0
100
AcDbSpline
70
0
71
3
72
11
73
7
74
0
42
0.000000001
43
0.0000000001
44
0.0000000001
40
4
40
4
40
4
40
4
40
5
40
5
40
5
40
6
40
6
40
6
40
6
10
-336.27241059780232
20
-205.72406131177445
30
0
10
-336.14762881812675
20
-205.89237260383712
30
0
10
-336.07011286408522
20
-205.97652824986906
30
0
10
-336.03986273567727
20
-205.97652824986994
30
0
10
-336.01717513937109
20
-205.97652824986994
30
0
10
-336.00583134121649
20
-205.95504170194886
30
0
10
-336.00583134121388
20
-205.91206860610484
30
0
0
SPLINE
5
193
100
AcDbEntity
8
0
100
AcDbSpline
70
0
71
3
72
12
73
8
74
0
42
0.000000001
43
0.0000000001
44
0.0000000001
40
21
40
21
40
21
40
21
40
22
40
22
40
23
40
23
40
24
40
24
40
24
40
24
10
-347.34962949412807
20
-202.48496421203771
30
0
10
-347.08494087057272
20
-202.78577588295917
30
0
10
-346.7502988250709
20
-203.10628355614585
30
0
10
-345.94110789018487
20
-203.78669090704875
30
0
10
-345.67074736754529
20
-203.99887056779122
30
0
10
-345.39849621188034
20
-204.16718185986042
30
0
10
-345.33043342296344
20
-204.21463131985703
30
0
10
-345.33043342296344
20
-204.22537459381843
30
0
0
LINE
5
194
100
AcDbEntity
8
0
100
AcDbLine
10
-356.67423157627405
20
-209.14042243053032
30
0
11
-356.67423157596312
21
-202.5870253142719
31
0
0
SPLINE
5
195
100
AcDbEntity
8
0
100
AcDbSpline
70
0
71
3
72
10
73
6
74
0
42
0.000000001
43
0.0000000001
44
0.0000000001
40
18
40
18
40
18
40
18
40
19
40
19
40
20
40
20
40
20
40
20
10
-356.67423157596312
20
-202.5870253142719
30
0
10
-356.67423157596113
20
-202.54763330974842
30
0
10
-356.66855967688315
20
-202.52077512484507
30
0
10
-356.64587208057685
20
-202.4921263942831
30
0
10
-356.61562195216641
20
-202.4849642116439
30
0
10
-356.56646549350364
20
-202.48496421164575
30
0
0
SPLINE
5
196
100
AcDbEntity
8
0
100
AcDbSpline
70
0
71
3
72
8
73
4
74
0
42
0.000000001
43
0.0000000001
44
0.0000000001
40
8
40
8
40
8
40
8
40
9
40
9
40
9
40
9
10
-354.46219093644885
20
-209.6775861286784
30
0
10
-354.43194080804113
20
-209.67758612867928
30
0
10
-354.41681574383898
20
-209.6919104939613
30
0
10
-354.41681574383898
20
-209.72055922452421
30
0
0
LINE
5
197
100
AcDbEntity
8
0
100
AcDbLine
10
-302.68468024384879
20
-210.87943260636683
30
0
11
-304.49930181930006
21
-210.09682506213039
31
0
0
LINE
5
198
100
AcDbEntity
8
0
100
AcDbLine
10
-299.52614720072251
20
-209.17192523742841
30
0
11
-299.52614720049883
21
-204.4762799724792
31
0
0
SPLINE
5
199
100
AcDbEntity
8
0
100
AcDbSpline
70
0
71
3
72
14
73
10
74
0
42
0.000000001
43
0.0000000001
44
0.0000000001
40
32
40
32
40
32
40
32
40
33
40
33
40
34
40
34
40
35
40
35
40
36
40
36
40
36
40
36
10
-299.52614720080072
20
-210.84385953631198
30
0
10
-299.74899546446085
20
-210.89603337257785
30
0
10
-299.96388486155973
20
-210.92212029070799
30
0
10
-300.37774592263492
20
-210.92212029069159
30
0
10
-300.62560776690049
20
-210.85927453334861
30
0
10
-301.20319408289839
20
-210.60789150398577
30
0
10
-301.51927478338081
20
-210.45967037818514
30
0
10
-302.20601126932723
20
-210.11816890434207
30
0
10
-302.38224331455973
20
-210.0327935358807
30
0
10
-302.39133916205725
20
-210.03279353587985
30
0
0
LINE
5
200
100
AcDbEntity
8
0
100
AcDbLine
10
-314.58692771216482
20
-206.81698799027492
30
0
11
-314.58692771216749
21
-206.86679028854059
31
0
0
SPLINE
5
201
100
AcDbEntity
8
0
100
AcDbSpline
70
0
71
3
72
18
73
14
74
0
42
0.000000001
43
0.0000000001
44
0.0000000001
40
14
40
14
40
14
40
14
40
15
40
15
40
16
40
16
40
17
40
17
40
18
40
18
40
19
40
19
40
20
40
20
40
20
40
20
10
-302.48684556074488
20
-209.56322900938059
30
0
10
-302.41862670452798
20
-209.65334745386346
30
0
10
-302.34813388643681
20
-209.71975051821815
30
0
10
-302.20260032650003
20
-209.80512588667864
30
0
10
-302.13097052747258
20
-209.85018510892019
30
0
10
-301.98998489128473
20
-209.94504662943086
30
0
10
-301.84217736947551
20
-210.01026392478309
30
0
10
-301.39193291842116
20
-210.1762715856845
30
0
10
-301.14748201696432
20
-210.21777350091611
30
0
10
-300.6199228621864
20
-210.21777350093785
30
0
10
-300.32771876136593
20
-210.11935467342727
30
0
10
-299.6864615128689
20
-209.72567936336299
30
0
10
-299.52614720073529
20
-209.47548210304069
30
0
10
-299.52614720072251
20
-209.17192523742841
30
0
0
LINE
5
202
100
AcDbEntity
8
0
100
AcDbLine
10
-349.02283972205731
20
-209.84947851228642
30
0
11
-349.02283972205078
21
-209.72055922475349
31
0
0
LINE
5
203
100
AcDbEntity
8
0
100
AcDbLine
10
-304.56069878988831
20
-209.88338664099388
30
0
11
-304.16502942380436
21
-209.91184509716163
31
0
0
CIRCLE
5
204
100
AcDbEntity
8
0
100
AcDbCircle
10
-262.88822012229724
20
-216.92479045909766
30
0
40
1.7499999999999893
210
0
220
0
230
1
0
SPLINE
5
205
100
AcDbEntity
8
0
100
AcDbSpline
70
0
71
3
72
10
73
6
74
0
42
0.000000001
43
0.0000000001
44
0.0000000001
40
5
40
5
40
5
40
5
40
6
40
6
40
7
40
7
40
7
40
7
10
-304.16502942380436
20
-209.91184509716163
30
0
10
-303.9603728551412
20
-209.91184509716973
30
0
10
-303.81256533332652
20
-209.86678587493745
30
0
10
-303.6306483833942
20
-209.686548985988
30
0
10
-303.57379933653482
20
-209.53714209119582
30
0
10
-303.55105971778545
20
-209.3284467460887
30
0
0
CIRCLE
5
206
100
AcDbEntity
8
0
100
AcDbCircle
10
-368.8882201222973
20
-216.92479045909766
30
0
40
1.7499999999999918
210
0
220
0
230
1
0
SPLINE
5
207
100
AcDbEntity
8
0
100
AcDbSpline
70
0
71
3
72
8
73
4
74
0
42
0.000000001
43
0.0000000001
44
0.0000000001
40
6
40
6
40
6
40
6
40
7
40
7
40
7
40
7
10
-330.14675959518564
20
-206.64798287268763
30
0
10
-330.07869680626669
20
-206.64798287269039
30
0
10
-330.04466541180597
20
-206.61396250514889
30
0
10
-330.04466541180329
20
-206.54592177006157
30
0
0
LINE
5
208
100
AcDbEntity
8
0
100
AcDbLine
10
-317.07691596426048
20
-207.22252099032417
30
0
11
-317.07691596422774
21
-206.53951804269454
31
0
0
LINE
5
209
100
AcDbEntity
8
0
100
AcDbLine
10
-303.46919709008222
20
-204.32687307751769
30
0
11
-302.56870818796244
21
-204.32687307755612
31
0
0
CIRCLE
5
210
100
AcDbEntity
8
0
100
AcDbCircle
10
-262.86758852011485
20
-86.79286819236593
30
0
40
3.0000000000000071
210
0
220
0
230
1
0
SPLINE
5
211
100
AcDbEntity
8
0
100
AcDbSpline
70
0
71
3
72
8
73
4
74
0
42
0.000000001
43
0.0000000001
44
0.0000000001
40
18
40
18
40
18
40
18
40
19
40
19
40
19
40
19
10
-323.13062043744429
20
-205.32118853879331
30
0
10
-323.47093438204149
20
-205.42504018706842
30
0
10
-323.71104477629268
20
-205.65781112288161
30
0
10
-323.85095162019763
20
-206.01950134623218
30
0
0
LINE
5
212
100
AcDbEntity
8
0
100
AcDbLine
10
-330.81004196262927
20
-206.64798287265938
30
0
11
-330.14675959518564
21
-206.64798287268763
31
0
0
CIRCLE
5
213
100
AcDbEntity
8
0
100
AcDbCircle
10
-126.25508725303938
20
-216.92427102115815
30
0
40
1.7499999999999964
210
0
220
0
230
1
0
SPLINE
5
214
100
AcDbEntity
8
0
100
AcDbSpline
70
0
71
3
72
13
73
9
74
0
42
0.000000001
43
0.0000000001
44
0.0000000001
40
0
40
0
40
0
40
0
40
1
40
1
40
1
40
2
40
2
40
2.9122961630456961
40
2.9122961630456961
40
2.9122961630456961
40
2.9122961630456961
10
-333.27197598637679
20
-207.06159892005559
30
0
10
-333.35138257344818
20
-207.061598920053
30
0
10
-333.39108586698069
20
-206.98460545666305
30
0
10
-333.39108586697336
20
-206.83061852988772
30
0
10
-333.39108586695716
20
-206.47967158049298
30
0
10
-333.2171476285904
20
-206.07232244280905
30
0
10
-332.55190477695174
20
-205.18549256154665
30
0
10
-332.15114056136838
20
-204.9554004775942
30
0
10
-331.66697850512236
20
-204.91829486498105
30
0
0
SPLINE
5
215
100
AcDbEntity
8
0
100
AcDbSpline
70
0
71
3
72
8
73
4
74
0
42
0.000000001
43
0.0000000001
44
0.0000000001
40
10
40
10
40
10
40
10
40
11
40
11
40
11
40
11
10
-354.4168157438454
20
-209.84947851205709
30
0
10
-354.41681574384722
20
-209.87812724262005
30
0
10
-354.43194080805199
20
-209.89245160790105
30
0
10
-354.46219093645965
20
-209.8924516079002
30
0
0
LINE
5
216
100
AcDbEntity
8
0
100
AcDbLine
10
-354.41681574383898
20
-209.72055922452421
30
0
11
-354.4168157438454
21
-209.84947851205709
31
0
0
SPLINE
5
217
100
AcDbEntity
8
0
100
AcDbSpline
70
0
71
3
72
8
73
4
74
0
42
0.000000001
43
0.0000000001
44
0.0000000001
40
17
40
17
40
17
40
17
40
18
40
18
40
18
40
18
10
-335.12101508542509
20
-209.07596278768017
30
0
10
-335.12101508544134
20
-209.42690973707499
30
0
10
-334.9168267186962
20
-209.6310319423452
30
0
10
-334.50844998518744
20
-209.68832940348761
30
0
0
LINE
5
218
100
AcDbEntity
8
0
100
AcDbLine
10
-333.24928839015234
20
-208.7697794798693
30
0
11
-333.22092889476886
21
-208.76977947987012
31
0
0
SPLINE
5
219
100
AcDbEntity
8
0
100
AcDbSpline
70
0
71
3
72
13
73
9
74
0
42
0.000000001
43
0.0000000001
44
0.0000000001
40
2.4720143445441609
40
2.4720143445441609
40
2.4720143445441609
40
2.4720143445441609
40
3
40
3
40
4
40
4
40
4
40
5
40
5
40
5
40
5
10
-331.66061917822208
20
-205.37394453678658
30
0
10
-331.80256671631349
20
-205.44132588062803
30
0
10
-331.93792613442207
20
-205.54639292555896
30
0
10
-332.3105890928519
20
-205.95951806625609
30
0
10
-332.43253492300948
20
-206.2236235511279
30
0
10
-332.43253492302222
20
-206.48146212619361
30
0
10
-332.43253492302767
20
-206.592475957125
30
0
10
-332.38337846436661
20
-206.64798287259305
30
0
10
-332.28506554704029
20
-206.64798287259657
30
0
0
SPLINE
5
220
100
AcDbEntity
8
0
100
AcDbSpline
70
0
71
3
72
16
73
12
74
0
42
0.000000001
43
0.0000000001
44
0.0000000001
40
3
40
3
40
3
40
3
40
4
40
4
40
5
40
5
40
6
40
6
40
7
40
7
40
8
40
8
40
8
40
8
10
-346.95259655908751
20
-209.1565373418851
30
0
10
-346.95259655909297
20
-209.26038899017541
30
0
10
-346.94692466002039
20
-209.3445446362044
30
0
10
-346.9242370637204
20
-209.47346392373831
30
0
10
-346.88736971972503
20
-209.52180865656445
30
0
10
-346.76258794004491
20
-209.5862683003358
30
0
10
-346.65387654107803
20
-209.60954539392299
30
0
10
-346.34381272489571
20
-209.63819412449962
30
0
10
-346.19634334890571
20
-209.64804212563621
30
0
10
-345.91652966113088
20
-209.65878539961039
30
0
10
-345.752044587912
20
-209.6668428550872
30
0
10
-345.56298128536042
20
-209.67758612905692
30
0
0
SPLINE
5
221
100
AcDbEntity
8
0
100
AcDbSpline
70
0
71
3
72
16
73
12
74
0
42
0.000000001
43
0.0000000001
44
0.0000000001
40
3
40
3
40
3
40
3
40
4
40
4
40
5
40
5
40
6
40
6
40
7
40
7
40
8
40
8
40
8
40
8
10
-355.85180621017685
20
-209.15653734150649
30
0
10
-355.85180621018134
20
-209.26038898979698
30
0
10
-355.84613431110847
20
-209.34454463582625
30
0
10
-355.82344671480962
20
-209.47346392335987
30
0
10
-355.78657937081346
20
-209.52180865618601
30
0
10
-355.66179759113322
20
-209.58626829995842
30
0
10
-355.5530861921664
20
-209.60954539354461
30
0
10
-355.24302237598408
20
-209.63819412412136
30
0
10
-355.09555299999397
20
-209.64804212525786
30
0
10
-354.81573931222016
20
-209.65878539923111
30
0
10
-354.6512542390002
20
-209.66684285470882
30
0
10
-354.46219093644885
20
-209.6775861286784
30
0
0
LINE
5
222
100
AcDbEntity
8
0
100
AcDbLine
10
-335.12101508528951
20
-206.23436682497487
30
0
11
-335.12101508542509
21
-209.07596278768017
31
0
0
LINE
5
223
100
AcDbEntity
8
0
100
AcDbLine
10
-302.39133916205725
20
-210.03279353587985
30
0
11
-302.43909236141025
21
-210.03279353587786
31
0
0
LINE
5
224
100
AcDbEntity
8
0
100
AcDbLine
10
-347.7750219251858
20
-209.14042243090876
30
0
11
-347.7750219248739
21
-202.58702531465033
31
0
0
SPLINE
5
225
100
AcDbEntity
8
0
100
AcDbSpline
70
0
71
3
72
8
73
4
74
0
42
0.000000001
43
0.0000000001
44
0.0000000001
40
1
40
1
40
1
40
1
40
2
40
2
40
2
40
2
10
-346.8278147791363
20
-203.5216901493047
30
0
10
-346.9147838983082
20
-203.45723050553408
30
0
10
-346.95637782486779
20
-203.42858177497035
30
0
10
-346.95259655881637
20
-203.43574395761024
30
0
0
SPLINE
5
226
100
AcDbEntity
8
0
100
AcDbSpline
70
0
71
3
72
8
73
4
74
0
42
0.000000001
43
0.0000000001
44
0.0000000001
40
7
40
7
40
7
40
7
40
8
40
8
40
8
40
8
10
-326.06299226017484
20
-208.69994819942772
30
0
10
-325.98736693916373
20
-208.89332713073017
30
0
10
-325.91174161814251
20
-208.89869876771405
30
0
10
-325.83611629711328
20
-208.71606311037937
30
0
0
LINE
5
227
100
AcDbEntity
8
0
100
AcDbLine
10
-346.95259655881637
20
-203.43574395761024
30
0
11
-346.95259655908751
21
-209.1565373418851
31
0
0
LINE
5
228
100
AcDbEntity
8
0
100
AcDbLine
10
-334.29858971936483
20
-209.89245160875697
30
0
11
-337.14021115671142
21
-209.89245160863604
31
0
0
SPLINE
5
229
100
AcDbEntity
8
0
100
AcDbSpline
70
0
71
3
72
29
73
25
74
0
42
0.000000001
43
0.0000000001
44
0.0000000001
40
0
40
0
40
0
40
0
40
1
40
1
40
1
40
2
40
2
40
2
40
3
40
3
40
3
40
4
40
4
40
4
40
5
40
5
40
5
40
6
40
6
40
6
40
7
40
7
40
7
40
8
40
8
40
8
40
8
10
-351.49711887143354
20
-209.8681656108316
30
0
10
-351.62114076207865
20
-209.98104574127282
30
0
10
-351.7685174243361
20
-210.03748580648846
30
0
10
-351.93924885820644
20
-210.03748580648136
30
0
10
-352.11320163988341
20
-210.03748580647488
30
0
10
-352.2613836390866
20
-209.9818084448296
30
0
10
-352.38379485581856
20
-209.87045372154506
30
0
10
-352.50620607255053
20
-209.7590989982624
30
0
10
-352.56741168091315
20
-209.61952424237074
30
0
10
-352.56741168090423
20
-209.45172945386886
30
0
10
-352.56741168089775
20
-209.28393466536704
30
0
10
-352.50540073557039
20
-209.14130909514432
30
0
10
-352.38137884492238
20
-209.02385274319903
30
0
10
-352.25735695427574
20
-208.90639639125371
30
0
10
-352.10998029202011
20
-208.84766821528476
30
0
10
-351.93924885814994
20
-208.847668215292
30
0
10
-351.76529607647268
20
-208.84766821529936
30
0
10
-351.61711407726779
20
-208.90792179844865
30
0
10
-351.49470286053764
20
-209.02842896474135
30
0
10
-351.37229164380562
20
-209.14893613103462
30
0
10
-351.3110860354447
20
-209.290798997678
30
0
10
-351.31108603545096
20
-209.45401756467504
30
0
10
-351.31108603545829
20
-209.61723613167089
30
0
10
-351.37309698078582
20
-209.75528548038966
30
0
10
-351.49711887143354
20
-209.8681656108316
30
0
0
LINE
5
230
100
AcDbEntity
8
0
100
AcDbLine
10
-326.05164846207754
20
-209.88170833514658
30
0
11
-327.60007690979307
21
-206.08933262682044
31
0
0
LINE
5
231
100
AcDbEntity
8
0
100
AcDbLine
10
-354.46219093645965
20
-209.8924516079002
30
0
11
-357.87667418053564
21
-209.89245160775468
31
0
0
SPLINE
5
232
100
AcDbEntity
8
0
100
AcDbSpline
70
0
71
3
72
8
73
4
74
0
42
0.000000001
43
0.0000000001
44
0.0000000001
40
15
40
15
40
15
40
15
40
16
40
16
40
16
40
16
10
-334.8601077277545
20
-205.92281188011441
30
0
10
-335.03404596610392
20
-205.98010934123309
30
0
10
-335.12101508528326
20
-206.08396098951985
30
0
10
-335.12101508528951
20
-206.23436682497487
30
0
0
LINE
5
233
100
AcDbEntity
8
0
100
AcDbLine
10
-345.51760609274982
20
-209.72055922490256
30
0
11
-345.51760609275703
21
-209.84947851243547
31
0
0
SPLINE
5
234
100
AcDbEntity
8
0
100
AcDbSpline
70
0
71
3
72
8
73
4
74
0
42
0.000000001
43
0.0000000001
44
0.0000000001
40
24
40
24
40
24
40
24
40
25
40
25
40
25
40
25
10
-345.33043342296344
20
-204.22537459381843
30
0
10
-345.37958988163155
20
-204.3184829681455
30
0
10
-345.41740254214369
20
-204.3650371553091
30
0
10
-345.44387140450107
20
-204.36503715530819
30
0
0
SPLINE
5
235
100
AcDbEntity
8
0
100
AcDbSpline
70
0
71
3
72
16
73
12
74
0
42
0.000000001
43
0.0000000001
44
0.0000000001
40
21
40
21
40
21
40
21
40
22
40
22
40
22
40
23
40
23
40
24
40
24
40
24
40
25
40
25
40
25
40
25
10
-317.7932139544256
20
-203.85730855041473
30
0
10
-317.21562763841035
20
-203.68655781353183
30
0
10
-316.60393189428862
20
-203.60118244510403
30
0
10
-315.95812672206023
20
-203.60118244513137
30
0
10
-315.15314421864895
20
-203.60118244516602
30
0
10
-314.51416093205
20
-203.75296087799933
30
0
10
-313.56819279247708
20
-204.3600746092649
30
0
10
-313.33170075759443
20
-204.77746529949286
30
0
10
-313.33170075762087
20
-205.3086898143153
30
0
10
-313.33170075765452
20
-206.02489429412046
30
0
10
-313.75010974250301
20
-206.5276603527744
30
0
10
-314.58692771216482
20
-206.81698799027492
30
0
0
SPLINE
5
236
100
AcDbEntity
8
0
100
AcDbSpline
70
0
71
3
72
8
73
4
74
0
42
0.000000001
43
0.0000000001
44
0.0000000001
40
6
40
6
40
6
40
6
40
7
40
7
40
7
40
7
10
-315.20089741817088
20
-207.13003100791283
30
0
10
-315.99678407408925
20
-207.19169099620615
30
0
10
-316.54935680948279
20
-207.22252099034691
30
0
10
-316.85861562435286
20
-207.22252099033329
30
0
0
SPLINE
5
237
100
AcDbEntity
8
0
100
AcDbSpline
70
0
71
3
72
8
73
4
74
0
42
0.000000001
43
0.0000000001
44
0.0000000001
40
0
40
0
40
0
40
0
40
1
40
1
40
1
40
1
10
-345.47790279896083
20
-204.35966551832621
30
0
10
-345.88627953246214
20
-204.17344876965004
30
0
10
-346.33625019252037
20
-203.89412364664241
30
0
10
-346.8278147791363
20
-203.5216901493047
30
0
0
SPLINE
5
238
100
AcDbEntity
8
0
100
AcDbSpline
70
0
71
3
72
8
73
4
74
0
42
0.000000001
43
0.0000000001
44
0.0000000001
40
1
40
1
40
1
40
1
40
2
40
2
40
2
40
2
10
-355.72702443022456
20
-203.52169014892539
30
0
10
-355.81399354939657
20
-203.45723050515571
30
0
10
-355.85558747595599
20
-203.42858177459101
30
0
10
-355.8518062099057
20
-203.43574395723184
30
0
0
SPLINE
5
239
100
AcDbEntity
8
0
100
AcDbSpline
70
0
71
3
72
10
73
6
74
0
42
0.000000001
43
0.0000000001
44
0.0000000001
40
24
40
24
40
24
40
24
40
25
40
25
40
26
40
26
40
26
40
26
10
-298.54379567090683
20
-204.32687307772687
30
0
10
-298.50286435717322
20
-204.32687307772864
30
0
10
-298.47898775749678
20
-204.3351734607748
30
0
10
-298.46534398625244
20
-204.36837499295109
30
0
10
-298.46193304344348
20
-204.40987690817258
30
0
10
-298.46193304344729
20
-204.47627997252562
30
0
0
LINE
5
240
100
AcDbEntity
8
0
100
AcDbLine
10
-354.34308105559006
20
-204.36503715492989
30
0
11
-354.3771124500492
21
-204.35966551794775
31
0
0
SPLINE
5
241
100
AcDbEntity
8
0
100
AcDbSpline
70
0
71
3
72
10
73
6
74
0
42
0.000000001
43
0.0000000001
44
0.0000000001
40
21
40
21
40
21
40
21
40
22
40
22
40
23
40
23
40
23
40
23
10
-299.52614720049883
20
-204.4762799724792
30
0
10
-299.52614720049684
20
-204.40987690812719
30
0
10
-299.52273625768436
20
-204.36837499290576
30
0
10
-299.50909248643626
20
-204.33517346073012
30
0
10
-299.48521588676169
20
-204.32687307768688
30
0
10
-299.44428457302649
20
-204.32687307768884
30
0
0
LINE
5
242
100
AcDbEntity
8
0
100
AcDbLine
10
-303.55105971778545
20
-209.3284467460887
30
0
11
-303.55105971755626
21
-204.4762799723091
31
0
0
ENDSEC
0
SECTION
2
OBJECTS
0
DICTIONARY
5
C
100
AcDbDictionary
3
ACAD_GROUP
350
D
3
ACAD_MLINESTYLE
350
17
0
DICTIONARY
5
D
100
AcDbDictionary
0
DICTIONARY
5
1A
330
C
100
AcDbDictionary
0
DICTIONARY
5
17
100
AcDbDictionary
0
ENDSEC
0
EOF
