0
SECTION
2
HEADER
9
$INSUNITS
70
4
9
$ACADVER
1
AC1014
9
$HANDSEED
5
FFFF
0
ENDSEC
0
SECTION
2
TABLES
0
TABLE
2
VPORT
5
8
100
AcDbSymbolTable
0
ENDTAB
0
TABLE
2
LTYPE
5
5
100
AcDbSymbolTable
0
LTYPE
5
14
100
AcDbSymbolTableRecord
100
AcDbLinetypeTableRecord
2
BYBLOCK
70
0
0
LTYPE
5
15
100
AcDbSymbolTableRecord
100
AcDbLinetypeTableRecord
2
BYLAYER
70
0
0
ENDTAB
0
TABLE
2
LAYER
5
2
100
AcDbSymbolTable
70
2
0
LAYER
5
50
100
AcDbSymbolTableRecord
100
AcDbLayerTableRecord
2
0
70
0
6
CONTINUOUS
0
ENDTAB
0
TABLE
2
STYLE
5
3
100
AcDbSymbolTable
70
1
0
STYLE
5
11
100
AcDbSymbolTableRecord
100
AcDbTextStyleTableRecord
2
STANDARD
70
0
0
ENDTAB
0
TABLE
2
VIEW
5
6
100
AcDbSymbolTable
70
0
0
ENDTAB
0
TABLE
2
UCS
5
7
100
AcDbSymbolTable
70
0
0
ENDTAB
0
TABLE
2
APPID
5
9
100
AcDbSymbolTable
70
2
0
APPID
5
12
100
AcDbSymbolTableRecord
100
AcDbRegAppTableRecord
2
ACAD
70
0
0
ENDTAB
0
TABLE
2
DIMSTYLE
5
A
100
AcDbSymbolTable
70
1
0
ENDTAB
0
TABLE
2
BLOCK_RECORD
5
1
100
AcDbSymbolTable
70
1
0
BLOCK_RECORD
5
1F
100
AcDbSymbolTableRecord
100
AcDbBlockTableRecord
2
*MODEL_SPACE
0
BLOCK_RECORD
5
1B
100
AcDbSymbolTableRecord
100
AcDbBlockTableRecord
2
*PAPER_SPACE
0
ENDTAB
0
ENDSEC
0
SECTION
2
BLOCKS
0
BLOCK
5
20
100
AcDbEntity
100
AcDbBlockBegin
2
*MODEL_SPACE
0
ENDBLK
5
21
100
AcDbEntity
100
AcDbBlockEnd
0
BLOCK
5
1C
100
AcDbEntity
100
AcDbBlockBegin
2
*PAPER_SPACE
0
ENDBLK
5
1D
100
AcDbEntity
100
AcDbBlockEnd
0
ENDSEC
0
SECTION
2
ENTITIES
0
LWPOLYLINE
5
100
100
AcDbEntity
8
0
100
AcDbPolyline
90
8
70
1
43
0.0
10
-310.25508725329985
20
359.09882609875581
10
-310.2549079226884
20
360.09846726051757
10
-310.25471562118048
20
361.17041198506564
42
0.41422165466086386
10
-312.25441205647201
20
363.17077075199711
10
-666.86758720723731
20
363.22458906896856
42
0.41425801438115423
10
-668.86789073976331
20
361.22458909200162
10
-668.87729545868297
20
298.22400594285045
10
-310.25921334171414
20
298.17047148184503
0
CIRCLE
5
101
100
AcDbEntity
8
0
100
AcDbCircle
10
-557.86758852011485
20
289.20713180763408
30
0
40
1.7499999999999716
210
0
220
0
230
1
0
LWPOLYLINE
5
102
100
AcDbEntity
8
0
100
AcDbPolyline
90
6
70
1
43
0.0
10
-668.86789073976342
20
465.22458909200168
42
-0.41425801438113347
10
-666.86758720723742
20
467.22458906896867
10
-312.25441205647206
20
467.17077075199722
42
-0.41422165466087946
10
-310.25471562118048
20
465.1704119850657
10
-310.25921334171414
20
368.17047148184508
10
-668.88237097418096
20
368.22400670052286
0
LWPOLYLINE
5
103
100
AcDbEntity
8
0
100
AcDbPolyline
90
8
70
1
43
0.0
10
-310.25490792268846
20
290.09846726051757
10
-310.25471562118048
20
291.17041198506564
42
0.41422165466091071
10
-312.25441205647206
20
293.17077075199728
10
-666.86758720723742
20
293.22458906896856
42
0.41425801438116466
10
-668.86789073976331
20
291.22458909200168
10
-668.87236922363354
20
261.22400131744433
10
-310.25921334171414
20
261.17046759182665
10
-310.25508725329996
20
289.09882609875586
0
CIRCLE
5
104
100
AcDbEntity
8
0
100
AcDbCircle
10
-315.25454906835307
20
289.22382605048205
30
0
40
1.7500000000000182
210
0
220
0
230
1
0
CIRCLE
5
105
100
AcDbEntity
8
0
100
AcDbCircle
10
-421.25454906835301
20
289.22382605048205
30
0
40
1.7500000000000084
210
0
220
0
230
1
0
CIRCLE
5
106
100
AcDbEntity
8
0
100
AcDbCircle
10
-663.86758725329992
20
289.22382609654801
30
0
40
1.7500000000000342
210
0
220
0
230
1
0
CIRCLE
5
107
100
AcDbEntity
8
0
100
AcDbCircle
10
-421.25454906835301
20
463.22382605048205
30
0
40
2.9999999999999982
210
0
220
0
230
1
0
CIRCLE
5
108
100
AcDbEntity
8
0
100
AcDbCircle
10
-663.86758725329992
20
463.22382609654801
30
0
40
3.0000000000000071
210
0
220
0
230
1
0
CIRCLE
5
109
100
AcDbEntity
8
0
100
AcDbCircle
10
-663.86758725329992
20
359.22382609654795
30
0
40
3.0000000000000071
210
0
220
0
230
1
0
CIRCLE
5
110
100
AcDbEntity
8
0
100
AcDbCircle
10
-315.25454906835296
20
359.22382605048205
30
0
40
2.9999999999999964
210
0
220
0
230
1
0
CIRCLE
5
111
100
AcDbEntity
8
0
100
AcDbCircle
10
-315.25454906835307
20
463.22382605048205
30
0
40
2.9999999999999964
210
0
220
0
230
1
0
CIRCLE
5
112
100
AcDbEntity
8
0
100
AcDbCircle
10
-421.25454906835301
20
359.22382605048205
30
0
40
2.9999999999999982
210
0
220
0
230
1
0
CIRCLE
5
113
100
AcDbEntity
8
0
100
AcDbCircle
10
-557.86758852011485
20
359.20713180763408
30
0
40
3.0000000000000071
210
0
220
0
230
1
0
CIRCLE
5
114
100
AcDbEntity
8
0
100
AcDbCircle
10
-557.86758852011485
20
463.20713180763397
30
0
40
3.0000000000000071
210
0
220
0
230
1
0
ENDSEC
0
SECTION
2
OBJECTS
0
DICTIONARY
5
C
100
AcDbDictionary
3
ACAD_GROUP
350
D
3
ACAD_MLINESTYLE
350
17
0
DICTIONARY
5
D
100
AcDbDictionary
0
DICTIONARY
5
1A
330
C
100
AcDbDictionary
0
DICTIONARY
5
17
100
AcDbDictionary
0
ENDSEC
0
EOF
