0
SECTION
2
HEADER
9
$INSUNITS
70
4
9
$ACADVER
1
AC1014
9
$HANDSEED
5
FFFF
0
ENDSEC
0
SECTION
2
TABLES
0
TABLE
2
VPORT
5
8
100
AcDbSymbolTable
0
ENDTAB
0
TABLE
2
LTYPE
5
5
100
AcDbSymbolTable
0
LTYPE
5
14
100
AcDbSymbolTableRecord
100
AcDbLinetypeTableRecord
2
BYBLOCK
70
0
0
LTYPE
5
15
100
AcDbSymbolTableRecord
100
AcDbLinetypeTableRecord
2
BYLAYER
70
0
0
ENDTAB
0
TABLE
2
LAYER
5
2
100
AcDbSymbolTable
70
2
0
LAYER
5
50
100
AcDbSymbolTableRecord
100
AcDbLayerTableRecord
2
0
70
0
6
CONTINUOUS
0
ENDTAB
0
TABLE
2
STYLE
5
3
100
AcDbSymbolTable
70
1
0
STYLE
5
11
100
AcDbSymbolTableRecord
100
AcDbTextStyleTableRecord
2
STANDARD
70
0
0
ENDTAB
0
TABLE
2
VIEW
5
6
100
AcDbSymbolTable
70
0
0
ENDTAB
0
TABLE
2
UCS
5
7
100
AcDbSymbolTable
70
0
0
ENDTAB
0
TABLE
2
APPID
5
9
100
AcDbSymbolTable
70
2
0
APPID
5
12
100
AcDbSymbolTableRecord
100
AcDbRegAppTableRecord
2
ACAD
70
0
0
ENDTAB
0
TABLE
2
DIMSTYLE
5
A
100
AcDbSymbolTable
70
1
0
ENDTAB
0
TABLE
2
BLOCK_RECORD
5
1
100
AcDbSymbolTable
70
1
0
BLOCK_RECORD
5
1F
100
AcDbSymbolTableRecord
100
AcDbBlockTableRecord
2
*MODEL_SPACE
0
BLOCK_RECORD
5
1B
100
AcDbSymbolTableRecord
100
AcDbBlockTableRecord
2
*PAPER_SPACE
0
ENDTAB
0
ENDSEC
0
SECTION
2
BLOCKS
0
BLOCK
5
20
100
AcDbEntity
100
AcDbBlockBegin
2
*MODEL_SPACE
0
ENDBLK
5
21
100
AcDbEntity
100
AcDbBlockEnd
0
BLOCK
5
1C
100
AcDbEntity
100
AcDbBlockBegin
2
*PAPER_SPACE
0
ENDBLK
5
1D
100
AcDbEntity
100
AcDbBlockEnd
0
ENDSEC
0
SECTION
2
ENTITIES
0
LINE
5
100
100
AcDbEntity
8
0
100
AcDbLine
10
249.25323935659929
20
135.85335421053662
30
0
11
249.25322035659931
21
135.85335421053662
31
0
0
LINE
5
101
100
AcDbEntity
8
0
100
AcDbLine
10
250.25323935659927
20
134.85335621053673
30
0
11
250.25323935659927
21
134.35335421053662
31
0
0
LINE
5
102
100
AcDbEntity
8
0
100
AcDbLine
10
243.75322735659935
20
116.35335621053682
30
0
11
243.75322035659934
21
116.35335621053673
31
0
0
ARC
5
103
100
AcDbEntity
8
0
100
AcDbCircle
10
243.75322735659935
20
117.35335621053677
30
0
40
0.99999999999994316
210
0
220
0
230
1
100
AcDbArc
50
180
51
270
0
LINE
5
104
100
AcDbEntity
8
0
100
AcDbLine
10
242.75322735659941
20
117.35335421053682
30
0
11
242.75322735659941
21
134.85335621053665
31
0
0
LINE
5
105
100
AcDbEntity
8
0
100
AcDbLine
10
266.25323835659924
20
133.85335521053668
30
0
11
266.25323835659924
21
119.84734553655336
31
0
0
CIRCLE
5
106
100
AcDbEntity
8
0
100
AcDbCircle
10
339.86991274670004
20
35.57596841823846
30
0
40
2.9999999999999578
210
0
220
0
230
1
0
LINE
5
107
100
AcDbEntity
8
0
100
AcDbLine
10
259.60948835659929
20
77.203355210536671
30
0
11
259.60948835659929
21
77.203354210536617
31
0
0
ARC
5
108
100
AcDbEntity
8
0
100
AcDbCircle
10
241.22393237264006
20
98.245822099349738
30
0
40
1.0000000000000142
210
0
220
-0
230
1
100
AcDbArc
50
90
51
180.00040107010969
0
LINE
5
109
100
AcDbEntity
8
0
100
AcDbLine
10
267.10947335659938
20
77.703356210536668
30
0
11
267.10947335659938
21
60.203356210536747
31
0
0
LINE
5
110
100
AcDbEntity
8
0
100
AcDbLine
10
247.72391737261543
20
81.245824099349932
30
0
11
247.72391737261543
21
80.745822099349951
31
0
0
LINE
5
111
100
AcDbEntity
8
0
100
AcDbLine
10
3.984489356599354
20
78.703354210536645
30
0
11
3.9844703565993456
21
78.703354210536617
31
0
0
LINE
5
112
100
AcDbEntity
8
0
100
AcDbLine
10
259.10948835659923
20
76.703355210536671
30
0
11
259.10948835659923
21
62.697345536553343
31
0
0
LINE
5
113
100
AcDbEntity
8
0
100
AcDbLine
10
270.72392837261526
20
99.245822099349738
30
0
11
270.7239353726153
21
99.245822099349738
31
0
0
SPLINE
5
114
100
AcDbEntity
8
0
100
AcDbSpline
70
4
71
3
72
8
73
4
74
0
42
0.000000001
43
0.0000000001
44
0.0000000001
40
0
40
0
40
0
40
0
40
1
40
1
40
1
40
1
41
1
41
1
41
1
41
1
10
252.42754091182562
20
133.85042916353132
30
0
10
251.87362144820099
20
133.85042964804398
30
0
10
251.42908104888747
20
133.40235903538684
30
0
10
251.42908104888747
20
132.85197414572011
30
0
0
SPLINE
5
115
100
AcDbEntity
8
0
100
AcDbSpline
70
4
71
3
72
8
73
4
74
0
42
0.000000001
43
0.0000000001
44
0.0000000001
40
0
40
0
40
0
40
0
40
1
40
1
40
1
40
1
41
1
41
1
41
1
41
1
10
245.28379091182561
20
76.700429163531325
30
0
10
244.72987144820095
20
76.700429648044008
30
0
10
244.28533104888746
20
76.252359035386831
30
0
10
244.28533104888746
20
75.701974145720143
30
0
0
LWPOLYLINE
5
116
100
AcDbEntity
8
0
100
AcDbPolyline
90
8
70
1
43
0.0
10
141.89491274670004
20
94.747968369999995
10
141.89491274670002
20
82.747968369999981
42
0.4142135623730534
10
142.89491274669999
20
81.747968370000024
10
154.89491274670004
20
81.747968370000009
42
0.41421356237311063
10
155.89491274670004
20
82.747968369999981
10
155.89491274669996
20
94.747968369999995
42
0.41421356237310025
10
154.89491274670004
20
95.747968369999995
10
142.89491274669999
20
95.747968370000052
42
0.4142135623730846
0
LWPOLYLINE
5
117
100
AcDbEntity
8
0
100
AcDbPolyline
90
8
70
1
43
0.0
10
232.38247969249969
20
56.628871184500028
10
232.38247969250011
20
44.628871184499999
42
0.41421356237304818
10
233.38247969250003
20
43.628871184500191
10
245.38249157590252
20
43.628881370283423
42
0.41421356237294676
10
246.38249072708774
20
44.628882219097569
10
246.38248054131418
20
56.62888221908824
42
0.41421356237306639
10
245.38247969250017
20
57.628881370273461
10
233.38247969250003
20
57.628871184499999
42
0.41421356237319651
0
LINE
5
118
100
AcDbEntity
8
0
100
AcDbLine
10
20.984488356599226
20
62.697345536553343
30
0
11
20.159890222839465
21
62.697345536553343
31
0
0
LINE
5
119
100
AcDbEntity
8
0
100
AcDbLine
10
250.25323935659927
20
134.85335621053673
30
0
11
250.25323935659927
21
134.85335421053668
31
0
0
LWPOLYLINE
5
120
100
AcDbEntity
8
0
100
AcDbPolyline
90
8
70
1
43
0.0
10
22.832480541312648
20
44.628882219064295
42
0.41421356237310025
10
23.83247969249966
20
43.628881370251939
10
35.832479692499966
20
43.628871184500149
42
0.41421356237311063
10
36.83247969249993
20
44.628871184499999
10
36.832479692499987
20
56.628871184500085
42
0.41421356237306123
10
35.832479692500044
20
57.628871184500319
10
23.832491575877214
20
57.628881370242169
42
0.41421356237310802
10
22.83249072706489
20
56.628882219055221
0
ARC
5
121
100
AcDbEntity
8
0
100
AcDbCircle
10
249.25323935659929
20
134.85335421053668
30
0
40
0.99999999999994316
210
0
220
0
230
1
100
AcDbArc
50
0
51
90
0
LINE
5
122
100
AcDbEntity
8
0
100
AcDbLine
10
242.75322735659941
20
117.35335421053682
30
0
11
242.75322735659941
21
117.35335621053677
31
0
0
LINE
5
123
100
AcDbEntity
8
0
100
AcDbLine
10
258.28489022283941
20
75.698444847567174
30
0
11
258.28489022283941
21
62.697345536553343
31
0
0
LINE
5
124
100
AcDbEntity
8
0
100
AcDbLine
10
28.984473356550211
20
60.203363210536708
30
0
11
28.984473356599381
21
60.203356210536747
31
0
0
LINE
5
125
100
AcDbEntity
8
0
100
AcDbLine
10
248.22391737261555
20
81.745823099349906
30
0
11
248.22391737261555
21
95.751832773333149
31
0
0
ARC
5
126
100
AcDbEntity
8
0
100
AcDbCircle
10
27.984473356574711
20
60.203356210536747
30
0
40
1.0000000000000142
210
0
220
0
230
1
100
AcDbArc
50
-90
51
0.00040107010969264067
0
ARC
5
127
100
AcDbEntity
8
0
100
AcDbCircle
10
243.60948935659906
20
77.203355210536543
30
0
40
0.49999999999982947
210
0
220
0
230
1
100
AcDbArc
50
180
51
270.00000000003257
0
LINE
5
128
100
AcDbEntity
8
0
100
AcDbLine
10
266.7532383565993
20
134.85335621053665
30
0
11
266.7532383565993
21
134.85335621053665
31
0
0
LINE
5
129
100
AcDbEntity
8
0
100
AcDbLine
10
6.1603347096500016
20
62.697345536553343
30
0
11
5.4844723565992837
21
62.697345536553343
31
0
0
CIRCLE
5
130
100
AcDbEntity
8
0
100
AcDbCircle
10
-8.7632201222973549
20
35.575209540902314
30
0
40
2.9999999999999982
210
0
220
0
230
1
0
LINE
5
131
100
AcDbEntity
8
0
100
AcDbLine
10
7.1587909118255766
20
76.700429163531325
30
0
11
19.161437896765467
21
76.696902126437564
31
0
0
ARC
5
132
100
AcDbEntity
8
0
100
AcDbCircle
10
11.762916451570149
20
34.647968418273848
30
0
40
2.0000000000000062
210
-0
220
0
230
-1
100
AcDbArc
50
-0.0086955670278683478
51
0.0086955663572325769
0
LINE
5
133
100
AcDbEntity
8
0
100
AcDbLine
10
266.25323835659924
20
119.84734553655336
30
0
11
265.42864022283948
21
119.84734553655336
31
0
0
LWPOLYLINE
5
134
100
AcDbEntity
8
0
100
AcDbPolyline
90
8
70
1
43
0.0
10
261.96125033940012
20
157.66046837000005
42
0.41421356237312623
10
260.96125033940012
20
156.66046836999999
10
260.96125033940012
20
144.6604683699999
42
0.41421356237311063
10
261.96125033940012
20
143.66046836999999
10
273.96125033940001
20
143.66046836999996
42
0.41421356237314183
10
274.96125033940007
20
144.66046836999999
10
274.96125033940018
20
156.66046836999999
42
0.41421356237307944
10
273.96125033940012
20
157.6604683700001
0
LWPOLYLINE
5
135
100
AcDbEntity
8
0
100
AcDbPolyline
90
8
70
1
43
0.0
10
316.81991274669997
20
143.66046837000005
42
0.41421356237301177
10
317.81991274669997
20
144.66046836999999
10
317.81991274669997
20
156.66046836999999
42
0.41421356237295975
10
316.81991274669997
20
157.6604683700001
10
304.81991274670008
20
157.6604683700001
42
0.4142135623730846
10
303.81991274669997
20
156.66046836999999
10
303.81991274669997
20
144.66046836999999
42
0.41421356237313667
10
304.81991274670008
20
143.66046836999985
0
LINE
5
136
100
AcDbEntity
8
0
100
AcDbLine
10
266.10947335659915
20
78.703356210536668
30
0
11
266.10948035659925
21
78.703356210536626
31
0
0
CIRCLE
5
137
100
AcDbEntity
8
0
100
AcDbCircle
10
233.87045093164687
20
165.72382605048202
30
0
40
2.999999999999972
210
0
220
0
230
1
0
ARC
5
138
100
AcDbEntity
8
0
100
AcDbCircle
10
248.22391737261529
20
81.245823099350048
30
0
40
0.49999999999988276
210
0
220
-0
230
1
100
AcDbArc
50
89.999999999970697
51
180
0
CIRCLE
5
139
100
AcDbEntity
8
0
100
AcDbCircle
10
339.87045093164681
20
165.72382605048202
30
0
40
2.9999999999999547
210
0
220
0
230
1
0
LINE
5
140
100
AcDbEntity
8
0
100
AcDbLine
10
21.484488356599346
20
77.203354210536617
30
0
11
21.484488356599346
21
77.703356210536626
31
0
0
LINE
5
141
100
AcDbEntity
8
0
100
AcDbLine
10
248.22391737261555
20
95.751832773333149
30
0
11
249.04851550637531
21
95.751832773333149
31
0
0
LINE
5
142
100
AcDbEntity
8
0
100
AcDbLine
10
242.10948935659928
20
78.703354210536645
30
0
11
242.10947035659927
21
78.703354210536617
31
0
0
SPLINE
5
143
100
AcDbEntity
8
0
100
AcDbSpline
70
4
71
3
72
8
73
4
74
0
42
0.000000001
43
0.0000000001
44
0.0000000001
40
0
40
0
40
0
40
0
40
1
40
1
40
1
40
1
41
1
41
1
41
1
41
1
10
20.159890222839465
20
75.698444847567174
30
0
10
20.159889361483536
20
76.252359035386831
30
0
10
19.711822786432126
20
76.696902126437564
30
0
10
19.161437896765467
20
76.696902126437564
30
0
0
ARC
5
144
100
AcDbEntity
8
0
100
AcDbCircle
10
242.10948935659928
20
77.703354210536617
30
0
40
0.99999999999994316
210
0
220
0
230
1
100
AcDbArc
50
0
51
90
0
LINE
5
145
100
AcDbEntity
8
0
100
AcDbLine
10
240.22393237261539
20
80.745822099349866
30
0
11
240.22393237261539
21
80.745822099349866
31
0
0
LINE
5
146
100
AcDbEntity
8
0
100
AcDbLine
10
265.22391637261529
20
79.745824099349932
30
0
11
265.22393537261536
21
79.74582409934996
31
0
0
LINE
5
147
100
AcDbEntity
8
0
100
AcDbLine
10
246.72392537261558
20
79.745822099349951
30
0
11
241.22392537261547
21
79.745822099349951
31
0
0
LINE
5
148
100
AcDbEntity
8
0
100
AcDbLine
10
240.22393237266456
20
98.245815099355809
30
0
11
240.22393237261539
21
98.245822099349738
31
0
0
LINE
5
149
100
AcDbEntity
8
0
100
AcDbLine
10
241.22393237261562
20
79.745822099349922
30
0
11
241.22392537261547
21
79.745822099349951
31
0
0
LWPOLYLINE
5
150
100
AcDbEntity
8
0
100
AcDbPolyline
90
8
70
1
43
0.0
10
200.04491274670002
20
81.747968369999995
10
212.04491274670005
20
81.747968370000038
42
0.4142135623730846
10
213.04491274670002
20
82.747968369999981
10
213.04491274669999
20
94.747968369999995
42
0.41421356237301177
10
212.04491274670005
20
95.747968369999938
10
200.04491274670002
20
95.747968370000009
42
0.41421356237313667
10
199.04491274669999
20
94.747968369999995
10
199.04491274670016
20
82.747968369999981
42
0.41421356237312623
0
LINE
5
151
100
AcDbEntity
8
0
100
AcDbLine
10
273.25322335659922
20
135.85335621053687
30
0
11
273.25323035659937
21
135.85335621053667
31
0
0
ARC
5
152
100
AcDbEntity
8
0
100
AcDbCircle
10
266.10947335659915
20
77.70335621053664
30
0
40
1.0000000000002274
210
0
220
-0
230
1
100
AcDbArc
50
0
51
90
0
LINE
5
153
100
AcDbEntity
8
0
100
AcDbLine
10
22.484488356599289
20
78.703356210536668
30
0
11
22.484480356599192
21
78.703356210536626
31
0
0
SPLINE
5
154
100
AcDbEntity
8
0
100
AcDbSpline
70
4
71
3
72
8
73
4
74
0
42
0.000000001
43
0.0000000001
44
0.0000000001
40
0
40
0
40
0
40
0
40
1
40
1
40
1
40
1
41
1
41
1
41
1
41
1
10
249.04851550637531
20
82.750733462319374
30
0
10
249.04851636773131
20
82.196819274499703
30
0
10
249.49658294278282
20
81.752276183448984
30
0
10
250.04696783244938
20
81.752276183448984
30
0
0
LINE
5
155
100
AcDbEntity
8
0
100
AcDbLine
10
266.7532383565993
20
134.35335521053668
30
0
11
266.7532383565993
21
134.35335421053662
31
0
0
ARC
5
156
100
AcDbEntity
8
0
100
AcDbCircle
10
27.984473356599292
20
77.70335621053664
30
0
40
1.0000000000000853
210
0
220
0
230
1
100
AcDbArc
50
0
51
90
0
ARC
5
157
100
AcDbEntity
8
0
100
AcDbCircle
10
236.60947735659931
20
60.203356210536747
30
0
40
0.99999999999994316
210
0
220
0
230
1
100
AcDbArc
50
180
51
270
0
ARC
5
158
100
AcDbEntity
8
0
100
AcDbCircle
10
250.7532393565991
20
134.35335521053656
30
0
40
0.49999999999982947
210
0
220
0
230
1
100
AcDbArc
50
180
51
270.00000000003257
0
LINE
5
159
100
AcDbEntity
8
0
100
AcDbLine
10
250.75322235659925
20
133.85335521053668
30
0
11
250.75322235659925
21
119.84734553655336
31
0
0
LINE
5
160
100
AcDbEntity
8
0
100
AcDbLine
10
235.6094773565994
20
77.703354210536617
30
0
11
235.6094773565994
21
77.70335621053664
31
0
0
SPLINE
5
161
100
AcDbEntity
8
0
100
AcDbSpline
70
4
71
3
72
8
73
4
74
0
42
0.000000001
43
0.0000000001
44
0.0000000001
40
0
40
0
40
0
40
0
40
1
40
1
40
1
40
1
41
1
41
1
41
1
41
1
10
262.04961481738906
20
81.748749146355252
30
0
10
262.60353428101371
20
81.748748661842541
30
0
10
263.0480746803272
20
82.196819274499703
30
0
10
263.0480746803272
20
82.747204164166448
30
0
0
ARC
5
162
100
AcDbEntity
8
0
100
AcDbCircle
10
273.25322335659922
20
134.85335621053665
30
0
40
1.0000000000002274
210
0
220
0
230
1
100
AcDbArc
50
0
51
90
0
ARC
5
163
100
AcDbEntity
8
0
100
AcDbCircle
10
273.25322335657472
20
117.35335621053677
30
0
40
1.0000000000000142
210
0
220
0
230
1
100
AcDbArc
50
-90
51
0.00040107010969264067
0
LINE
5
164
100
AcDbEntity
8
0
100
AcDbLine
10
247.72391737261543
20
80.745822099349951
30
0
11
247.72391737261543
21
80.745822099349951
31
0
0
LINE
5
165
100
AcDbEntity
8
0
100
AcDbLine
10
244.28533470964996
20
62.697345536553343
30
0
11
244.28533104888746
21
75.701974145720143
31
0
0
ARC
5
166
100
AcDbEntity
8
0
100
AcDbCircle
10
266.10947335657471
20
60.203356210536747
30
0
40
1.0000000000000142
210
0
220
0
230
1
100
AcDbArc
50
-90
51
0.00040107010969264067
0
LINE
5
167
100
AcDbEntity
8
0
100
AcDbLine
10
236.6094703565993
20
78.703354210536617
30
0
11
242.10947035659927
21
78.703354210536617
31
0
0
LINE
5
168
100
AcDbEntity
8
0
100
AcDbLine
10
267.75323035659926
20
135.85335621053667
30
0
11
273.25323035659937
21
135.85335621053667
31
0
0
LINE
5
169
100
AcDbEntity
8
0
100
AcDbLine
10
243.10948935659923
20
77.203355210536543
30
0
11
243.10948935659923
21
77.203354210536645
31
0
0
LINE
5
170
100
AcDbEntity
8
0
100
AcDbLine
10
242.75322735659941
20
134.85335421053662
30
0
11
242.75322735659941
21
134.85335621053665
31
0
0
LINE
5
171
100
AcDbEntity
8
0
100
AcDbLine
10
263.0480710195647
20
95.751832773333149
30
0
11
263.72393337261542
21
95.751832773333149
31
0
0
LINE
5
172
100
AcDbEntity
8
0
100
AcDbLine
10
249.04851550637531
20
82.750733462319374
30
0
11
249.04851550637531
21
95.751832773333149
31
0
0
LINE
5
173
100
AcDbEntity
8
0
100
AcDbLine
10
264.22391637261541
20
81.24582309934992
30
0
11
264.22391637261541
21
81.245824099349932
31
0
0
SPLINE
5
174
100
AcDbEntity
8
0
100
AcDbSpline
70
4
71
3
72
8
73
4
74
0
42
0.000000001
43
0.0000000001
44
0.0000000001
40
0
40
0
40
0
40
0
40
1
40
1
40
1
40
1
41
1
41
1
41
1
41
1
10
265.42864022283948
20
132.84844484756721
30
0
10
265.42863936148359
20
133.40235903538684
30
0
10
264.98057278643205
20
133.84690212643756
30
0
10
264.43018789676546
20
133.84690212643756
30
0
0
LINE
5
175
100
AcDbEntity
8
0
100
AcDbLine
10
263.0480710195647
20
95.751832773333149
30
0
11
263.0480746803272
21
82.747204164166448
31
0
0
LINE
5
176
100
AcDbEntity
8
0
100
AcDbLine
10
266.7532383565993
20
134.35335421053662
30
0
11
266.7532383565993
21
134.85335621053665
31
0
0
LINE
5
177
100
AcDbEntity
8
0
100
AcDbLine
10
243.75322035659934
20
135.85335421053662
30
0
11
249.25322035659931
21
135.85335421053662
31
0
0
LINE
5
178
100
AcDbEntity
8
0
100
AcDbLine
10
20.984488356599226
20
76.703355210536671
30
0
11
20.984488356599226
21
62.697345536553343
31
0
0
ARC
5
179
100
AcDbEntity
8
0
100
AcDbCircle
10
246.72391737261549
20
80.745822099349937
30
0
40
1.0000000000000053
210
0
220
0
230
1
100
AcDbArc
50
-90
51
0
0
ARC
5
180
100
AcDbEntity
8
0
100
AcDbCircle
10
267.75323835659935
20
134.85335621053665
30
0
40
1.0000000000000142
210
0
220
-0
230
1
100
AcDbArc
50
90
51
180
0
ARC
5
181
100
AcDbEntity
8
0
100
AcDbCircle
10
241.22393237261562
20
80.745822099350136
30
0
40
1.0000000000002274
210
0
220
0
230
1
100
AcDbArc
50
180
51
270
0
LINE
5
182
100
AcDbEntity
8
0
100
AcDbLine
10
22.484480356599192
20
78.703356210536626
30
0
11
27.984480356599306
21
78.703356210536626
31
0
0
ARC
5
183
100
AcDbEntity
8
0
100
AcDbCircle
10
236.60947735659931
20
77.703354210536617
30
0
40
0.99999999999999645
210
0
220
-0
230
1
100
AcDbArc
50
90
51
180
0
LINE
5
184
100
AcDbEntity
8
0
100
AcDbLine
10
274.25322335655028
20
117.35336321053072
30
0
11
274.25322335659939
21
117.35335621053677
31
0
0
LINE
5
185
100
AcDbEntity
8
0
100
AcDbLine
10
251.42908470965
20
119.84734553655336
30
0
11
251.42908104888747
21
132.85197414572011
31
0
0
LINE
5
186
100
AcDbEntity
8
0
100
AcDbLine
10
251.42908470965
20
119.84734553655336
30
0
11
250.75322235659925
21
119.84734553655336
31
0
0
LWPOLYLINE
5
187
100
AcDbEntity
8
0
100
AcDbPolyline
90
8
70
1
43
0.0
10
189.23241274670002
20
144.66046836999999
10
189.23241274670002
20
156.66046836999999
42
0.41421356237306384
10
188.23241274669999
20
157.66046837000005
10
176.23241274669999
20
157.66046837000002
42
0.41421356237312101
10
175.23241274669999
20
156.66046836999999
10
175.23241274669999
20
144.66046836999999
42
0.41421356237312101
10
176.23241274669999
20
143.66046836999996
10
188.23241274669999
20
143.66046836999996
42
0.4142135623730222
0
LWPOLYLINE
5
188
100
AcDbEntity
8
0
100
AcDbPolyline
90
8
70
1
43
0.0
10
222.85741274670002
20
120.84796837
42
0.41421356237311585
10
223.85741274669999
20
119.84796837000005
10
235.85741274669999
20
119.84796836999996
42
0.41421356237307422
10
236.85741274670011
20
120.84796837
10
236.85741274670011
20
132.84796836999999
42
0.41421356237312101
10
235.85741274669999
20
133.84796837000013
10
223.85741274670005
20
133.84796837000005
42
0.41421356237305862
10
222.85741274670013
20
132.84796836999999
0
LWPOLYLINE
5
189
100
AcDbEntity
8
0
100
AcDbPolyline
90
8
70
1
43
0.0
10
46.357412746700042
20
144.66046836999999
42
-0.41421356237310281
10
45.357412746700021
20
143.66046836999996
10
33.357412746700071
20
143.66046836999988
42
-0.4142135623730937
10
32.357412746699922
20
144.66046836999999
10
32.357412746699922
20
156.66046836999999
42
-0.41421356237307555
10
33.357412746699993
20
157.66046837000016
10
45.357412746700021
20
157.66046837000002
42
-0.41421356237315227
10
46.357412746700042
20
156.66046836999999
0
LINE
5
190
100
AcDbEntity
8
0
100
AcDbLine
10
28.984473356599377
20
77.70335621053664
30
0
11
28.984473356599377
21
77.70335621053664
31
0
0
LWPOLYLINE
5
191
100
AcDbEntity
8
0
100
AcDbPolyline
90
8
70
1
43
0.0
10
122.84491274670003
20
94.747968369999995
10
122.84491274670002
20
82.747968369999981
42
0.4142135623730534
10
123.84491274669998
20
81.747968370000024
10
135.8449127467
20
81.747968370000009
42
0.41421356237309503
10
136.8449127467
20
82.747968369999981
10
136.8449127467
20
94.747968369999995
42
0.41421356237313667
10
135.8449127467
20
95.747968369999924
10
123.84491274669998
20
95.747968370000009
42
0.41421356237311585
0
LWPOLYLINE
5
192
100
AcDbEntity
8
0
100
AcDbPolyline
90
8
70
1
43
0.0
10
203.80741274670001
20
132.8479683699999
42
-0.41421356237304302
10
204.80741274669998
20
133.84796837000005
10
216.80741274669998
20
133.84796836999999
42
-0.41421356237308982
10
217.80741274669998
20
132.84796836999999
10
217.80741274669992
20
120.84796837
42
-0.4142135623730846
10
216.80741274669998
20
119.84796837000005
10
204.80741274669998
20
119.84796837000006
42
-0.41421356237312623
10
203.80741274669987
20
120.84796837
0
LWPOLYLINE
5
193
100
AcDbEntity
8
0
100
AcDbPolyline
90
8
70
1
43
0.0
10
179.9949127466999
20
94.747968369999995
10
179.99491274669998
20
82.747968369999981
42
0.41421356237308982
10
180.99491274669998
20
81.747968369999953
10
192.99491274670004
20
81.747968370000009
42
0.4142135623730846
10
193.99491274669998
20
82.747968369999981
10
193.99491274669998
20
94.747968369999995
42
0.41421356237310025
10
192.99491274670004
20
95.747968369999938
10
180.99491274669992
20
95.747968370000137
42
0.41421356237307944
0
LWPOLYLINE
5
194
100
AcDbEntity
8
0
100
AcDbPolyline
90
8
70
1
43
0.0
10
27.594912746699972
20
82.747968369999981
42
0.41421356237309115
10
28.59491274669999
20
81.747968369999953
10
40.594912746700018
20
81.747968370000024
42
0.41421356237310025
10
41.594912746700004
20
82.747968369999981
10
41.594912746700032
20
94.747968369999995
42
0.41421356237311585
10
40.594912746700018
20
95.747968369999967
10
28.59491274669999
20
95.747968370000024
42
0.41421356237310414
10
27.594912746699997
20
94.747968369999995
0
LINE
5
195
100
AcDbEntity
8
0
100
AcDbLine
10
235.6094773565994
20
60.203354210536794
30
0
11
235.6094773565994
21
77.70335621053664
31
0
0
LWPOLYLINE
5
196
100
AcDbEntity
8
0
100
AcDbPolyline
90
8
70
1
43
0.0
10
317.81991274669997
20
75.697968369999998
42
0.41421356237297535
10
316.81991274669997
20
76.697968369999899
10
304.81991274670008
20
76.697968370000027
42
0.41421356237307683
10
303.81991274669997
20
75.697968369999998
10
303.8199127466998
20
63.697968369999998
42
0.41421356237308982
10
304.81991274670008
20
62.697968369999835
10
316.81991274669997
20
62.697968369999984
42
0.4142135623730222
10
317.81991274669986
20
63.697968369999998
0
ARC
5
197
100
AcDbEntity
8
0
100
AcDbCircle
10
20.984488356599513
20
77.203355210536543
30
0
40
0.49999999999988276
210
0
220
0
230
1
100
AcDbArc
50
-90.000000000032969
51
0
0
LWPOLYLINE
5
198
100
AcDbEntity
8
0
100
AcDbPolyline
90
8
70
1
43
0.0
10
32.357412746699943
20
132.828865081
10
32.357412746700057
20
120.82886508100005
42
0.41421356237306772
10
33.357412746699993
20
119.82886508099995
10
45.357412746700021
20
119.82886508100002
42
0.41421356237315748
10
46.357412746700049
20
120.82886508100005
10
46.357412746700049
20
132.828865081
42
0.41421356237307422
10
45.357412746700021
20
133.82886508100003
10
33.357412746699993
20
133.82886508100006
42
0.41421356237311063
0
ARC
5
199
100
AcDbEntity
8
0
100
AcDbCircle
10
5.4844893565991271
20
77.203355210536543
30
0
40
0.49999999999982947
210
0
220
0
230
1
100
AcDbArc
50
180
51
270.00000000003257
0
LWPOLYLINE
5
200
100
AcDbEntity
8
0
100
AcDbPolyline
90
8
70
1
43
0.0
10
298.76991274669984
20
56.647968370000051
42
0.41421356237311846
10
297.76991274669996
20
57.647968370000022
10
285.76991274670007
20
57.647968370000029
42
0.41421356237316009
10
284.76991274670002
20
56.647968370000008
10
284.76991274670002
20
44.647968370000008
42
0.41421356237314183
10
285.76991274670007
20
43.647968370000001
10
297.76991274669996
20
43.647968370000044
42
0.4142135623730378
10
298.76991274669996
20
44.647968370000008
0
LINE
5
201
100
AcDbEntity
8
0
100
AcDbLine
10
263.72393337261542
20
81.745823099349892
30
0
11
263.72393337261542
21
95.751832773333149
31
0
0
LINE
5
202
100
AcDbEntity
8
0
100
AcDbLine
10
264.22391637261541
20
80.745822099349866
30
0
11
264.22391637261541
21
81.245824099349932
31
0
0
LINE
5
203
100
AcDbEntity
8
0
100
AcDbLine
10
245.28379091182561
20
76.700429163531325
30
0
11
257.28643789676539
21
76.696902126437564
31
0
0
LINE
5
204
100
AcDbEntity
8
0
100
AcDbLine
10
243.60947235659921
20
76.703355210536699
30
0
11
243.60947235659921
21
62.697345536553343
31
0
0
LWPOLYLINE
5
205
100
AcDbEntity
8
0
100
AcDbPolyline
90
8
70
1
43
0.0
10
335.86991274669998
20
43.647968370000065
10
323.86991274670004
20
43.647968369999894
42
-0.41421356237306123
10
322.86991274669992
20
44.647968370000008
10
322.86991274670015
20
56.647968370000008
42
-0.41421356237312362
10
323.86991274670004
20
57.647968370000157
10
335.86991274669998
20
57.647968370000022
42
-0.41421356237303258
10
336.86991274669992
20
56.647968370000008
10
336.86991274669992
20
44.647968370000022
42
-0.41421356237310025
0
LWPOLYLINE
5
206
100
AcDbEntity
8
0
100
AcDbPolyline
90
8
70
1
43
0.0
10
203.80741274670012
20
144.66046836999999
10
203.80741274670001
20
156.6604683699999
42
-0.41421356237304818
10
204.80741274669998
20
157.66046836999999
10
216.80741274669998
20
157.66046836999999
42
-0.41421356237309503
10
217.80741274670004
20
156.66046836999999
10
217.80741274669992
20
144.66046836999996
42
-0.41421356237310542
10
216.80741274669998
20
143.66046836999996
10
204.80741274670004
20
143.66046837000007
42
-0.41421356237313145
0
ARC
5
207
100
AcDbEntity
8
0
100
AcDbCircle
10
3.984489356599354
20
77.703354210536617
30
0
40
0.99999999999994316
210
0
220
0
230
1
100
AcDbArc
50
0
51
90
0
LWPOLYLINE
5
208
100
AcDbEntity
8
0
100
AcDbPolyline
90
8
70
1
43
0.0
10
71.457412746700015
20
157.6604683700001
42
0.41421356237304563
10
70.45741274669993
20
156.66046836999999
10
70.457412746700058
20
144.66046836999999
42
0.41421356237305862
10
71.457412746700015
20
143.66046836999999
10
83.45741274670003
20
143.66046836999999
42
0.41421356237314705
10
84.457412746700143
20
144.66046836999999
10
84.457412746700129
20
156.66046836999999
42
0.41421356237310025
10
83.45741274670003
20
157.6604683700001
0
LINE
5
209
100
AcDbEntity
8
0
100
AcDbLine
10
-2.5155226434005584
20
60.203354210536794
30
0
11
-2.5155226434005584
21
60.203356210536747
31
0
0
LINE
5
210
100
AcDbEntity
8
0
100
AcDbLine
10
4.9844893565992976
20
77.203355210536543
30
0
11
4.9844893565992976
21
77.203354210536645
31
0
0
LWPOLYLINE
5
211
100
AcDbEntity
8
0
100
AcDbPolyline
90
8
70
1
43
0.0
10
65.694912746699927
20
82.747968369999981
10
65.694912746699984
20
94.747968369999995
42
-0.41421356237310802
10
66.694912746700012
20
95.747968370000052
10
78.69491274669997
20
95.747968369999967
42
-0.41421356237316787
10
79.694912746700027
20
94.747968369999995
10
79.694912746700055
20
82.747968369999981
42
-0.41421356237305862
10
78.69491274669997
20
81.747968369999995
10
66.694912746700012
20
81.747968370000024
42
-0.41421356237311324
0
LWPOLYLINE
5
212
100
AcDbEntity
8
0
100
AcDbPolyline
90
8
70
1
43
0.0
10
335.86991274669998
20
143.66046837000005
10
323.86991274670009
20
143.66046837000002
42
-0.41421356237306384
10
322.86991274670009
20
144.66046836999999
10
322.86991274670009
20
156.66046836999999
42
-0.4142135623730846
10
323.86991274669992
20
157.6604683700001
10
335.86991274669998
20
157.66046837000002
42
-0.4142135623730378
10
336.86991274669992
20
156.66046836999999
10
336.86991274669992
20
144.66046836999999
42
-0.41421356237297013
0
LINE
5
213
100
AcDbEntity
8
0
100
AcDbLine
10
270.7239353726153
20
79.745824099349932
30
0
11
265.22393537261536
21
79.74582409934996
31
0
0
LWPOLYLINE
5
214
100
AcDbEntity
8
0
100
AcDbPolyline
90
8
70
1
43
0.0
10
335.86991274669998
20
133.84796836999996
10
323.86991274670004
20
133.84796837000002
42
0.41421356237307422
10
322.86991274670009
20
132.84796836999999
10
322.86991274669987
20
120.84796837
42
0.41421356237304818
10
323.86991274670004
20
119.84796836999988
10
335.86991274669998
20
119.84796837000006
42
0.41421356237313667
10
336.86991274670004
20
120.84796837
10
336.86991274669987
20
132.84796836999999
42
0.41421356237307422
0
LWPOLYLINE
5
215
100
AcDbEntity
8
0
100
AcDbPolyline
90
8
70
1
43
0.0
10
303.81991274669997
20
132.84796836999999
10
303.81991274669997
20
120.84796837
42
0.41421356237308982
10
304.81991274670008
20
119.84796836999988
10
316.81991274669997
20
119.84796837000006
42
0.4142135623731783
10
317.8199127467002
20
120.84796837
10
317.8199127467002
20
132.84796836999999
42
0.41421356237315227
10
316.81991274669997
20
133.84796837000013
10
304.81991274670008
20
133.84796837000005
42
0.41421356237306384
0
CIRCLE
5
216
100
AcDbEntity
8
0
100
AcDbCircle
10
233.86991274696072
20
35.575728978841845
30
0
40
3.00000000000006
210
0
220
0
230
1
0
LINE
5
217
100
AcDbEntity
8
0
100
AcDbLine
10
250.25323935659927
20
134.35335521053656
30
0
11
250.25323935659927
21
134.35335421053662
31
0
0
LINE
5
218
100
AcDbEntity
8
0
100
AcDbLine
10
265.42864022283948
20
132.84844484756721
30
0
11
265.42864022283948
21
119.84734553655336
31
0
0
ARC
5
219
100
AcDbEntity
8
0
100
AcDbCircle
10
263.72391637261558
20
81.245823099350048
30
0
40
0.49999999999982947
210
0
220
0
230
1
100
AcDbArc
50
0
51
90.000000000032571
0
LWPOLYLINE
5
220
100
AcDbEntity
8
0
100
AcDbPolyline
90
8
70
1
43
0.0
10
38.119912746700003
20
76.697968370000041
42
0.41421356237309503
10
37.119912746699988
20
75.697968369999998
10
37.119912746699981
20
63.697968369999998
42
0.41421356237311063
10
38.119912746700003
20
62.697968369999906
10
50.119912746700024
20
62.697968369999941
42
0.41421356237313145
10
51.119912746700116
20
63.697968369999998
10
51.119912746700038
20
75.697968369999998
42
0.41421356237308982
10
50.119912746700024
20
76.697968370000012
0
LINE
5
221
100
AcDbEntity
8
0
100
AcDbLine
10
236.60947735659931
20
59.203356210536803
30
0
11
236.6094703565993
21
59.203356210536739
31
0
0
LINE
5
222
100
AcDbEntity
8
0
100
AcDbLine
10
274.25322335659945
20
134.85335621053665
30
0
11
274.25322335659945
21
134.85335621053665
31
0
0
LINE
5
223
100
AcDbEntity
8
0
100
AcDbLine
10
259.60948835659929
20
77.703356210536626
30
0
11
259.60948835659929
21
77.703356210536626
31
0
0
LINE
5
224
100
AcDbEntity
8
0
100
AcDbLine
10
235.6094773565994
20
60.203354210536794
30
0
11
235.60947735659937
21
60.203356210536747
31
0
0
LINE
5
225
100
AcDbEntity
8
0
100
AcDbLine
10
243.10948935659923
20
77.703356210536725
30
0
11
243.10948935659923
21
77.703354210536617
31
0
0
LINE
5
226
100
AcDbEntity
8
0
100
AcDbLine
10
271.72392837261526
20
98.245824099349633
30
0
11
271.72392837261526
21
80.745822099349937
31
0
0
LINE
5
227
100
AcDbEntity
8
0
100
AcDbLine
10
267.10947335659938
20
77.703356210536668
30
0
11
267.10947335659938
21
77.703356210536668
31
0
0
LINE
5
228
100
AcDbEntity
8
0
100
AcDbLine
10
243.75322035659934
20
135.85335421053662
30
0
11
243.7532273565995
21
135.85335421053662
31
0
0
LINE
5
229
100
AcDbEntity
8
0
100
AcDbLine
10
21.484488356599396
20
77.203355210536543
30
0
11
21.484488356599346
21
77.203354210536617
31
0
0
LINE
5
230
100
AcDbEntity
8
0
100
AcDbLine
10
260.60948835659929
20
78.703356210536668
30
0
11
260.60948035659919
21
78.703356210536626
31
0
0
ARC
5
231
100
AcDbEntity
8
0
100
AcDbCircle
10
265.22391637261529
20
80.74582409934996
30
0
40
0.99999999999994316
210
0
220
0
230
1
100
AcDbArc
50
180
51
270
0
LINE
5
232
100
AcDbEntity
8
0
100
AcDbLine
10
271.72392837261526
20
80.74582409934996
30
0
11
271.72392837261526
21
80.745822099349937
31
0
0
LINE
5
233
100
AcDbEntity
8
0
100
AcDbLine
10
246.72391737261549
20
79.745822099349922
30
0
11
246.72392537261558
21
79.745822099349951
31
0
0
LINE
5
234
100
AcDbEntity
8
0
100
AcDbLine
10
27.984473356599292
20
78.703356210536725
30
0
11
27.984480356599306
21
78.703356210536626
31
0
0
LINE
5
235
100
AcDbEntity
8
0
100
AcDbLine
10
244.28533470964996
20
62.697345536553343
30
0
11
243.60947235659921
21
62.697345536553343
31
0
0
LINE
5
236
100
AcDbEntity
8
0
100
AcDbLine
10
21.484488356599346
20
77.703356210536626
30
0
11
21.484488356599346
21
77.703356210536626
31
0
0
LINE
5
237
100
AcDbEntity
8
0
100
AcDbLine
10
271.72392837261526
20
98.245824099349633
30
0
11
271.72392837261526
21
98.245822099349766
31
0
0
LINE
5
238
100
AcDbEntity
8
0
100
AcDbLine
10
270.7239353726153
20
79.745824099349932
30
0
11
270.72392837261526
21
79.745824099349932
31
0
0
ARC
5
239
100
AcDbEntity
8
0
100
AcDbCircle
10
243.7532273565995
20
134.85335421053662
30
0
40
1.0000000000000142
210
0
220
-0
230
1
100
AcDbArc
50
90
51
180
0
ARC
5
240
100
AcDbEntity
8
0
100
AcDbCircle
10
260.60948835659929
20
77.70335621053664
30
0
40
1.0000000000000142
210
0
220
-0
230
1
100
AcDbArc
50
90
51
180
0
LINE
5
241
100
AcDbEntity
8
0
100
AcDbLine
10
243.10948935659923
20
77.703356210536725
30
0
11
243.10948935659923
21
77.203354210536645
31
0
0
ARC
5
242
100
AcDbEntity
8
0
100
AcDbCircle
10
270.72392837261526
20
80.745824099349932
30
0
40
0.99999999999998757
210
0
220
0
230
1
100
AcDbArc
50
-90
51
0
0
LINE
5
243
100
AcDbEntity
8
0
100
AcDbLine
10
260.60948035659919
20
78.703356210536626
30
0
11
266.10948035659925
21
78.703356210536626
31
0
0
LINE
5
244
100
AcDbEntity
8
0
100
AcDbLine
10
259.60948835659929
20
77.203354210536617
30
0
11
259.60948835659929
21
77.703356210536626
31
0
0
LINE
5
245
100
AcDbEntity
8
0
100
AcDbLine
10
240.22393237261539
20
80.745822099349866
30
0
11
240.22393237261539
21
98.245822099349738
31
0
0
SPLINE
5
246
100
AcDbEntity
8
0
100
AcDbSpline
70
4
71
3
72
8
73
4
74
0
42
0.000000001
43
0.0000000001
44
0.0000000001
40
0
40
0
40
0
40
0
40
1
40
1
40
1
40
1
41
1
41
1
41
1
41
1
10
258.28489022283941
20
75.698444847567174
30
0
10
258.28488936148347
20
76.252359035386831
30
0
10
257.83682278643198
20
76.696902126437564
30
0
10
257.28643789676539
20
76.696902126437564
30
0
0
ARC
5
247
100
AcDbEntity
8
0
100
AcDbCircle
10
22.484488356599289
20
77.70335621053664
30
0
40
1.0000000000000142
210
0
220
-0
230
1
100
AcDbArc
50
90
51
180
0
ARC
5
248
100
AcDbEntity
8
0
100
AcDbCircle
10
270.72392837261526
20
98.245822099349766
30
0
40
0.99999999999994316
210
0
220
0
230
1
100
AcDbArc
50
0
51
90
0
ARC
5
249
100
AcDbEntity
8
0
100
AcDbCircle
10
259.10948835659951
20
77.203355210536543
30
0
40
0.49999999999988276
210
0
220
0
230
1
100
AcDbArc
50
-90.000000000032571
51
0
0
LINE
5
250
100
AcDbEntity
8
0
100
AcDbLine
10
247.7239173726154
20
81.245823099350048
30
0
11
247.72391737261543
21
81.245824099349932
31
0
0
LINE
5
251
100
AcDbEntity
8
0
100
AcDbLine
10
236.6094703565993
20
78.703354210536617
30
0
11
236.60947735659931
21
78.703354210536617
31
0
0
LINE
5
252
100
AcDbEntity
8
0
100
AcDbLine
10
264.22391637261541
20
80.745822099349866
30
0
11
264.22391637261535
21
80.74582409934996
31
0
0
LWPOLYLINE
5
253
100
AcDbEntity
8
0
100
AcDbPolyline
90
8
70
1
43
0.0
10
208.2824127467
20
113.79796837000001
10
208.28241274670012
20
101.79796837000001
42
-0.4142135623730534
10
207.28241274669998
20
100.79796837000002
10
195.28241274669998
20
100.79796836999992
42
-0.4142135623730846
10
194.2824127467
20
101.79796837000001
10
194.2824127467
20
113.79796837000001
42
-0.41421356237314705
10
195.28241274669998
20
114.79796837000002
10
207.28241274669998
20
114.79796837000004
42
-0.41421356237312101
0
LWPOLYLINE
5
254
100
AcDbEntity
8
0
100
AcDbPolyline
90
8
70
1
43
0.0
10
189.23241274670002
20
113.79796837000001
42
0.41421356237301177
10
188.23241274669999
20
114.79796837000016
10
176.23241274669999
20
114.79796836999998
42
0.41421356237310542
10
175.23241274669999
20
113.79796837000001
10
175.23241274669999
20
101.79796837000001
42
0.41421356237311063
10
176.23241274669999
20
100.79796837000006
10
188.23241274669999
20
100.79796837000004
42
0.41421356237306384
10
189.23241274670002
20
101.79796837000001
0
LWPOLYLINE
5
255
100
AcDbEntity
8
0
100
AcDbPolyline
90
8
70
1
43
0.0
10
93.982412746700007
20
101.79796837000001
42
-0.41421356237312623
10
92.982412746700035
20
100.79796837000004
10
80.982412746700021
20
100.79796837000005
42
-0.41421356237314183
10
79.982412746700007
20
101.79796837000001
10
79.982412746699936
20
113.79796837000002
42
-0.41421356237312101
10
80.982412746700021
20
114.79796837000009
10
92.982412746700035
20
114.79796837000004
42
-0.41421356237301699
10
93.982412746699978
20
113.79796837000001
0
LWPOLYLINE
5
256
100
AcDbEntity
8
0
100
AcDbPolyline
90
8
70
1
43
0.0
10
55.88241274669997
20
101.79796837000001
10
55.882412746699984
20
113.79796837000001
42
0.41421356237305862
10
54.882412746700027
20
114.79796837000002
10
42.882412746699998
20
114.79796837000002
42
0.41421356237309503
10
41.882412746700027
20
113.79796837000001
10
41.882412746699984
20
101.79796837000001
42
0.41421356237311063
10
42.882412746699998
20
100.79796836999998
10
54.882412746700027
20
100.79796837000004
42
0.41421356237309503
0
LWPOLYLINE
5
257
100
AcDbEntity
8
0
100
AcDbPolyline
90
8
70
1
43
0.0
10
298.76991274669996
20
101.79796837000001
10
298.76991274669984
20
113.79796837000001
42
0.41421356237311585
10
297.76991274669996
20
114.79796836999996
10
285.76991274670007
20
114.79796837000011
42
0.41421356237324591
10
284.76991274669984
20
113.79796837000001
10
284.76991274670002
20
101.79796837000005
42
0.41421356237313667
10
285.76991274670007
20
100.79796837000004
10
297.76991274669996
20
100.79796837000002
42
0.41421356237315227
0
LWPOLYLINE
5
258
100
AcDbEntity
8
0
100
AcDbPolyline
90
8
70
1
43
0.0
10
322.86991274670009
20
113.79796837000001
10
322.86991274670009
20
101.79796837000006
42
0.41421356237314705
10
323.86991274670004
20
100.79796836999992
10
335.86991274669998
20
100.79796837000001
42
0.41421356237301177
10
336.86991274669998
20
101.79796837000001
10
336.86991274669992
20
113.79796837000001
42
0.41421356237308982
10
335.86991274669998
20
114.79796837000004
10
323.86991274670004
20
114.79796837000018
42
0.41421356237312101
0
LWPOLYLINE
5
259
100
AcDbEntity
8
0
100
AcDbPolyline
90
8
70
1
43
0.0
10
61.93241274670001
20
114.79796837000002
42
0.41421356237308204
10
60.932412746700003
20
113.79796837000001
10
60.932412746699931
20
101.79796837000001
42
0.41421356237309764
10
61.93241274670001
20
100.79796836999988
10
73.932412746700024
20
100.79796836999996
42
0.41421356237308721
10
74.932412746700024
20
101.79796837000001
10
74.932412746699995
20
113.79796837000001
42
0.41421356237307161
10
73.932412746700024
20
114.79796837000002
0
LWPOLYLINE
5
260
100
AcDbEntity
8
0
100
AcDbPolyline
90
8
70
1
43
0.0
10
99.032412746699933
20
101.79796837000001
42
0.4142135623730534
10
100.03241274670003
20
100.79796837000002
10
112.0324127467
20
100.79796837000004
42
0.41421356237310025
10
113.03241274670003
20
101.79796837000001
10
113.0324127467
20
113.79796837000001
42
0.41421356237309503
10
112.0324127467
20
114.79796837000004
10
100.03241274670003
20
114.79796837000004
42
0.41421356237310025
10
99.032412746700018
20
113.79796837000001
0
LWPOLYLINE
5
261
100
AcDbEntity
8
0
100
AcDbPolyline
90
8
70
1
43
0.0
10
160.65741274670003
20
132.84796836999999
10
160.65741274670003
20
120.84796837
42
-0.41421356237307422
10
159.6574127467
20
119.84796836999998
10
147.6574127467
20
119.84796837000005
42
-0.41421356237311585
10
146.65741274669998
20
120.84796837
10
146.65741274669998
20
132.84796837000002
42
-0.41421356237313145
10
147.6574127467
20
133.84796837000005
10
159.65741274669998
20
133.84796836999999
42
-0.41421356237304818
0
LWPOLYLINE
5
262
100
AcDbEntity
8
0
100
AcDbPolyline
90
8
70
1
43
0.0
10
128.60741274670005
20
119.84796837000003
42
-0.41421356237309503
10
127.60741274670004
20
120.84796837
10
127.60741274669998
20
132.84796836999999
42
-0.41421356237304302
10
128.60741274670005
20
133.84796837000013
10
140.60741274669999
20
133.84796836999999
42
-0.41421356237307944
10
141.60741274670005
20
132.84796836999999
10
141.60741274670005
20
120.84796837
42
-0.4142135623730534
10
140.60741274669999
20
119.84796836999992
0
LWPOLYLINE
5
263
100
AcDbEntity
8
0
100
AcDbPolyline
90
8
70
1
43
0.0
10
36.832412746700051
20
101.79796837000001
10
36.832412746700037
20
113.79796837000001
42
0.41421356237313928
10
35.832412746700008
20
114.79796837000002
10
23.832412746699987
20
114.79796836999995
42
0.41421356237309115
10
22.832412746700047
20
113.79796837000001
10
22.832412746700044
20
101.79796837000001
42
0.41421356237309503
10
23.832412746699987
20
100.79796837000004
10
35.832412746700008
20
100.79796837000004
42
0.41421356237313273
0
LWPOLYLINE
5
264
100
AcDbEntity
8
0
100
AcDbPolyline
90
8
70
1
43
0.0
10
169.18241274669995
20
114.79796837000004
10
157.18241274669995
20
114.79796837000004
42
0.41421356237310025
10
156.18241274670001
20
113.79796837000001
10
156.18241274669995
20
101.79796836999998
42
0.41421356237311585
10
157.18241274669995
20
100.79796837000004
10
169.18241274669995
20
100.79796837000004
42
0.4142135623730846
10
170.18241274670004
20
101.79796837000001
10
170.18241274670004
20
113.79796837000001
42
0.41421356237307944
0
LWPOLYLINE
5
265
100
AcDbEntity
8
0
100
AcDbPolyline
90
8
70
1
43
0.0
10
316.81991274669997
20
114.79796837000009
10
304.81991274670008
20
114.79796837000006
42
0.41421356237306384
10
303.81991274669997
20
113.79796837000001
10
303.81991274669997
20
101.79796837000001
42
0.41421356237309503
10
304.81991274670008
20
100.79796836999988
10
316.81991274669997
20
100.79796837000004
42
0.41421356237310542
10
317.81991274669997
20
101.79796837000001
10
317.81991274670025
20
113.79796837000001
42
0.41421356237312623
0
LWPOLYLINE
5
266
100
AcDbEntity
8
0
100
AcDbPolyline
90
8
70
1
43
0.0
10
60.644912746699966
20
94.747968369999995
42
0.41421356237315227
10
59.644912746699966
20
95.747968369999938
10
47.644912746700001
20
95.747968369999967
42
0.41421356237316009
10
46.644912746700001
20
94.747968369999995
10
46.644912746699987
20
82.747968369999967
42
0.41421356237308982
10
47.644912746700001
20
81.747968369999967
10
59.644912746699966
20
81.747968369999953
42
0.41421356237313145
10
60.644912746700058
20
82.747968369999981
0
LWPOLYLINE
5
267
100
AcDbEntity
8
0
100
AcDbPolyline
90
8
70
1
43
0.0
10
119.08241274670004
20
114.79796837000004
42
0.41421356237310025
10
118.08241274670003
20
113.79796837000001
10
118.08241274669994
20
101.79796837000001
42
0.4142135623730534
10
119.08241274670004
20
100.79796837000002
10
131.08241274670002
20
100.79796837000004
42
0.41421356237310025
10
132.08241274670004
20
101.79796837000001
10
132.08241274670002
20
113.79796837000001
42
0.41421356237310025
10
131.08241274670002
20
114.79796837000009
0
LWPOLYLINE
5
268
100
AcDbEntity
8
0
100
AcDbPolyline
90
8
70
1
43
0.0
10
151.13241274670003
20
144.66046836999999
42
-0.41421356237310025
10
150.13241274670003
20
143.66046836999993
10
138.13241274669997
20
143.66046836999993
42
-0.414213562373069
10
137.13241274669994
20
144.66046836999999
10
137.13241274669997
20
156.66046836999999
42
-0.41421356237306384
10
138.13241274669997
20
157.6604683700001
10
150.13241274669994
20
157.66046837000005
42
-0.4142135623730846
10
151.13241274670003
20
156.66046836999999
0
LWPOLYLINE
5
269
100
AcDbEntity
8
0
100
AcDbPolyline
90
8
70
1
43
0.0
10
65.407412746700047
20
156.66046836999999
10
65.407412746700061
20
144.66046836999999
42
-0.41421356237310025
10
64.407412746700032
20
143.66046837000005
10
52.407412746700004
20
143.66046836999999
42
-0.41421356237314444
10
51.40741274669999
20
144.66046836999999
10
51.40741274669999
20
156.66046837000005
42
-0.41421356237310025
10
52.407412746700004
20
157.6604683700001
10
64.407412746700032
20
157.66046836999999
42
-0.41421356237309243
0
LWPOLYLINE
5
270
100
AcDbEntity
8
0
100
AcDbPolyline
90
8
70
1
43
0.0
10
71.457412746700015
20
133.82886508100003
42
0.41421356237313928
10
70.45741274669993
20
132.828865081
10
70.457412746700072
20
120.82886508100005
42
0.41421356237311063
10
71.457412746700015
20
119.82886508100006
10
83.45741274670003
20
119.82886508100002
42
0.41421356237311585
10
84.457412746700058
20
120.82886508100005
10
84.457412746699973
20
132.828865081
42
0.41421356237313667
10
83.45741274670003
20
133.82886508099998
0
LWPOLYLINE
5
271
100
AcDbEntity
8
0
100
AcDbPolyline
90
8
70
1
43
0.0
10
222.56991274670017
20
75.697968369999998
42
0.41421356237313406
10
221.56991274669991
20
76.697968370000041
10
209.56991274670003
20
76.69796836999997
42
0.41421356237310281
10
208.56991274670008
20
75.697968369999998
10
208.56991274670008
20
63.697968369999998
42
0.41421356237309503
10
209.56991274670003
20
62.697968370000048
10
221.56991274669991
20
62.697968369999934
42
0.414213562373069
10
222.5699127467
20
63.697968369999998
0
LWPOLYLINE
5
272
100
AcDbEntity
8
0
100
AcDbPolyline
90
8
70
1
43
0.0
10
65.407412746700061
20
120.82886508100005
10
65.407412746699976
20
132.828865081
42
0.41421356237310542
10
64.407412746700032
20
133.82886508099998
10
52.407412746700004
20
133.828865081
42
0.41421356237310281
10
51.407412746700054
20
132.828865081
10
51.407412746699997
20
120.82886508100006
42
0.41421356237312884
10
52.407412746700004
20
119.82886508100002
10
64.407412746700032
20
119.82886508100002
42
0.41421356237311324
0
LWPOLYLINE
5
273
100
AcDbEntity
8
0
100
AcDbPolyline
90
8
70
1
43
0.0
10
178.70741274670002
20
119.84796836999998
42
0.41421356237304818
10
179.70741274670002
20
120.84796837
10
179.70741274670002
20
132.84796836999999
42
0.41421356237311585
10
178.70741274669999
20
133.84796837000007
10
166.70741274670004
20
133.84796837000002
42
0.41421356237304302
10
165.70741274669999
20
132.84796836999999
10
165.70741274669999
20
120.84796837
42
0.4142135623730846
10
166.70741274670004
20
119.84796837000007
0
LWPOLYLINE
5
274
100
AcDbEntity
8
0
100
AcDbPolyline
90
8
70
1
43
0.0
10
70.169912746700049
20
75.697968369999998
42
0.41421356237311063
10
69.169912746699978
20
76.697968370000012
10
57.169912746700007
20
76.697968370000098
42
0.414213562373069
10
56.169912746699993
20
75.697968369999998
10
56.1699127467
20
63.697968369999991
42
0.41421356237311063
10
57.169912746700007
20
62.697968370000019
10
69.169912746699978
20
62.697968370000012
42
0.41421356237311585
10
70.169912746700035
20
63.697968369999998
0
LWPOLYLINE
5
275
100
AcDbEntity
8
0
100
AcDbPolyline
90
8
70
1
43
0.0
10
132.08241274670002
20
156.66046837000005
42
0.41421356237312623
10
131.08241274670002
20
157.66046837000005
10
119.08241274670004
20
157.66046836999999
42
0.41421356237308982
10
118.08241274669996
20
156.66046836999999
10
118.08241274669994
20
144.66046836999999
42
0.41421356237311063
10
119.08241274669997
20
143.66046836999993
10
131.08241274670002
20
143.66046836999996
42
0.41421356237311585
10
132.08241274670004
20
144.66046836999999
0
LWPOLYLINE
5
276
100
AcDbEntity
8
0
100
AcDbPolyline
90
8
70
1
43
0.0
10
108.55741274669997
20
132.84796836999999
10
108.55741274669997
20
120.84796837000002
42
0.41421356237308982
10
109.55741274670004
20
119.84796837000002
10
121.5574127467
20
119.84796837000005
42
0.41421356237310025
10
122.55741274670008
20
120.84796837
10
122.55741274670001
20
132.84796837000002
42
0.41421356237307422
10
121.5574127467
20
133.84796836999999
10
109.55741274670004
20
133.84796836999999
42
0.41421356237306384
0
LWPOLYLINE
5
277
100
AcDbEntity
8
0
100
AcDbPolyline
90
8
70
1
43
0.0
10
75.219912746700004
20
63.697968369999998
42
0.41421356237307944
10
76.219912746700032
20
62.697968370000019
10
88.219912746700118
20
62.697968370000012
42
0.41421356237310281
10
89.219912746700061
20
63.697968369999998
10
89.219912746700061
20
75.69796836999997
42
0.4142135623730846
10
88.219912746699961
20
76.697968370000012
10
76.219912746700032
20
76.697968370000012
42
0.41421356237309503
10
75.219912746700004
20
75.697968369999998
0
LWPOLYLINE
5
278
100
AcDbEntity
8
0
100
AcDbPolyline
90
8
70
1
43
0.0
10
298.76991274669984
20
144.66046836999999
10
298.76991274669984
20
156.66046836999999
42
0.41421356237312623
10
297.76991274669996
20
157.66046836999999
10
285.76991274670007
20
157.66046837000005
42
0.41421356237311585
10
284.76991274670007
20
156.66046836999999
10
284.76991274669984
20
144.66046836999999
42
0.4142135623730846
10
285.76991274670007
20
143.66046836999988
10
297.76991274669996
20
143.66046837000005
42
0.41421356237313145
0
LWPOLYLINE
5
279
100
AcDbEntity
8
0
100
AcDbPolyline
90
8
70
1
43
0.0
10
184.75741274669991
20
120.84796837
42
0.41421356237303258
10
185.75741274669997
20
119.84796836999998
10
197.75741274669997
20
119.84796837000003
42
0.4142135623730846
10
198.75741274669991
20
120.84796837
10
198.75741274669991
20
132.84796836999999
42
0.41421356237310025
10
197.75741274669997
20
133.84796836999993
10
185.75741274669997
20
133.84796836999999
42
0.41421356237311585
10
184.75741274669991
20
132.84796836999999
0
LWPOLYLINE
5
280
100
AcDbEntity
8
0
100
AcDbPolyline
90
8
70
1
43
0.0
10
285.76991274670007
20
119.84796836999992
10
297.76991274669996
20
119.84796837000003
42
0.41421356237311585
10
298.76991274669984
20
120.84796837
10
298.76991274669984
20
132.84796836999999
42
0.41421356237298057
10
297.76991274669996
20
133.84796837000007
10
285.76991274670007
20
133.84796837000013
42
0.41421356237300661
10
284.76991274669984
20
132.84796836999999
10
284.76991274669984
20
120.84796837000007
42
0.41421356237309503
0
LWPOLYLINE
5
281
100
AcDbEntity
8
0
100
AcDbPolyline
90
8
70
1
43
0.0
10
208.56997969250014
20
56.628871184500028
10
208.56997969250003
20
44.628871184499999
42
0.41421356237307683
10
209.5699796925
20
43.62887118450044
10
221.56997969250043
20
43.628881370273582
42
0.41421356237309503
10
222.56997884368559
20
44.628882219087664
10
222.56996865791209
20
56.628882219078172
42
0.414213562373069
10
221.56996780909799
20
57.628881370263478
10
209.5699796925
20
57.628871184499985
42
0.41421356237303519
0
LWPOLYLINE
5
282
100
AcDbEntity
8
0
100
AcDbPolyline
90
8
70
1
43
0.0
10
232.38241274670003
20
101.79796837000001
42
0.4142135623730846
10
233.38241274669997
20
100.79796837000004
10
245.3824127467
20
100.79796837000004
42
0.4142135623730846
10
246.38241274670008
20
101.79796837000001
10
246.38241274670008
20
113.79796837000001
42
0.41421356237303258
10
245.3824127467
20
114.79796837000016
10
233.38241274669997
20
114.79796837000002
42
0.41421356237312623
10
232.3824127467
20
113.79796837000001
0
LWPOLYLINE
5
283
100
AcDbEntity
8
0
100
AcDbPolyline
90
8
70
1
43
0.0
10
269.19497969250017
20
57.628881370273461
10
257.1949796925
20
57.628871184500042
42
0.41421356237318868
10
256.19497969249971
20
56.628871184500028
10
256.19497969250011
20
44.628871184499999
42
0.41421356237306384
10
257.1949796925
20
43.628871184500191
10
269.19499157590246
20
43.628881370283459
42
0.41421356237295714
10
270.19499072708777
20
44.628882219097569
10
270.19498054131418
20
56.62888221908824
42
0.41421356237306639
0
LWPOLYLINE
5
284
100
AcDbEntity
8
0
100
AcDbPolyline
90
8
70
1
43
0.0
10
47.644979692499653
20
43.628881370251939
10
59.644979692499973
20
43.628871184500149
42
0.41421356237311063
10
60.64497969249993
20
44.628871184499999
10
60.644979692499987
20
56.628871184500085
42
0.41421356237306123
10
59.644979692500044
20
57.628871184500319
10
47.644991575877221
20
57.628881370242169
42
0.41421356237310802
10
46.644990727064901
20
56.628882219055221
10
46.644980541312648
20
44.628882219064295
42
0.41421356237309243
0
LINE
5
285
100
AcDbEntity
8
0
100
AcDbLine
10
267.75323835659935
20
135.85335621053667
30
0
11
267.75323035659926
21
135.85335621053667
31
0
0
LINE
5
286
100
AcDbEntity
8
0
100
AcDbLine
10
259.10948835659923
20
62.697345536553343
30
0
11
258.28489022283941
21
62.697345536553343
31
0
0
LINE
5
287
100
AcDbEntity
8
0
100
AcDbLine
10
20.159890222839465
20
75.698444847567174
30
0
11
20.159890222839465
21
62.697345536553343
31
0
0
LWPOLYLINE
5
288
100
AcDbEntity
8
0
100
AcDbPolyline
90
8
70
1
43
0.0
10
218.09491274669998
20
82.747968369999981
10
218.0949127467
20
94.747968369999981
42
-0.41421356237307422
10
219.09491274670003
20
95.747968370000223
10
231.09491274670006
20
95.747968369999995
42
-0.41421356237312101
10
232.0949127467
20
94.747968369999995
10
232.0949127467
20
82.747968369999981
42
-0.4142135623730846
10
231.09491274670009
20
81.747968370000024
10
219.09491274670003
20
81.747968370000024
42
-0.41421356237313145
0
LWPOLYLINE
5
289
100
AcDbEntity
8
0
100
AcDbPolyline
90
8
70
1
43
0.0
10
156.18241274669995
20
144.66046836999999
42
0.41421356237311585
10
157.18241274669995
20
143.66046836999996
10
169.18241274670009
20
143.6604683700001
42
0.41421356237307944
10
170.18241274670009
20
144.66046836999999
10
170.18241274670004
20
156.66046836999996
42
0.41421356237303258
10
169.18241274669995
20
157.66046837000005
10
157.18241274669995
20
157.66046837000002
42
0.41421356237310542
10
156.18241274669995
20
156.66046836999999
0
LINE
5
290
100
AcDbEntity
8
0
100
AcDbLine
10
28.984473356599377
20
77.70335621053664
30
0
11
28.984473356599381
21
60.203356210536747
31
0
0
LINE
5
291
100
AcDbEntity
8
0
100
AcDbLine
10
-2.5155226434005584
20
60.203354210536794
30
0
11
-2.5155226434005584
21
77.70335621053664
31
0
0
LWPOLYLINE
5
292
100
AcDbEntity
8
0
100
AcDbPolyline
90
8
70
1
43
0.0
10
0.019979692499703307
20
57.628881370252074
42
0.4142135623730957
10
-0.98002115631254916
20
56.628882219065119
10
-0.98003134206450404
20
44.628882219074335
42
0.41421356237309426
10
0.019967809122505287
20
43.628881370262043
10
12.019979692500018
20
43.628871184500007
42
0.41421356237308593
10
13.019979692500039
20
44.628871184499999
10
13.01997969250024
20
56.628871184500028
42
0.41421356237309309
10
12.019979692500018
20
57.628871184500255
0
LWPOLYLINE
5
293
100
AcDbEntity
8
0
100
AcDbPolyline
90
8
70
1
43
0.0
10
222.85741274670013
20
156.66046836999999
10
222.85741274670002
20
144.66046837000005
42
0.41421356237305862
10
223.85741274669999
20
143.66046836999993
10
235.85741274669999
20
143.66046836999996
42
0.41421356237308982
10
236.85741274670011
20
144.66046836999999
10
236.85741274669999
20
156.66046837000005
42
0.41421356237313145
10
235.85741274669999
20
157.66046837000005
10
223.85741274669999
20
157.66046837000005
42
0.41421356237306384
0
LINE
5
294
100
AcDbEntity
8
0
100
AcDbLine
10
-1.515529643400626
20
78.703354210536617
30
0
11
3.9844703565993456
21
78.703354210536617
31
0
0
LWPOLYLINE
5
295
100
AcDbEntity
8
0
100
AcDbPolyline
90
8
70
1
43
0.0
10
189.51991274670002
20
63.697968369999998
42
0.41421356237302481
10
190.51991274669999
20
62.697968369999906
10
202.5199127466999
20
62.697968370000012
42
0.41421356237311846
10
203.51991274669987
20
63.697968369999998
10
203.51991274669999
20
75.697968369999998
42
0.41421356237311585
10
202.5199127466999
20
76.697968369999927
10
190.51991274669999
20
76.697968370000012
42
0.41421356237315488
10
189.51991274669976
20
75.697968369999998
0
LINE
5
296
100
AcDbEntity
8
0
100
AcDbLine
10
267.10947335655021
20
60.203363210530689
30
0
11
267.10947335659938
21
60.203356210536747
31
0
0
LWPOLYLINE
5
297
100
AcDbEntity
8
0
100
AcDbPolyline
90
8
70
1
43
0.0
10
303.81991274669997
20
56.647968369999937
42
-0.41421356237309764
10
304.81991274670008
20
57.647968370000093
10
316.81991274669997
20
57.647968370000015
42
-0.41421356237300916
10
317.81991274669997
20
56.647968370000008
10
317.81991274669997
20
44.647968370000008
42
-0.41421356237311324
10
316.81991274669997
20
43.647968370000065
10
304.81991274670008
20
43.647968369999894
42
-0.41421356237308204
10
303.81991274669997
20
44.647968370000008
0
LWPOLYLINE
5
298
100
AcDbEntity
8
0
100
AcDbPolyline
90
8
70
1
43
0.0
10
104.79491274669996
20
95.747968370000024
42
0.4142135623730378
10
103.79491274670002
20
94.747968369999995
10
103.79491274670001
20
82.747968369999981
42
0.4142135623730378
10
104.79491274669996
20
81.747968369999967
10
116.79491274670001
20
81.747968370000024
42
0.41421356237311585
10
117.79491274669996
20
82.747968369999981
10
117.79491274670001
20
94.747968369999995
42
0.41421356237309503
10
116.79491274670001
20
95.747968370000066
0
LINE
5
299
100
AcDbEntity
8
0
100
AcDbLine
10
274.25322335659945
20
134.85335621053665
30
0
11
274.25322335659939
21
117.35335621053677
31
0
0
ARC
5
300
100
AcDbEntity
8
0
100
AcDbCircle
10
266.25323835659958
20
134.35335521053656
30
0
40
0.499999999999865
210
0
220
0
230
1
100
AcDbArc
50
-90.00000000003908
51
0
0
LINE
5
301
100
AcDbEntity
8
0
100
AcDbLine
10
-1.5155226434006153
20
59.203356210536732
30
0
11
-1.515529643400626
21
59.203356210536739
31
0
0
SPLINE
5
302
100
AcDbEntity
8
0
100
AcDbSpline
70
4
71
3
72
8
73
4
74
0
42
0.000000001
43
0.0000000001
44
0.0000000001
40
0
40
0
40
0
40
0
40
1
40
1
40
1
40
1
41
1
41
1
41
1
41
1
10
7.1587909118255766
20
76.700429163531325
30
0
10
6.604871448201024
20
76.700429648044008
30
0
10
6.1603310488874286
20
76.252359035386831
30
0
10
6.1603310488874286
20
75.701974145720143
30
0
0
LINE
5
303
100
AcDbEntity
8
0
100
AcDbLine
10
-1.515529643400626
20
78.703354210536617
30
0
11
-1.5155226434006153
21
78.703354210536617
31
0
0
LWPOLYLINE
5
304
100
AcDbEntity
8
0
100
AcDbPolyline
90
8
70
1
43
0.0
10
114.31991274669997
20
62.697968370000019
42
-0.41421356237314183
10
113.31991274670001
20
63.697968369999998
10
113.31991274670004
20
75.697968369999998
42
-0.41421356237312101
10
114.31991274669997
20
76.697968370000012
10
126.3199127467
20
76.697968369999984
42
-0.41421356237307161
10
127.31991274670007
20
75.697968369999998
10
127.31991274670008
20
63.697968369999998
42
-0.414213562373069
10
126.3199127467
20
62.697968369999977
0
LINE
5
305
100
AcDbEntity
8
0
100
AcDbLine
10
-2.5155226434005584
20
77.703354210536617
30
0
11
-2.5155226434005584
21
77.70335621053664
31
0
0
ARC
5
306
100
AcDbEntity
8
0
100
AcDbCircle
10
-1.5155226434006153
20
77.703354210536617
30
0
40
0.99999999999999645
210
0
220
-0
230
1
100
AcDbArc
50
90
51
180
0
LINE
5
307
100
AcDbEntity
8
0
100
AcDbLine
10
6.1603347096500016
20
62.697345536553343
30
0
11
6.1603310488874286
21
75.701974145720143
31
0
0
LINE
5
308
100
AcDbEntity
8
0
100
AcDbLine
10
4.9844893565992976
20
77.703356210536725
30
0
11
4.9844893565992967
21
77.703354210536617
31
0
0
LWPOLYLINE
5
309
100
AcDbEntity
8
0
100
AcDbPolyline
90
8
70
1
43
0.0
10
103.5074127467
20
132.828865081
42
0.41421356237313145
10
102.50741274669998
20
133.82886508100003
10
90.507412746700027
20
133.82886508099998
42
0.41421356237307944
10
89.507412746699956
20
132.828865081
10
89.507412746700084
20
120.828865081
42
0.41421356237310542
10
90.507412746700027
20
119.82886508100002
10
102.50741274669998
20
119.82886508100002
42
0.41421356237311063
10
103.5074127467
20
120.82886508100005
0
LWPOLYLINE
5
310
100
AcDbEntity
8
0
100
AcDbPolyline
90
8
70
1
43
0.0
10
-4.7425872533000302
20
133.82886508100006
42
0.41421356237307294
10
-5.7425872533000444
20
132.82886508100003
10
-5.7425872532999751
20
120.82886508100005
42
0.4142135623731113
10
-4.7425872533000302
20
119.82886508100002
10
7.2574127466999983
20
119.82886508100002
42
0.41421356237309342
10
8.2574127467000675
20
120.82886508100005
10
8.2574127467000178
20
132.828865081
42
0.41421356237310186
10
7.2574127466999983
20
133.82886508100006
0
LWPOLYLINE
5
311
100
AcDbEntity
8
0
100
AcDbPolyline
90
8
70
1
43
0.0
10
270.19491274670003
20
113.79796837000001
42
0.41421356237310025
10
269.19491274670008
20
114.79796836999996
10
257.19491274669991
20
114.79796837000002
42
0.41421356237313667
10
256.19491274670003
20
113.79796837000001
10
256.19491274669997
20
101.79796837000001
42
0.4142135623730846
10
257.19491274669991
20
100.79796837000004
10
269.19491274670008
20
100.79796837000009
42
0.41421356237299617
10
270.19491274669997
20
101.79796837000001
0
LWPOLYLINE
5
312
100
AcDbEntity
8
0
100
AcDbPolyline
90
8
70
1
43
0.0
10
137.13241274669994
20
113.79796837000001
10
137.13241274669994
20
101.79796836999998
42
0.41421356237310025
10
138.13241274669997
20
100.79796837000004
10
150.13241274669994
20
100.79796837000004
42
0.41421356237307944
10
151.1324127467
20
101.79796837000001
10
151.13241274670003
20
113.79796837000001
42
0.41421356237310025
10
150.13241274669994
20
114.79796837000004
10
138.13241274669997
20
114.79796837000004
42
0.41421356237312623
0
LWPOLYLINE
5
313
100
AcDbEntity
8
0
100
AcDbPolyline
90
8
70
1
43
0.0
10
254.92009881239997
20
143.66046836999996
42
0.41421356237309503
10
255.92009881240003
20
144.66046836999999
10
255.92009881240017
20
156.66046836999999
42
0.41421356237313145
10
254.92009881239997
20
157.6604683700003
10
242.92009881240008
20
157.6604683700001
42
0.4142135623730534
10
241.92009881239969
20
156.66046836999999
10
241.92009881240006
20
144.66046836999999
42
0.4142135623730846
10
242.92009881239991
20
143.66046836999988
0
LWPOLYLINE
5
314
100
AcDbEntity
8
0
100
AcDbPolyline
90
8
70
1
43
0.0
10
-3.3613372533000119
20
82.747968369999967
42
0.41421356237309126
10
-2.3613372532999932
20
81.747968369999967
10
14.401162746700038
20
81.747968370000024
42
0.41421356237310608
10
15.401162746700001
20
82.747968369999981
10
15.401162746699979
20
94.747968369999995
42
0.41421356236590928
10
14.401162746724481
20
95.747968369999498
10
-2.3613372532999928
20
95.747968370000024
42
0.41421356237311935
10
-3.361337253300043
20
94.747968369999995
0
LWPOLYLINE
5
315
100
AcDbEntity
8
0
100
AcDbPolyline
90
8
70
1
43
0.0
10
8.2574127467000125
20
144.66046836999999
10
8.2574127467000871
20
156.66046836999999
42
0.4142135623730856
10
7.2574127466999983
20
157.6604683700001
10
-4.7425872533000302
20
157.6604683700001
42
0.4142135623730781
10
-5.7425872533000977
20
156.66046836999999
10
-5.7425872533001199
20
144.66046836999999
42
0.41421356237308593
10
-4.7425872533000302
20
143.66046836999993
10
7.2574127466999983
20
143.66046836999999
42
0.41421356237310314
0
CIRCLE
5
316
100
AcDbEntity
8
0
100
AcDbCircle
10
-8.7425872533000177
20
165.72382609654801
30
0
40
3.0000000000000338
210
0
220
0
230
1
0
LWPOLYLINE
5
317
100
AcDbEntity
8
0
100
AcDbPolyline
90
8
70
1
43
0.0
10
133.36991274669998
20
76.697968370000027
42
0.41421356237309243
10
132.36991274670001
20
75.697968369999998
10
132.36991274670001
20
63.697968369999998
42
0.4142135623730378
10
133.36991274669998
20
62.697968369999984
10
145.36991274670001
20
62.697968370000012
42
0.41421356237308721
10
146.36991274669995
20
63.697968369999998
10
146.36991274670007
20
75.697968369999998
42
0.41421356237308721
10
145.36991274670001
20
76.697968370000012
0
LWPOLYLINE
5
318
100
AcDbEntity
8
0
100
AcDbPolyline
90
8
70
1
43
0.0
10
95.269912746699958
20
62.697968369999977
10
107.26991274670006
20
62.697968370000012
42
0.41421356237311846
10
108.2699127467001
20
63.697968369999998
10
108.2699127467
20
75.697968369999998
42
0.4142135623730846
10
107.2699127467
20
76.697968370000041
10
95.269912746699958
20
76.697968370000012
42
0.41421356237304302
10
94.269912746700044
20
75.697968369999998
10
94.269912746700001
20
63.697968369999998
42
0.41421356237302998
0
LWPOLYLINE
5
319
100
AcDbEntity
8
0
100
AcDbPolyline
90
8
70
1
43
0.0
10
13.019912746700035
20
113.79796837000001
10
13.019912746700019
20
101.79796837000001
42
-0.41421356237309115
10
12.019912746700001
20
100.79796837000002
10
0.019912746700043789
20
100.79796837000004
42
-0.41421356237306806
10
-0.98008725329998825
20
101.79796837000001
10
-0.98008725329997004
20
113.79796837000001
42
-0.41421356237305856
10
0.019912746700043726
20
114.79796837000008
10
12.019912746700001
20
114.79796837000009
42
-0.414213562373069
0
LINE
5
320
100
AcDbEntity
8
0
100
AcDbLine
10
266.10947335657471
20
59.203356210536732
30
0
11
236.6094703565993
21
59.203356210536739
31
0
0
LWPOLYLINE
5
321
100
AcDbEntity
8
0
100
AcDbPolyline
90
23
70
1
43
0.0
10
187.62947127049313
20
43.643516990381698
10
187.62947127049313
20
50.628871184500035
10
187.62947127049316
20
58.228516990381642
42
-0.41421356237307905
10
189.2544712704931
20
59.85351699038165
10
194.2544712704931
20
59.85351699038165
42
-0.41421356237309664
10
195.87947127049304
20
58.228516990381692
10
195.87947127049304
20
41.288516990381716
42
-0.41421356237310147
10
194.2544712704931
20
39.663516990381737
10
74.96072127049338
20
39.663516990381787
42
-0.41421356237309825
10
73.335721270493295
20
41.288516990381893
10
73.335721270493295
20
58.228516990339962
42
-0.41421356237309664
10
74.960721270493451
20
59.853516990340069
10
79.960721270494446
20
59.853516990340019
42
-0.41421356237309348
10
81.585721270494446
20
58.228516990339976
10
81.585721270494446
20
43.643516990381841
10
126.60447127049324
20
43.643516990381784
42
0.41421356237308982
10
127.60447127049325
20
44.643516990381784
10
127.60447127049325
20
56.643516990381706
42
-0.41421356237309243
10
128.60447127049326
20
57.643516990381713
10
140.60447127049321
20
57.643516990381698
42
-0.41421356237313667
10
141.60447127049318
20
56.643516990381706
10
141.60447127049298
20
44.643516990381784
42
0.41421356237310025
10
142.60447127049298
20
43.643516990381734
0
LWPOLYLINE
5
322
100
AcDbEntity
8
0
100
AcDbPolyline
90
8
70
1
43
0.0
10
103.5074127467
20
156.66046836999999
42
0.41421356237310542
10
102.50741274669998
20
157.6604683700001
10
90.507412746700027
20
157.66046837000005
42
0.41421356237311063
10
89.507412746699998
20
156.66046836999999
10
89.507412746700084
20
144.66046836999999
42
0.41421356237305862
10
90.507412746699956
20
143.6604683700001
10
102.50741274669998
20
143.66046836999999
42
0.41421356237314705
10
103.5074127467
20
144.66046836999999
0
LINE
5
323
100
AcDbEntity
8
0
100
AcDbLine
10
262.04961481738906
20
81.748749146355252
30
0
11
250.04696783244938
21
81.752276183448984
31
0
0
CIRCLE
5
324
100
AcDbEntity
8
0
100
AcDbCircle
10
97.236779877702659
20
35.575209540902314
30
0
40
3.0000000000000169
210
0
220
0
230
1
0
LINE
5
325
100
AcDbEntity
8
0
100
AcDbLine
10
241.22393237264006
20
99.245822099349752
30
0
11
270.7239353726153
21
99.245822099349738
31
0
0
LWPOLYLINE
5
326
100
AcDbEntity
8
0
100
AcDbPolyline
90
8
70
1
43
0.0
10
97.744912746699981
20
81.747968369999896
42
0.41421356237307944
10
98.744912746700081
20
82.747968369999981
10
98.744912746699995
20
94.747968369999995
42
0.41421356237312101
10
97.744912746699981
20
95.747968370000066
10
85.744912746700095
20
95.747968369999995
42
0.4142135623730846
10
84.744912746700024
20
94.747968369999995
10
84.744912746700024
20
82.747968369999981
42
0.4142135623730534
10
85.744912746700095
20
81.747968369999995
0
LINE
5
327
100
AcDbEntity
8
0
100
AcDbLine
10
252.42754091182562
20
133.85042916353132
30
0
11
264.43018789676546
21
133.84690212643756
31
0
0
LWPOLYLINE
5
328
100
AcDbEntity
8
0
100
AcDbPolyline
90
8
70
1
43
0.0
10
214.33241274669999
20
100.79796837000002
10
226.33241274669999
20
100.79796837000002
42
0.414213562373069
10
227.33241274669979
20
101.79796837000001
10
227.3324127467001
20
113.79796837000001
42
0.4142135623730846
10
226.33241274669999
20
114.79796837000009
10
214.33241274669999
20
114.79796837000002
42
0.41421356237304302
10
213.33241274669987
20
113.79796837000001
10
213.33241274669987
20
101.79796837000001
42
0.41421356237311585
0
LINE
5
329
100
AcDbEntity
8
0
100
AcDbLine
10
5.4844723565992837
20
76.703355210536699
30
0
11
5.4844723565992837
21
62.697345536553343
31
0
0
LINE
5
330
100
AcDbEntity
8
0
100
AcDbLine
10
273.25322335657472
20
116.35335621053676
30
0
11
243.75322035659934
21
116.35335621053673
31
0
0
LINE
5
331
100
AcDbEntity
8
0
100
AcDbLine
10
4.9844893565992976
20
77.703356210536725
30
0
11
4.9844893565992976
21
77.203354210536645
31
0
0
ARC
5
332
100
AcDbEntity
8
0
100
AcDbCircle
10
-1.5155226434006153
20
60.203356210536747
30
0
40
0.99999999999994316
210
0
220
0
230
1
100
AcDbArc
50
180
51
270
0
CIRCLE
5
333
100
AcDbEntity
8
0
100
AcDbCircle
10
97.257411479885121
20
165.70713180763406
30
0
40
2.9999999999999738
210
0
220
0
230
1
0
LINE
5
334
100
AcDbEntity
8
0
100
AcDbLine
10
27.984473356574711
20
59.203356210536732
30
0
11
-1.515529643400626
21
59.203356210536739
31
0
0
LWPOLYLINE
5
335
100
AcDbEntity
8
0
100
AcDbPolyline
90
8
70
1
43
0.0
10
151.41991274670005
20
63.697968369999998
42
0.41421356237310802
10
152.41991274669999
20
62.697968370000019
10
164.41991274670005
20
62.697968369999984
42
0.41421356237307422
10
165.41991274670008
20
63.697968369999998
10
165.41991274669996
20
75.697968369999998
42
0.41421356237310281
10
164.41991274670005
20
76.697968370000012
10
152.41991274669999
20
76.697968370000098
42
0.41421356237310025
10
151.41991274669991
20
75.697968369999998
0
LWPOLYLINE
5
336
100
AcDbEntity
8
0
100
AcDbPolyline
90
8
70
1
43
0.0
10
174.94491274669994
20
82.747968369999981
10
174.94491274669997
20
94.747968369999995
42
0.4142135623730846
10
173.94491274670003
20
95.747968370000052
10
161.9449127467
20
95.747968370000024
42
0.41421356237311063
10
160.94491274670003
20
94.747968369999995
10
160.94491274670006
20
82.747968369999981
42
0.41421356237308982
10
161.9449127467
20
81.747968369999995
10
173.94491274670003
20
81.747968370000009
42
0.41421356237311585
0
LWPOLYLINE
5
337
100
AcDbEntity
8
0
100
AcDbPolyline
90
8
70
1
43
0.0
10
170.46991274670003
20
75.697968369999998
10
170.46991274670003
20
63.697968369999998
42
0.41421356237306123
10
171.4699127467
20
62.697968369999984
10
183.46991274670017
20
62.697968370000019
42
0.41421356237313667
10
184.46991274670015
20
63.697968369999998
10
184.46991274669998
20
75.697968369999998
42
0.41421356237309243
10
183.46991274670017
20
76.697968369999998
10
171.4699127467
20
76.697968369999984
42
0.41421356237311846
0
LWPOLYLINE
5
338
100
AcDbEntity
8
0
100
AcDbPolyline
90
8
70
1
43
0.0
10
27.307412746700042
20
120.82886508100005
10
27.30741274670002
20
132.828865081
42
0.41421356237309892
10
26.30741274670001
20
133.828865081
10
14.307412746699981
20
133.82886508100003
42
0.41421356237309115
10
13.30741274670002
20
132.828865081
10
13.307412746700047
20
120.82886508100006
42
0.41421356237308721
10
14.307412746699981
20
119.82886508100006
10
26.30741274670001
20
119.82886508100002
42
0.41421356237315488
0
LWPOLYLINE
5
339
100
AcDbEntity
8
0
100
AcDbPolyline
90
20
70
1
43
0.0
10
285.27750978104564
20
166.69889982627635
10
287.06756934017426
20
168.92911225260065
42
-0.22754309641506781
10
288.62827070178537
20
169.67721196445802
10
342.86558794352788
20
169.65077075199741
42
-0.41422165466092109
10
344.86528437881975
20
167.6504119850656
10
344.86509207731166
20
166.57846726051747
10
344.86491274670016
20
165.57882609875583
10
344.86491274670016
20
35.627968370000005
10
344.86491274670016
20
34.627968418273909
10
344.86491274670016
20
33.502147141513881
42
-0.41425801438116466
10
342.86460921417449
20
31.502147164547019
10
-11.768219961062698
20
31.555968464336324
42
-0.41416911176224747
10
-13.767916428537035
20
33.555968441303321
10
-13.747890739763175
20
167.70458909200156
42
-0.41425801438112303
10
-11.747587207237444
20
169.70458906896857
10
271.1053139518246
20
169.66166154072781
42
-0.22761341834952878
10
272.66587123397562
20
168.91214687643225
10
274.437804039838
20
166.70041319600844
42
-0.17052312726028832
10
274.65737362098321
20
166.0750187734233
10
285.05737296383245
20
166.07310156728713
42
-0.17067831109239467
0
ENDSEC
0
SECTION
2
OBJECTS
0
DICTIONARY
5
C
100
AcDbDictionary
3
ACAD_GROUP
350
D
3
ACAD_MLINESTYLE
350
17
0
DICTIONARY
5
D
100
AcDbDictionary
0
DICTIONARY
5
1A
330
C
100
AcDbDictionary
0
DICTIONARY
5
17
100
AcDbDictionary
0
ENDSEC
0
EOF
