0
SECTION
2
HEADER
9
$INSUNITS
70
4
9
$ACADVER
1
AC1014
9
$HANDSEED
5
FFFF
0
ENDSEC
0
SECTION
2
TABLES
0
TABLE
2
VPORT
5
8
100
AcDbSymbolTable
0
ENDTAB
0
TABLE
2
LTYPE
5
5
100
AcDbSymbolTable
0
LTYPE
5
14
100
AcDbSymbolTableRecord
100
AcDbLinetypeTableRecord
2
BYBLOCK
70
0
0
LTYPE
5
15
100
AcDbSymbolTableRecord
100
AcDbLinetypeTableRecord
2
BYLAYER
70
0
0
ENDTAB
0
TABLE
2
LAYER
5
2
100
AcDbSymbolTable
70
2
0
LAYER
5
50
100
AcDbSymbolTableRecord
100
AcDbLayerTableRecord
2
0
70
0
6
CONTINUOUS
0
ENDTAB
0
TABLE
2
STYLE
5
3
100
AcDbSymbolTable
70
1
0
STYLE
5
11
100
AcDbSymbolTableRecord
100
AcDbTextStyleTableRecord
2
STANDARD
70
0
0
ENDTAB
0
TABLE
2
VIEW
5
6
100
AcDbSymbolTable
70
0
0
ENDTAB
0
TABLE
2
UCS
5
7
100
AcDbSymbolTable
70
0
0
ENDTAB
0
TABLE
2
APPID
5
9
100
AcDbSymbolTable
70
2
0
APPID
5
12
100
AcDbSymbolTableRecord
100
AcDbRegAppTableRecord
2
ACAD
70
0
0
ENDTAB
0
TABLE
2
DIMSTYLE
5
A
100
AcDbSymbolTable
70
1
0
ENDTAB
0
TABLE
2
BLOCK_RECORD
5
1
100
AcDbSymbolTable
70
1
0
BLOCK_RECORD
5
1F
100
AcDbSymbolTableRecord
100
AcDbBlockTableRecord
2
*MODEL_SPACE
0
BLOCK_RECORD
5
1B
100
AcDbSymbolTableRecord
100
AcDbBlockTableRecord
2
*PAPER_SPACE
0
ENDTAB
0
ENDSEC
0
SECTION
2
BLOCKS
0
BLOCK
5
20
100
AcDbEntity
100
AcDbBlockBegin
2
*MODEL_SPACE
0
ENDBLK
5
21
100
AcDbEntity
100
AcDbBlockEnd
0
BLOCK
5
1C
100
AcDbEntity
100
AcDbBlockBegin
2
*PAPER_SPACE
0
ENDBLK
5
1D
100
AcDbEntity
100
AcDbBlockEnd
0
ENDSEC
0
SECTION
2
ENTITIES
0
LWPOLYLINE
5
100
100
AcDbEntity
8
0
100
AcDbPolyline
90
45
70
1
43
0.0
10
272.67087123397562
20
-121.0178531235678
42
0.22761341834951793
10
271.11031395182459
20
-120.26833845927221
10
-11.74258720723742
20
-120.22541093103143
42
0.41425801438112109
10
-13.742890739763155
20
-122.22541090799849
10
-13.762916428537
20
-256.37403155869669
42
0.41416911176224425
10
-11.763219961062674
20
-258.37403153566368
10
342.86960921417449
20
-258.427852835453
42
0.41425801438115945
10
344.86991274670015
20
-256.42785285848606
10
344.86991274670015
20
-255.30203158172614
10
344.86991274670015
20
-254.30203163000002
10
344.86991274670015
20
-124.35117390124418
10
344.87009207731171
20
-123.35153273948252
10
344.87028437881975
20
-122.27958801493442
42
0.41422165466091593
10
342.87058794352788
20
-120.27922924800272
10
288.63327070178542
20
-120.252788035542
42
0.22754309641504786
10
287.07256934017425
20
-121.00088774739937
10
285.28250978104563
20
-123.23110017372369
42
0.17067831109239012
10
285.06237296383244
20
-123.85689843271288
10
285.06172904420805
20
-128.09973647941393
42
0.41425801437718696
10
287.06172902117521
20
-130.10004001191271
10
338.99999245438124
20
-130.10004001191228
10
339.08839374143383
20
-250.08628050744929
10
196.44999603703621
20
-250.19827413043231
42
0.24549851555429292
10
194.14999608844522
20
-251.39999438077214
42
-0.23604458795962083
10
191.94999613761905
20
-252.59999435395005
42
-0.21737151111913053
10
189.04999620243905
20
-251.39999438077211
42
0.13989747318233783
10
187.05623925072544
20
-250.19827413043288
10
177.29999603703618
20
-250.19827413043231
42
0.2454985155542948
10
174.99999608844519
20
-251.39999438077211
42
-0.23604458795960487
10
172.79999613761902
20
-252.59999435395002
42
-0.21737151111913938
10
169.8999962024391
20
-251.39999438077211
42
0.1398974731823299
10
167.90623925072543
20
-250.19827413043288
10
166.29999628290534
20
-250.1982741304335
10
82.79999814927578
20
-250.19827413044268
42
0.30308510446644099
10
80.699998196214437
20
-251.59999437630177
42
-0.43295221600363742
10
80.20985964422772
20
-252.12231534367641
10
69.999998435378075
20
-252.12231534367646
42
-0.39571995329878101
10
69.417580222019637
20
-251.57578239252743
42
0.27445726691252414
10
67.09999850019814
20
-250.19999440759418
10
-8.0999998189508915
20
-250.19999440759477
10
-8.0999998189517441
20
-130.10004001191484
10
272.6617293412927
20
-130.1000400119128
42
0.41416911176618848
10
274.66172931825969
20
-128.10034354441149
10
274.66237362098326
20
-123.85498122657671
42
0.17052312726032601
10
274.44280403983805
20
-123.22958680399159
0
CIRCLE
5
101
100
AcDbEntity
8
0
100
AcDbCircle
10
97.257411479885121
20
-124.29286819236593
30
0
40
2.9999999999999898
210
0
220
0
230
1
0
CIRCLE
5
102
100
AcDbEntity
8
0
100
AcDbCircle
10
233.87045093164687
20
-124.27617394951793
30
0
40
2.999999999999972
210
0
220
0
230
1
0
CIRCLE
5
103
100
AcDbEntity
8
0
100
AcDbCircle
10
339.87045093164681
20
-124.27617394951793
30
0
40
3.0000000000000488
210
0
220
0
230
1
0
CIRCLE
5
104
100
AcDbEntity
8
0
100
AcDbCircle
10
-8.7425872533000177
20
-124.27617390345192
30
0
40
3.0000000000000182
210
0
220
0
230
1
0
CIRCLE
5
105
100
AcDbEntity
8
0
100
AcDbCircle
10
233.86991274696058
20
-254.42427102115815
30
0
40
2.9999999999999387
210
0
220
0
230
1
0
CIRCLE
5
106
100
AcDbEntity
8
0
100
AcDbCircle
10
339.86991274670004
20
-254.42403158176151
30
0
40
3.0000000000000044
210
0
220
0
230
1
0
CIRCLE
5
107
100
AcDbEntity
8
0
100
AcDbCircle
10
97.23677987770273
20
-254.42479045909766
30
0
40
2.999999999999972
210
0
220
0
230
1
0
CIRCLE
5
108
100
AcDbEntity
8
0
100
AcDbCircle
10
-8.7632201222973549
20
-254.42479045909766
30
0
40
3.0000000000000004
210
0
220
0
230
1
0
ENDSEC
0
SECTION
2
OBJECTS
0
DICTIONARY
5
C
100
AcDbDictionary
3
ACAD_GROUP
350
D
3
ACAD_MLINESTYLE
350
17
0
DICTIONARY
5
D
100
AcDbDictionary
0
DICTIONARY
5
1A
330
C
100
AcDbDictionary
0
DICTIONARY
5
17
100
AcDbDictionary
0
ENDSEC
0
EOF
