0
SECTION
2
HEADER
9
$INSUNITS
70
4
9
$ACADVER
1
AC1014
9
$HANDSEED
5
FFFF
0
ENDSEC
0
SECTION
2
TABLES
0
TABLE
2
VPORT
5
8
100
AcDbSymbolTable
0
ENDTAB
0
TABLE
2
LTYPE
5
5
100
AcDbSymbolTable
0
LTYPE
5
14
100
AcDbSymbolTableRecord
100
AcDbLinetypeTableRecord
2
BYBLOCK
70
0
0
LTYPE
5
15
100
AcDbSymbolTableRecord
100
AcDbLinetypeTableRecord
2
BYLAYER
70
0
0
ENDTAB
0
TABLE
2
LAYER
5
2
100
AcDbSymbolTable
70
2
0
LAYER
5
50
100
AcDbSymbolTableRecord
100
AcDbLayerTableRecord
2
0
70
0
6
CONTINUOUS
0
ENDTAB
0
TABLE
2
STYLE
5
3
100
AcDbSymbolTable
70
1
0
STYLE
5
11
100
AcDbSymbolTableRecord
100
AcDbTextStyleTableRecord
2
STANDARD
70
0
0
ENDTAB
0
TABLE
2
VIEW
5
6
100
AcDbSymbolTable
70
0
0
ENDTAB
0
TABLE
2
UCS
5
7
100
AcDbSymbolTable
70
0
0
ENDTAB
0
TABLE
2
APPID
5
9
100
AcDbSymbolTable
70
2
0
APPID
5
12
100
AcDbSymbolTableRecord
100
AcDbRegAppTableRecord
2
ACAD
70
0
0
ENDTAB
0
TABLE
2
DIMSTYLE
5
A
100
AcDbSymbolTable
70
1
0
ENDTAB
0
TABLE
2
BLOCK_RECORD
5
1
100
AcDbSymbolTable
70
1
0
BLOCK_RECORD
5
1F
100
AcDbSymbolTableRecord
100
AcDbBlockTableRecord
2
*MODEL_SPACE
0
BLOCK_RECORD
5
1B
100
AcDbSymbolTableRecord
100
AcDbBlockTableRecord
2
*PAPER_SPACE
0
ENDTAB
0
ENDSEC
0
SECTION
2
BLOCKS
0
BLOCK
5
20
100
AcDbEntity
100
AcDbBlockBegin
2
*MODEL_SPACE
0
ENDBLK
5
21
100
AcDbEntity
100
AcDbBlockEnd
0
BLOCK
5
1C
100
AcDbEntity
100
AcDbBlockBegin
2
*PAPER_SPACE
0
ENDBLK
5
1D
100
AcDbEntity
100
AcDbBlockEnd
0
ENDSEC
0
SECTION
2
ENTITIES
0
LINE
5
100
100
AcDbEntity
8
0
100
AcDbLine
10
27.984473356574711
20
59.203356210536725
30
0
11
-1.515529643400626
21
59.203356210536739
31
0
0
LWPOLYLINE
5
101
100
AcDbEntity
8
0
100
AcDbPolyline
90
22
70
1
43
0.0
10
-11.74258720723742
20
169.72458906896838
10
273.86191027990265
20
169.68124394123117
42
-0.41421356237306384
10
274.86175850212305
20
168.68109218648502
10
274.86164376682837
20
167.92509219519164
10
275.66264375760369
20
167.92497063041512
10
275.66107672682165
20
157.59968004980954
10
284.06107663007629
20
157.59904263150554
10
284.06264356411964
20
167.92369579382805
10
284.86364355489502
20
167.92357422905155
10
284.86375829018971
20
168.67957422033854
42
-0.4142135623730846
10
285.86391004493578
20
169.67942244255906
10
342.87058794352788
20
169.67077075199936
42
-0.41422165466090549
10
344.87028437881946
20
167.67041198506777
10
344.87009207731148
20
166.59846726051754
10
344.86991274670004
20
165.59882609875586
10
344.86991274670004
20
35.647968370000015
10
344.86991274670004
20
34.647968418273848
10
344.86991274670015
20
33.52214714151409
42
-0.41425801438113735
10
342.8696092141746
20
31.522147164547079
10
-11.763219961062816
20
31.575968464336338
42
-0.41416911176224941
10
-13.762916428537153
20
33.575968441303345
10
-13.742890739763151
20
167.72458909200137
42
-0.41425801438112303
0
LWPOLYLINE
5
102
100
AcDbEntity
8
0
100
AcDbPolyline
90
8
70
1
43
0.0
10
26.30741274670001
20
119.82886508100002
10
14.307412746699981
20
119.82886508100003
42
-0.41421356237307422
10
13.307412746700038
20
120.82886508100005
10
13.30741274670002
20
132.828865081
42
-0.41421356237310542
10
14.307412746699981
20
133.828865081
10
26.30741274670001
20
133.828865081
42
-0.41421356237308982
10
27.307412746700024
20
132.828865081
10
27.307412746700042
20
120.82886508100005
42
-0.41421356237313667
0
LWPOLYLINE
5
103
100
AcDbEntity
8
0
100
AcDbPolyline
90
8
70
1
43
0.0
10
152.41991274669999
20
62.697968370000027
42
-0.41421356237310281
10
151.41991274670005
20
63.697968369999998
10
151.41991274669991
20
75.697968369999998
42
-0.41421356237310025
10
152.41991274669999
20
76.697968370000098
10
164.41991274670002
20
76.697968370000012
42
-0.41421356237311324
10
165.41991274669996
20
75.697968369999998
10
165.41991274670005
20
63.697968369999998
42
-0.41421356237309503
10
164.41991274670002
20
62.697968369999984
0
LWPOLYLINE
5
104
100
AcDbEntity
8
0
100
AcDbPolyline
90
8
70
1
43
0.0
10
171.4699127467
20
62.697968369999984
42
-0.41421356237309503
10
170.4699127467
20
63.697968369999998
10
170.4699127467
20
75.697968369999998
42
-0.41421356237309243
10
171.4699127467
20
76.697968370000012
10
183.46991274670017
20
76.697968369999998
42
-0.41421356237311324
10
184.46991274669998
20
75.697968369999998
10
184.46991274670015
20
63.697968369999998
42
-0.41421356237309764
10
183.46991274670017
20
62.697968370000012
0
LWPOLYLINE
5
105
100
AcDbEntity
8
0
100
AcDbPolyline
90
8
70
1
43
0.0
10
173.94491274670003
20
81.747968370000024
10
161.9449127467
20
81.747968369999995
42
-0.414213562373069
10
160.94491274670006
20
82.747968369999981
10
160.94491274670003
20
94.747968369999995
42
-0.41421356237311063
10
161.9449127467
20
95.747968370000024
10
173.94491274670003
20
95.747968370000052
42
-0.4142135623730846
10
174.94491274669997
20
94.747968369999995
10
174.94491274669994
20
82.747968369999981
42
-0.41421356237311063
0
LWPOLYLINE
5
106
100
AcDbEntity
8
0
100
AcDbPolyline
90
8
70
1
43
0.0
10
146.36991274669998
20
63.697968369999998
42
-0.41421356237309503
10
145.36991274670001
20
62.697968370000012
10
133.36991274669998
20
62.697968369999984
42
-0.41421356237303258
10
132.36991274670004
20
63.697968369999998
10
132.36991274670001
20
75.697968369999998
42
-0.41421356237310802
10
133.36991274669998
20
76.697968370000012
10
145.36991274670001
20
76.697968370000012
42
-0.41421356237309243
10
146.36991274670004
20
75.697968369999998
0
LWPOLYLINE
5
107
100
AcDbEntity
8
0
100
AcDbPolyline
90
8
70
1
43
0.0
10
151.1324127467
20
101.79796837000001
42
-0.414213562373069
10
150.13241274669994
20
100.79796837000004
10
138.13241274669997
20
100.79796837000004
42
-0.41421356237311585
10
137.13241274669997
20
101.79796836999998
10
137.13241274669994
20
113.79796837000001
42
-0.41421356237313145
10
138.13241274669997
20
114.79796837000004
10
150.13241274669994
20
114.79796837000004
42
-0.41421356237307944
10
151.13241274670003
20
113.79796837000001
0
LWPOLYLINE
5
108
100
AcDbEntity
8
0
100
AcDbPolyline
90
8
70
1
43
0.0
10
-5.7425872533000444
20
132.82886508100003
42
-0.41421356237306384
10
-4.7425872533000302
20
133.82886508100006
10
7.2574127466999983
20
133.82886508100006
42
-0.41421356237310542
10
8.2574127467000125
20
132.828865081
10
8.2574127467000658
20
120.82886508100005
42
-0.4142135623730846
10
7.2574127466999983
20
119.82886508100002
10
-4.7425872533000302
20
119.82886508100002
42
-0.41421356237312101
10
-5.7425872532999733
20
120.82886508100005
0
LWPOLYLINE
5
109
100
AcDbEntity
8
0
100
AcDbPolyline
90
8
70
1
43
0.0
10
13.019912746700033
20
113.79796837000001
42
0.414213562373069
10
12.019912746700001
20
114.79796837000009
10
0.019912746700043789
20
114.79796837000006
42
0.41421356237306384
10
-0.98008725329997048
20
113.79796837000001
10
-0.98008725329998825
20
101.79796837000001
42
0.41421356237307944
10
0.019912746700043726
20
100.79796837000004
10
12.019912746700001
20
100.79796837000001
42
0.41421356237309503
10
13.019912746700015
20
101.79796837000001
0
LWPOLYLINE
5
110
100
AcDbEntity
8
0
100
AcDbPolyline
90
8
70
1
43
0.0
10
-5.7425872533000977
20
156.66046836999999
42
-0.414213562373069
10
-4.7425872533000302
20
157.6604683700001
10
7.2574127466999983
20
157.66046837000007
42
-0.41421356237309503
10
8.2574127467000835
20
156.66046836999999
10
8.2574127467000125
20
144.66046836999999
42
-0.41421356237309503
10
7.2574127466999983
20
143.66046836999999
10
-4.7425872533000302
20
143.66046836999993
42
-0.41421356237309503
10
-5.7425872533001154
20
144.66046836999999
0
LWPOLYLINE
5
111
100
AcDbEntity
8
0
100
AcDbPolyline
90
8
70
1
43
0.0
10
-2.3613372532999932
20
81.747968369999967
42
-0.41421356237308982
10
-3.3613372533000074
20
82.747968369999967
10
-3.361337253300043
20
94.747968369999995
42
-0.41421356237313145
10
-2.3613372532999932
20
95.747968370000024
10
14.401162746724481
20
95.747968369999484
42
-0.41421356236592555
10
15.401162746699981
20
94.747968369999995
10
15.401162746699999
20
82.747968369999981
42
-0.41421356237309503
10
14.401162746700038
20
81.747968370000024
0
CIRCLE
5
112
100
AcDbEntity
8
0
100
AcDbCircle
10
-8.742587253300016
20
165.72382609654801
30
0
40
3.0000000000000333
210
0
220
0
230
1
0
LWPOLYLINE
5
113
100
AcDbEntity
8
0
100
AcDbPolyline
90
8
70
1
43
0.0
10
98.744912746700095
20
82.747968369999981
42
-0.41421356237307944
10
97.744912746699981
20
81.74796836999991
10
85.744912746700095
20
81.747968369999995
42
-0.41421356237302737
10
84.74491274670001
20
82.747968369999981
10
84.744912746700038
20
94.747968369999995
42
-0.41421356237307944
10
85.744912746700095
20
95.747968369999995
10
97.744912746699981
20
95.747968370000066
42
-0.41421356237311063
10
98.744912746699995
20
94.747968369999995
0
CIRCLE
5
114
100
AcDbEntity
8
0
100
AcDbCircle
10
97.257411479885079
20
165.70713180763406
30
0
40
2.9999999999999738
210
0
220
0
230
1
0
LWPOLYLINE
5
115
100
AcDbEntity
8
0
100
AcDbPolyline
90
8
70
1
43
0.0
10
102.50741274669998
20
119.82886508100002
10
90.507412746700027
20
119.82886508100002
42
-0.41421356237310025
10
89.507412746700084
20
120.82886508099998
10
89.507412746699956
20
132.828865081
42
-0.414213562373069
10
90.507412746700027
20
133.82886508099998
10
102.50741274669998
20
133.82886508100003
42
-0.41421356237313667
10
103.5074127467
20
132.828865081
10
103.50741274669998
20
120.82886508100005
42
-0.41421356237310542
0
LINE
5
116
100
AcDbEntity
8
0
100
AcDbLine
10
266.10947335657471
20
59.203356210536725
30
0
11
236.6094703565993
21
59.203356210536739
31
0
0
LINE
5
117
100
AcDbEntity
8
0
100
AcDbLine
10
5.4844723565992837
20
76.703355210536699
30
0
11
5.4844723565992837
21
62.697345536553343
31
0
0
LINE
5
118
100
AcDbEntity
8
0
100
AcDbLine
10
273.25322335657472
20
116.35335621053673
30
0
11
243.75322035659934
21
116.35335621053673
31
0
0
LWPOLYLINE
5
119
100
AcDbEntity
8
0
100
AcDbPolyline
90
8
70
1
43
0.0
10
102.50741274669998
20
143.66046836999999
10
90.507412746699956
20
143.66046837000007
42
-0.414213562373069
10
89.507412746700084
20
144.66046836999999
10
89.507412746699998
20
156.66046836999999
42
-0.41421356237310025
10
90.507412746700027
20
157.66046837000005
10
102.50741274669998
20
157.66046837000007
42
-0.41421356237311063
10
103.5074127467
20
156.66046836999999
10
103.5074127467
20
144.66046836999999
42
-0.41421356237313667
0
LWPOLYLINE
5
120
100
AcDbEntity
8
0
100
AcDbPolyline
90
8
70
1
43
0.0
10
254.92009881239994
20
157.6604683700003
42
-0.41421356237311585
10
255.92009881240017
20
156.66046836999999
10
255.92009881240003
20
144.66046836999999
42
-0.41421356237307944
10
254.92009881239994
20
143.66046836999996
10
242.92009881239991
20
143.66046836999988
42
-0.41421356237306384
10
241.92009881239997
20
144.66046836999999
10
241.92009881239971
20
156.66046836999999
42
-0.4142135623730378
10
242.92009881240006
20
157.66046837000013
0
LINE
5
121
100
AcDbEntity
8
0
100
AcDbLine
10
252.42754091182562
20
133.85042916353132
30
0
11
264.43018789676546
21
133.84690212643758
31
0
0
LWPOLYLINE
5
122
100
AcDbEntity
8
0
100
AcDbPolyline
90
8
70
1
43
0.0
10
107.26991274670006
20
62.697968370000019
10
95.269912746699958
20
62.69796836999997
42
-0.4142135623730378
10
94.269912746700015
20
63.697968369999998
10
94.26991274670003
20
75.697968369999998
42
-0.4142135623730378
10
95.269912746699958
20
76.697968370000012
10
107.26991274669999
20
76.697968370000055
42
-0.41421356237310802
10
108.2699127467
20
75.697968369999998
10
108.2699127467001
20
63.697968369999998
42
-0.41421356237311585
0
ARC
5
123
100
AcDbEntity
8
0
100
AcDbCircle
10
-1.5155226434006153
20
60.203356210536739
30
0
40
0.99999999999994316
210
0
220
0
230
1
100
AcDbArc
50
180
51
270
0
LINE
5
124
100
AcDbEntity
8
0
100
AcDbLine
10
4.9844893565992976
20
77.703356210536725
30
0
11
4.9844893565992976
21
77.203354210536645
31
0
0
LINE
5
125
100
AcDbEntity
8
0
100
AcDbLine
10
262.04961481738906
20
81.748749146355252
30
0
11
250.04696783244938
21
81.752276183448998
31
0
0
LINE
5
126
100
AcDbEntity
8
0
100
AcDbLine
10
241.22393237264006
20
99.245822099349738
30
0
11
270.7239353726153
21
99.245822099349709
31
0
0
CIRCLE
5
127
100
AcDbEntity
8
0
100
AcDbCircle
10
97.236779877702659
20
35.575209540902307
30
0
40
3.0000000000000169
210
0
220
0
230
1
0
LWPOLYLINE
5
128
100
AcDbEntity
8
0
100
AcDbPolyline
90
8
70
1
43
0.0
10
270.19491274670003
20
113.79796837000001
10
270.19491274669997
20
101.79796837000001
42
-0.4142135623730222
10
269.19491274670008
20
100.79796837000006
10
257.19491274669991
20
100.79796837000002
42
-0.41421356237311063
10
256.19491274669997
20
101.79796837000001
10
256.19491274670003
20
113.79796837000001
42
-0.41421356237312623
10
257.19491274669991
20
114.79796837000002
10
269.19491274670008
20
114.79796836999996
42
-0.41421356237310025
0
LWPOLYLINE
5
129
100
AcDbEntity
8
0
100
AcDbPolyline
90
8
70
1
43
0.0
10
227.33241274670007
20
113.79796837000001
10
227.33241274669979
20
101.79796837000001
42
-0.41421356237306384
10
226.33241274669999
20
100.79796837000004
10
214.33241274669996
20
100.79796837000001
42
-0.41421356237307422
10
213.33241274669987
20
101.79796837000001
10
213.33241274669987
20
113.79796837000001
42
-0.41421356237307944
10
214.33241274669996
20
114.79796837000004
10
226.33241274669999
20
114.79796837000009
42
-0.41421356237309503
0
LWPOLYLINE
5
130
100
AcDbEntity
8
0
100
AcDbPolyline
90
8
70
1
43
0.0
10
59.644912746699958
20
81.747968369999953
10
47.644912746700001
20
81.747968369999967
42
-0.41421356237308982
10
46.644912746699987
20
82.747968369999967
10
46.644912746700001
20
94.747968369999995
42
-0.41421356237313667
10
47.644912746700001
20
95.747968369999995
10
59.644912746699958
20
95.747968369999938
42
-0.41421356237315748
10
60.644912746699973
20
94.747968369999995
10
60.644912746700058
20
82.747968369999981
42
-0.41421356237311585
0
LWPOLYLINE
5
131
100
AcDbEntity
8
0
100
AcDbPolyline
90
8
70
1
43
0.0
10
118.08241274669996
20
101.79796837000001
10
118.08241274670002
20
113.79796837000001
42
-0.41421356237309503
10
119.08241274670004
20
114.79796837000004
10
131.08241274670002
20
114.79796837000008
42
-0.41421356237311063
10
132.08241274670002
20
113.79796837000001
10
132.08241274670004
20
101.79796837000001
42
-0.41421356237311585
10
131.08241274670002
20
100.79796837000004
10
119.08241274670004
20
100.79796837000001
42
-0.41421356237307422
0
LWPOLYLINE
5
132
100
AcDbEntity
8
0
100
AcDbPolyline
90
8
70
1
43
0.0
10
128.60741274670005
20
119.84796837000003
10
140.60741274669999
20
119.84796836999993
42
0.414213562373069
10
141.60741274670002
20
120.84796837
10
141.60741274670002
20
132.84796836999999
42
0.41421356237308982
10
140.60741274669999
20
133.84796836999999
10
128.60741274670005
20
133.84796837000013
42
0.41421356237302737
10
127.60741274669996
20
132.84796836999999
10
127.60741274670002
20
120.84796837
42
0.41421356237307944
0
LWPOLYLINE
5
133
100
AcDbEntity
8
0
100
AcDbPolyline
90
8
70
1
43
0.0
10
138.13241274669997
20
143.66046836999993
10
150.13241274670003
20
143.66046836999993
42
0.41421356237311063
10
151.13241274670003
20
144.66046836999999
10
151.13241274670003
20
156.66046836999999
42
0.4142135623730846
10
150.13241274669994
20
157.66046837000005
10
138.13241274669997
20
157.6604683700001
42
0.41421356237307944
10
137.13241274669997
20
156.66046836999999
10
137.13241274669994
20
144.66046836999999
42
0.414213562373069
0
LWPOLYLINE
5
134
100
AcDbEntity
8
0
100
AcDbPolyline
90
8
70
1
43
0.0
10
113.0324127467
20
113.79796837000001
10
113.03241274670003
20
101.79796837000001
42
-0.41421356237311585
10
112.03241274669999
20
100.79796837000004
10
100.03241274670003
20
100.79796837000001
42
-0.41421356237307422
10
99.032412746699947
20
101.79796837000001
10
99.032412746700004
20
113.79796837000001
42
-0.41421356237309503
10
100.03241274670003
20
114.79796837000004
10
112.03241274669999
20
114.79796837000004
42
-0.41421356237310025
0
LWPOLYLINE
5
135
100
AcDbEntity
8
0
100
AcDbPolyline
90
8
70
1
43
0.0
10
74.932412746699981
20
113.79796837000001
10
74.932412746700038
20
101.79796837000001
42
-0.414213562373069
10
73.932412746700038
20
100.79796836999996
10
61.93241274670001
20
100.79796836999989
42
-0.41421356237310542
10
60.932412746699924
20
101.79796837000001
10
60.932412746699995
20
113.79796837000001
42
-0.41421356237309503
10
61.93241274670001
20
114.79796837000002
10
73.932412746700038
20
114.79796837000001
42
-0.414213562373069
0
LWPOLYLINE
5
136
100
AcDbEntity
8
0
100
AcDbPolyline
90
8
70
1
43
0.0
10
93.982412746699993
20
101.79796837000001
10
93.982412746699978
20
113.79796837000001
42
0.41421356237304302
10
92.982412746700049
20
114.79796837000004
10
80.982412746700021
20
114.79796837000008
42
0.41421356237312623
10
79.982412746699936
20
113.79796837000002
10
79.982412746700007
20
101.79796837000001
42
0.41421356237312623
10
80.982412746700021
20
100.79796837000004
10
92.982412746700049
20
100.79796837000004
42
0.41421356237310542
0
LWPOLYLINE
5
137
100
AcDbEntity
8
0
100
AcDbPolyline
90
8
70
1
43
0.0
10
336.86991274669992
20
113.79796837000001
10
336.86991274669998
20
101.79796837000001
42
-0.41421356237308982
10
335.86991274669998
20
100.79796837000004
10
323.86991274670009
20
100.79796836999992
42
-0.41421356237311063
10
322.86991274670004
20
101.79796837000006
10
322.86991274670004
20
113.79796837000001
42
-0.41421356237311585
10
323.86991274670009
20
114.79796837000016
10
335.86991274669998
20
114.79796837000004
42
-0.41421356237312101
0
LWPOLYLINE
5
138
100
AcDbEntity
8
0
100
AcDbPolyline
90
8
70
1
43
0.0
10
189.23241274670005
20
113.79796837000001
10
189.23241274670002
20
101.79796837000001
42
-0.41421356237307422
10
188.23241274669996
20
100.79796837000004
10
176.23241274669999
20
100.79796837000006
42
-0.41421356237311585
10
175.23241274669999
20
101.79796837000001
10
175.23241274669996
20
113.79796837000001
42
-0.41421356237311585
10
176.23241274669999
20
114.79796836999998
10
188.23241274669996
20
114.79796837000016
42
-0.41421356237303258
0
LWPOLYLINE
5
139
100
AcDbEntity
8
0
100
AcDbPolyline
90
8
70
1
43
0.0
10
156.18241274670001
20
113.79796837000001
42
-0.41421356237310025
10
157.18241274669998
20
114.79796837000002
10
169.18241274669995
20
114.79796837000004
42
-0.41421356237307944
10
170.18241274670004
20
113.79796837000001
10
170.18241274670004
20
101.79796837000001
42
-0.414213562373069
10
169.18241274669995
20
100.79796837000004
10
157.18241274669998
20
100.79796837000004
42
-0.41421356237311585
10
156.18241274669998
20
101.79796836999998
0
LWPOLYLINE
5
140
100
AcDbEntity
8
0
100
AcDbPolyline
90
8
70
1
43
0.0
10
303.81991274669997
20
101.79796836999999
10
303.81991274669997
20
113.79796837000001
42
-0.41421356237307944
10
304.81991274670008
20
114.79796837000004
10
316.81991274669997
20
114.79796837000009
42
-0.41421356237313667
10
317.8199127467002
20
113.79796837000001
10
317.81991274669997
20
101.79796837000001
42
-0.41421356237309503
10
316.81991274669997
20
100.79796837000004
10
304.81991274670008
20
100.79796836999986
42
-0.41421356237311063
0
LWPOLYLINE
5
141
100
AcDbEntity
8
0
100
AcDbPolyline
90
8
70
1
43
0.0
10
41.882412746699984
20
101.79796837000001
10
41.88241274670002
20
113.79796837000001
42
-0.41421356237310542
10
42.882412746699998
20
114.79796837000002
10
54.882412746700027
20
114.79796837000001
42
-0.414213562373069
10
55.88241274669997
20
113.79796837000001
10
55.882412746699984
20
101.79796837000001
42
-0.41421356237310025
10
54.882412746700027
20
100.79796837000004
10
42.882412746699998
20
100.79796836999998
42
-0.41421356237310025
0
LWPOLYLINE
5
142
100
AcDbEntity
8
0
100
AcDbPolyline
90
8
70
1
43
0.0
10
36.83241274670003
20
113.79796837000001
10
36.832412746700044
20
101.79796837000001
42
-0.41421356237312101
10
35.832412746700015
20
100.79796837000004
10
23.832412746699987
20
100.79796837000005
42
-0.41421356237310025
10
22.832412746700044
20
101.79796837000001
10
22.832412746700044
20
113.79796837000001
42
-0.41421356237310025
10
23.832412746699987
20
114.79796836999996
10
35.832412746700015
20
114.79796837000001
42
-0.41421356237313145
0
LWPOLYLINE
5
143
100
AcDbEntity
8
0
100
AcDbPolyline
90
8
70
1
43
0.0
10
194.2824127467
20
113.79796837000001
10
194.28241274669995
20
101.79796837000001
42
0.41421356237311063
10
195.28241274669995
20
100.79796836999996
10
207.28241274669998
20
100.79796837000001
42
0.41421356237307422
10
208.28241274670006
20
101.79796837000001
10
208.28241274669995
20
113.79796837000001
42
0.41421356237310542
10
207.28241274669998
20
114.79796837000002
10
195.28241274669995
20
114.79796837000001
42
0.41421356237311063
0
LWPOLYLINE
5
144
100
AcDbEntity
8
0
100
AcDbPolyline
90
8
70
1
43
0.0
10
284.76991274670002
20
101.79796837000005
10
284.7699127466999
20
113.79796837000001
42
-0.41421356237324591
10
285.76991274670007
20
114.79796837000009
10
297.76991274669996
20
114.79796836999996
42
-0.41421356237310025
10
298.7699127466999
20
113.79796837000001
10
298.76991274670002
20
101.79796837000001
42
-0.41421356237315748
10
297.76991274669996
20
100.79796837000004
10
285.76991274670007
20
100.79796837000004
42
-0.41421356237315748
0
LWPOLYLINE
5
145
100
AcDbEntity
8
0
100
AcDbPolyline
90
8
70
1
43
0.0
10
178.70741274669996
20
119.84796836999998
10
166.70741274670002
20
119.84796837000007
42
-0.41421356237311063
10
165.70741274669999
20
120.84796837
10
165.70741274669999
20
132.84796836999999
42
-0.41421356237308982
10
166.70741274670002
20
133.84796836999999
10
178.70741274669996
20
133.84796837000007
42
-0.41421356237311063
10
179.70741274669996
20
132.84796836999999
10
179.70741274670002
20
120.84796837
42
-0.41421356237308982
0
LWPOLYLINE
5
146
100
AcDbEntity
8
0
100
AcDbPolyline
90
8
70
1
43
0.0
10
147.6574127467
20
119.84796837000005
10
159.6574127467
20
119.84796836999998
42
0.41421356237305862
10
160.65741274670003
20
120.84796837
10
160.65741274670003
20
132.84796836999999
42
0.41421356237307422
10
159.65741274669995
20
133.84796836999999
10
147.6574127467
20
133.84796837000002
42
0.41421356237313145
10
146.65741274669998
20
132.84796837000002
10
146.65741274669995
20
120.84796837
42
0.41421356237311585
0
LWPOLYLINE
5
147
100
AcDbEntity
8
0
100
AcDbPolyline
90
8
70
1
43
0.0
10
57.169912746700007
20
76.697968370000098
10
69.169912746699964
20
76.697968370000012
42
-0.41421356237311585
10
70.169912746700049
20
75.697968369999998
10
70.169912746700035
20
63.697968369999998
42
-0.41421356237311063
10
69.169912746699964
20
62.697968370000012
10
57.169912746700007
20
62.697968370000019
42
-0.41421356237312101
10
56.169912746699993
20
63.697968369999984
10
56.169912746699985
20
75.697968369999998
42
-0.41421356237307683
0
LWPOLYLINE
5
148
100
AcDbEntity
8
0
100
AcDbPolyline
90
8
70
1
43
0.0
10
52.407412746700004
20
143.66046836999999
10
64.407412746700032
20
143.66046837000002
42
0.41421356237308982
10
65.407412746700047
20
144.66046836999999
10
65.407412746700047
20
156.66046836999999
42
0.41421356237308982
10
64.407412746700032
20
157.66046836999999
10
52.407412746700004
20
157.66046837000007
42
0.41421356237310542
10
51.40741274669999
20
156.66046837000002
10
51.40741274669999
20
144.66046836999999
42
0.41421356237313667
0
LWPOLYLINE
5
149
100
AcDbEntity
8
0
100
AcDbPolyline
90
8
70
1
43
0.0
10
71.457412746700015
20
119.82886508100003
42
-0.41421356237311063
10
70.457412746700072
20
120.82886508100003
10
70.457412746699944
20
132.828865081
42
-0.41421356237312623
10
71.457412746700015
20
133.82886508100003
10
83.457412746700044
20
133.82886508099998
42
-0.41421356237310542
10
84.457412746699987
20
132.828865081
10
84.457412746700072
20
120.82886508100005
42
-0.41421356237309503
10
83.457412746700044
20
119.82886508100002
0
LWPOLYLINE
5
150
100
AcDbEntity
8
0
100
AcDbPolyline
90
8
70
1
43
0.0
10
119.08241274669997
20
143.66046836999993
42
-0.41421356237311063
10
118.08241274669996
20
144.66046836999999
10
118.08241274669996
20
156.66046836999999
42
-0.414213562373069
10
119.08241274670004
20
157.66046836999999
10
131.08241274670002
20
157.66046837000002
42
-0.41421356237313145
10
132.08241274670002
20
156.66046837000002
10
132.08241274670004
20
144.66046836999999
42
-0.41421356237313145
10
131.08241274670002
20
143.66046836999996
0
LWPOLYLINE
5
151
100
AcDbEntity
8
0
100
AcDbPolyline
90
8
70
1
43
0.0
10
64.407412746700032
20
119.82886508100002
10
52.407412746700004
20
119.82886508100002
42
-0.41421356237314183
10
51.40741274669999
20
120.82886508100005
10
51.407412746700047
20
132.828865081
42
-0.41421356237310025
10
52.407412746700004
20
133.82886508099998
10
64.407412746700032
20
133.82886508099998
42
-0.41421356237310025
10
65.407412746699976
20
132.828865081
10
65.407412746700061
20
120.82886508100005
42
-0.41421356237309503
0
LWPOLYLINE
5
152
100
AcDbEntity
8
0
100
AcDbPolyline
90
8
70
1
43
0.0
10
76.219912746700018
20
62.697968370000019
42
-0.4142135623730846
10
75.219912746700004
20
63.697968369999998
10
75.219912746700004
20
75.697968369999998
42
-0.41421356237309503
10
76.219912746700018
20
76.697968370000012
10
88.219912746699976
20
76.697968370000012
42
-0.41421356237308204
10
89.219912746700061
20
75.69796836999997
10
89.219912746700075
20
63.697968369999998
42
-0.41421356237310281
10
88.219912746700118
20
62.697968370000012
0
LWPOLYLINE
5
153
100
AcDbEntity
8
0
100
AcDbPolyline
90
8
70
1
43
0.0
10
122.55741274670007
20
120.84796837
42
-0.41421356237311063
10
121.5574127467
20
119.84796837000003
10
109.55741274670004
20
119.84796836999999
42
-0.41421356237307944
10
108.55741274669995
20
120.84796837000002
10
108.55741274669997
20
132.84796836999999
42
-0.41421356237307422
10
109.55741274670004
20
133.84796836999999
10
121.5574127467
20
133.84796836999999
42
-0.4142135623730846
10
122.55741274670001
20
132.84796837000002
0
LINE
5
154
100
AcDbEntity
8
0
100
AcDbLine
10
259.10948835659923
20
62.697345536553343
30
0
11
258.28489022283946
21
62.697345536553343
31
0
0
LWPOLYLINE
5
155
100
AcDbEntity
8
0
100
AcDbPolyline
90
8
70
1
43
0.0
10
198.75741274669991
20
132.84796836999999
10
198.75741274669991
20
120.84796837
42
-0.41421356237309503
10
197.75741274669997
20
119.84796837000005
10
185.75741274669994
20
119.84796836999998
42
-0.41421356237310025
10
184.75741274669991
20
120.84796837
10
184.75741274669991
20
132.84796836999999
42
-0.41421356237309503
10
185.75741274669994
20
133.84796836999999
10
197.75741274669997
20
133.84796836999993
42
-0.41421356237309503
0
LINE
5
156
100
AcDbEntity
8
0
100
AcDbLine
10
28.984473356599381
20
77.703356210536683
30
0
11
28.984473356599381
21
60.203356210536739
31
0
0
LWPOLYLINE
5
157
100
AcDbEntity
8
0
100
AcDbPolyline
90
8
70
1
43
0.0
10
232.38241274670003
20
101.79796837000001
10
232.3824127467
20
113.79796837000001
42
-0.41421356237310542
10
233.38241274669997
20
114.79796837000002
10
245.3824127467
20
114.79796837000015
42
-0.41421356237302737
10
246.38241274670008
20
113.79796837000001
10
246.38241274670008
20
101.79796837000001
42
-0.414213562373069
10
245.3824127467
20
100.79796837000002
10
233.38241274669997
20
100.79796837000002
42
-0.41421356237311063
0
LWPOLYLINE
5
158
100
AcDbEntity
8
0
100
AcDbPolyline
90
34
70
1
43
0.0
10
194.2544712704931
20
59.853516990381635
42
-0.41421356237309503
10
195.87947127049304
20
58.228516990381692
10
195.87947127049304
20
57.628945575301032
10
202.51786342703241
20
57.628945575301032
42
-0.41421446135564749
10
203.51976178991376
20
56.627063145914214
10
203.51978332178032
20
44.629103842849034
42
-0.41422113367574137
10
202.51787806874458
20
43.627205480043152
10
195.87947127049304
20
43.627314108030589
10
195.87947127049307
20
41.288516990381723
42
-0.41421356237309503
10
194.2544712704931
20
39.663516990381737
10
69.960721270493366
20
39.663516990381851
42
-0.41421356237309503
10
68.335721270493281
20
41.288516990381936
10
68.335721270493281
20
58.228516990340005
42
-0.41421356237309986
10
69.960721270493451
20
59.85351699034014
10
79.960721270494446
20
59.853516990339998
42
-0.41421356237309664
10
81.58572127049446
20
58.228516990339976
10
81.58572127049446
20
43.643516990381826
10
115.69926695759877
20
43.627202034858641
10
115.69572970580842
20
56.62706874425286
42
-0.41421597205447619
10
116.69762806870962
20
57.628956341224509
10
140.60536342704785
20
57.628945575301032
42
-0.41421446135058948
10
141.6072617899292
20
56.627063145931551
10
141.60726695759232
20
43.627202034858641
10
168.57947127049306
20
43.636867203898433
10
168.57947127049306
20
58.228516990381642
42
-0.41421356237309503
10
170.20447127049309
20
59.853516990381635
10
175.20447127049309
20
59.853516990381635
42
-0.41421356237309503
10
176.82947127049303
20
58.228516990381692
10
176.82947127049303
20
43.639823493404968
10
187.1367669500145
20
43.643516990381706
10
187.13676092866382
20
56.627068744246607
42
-0.26540225264049372
10
187.62947127049307
20
57.48992854009893
10
187.62947127049307
20
58.228516990381642
42
-0.41421356237309503
10
189.2544712704931
20
59.853516990381635
0
LWPOLYLINE
5
159
100
AcDbEntity
8
0
100
AcDbPolyline
90
8
70
1
43
0.0
10
297.76991274669996
20
143.66046837000005
10
285.76991274670007
20
143.66046836999988
42
-0.414213562373069
10
284.76991274669984
20
144.66046836999999
10
284.76991274670007
20
156.66046836999999
42
-0.41421356237311585
10
285.76991274670007
20
157.66046837000005
10
297.76991274669996
20
157.66046836999999
42
-0.41421356237311063
10
298.7699127466999
20
156.66046836999999
10
298.7699127466999
20
144.66046836999999
42
-0.41421356237310025
0
LWPOLYLINE
5
160
100
AcDbEntity
8
0
100
AcDbPolyline
90
8
70
1
43
0.0
10
297.76991274669996
20
119.84796837000005
10
285.76991274670007
20
119.84796836999993
42
-0.414213562373069
10
284.76991274669984
20
120.84796837000007
10
284.76991274669984
20
132.84796836999999
42
-0.41421356237299095
10
285.76991274670007
20
133.84796837000013
10
297.76991274669996
20
133.84796837000007
42
-0.41421356237297013
10
298.7699127466999
20
132.84796836999999
10
298.7699127466999
20
120.84796837
42
-0.41421356237309503
0
LINE
5
161
100
AcDbEntity
8
0
100
AcDbLine
10
267.75323835659935
20
135.85335621053667
30
0
11
267.75323035659926
21
135.85335621053662
31
0
0
LINE
5
162
100
AcDbEntity
8
0
100
AcDbLine
10
20.159890222839465
20
75.698444847567174
30
0
11
20.159890222839465
21
62.697345536553343
31
0
0
LWPOLYLINE
5
163
100
AcDbEntity
8
0
100
AcDbPolyline
90
8
70
1
43
0.0
10
236.85741274669994
20
156.66046837000002
10
236.85741274670008
20
144.66046836999999
42
-0.41421356237307944
10
235.85741274669999
20
143.66046836999996
10
223.85741274669996
20
143.66046836999993
42
-0.41421356237305862
10
222.85741274670002
20
144.66046837000002
10
222.85741274670011
20
156.66046836999999
42
-0.414213562373069
10
223.85741274669996
20
157.66046837000005
10
235.85741274669999
20
157.66046837000002
42
-0.41421356237311063
0
LWPOLYLINE
5
164
100
AcDbEntity
8
0
100
AcDbPolyline
90
8
70
1
43
0.0
10
203.51991274669987
20
63.697968369999998
42
-0.41421356237310025
10
202.5199127466999
20
62.697968370000012
10
190.51991274670002
20
62.697968369999884
42
-0.41421356237301959
10
189.51991274669993
20
63.697968369999998
10
189.51991274669976
20
75.697968369999998
42
-0.4142135623731783
10
190.51991274670002
20
76.69796836999997
10
202.5199127466999
20
76.697968369999941
42
-0.41421356237313667
10
203.51991274669999
20
75.697968369999998
0
LINE
5
165
100
AcDbEntity
8
0
100
AcDbLine
10
267.10947335655021
20
60.203363210536708
30
0
11
267.10947335659938
21
60.203356210536739
31
0
0
LWPOLYLINE
5
166
100
AcDbEntity
8
0
100
AcDbPolyline
90
8
70
1
43
0.0
10
316.81991274669997
20
57.647968369999987
10
304.81991274670008
20
57.647968370000086
42
0.41421356237311324
10
303.81991274669997
20
56.647968369999937
10
303.81991274669991
20
44.647968370000008
42
0.41421356237307422
10
304.81991274670008
20
43.647968369999901
10
316.81991274669997
20
43.647968370000058
42
0.41421356237309764
10
317.81991274669991
20
44.647968370000008
10
317.81991274669991
20
56.647968370000008
42
0.41421356237301699
0
LINE
5
167
100
AcDbEntity
8
0
100
AcDbLine
10
274.25322335659939
20
134.85335621053667
30
0
11
274.25322335659939
21
117.35335621053676
31
0
0
LWPOLYLINE
5
168
100
AcDbEntity
8
0
100
AcDbPolyline
90
8
70
1
43
0.0
10
231.09491274670006
20
95.747968369999995
10
219.09491274670003
20
95.747968370000237
42
0.41421356237306384
10
218.09491274669995
20
94.747968369999981
10
218.09491274669995
20
82.747968369999981
42
0.41421356237314183
10
219.09491274670003
20
81.747968370000024
10
231.09491274670006
20
81.747968370000024
42
0.41421356237310025
10
232.0949127467
20
82.747968369999981
10
232.0949127467
20
94.747968369999995
42
0.41421356237310542
0
ARC
5
169
100
AcDbEntity
8
0
100
AcDbCircle
10
266.25323835659958
20
134.35335521053656
30
0
40
0.499999999999865
210
0
220
0
230
1
100
AcDbArc
50
-90.00000000003908
51
0
0
LWPOLYLINE
5
170
100
AcDbEntity
8
0
100
AcDbPolyline
90
8
70
1
43
0.0
10
170.18241274670004
20
156.66046836999996
10
170.18241274670007
20
144.66046836999999
42
-0.414213562373069
10
169.18241274670009
20
143.6604683700001
10
157.18241274669998
20
143.66046836999996
42
-0.41421356237310025
10
156.18241274669998
20
144.66046836999999
10
156.18241274669995
20
156.66046836999999
42
-0.41421356237310025
10
157.18241274669998
20
157.66046837000005
10
169.18241274669995
20
157.66046837000005
42
-0.41421356237301177
0
LWPOLYLINE
5
171
100
AcDbEntity
8
0
100
AcDbPolyline
90
8
70
1
43
0.0
10
117.79491274669995
20
82.747968369999981
42
-0.41421356237309503
10
116.79491274669999
20
81.747968370000024
10
104.79491274669996
20
81.747968369999967
42
-0.41421356237303258
10
103.79491274670002
20
82.747968369999981
10
103.79491274670002
20
94.747968369999995
42
-0.41421356237304302
10
104.79491274669996
20
95.747968370000052
10
116.79491274669999
20
95.747968370000066
42
-0.41421356237311063
10
117.79491274670001
20
94.747968369999995
0
LINE
5
172
100
AcDbEntity
8
0
100
AcDbLine
10
-1.515529643400626
20
78.703354210536617
30
0
11
3.9844703565993456
21
78.703354210536617
31
0
0
ARC
5
173
100
AcDbEntity
8
0
100
AcDbCircle
10
-1.5155226434006153
20
77.703354210536617
30
0
40
0.99999999999999645
210
0
220
-0
230
1
100
AcDbArc
50
90
51
180
0
LINE
5
174
100
AcDbEntity
8
0
100
AcDbLine
10
-2.5155226434005584
20
60.203354210536787
30
0
11
-2.5155226434005584
21
77.70335621053664
31
0
0
LWPOLYLINE
5
175
100
AcDbEntity
8
0
100
AcDbPolyline
90
8
70
1
43
0.0
10
176.23241274669999
20
157.66046837000005
10
188.23241274669996
20
157.66046837000005
42
-0.4142135623730846
10
189.23241274670005
20
156.66046836999999
10
189.23241274669999
20
144.66046836999999
42
-0.4142135623730534
10
188.23241274669996
20
143.66046836999996
10
176.23241274669999
20
143.66046836999996
42
-0.41421356237310025
10
175.23241274669999
20
144.66046836999999
10
175.23241274669999
20
156.66046836999999
42
-0.41421356237310025
0
LWPOLYLINE
5
176
100
AcDbEntity
8
0
100
AcDbPolyline
90
8
70
1
43
0.0
10
122.84491274670003
20
82.747968369999981
10
122.84491274670003
20
94.747968369999995
42
-0.41421356237311063
10
123.84491274669998
20
95.747968369999995
10
135.8449127467
20
95.747968369999924
42
-0.41421356237313145
10
136.84491274669995
20
94.747968369999995
10
136.8449127467
20
82.747968369999981
42
-0.4142135623730846
10
135.8449127467
20
81.747968370000024
10
123.84491274669998
20
81.747968370000024
42
-0.41421356237305862
0
LINE
5
177
100
AcDbEntity
8
0
100
AcDbLine
10
4.9844893565992976
20
77.703356210536725
30
0
11
4.9844893565992976
21
77.703354210536617
31
0
0
LWPOLYLINE
5
178
100
AcDbEntity
8
0
100
AcDbPolyline
90
8
70
1
43
0.0
10
127.31991274670008
20
63.697968369999998
10
127.31991274670006
20
75.697968369999998
42
0.41421356237307944
10
126.3199127467
20
76.697968369999998
10
114.31991274669997
20
76.697968370000012
42
0.41421356237311585
10
113.31991274670003
20
75.697968369999998
10
113.3199127467
20
63.697968369999998
42
0.41421356237313667
10
114.31991274669997
20
62.697968370000019
10
126.3199127467
20
62.69796836999997
42
0.41421356237307944
0
ARC
5
179
100
AcDbEntity
8
0
100
AcDbCircle
10
3.9844893565993544
20
77.703354210536617
30
0
40
0.99999999999994316
210
0
220
-0
230
1
100
AcDbArc
50
0
51
90
0
LINE
5
180
100
AcDbEntity
8
0
100
AcDbLine
10
-1.5155226434006153
20
59.203356210536725
30
0
11
-1.515529643400626
21
59.203356210536739
31
0
0
LWPOLYLINE
5
181
100
AcDbEntity
8
0
100
AcDbPolyline
90
8
70
1
43
0.0
10
192.99491274670004
20
81.747968370000024
10
180.99491274670001
20
81.747968369999953
42
-0.41421356237310025
10
179.99491274669998
20
82.747968369999981
10
179.99491274669992
20
94.747968369999995
42
-0.414213562373069
10
180.99491274670001
20
95.747968370000152
10
192.99491274670004
20
95.747968369999938
42
-0.41421356237309503
10
193.99491274669998
20
94.747968369999995
10
193.99491274669998
20
82.747968369999981
42
-0.41421356237309503
0
LINE
5
182
100
AcDbEntity
8
0
100
AcDbLine
10
-2.5155226434005584
20
77.703354210536617
30
0
11
-2.5155226434005584
21
77.70335621053664
31
0
0
LINE
5
183
100
AcDbEntity
8
0
100
AcDbLine
10
4.9844893565992976
20
77.203355210536685
30
0
11
4.9844893565992976
21
77.203354210536645
31
0
0
LINE
5
184
100
AcDbEntity
8
0
100
AcDbLine
10
-2.5155226434005584
20
60.203354210536787
30
0
11
-2.5155226434005584
21
60.203356210536739
31
0
0
SPLINE
5
185
100
AcDbEntity
8
0
100
AcDbSpline
70
4
71
3
72
8
73
4
74
0
42
0.000000001
43
0.0000000001
44
0.0000000001
40
0
40
0
40
0
40
0
40
1
40
1
40
1
40
1
41
1
41
1
41
1
41
1
10
7.1587909118255766
20
76.700429163531325
30
0
10
6.604871448201024
20
76.700429648044022
30
0
10
6.1603310488874286
20
76.252359035386831
30
0
10
6.1603310488874286
20
75.701974145720143
30
0
0
LINE
5
186
100
AcDbEntity
8
0
100
AcDbLine
10
6.1603347096500016
20
62.697345536553343
30
0
11
6.1603310488874286
21
75.701974145720143
31
0
0
ARC
5
187
100
AcDbEntity
8
0
100
AcDbCircle
10
5.4844893565991271
20
77.203355210536557
30
0
40
0.49999999999982947
210
0
220
0
230
1
100
AcDbArc
50
180
51
270.00000000003257
0
LINE
5
188
100
AcDbEntity
8
0
100
AcDbLine
10
-1.515529643400626
20
78.703354210536617
30
0
11
-1.5155226434006153
21
78.703354210536617
31
0
0
LWPOLYLINE
5
189
100
AcDbEntity
8
0
100
AcDbPolyline
90
8
70
1
43
0.0
10
28.59491274669999
20
81.747968369999953
42
-0.41421356237310025
10
27.594912746699976
20
82.747968369999981
10
27.594912746699993
20
94.747968369999995
42
-0.41421356237310542
10
28.59491274669999
20
95.747968370000024
10
40.594912746700018
20
95.747968369999953
42
-0.41421356237312101
10
41.594912746700032
20
94.747968369999995
10
41.594912746699997
20
82.747968369999981
42
-0.41421356237308982
10
40.594912746700018
20
81.747968370000024
0
LWPOLYLINE
5
190
100
AcDbEntity
8
0
100
AcDbPolyline
90
8
70
1
43
0.0
10
322.86991274670004
20
56.647968370000008
10
322.86991274669992
20
44.647968370000008
42
0.41421356237307422
10
323.86991274670009
20
43.647968369999901
10
335.86991274669998
20
43.647968370000065
42
0.41421356237309764
10
336.86991274669992
20
44.647968370000015
10
336.86991274669992
20
56.647968370000008
42
0.41421356237301699
10
335.86991274669998
20
57.647968369999987
10
323.86991274670009
20
57.647968370000157
42
0.41421356237311324
0
LWPOLYLINE
5
191
100
AcDbEntity
8
0
100
AcDbPolyline
90
8
70
1
43
0.0
10
284.76991274670002
20
44.647968370000008
10
284.76991274670002
20
56.647968370000008
42
-0.41421356237316526
10
285.76991274670007
20
57.647968370000022
10
297.76991274669996
20
57.647968370000022
42
-0.41421356237310281
10
298.7699127466999
20
56.647968370000051
10
298.76991274670002
20
44.647968370000008
42
-0.41421356237306123
10
297.76991274669996
20
43.647968370000036
10
285.76991274670007
20
43.647968370000001
42
-0.41421356237315488
0
LINE
5
192
100
AcDbEntity
8
0
100
AcDbLine
10
263.72393337261542
20
81.745823099349892
30
0
11
263.72393337261542
21
95.75183277333312
31
0
0
LINE
5
193
100
AcDbEntity
8
0
100
AcDbLine
10
265.42864022283948
20
132.84844484756718
30
0
11
265.42864022283948
21
119.84734553655336
31
0
0
LWPOLYLINE
5
194
100
AcDbEntity
8
0
100
AcDbPolyline
90
8
70
1
43
0.0
10
71.457412746700015
20
157.6604683700001
10
83.457412746700044
20
157.66046837000007
42
-0.41421356237308982
10
84.457412746700129
20
156.66046836999999
10
84.457412746700129
20
144.66046836999999
42
-0.41421356237315748
10
83.457412746700044
20
143.66046836999999
10
71.457412746700015
20
143.66046836999999
42
-0.41421356237307422
10
70.457412746700072
20
144.66046836999999
10
70.457412746699944
20
156.66046836999999
42
-0.414213562373069
0
LWPOLYLINE
5
195
100
AcDbEntity
8
0
100
AcDbPolyline
90
8
70
1
43
0.0
10
32.357412746699943
20
132.828865081
42
-0.41421356237310025
10
33.357412746699993
20
133.82886508100006
10
45.357412746700021
20
133.82886508100003
42
-0.41421356237309503
10
46.357412746700035
20
132.828865081
10
46.357412746700049
20
120.82886508100005
42
-0.41421356237313667
10
45.357412746700021
20
119.82886508100002
10
33.357412746699993
20
119.82886508099992
42
-0.414213562373069
10
32.357412746700049
20
120.82886508100005
0
LWPOLYLINE
5
196
100
AcDbEntity
8
0
100
AcDbPolyline
90
8
70
1
43
0.0
10
216.80741274669998
20
133.84796836999999
10
204.80741274669995
20
133.84796837000005
42
0.41421356237307422
10
203.80741274670001
20
132.8479683699999
10
203.80741274669987
20
120.84796837
42
0.41421356237314183
10
204.80741274669995
20
119.84796837000005
10
216.80741274669998
20
119.84796837000005
42
0.41421356237310025
10
217.80741274669992
20
120.84796837
10
217.80741274669995
20
132.84796836999999
42
0.41421356237310025
0
LWPOLYLINE
5
197
100
AcDbEntity
8
0
100
AcDbPolyline
90
8
70
1
43
0.0
10
223.85741274669996
20
133.84796837000005
10
235.85741274669999
20
133.84796837000013
42
-0.41421356237310542
10
236.85741274670008
20
132.84796836999999
10
236.85741274670008
20
120.84796837
42
-0.41421356237307944
10
235.85741274669999
20
119.84796836999998
10
223.85741274669996
20
119.84796837000005
42
-0.41421356237310025
10
222.85741274670002
20
120.84796837
10
222.85741274670011
20
132.84796836999999
42
-0.41421356237305862
0
LWPOLYLINE
5
198
100
AcDbEntity
8
0
100
AcDbPolyline
90
8
70
1
43
0.0
10
303.81991274669986
20
63.697968369999998
10
303.81991274669997
20
75.697968369999998
42
-0.41421356237307683
10
304.81991274670008
20
76.697968370000041
10
316.81991274669997
20
76.697968369999913
42
-0.414213562373004
10
317.81991274669991
20
75.697968369999998
10
317.81991274669986
20
63.697968369999998
42
-0.41421356237305079
10
316.81991274669997
20
62.697968369999984
10
304.81991274670008
20
62.697968369999828
42
-0.41421356237307944
0
LWPOLYLINE
5
199
100
AcDbEntity
8
0
100
AcDbPolyline
90
8
70
1
43
0.0
10
45.357412746700021
20
157.66046836999999
10
33.357412746699993
20
157.66046837000016
42
0.41421356237307422
10
32.357412746699907
20
156.66046836999999
10
32.357412746699922
20
144.66046836999999
42
0.41421356237308982
10
33.357412746700064
20
143.66046836999988
10
45.357412746700021
20
143.66046836999996
42
0.41421356237310025
10
46.357412746700035
20
144.66046836999999
10
46.357412746700035
20
156.66046836999999
42
0.41421356237313145
0
LINE
5
200
100
AcDbEntity
8
0
100
AcDbLine
10
264.22391637261541
20
80.745822099349866
30
0
11
264.22391637261541
21
81.245824099349932
31
0
0
LINE
5
201
100
AcDbEntity
8
0
100
AcDbLine
10
28.984473356599381
20
77.703356210536683
30
0
11
28.984473356599381
21
77.70335621053664
31
0
0
LINE
5
202
100
AcDbEntity
8
0
100
AcDbLine
10
250.25323935659927
20
134.35335521053671
30
0
11
250.25323935659927
21
134.35335421053665
31
0
0
ARC
5
203
100
AcDbEntity
8
0
100
AcDbCircle
10
20.984488356599513
20
77.203355210536557
30
0
40
0.49999999999988276
210
0
220
0
230
1
100
AcDbArc
50
-90.000000000032571
51
0
0
LWPOLYLINE
5
204
100
AcDbEntity
8
0
100
AcDbPolyline
90
8
70
1
43
0.0
10
203.80741274670001
20
156.6604683699999
10
203.80741274670009
20
144.66046836999999
42
0.41421356237312101
10
204.80741274669995
20
143.66046837000005
10
216.80741274669998
20
143.66046836999996
42
0.41421356237311063
10
217.80741274669992
20
144.66046836999996
10
217.80741274670004
20
156.66046836999999
42
0.41421356237307944
10
216.80741274669998
20
157.66046836999999
10
204.80741274669995
20
157.66046836999999
42
0.4142135623730534
0
LINE
5
205
100
AcDbEntity
8
0
100
AcDbLine
10
274.25322335659939
20
134.85335621053667
30
0
11
274.25322335659939
21
134.85335621053665
31
0
0
ARC
5
206
100
AcDbEntity
8
0
100
AcDbCircle
10
270.72392837261532
20
98.245822099349766
30
0
40
0.99999999999994316
210
-0
220
0
230
1
100
AcDbArc
50
0
51
90
0
LINE
5
207
100
AcDbEntity
8
0
100
AcDbLine
10
21.484488356599343
20
77.703356210536626
30
0
11
21.484488356599343
21
77.70335621053664
31
0
0
ARC
5
208
100
AcDbEntity
8
0
100
AcDbCircle
10
259.10948835659951
20
77.203355210536557
30
0
40
0.49999999999988276
210
0
220
0
230
1
100
AcDbArc
50
-90.000000000032571
51
0
0
LINE
5
209
100
AcDbEntity
8
0
100
AcDbLine
10
243.75322035659934
20
135.85335421053662
30
0
11
243.7532273565995
21
135.85335421053662
31
0
0
LINE
5
210
100
AcDbEntity
8
0
100
AcDbLine
10
264.22391637261541
20
80.745822099349866
30
0
11
264.22391637261541
21
80.74582409934996
31
0
0
ARC
5
211
100
AcDbEntity
8
0
100
AcDbCircle
10
243.7532273565995
20
134.85335421053662
30
0
40
1.0000000000000142
210
0
220
-0
230
1
100
AcDbArc
50
90
51
180
0
ARC
5
212
100
AcDbEntity
8
0
100
AcDbCircle
10
263.72391637261558
20
81.245823099350019
30
0
40
0.49999999999982947
210
-0
220
0
230
1
100
AcDbArc
50
0
51
90.000000000032571
0
ARC
5
213
100
AcDbEntity
8
0
100
AcDbCircle
10
265.22391637261535
20
80.74582409934996
30
0
40
0.99999999999994316
210
0
220
0
230
1
100
AcDbArc
50
180
51
270
0
LWPOLYLINE
5
214
100
AcDbEntity
8
0
100
AcDbPolyline
90
8
70
1
43
0.0
10
78.69491274669997
20
81.747968369999995
42
0.414213562373069
10
79.694912746700055
20
82.747968369999981
10
79.694912746700041
20
94.747968369999995
42
0.41421356237315748
10
78.69491274669997
20
95.747968369999995
10
66.694912746700012
20
95.747968370000052
42
0.41421356237310542
10
65.694912746699998
20
94.747968369999995
10
65.694912746699941
20
82.747968369999981
42
0.41421356237310542
10
66.694912746700012
20
81.747968370000024
0
SPLINE
5
215
100
AcDbEntity
8
0
100
AcDbSpline
70
4
71
3
72
8
73
4
74
0
42
0.000000001
43
0.0000000001
44
0.0000000001
40
0
40
0
40
0
40
0
40
1
40
1
40
1
40
1
41
1
41
1
41
1
41
1
10
258.28489022283946
20
75.698444847567174
30
0
10
258.28488936148347
20
76.252359035386831
30
0
10
257.83682278643198
20
76.696902126437578
30
0
10
257.28643789676539
20
76.696902126437578
30
0
0
LINE
5
216
100
AcDbEntity
8
0
100
AcDbLine
10
270.7239353726153
20
79.745824099349946
30
0
11
270.72392837261532
21
79.745824099349946
31
0
0
LINE
5
217
100
AcDbEntity
8
0
100
AcDbLine
10
271.72392837261526
20
80.74582409934996
30
0
11
271.72392837261526
21
80.745822099349937
31
0
0
CIRCLE
5
218
100
AcDbEntity
8
0
100
AcDbCircle
10
233.86991274696072
20
35.575728978841838
30
0
40
3.0000000000000595
210
0
220
0
230
1
0
LWPOLYLINE
5
219
100
AcDbEntity
8
0
100
AcDbPolyline
90
8
70
1
43
0.0
10
336.86991274670004
20
120.84796837
42
-0.41421356237314705
10
335.86991274669998
20
119.84796837000005
10
323.86991274670009
20
119.84796836999988
42
-0.414213562373069
10
322.86991274669987
20
120.84796837
10
322.86991274670004
20
132.84796836999999
42
-0.41421356237307422
10
323.86991274670009
20
133.84796837000005
10
335.86991274669998
20
133.84796836999996
42
-0.41421356237310025
10
336.86991274669992
20
132.84796836999999
0
LWPOLYLINE
5
220
100
AcDbEntity
8
0
100
AcDbPolyline
90
8
70
1
43
0.0
10
303.81991274669997
20
120.84796837
10
303.81991274669997
20
132.84796836999999
42
-0.41421356237307422
10
304.81991274670008
20
133.84796837000005
10
316.81991274669997
20
133.84796837000013
42
-0.41421356237314705
10
317.8199127467002
20
132.84796836999999
10
317.8199127467002
20
120.84796837
42
-0.41421356237318868
10
316.81991274669997
20
119.84796837000002
10
304.81991274670008
20
119.84796836999988
42
-0.41421356237311063
0
ARC
5
221
100
AcDbEntity
8
0
100
AcDbCircle
10
22.484488356599286
20
77.70335621053664
30
0
40
1.0000000000000142
210
0
220
-0
230
1
100
AcDbArc
50
90
51
180
0
LINE
5
222
100
AcDbEntity
8
0
100
AcDbLine
10
236.60947735659931
20
59.203356210536725
30
0
11
236.6094703565993
21
59.203356210536739
31
0
0
LWPOLYLINE
5
223
100
AcDbEntity
8
0
100
AcDbPolyline
90
8
70
1
43
0.0
10
37.119912746699988
20
75.697968369999998
42
-0.41421356237310281
10
38.119912746699995
20
76.697968370000041
10
50.119912746700024
20
76.697968370000027
42
-0.41421356237309764
10
51.119912746700038
20
75.697968369999998
10
51.119912746700116
20
63.697968369999998
42
-0.41421356237312623
10
50.119912746700024
20
62.697968369999941
10
38.119912746699995
20
62.697968369999913
42
-0.41421356237311585
10
37.119912746699981
20
63.697968369999998
0
LWPOLYLINE
5
224
100
AcDbEntity
8
0
100
AcDbPolyline
90
8
70
1
43
0.0
10
335.86991274669998
20
143.66046837000005
42
0.41421356237301177
10
336.86991274669992
20
144.66046836999999
10
336.86991274669992
20
156.66046836999999
42
0.4142135623730222
10
335.86991274669998
20
157.66046836999999
10
323.86991274669992
20
157.6604683700001
42
0.41421356237306384
10
322.86991274670004
20
156.66046836999999
10
322.86991274670004
20
144.66046836999999
42
0.41421356237307944
10
323.86991274670009
20
143.66046836999996
0
LINE
5
225
100
AcDbEntity
8
0
100
AcDbLine
10
270.7239353726153
20
79.745824099349946
30
0
11
265.22393537261536
21
79.74582409934996
31
0
0
LWPOLYLINE
5
226
100
AcDbEntity
8
0
100
AcDbPolyline
90
8
70
1
43
0.0
10
273.96125033940007
20
157.6604683700001
42
-0.41421356237306384
10
274.96125033940007
20
156.66046836999999
10
274.96125033940001
20
144.66046836999999
42
-0.41421356237316787
10
273.96125033939995
20
143.66046836999999
10
261.96125033940007
20
143.66046836999999
42
-0.41421356237308982
10
260.96125033940012
20
144.6604683699999
10
260.96125033940007
20
156.66046836999999
42
-0.41421356237311585
10
261.96125033940007
20
157.66046837000005
0
LINE
5
227
100
AcDbEntity
8
0
100
AcDbLine
10
259.60948835659934
20
77.203354210536631
30
0
11
259.60948835659934
21
77.703356210536626
31
0
0
ARC
5
228
100
AcDbEntity
8
0
100
AcDbCircle
10
236.60947735659931
20
60.203356210536739
30
0
40
0.99999999999994316
210
0
220
0
230
1
100
AcDbArc
50
180
51
270
0
LWPOLYLINE
5
229
100
AcDbEntity
8
0
100
AcDbPolyline
90
8
70
1
43
0.0
10
200.04491274670002
20
81.747968369999995
42
-0.41421356237311063
10
199.04491274670008
20
82.747968369999981
10
199.04491274669994
20
94.747968369999995
42
-0.41421356237315748
10
200.04491274670002
20
95.747968370000024
10
212.04491274670005
20
95.747968369999938
42
-0.41421356237301177
10
213.04491274669999
20
94.747968369999995
10
213.04491274670005
20
82.747968369999981
42
-0.41421356237307422
10
212.04491274670005
20
81.747968370000024
0
LINE
5
230
100
AcDbEntity
8
0
100
AcDbLine
10
271.72392837261526
20
98.245824099349647
30
0
11
271.72392837261526
21
98.245822099349766
31
0
0
LINE
5
231
100
AcDbEntity
8
0
100
AcDbLine
10
235.60947735659937
20
60.203354210536787
30
0
11
235.60947735659937
21
60.203356210536739
31
0
0
ARC
5
232
100
AcDbEntity
8
0
100
AcDbCircle
10
260.60948835659929
20
77.70335621053664
30
0
40
1.0000000000000142
210
0
220
-0
230
1
100
AcDbArc
50
90
51
180
0
LINE
5
233
100
AcDbEntity
8
0
100
AcDbLine
10
271.72392837261526
20
98.245824099349647
30
0
11
271.72392837261526
21
80.745822099349937
31
0
0
LINE
5
234
100
AcDbEntity
8
0
100
AcDbLine
10
266.10947335659915
20
78.703356210536668
30
0
11
266.10948035659931
21
78.703356210536626
31
0
0
LINE
5
235
100
AcDbEntity
8
0
100
AcDbLine
10
22.484488356599286
20
78.703356210536668
30
0
11
22.484480356599192
21
78.703356210536626
31
0
0
ARC
5
236
100
AcDbEntity
8
0
100
AcDbCircle
10
270.72392837261532
20
80.745824099349932
30
0
40
0.99999999999998757
210
0
220
0
230
1
100
AcDbArc
50
-90
51
0
0
LINE
5
237
100
AcDbEntity
8
0
100
AcDbLine
10
260.60948835659929
20
78.703356210536668
30
0
11
260.60948035659919
21
78.703356210536626
31
0
0
LINE
5
238
100
AcDbEntity
8
0
100
AcDbLine
10
21.484488356599343
20
77.203355210536671
30
0
11
21.484488356599343
21
77.203354210536631
31
0
0
LINE
5
239
100
AcDbEntity
8
0
100
AcDbLine
10
259.60948835659934
20
77.703356210536626
30
0
11
259.60948835659934
21
77.70335621053664
31
0
0
SPLINE
5
240
100
AcDbEntity
8
0
100
AcDbSpline
70
4
71
3
72
8
73
4
74
0
42
0.000000001
43
0.0000000001
44
0.0000000001
40
0
40
0
40
0
40
0
40
1
40
1
40
1
40
1
41
1
41
1
41
1
41
1
10
20.159890222839465
20
75.698444847567174
30
0
10
20.159889361483536
20
76.252359035386831
30
0
10
19.711822786432123
20
76.696902126437578
30
0
10
19.161437896765463
20
76.696902126437578
30
0
0
LINE
5
241
100
AcDbEntity
8
0
100
AcDbLine
10
265.22391637261535
20
79.745824099349946
30
0
11
265.22393537261536
21
79.74582409934996
31
0
0
LINE
5
242
100
AcDbEntity
8
0
100
AcDbLine
10
21.484488356599343
20
77.203354210536631
30
0
11
21.484488356599343
21
77.703356210536626
31
0
0
LWPOLYLINE
5
243
100
AcDbEntity
8
0
100
AcDbPolyline
90
8
70
1
43
0.0
10
316.81991274669997
20
157.66046837000007
42
-0.41421356237297013
10
317.81991274669991
20
156.66046836999999
10
317.81991274669991
20
144.66046836999999
42
-0.41421356237301177
10
316.81991274669997
20
143.66046837000005
10
304.81991274670008
20
143.66046836999985
42
-0.41421356237311063
10
303.81991274669997
20
144.66046836999999
10
303.81991274669991
20
156.66046836999999
42
-0.41421356237307944
10
304.81991274670008
20
157.6604683700001
0
ARC
5
244
100
AcDbEntity
8
0
100
AcDbCircle
10
27.984473356599295
20
77.70335621053664
30
0
40
1.0000000000000853
210
0
220
0
230
1
100
AcDbArc
50
0
51
90
0
LINE
5
245
100
AcDbEntity
8
0
100
AcDbLine
10
243.10948935659923
20
77.703356210536725
30
0
11
243.10948935659923
21
77.203354210536645
31
0
0
LINE
5
246
100
AcDbEntity
8
0
100
AcDbLine
10
27.984473356599295
20
78.703356210536668
30
0
11
27.984480356599306
21
78.703356210536626
31
0
0
LINE
5
247
100
AcDbEntity
8
0
100
AcDbLine
10
260.60948035659919
20
78.703356210536626
30
0
11
266.10948035659931
21
78.703356210536626
31
0
0
LINE
5
248
100
AcDbEntity
8
0
100
AcDbLine
10
240.22393237261539
20
80.74582209934988
30
0
11
240.22393237261539
21
98.245822099349724
31
0
0
LINE
5
249
100
AcDbEntity
8
0
100
AcDbLine
10
267.10947335659938
20
77.703356210536683
30
0
11
267.10947335659938
21
77.70335621053664
31
0
0
ARC
5
250
100
AcDbEntity
8
0
100
AcDbCircle
10
266.10947335659915
20
77.70335621053664
30
0
40
1.0000000000002274
210
0
220
0
230
1
100
AcDbArc
50
0
51
90
0
LINE
5
251
100
AcDbEntity
8
0
100
AcDbLine
10
236.6094703565993
20
78.703354210536617
30
0
11
236.60947735659931
21
78.703354210536617
31
0
0
LINE
5
252
100
AcDbEntity
8
0
100
AcDbLine
10
242.10948935659928
20
78.703354210536645
30
0
11
242.10947035659927
21
78.703354210536617
31
0
0
LINE
5
253
100
AcDbEntity
8
0
100
AcDbLine
10
246.72392537261558
20
79.745822099349951
30
0
11
241.22392537261547
21
79.745822099349951
31
0
0
ARC
5
254
100
AcDbEntity
8
0
100
AcDbCircle
10
248.22391737261526
20
81.245823099350019
30
0
40
0.49999999999988276
210
0
220
-0
230
1
100
AcDbArc
50
89.999999999967429
51
180
0
LINE
5
255
100
AcDbEntity
8
0
100
AcDbLine
10
240.22393237266456
20
98.245815099349741
30
0
11
240.22393237261539
21
98.245822099349724
31
0
0
LINE
5
256
100
AcDbEntity
8
0
100
AcDbLine
10
22.484480356599192
20
78.703356210536626
30
0
11
27.984480356599306
21
78.703356210536626
31
0
0
LINE
5
257
100
AcDbEntity
8
0
100
AcDbLine
10
247.72391737261543
20
81.24582309934992
30
0
11
247.72391737261543
21
81.245824099349946
31
0
0
LINE
5
258
100
AcDbEntity
8
0
100
AcDbLine
10
241.22393237261562
20
79.745822099349908
30
0
11
241.22392537261547
21
79.745822099349951
31
0
0
LINE
5
259
100
AcDbEntity
8
0
100
AcDbLine
10
248.22391737261555
20
95.75183277333312
30
0
11
249.04851550637531
21
95.75183277333312
31
0
0
CIRCLE
5
260
100
AcDbEntity
8
0
100
AcDbCircle
10
339.87045093164681
20
165.72382605048205
30
0
40
2.9999999999999547
210
0
220
0
230
1
0
LINE
5
261
100
AcDbEntity
8
0
100
AcDbLine
10
243.10948935659923
20
77.703356210536725
30
0
11
243.10948935659923
21
77.703354210536617
31
0
0
ARC
5
262
100
AcDbEntity
8
0
100
AcDbCircle
10
246.72391737261549
20
80.745822099349908
30
0
40
1.0000000000000053
210
0
220
0
230
1
100
AcDbArc
50
-90
51
0
0
ARC
5
263
100
AcDbEntity
8
0
100
AcDbCircle
10
242.10948935659928
20
77.703354210536617
30
0
40
0.99999999999994316
210
0
220
-0
230
1
100
AcDbArc
50
0
51
90
0
LINE
5
264
100
AcDbEntity
8
0
100
AcDbLine
10
235.60947735659937
20
77.703354210536617
30
0
11
235.60947735659937
21
77.70335621053664
31
0
0
LINE
5
265
100
AcDbEntity
8
0
100
AcDbLine
10
240.22393237261539
20
80.74582209934988
30
0
11
240.22393237261539
21
80.745822099350136
31
0
0
LINE
5
266
100
AcDbEntity
8
0
100
AcDbLine
10
246.72391737261549
20
79.745822099349908
30
0
11
246.72392537261558
21
79.745822099349951
31
0
0
LINE
5
267
100
AcDbEntity
8
0
100
AcDbLine
10
247.72391737261543
20
80.745822099349951
30
0
11
247.72391737261543
21
80.745822099349937
31
0
0
ARC
5
268
100
AcDbEntity
8
0
100
AcDbCircle
10
241.22393237264006
20
98.245822099349724
30
0
40
1.0000000000000142
210
0
220
-0
230
1
100
AcDbArc
50
90
51
180.00040107010969
0
LINE
5
269
100
AcDbEntity
8
0
100
AcDbLine
10
243.10948935659923
20
77.203355210536685
30
0
11
243.10948935659923
21
77.203354210536645
31
0
0
LINE
5
270
100
AcDbEntity
8
0
100
AcDbLine
10
248.22391737261555
20
81.745823099349906
30
0
11
248.22391737261555
21
95.75183277333312
31
0
0
ARC
5
271
100
AcDbEntity
8
0
100
AcDbCircle
10
236.60947735659931
20
77.703354210536617
30
0
40
0.99999999999999645
210
0
220
-0
230
1
100
AcDbArc
50
90
51
180
0
LINE
5
272
100
AcDbEntity
8
0
100
AcDbLine
10
236.6094703565993
20
78.703354210536617
30
0
11
242.10947035659927
21
78.703354210536617
31
0
0
ARC
5
273
100
AcDbEntity
8
0
100
AcDbCircle
10
241.22393237261562
20
80.745822099350136
30
0
40
1.0000000000002274
210
0
220
0
230
1
100
AcDbArc
50
180
51
270
0
SPLINE
5
274
100
AcDbEntity
8
0
100
AcDbSpline
70
4
71
3
72
8
73
4
74
0
42
0.000000001
43
0.0000000001
44
0.0000000001
40
0
40
0
40
0
40
0
40
1
40
1
40
1
40
1
41
1
41
1
41
1
41
1
10
249.04851550637531
20
82.750733462319374
30
0
10
249.04851636773131
20
82.196819274499717
30
0
10
249.49658294278279
20
81.752276183448998
30
0
10
250.04696783244938
20
81.752276183448998
30
0
0
LINE
5
275
100
AcDbEntity
8
0
100
AcDbLine
10
249.04851550637531
20
82.750733462319374
30
0
11
249.04851550637531
21
95.75183277333312
31
0
0
ARC
5
276
100
AcDbEntity
8
0
100
AcDbCircle
10
243.60948935659906
20
77.203355210536557
30
0
40
0.49999999999982947
210
0
220
0
230
1
100
AcDbArc
50
180
51
270.00000000003257
0
LINE
5
277
100
AcDbEntity
8
0
100
AcDbLine
10
247.72391737261543
20
81.245824099349946
30
0
11
247.72391737261543
21
80.745822099349951
31
0
0
ARC
5
278
100
AcDbEntity
8
0
100
AcDbCircle
10
250.7532393565991
20
134.35335521053656
30
0
40
0.49999999999982947
210
0
220
0
230
1
100
AcDbArc
50
180
51
270.00000000003257
0
LINE
5
279
100
AcDbEntity
8
0
100
AcDbLine
10
266.25323835659924
20
133.85335521053668
30
0
11
266.25323835659924
21
119.84734553655336
31
0
0
LINE
5
280
100
AcDbEntity
8
0
100
AcDbLine
10
267.75323035659926
20
135.85335621053662
30
0
11
273.25323035659937
21
135.85335621053662
31
0
0
ARC
5
281
100
AcDbEntity
8
0
100
AcDbCircle
10
27.984473356574711
20
60.203356210536739
30
0
40
1.0000000000000142
210
0
220
0
230
1
100
AcDbArc
50
-90
51
0.00040107010969264067
0
LINE
5
282
100
AcDbEntity
8
0
100
AcDbLine
10
266.75323835659935
20
134.35335421053665
30
0
11
266.75323835659935
21
134.85335621053665
31
0
0
ARC
5
283
100
AcDbEntity
8
0
100
AcDbCircle
10
249.25323935659932
20
134.85335421053668
30
0
40
0.99999999999994316
210
0
220
-0
230
1
100
AcDbArc
50
0
51
90
0
LINE
5
284
100
AcDbEntity
8
0
100
AcDbLine
10
20.984488356599229
20
62.697345536553343
30
0
11
20.159890222839465
21
62.697345536553343
31
0
0
ARC
5
285
100
AcDbEntity
8
0
100
AcDbCircle
10
266.10947335657471
20
60.203356210536739
30
0
40
1.0000000000000142
210
0
220
0
230
1
100
AcDbArc
50
-90
51
0.00040107010969264067
0
ARC
5
286
100
AcDbEntity
8
0
100
AcDbCircle
10
273.25322335659916
20
134.85335621053665
30
0
40
1.0000000000002274
210
0
220
0
230
1
100
AcDbArc
50
0
51
90
0
CIRCLE
5
287
100
AcDbEntity
8
0
100
AcDbCircle
10
339.86991274670004
20
35.57596841823846
30
0
40
2.9999999999999578
210
0
220
0
230
1
0
LINE
5
288
100
AcDbEntity
8
0
100
AcDbLine
10
249.25323935659932
20
135.85335421053662
30
0
11
249.25322035659931
21
135.85335421053662
31
0
0
LINE
5
289
100
AcDbEntity
8
0
100
AcDbLine
10
266.75323835659935
20
134.85335621053665
30
0
11
266.75323835659924
21
134.85335621053665
31
0
0
LINE
5
290
100
AcDbEntity
8
0
100
AcDbLine
10
242.75322735659941
20
134.85335421053662
30
0
11
242.75322735659941
21
134.85335621053665
31
0
0
CIRCLE
5
291
100
AcDbEntity
8
0
100
AcDbCircle
10
233.87045093164687
20
165.72382605048205
30
0
40
2.9999999999999716
210
0
220
0
230
1
0
LINE
5
292
100
AcDbEntity
8
0
100
AcDbLine
10
28.984473356550211
20
60.203363210536708
30
0
11
28.984473356599381
21
60.203356210536739
31
0
0
ARC
5
293
100
AcDbEntity
8
0
100
AcDbCircle
10
273.25322335657472
20
117.35335621053676
30
0
40
1.0000000000000142
210
0
220
0
230
1
100
AcDbArc
50
-90
51
0.00040107010969264067
0
SPLINE
5
294
100
AcDbEntity
8
0
100
AcDbSpline
70
4
71
3
72
8
73
4
74
0
42
0.000000001
43
0.0000000001
44
0.0000000001
40
0
40
0
40
0
40
0
40
1
40
1
40
1
40
1
41
1
41
1
41
1
41
1
10
265.42864022283948
20
132.84844484756718
30
0
10
265.42863936148353
20
133.40235903538684
30
0
10
264.98057278643205
20
133.84690212643758
30
0
10
264.43018789676546
20
133.84690212643758
30
0
0
SPLINE
5
295
100
AcDbEntity
8
0
100
AcDbSpline
70
4
71
3
72
8
73
4
74
0
42
0.000000001
43
0.0000000001
44
0.0000000001
40
0
40
0
40
0
40
0
40
1
40
1
40
1
40
1
41
1
41
1
41
1
41
1
10
252.42754091182562
20
133.85042916353132
30
0
10
251.87362144820099
20
133.85042964804401
30
0
10
251.42908104888747
20
133.40235903538684
30
0
10
251.42908104888747
20
132.85197414572013
30
0
0
LINE
5
296
100
AcDbEntity
8
0
100
AcDbLine
10
274.25322335655028
20
117.35336321053673
30
0
11
274.25322335659939
21
117.35335621053676
31
0
0
LINE
5
297
100
AcDbEntity
8
0
100
AcDbLine
10
250.25323935659927
20
134.85335621053673
30
0
11
250.25323935659927
21
134.85335421053668
31
0
0
LINE
5
298
100
AcDbEntity
8
0
100
AcDbLine
10
259.10948835659923
20
76.703355210536671
30
0
11
259.10948835659923
21
62.697345536553343
31
0
0
LINE
5
299
100
AcDbEntity
8
0
100
AcDbLine
10
243.75322735659935
20
116.35335621053682
30
0
11
243.75322035659934
21
116.35335621053673
31
0
0
LINE
5
300
100
AcDbEntity
8
0
100
AcDbLine
10
263.0480710195647
20
95.75183277333312
30
0
11
263.0480746803272
21
82.747204164166419
31
0
0
LINE
5
301
100
AcDbEntity
8
0
100
AcDbLine
10
266.75323835659935
20
134.35335521053668
30
0
11
266.75323835659935
21
134.35335421053665
31
0
0
LINE
5
302
100
AcDbEntity
8
0
100
AcDbLine
10
20.984488356599229
20
76.703355210536671
30
0
11
20.984488356599229
21
62.697345536553343
31
0
0
LINE
5
303
100
AcDbEntity
8
0
100
AcDbLine
10
251.42908470964997
20
119.84734553655336
30
0
11
251.42908104888747
21
132.85197414572013
31
0
0
LINE
5
304
100
AcDbEntity
8
0
100
AcDbLine
10
266.25323835659924
20
119.84734553655336
30
0
11
265.42864022283948
21
119.84734553655336
31
0
0
LINE
5
305
100
AcDbEntity
8
0
100
AcDbLine
10
251.42908470964997
20
119.84734553655336
30
0
11
250.75322235659925
21
119.84734553655336
31
0
0
ARC
5
306
100
AcDbEntity
8
0
100
AcDbCircle
10
243.75322735659935
20
117.35335621053676
30
0
40
0.99999999999994316
210
0
220
0
230
1
100
AcDbArc
50
180
51
270
0
LINE
5
307
100
AcDbEntity
8
0
100
AcDbLine
10
259.60948835659934
20
77.203355210536671
30
0
11
259.60948835659934
21
77.203354210536631
31
0
0
LINE
5
308
100
AcDbEntity
8
0
100
AcDbLine
10
264.22391637261541
20
81.245823099349906
30
0
11
264.22391637261541
21
81.245824099349932
31
0
0
LINE
5
309
100
AcDbEntity
8
0
100
AcDbLine
10
250.75322235659925
20
133.85335521053668
30
0
11
250.75322235659925
21
119.84734553655336
31
0
0
ARC
5
310
100
AcDbEntity
8
0
100
AcDbCircle
10
267.75323835659935
20
134.85335621053665
30
0
40
1.0000000000000142
210
0
220
-0
230
1
100
AcDbArc
50
90
51
180
0
LINE
5
311
100
AcDbEntity
8
0
100
AcDbLine
10
250.25323935659927
20
134.85335621053673
30
0
11
250.25323935659927
21
134.35335421053665
31
0
0
LINE
5
312
100
AcDbEntity
8
0
100
AcDbLine
10
263.0480710195647
20
95.75183277333312
30
0
11
263.72393337261542
21
95.75183277333312
31
0
0
LINE
5
313
100
AcDbEntity
8
0
100
AcDbLine
10
242.75322735659941
20
117.35335421053679
30
0
11
242.75322735659941
21
134.85335621053665
31
0
0
LINE
5
314
100
AcDbEntity
8
0
100
AcDbLine
10
273.25322335659916
20
135.85335621053687
30
0
11
273.25323035659937
21
135.85335621053662
31
0
0
LINE
5
315
100
AcDbEntity
8
0
100
AcDbLine
10
242.75322735659941
20
117.35335421053679
30
0
11
242.75322735659941
21
117.35335621053676
31
0
0
LINE
5
316
100
AcDbEntity
8
0
100
AcDbLine
10
270.72392837261532
20
99.245822099349709
30
0
11
270.7239353726153
21
99.245822099349709
31
0
0
SPLINE
5
317
100
AcDbEntity
8
0
100
AcDbSpline
70
4
71
3
72
8
73
4
74
0
42
0.000000001
43
0.0000000001
44
0.0000000001
40
0
40
0
40
0
40
0
40
1
40
1
40
1
40
1
41
1
41
1
41
1
41
1
10
262.04961481738906
20
81.748749146355252
30
0
10
262.60353428101371
20
81.748748661842555
30
0
10
263.0480746803272
20
82.196819274499717
30
0
10
263.0480746803272
20
82.747204164166419
30
0
0
LINE
5
318
100
AcDbEntity
8
0
100
AcDbLine
10
243.75322035659934
20
135.85335421053662
30
0
11
249.25322035659931
21
135.85335421053662
31
0
0
LINE
5
319
100
AcDbEntity
8
0
100
AcDbLine
10
3.9844893565993544
20
78.703354210536645
30
0
11
3.9844703565993456
21
78.703354210536617
31
0
0
LINE
5
320
100
AcDbEntity
8
0
100
AcDbLine
10
6.1603347096500016
20
62.697345536553343
30
0
11
5.4844723565992837
21
62.697345536553343
31
0
0
ARC
5
321
100
AcDbEntity
8
0
100
AcDbCircle
10
11.762916451570149
20
34.647968418273848
30
0
40
2.0000000000000062
210
-0
220
0
230
-1
100
AcDbArc
50
-0.0086955670278683478
51
0.0086955663572325769
0
CIRCLE
5
322
100
AcDbEntity
8
0
100
AcDbCircle
10
-8.7632201222973549
20
35.575209540902307
30
0
40
2.9999999999999982
210
0
220
0
230
1
0
LWPOLYLINE
5
323
100
AcDbEntity
8
0
100
AcDbPolyline
90
8
70
1
43
0.0
10
142.89491274669999
20
81.747968370000024
42
-0.41421356237305862
10
141.89491274670004
20
82.747968369999981
10
141.89491274670002
20
94.747968369999995
42
-0.41421356237311063
10
142.89491274669999
20
95.747968370000024
10
154.89491274670002
20
95.747968369999995
42
-0.41421356237311063
10
155.89491274669996
20
94.747968369999995
10
155.89491274670002
20
82.747968369999981
42
-0.4142135623730846
10
154.89491274670002
20
81.747968370000024
0
LINE
5
324
100
AcDbEntity
8
0
100
AcDbLine
10
7.1587909118255766
20
76.700429163531325
30
0
11
19.161437896765463
21
76.696902126437578
31
0
0
LWPOLYLINE
5
325
100
AcDbEntity
8
0
100
AcDbPolyline
90
9
70
1
43
0.0
10
20.449271694628862
20
44.629082311011317
42
0.41421597205711941
10
21.451159291606693
20
43.627183948107273
10
35.830374192997404
20
43.627205479954071
42
0.4142159720571143
10
36.832261789975234
20
44.629103842858129
10
36.832261789955389
20
56.62706314592203
42
0.4142113140208466
10
35.830374192997404
20
57.628945575301138
10
21.447628068733419
20
57.628956341224423
42
0.41421282473151583
10
20.445740471755588
20
56.627068744208451
10
20.449266957622555
20
44.625563145969451
0
LWPOLYLINE
5
326
100
AcDbEntity
8
0
100
AcDbPolyline
90
9
70
1
43
0.0
10
-3.3632330423715073
20
44.625563145969522
10
-3.3632336883269032
20
56.627068744208451
42
-0.41421282473151583
10
-2.3613460913490725
20
57.628956341224402
10
12.017879575965051
20
57.628945575301138
42
-0.41421131401070205
10
13.019767172923022
20
56.627063145956704
10
13.019767172942881
20
44.629103842858129
42
-0.41421597205710908
10
12.017879575965051
20
43.627205479954085
10
-2.3613460913490725
20
43.627183948107273
42
-0.41421597205711941
10
-3.3632336883269032
20
44.629082311011317
0
ARC
5
327
100
AcDbEntity
8
0
100
AcDbCircle
10
-45.263660553231574
20
56.627067482615736
30
0
40
1.0018888586090924
210
0
220
0
230
-1
100
AcDbArc
50
0
51
89.658229505451004
0
LWPOLYLINE
5
328
100
AcDbEntity
8
0
100
AcDbPolyline
90
9
70
1
43
0.0
10
227.33226178992763
20
56.627057978323272
10
227.33228332177436
20
44.629103842849034
42
-0.41421596468440519
10
226.33039575005125
20
43.627205480065854
10
209.56637806868639
20
43.627183948107344
42
-0.41217741964251942
10
208.56801686250759
20
44.62561838196109
10
208.56801695757554
20
44.625563145969522
10
208.56801092865848
20
56.627068744246607
42
-0.41318583137324982
10
209.56637806868645
20
57.628956341224509
10
226.33036342702644
20
57.628945575301032
42
-0.41421597205627297
0
ARC
5
329
100
AcDbEntity
8
0
100
AcDbCircle
10
-59.642872931347277
20
56.627038892311283
30
0
40
1.0018888542322686
210
0
220
0
230
-1
100
AcDbArc
50
90.000072149841628
51
179.99963232676313
0
ARC
5
330
100
AcDbEntity
8
0
100
AcDbCircle
10
-59.642872931404867
20
44.629094338562751
30
0
40
1.0018888586094798
210
0
220
0
230
-1
100
AcDbArc
50
179.99945647130824
51
269.99991420363727
0
LINE
5
331
100
AcDbEntity
8
0
100
AcDbLine
10
45.257684301176141
20
57.628938516939563
30
0
11
59.642874192978113
21
57.628927746542757
31
0
0
LWPOLYLINE
5
332
100
AcDbEntity
8
0
100
AcDbPolyline
90
8
70
1
43
0.0
10
247.75864763860082
20
57.628945531835996
10
233.38185469706332
20
57.628955637380557
42
0.4142135490100175
10
232.3805206598866
20
56.627623053576812
10
232.38051167818321
20
44.628516540800582
42
0.41421422009154651
10
233.38184651057188
20
43.627182457939533
10
247.75866639714511
20
43.627203980898308
42
0.41421356237309503
10
248.75999823142124
20
44.628538813286056
10
248.75998026808887
20
56.627613697559021
42
0.4142129180179378
0
LWPOLYLINE
5
333
100
AcDbEntity
8
0
100
AcDbPolyline
90
8
70
1
43
0.0
10
272.57248056704304
20
56.627057978323201
42
0.41525213718269838
10
271.57411342701511
20
57.628945575300996
10
257.19137806867457
20
57.628956341224495
42
0.41318583137058257
10
256.19301092864663
20
56.627068744255737
10
256.19301092852368
20
44.629066617138449
42
0.4131843918108532
10
257.19137806867457
20
43.627183948107344
10
271.56707251311542
20
43.627205479954164
42
0.41525530915287634
10
272.5654396531433
20
44.629103842855358
0
LINE
5
334
100
AcDbEntity
8
0
100
AcDbLine
10
60.644766957612504
20
44.625563145969522
30
0
11
60.644761789969266
21
44.629103842846405
31
0
0
LINE
5
335
100
AcDbEntity
8
0
100
AcDbLine
10
60.644766957612504
20
44.625563145969522
30
0
11
60.644761789949456
21
56.627045321540841
31
0
0
LINE
5
336
100
AcDbEntity
8
0
100
AcDbLine
10
44.261771694622922
20
44.629082310999593
30
0
11
44.261771694622482
21
56.627067482615736
31
0
0
ARC
5
337
100
AcDbEntity
8
0
100
AcDbCircle
10
-45.263660553187307
20
44.629072806715939
30
0
40
1.0018888586094603
210
-0
220
0
230
-1
100
AcDbArc
50
-89.999927852689808
51
0.00054352869176481052
0
LINE
5
338
100
AcDbEntity
8
0
100
AcDbLine
10
45.263659291600732
20
43.627183948107273
30
0
11
59.642874431662314
21
43.627205479957709
31
0
0
LINE
5
339
100
AcDbEntity
8
0
100
AcDbLine
10
191.7544712704931
20
59.853516990381635
30
0
11
191.7544712704931
21
58.50000087171793
31
0
0
LWPOLYLINE
5
340
100
AcDbEntity
8
0
100
AcDbPolyline
90
8
70
1
43
0.0
10
209.56991274670003
20
76.697968369999984
10
221.56991274669991
20
76.697968370000041
42
-0.41421356237312101
10
222.56991274670014
20
75.697968369999998
10
222.5699127467
20
63.697968369999998
42
-0.41421356237308204
10
221.56991274669991
20
62.697968369999941
10
209.56991274670003
20
62.697968370000048
42
-0.41421356237309764
10
208.56991274670008
20
63.697968369999998
10
208.56991274670011
20
75.697968369999998
42
-0.41421356237311846
0
LINE
5
341
100
AcDbEntity
8
0
100
AcDbLine
10
274.95674894165342
20
75.701570126256684
30
0
11
274.95674894165347
21
63.70157012625679
31
0
0
ARC
5
342
100
AcDbEntity
8
0
100
AcDbCircle
10
273.9567489416533
20
75.701570126256598
30
0
40
1.0000000000000853
210
0
220
-0
230
1
100
AcDbArc
50
0
51
89.999999999996746
0
LINE
5
343
100
AcDbEntity
8
0
100
AcDbLine
10
267.10947335659938
20
76.70157012625674
30
0
11
273.95674894165336
21
76.701570126256684
31
0
0
LINE
5
344
100
AcDbEntity
8
0
100
AcDbLine
10
267.10947335659938
20
62.701570126256705
30
0
11
273.95674894165347
21
62.701570126256705
31
0
0
ARC
5
345
100
AcDbEntity
8
0
100
AcDbCircle
10
273.95674894165336
20
63.70157012625679
30
0
40
1.0000000000000853
210
0
220
0
230
1
100
AcDbArc
50
-89.999999999993491
51
0
0
ARC
5
346
100
AcDbEntity
8
0
100
AcDbCircle
10
235.76299894165351
20
75.70157012625674
30
0
40
0.9999999999999426
210
0
220
0
230
1
100
AcDbArc
50
98.83106309604203
51
180
0
LINE
5
347
100
AcDbEntity
8
0
100
AcDbLine
10
234.76299894165356
20
75.701570126256598
30
0
11
234.76299894165356
21
63.701570126256719
31
0
0
ARC
5
348
100
AcDbEntity
8
0
100
AcDbCircle
10
235.76299894165359
20
63.701570126256648
30
0
40
1.0000000000000142
210
0
220
0
230
1
100
AcDbArc
50
180
51
261.16893690395358
0
LINE
5
349
100
AcDbEntity
8
0
100
AcDbLine
10
235.60947735659937
20
60.203354210536787
30
0
11
235.60947735659937
21
62.713424831817377
31
0
0
LINE
5
350
100
AcDbEntity
8
0
100
AcDbLine
10
235.60947735659937
20
76.689715420695961
30
0
11
235.60947735659937
21
77.70335621053664
31
0
0
LINE
5
351
100
AcDbEntity
8
0
100
AcDbLine
10
243.60947235659921
20
76.703355210536699
30
0
11
243.60947235659921
21
76.701570126256684
31
0
0
LINE
5
352
100
AcDbEntity
8
0
100
AcDbLine
10
267.10947335659938
20
77.703356210536683
30
0
11
267.10947335659938
21
76.70157012625674
31
0
0
LINE
5
353
100
AcDbEntity
8
0
100
AcDbLine
10
267.10947335659938
20
62.701570126256705
30
0
11
267.10947335659938
21
60.203356210536739
31
0
0
LINE
5
354
100
AcDbEntity
8
0
100
AcDbLine
10
258.28489022283946
20
62.697345536553343
30
0
11
258.28489022283946
21
75.698444847567174
31
0
0
LINE
5
355
100
AcDbEntity
8
0
100
AcDbLine
10
257.28643789676539
20
76.696902126437578
30
0
11
243.60947235659921
21
76.701570126256684
31
0
0
ENDSEC
0
SECTION
2
OBJECTS
0
DICTIONARY
5
C
100
AcDbDictionary
3
ACAD_GROUP
350
D
3
ACAD_MLINESTYLE
350
17
0
DICTIONARY
5
D
100
AcDbDictionary
0
DICTIONARY
5
1A
330
C
100
AcDbDictionary
0
DICTIONARY
5
17
100
AcDbDictionary
0
ENDSEC
0
EOF
