0
SECTION
2
HEADER
9
$INSUNITS
70
4
9
$ACADVER
1
AC1014
9
$HANDSEED
5
FFFF
0
ENDSEC
0
SECTION
2
TABLES
0
TABLE
2
VPORT
5
8
100
AcDbSymbolTable
0
ENDTAB
0
TABLE
2
LTYPE
5
5
100
AcDbSymbolTable
0
LTYPE
5
14
100
AcDbSymbolTableRecord
100
AcDbLinetypeTableRecord
2
BYBLOCK
70
0
0
LTYPE
5
15
100
AcDbSymbolTableRecord
100
AcDbLinetypeTableRecord
2
BYLAYER
70
0
0
ENDTAB
0
TABLE
2
LAYER
5
2
100
AcDbSymbolTable
70
2
0
LAYER
5
50
100
AcDbSymbolTableRecord
100
AcDbLayerTableRecord
2
0
70
0
6
CONTINUOUS
0
ENDTAB
0
TABLE
2
STYLE
5
3
100
AcDbSymbolTable
70
1
0
STYLE
5
11
100
AcDbSymbolTableRecord
100
AcDbTextStyleTableRecord
2
STANDARD
70
0
0
ENDTAB
0
TABLE
2
VIEW
5
6
100
AcDbSymbolTable
70
0
0
ENDTAB
0
TABLE
2
UCS
5
7
100
AcDbSymbolTable
70
0
0
ENDTAB
0
TABLE
2
APPID
5
9
100
AcDbSymbolTable
70
2
0
APPID
5
12
100
AcDbSymbolTableRecord
100
AcDbRegAppTableRecord
2
ACAD
70
0
0
ENDTAB
0
TABLE
2
DIMSTYLE
5
A
100
AcDbSymbolTable
70
1
0
ENDTAB
0
TABLE
2
BLOCK_RECORD
5
1
100
AcDbSymbolTable
70
1
0
BLOCK_RECORD
5
1F
100
AcDbSymbolTableRecord
100
AcDbBlockTableRecord
2
*MODEL_SPACE
0
BLOCK_RECORD
5
1B
100
AcDbSymbolTableRecord
100
AcDbBlockTableRecord
2
*PAPER_SPACE
0
ENDTAB
0
ENDSEC
0
SECTION
2
BLOCKS
0
BLOCK
5
20
100
AcDbEntity
100
AcDbBlockBegin
2
*MODEL_SPACE
0
ENDBLK
5
21
100
AcDbEntity
100
AcDbBlockEnd
0
BLOCK
5
1C
100
AcDbEntity
100
AcDbBlockBegin
2
*PAPER_SPACE
0
ENDBLK
5
1D
100
AcDbEntity
100
AcDbBlockEnd
0
ENDSEC
0
SECTION
2
ENTITIES
0
LWPOLYLINE
5
100
100
AcDbEntity
8
0
100
AcDbPolyline
90
12
70
1
43
0.0
10
719.87028437881941
20
27.670411985065648
10
719.87009207731148
20
26.598467260517538
10
719.86991274670004
20
25.598826098755865
10
719.86991274670004
20
-104.35203162999998
10
719.86991274670004
20
-105.35203158172615
10
719.86991274670015
20
-106.47785285848592
42
-0.41425801438115684
10
717.86960921417426
20
-108.47785283545292
10
363.23678003893718
20
-108.42403153566366
42
-0.41416911176225008
10
361.23708357146285
20
-106.42403155869665
10
361.2571092602368
20
27.724589092001573
42
-0.41425801438112303
10
363.25741279276252
20
29.724589068968612
10
717.87058794352788
20
29.670770751997189
42
-0.41422165466090549
0
LWPOLYLINE
5
101
100
AcDbEntity
8
0
100
AcDbPolyline
90
8
70
1
43
0.0
10
656.74491274670004
20
-4.3920316299999307
10
656.74491274670004
20
-40.962006461861336
42
0.4142194595877744
10
657.99493791458531
20
-42.212006461607899
10
713.63117881902326
20
-42.210886264384158
42
0.41421356237304507
10
714.8811536508847
20
-40.960861096752339
10
714.88041736229343
20
-4.392006462114626
42
0.41420766518308993
10
713.63041736254684
20
-3.1420316299999484
10
657.99491274670004
20
-3.1420316299999129
42
0.4142135623730992
0
LWPOLYLINE
5
102
100
AcDbEntity
8
0
100
AcDbPolyline
90
16
70
1
43
0.0
10
675.79491274669988
20
-78.065031629999936
10
675.79491274669988
20
-61.54203162999999
42
-0.41421356237309709
10
677.04491274669988
20
-60.29203162999999
10
694.59491274669995
20
-60.292031629999968
42
-0.41421356237310125
10
695.84491274669995
20
-61.54203162999999
10
695.84491274669995
20
-78.065031629999936
42
0.4142135623730992
10
697.09491274669995
20
-79.31503162999995
10
713.63195105320847
20
-79.315031629999822
42
-0.41420766518303997
10
714.88195105295517
20
-80.565006462114638
10
714.88230470348628
20
-98.129579676284919
42
-0.41421356237309503
10
713.63232987162496
20
-99.379604843916837
10
657.99491274670004
20
-99.379604843916866
42
-0.4142135623730992
10
656.74491274670004
20
-98.129604843916837
10
656.74491274670004
20
-80.565031629999936
42
-0.4142135623730992
10
657.99491274670004
20
-79.315031629999936
10
674.54491274669988
20
-79.31503162999995
42
0.4142135623730992
0
LWPOLYLINE
5
103
100
AcDbEntity
8
0
100
AcDbPolyline
90
8
70
1
43
0.0
10
366.23241274669994
20
-98.131123720560041
42
0.4142135628527584
10
367.48241274874704
20
-99.381123720560041
10
651.73093791458541
20
-99.380851185623214
42
0.41420766518296509
10
652.98091274670014
20
-98.130851185876367
10
652.98091274670014
20
-4.3920316299999484
42
0.4142135623730992
10
651.73091274670014
20
-3.1420316299999307
10
367.48241274669999
20
-3.142031629999984
42
0.41421356237311169
10
366.23241274669999
20
-4.3920316299999129
0
LWPOLYLINE
5
104
100
AcDbEntity
8
0
100
AcDbPolyline
90
8
70
1
43
0.0
10
714.8799379140786
20
19.420493537885406
10
714.88029066715899
20
1.9004935378853105
42
-0.41421945958767453
10
713.63029066741228
20
0.65046837000004132
10
657.99491274670004
20
0.65046837000002355
42
-0.4142135623730992
10
656.74491274670004
20
1.9004683700000413
10
656.74491274670004
20
19.420468370000101
42
-0.4142135623730992
10
657.99491274670004
20
20.670468370000101
10
713.629937914332
20
20.670468370000016
42
-0.41420766518308993
0
LWPOLYLINE
5
105
100
AcDbEntity
8
0
100
AcDbPolyline
90
8
70
1
43
0.0
10
575.78241274670006
20
19.420468370000101
10
575.78241274670017
20
1.9004683700000413
42
0.41421356237311585
10
577.03241274670006
20
0.65046837000005908
10
651.73091274670014
20
0.65046836999989921
42
0.41421356237306173
10
652.98091274670014
20
1.9004683700000413
10
652.98091274670014
20
19.420468370000101
42
0.4142135623730992
10
651.73091274670014
20
20.670468370000101
10
577.03241274670006
20
20.670468370000119
42
0.4142135623730992
0
LWPOLYLINE
5
106
100
AcDbEntity
8
0
100
AcDbPolyline
90
8
70
1
43
0.0
10
567.25773601726416
20
19.42062503545074
10
567.25993184023832
20
1.9006250354507339
42
-0.41425027184813623
10
566.00993185005586
20
0.65046837000004132
10
491.30741274670004
20
0.65046837000002355
42
-0.4142135623730992
10
490.05741274670004
20
1.9004683700000413
10
490.05741274669992
20
19.420468370000101
42
-0.4142135623730992
10
491.30741274669987
20
20.67046837000003
10
566.00773602708182
20
20.670468370000105
42
-0.41417685385087444
0
LWPOLYLINE
5
107
100
AcDbEntity
8
0
100
AcDbPolyline
90
8
70
1
43
0.0
10
481.53272918157245
20
19.42062503545074
10
481.53492500454655
20
1.9006250354507339
42
-0.41425027184814872
10
480.28492501436415
20
0.65046837000004132
10
405.5824127466999
20
0.65046837000002355
42
-0.4142135623730992
10
404.3324127466999
20
1.9004683700000413
10
404.3324127466999
20
19.420468370000101
42
-0.4142135623730992
10
405.5824127466999
20
20.670468370000101
10
480.28272919138999
20
20.670468370000052
42
-0.41417685385089525
0
LWPOLYLINE
5
108
100
AcDbEntity
8
0
100
AcDbPolyline
90
8
70
1
43
0.0
10
386.28241274670006
20
19.420468370000101
10
386.28241274670006
20
1.9004683700000413
42
-0.4142135623730992
10
385.03241274670006
20
0.65046837000004132
10
367.48241274669999
20
0.65046837000009461
42
-0.41421356237311585
10
366.23241274669999
20
1.9004683700000413
10
366.23241274669994
20
19.420468370000119
42
-0.41421356237311169
10
367.48241274669999
20
20.670468370000101
10
385.03241274670006
20
20.670468370000119
42
-0.4142135623730992
0
ARC
5
109
100
AcDbEntity
8
0
100
AcDbCircle
10
-187.03820142217978
20
-253.08450477144984
30
-1.9999999999999962
40
2.9999999999999716
210
0
220
0
230
-1
100
AcDbArc
50
90
51
137.83409886353078
0
LINE
5
110
100
AcDbEntity
8
0
100
AcDbLine
10
196.30325431146622
20
-250.08450477144973
30
1.9999999999999962
11
338.93875021538452
21
-250.08450477144891
31
1.9999999999999956
0
ARC
5
111
100
AcDbEntity
8
0
100
AcDbCircle
10
-82.828958095100731
20
-253.08393548877729
30
-1.9999999999996674
40
2.9999999999996478
210
1.2523650198019852e-16
220
-1.2637205116899012e-15
230
-1
100
AcDbArc
50
29.99058458700209
51
88.883785002798305
0
LINE
5
112
100
AcDbEntity
8
0
100
AcDbLine
10
-7.881380247834695
20
-250.0845047714499
30
1.9999999999999962
11
67.164388822230094
21
-250.0845047714493
31
1.9999999999999951
0
ARC
5
113
100
AcDbEntity
8
0
100
AcDbCircle
10
-337.48220040662375
20
-131.58091894245899
30
-2.001389015283177
40
1.5033949269039237
210
-6.7049920508137479e-06
220
-6.7174339052630578e-06
230
-0.9999999999549597
100
AcDbArc
50
89.92554353433168
51
179.96823639710919
0
ARC
5
114
100
AcDbEntity
8
0
100
AcDbCircle
10
-177.28500431146529
20
-253.08450477144984
30
-1.9999999999999962
40
2.9999999999989262
210
0
220
0
230
-1
100
AcDbArc
50
42.165901136432495
51
90
0
ARC
5
115
100
AcDbEntity
8
0
100
AcDbCircle
10
6.5138700211683283
20
-131.58754522800766
30
-2.000696718745727
40
1.5033696135349872
210
-5.589407805286899e-06
220
5.6352911095941003e-06
230
-0.99999999996850097
100
AcDbArc
50
0.025835384700842665
51
90.442578961616519
0
LINE
5
116
100
AcDbEntity
8
0
100
AcDbLine
10
339.07281981340617
20
-249.95114514202567
30
1.9999999999999951
11
338.98560852010752
21
-131.58007204407755
31
1.9999999999999951
0
ARC
5
117
100
AcDbEntity
8
0
100
AcDbCircle
10
-338.93932626129379
20
-249.9510123550366
30
-1.9930457189328479
40
0.13351717986967399
210
1.1779836039747365e-05
220
-1.1842548524905647e-05
230
-0.99999999986049481
100
AcDbArc
50
180.06711853690234
51
270.23709733380275
0
LINE
5
118
100
AcDbEntity
8
0
100
AcDbLine
10
177.28500431146529
20
-250.08450477145092
30
1.9999999999999962
11
187.03820142217978
21
-250.08450477144987
31
1.9999999999999962
0
LINE
5
119
100
AcDbEntity
8
0
100
AcDbLine
10
-8.0172283031788041
20
-131.58687861225886
30
1.9999999999999962
11
-8.0869168363712536
21
-249.87863853869243
31
1.9999999999999962
0
ARC
5
120
100
AcDbEntity
8
0
100
AcDbCircle
10
-191.67072786682388
20
-248.88900733494995
30
-1.9999999999999962
40
3.2499999999988467
210
0
220
0
230
-1
100
AcDbArc
50
222.16590113643494
51
317.83409886358538
0
ARC
5
121
100
AcDbEntity
8
0
100
AcDbCircle
10
-79.364527866823025
20
-251.08450477144982
30
-1.9999999999998557
40
0.99999999999997258
210
1.3681270552303631e-19
220
-5.5503250847130443e-16
230
-1
100
AcDbArc
50
209.99058458698579
51
270
0
ARC
5
122
100
AcDbEntity
8
0
100
AcDbCircle
10
7.8813406795459953
20
-249.87892723522384
30
-1.9753278374888208
40
0.20576772298773366
210
-9.5789810013711122e-05
220
-9.5636426152966733e-05
230
-0.99999999083899305
100
AcDbArc
50
-89.935647192263431
51
0.02746633178212568
0
ARC
5
123
100
AcDbEntity
8
0
100
AcDbCircle
10
-273.7688198861909
20
-129.63188253669216
30
-1.9999999999995599
40
0.49961090556979781
210
1.6666359633708681e-15
220
1.6261850954711147e-16
230
-1
100
AcDbArc
50
180.00157553997025
51
180.00157553997025
0
ARC
5
124
100
AcDbEntity
8
0
100
AcDbCircle
10
-196.30325431146622
20
-253.08450477144984
30
-1.9999999999999962
40
3.0000000000001625
210
0
220
0
230
-1
100
AcDbArc
50
42.165901136469799
51
90
0
LINE
5
125
100
AcDbEntity
8
0
100
AcDbLine
10
82.770516911414447
20
-250.08450477144987
30
1.9999999999999938
11
168.01995142218061
21
-250.08450477145007
31
1.9999999999999962
0
LINE
5
126
100
AcDbEntity
8
0
100
AcDbLine
10
70.570377866823321
20
-252.08450477144982
30
1.9999999999999956
11
79.364527866823025
21
-252.08450477144976
31
1.9999999999999953
0
ARC
5
127
100
AcDbEntity
8
0
100
AcDbCircle
10
-172.65247786682295
20
-248.88900733494995
30
-1.9999999999999962
40
3.2500000000000835
210
0
220
0
230
-1
100
AcDbArc
50
222.16590113646939
51
317.83409886352996
0
ARC
5
128
100
AcDbEntity
8
0
100
AcDbCircle
10
-67.105947638545587
20
-253.08393548877729
30
-1.9999999999999054
40
3.0000000000001839
210
-3.6102117310673465e-16
220
-4.5564655592625725e-16
230
-1
100
AcDbArc
50
91.116214997167575
51
150.00941541301231
0
ARC
5
129
100
AcDbEntity
8
0
100
AcDbCircle
10
-168.01995142218061
20
-253.08450477144984
30
-1.9999999999999962
40
2.9999999999997584
210
0
220
0
230
-1
100
AcDbArc
50
90
51
137.83409886356824
0
ARC
5
130
100
AcDbEntity
8
0
100
AcDbCircle
10
-70.570377866823321
20
-251.08450477144982
30
-1.999999999999752
40
1.0000000000000142
210
4.8064946312493081e-16
220
-8.3266726846885557e-16
230
-1
100
AcDbArc
50
270
51
330.00941541297192
0
LINE
5
131
100
AcDbEntity
8
0
100
AcDbLine
10
337.48026014728765
20
-130.07751183783378
30
1.9999999999999951
11
-6.4999998547136784
21
-130.07751183783378
31
1.9999999999999951
0
ENDSEC
0
SECTION
2
OBJECTS
0
DICTIONARY
5
C
100
AcDbDictionary
3
ACAD_GROUP
350
D
3
ACAD_MLINESTYLE
350
17
0
DICTIONARY
5
D
100
AcDbDictionary
0
DICTIONARY
5
1A
330
C
100
AcDbDictionary
0
DICTIONARY
5
17
100
AcDbDictionary
0
ENDSEC
0
EOF
