0
SECTION
2
HEADER
9
$INSUNITS
70
4
9
$ACADVER
1
AC1014
9
$HANDSEED
5
FFFF
0
ENDSEC
0
SECTION
2
TABLES
0
TABLE
2
VPORT
5
8
100
AcDbSymbolTable
0
ENDTAB
0
TABLE
2
LTYPE
5
5
100
AcDbSymbolTable
0
LTYPE
5
14
100
AcDbSymbolTableRecord
100
AcDbLinetypeTableRecord
2
BYBLOCK
70
0
0
LTYPE
5
15
100
AcDbSymbolTableRecord
100
AcDbLinetypeTableRecord
2
BYLAYER
70
0
0
ENDTAB
0
TABLE
2
LAYER
5
2
100
AcDbSymbolTable
70
2
0
LAYER
5
50
100
AcDbSymbolTableRecord
100
AcDbLayerTableRecord
2
0
70
0
6
CONTINUOUS
0
ENDTAB
0
TABLE
2
STYLE
5
3
100
AcDbSymbolTable
70
1
0
STYLE
5
11
100
AcDbSymbolTableRecord
100
AcDbTextStyleTableRecord
2
STANDARD
70
0
0
ENDTAB
0
TABLE
2
VIEW
5
6
100
AcDbSymbolTable
70
0
0
ENDTAB
0
TABLE
2
UCS
5
7
100
AcDbSymbolTable
70
0
0
ENDTAB
0
TABLE
2
APPID
5
9
100
AcDbSymbolTable
70
2
0
APPID
5
12
100
AcDbSymbolTableRecord
100
AcDbRegAppTableRecord
2
ACAD
70
0
0
ENDTAB
0
TABLE
2
DIMSTYLE
5
A
100
AcDbSymbolTable
70
1
0
ENDTAB
0
TABLE
2
BLOCK_RECORD
5
1
100
AcDbSymbolTable
70
1
0
BLOCK_RECORD
5
1F
100
AcDbSymbolTableRecord
100
AcDbBlockTableRecord
2
*MODEL_SPACE
0
BLOCK_RECORD
5
1B
100
AcDbSymbolTableRecord
100
AcDbBlockTableRecord
2
*PAPER_SPACE
0
ENDTAB
0
ENDSEC
0
SECTION
2
BLOCKS
0
BLOCK
5
20
100
AcDbEntity
100
AcDbBlockBegin
2
*MODEL_SPACE
0
ENDBLK
5
21
100
AcDbEntity
100
AcDbBlockEnd
0
BLOCK
5
1C
100
AcDbEntity
100
AcDbBlockBegin
2
*PAPER_SPACE
0
ENDBLK
5
1D
100
AcDbEntity
100
AcDbBlockEnd
0
ENDSEC
0
SECTION
2
ENTITIES
0
LWPOLYLINE
5
100
100
AcDbEntity
8
0
100
AcDbPolyline
90
12
70
1
43
0.0
10
342.87058794352788
20
29.670770751997189
10
-11.742587207237491
20
29.724589068968612
42
0.41425801438112431
10
-13.742890739763222
20
27.724589092001573
10
-13.762916428537142
20
-106.42403155869664
42
0.41416911176224686
10
-11.763219961062816
20
-108.42403153566366
10
342.86960921417432
20
-108.47785283545294
42
0.41425801438116205
10
344.86991274670004
20
-106.47785285848593
10
344.86991274670004
20
-105.35203158172615
10
344.86991274670004
20
-104.35203162999998
10
344.86991274670004
20
25.598826098755865
10
344.87009207731148
20
26.598467260517538
10
344.87028437881946
20
27.670411985065648
42
0.41422165466093475
0
LWPOLYLINE
5
101
100
AcDbEntity
8
0
100
AcDbPolyline
90
8
70
1
43
0.0
10
339.88029066715899
20
1.9004935378853105
10
339.87993791407865
20
19.420493537885406
42
0.4142076651830946
10
338.62993791433206
20
20.670468370000016
10
282.99491274670004
20
20.670468370000094
42
0.41421356237310908
10
281.74491274670004
20
19.420468370000101
10
281.74491274670004
20
1.9004683700000413
42
0.41421356237309953
10
282.99491274670004
20
0.65046837000002355
10
338.6302906674124
20
0.65046837000000024
42
0.41421945958766165
0
LWPOLYLINE
5
102
100
AcDbEntity
8
0
100
AcDbPolyline
90
8
70
1
43
0.0
10
192.25773601726416
20
19.420625035450737
42
0.41417685385089054
10
191.00773602708188
20
20.670468370000105
10
116.30741274669987
20
20.67046837000003
42
0.41421356237310336
10
115.05741274669998
20
19.420468370000101
10
115.05741274670001
20
1.9004683700000413
42
0.41421356237309953
10
116.30741274670001
20
0.65046837000002355
10
191.00993185005592
20
0.6504683700000452
42
0.41425027184812213
10
192.25993184023832
20
1.9006250354507337
0
LWPOLYLINE
5
103
100
AcDbEntity
8
0
100
AcDbPolyline
90
8
70
1
43
0.0
10
-8.7675872533000465
20
19.420468370000123
10
-8.7675872532999932
20
1.9004683700000413
42
0.41421356237311635
10
-7.5175872532999932
20
0.65046837000009461
10
10.032412746700032
20
0.65046837000004076
42
0.41421356237309931
10
11.282412746700015
20
1.9004683700000413
10
11.282412746700034
20
19.420468370000101
42
0.41421356237310075
10
10.032412746700032
20
20.670468370000123
10
-7.5175872532999932
20
20.670468370000101
42
0.4142135623731088
0
LWPOLYLINE
5
104
100
AcDbEntity
8
0
100
AcDbPolyline
90
8
70
1
43
0.0
10
276.73091274670014
20
0.65046836999989921
10
202.03241274670009
20
0.65046837000006297
42
-0.41421356237311491
10
200.7824127467002
20
1.9004683700000413
10
200.78241274670009
20
19.420468370000101
42
-0.41421356237310075
10
202.03241274670009
20
20.670468370000123
10
276.73091274670014
20
20.670468370000094
42
-0.41421356237310908
10
277.98091274670014
20
19.420468370000101
10
277.98091274670014
20
1.9004683700000413
42
-0.41421356237306123
0
LWPOLYLINE
5
105
100
AcDbEntity
8
0
100
AcDbPolyline
90
8
70
1
43
0.0
10
339.88041736229354
20
-4.392006462114626
10
339.88115365088476
20
-40.960861096752332
42
-0.41421356237300555
10
338.63117881902326
20
-42.210886264384158
10
282.99493791458525
20
-42.212006461607899
42
-0.41421945958776818
10
281.74491274669998
20
-40.962006461861336
10
281.74491274670004
20
-4.3920316299999307
42
-0.41421356237309959
10
282.99491274670004
20
-3.1420316299999129
10
338.63041736254678
20
-3.1420316300000044
42
-0.41420766518309177
0
LWPOLYLINE
5
106
100
AcDbEntity
8
0
100
AcDbPolyline
90
8
70
1
43
0.0
10
-8.7675872533000465
20
-98.131123720560055
10
-8.7675872532999932
20
-4.3920316299999129
42
-0.4142135623731118
10
-7.5175872532999932
20
-3.142031629999984
10
276.73091274670014
20
-3.1420316299999289
42
-0.41421356237309959
10
277.98091274670014
20
-4.3920316299999484
10
277.98091274647032
20
-98.130851185876367
42
-0.41421328154971404
10
276.7309139451886
20
-99.380851185646179
10
-7.5175872512529907
20
-99.381123720560041
42
-0.41421356285275396
0
CIRCLE
5
107
100
AcDbEntity
8
0
100
AcDbCircle
10
233.87045093164687
20
25.72382605048205
30
0
40
1.7499999999999991
210
0
220
0
230
1
0
LWPOLYLINE
5
108
100
AcDbEntity
8
0
100
AcDbPolyline
90
8
70
1
43
0.0
10
105.28272919139
20
20.670468370000048
10
30.582412746699895
20
20.670468370000101
42
0.41421356237309764
10
29.332412746699905
20
19.420468370000101
10
29.332412746699891
20
1.9004683700000413
42
0.41421356237309953
10
30.582412746699887
20
0.65046837000002355
10
105.28492501436419
20
0.65046837000004032
42
0.41425027184814817
10
106.53492500454655
20
1.9006250354507337
10
106.53272918157242
20
19.420625035450737
42
0.41417685385088221
0
LWPOLYLINE
5
109
100
AcDbEntity
8
0
100
AcDbPolyline
90
16
70
1
43
0.0
10
320.8449127467
20
-78.065031629999936
10
320.8449127467
20
-61.54203162999999
42
0.41421356237309709
10
319.5949127467
20
-60.292031629999975
10
302.04491274669988
20
-60.292031629999983
42
0.41421356237309709
10
300.79491274669988
20
-61.54203162999999
10
300.79491274669988
20
-78.065031629999936
42
-0.4142135623730992
10
299.54491274669988
20
-79.31503162999995
10
282.99491274670004
20
-79.31503162999995
42
0.41421356237310752
10
281.74491274670004
20
-80.565031629999936
10
281.74491274670004
20
-98.129604843916837
42
0.4142135623730992
10
282.99491274670004
20
-99.379604843916866
10
338.63232987162485
20
-99.379604843916837
42
0.41421356237311169
10
339.88230470348628
20
-98.129579676284948
10
339.88195105295512
20
-80.565006462114624
42
0.41420766518301916
10
338.63195105320841
20
-79.315031629999808
10
322.0949127467
20
-79.315031629999964
42
-0.4142135623730992
0
CIRCLE
5
110
100
AcDbEntity
8
0
100
AcDbCircle
10
97.23677987770273
20
-104.42479045909771
30
0
40
1.7499999999999893
210
0
220
0
230
1
0
CIRCLE
5
111
100
AcDbEntity
8
0
100
AcDbCircle
10
339.87045093164681
20
25.72382605048205
30
0
40
1.7499999999999982
210
0
220
0
230
1
0
CIRCLE
5
112
100
AcDbEntity
8
0
100
AcDbCircle
10
-8.7425872533000177
20
25.723826096548024
30
0
40
1.7499999999999971
210
0
220
0
230
1
0
CIRCLE
5
113
100
AcDbEntity
8
0
100
AcDbCircle
10
339.86991274670004
20
-104.42403158176155
30
0
40
1.7499999999999984
210
0
220
0
230
1
0
CIRCLE
5
114
100
AcDbEntity
8
0
100
AcDbCircle
10
233.86991274696072
20
-104.42427102115816
30
0
40
1.7499999999999964
210
0
220
0
230
1
0
CIRCLE
5
115
100
AcDbEntity
8
0
100
AcDbCircle
10
-8.7632201222973549
20
-104.42479045909771
30
0
40
1.7499999999999918
210
0
220
0
230
1
0
CIRCLE
5
116
100
AcDbEntity
8
0
100
AcDbCircle
10
97.257411479885121
20
25.707131807634056
30
0
40
1.7499999999999929
210
0
220
0
230
1
0
ENDSEC
0
SECTION
2
OBJECTS
0
DICTIONARY
5
C
100
AcDbDictionary
3
ACAD_GROUP
350
D
3
ACAD_MLINESTYLE
350
17
0
DICTIONARY
5
D
100
AcDbDictionary
0
DICTIONARY
5
1A
330
C
100
AcDbDictionary
0
DICTIONARY
5
17
100
AcDbDictionary
0
ENDSEC
0
EOF
