0
SECTION
2
HEADER
9
$INSUNITS
70
4
9
$ACADVER
1
AC1014
9
$HANDSEED
5
FFFF
0
ENDSEC
0
SECTION
2
TABLES
0
TABLE
2
VPORT
5
8
100
AcDbSymbolTable
0
ENDTAB
0
TABLE
2
LTYPE
5
5
100
AcDbSymbolTable
0
LTYPE
5
14
100
AcDbSymbolTableRecord
100
AcDbLinetypeTableRecord
2
BYBLOCK
70
0
0
LTYPE
5
15
100
AcDbSymbolTableRecord
100
AcDbLinetypeTableRecord
2
BYLAYER
70
0
0
ENDTAB
0
TABLE
2
LAYER
5
2
100
AcDbSymbolTable
70
2
0
LAYER
5
50
100
AcDbSymbolTableRecord
100
AcDbLayerTableRecord
2
0
70
0
6
CONTINUOUS
0
ENDTAB
0
TABLE
2
STYLE
5
3
100
AcDbSymbolTable
70
1
0
STYLE
5
11
100
AcDbSymbolTableRecord
100
AcDbTextStyleTableRecord
2
STANDARD
70
0
0
ENDTAB
0
TABLE
2
VIEW
5
6
100
AcDbSymbolTable
70
0
0
ENDTAB
0
TABLE
2
UCS
5
7
100
AcDbSymbolTable
70
0
0
ENDTAB
0
TABLE
2
APPID
5
9
100
AcDbSymbolTable
70
2
0
APPID
5
12
100
AcDbSymbolTableRecord
100
AcDbRegAppTableRecord
2
ACAD
70
0
0
ENDTAB
0
TABLE
2
DIMSTYLE
5
A
100
AcDbSymbolTable
70
1
0
ENDTAB
0
TABLE
2
BLOCK_RECORD
5
1
100
AcDbSymbolTable
70
1
0
BLOCK_RECORD
5
1F
100
AcDbSymbolTableRecord
100
AcDbBlockTableRecord
2
*MODEL_SPACE
0
BLOCK_RECORD
5
1B
100
AcDbSymbolTableRecord
100
AcDbBlockTableRecord
2
*PAPER_SPACE
0
ENDTAB
0
ENDSEC
0
SECTION
2
BLOCKS
0
BLOCK
5
20
100
AcDbEntity
100
AcDbBlockBegin
2
*MODEL_SPACE
0
ENDBLK
5
21
100
AcDbEntity
100
AcDbBlockEnd
0
BLOCK
5
1C
100
AcDbEntity
100
AcDbBlockBegin
2
*PAPER_SPACE
0
ENDBLK
5
1D
100
AcDbEntity
100
AcDbBlockEnd
0
ENDSEC
0
SECTION
2
ENTITIES
0
LWPOLYLINE
5
100
100
AcDbEntity
8
0
100
AcDbPolyline
90
121
70
1
43
0.0
10
344.86991274670015
20
-256.42785285848612
42
-0.41425801438116466
10
342.86960921417455
20
-258.427852835453
10
-11.763219961062678
20
-258.37403153566368
42
-0.41416911176224164
10
-13.762916428537
20
-256.37403155869669
10
-13.742890739763149
20
-122.22541090799849
42
-0.41425801438112531
10
-11.74258720723742
20
-120.22541093103143
10
271.11031395182459
20
-120.26833845927221
42
-0.22761341834953067
10
272.67087123397562
20
-121.0178531235678
10
274.44280403983805
20
-123.22958680399159
42
-0.17052312726028374
10
274.66237362098326
20
-123.85498122657673
10
274.66172931825975
20
-128.10034354441149
42
-0.26592057838807492
10
273.67455861174159
20
-129.82462021269268
10
254.52303576820256
20
-129.82462021259784
42
-0.26794919242668264
10
251.49194685505358
20
-128.07462021266696
10
249.47122091313702
20
-124.57462021264624
42
0.26794919244244697
10
247.30615740318052
20
-123.32462021226081
10
243.77025901916971
20
-123.32462021247274
42
0.26794919241474657
10
241.60519550948402
20
-124.57462021268732
10
239.58446956745007
20
-128.07462021287935
42
-0.26794919242025544
10
236.5533806541944
20
-129.82462021279363
10
174.52303576820128
20
-129.82462021264669
42
-0.26794919242768728
10
171.49194685501382
20
-128.07462021269652
10
169.47122091313997
20
-124.57462021265164
42
0.26794919244839999
10
167.30615740318041
20
-123.32462021226104
10
163.77025901917006
20
-123.32462021247288
42
0.26794919245903309
10
161.60519550971034
20
-124.57462021279532
10
159.58446956743305
20
-128.07462021290885
42
-0.26794919243986337
10
156.55338065420108
20
-129.82462021279386
10
94.523035768201268
20
-129.82462021264669
42
-0.26794919242849108
10
91.491946855008294
20
-128.07462021268728
10
89.471220913139845
20
-124.57462021265147
42
0.26794919244823001
10
87.306157403180364
20
-123.32462021226075
10
83.770259019193844
20
-123.32462021247279
42
0.26794919241205717
10
81.605195509483394
20
-124.57462021268738
10
79.58446956742614
20
-128.07462021292048
42
-0.26794919247460519
10
76.55338065419383
20
-129.82462021279363
10
14.523035768157069
20
-129.82462021264672
42
-0.26794919247626869
10
11.491946855028043
20
-128.07462021272113
10
9.4712209130414813
20
-124.57462021236118
42
0.2679491924797886
10
7.3061574033647361
20
-123.32462021226095
10
3.7702590189647012
20
-123.32462021250983
42
0.2679491923748562
10
1.605195509777859
20
-124.57462021225166
10
-0.41553054776220011
20
-128.07462041105981
42
-0.26794919240880555
10
-3.4466194607917355
20
-129.82462041069991
10
-6.4647492850565662
20
-129.82462041064994
10
-10.293176408994899
20
-129.82462041064994
10
-10.293176409058262
20
-133.65304753569961
10
-10.293176409080434
20
-245.0574961676997
10
-10.293176409080392
20
-250.1999944075948
10
-8.0999998189508915
20
-250.1999944075948
10
-0.66788750394684482
20
-250.19999440759474
10
-0.41620384472396049
20
-250.63592329287647
10
1.6051955091644365
20
-254.13708967678318
42
0.2679491924504564
10
3.7702590192333476
20
-255.38708967723881
10
7.3061574031336107
20
-255.38708967700097
42
0.26794919238968068
10
9.4712209129299794
20
-254.13708967683618
10
11.492619026060309
20
-250.63592544253237
10
11.744303926426962
20
-250.19999440759463
10
67.09999850019814
20
-250.19999440759477
42
-0.027439463925263897
10
67.389098275109987
20
-250.21587184779241
42
0.21401663513904912
10
68.882840353482308
20
-250.88593436482705
10
78.578534629546851
20
-250.88593542587984
42
-0.26794928628297815
10
80.310585218180975
20
-251.88593595665364
10
81.61028942414174
20
-254.13708967674469
42
0.26794919246329385
10
83.775352934224671
20
-255.38708967723903
10
87.306157639235096
20
-255.38708967698992
42
0.26794919240653781
10
89.471221148956189
20
-254.13708967676837
10
91.492612910697687
20
-250.63593644200085
10
91.745297363987305
20
-250.19827413044169
10
159.33111925486318
20
-250.19827413043427
10
159.583809002462
20
-250.6359456119564
10
161.60519547015087
20
-254.13708967675919
42
0.26794919247738974
10
163.77025898023518
20
-255.38708967723903
10
167.31125131918614
20
-255.38708967698992
42
0.267949192407964
10
169.47631482898709
20
-254.13708967671477
10
170.77602075654863
20
-251.88593297387661
42
-0.26794917981656757
10
172.50807146915804
20
-250.88593297371705
10
195.1935716319588
20
-250.88593230410399
42
0.21711689486712177
10
196.70296902762178
20
-250.19807550676444
10
239.31423799193354
20
-250.16461894480059
10
239.58636243934853
20
-250.6359524579899
10
241.60774256589457
20
-254.13708661034701
42
0.26794922800175885
10
243.77280624121855
20
-255.38708689714866
10
247.30870436122871
20
-255.38708689694477
42
0.26794919238190956
10
249.47376787077317
20
-254.13708689699544
10
251.49451143903684
20
-250.6370563675691
10
251.77292096972437
20
-250.15483691508959
10
319.27798858066586
20
-250.10183479775554
10
319.58699889815614
20
-250.6370563675043
10
321.60774246720513
20
-254.13708689680956
42
0.26794919236924253
10
323.77280597613287
20
-255.38708689635075
10
327.30870436114674
20
-255.38708689672774
42
0.26794919245835208
10
329.4737678705726
20
-254.13708689690935
10
331.49451143901837
20
-250.63705636758857
10
331.80920229292752
20
-250.09199581998661
10
339.08839374143383
20
-250.08628050744929
10
341.37307507684034
20
-250.08448667251963
10
341.36920821112545
20
-245.15953188476101
10
341.36920821113023
20
-133.65304733668464
10
341.36920821113023
20
-129.82462021185211
10
337.54078108601857
20
-129.82462021185196
10
334.59626370901856
20
-129.82462021292025
42
-0.26794919258434735
10
331.56517479524643
20
-128.07462021292676
10
329.54444885294089
20
-124.5746202126721
42
0.26794919243530357
10
327.37938534350064
20
-123.32462021270328
10
323.77025901920081
20
-123.32462021269775
42
0.26794919244061211
10
321.60519550969661
20
-124.57462021276925
10
319.58446956739255
20
-128.07462021286011
42
-0.26794919243315146
10
316.55338065420727
20
-129.82462021273409
10
286.04889975074138
20
-129.82462021270149
42
-0.26600182913573955
10
285.06172904420805
20
-128.09973647941393
10
285.06237296383244
20
-123.85689843271288
42
-0.17067831109239012
10
285.28250978104563
20
-123.23110017372369
10
287.07256934017431
20
-121.00088774739937
42
-0.22754309641506595
10
288.63327070178542
20
-120.25278803554201
10
342.87058794352788
20
-120.27922924800266
42
-0.41422165466091848
10
344.87028437881975
20
-122.27958801493443
10
344.87009207731171
20
-123.35153273948252
10
344.86991274670015
20
-124.35117390124418
10
344.86991274670015
20
-254.30203163000002
10
344.86991274670015
20
-255.30203158172611
0
CIRCLE
5
101
100
AcDbEntity
8
0
100
AcDbCircle
10
-8.7425872533000177
20
-124.27617390345192
30
0
40
3.0000000000000182
210
0
220
0
230
1
0
CIRCLE
5
102
100
AcDbEntity
8
0
100
AcDbCircle
10
233.87045093164687
20
-124.27617394951793
30
0
40
2.9999999999999716
210
0
220
0
230
1
0
CIRCLE
5
103
100
AcDbEntity
8
0
100
AcDbCircle
10
97.23677987770273
20
-254.42479045909766
30
0
40
2.9999999999999716
210
0
220
0
230
1
0
CIRCLE
5
104
100
AcDbEntity
8
0
100
AcDbCircle
10
339.86991274670004
20
-254.42403158176151
30
0
40
3.0000000000000049
210
0
220
0
230
1
0
CIRCLE
5
105
100
AcDbEntity
8
0
100
AcDbCircle
10
-8.7632201222973549
20
-254.42479045909766
30
0
40
3.0000000000000004
210
0
220
0
230
1
0
CIRCLE
5
106
100
AcDbEntity
8
0
100
AcDbCircle
10
97.257411479885135
20
-124.29286819236593
30
0
40
2.9999999999999898
210
0
220
0
230
1
0
CIRCLE
5
107
100
AcDbEntity
8
0
100
AcDbCircle
10
233.86991274696058
20
-254.42427102115815
30
0
40
2.9999999999999387
210
0
220
0
230
1
0
CIRCLE
5
108
100
AcDbEntity
8
0
100
AcDbCircle
10
339.87045093164681
20
-124.27617394951793
30
0
40
3.0000000000000493
210
0
220
0
230
1
0
ENDSEC
0
SECTION
2
OBJECTS
0
DICTIONARY
5
C
100
AcDbDictionary
3
ACAD_GROUP
350
D
3
ACAD_MLINESTYLE
350
17
0
DICTIONARY
5
D
100
AcDbDictionary
0
DICTIONARY
5
1A
330
C
100
AcDbDictionary
0
DICTIONARY
5
17
100
AcDbDictionary
0
ENDSEC
0
EOF
