0
SECTION
2
HEADER
9
$INSUNITS
70
4
9
$ACADVER
1
AC1014
9
$HANDSEED
5
FFFF
0
ENDSEC
0
SECTION
2
TABLES
0
TABLE
2
VPORT
5
8
100
AcDbSymbolTable
0
ENDTAB
0
TABLE
2
LTYPE
5
5
100
AcDbSymbolTable
0
LTYPE
5
14
100
AcDbSymbolTableRecord
100
AcDbLinetypeTableRecord
2
BYBLOCK
70
0
0
LTYPE
5
15
100
AcDbSymbolTableRecord
100
AcDbLinetypeTableRecord
2
BYLAYER
70
0
0
ENDTAB
0
TABLE
2
LAYER
5
2
100
AcDbSymbolTable
70
2
0
LAYER
5
50
100
AcDbSymbolTableRecord
100
AcDbLayerTableRecord
2
0
70
0
6
CONTINUOUS
0
ENDTAB
0
TABLE
2
STYLE
5
3
100
AcDbSymbolTable
70
1
0
STYLE
5
11
100
AcDbSymbolTableRecord
100
AcDbTextStyleTableRecord
2
STANDARD
70
0
0
ENDTAB
0
TABLE
2
VIEW
5
6
100
AcDbSymbolTable
70
0
0
ENDTAB
0
TABLE
2
UCS
5
7
100
AcDbSymbolTable
70
0
0
ENDTAB
0
TABLE
2
APPID
5
9
100
AcDbSymbolTable
70
2
0
APPID
5
12
100
AcDbSymbolTableRecord
100
AcDbRegAppTableRecord
2
ACAD
70
0
0
ENDTAB
0
TABLE
2
DIMSTYLE
5
A
100
AcDbSymbolTable
70
1
0
ENDTAB
0
TABLE
2
BLOCK_RECORD
5
1
100
AcDbSymbolTable
70
1
0
BLOCK_RECORD
5
1F
100
AcDbSymbolTableRecord
100
AcDbBlockTableRecord
2
*MODEL_SPACE
0
BLOCK_RECORD
5
1B
100
AcDbSymbolTableRecord
100
AcDbBlockTableRecord
2
*PAPER_SPACE
0
ENDTAB
0
ENDSEC
0
SECTION
2
BLOCKS
0
BLOCK
5
20
100
AcDbEntity
100
AcDbBlockBegin
2
*MODEL_SPACE
0
ENDBLK
5
21
100
AcDbEntity
100
AcDbBlockEnd
0
BLOCK
5
1C
100
AcDbEntity
100
AcDbBlockBegin
2
*PAPER_SPACE
0
ENDBLK
5
1D
100
AcDbEntity
100
AcDbBlockEnd
0
ENDSEC
0
SECTION
2
ENTITIES
0
LWPOLYLINE
5
100
100
AcDbEntity
8
0
100
AcDbPolyline
90
24
70
1
43
0.0
10
569.875
20
155.27499999999998
42
-0.41421356237307422
10
570.875
20
156.27499999999998
10
615.51875000000007
20
156.27499999999998
42
-0.41421356237309503
10
616.51875000000007
20
155.27499999999998
10
616.51875000000007
20
141.69
42
0.41421356237307422
10
617.51875000000018
20
140.69000000000005
10
622.51874999999995
20
140.69
42
0.41421356237306384
10
623.51875000000007
20
141.69
10
623.51875000000007
20
158.63
42
0.41421356237303258
10
622.51875000000018
20
159.63
10
503.22499999999997
20
159.62999999999994
42
0.41421356237311585
10
502.22499999999997
20
158.63
10
502.22499999999997
20
141.69
42
0.41421356237309503
10
503.22499999999997
20
140.69
10
508.22499999999997
20
140.68999999999997
42
0.41421356237309503
10
509.22500000000002
20
141.69
10
509.22500000000002
20
155.27500000000001
42
-0.41421356237310025
10
510.22499999999991
20
156.27500000000001
10
554.87500000000023
20
156.27499999999995
42
-0.41421356237310542
10
555.87500000000023
20
155.27499999999998
10
555.875
20
143.27500000000001
42
0.41421356237313667
10
556.875
20
142.27500000000001
10
568.875
20
142.27500000000006
42
0.41421356237309503
10
569.875
20
143.27500000000001
0
LWPOLYLINE
5
101
100
AcDbEntity
8
0
100
AcDbPolyline
90
8
70
1
43
0.0
10
592.6875
20
161.32500000000005
42
0.41421356237310542
10
593.6875
20
162.32500000000002
10
593.6875
20
174.32500000000002
42
0.41421356237307422
10
592.6875
20
175.32499999999999
10
580.6875
20
175.32500000000002
42
0.4142135623730534
10
579.6875
20
174.32500000000002
10
579.68750000000011
20
162.32500000000002
42
0.41421356237307422
10
580.6875
20
161.32499999999999
0
LWPOLYLINE
5
102
100
AcDbEntity
8
0
100
AcDbPolyline
90
8
70
1
43
0.0
10
599.73750000000007
20
161.32499999999999
42
-0.41421356237313667
10
598.73749999999995
20
162.32500000000002
10
598.73749999999995
20
174.32500000000002
42
-0.41421356237311585
10
599.73750000000007
20
175.32499999999999
10
611.73749999999995
20
175.32500000000002
42
-0.41421356237303258
10
612.73750000000007
20
174.32500000000002
10
612.73750000000007
20
162.32500000000002
42
-0.41421356237299095
10
611.73749999999995
20
161.32499999999999
0
LWPOLYLINE
5
103
100
AcDbEntity
8
0
100
AcDbPolyline
90
8
70
1
43
0.0
10
574.63749999999993
20
162.32500000000002
42
-0.41421356237309503
10
573.63749999999993
20
161.32499999999999
10
561.63750000000005
20
161.32499999999993
42
-0.41421356237307422
10
560.63750000000005
20
162.32500000000002
10
560.63750000000005
20
174.32500000000002
42
-0.41421356237306384
10
561.63750000000005
20
175.32499999999999
10
573.63749999999993
20
175.32499999999999
42
-0.4142135623730846
10
574.63749999999993
20
174.32500000000002
0
LWPOLYLINE
5
104
100
AcDbEntity
8
0
100
AcDbPolyline
90
8
70
1
43
0.0
10
517.48749999999995
20
162.32500000000002
10
517.48749999999995
20
174.32500000000002
42
0.4142135623730846
10
516.48749999999995
20
175.32499999999999
10
504.48750000000007
20
175.32499999999999
42
0.4142135623730846
10
503.48750000000001
20
174.32500000000002
10
503.48749999999995
20
162.32500000000002
42
0.4142135623730846
10
504.48750000000007
20
161.32499999999999
10
516.48749999999995
20
161.32500000000005
42
0.4142135623730846
0
LWPOLYLINE
5
105
100
AcDbEntity
8
0
100
AcDbPolyline
90
8
70
1
43
0.0
10
456.86250000000001
20
194.375
10
468.86250000000007
20
194.37499999999994
42
-0.41421356237309503
10
469.86249999999995
20
193.375
10
469.86249999999995
20
181.375
42
-0.41421356237309503
10
468.86250000000007
20
180.375
10
456.86250000000001
20
180.37499999999997
42
-0.41421356237309503
10
455.86250000000001
20
181.375
10
455.86250000000001
20
193.375
42
-0.41421356237309503
0
LWPOLYLINE
5
106
100
AcDbEntity
8
0
100
AcDbPolyline
90
8
70
1
43
0.0
10
474.91250000000002
20
181.375
10
474.91250000000002
20
193.375
42
-0.41421356237309503
10
475.91250000000002
20
194.375
10
487.91249999999997
20
194.375
42
-0.41421356237309503
10
488.91250000000002
20
193.375
10
488.91250000000002
20
181.375
42
-0.41421356237309503
10
487.91249999999997
20
180.375
10
475.91250000000002
20
180.37499999999997
42
-0.41421356237309503
0
LWPOLYLINE
5
107
100
AcDbEntity
8
0
100
AcDbPolyline
90
8
70
1
43
0.0
10
427.28749999999997
20
200.42500000000001
10
427.28750000000002
20
212.42500000000001
42
-0.41421356237309503
10
428.28750000000002
20
213.42499999999998
10
440.28750000000002
20
213.42499999999995
42
-0.41421356237309503
10
441.28749999999997
20
212.42500000000001
10
441.28750000000002
20
200.42500000000001
42
-0.41421356237309503
10
440.28750000000002
20
199.42499999999998
10
428.28750000000002
20
199.42499999999998
42
-0.41421356237309503
0
LWPOLYLINE
5
108
100
AcDbEntity
8
0
100
AcDbPolyline
90
8
70
1
43
0.0
10
685.46249999999998
20
142.27499999999998
10
697.46250000000009
20
142.27499999999998
42
0.41421356237310542
10
698.46249999999998
20
143.27499999999998
10
698.46249999999998
20
155.27500000000001
42
0.41421356237310025
10
697.46250000000009
20
156.27500000000001
10
685.46249999999998
20
156.27499999999998
42
0.41421356237314183
10
684.46249999999986
20
155.27500000000001
10
684.46249999999986
20
143.27500000000001
42
0.41421356237316265
0
LWPOLYLINE
5
109
100
AcDbEntity
8
0
100
AcDbPolyline
90
8
70
1
43
0.0
10
493.96250000000003
20
181.375
10
493.96250000000003
20
193.375
42
-0.41421356237309503
10
494.96250000000003
20
194.375
10
506.96250000000009
20
194.37499999999997
42
-0.41421356237306384
10
507.96249999999998
20
193.375
10
507.96249999999998
20
181.375
42
-0.4142135623730846
10
506.96249999999998
20
180.375
10
494.96250000000003
20
180.37499999999997
42
-0.41421356237309503
0
LWPOLYLINE
5
110
100
AcDbEntity
8
0
100
AcDbPolyline
90
8
70
1
43
0.0
10
536.53750000000002
20
174.32500000000002
10
536.53750000000002
20
162.32500000000002
42
-0.41421356237309503
10
535.53750000000002
20
161.32499999999999
10
523.53750000000002
20
161.32499999999999
42
-0.41421356237309503
10
522.53749999999991
20
162.32500000000002
10
522.53749999999991
20
174.32500000000002
42
-0.41421356237309503
10
523.53750000000002
20
175.32499999999999
10
535.53749999999991
20
175.32499999999999
42
-0.4142135623730846
0
LWPOLYLINE
5
111
100
AcDbEntity
8
0
100
AcDbPolyline
90
8
70
1
43
0.0
10
427.28749999999997
20
143.27500000000003
10
427.28750000000002
20
155.27499999999998
42
-0.41421356237310542
10
428.28750000000002
20
156.27499999999998
10
440.28750000000002
20
156.27499999999995
42
-0.41421356237308982
10
441.28749999999997
20
155.27500000000001
10
441.28750000000002
20
143.27500000000001
42
-0.41421356237309503
10
440.28750000000002
20
142.27500000000001
10
428.28750000000002
20
142.27500000000001
42
-0.41421356237309503
0
LWPOLYLINE
5
112
100
AcDbEntity
8
0
100
AcDbPolyline
90
8
70
1
43
0.0
10
443.66874999999999
20
181.375
10
443.66874999999999
20
193.375
42
0.41421356237309503
10
442.66874999999999
20
194.375
10
425.90625
20
194.375
42
0.41421356237309503
10
424.90625
20
193.375
10
424.90625000000011
20
181.375
42
0.41421356237309503
10
425.90625
20
180.375
10
442.66874999999999
20
180.37499999999997
42
0.41421356237309503
0
CIRCLE
5
113
100
AcDbEntity
8
0
100
AcDbCircle
10
706.22500000000002
20
135.27499999999998
30
0
40
2.9999999999999916
210
0
220
0
230
1
0
LWPOLYLINE
5
114
100
AcDbEntity
8
0
100
AcDbPolyline
90
8
70
1
43
0.0
10
541.58749999999998
20
162.32500000000002
10
541.58749999999998
20
174.32500000000002
42
-0.41421356237309503
10
542.58749999999998
20
175.32499999999999
10
554.58750000000009
20
175.32499999999999
42
-0.41421356237306384
10
555.58750000000009
20
174.32500000000002
10
555.58750000000009
20
162.32500000000002
42
-0.41421356237312623
10
554.58749999999998
20
161.32499999999999
10
542.58749999999998
20
161.32499999999999
42
-0.41421356237309503
0
LWPOLYLINE
5
115
100
AcDbEntity
8
0
100
AcDbPolyline
90
8
70
1
43
0.0
10
631.78750000000002
20
162.32500000000002
10
631.78749999999991
20
174.32500000000002
42
0.41421356237309503
10
630.78750000000002
20
175.32499999999999
10
618.78749999999991
20
175.32499999999999
42
0.41421356237306384
10
617.78750000000002
20
174.32500000000002
10
617.78750000000002
20
162.32500000000002
42
0.41421356237312623
10
618.78749999999991
20
161.32499999999993
10
630.78750000000002
20
161.32499999999999
42
0.41421356237309503
0
LWPOLYLINE
5
116
100
AcDbEntity
8
0
100
AcDbPolyline
90
8
70
1
43
0.0
10
464.09999999999997
20
199.42499999999998
10
452.10000000000002
20
199.42499999999998
42
-0.41421356237309503
10
451.10000000000002
20
200.42500000000001
10
451.10000000000002
20
212.42500000000001
42
-0.41421356237309503
10
452.10000000000002
20
213.42499999999998
10
464.09999999999997
20
213.42500000000007
42
-0.41421356237309503
10
465.10000000000002
20
212.42500000000001
10
465.09999999999997
20
200.42500000000001
42
-0.41421356237309503
0
LWPOLYLINE
5
117
100
AcDbEntity
8
0
100
AcDbPolyline
90
8
70
1
43
0.0
10
465.09999999999997
20
143.27500000000001
42
-0.41421356237307944
10
464.09999999999997
20
142.27500000000003
10
452.10000000000002
20
142.27500000000001
42
-0.41421356237308982
10
451.10000000000002
20
143.27500000000001
10
451.10000000000002
20
155.27500000000001
42
-0.41421356237308982
10
452.10000000000002
20
156.27500000000001
10
464.09999999999997
20
156.27500000000001
42
-0.41421356237311063
10
465.10000000000002
20
155.27500000000001
0
LWPOLYLINE
5
118
100
AcDbEntity
8
0
100
AcDbPolyline
90
14
70
1
43
0.0
10
711.22500000000002
20
133.27499999999992
42
-0.41421356237309503
10
709.22500000000002
20
131.27499999999998
10
416.52500000000003
20
131.27499999999998
42
-0.41421356237310542
10
414.52499999999998
20
133.27499999999992
10
414.52499999999998
20
241.47499999999997
42
-0.41421356237309503
10
416.52500000000003
20
243.47499999999997
10
430.93599667316869
20
243.47500000000008
42
-0.37338743347353526
10
431.92602033088531
20
242.61590123193753
10
432.40505901492446
20
239.25
10
445.69494098507562
20
239.25
10
446.17397966911477
20
242.61590123193753
42
-0.37338743347353526
10
447.16400332683133
20
243.47499999999997
10
709.22500000000002
20
243.47499999999999
42
-0.41421356237309503
10
711.22500000000002
20
241.47499999999997
0
LWPOLYLINE
5
119
100
AcDbEntity
8
0
100
AcDbPolyline
90
8
70
1
43
0.0
10
484.14999999999998
20
212.42500000000001
10
484.14999999999998
20
200.42500000000001
42
-0.41421356237309503
10
483.14999999999998
20
199.42499999999998
10
471.15000000000003
20
199.42499999999998
42
-0.41421356237309503
10
470.14999999999998
20
200.42500000000001
10
470.14999999999998
20
212.42500000000001
42
-0.41421356237309503
10
471.15000000000003
20
213.42499999999998
10
483.14999999999998
20
213.42500000000001
42
-0.41421356237309503
0
LWPOLYLINE
5
120
100
AcDbEntity
8
0
100
AcDbPolyline
90
8
70
1
43
0.0
10
489.20000000000005
20
212.42499999999995
10
489.20000000000005
20
200.42500000000001
42
0.41421356237309503
10
490.20000000000005
20
199.42499999999998
10
502.19999999999999
20
199.42500000000001
42
0.4142135623730846
10
503.19999999999999
20
200.42500000000001
10
503.19999999999999
20
212.42500000000001
42
0.4142135623730846
10
502.19999999999999
20
213.42499999999998
10
490.19999999999993
20
213.42499999999998
42
0.41421356237307422
0
LWPOLYLINE
5
121
100
AcDbEntity
8
0
100
AcDbPolyline
90
8
70
1
43
0.0
10
636.83750000000009
20
143.27500000000001
10
636.83750000000009
20
155.27500000000001
42
-0.41421356237312101
10
637.83750000000009
20
156.27499999999998
10
649.83749999999998
20
156.27500000000012
42
-0.4142135623730534
10
650.83749999999998
20
155.27500000000003
10
650.83750000000009
20
143.27499999999995
42
-0.41421356237308982
10
649.83749999999998
20
142.27499999999995
10
637.83749999999998
20
142.27499999999989
42
-0.41421356237306384
0
LWPOLYLINE
5
122
100
AcDbEntity
8
0
100
AcDbPolyline
90
8
70
1
43
0.0
10
636.83750000000009
20
174.32500000000002
10
636.83750000000009
20
162.32500000000002
42
0.4142135623730846
10
637.83750000000009
20
161.32499999999993
10
649.83749999999986
20
161.32499999999996
42
0.41421356237307422
10
650.83750000000009
20
162.32499999999999
10
650.83750000000009
20
174.32500000000002
42
0.41421356237314705
10
649.83749999999998
20
175.32500000000002
10
637.83749999999998
20
175.32499999999999
42
0.41421356237306384
0
LWPOLYLINE
5
123
100
AcDbEntity
8
0
100
AcDbPolyline
90
8
70
1
43
0.0
10
660.64999999999998
20
143.27500000000001
42
0.41421356237316265
10
661.65000000000009
20
142.27499999999998
10
673.65000000000009
20
142.27499999999989
42
0.41421356237304302
10
674.65000000000009
20
143.27499999999995
10
674.65000000000009
20
155.27500000000001
42
0.41421356237310025
10
673.65000000000009
20
156.27500000000001
10
661.65000000000009
20
156.27499999999998
42
0.41421356237314183
10
660.64999999999998
20
155.27500000000001
0
LWPOLYLINE
5
124
100
AcDbEntity
8
0
100
AcDbPolyline
90
8
70
1
43
0.0
10
499.72499999999997
20
232.47499999999999
10
511.72500000000002
20
232.47500000000002
42
-0.41421356237309503
10
512.72500000000002
20
231.47500000000002
10
512.72499999999991
20
219.47499999999997
42
-0.41421356237310542
10
511.72500000000002
20
218.47499999999999
10
499.72499999999997
20
218.47500000000002
42
-0.41421356237309503
10
498.72500000000002
20
219.47499999999997
10
498.72500000000002
20
231.47500000000002
42
-0.41421356237309503
0
LWPOLYLINE
5
125
100
AcDbEntity
8
0
100
AcDbPolyline
90
8
70
1
43
0.0
10
551.11249999999995
20
193.375
42
-0.41421356237309503
10
552.11249999999995
20
194.375
10
564.11250000000007
20
194.375
42
-0.41421356237309503
10
565.11250000000007
20
193.375
10
565.11250000000007
20
181.375
42
-0.41421356237309503
10
564.11250000000007
20
180.37499999999997
10
552.11249999999995
20
180.37499999999997
42
-0.41421356237309503
10
551.11249999999995
20
181.375
0
LWPOLYLINE
5
126
100
AcDbEntity
8
0
100
AcDbPolyline
90
8
70
1
43
0.0
10
627.3125
20
181.375
42
0.41421356237314705
10
628.31250000000011
20
180.37499999999997
10
640.3125
20
180.37500000000006
42
0.41421356237309503
10
641.3125
20
181.375
10
641.3125
20
193.375
42
0.41421356237309503
10
640.3125
20
194.375
10
628.3125
20
194.375
42
0.41421356237307422
10
627.3125
20
193.375
0
LWPOLYLINE
5
127
100
AcDbEntity
8
0
100
AcDbPolyline
90
8
70
1
43
0.0
10
646.36250000000007
20
181.375
10
646.36250000000007
20
193.375
42
-0.41421356237310542
10
647.36249999999995
20
194.375
10
659.36249999999995
20
194.37499999999994
42
-0.41421356237309503
10
660.36249999999995
20
193.375
10
660.36249999999995
20
181.375
42
-0.41421356237309503
10
659.36249999999995
20
180.375
10
647.36249999999995
20
180.37499999999991
42
-0.4142135623730534
0
LWPOLYLINE
5
128
100
AcDbEntity
8
0
100
AcDbPolyline
90
8
70
1
43
0.0
10
622.55000000000007
20
212.42500000000001
42
-0.41421356237309503
10
623.55000000000007
20
213.42499999999998
10
635.55000000000007
20
213.42500000000001
42
-0.41421356237313667
10
636.55000000000007
20
212.42500000000001
10
636.55000000000007
20
200.42500000000001
42
-0.41421356237313667
10
635.55000000000007
20
199.42499999999998
10
623.55000000000007
20
199.42499999999998
42
-0.41421356237309503
10
622.55000000000007
20
200.42500000000001
0
LWPOLYLINE
5
129
100
AcDbEntity
8
0
100
AcDbPolyline
90
8
70
1
43
0.0
10
632.07500000000005
20
219.47499999999997
10
632.07499999999993
20
231.47500000000002
42
-0.41421356237307422
10
633.07500000000005
20
232.47500000000002
10
645.07499999999993
20
232.47500000000008
42
-0.41421356237309503
10
646.07500000000005
20
231.47500000000002
10
646.07500000000005
20
219.47499999999997
42
-0.41421356237313667
10
645.07499999999993
20
218.47499999999999
10
633.07500000000005
20
218.47499999999999
42
-0.41421356237304302
0
LWPOLYLINE
5
130
100
AcDbEntity
8
0
100
AcDbPolyline
90
8
70
1
43
0.0
10
513.01249999999993
20
181.375
42
0.4142135623730846
10
514.01250000000005
20
180.37499999999997
10
526.01249999999993
20
180.375
42
0.4142135623730846
10
527.01250000000005
20
181.375
10
527.01250000000005
20
193.375
42
0.41421356237312623
10
526.01250000000005
20
194.375
10
514.01250000000005
20
194.37499999999997
42
0.4142135623730846
10
513.01250000000005
20
193.375
0
LWPOLYLINE
5
131
100
AcDbEntity
8
0
100
AcDbPolyline
90
8
70
1
43
0.0
10
627.02500000000009
20
231.47500000000002
42
0.41421356237315748
10
626.02500000000009
20
232.47499999999999
10
614.02500000000009
20
232.47500000000002
42
0.41421356237307422
10
613.02500000000009
20
231.47500000000002
10
613.02500000000009
20
219.47499999999997
42
0.41421356237309503
10
614.02500000000009
20
218.47499999999999
10
626.02500000000009
20
218.47499999999997
42
0.41421356237307422
10
627.02499999999998
20
219.47499999999997
0
LWPOLYLINE
5
132
100
AcDbEntity
8
0
100
AcDbPolyline
90
8
70
1
43
0.0
10
641.59999999999991
20
212.42500000000001
42
-0.41421356237307422
10
642.60000000000002
20
213.42500000000001
10
654.60000000000014
20
213.42499999999995
42
-0.41421356237309503
10
655.60000000000002
20
212.42500000000001
10
655.60000000000014
20
200.42500000000001
42
-0.41421356237309503
10
654.60000000000014
20
199.42499999999995
10
642.60000000000014
20
199.42499999999984
42
-0.41421356237303258
10
641.59999999999991
20
200.42500000000001
0
LWPOLYLINE
5
133
100
AcDbEntity
8
0
100
AcDbPolyline
90
8
70
1
43
0.0
10
622.26249999999993
20
181.375
42
-0.41421356237309503
10
621.26250000000005
20
180.375
10
609.26250000000005
20
180.37499999999997
42
-0.41421356237307422
10
608.26250000000005
20
181.375
10
608.26250000000005
20
193.375
42
-0.4142135623730534
10
609.26249999999993
20
194.37499999999997
10
621.26250000000005
20
194.375
42
-0.41421356237309503
10
622.26250000000005
20
193.375
0
LWPOLYLINE
5
134
100
AcDbEntity
8
0
100
AcDbPolyline
90
8
70
1
43
0.0
10
651.125
20
231.47500000000002
42
-0.41421356237314705
10
652.125
20
232.47499999999999
10
664.125
20
232.47500000000008
42
-0.41421356237309503
10
665.125
20
231.47500000000002
10
665.125
20
219.47499999999997
42
-0.41421356237313667
10
664.125
20
218.47499999999999
10
652.125
20
218.47500000000008
42
-0.41421356237309503
10
651.12500000000011
20
219.47500000000002
0
LWPOLYLINE
5
135
100
AcDbEntity
8
0
100
AcDbPolyline
90
8
70
1
43
0.0
10
660.64999999999998
20
200.42500000000001
42
0.41421356237313667
10
661.65000000000009
20
199.42500000000001
10
673.65000000000009
20
199.42500000000007
42
0.41421356237309503
10
674.65000000000009
20
200.42500000000001
10
674.65000000000009
20
212.42500000000001
42
0.4142135623730534
10
673.65000000000009
20
213.42500000000004
10
661.65000000000009
20
213.42499999999995
42
0.41421356237313667
10
660.64999999999998
20
212.42500000000001
0
LWPOLYLINE
5
136
100
AcDbEntity
8
0
100
AcDbPolyline
90
8
70
1
43
0.0
10
566.39999999999998
20
199.42499999999998
10
578.40000000000009
20
199.42500000000007
42
0.41421356237309503
10
579.39999999999998
20
200.42500000000001
10
579.40000000000009
20
212.42500000000001
42
0.41421356237309503
10
578.40000000000009
20
213.42500000000001
10
566.39999999999998
20
213.42499999999998
42
0.41421356237310542
10
565.40000000000009
20
212.42500000000001
10
565.39999999999998
20
200.42500000000001
42
0.41421356237309503
0
LWPOLYLINE
5
137
100
AcDbEntity
8
0
100
AcDbPolyline
90
8
70
1
43
0.0
10
549.82500000000005
20
232.47500000000002
42
-0.4142135623730534
10
550.82500000000005
20
231.47500000000002
10
550.82500000000005
20
219.47499999999997
42
-0.41421356237307422
10
549.82500000000005
20
218.47499999999999
10
537.82500000000005
20
218.47500000000002
42
-0.41421356237309503
10
536.82500000000005
20
219.47499999999997
10
536.82500000000005
20
231.47500000000002
42
-0.41421356237310542
10
537.82500000000005
20
232.47499999999999
0
LWPOLYLINE
5
138
100
AcDbEntity
8
0
100
AcDbPolyline
90
8
70
1
43
0.0
10
697.46250000000009
20
199.42499999999995
10
685.46249999999998
20
199.42499999999993
42
-0.41421356237309503
10
684.46249999999986
20
200.42500000000001
10
684.46250000000009
20
212.42500000000001
42
-0.41421356237309503
10
685.46249999999998
20
213.42499999999998
10
697.46250000000009
20
213.42500000000007
42
-0.4142135623730534
10
698.46249999999998
20
212.42500000000001
10
698.46249999999998
20
200.42500000000001
42
-0.4142135623730222
0
ARC
5
139
100
AcDbEntity
8
0
100
AcDbCircle
10
652.12499999999989
20
231.47500000000005
30
0
40
0.99999999999994316
210
0
220
-0
230
1
100
AcDbArc
50
89.999999999993491
51
180
0
LWPOLYLINE
5
140
100
AcDbEntity
8
0
100
AcDbPolyline
90
8
70
1
43
0.0
10
570.16250000000014
20
181.375
10
570.16250000000014
20
193.375
42
-0.41421356237307422
10
571.16250000000014
20
194.375
10
583.16249999999991
20
194.37500000000003
42
-0.41421356237304302
10
584.16250000000002
20
193.375
10
584.16250000000002
20
181.375
42
-0.41421356237306384
10
583.16250000000014
20
180.375
10
571.16250000000014
20
180.375
42
-0.41421356237306384
0
ARC
5
141
100
AcDbEntity
8
0
100
AcDbCircle
10
652.125
20
219.47500000000002
30
0
40
0.99999999999994316
210
0
220
0
230
1
100
AcDbArc
50
180
51
270
0
CIRCLE
5
142
100
AcDbEntity
8
0
100
AcDbCircle
10
515.0916666666667
20
135.27499999999998
30
0
40
2.9999999999999947
210
0
220
0
230
1
0
LWPOLYLINE
5
143
100
AcDbEntity
8
0
100
AcDbPolyline
90
8
70
1
43
0.0
10
492.67499999999995
20
232.47499999999999
42
-0.41421356237309503
10
493.67500000000001
20
231.47499999999997
10
493.67500000000001
20
219.47499999999997
42
-0.4142135623730846
10
492.67499999999995
20
218.47499999999999
10
480.67499999999995
20
218.47500000000002
42
-0.41421356237309503
10
479.67500000000001
20
219.47499999999997
10
479.67500000000001
20
231.47500000000002
42
-0.41421356237309503
10
480.67499999999995
20
232.47499999999999
0
LWPOLYLINE
5
144
100
AcDbEntity
8
0
100
AcDbPolyline
90
8
70
1
43
0.0
10
461.625
20
232.47499999999999
10
473.625
20
232.47500000000002
42
-0.41421356237309503
10
474.625
20
231.47500000000002
10
474.62499999999989
20
219.47499999999997
42
-0.41421356237309503
10
473.625
20
218.47499999999999
10
461.625
20
218.47499999999997
42
-0.41421356237309503
10
460.625
20
219.47499999999997
10
460.625
20
231.47500000000002
42
-0.41421356237309503
0
LWPOLYLINE
5
145
100
AcDbEntity
8
0
100
AcDbPolyline
90
8
70
1
43
0.0
10
479.38750000000005
20
162.32500000000002
42
-0.41421356237309503
10
478.38750000000005
20
161.32499999999999
10
466.38750000000005
20
161.32500000000005
42
-0.4142135623730846
10
465.38749999999999
20
162.32500000000002
10
465.38750000000005
20
174.32500000000002
42
-0.41421356237309503
10
466.38750000000005
20
175.32499999999999
10
478.38750000000005
20
175.32499999999996
42
-0.41421356237309503
10
479.38749999999999
20
174.32500000000002
0
LWPOLYLINE
5
146
100
AcDbEntity
8
0
100
AcDbPolyline
90
8
70
1
43
0.0
10
422.52499999999998
20
231.47500000000002
42
-0.41421356237309503
10
423.52499999999998
20
232.47499999999999
10
435.52500000000003
20
232.47500000000002
42
-0.41421356237309503
10
436.52500000000003
20
231.47500000000002
10
436.52500000000003
20
219.47499999999997
42
-0.4142135623730846
10
435.52500000000003
20
218.47499999999999
10
423.52499999999998
20
218.47499999999997
42
-0.41421356237309503
10
422.52499999999998
20
219.47499999999997
0
LWPOLYLINE
5
147
100
AcDbEntity
8
0
100
AcDbPolyline
90
8
70
1
43
0.0
10
498.4375
20
162.32500000000002
42
-0.41421356237309503
10
497.4375
20
161.32499999999999
10
485.4375
20
161.32499999999999
42
-0.41421356237309503
10
484.4375
20
162.32500000000002
10
484.43750000000011
20
174.32500000000002
42
-0.41421356237309503
10
485.4375
20
175.32499999999999
10
497.4375
20
175.32500000000002
42
-0.41421356237309503
10
498.4375
20
174.32500000000002
0
LWPOLYLINE
5
148
100
AcDbEntity
8
0
100
AcDbPolyline
90
25
70
1
43
0.0
10
448.43124999999998
20
174.32499999999999
42
0.41421356237304302
10
447.43125000000009
20
175.32500000000002
10
435.43125000000003
20
175.32500000000002
42
0.41421356237310542
10
434.43125000000003
20
174.32499999999999
10
434.43125000000009
20
161.82499999999999
42
-0.41421356237309503
10
433.93125000000003
20
161.32499999999996
10
433.4932500000001
20
161.32499999999999
42
-0.41421356237309503
10
432.9932500000001
20
161.82499999999999
10
432.9932500000001
20
175.90999999999997
42
0.4142135623730846
10
431.9932500000001
20
176.90999999999997
10
426.99325000000033
20
176.91000000000003
42
0.41421356237309503
10
425.99325000000027
20
175.91000000000003
10
425.9932500000001
20
158.96999999999997
42
0.41421356237306384
10
426.99324999999999
20
157.96999999999997
10
441.43125000000003
20
157.96999999999997
10
455.86925000000002
20
157.96999999999997
42
0.41421356237308982
10
456.86925000000002
20
158.96999999999997
10
456.86925000000002
20
175.91000000000003
42
0.4142135623730846
10
455.86925000000002
20
176.91
10
450.86925000000008
20
176.91000000000003
42
0.41421356237306384
10
449.86924999999997
20
175.90999999999997
10
449.86924999999997
20
161.82500000000007
42
-0.41421356237309503
10
449.36925000000002
20
161.32500000000007
10
448.931250000001
20
161.32500000000005
42
-0.41421356237315748
10
448.43125000000089
20
161.82499999999999
0
LWPOLYLINE
5
149
100
AcDbEntity
8
0
100
AcDbPolyline
90
8
70
1
43
0.0
10
441.57499999999999
20
219.47499999999997
10
441.57499999999999
20
231.47500000000002
42
-0.41421356237309503
10
442.57499999999999
20
232.47499999999999
10
454.57499999999993
20
232.47500000000008
42
-0.41421356237309503
10
455.57500000000005
20
231.47500000000002
10
455.57499999999999
20
219.47499999999997
42
-0.4142135623730846
10
454.57499999999993
20
218.47499999999999
10
442.57499999999999
20
218.47499999999997
42
-0.41421356237309503
0
CIRCLE
5
150
100
AcDbEntity
8
0
100
AcDbCircle
10
419.52499999999998
20
135.27499999999998
30
0
40
3.0000000000000031
210
0
220
0
230
1
0
LWPOLYLINE
5
151
100
AcDbEntity
8
0
100
AcDbPolyline
90
8
70
1
43
0.0
10
488.91250000000002
20
143.27500000000001
10
488.91250000000002
20
155.27500000000001
42
0.41421356237309503
10
487.91249999999997
20
156.27500000000001
10
475.91250000000002
20
156.27499999999998
42
0.41421356237309503
10
474.91250000000002
20
155.27499999999998
10
474.91250000000008
20
143.27500000000001
42
0.41421356237309503
10
475.91250000000002
20
142.27500000000003
10
487.91249999999997
20
142.27500000000006
42
0.41421356237307422
0
CIRCLE
5
152
100
AcDbEntity
8
0
100
AcDbCircle
10
419.52499999999998
20
239.47499999999994
30
0
40
3.0000000000000004
210
0
220
0
230
1
0
CIRCLE
5
153
100
AcDbEntity
8
0
100
AcDbCircle
10
610.65833333333342
20
135.27499999999998
30
0
40
3.0000000000000071
210
0
220
0
230
1
0
CIRCLE
5
154
100
AcDbEntity
8
0
100
AcDbCircle
10
610.65833333333342
20
239.47499999999994
30
0
40
3.0000000000000071
210
0
220
0
230
1
0
LINE
5
155
100
AcDbEntity
8
0
100
AcDbLine
10
664.125
20
232.47500000000002
30
0
11
652.125
21
232.47499999999999
31
0
0
CIRCLE
5
156
100
AcDbEntity
8
0
100
AcDbCircle
10
515.0916666666667
20
239.47499999999994
30
0
40
3.0000000000000071
210
0
220
0
230
1
0
LINE
5
157
100
AcDbEntity
8
0
100
AcDbLine
10
652.125
20
218.47499999999999
30
0
11
664.125
21
218.47499999999999
31
0
0
LWPOLYLINE
5
158
100
AcDbEntity
8
0
100
AcDbPolyline
90
8
70
1
43
0.0
10
545.0625
20
180.37499999999997
10
533.0625
20
180.37499999999997
42
-0.41421356237309503
10
532.0625
20
181.375
10
532.0625
20
193.375
42
-0.41421356237307422
10
533.0625
20
194.375
10
545.0625
20
194.375
42
-0.41421356237309503
10
546.0625
20
193.375
10
546.0625
20
181.375
42
-0.41421356237309503
0
LWPOLYLINE
5
159
100
AcDbEntity
8
0
100
AcDbPolyline
90
8
70
1
43
0.0
10
575.92499999999995
20
232.47499999999999
10
587.92500000000007
20
232.47500000000002
42
-0.41421356237303258
10
588.92499999999995
20
231.47500000000002
10
588.92499999999995
20
219.47499999999997
42
-0.41421356237303258
10
587.92500000000007
20
218.47499999999997
10
575.92499999999995
20
218.47500000000002
42
-0.41421356237309503
10
574.92500000000007
20
219.47499999999997
10
574.92500000000007
20
231.47500000000002
42
-0.41421356237313667
0
LWPOLYLINE
5
160
100
AcDbEntity
8
0
100
AcDbPolyline
90
25
70
1
43
0.0
10
672.26200000000006
20
215.12
10
686.70000000000005
20
215.11999999999998
10
701.13799999999992
20
215.12000000000003
42
0.41421356237309503
10
702.13799999999992
20
216.11999999999998
10
702.13799999999992
20
233.06
42
0.41421356237309503
10
701.13799999999992
20
234.06
10
696.13799999999992
20
234.06
42
0.41421356237311585
10
695.13800000000003
20
233.05999999999997
10
695.13800000000003
20
218.97500000000011
42
-0.41421356237301177
10
694.63800000000003
20
218.47500000000008
10
694.20000000000084
20
218.47500000000008
42
-0.41421356237307422
10
693.70000000000095
20
218.97500000000002
10
693.70000000000005
20
231.47500000000002
42
0.41421356237307422
10
692.69999999999993
20
232.47500000000002
10
680.69999999999993
20
232.47499999999997
42
0.41421356237309503
10
679.70000000000005
20
231.47500000000002
10
679.70000000000016
20
218.97500000000002
42
-0.41421356237319906
10
679.20000000000005
20
218.47499999999999
10
678.76200000000017
20
218.47499999999985
42
-0.41421356237311585
10
678.26199999999994
20
218.97500000000002
10
678.26199999999994
20
233.05999999999997
42
0.41421356237309503
10
677.26200000000006
20
234.05999999999995
10
672.2620000000004
20
234.05999999999995
42
0.41421356237313667
10
671.26200000000028
20
233.06
10
671.26200000000017
20
216.12
42
0.41421356237309503
0
LWPOLYLINE
5
161
100
AcDbEntity
8
0
100
AcDbPolyline
90
8
70
1
43
0.0
10
617.5
20
212.42500000000001
10
617.50000000000011
20
200.42500000000001
42
-0.41421356237309503
10
616.5
20
199.42499999999998
10
604.5
20
199.42499999999998
42
-0.41421356237311585
10
603.50000000000011
20
200.42500000000001
10
603.50000000000011
20
212.42500000000001
42
-0.41421356237310542
10
604.5
20
213.42500000000001
10
616.5
20
213.42499999999995
42
-0.41421356237309503
0
LWPOLYLINE
5
162
100
AcDbEntity
8
0
100
AcDbPolyline
90
8
70
1
43
0.0
10
541.29999999999995
20
212.42500000000001
10
541.30000000000007
20
200.42500000000001
42
-0.41421356237309503
10
540.29999999999995
20
199.42499999999998
10
528.29999999999995
20
199.42500000000007
42
-0.41421356237309503
10
527.30000000000007
20
200.42500000000001
10
527.29999999999995
20
212.42500000000001
42
-0.4142135623730846
10
528.29999999999995
20
213.42499999999998
10
540.29999999999995
20
213.42499999999998
42
-0.41421356237310542
0
LWPOLYLINE
5
163
100
AcDbEntity
8
0
100
AcDbPolyline
90
8
70
1
43
0.0
10
602.21249999999998
20
194.37500000000003
10
590.21250000000009
20
194.375
42
0.41421356237307422
10
589.21249999999998
20
193.375
10
589.21250000000009
20
181.375
42
0.4142135623730846
10
590.21250000000009
20
180.375
10
602.21250000000009
20
180.37499999999997
42
0.4142135623730534
10
603.21250000000009
20
181.375
10
603.21249999999998
20
193.375
42
0.41421356237306384
0
LWPOLYLINE
5
164
100
AcDbEntity
8
0
100
AcDbPolyline
90
8
70
1
43
0.0
10
546.35000000000002
20
200.42500000000001
10
546.35000000000002
20
212.42500000000001
42
-0.41421356237309503
10
547.35000000000002
20
213.42500000000001
10
559.35000000000002
20
213.4249999999999
42
-0.4142135623730846
10
560.34999999999991
20
212.42500000000001
10
560.34999999999991
20
200.42500000000001
42
-0.41421356237306384
10
559.35000000000002
20
199.42499999999998
10
547.35000000000002
20
199.42499999999998
42
-0.41421356237309503
0
LWPOLYLINE
5
165
100
AcDbEntity
8
0
100
AcDbPolyline
90
8
70
1
43
0.0
10
607.97499999999991
20
219.47499999999997
42
-0.4142135623730534
10
606.97500000000002
20
218.47499999999997
10
594.97500000000002
20
218.47499999999999
42
-0.41421356237306384
10
593.97500000000014
20
219.47499999999997
10
593.97499999999991
20
231.47500000000002
42
-0.41421356237307422
10
594.97500000000002
20
232.47500000000002
10
606.97500000000002
20
232.47500000000002
42
-0.41421356237307422
10
607.97500000000002
20
231.47500000000002
0
LWPOLYLINE
5
166
100
AcDbEntity
8
0
100
AcDbPolyline
90
8
70
1
43
0.0
10
530.77499999999998
20
232.47499999999999
42
-0.4142135623730846
10
531.77499999999998
20
231.47500000000002
10
531.77499999999998
20
219.47499999999997
42
-0.41421356237312623
10
530.77499999999998
20
218.47499999999999
10
518.77499999999998
20
218.47499999999999
42
-0.41421356237310542
10
517.77500000000009
20
219.47499999999997
10
517.77500000000009
20
231.47500000000002
42
-0.41421356237310542
10
518.77499999999998
20
232.47499999999999
0
LWPOLYLINE
5
167
100
AcDbEntity
8
0
100
AcDbPolyline
90
8
70
1
43
0.0
10
508.25
20
200.42500000000001
10
508.25
20
212.42500000000001
42
-0.41421356237309503
10
509.25
20
213.42499999999998
10
521.25
20
213.42500000000001
42
-0.41421356237311585
10
522.25000000000011
20
212.42500000000001
10
522.25000000000011
20
200.42500000000001
42
-0.41421356237312623
10
521.25
20
199.42499999999998
10
509.25
20
199.42499999999998
42
-0.41421356237307422
0
LWPOLYLINE
5
168
100
AcDbEntity
8
0
100
AcDbPolyline
90
8
70
1
43
0.0
10
598.45000000000005
20
212.42500000000001
10
598.45000000000016
20
200.42500000000001
42
-0.41421356237309503
10
597.45000000000005
20
199.42499999999995
10
585.44999999999982
20
199.42499999999993
42
-0.41421356237307422
10
584.45000000000005
20
200.42500000000001
10
584.44999999999993
20
212.42500000000001
42
-0.41421356237307422
10
585.45000000000005
20
213.42500000000001
10
597.45000000000005
20
213.42500000000001
42
-0.41421356237309503
0
LWPOLYLINE
5
169
100
AcDbEntity
8
0
100
AcDbPolyline
90
8
70
1
43
0.0
10
568.875
20
218.47500000000002
42
0.41421356237307422
10
569.875
20
219.47499999999997
10
569.875
20
231.47500000000002
42
0.41421356237309503
10
568.875
20
232.47500000000002
10
556.875
20
232.47500000000002
42
0.41421356237309503
10
555.875
20
231.47500000000002
10
555.875
20
219.47499999999997
42
0.41421356237310542
10
556.875
20
218.47499999999999
0
CIRCLE
5
170
100
AcDbEntity
8
0
100
AcDbCircle
10
706.22500000000002
20
239.47499999999994
30
0
40
3.0000000000000071
210
0
220
0
230
1
0
ARC
5
171
100
AcDbEntity
8
0
100
AcDbCircle
10
664.12500000000011
20
219.47499999999997
30
0
40
0.99999999999997868
210
0
220
0
230
1
100
AcDbArc
50
-90.000000000006523
51
0
0
LINE
5
172
100
AcDbEntity
8
0
100
AcDbLine
10
665.125
20
219.47499999999997
30
0
11
665.125
21
231.47500000000002
31
0
0
LINE
5
173
100
AcDbEntity
8
0
100
AcDbLine
10
651.125
20
231.47500000000002
30
0
11
651.12500000000011
21
219.47500000000002
31
0
0
ARC
5
174
100
AcDbEntity
8
0
100
AcDbCircle
10
664.125
20
231.47500000000002
30
0
40
1.0000000000000853
210
0
220
-0
230
1
100
AcDbArc
50
0
51
90
0
LWPOLYLINE
5
175
100
AcDbEntity
8
0
100
AcDbPolyline
90
49
70
1
43
0.0
10
703.21525192968443
20
162.33863992351269
42
-0.4142135623730534
10
702.21525192968443
20
161.33863992351257
10
696.36797634463028
20
161.33863992351257
42
0.41421356237309503
10
695.36797634463028
20
160.33863992351257
10
695.36797634463028
20
158.84042600779259
10
695.36797634458117
20
158.84043300779263
42
-0.41421561262711609
10
694.36797634460561
20
157.84042600779259
10
664.86797334463017
20
157.84042600779262
10
664.86798034463027
20
157.84042600779264
42
-0.41421356237309503
10
663.86798034463027
20
158.84042600779259
10
663.86798034463027
20
158.84042400779265
10
663.86798034463027
20
161.35049462907318
42
-0.36975715541513982
10
663.0215019296844
20
162.3386399235126
10
663.0215019296844
20
174.33863992351249
42
-0.36975715541519683
10
663.86798034463027
20
175.32678521795185
10
663.86798034463027
20
176.34042600779253
10
663.86798034463027
20
176.34042400779251
42
-0.41421356237309503
10
664.86798034463027
20
177.34042400779254
10
664.86797334463017
20
177.34042400779254
10
667.85508008130546
20
177.34042400779254
42
0.4142135623730846
10
668.85508008130557
20
178.34042400779254
10
668.85508008130557
20
194.95142123257887
42
-0.41421356237309503
10
669.85508008130546
20
195.95142123257881
10
674.85508008130546
20
195.95142123257887
42
-0.41421356237303258
10
675.85508008130546
20
194.95142123257887
10
675.85508008130546
20
180.86642123257894
42
0.41421356237297013
10
676.35508008130546
20
180.366421232579
10
676.79308008130431
20
180.36642123257892
42
0.4142135623731783
10
677.29308008130431
20
180.86642123257889
10
677.29308008130545
20
193.36642123257883
42
-0.41421356237303258
10
678.29308008130533
20
194.36642123257883
10
690.29308008130545
20
194.36642123257877
42
-0.41421356237309503
10
691.29308008130533
20
193.36642123257883
10
691.29308008130533
20
180.86642123257889
42
0.41421356237309503
10
691.79308008130533
20
180.36642123257892
10
692.23108008130544
20
180.36642123257892
42
0.41421356237309503
10
692.73108008130532
20
180.86642123257889
10
692.73108008130532
20
194.95142123257887
42
-0.41421356237309503
10
693.73108008130532
20
195.95142123257881
10
698.73108008130521
20
195.95142123257887
42
-0.41421356237307422
10
699.73108008130544
20
194.95142123257887
10
699.73108008130521
20
178.01142123257898
42
-0.41421356237303258
10
698.73108008130532
20
177.01142123257895
10
695.78797634463035
20
177.01142123257895
42
0.41421356237307022
10
695.36797634463028
20
176.59142123257894
10
695.36797634463028
20
175.75863992351259
42
0.41421356237307022
10
695.78797634463035
20
175.3386399235126
10
702.2152519296842
20
175.33863992351272
42
-0.41421356237303258
10
703.21525192968443
20
174.33863992351257
0
ENDSEC
0
SECTION
2
OBJECTS
0
DICTIONARY
5
C
100
AcDbDictionary
3
ACAD_GROUP
350
D
3
ACAD_MLINESTYLE
350
17
0
DICTIONARY
5
D
100
AcDbDictionary
0
DICTIONARY
5
1A
330
C
100
AcDbDictionary
0
DICTIONARY
5
17
100
AcDbDictionary
0
ENDSEC
0
EOF
