0
SECTION
2
HEADER
9
$INSUNITS
70
4
9
$ACADVER
1
AC1014
9
$HANDSEED
5
FFFF
0
ENDSEC
0
SECTION
2
TABLES
0
TABLE
2
VPORT
5
8
100
AcDbSymbolTable
0
ENDTAB
0
TABLE
2
LTYPE
5
5
100
AcDbSymbolTable
0
LTYPE
5
14
100
AcDbSymbolTableRecord
100
AcDbLinetypeTableRecord
2
BYBLOCK
70
0
0
LTYPE
5
15
100
AcDbSymbolTableRecord
100
AcDbLinetypeTableRecord
2
BYLAYER
70
0
0
ENDTAB
0
TABLE
2
LAYER
5
2
100
AcDbSymbolTable
70
2
0
LAYER
5
50
100
AcDbSymbolTableRecord
100
AcDbLayerTableRecord
2
0
70
0
6
CONTINUOUS
0
ENDTAB
0
TABLE
2
STYLE
5
3
100
AcDbSymbolTable
70
1
0
STYLE
5
11
100
AcDbSymbolTableRecord
100
AcDbTextStyleTableRecord
2
STANDARD
70
0
0
ENDTAB
0
TABLE
2
VIEW
5
6
100
AcDbSymbolTable
70
0
0
ENDTAB
0
TABLE
2
UCS
5
7
100
AcDbSymbolTable
70
0
0
ENDTAB
0
TABLE
2
APPID
5
9
100
AcDbSymbolTable
70
2
0
APPID
5
12
100
AcDbSymbolTableRecord
100
AcDbRegAppTableRecord
2
ACAD
70
0
0
ENDTAB
0
TABLE
2
DIMSTYLE
5
A
100
AcDbSymbolTable
70
1
0
ENDTAB
0
TABLE
2
BLOCK_RECORD
5
1
100
AcDbSymbolTable
70
1
0
BLOCK_RECORD
5
1F
100
AcDbSymbolTableRecord
100
AcDbBlockTableRecord
2
*MODEL_SPACE
0
BLOCK_RECORD
5
1B
100
AcDbSymbolTableRecord
100
AcDbBlockTableRecord
2
*PAPER_SPACE
0
ENDTAB
0
ENDSEC
0
SECTION
2
BLOCKS
0
BLOCK
5
20
100
AcDbEntity
100
AcDbBlockBegin
2
*MODEL_SPACE
0
ENDBLK
5
21
100
AcDbEntity
100
AcDbBlockEnd
0
BLOCK
5
1C
100
AcDbEntity
100
AcDbBlockBegin
2
*PAPER_SPACE
0
ENDBLK
5
1D
100
AcDbEntity
100
AcDbBlockEnd
0
ENDSEC
0
SECTION
2
ENTITIES
0
LWPOLYLINE
5
100
100
AcDbEntity
8
0
100
AcDbPolyline
90
24
70
1
43
0.0
10
-18.306249999999977
20
182.34999999999997
42
-0.41421356237310542
10
-19.306249999999991
20
183.35000000000002
10
-19.306249999999991
20
200.39500000000001
42
0.41421356237309503
10
-20.306250000000006
20
201.39500000000001
10
-20.687500000000014
20
201.39500000000001
42
-0.41421356237312623
10
-21.687500000000028
20
202.39499999999998
10
-21.687500000000032
20
219.18627721236982
42
-0.4138569823868562
10
-20.688717593388901
20
220.1862764711027
10
216.43749999999997
20
220.47499999999999
42
-0.41421356237309503
10
217.4375
20
219.47499999999997
10
217.4375
20
203.375
42
-0.41421356237309503
10
216.43749999999997
20
202.37499999999997
10
202.85575
20
202.37499999999997
42
0.41421356237312623
10
201.85575
20
201.375
10
201.85575
20
183.34971994523426
42
-0.41421356237312623
10
200.85575
20
182.34971994523426
10
198.09325000000001
20
182.34971994523426
42
0.41421356237309503
10
197.09325000000001
20
181.34971994523426
10
197.09325000000001
20
165.27471994523424
42
-0.41421356237309503
10
196.09324999999998
20
164.27471994523421
10
-5.1057499999999578
20
164.2747199452343
42
-0.41421356237311585
10
-6.105749999999972
20
165.27471994523424
10
-6.105749999999972
20
181.34999999999997
42
0.41421356237313667
10
-7.1057499999999862
20
182.34999999999999
0
LWPOLYLINE
5
101
100
AcDbEntity
8
0
100
AcDbPolyline
90
8
70
1
43
0.0
10
-29.568749999999966
20
166.32499999999999
10
-17.568750000000009
20
166.32499999999999
42
0.41421356237309503
10
-16.568749999999994
20
167.32500000000002
10
-16.56875000000003
20
179.32500000000002
42
0.41421356237309503
10
-17.568750000000009
20
180.32499999999999
10
-29.568749999999966
20
180.32500000000002
42
0.41421356237309503
10
-30.56874999999998
20
179.32500000000002
10
-30.568750000000051
20
167.32500000000002
42
0.41421356237311585
0
LINE
5
102
100
AcDbEntity
8
0
100
AcDbLine
10
233.47500000000011
20
244
30
0
11
151.9083333333333
21
244.00000000000003
31
0
0
LWPOLYLINE
5
103
100
AcDbEntity
8
0
100
AcDbPolyline
90
8
70
1
43
0.0
10
-22.331250000000011
20
185.375
10
-39.093749999999972
20
185.37499999999997
42
-0.41421356237309503
10
-40.093749999999986
20
186.375
10
-40.093749999999986
20
198.375
42
-0.41421356237309503
10
-39.093749999999972
20
199.375
10
-22.331250000000011
20
199.375
42
-0.41421356237309503
10
-21.331249999999997
20
198.375
10
-21.331250000000033
20
186.375
42
-0.41421356237309503
0
LWPOLYLINE
5
104
100
AcDbEntity
8
0
100
AcDbPolyline
90
8
70
1
43
0.0
10
-14.130749999999992
20
179.32500000000002
42
0.41421356237309503
10
-15.130750000000006
20
178.32499999999999
10
-15.130750000000006
20
165.32500000000002
42
0.41421356237310542
10
-14.130749999999992
20
164.32499999999999
10
-9.1307499999999919
20
164.32500000000005
42
0.4142135623730846
10
-8.1307499999999777
20
165.32500000000002
10
-8.1307500000000132
20
178.32499999999999
42
0.41421356237309503
10
-9.1307499999999919
20
179.32499999999999
0
LWPOLYLINE
5
105
100
AcDbEntity
8
0
100
AcDbPolyline
90
8
70
1
43
0.0
10
-3.3749999999999858
20
223.47499999999999
10
8.6249999999999716
20
223.47499999999997
42
0.41421356237309503
10
9.6249999999999858
20
224.47499999999997
10
9.6249999999999503
20
236.47500000000002
42
0.41421356237309503
10
8.6249999999999716
20
237.47499999999999
10
-3.3749999999999858
20
237.47500000000002
42
0.41421356237309503
10
-4.375
20
236.47500000000002
10
-4.3749999999999645
20
224.47499999999997
42
0.41421356237309503
0
LINE
5
106
100
AcDbEntity
8
0
100
AcDbLine
10
56.341666666666654
20
140.75000211223954
30
0
11
139.40833338358928
21
140.75000211223954
31
0
0
LWPOLYLINE
5
107
100
AcDbEntity
8
0
100
AcDbPolyline
90
8
70
1
43
0.0
10
91.875
20
237.47499999999999
10
103.87500000000003
20
237.47499999999997
42
-0.41421356237309503
10
104.87499999999997
20
236.47500000000002
10
104.87500000000009
20
224.47499999999997
42
-0.41421356237307422
10
103.87500000000003
20
223.47499999999999
10
91.875
20
223.47499999999999
42
-0.4142135623730846
10
90.874999999999986
20
224.47499999999997
10
90.875000000000028
20
236.47500000000002
42
-0.41421356237309503
0
LINE
5
108
100
AcDbEntity
8
0
100
AcDbLine
10
139.40833333333336
20
244
30
0
11
56.341666666666725
21
244.00000000000003
31
0
0
LWPOLYLINE
5
109
100
AcDbEntity
8
0
100
AcDbPolyline
90
8
70
1
43
0.0
10
103.87500000000003
20
161.27499999999998
10
91.875
20
161.27500000000001
42
0.41421356237309503
10
90.874999999999986
20
160.27500000000003
10
90.874999999999986
20
148.27500000000001
42
0.41421356237309503
10
91.875
20
147.27500000000003
10
103.87500000000003
20
147.27500000000009
42
0.41421356237309503
10
104.87499999999997
20
148.27500000000003
10
104.87499999999997
20
160.27500000000003
42
0.41421356237309503
0
LWPOLYLINE
5
110
100
AcDbEntity
8
0
100
AcDbPolyline
90
8
70
1
43
0.0
10
-33.006749999999982
20
164.32500000000002
42
0.41421356237309503
10
-32.006749999999968
20
165.32500000000002
10
-32.006750000000004
20
178.32499999999999
42
0.41421356237309503
10
-33.006749999999982
20
179.32499999999999
10
-38.006749999999982
20
179.32500000000002
42
0.41421356237309503
10
-39.006749999999997
20
178.32499999999999
10
-39.006750000000032
20
165.32499999999999
42
0.41421356237311585
10
-38.006749999999982
20
164.32500000000002
0
LWPOLYLINE
5
111
100
AcDbEntity
8
0
100
AcDbPolyline
90
8
70
1
43
0.0
10
213.26200000000006
20
235.47499999999999
10
213.26200000000003
20
222.47499999999999
42
-0.41421356237309503
10
212.26200000000006
20
221.47500000000002
10
207.26200000000006
20
221.47499999999997
42
-0.41421356237307422
10
206.26199999999997
20
222.47499999999999
10
206.262
20
235.47499999999999
42
-0.41421356237307422
10
207.26200000000006
20
236.47499999999997
10
212.26200000000006
20
236.47500000000005
42
-0.4142135623730222
0
LWPOLYLINE
5
112
100
AcDbEntity
8
0
100
AcDbPolyline
90
8
70
1
43
0.0
10
219.46249999999998
20
148.27500000000001
42
0.41421356237313667
10
220.46250000000001
20
147.27499999999998
10
232.46249999999998
20
147.27499999999998
42
0.41421356237311585
10
233.46249999999998
20
148.27499999999998
10
233.46249999999998
20
160.27500000000001
42
0.41421356237309503
10
232.46249999999998
20
161.27500000000001
10
220.46250000000001
20
161.27500000000001
42
0.41421356237312623
10
219.46249999999998
20
160.27500000000003
0
LWPOLYLINE
5
113
100
AcDbEntity
8
0
100
AcDbPolyline
90
8
70
1
43
0.0
10
187.12500000000006
20
237.47499999999999
42
0.41421356237314705
10
186.12499999999997
20
236.47500000000002
10
186.125
20
224.47499999999997
42
0.41421356237307422
10
187.12500000000006
20
223.47499999999999
10
199.125
20
223.47500000000002
42
0.41421356237311585
10
200.12500000000003
20
224.47499999999997
10
200.12500000000003
20
236.47500000000002
42
0.41421356237309503
10
199.125
20
237.47500000000002
0
LWPOLYLINE
5
114
100
AcDbEntity
8
0
100
AcDbPolyline
90
8
70
1
43
0.0
10
234.75675000000001
20
200.375
42
0.41421356237309503
10
233.75675000000001
20
201.37500000000003
10
228.75675000000001
20
201.37499999999994
42
0.41421356237313667
10
227.75675000000007
20
200.375
10
227.75675000000007
20
187.375
42
0.41421356237310542
10
228.75675000000001
20
186.37500000000003
10
233.75675000000001
20
186.375
42
0.41421356237309503
10
234.75675000000001
20
187.375
0
LWPOLYLINE
5
115
100
AcDbEntity
8
0
100
AcDbPolyline
90
8
70
1
43
0.0
10
220.46250000000001
20
218.42500000000001
42
0.41421356237309503
10
219.46249999999998
20
217.42500000000001
10
219.46249999999995
20
205.42500000000001
42
0.41421356237309503
10
220.46250000000001
20
204.42499999999995
10
232.46250000000003
20
204.42499999999995
42
0.4142135623730222
10
233.46250000000003
20
205.42500000000001
10
233.46249999999995
20
217.42500000000001
42
0.4142135623730534
10
232.46250000000003
20
218.42500000000004
0
LWPOLYLINE
5
116
100
AcDbEntity
8
0
100
AcDbPolyline
90
8
70
1
43
0.0
10
214.69999999999999
20
236.47500000000002
10
214.69999999999999
20
224.47499999999997
42
0.4142135623730846
10
215.69999999999999
20
223.47499999999999
10
227.69999999999996
20
223.47499999999997
42
0.41421356237307422
10
228.70000000000005
20
224.47499999999997
10
228.70000000000005
20
236.47500000000002
42
0.41421356237307422
10
227.69999999999996
20
237.47500000000002
10
215.69999999999999
20
237.47499999999997
42
0.41421356237311585
0
LWPOLYLINE
5
117
100
AcDbEntity
8
0
100
AcDbPolyline
90
8
70
1
43
0.0
10
195.65000000000003
20
148.27500000000001
42
0.41421356237314183
10
196.65000000000006
20
147.27499999999998
10
208.65000000000003
20
147.27499999999995
42
0.41421356237309503
10
209.65000000000003
20
148.27499999999998
10
209.65000000000003
20
160.27500000000001
42
0.41421356237309503
10
208.65000000000003
20
161.27500000000001
10
196.65000000000006
20
161.27500000000001
42
0.41421356237312623
10
195.65000000000003
20
160.27500000000003
0
LWPOLYLINE
5
118
100
AcDbEntity
8
0
100
AcDbPolyline
90
8
70
1
43
0.0
10
168.07500000000005
20
223.47499999999997
10
180.07499999999999
20
223.47500000000002
42
0.41421356237311585
10
181.07500000000002
20
224.47499999999997
10
181.07500000000002
20
236.47500000000002
42
0.41421356237309503
10
180.07499999999999
20
237.47500000000002
10
168.07500000000005
20
237.47500000000002
42
0.41421356237307422
10
167.07499999999996
20
236.47500000000002
10
167.07500000000005
20
224.47499999999997
42
0.4142135623730534
0
LWPOLYLINE
5
119
100
AcDbEntity
8
0
100
AcDbPolyline
90
8
70
1
43
0.0
10
203.88075000000001
20
200.375
42
-0.41421356237306384
10
204.88075000000009
20
201.375
10
209.88075000000009
20
201.37499999999994
42
-0.41421356237313667
10
210.88075000000003
20
200.375
10
210.88075000000006
20
187.375
42
-0.41421356237307422
10
209.88075000000009
20
186.37499999999994
10
204.88075000000009
20
186.37500000000003
42
-0.41421356237314705
10
203.88075000000001
20
187.375
0
LWPOLYLINE
5
120
100
AcDbEntity
8
0
100
AcDbPolyline
90
8
70
1
43
0.0
10
230.13799999999998
20
235.47499999999999
42
-0.4142135623730534
10
231.13799999999998
20
236.47500000000002
10
236.13799999999998
20
236.47500000000002
42
-0.41421356237309503
10
237.13799999999998
20
235.47499999999999
10
237.13799999999998
20
222.47499999999999
42
-0.4142135623730846
10
236.13799999999998
20
221.47500000000002
10
231.13799999999998
20
221.47500000000005
42
-0.4142135623730534
10
230.13800000000003
20
222.47499999999999
0
LWPOLYLINE
5
121
100
AcDbEntity
8
0
100
AcDbPolyline
90
8
70
1
43
0.0
10
213.31875000000002
20
199.375
10
225.31874999999999
20
199.37500000000003
42
-0.4142135623730846
10
226.31875000000008
20
198.375
10
226.31875000000008
20
186.375
42
-0.4142135623730222
10
225.31875000000014
20
185.375
10
213.31875000000002
20
185.37500000000006
42
-0.41421356237311585
10
212.31875000000002
20
186.375
10
212.31874999999997
20
198.375
42
-0.41421356237311585
0
LINE
5
122
100
AcDbEntity
8
0
100
AcDbLine
10
234.97500000000008
20
240.25000000000011
30
0
11
234.97500000000008
21
242.5
31
0
0
LWPOLYLINE
5
123
100
AcDbEntity
8
0
100
AcDbPolyline
90
13
70
1
43
0.0
10
225.22500000000008
20
180.32499999999999
42
0.41421356237314705
10
224.22499999999999
20
179.32500000000002
10
223.99425000000008
20
179.32499999999999
42
0.41421356237309503
10
222.99425000000014
20
178.32499999999999
10
222.99424999999999
20
165.32500000000002
42
0.4142135623730534
10
223.99425000000008
20
164.32499999999999
10
228.99425000000008
20
164.32500000000002
42
0.4142135623730222
10
229.99425000000008
20
165.32500000000002
10
229.99425000000008
20
166.32499999999999
10
237.22500000000002
20
166.32500000000007
42
0.41421356237311585
10
238.22500000000005
20
167.32500000000002
10
238.22500000000005
20
179.32500000000002
42
0.41421356237309503
10
237.22500000000002
20
180.32500000000002
0
ARC
5
124
100
AcDbEntity
8
0
100
AcDbCircle
10
233.47500000000002
20
142.24999999999997
30
0
40
1.4999999999999858
210
0
220
0
230
1
100
AcDbArc
50
270.00000000000324
51
359.99999658490543
0
ARC
5
125
100
AcDbEntity
8
0
100
AcDbCircle
10
238.99999999942949
20
238.25000000000014
30
0
40
1.0000000002852971
210
0
220
-0
230
1
100
AcDbArc
50
0
51
89.999999983650426
0
ARC
5
126
100
AcDbEntity
8
0
100
AcDbCircle
10
235.97500000000011
20
240.2500000000002
30
0
40
1.0000000000000142
210
0
220
0
230
1
100
AcDbArc
50
180
51
270
0
ARC
5
127
100
AcDbEntity
8
0
100
AcDbCircle
10
235.97500005027641
20
143.99999836949951
30
0
40
1.0000000000000122
210
0
220
0
230
1
100
AcDbArc
50
90.000010167385511
51
179.99999658490543
0
LINE
5
128
100
AcDbEntity
8
0
100
AcDbLine
10
239.0000004203464
20
144.9999992171978
30
0
11
235.97499987282205
21
144.99999836949951
31
0
0
LWPOLYLINE
5
129
100
AcDbEntity
8
0
100
AcDbPolyline
90
8
70
1
43
0.0
10
221.55625000000001
20
179.32500000000002
42
0.41421356237309503
10
220.55624999999998
20
180.32500000000002
10
208.55625000000003
20
180.32499999999996
42
0.41421356237309503
10
207.55625000000009
20
179.32500000000002
10
207.55625000000009
20
167.32500000000002
42
0.4142135623730534
10
208.55625000000003
20
166.32499999999993
10
220.55624999999998
20
166.32499999999999
42
0.41421356237309503
10
221.55625000000001
20
167.32500000000002
0
ARC
5
130
100
AcDbEntity
8
0
100
AcDbCircle
10
239.00000005235057
20
145.99999921719774
30
0
40
1.0000000000000109
210
0
220
0
230
1
100
AcDbArc
50
270.00002108460757
51
360
0
LINE
5
131
100
AcDbEntity
8
0
100
AcDbLine
10
235.97500000000011
20
239.25000000000014
30
0
11
238.99999999971484
21
239.25000000000014
31
0
0
ARC
5
132
100
AcDbEntity
8
0
100
AcDbCircle
10
233.47500000000011
20
242.5
30
0
40
1.4999999999999858
210
0
220
0
230
1
100
AcDbArc
50
0
51
90
0
LWPOLYLINE
5
133
100
AcDbEntity
8
0
100
AcDbPolyline
90
8
70
1
43
0.0
10
65.775000000000006
20
237.47499999999999
10
53.774999999999977
20
237.47499999999999
42
0.41421356237310542
10
52.775000000000034
20
236.47500000000002
10
52.775000000000034
20
224.47499999999997
42
0.41421356237310542
10
53.774999999999977
20
223.47499999999999
10
65.775000000000006
20
223.47499999999999
42
0.41421356237312623
10
66.77500000000002
20
224.47499999999997
10
66.77500000000002
20
236.47500000000002
42
0.4142135623730846
0
LWPOLYLINE
5
134
100
AcDbEntity
8
0
100
AcDbPolyline
90
8
70
1
43
0.0
10
171.83750000000003
20
160.27500000000001
10
171.83750000000009
20
148.27500000000001
42
0.41421356237306384
10
172.83749999999998
20
147.27499999999995
10
184.83750000000001
20
147.27499999999995
42
0.41421356237309503
10
185.83750000000003
20
148.27499999999998
10
185.83749999999995
20
160.27500000000003
42
0.41421356237309503
10
184.83750000000001
20
161.27500000000001
10
172.83750000000003
20
161.27499999999995
42
0.41421356237311585
0
LWPOLYLINE
5
135
100
AcDbEntity
8
0
100
AcDbPolyline
90
8
70
1
43
0.0
10
-12.899999999999991
20
147.27499999999998
42
-0.41421356237309503
10
-13.900000000000006
20
148.27500000000001
10
-13.900000000000006
20
160.27500000000001
42
-0.41421356237309503
10
-12.899999999999991
20
161.27500000000001
10
-0.90000000000003411
20
161.27500000000001
42
-0.41421356237311585
10
0.099999999999980105
20
160.27500000000003
10
0.099999999999980105
20
148.27499999999998
42
-0.41421356237307944
10
-0.90000000000003411
20
147.27500000000003
0
LWPOLYLINE
5
136
100
AcDbEntity
8
0
100
AcDbPolyline
90
8
70
1
43
0.0
10
-23.712499999999999
20
160.27500000000003
42
0.4142135623730846
10
-24.712499999999977
20
161.27499999999998
10
-36.712500000000006
20
161.27499999999998
42
0.41421356237309503
10
-37.71250000000002
20
160.27499999999998
10
-37.71250000000002
20
148.27500000000001
42
0.41421356237309503
10
-36.712500000000006
20
147.27500000000001
10
-24.712499999999977
20
147.27500000000006
42
0.41421356237309503
10
-23.712500000000034
20
148.27500000000001
0
LWPOLYLINE
5
137
100
AcDbEntity
8
0
100
AcDbPolyline
90
8
70
1
43
0.0
10
152.51874999999998
20
148.27499999999995
10
157.51875000000013
20
148.27499999999998
42
0.41421356237307944
10
158.51875000000007
20
149.27500000000001
10
158.5187500000001
20
162.27500000000003
42
0.41421356237306384
10
157.51874999999998
20
163.27500000000003
10
152.51874999999998
20
163.27500000000001
42
0.41421356237306384
10
151.51875000000004
20
162.27500000000003
10
151.51874999999998
20
149.27500000000001
42
0.41421356237302737
0
LINE
5
138
100
AcDbEntity
8
0
100
AcDbLine
10
149.40833370471665
20
145.00001761681932
30
0
11
141.90833374145043
21
145.00001928437686
31
0
0
LWPOLYLINE
5
139
100
AcDbEntity
8
0
100
AcDbPolyline
90
8
70
1
43
0.0
10
43.22499999999998
20
148.27500000000001
42
0.41421356237308982
10
44.224999999999994
20
149.27500000000001
10
44.224999999999959
20
162.27500000000003
42
0.41421356237309503
10
43.22499999999998
20
163.27500000000001
10
38.224999999999909
20
163.27500000000001
42
0.41421356237307422
10
37.224999999999966
20
162.27499999999998
10
37.224999999999966
20
149.27500000000001
42
0.41421356237309503
10
38.22499999999998
20
148.27500000000001
0
LINE
5
140
100
AcDbEntity
8
0
100
AcDbLine
10
16.912499999999966
20
164.27471994523427
30
0
11
16.912499999999966
21
164.27499999999998
31
0
0
LINE
5
141
100
AcDbEntity
8
0
100
AcDbLine
10
151.9083333333333
20
140.75
30
0
11
233.47500000000011
21
140.75
31
0
0
LINE
5
142
100
AcDbEntity
8
0
100
AcDbLine
10
43.841666666666725
20
244.00000000000003
30
0
11
-37.725000000000009
21
244.00000000000003
31
0
0
LINE
5
143
100
AcDbEntity
8
0
100
AcDbLine
10
-37.725000000000009
20
140.75
30
0
11
43.841666666666654
21
140.75
31
0
0
LWPOLYLINE
5
144
100
AcDbEntity
8
0
100
AcDbPolyline
90
8
70
1
43
0.0
10
84.825000000000017
20
237.47499999999999
10
72.824999999999989
20
237.47499999999999
42
0.41421356237310542
10
71.825000000000045
20
236.47500000000002
10
71.825000000000017
20
224.47499999999997
42
0.41421356237309503
10
72.824999999999989
20
223.47499999999999
10
84.825000000000017
20
223.47500000000008
42
0.4142135623730846
10
85.82499999999996
20
224.47499999999997
10
85.824999999999989
20
236.47500000000002
42
0.4142135623730534
0
LWPOLYLINE
5
145
100
AcDbEntity
8
0
100
AcDbPolyline
90
8
70
1
43
0.0
10
46.724999999999994
20
223.47499999999999
42
0.41421356237309503
10
47.725000000000009
20
224.47500000000002
10
47.724999999999973
20
236.47500000000002
42
0.41421356237309503
10
46.724999999999994
20
237.47499999999999
10
34.724999999999966
20
237.47499999999997
42
0.41421356237309503
10
33.725000000000023
20
236.47500000000002
10
33.724999999999987
20
224.47499999999997
42
0.41421356237309503
10
34.724999999999966
20
223.47499999999999
0
ARC
5
146
100
AcDbEntity
8
0
100
AcDbCircle
10
56.341666666666654
20
142.25000211223957
30
0
40
1.4999999999999858
210
0
220
0
230
1
100
AcDbArc
50
180
51
270
0
LINE
5
147
100
AcDbEntity
8
0
100
AcDbLine
10
54.841666666666669
20
242.5
30
0
11
54.841666666666669
21
240.25
31
0
0
LINE
5
148
100
AcDbEntity
8
0
100
AcDbLine
10
150.40833338219983
20
144.00001758627826
30
0
11
150.4083333137871
21
142.25000005863888
31
0
0
LWPOLYLINE
5
149
100
AcDbEntity
8
0
100
AcDbPolyline
90
8
70
1
43
0.0
10
206.1182500000001
20
178.32499999999999
10
206.11825000000013
20
165.32500000000002
42
-0.4142135623730222
10
205.11825000000002
20
164.32500000000002
10
200.11825000000002
20
164.32500000000002
42
-0.41421356237313667
10
199.11824999999999
20
165.32500000000002
10
199.11825000000005
20
178.32499999999999
42
-0.41421356237309503
10
200.11825000000002
20
179.32499999999999
10
205.11825000000002
20
179.32499999999999
42
-0.41421356237310542
0
ARC
5
150
100
AcDbEntity
8
0
100
AcDbCircle
10
-43.25000005221689
20
146.00000803745678
30
0
40
0.99999994778308121
210
0
220
0
230
1
100
AcDbArc
50
180
51
269.99999800546135
0
LWPOLYLINE
5
151
100
AcDbEntity
8
0
100
AcDbPolyline
90
8
70
1
43
0.0
10
122.92500000000004
20
237.47500000000002
10
110.92500000000001
20
237.47499999999999
42
0.41421356237312623
10
109.925
20
236.47500000000002
10
109.92500000000004
20
224.47499999999997
42
0.41421356237309503
10
110.92500000000001
20
223.47499999999999
10
122.92500000000004
20
223.47499999999997
42
0.41421356237303258
10
123.92499999999998
20
224.47499999999997
10
123.92499999999998
20
236.47500000000002
42
0.41421356237303258
0
LINE
5
152
100
AcDbEntity
8
0
100
AcDbLine
10
53.841666666666654
20
144.99999921719777
30
0
11
46.341666666666654
21
144.99999921719777
31
0
0
LWPOLYLINE
5
153
100
AcDbEntity
8
0
100
AcDbPolyline
90
8
70
1
43
0.0
10
-37.71250000000002
20
205.42500000000001
42
0.41421356237309503
10
-36.712500000000006
20
204.42499999999998
10
-24.712499999999977
20
204.42500000000007
42
0.41421356237309503
10
-23.712500000000034
20
205.42500000000001
10
-23.712499999999999
20
217.42500000000001
42
0.41421356237309503
10
-24.712499999999977
20
218.42499999999998
10
-36.712500000000006
20
218.42500000000001
42
0.41421356237309503
10
-37.71250000000002
20
217.42500000000001
0
LWPOLYLINE
5
154
100
AcDbEntity
8
0
100
AcDbPolyline
90
8
70
1
43
0.0
10
23.912499999999994
20
160.27499999999998
10
23.912500000000012
20
148.27500000000001
42
-0.41421356237307944
10
22.91249999999998
20
147.27500000000003
10
10.912500000000023
20
147.27500000000001
42
-0.41421356237309503
10
9.9125000000000085
20
148.27500000000003
10
9.9125000000000441
20
160.27500000000001
42
-0.41421356237309503
10
10.912500000000023
20
161.27499999999998
10
22.91249999999998
20
161.27499999999998
42
-0.41421356237309503
0
LWPOLYLINE
5
155
100
AcDbEntity
8
0
100
AcDbPolyline
90
8
70
1
43
0.0
10
-28.475000000000001
20
236.47500000000002
42
0.41421356237309503
10
-29.47499999999998
20
237.47499999999999
10
-41.475000000000009
20
237.47500000000002
42
0.41421356237309503
10
-42.475000000000023
20
236.47500000000002
10
-42.474999999999987
20
224.47499999999997
42
0.41421356237309503
10
-41.475000000000009
20
223.47499999999999
10
-29.47499999999998
20
223.47499999999999
42
0.4142135623730846
10
-28.474999999999966
20
224.47499999999997
0
LWPOLYLINE
5
156
100
AcDbEntity
8
0
100
AcDbPolyline
90
8
70
1
43
0.0
10
14.675000000000047
20
224.47499999999997
42
0.41421356237309503
10
15.675000000000026
20
223.47499999999999
10
27.674999999999983
20
223.47499999999999
42
0.4142135623730846
10
28.674999999999997
20
224.47499999999997
10
28.674999999999962
20
236.47500000000002
42
0.41421356237309503
10
27.674999999999983
20
237.47499999999999
10
15.675000000000026
20
237.47500000000002
42
0.41421356237309503
10
14.675000000000011
20
236.47500000000002
0
ARC
5
157
100
AcDbEntity
8
0
100
AcDbCircle
10
-40.225000000000009
20
144.00000796696398
30
0
40
1.0000000000000142
210
0
220
-0
230
1
100
AcDbArc
50
0
51
89.999998005461478
0
LINE
5
158
100
AcDbEntity
8
0
100
AcDbLine
10
45.34166666666664
20
142.25000000000003
30
0
11
45.34166666666664
21
143.99999921719774
31
0
0
LWPOLYLINE
5
159
100
AcDbEntity
8
0
100
AcDbPolyline
90
8
70
1
43
0.0
10
129.97500000000002
20
223.47499999999997
10
141.97500000000005
20
223.47499999999994
42
0.41421356237304302
10
142.97499999999999
20
224.47499999999997
10
142.97499999999997
20
236.47500000000002
42
0.4142135623730846
10
141.97500000000005
20
237.47500000000002
10
129.97500000000002
20
237.47500000000002
42
0.41421356237307422
10
128.97499999999994
20
236.47500000000002
10
128.97500000000002
20
224.47499999999997
42
0.4142135623730534
0
ARC
5
160
100
AcDbEntity
8
0
100
AcDbCircle
10
141.90849337782183
20
143.9998593306708
30
0
40
1.0001599664459111
210
0
220
0
230
1
100
AcDbArc
50
90.009145027478894
51
179.99083493367894
0
LINE
5
161
100
AcDbEntity
8
0
100
AcDbLine
10
45.341666666666711
20
240.25
30
0
11
45.341666666666711
21
242.50000000000003
31
0
0
ARC
5
162
100
AcDbEntity
8
0
100
AcDbCircle
10
53.841666666666654
20
143.99999921719774
30
0
40
1.0000000000000142
210
0
220
0
230
1
100
AcDbArc
50
0
51
90
0
LINE
5
163
100
AcDbEntity
8
0
100
AcDbLine
10
140.90833336736367
20
142.25022274050949
30
0
11
140.9083334241717
21
144.00001931684238
31
0
0
LINE
5
164
100
AcDbEntity
8
0
100
AcDbLine
10
-40.224999965188744
20
145.00000798436963
30
0
11
-43.250000087028155
21
145.00000808967371
31
0
0
ARC
5
165
100
AcDbEntity
8
0
100
AcDbCircle
10
56.341666666666725
20
242.5
30
0
40
1.5000000000000213
210
0
220
-0
230
1
100
AcDbArc
50
90
51
180
0
ARC
5
166
100
AcDbEntity
8
0
100
AcDbCircle
10
149.40833348237561
20
144.0000176253709
30
0
40
0.99999989982421855
210
0
220
0
230
1
100
AcDbArc
50
-2.0913098143694567e-06
51
89.999987260796502
0
ARC
5
167
100
AcDbEntity
8
0
100
AcDbCircle
10
43.841666666666725
20
242.50000000000003
30
0
40
1.4999999999999858
210
0
220
-0
230
1
100
AcDbArc
50
0
51
90
0
ARC
5
168
100
AcDbEntity
8
0
100
AcDbCircle
10
43.841666666666583
20
142.25000000000003
30
0
40
1.5000000000000391
210
0
220
0
230
1
100
AcDbArc
50
-89.9999999999973
51
0
0
ARC
5
169
100
AcDbEntity
8
0
100
AcDbCircle
10
151.90833333333336
20
142.24999999999997
30
0
40
1.5000000195462893
210
0
220
0
230
1
100
AcDbArc
50
179.99999774112726
51
269.99999999999784
0
ARC
5
170
100
AcDbEntity
8
0
100
AcDbCircle
10
139.40833338358928
20
142.25000211223957
30
0
40
1.5000000000000213
210
0
220
0
230
1
100
AcDbArc
50
-90
51
0.0084273791526364734
0
LINE
5
171
100
AcDbEntity
8
0
100
AcDbLine
10
-44.249999999999972
20
146.00000803745678
30
0
11
-44.249999999999972
21
238.25
31
0
0
LINE
5
172
100
AcDbEntity
8
0
100
AcDbLine
10
239.99999999971479
20
238.25000000057071
30
0
11
240.00000005235052
21
145.99999921681177
31
0
0
LINE
5
173
100
AcDbEntity
8
0
100
AcDbLine
10
141.90833333333336
20
239.25
30
0
11
149.4083333333333
21
239.25
31
0
0
LINE
5
174
100
AcDbEntity
8
0
100
AcDbLine
10
54.841666666666669
20
143.99999921719774
30
0
11
54.841666666666669
21
142.25000211223957
31
0
0
LINE
5
175
100
AcDbEntity
8
0
100
AcDbLine
10
-39.224999999999994
20
144.00000796696401
30
0
11
-39.224999999999994
21
142.24999999999997
31
0
0
ARC
5
176
100
AcDbEntity
8
0
100
AcDbCircle
10
53.841666666666725
20
240.25
30
0
40
0.99999999999997868
210
0
220
0
230
1
100
AcDbArc
50
-90
51
0
0
LINE
5
177
100
AcDbEntity
8
0
100
AcDbLine
10
46.341666666666725
20
239.25
30
0
11
53.841666666666725
21
239.25
31
0
0
ARC
5
178
100
AcDbEntity
8
0
100
AcDbCircle
10
-37.725000000000009
20
142.24999999999997
30
0
40
1.4999999999999858
210
0
220
0
230
1
100
AcDbArc
50
180
51
270
0
LWPOLYLINE
5
179
100
AcDbEntity
8
0
100
AcDbPolyline
90
8
70
1
43
0.0
10
161.02500000000006
20
237.47499999999997
42
-0.41421356237315748
10
162.02500000000009
20
236.47500000000002
10
162.02500000000001
20
224.47499999999997
42
-0.41421356237307422
10
161.02500000000006
20
223.47499999999997
10
149.02500000000003
20
223.47500000000002
42
-0.41421356237309503
10
148.02500000000009
20
224.47499999999997
10
148.02500000000012
20
236.47500000000002
42
-0.41421356237307422
10
149.02500000000003
20
237.47499999999999
0
LWPOLYLINE
5
180
100
AcDbEntity
8
0
100
AcDbPolyline
90
8
70
1
43
0.0
10
-23.425000000000011
20
236.47500000000002
10
-23.424999999999976
20
224.47499999999997
42
0.41421356237309503
10
-22.424999999999997
20
223.47499999999999
10
-10.424999999999969
20
223.47499999999994
42
0.41421356237306384
10
-9.4249999999999545
20
224.47499999999997
10
-9.4249999999999901
20
236.47500000000002
42
0.41421356237309503
10
-10.424999999999969
20
237.47499999999999
10
-22.424999999999997
20
237.47500000000002
42
0.41421356237309503
0
LINE
5
181
100
AcDbEntity
8
0
100
AcDbLine
10
140.90833333333336
20
240.25
30
0
11
140.90833333333336
21
242.5
31
0
0
ARC
5
182
100
AcDbEntity
8
0
100
AcDbCircle
10
46.341666666666654
20
143.99999921719774
30
0
40
1.0000000000000142
210
0
220
-0
230
1
100
AcDbArc
50
90
51
180
0
ARC
5
183
100
AcDbEntity
8
0
100
AcDbCircle
10
139.40833333333336
20
242.5
30
0
40
1.4999999999999858
210
0
220
-0
230
1
100
AcDbArc
50
0
51
90
0
ARC
5
184
100
AcDbEntity
8
0
100
AcDbCircle
10
-40.225000000000009
20
240.25000000000003
30
0
40
1.0000000000000142
210
0
220
0
230
1
100
AcDbArc
50
-90
51
0
0
LINE
5
185
100
AcDbEntity
8
0
100
AcDbLine
10
-43.250000000000028
20
239.25
30
0
11
-40.225000000000009
21
239.25
31
0
0
ARC
5
186
100
AcDbEntity
8
0
100
AcDbCircle
10
46.341666666666725
20
240.25
30
0
40
1.0000000000000142
210
0
220
0
230
1
100
AcDbArc
50
180
51
270
0
ARC
5
187
100
AcDbEntity
8
0
100
AcDbCircle
10
151.9083333333333
20
242.5
30
0
40
1.5000000000000213
210
0
220
-0
230
1
100
AcDbArc
50
90
51
180
0
ARC
5
188
100
AcDbEntity
8
0
100
AcDbCircle
10
141.90833333333336
20
240.25000000000003
30
0
40
1.0000000000000142
210
0
220
0
230
1
100
AcDbArc
50
180
51
270
0
LINE
5
189
100
AcDbEntity
8
0
100
AcDbLine
10
-39.224999999999994
20
242.5
30
0
11
-39.224999999999994
21
240.25000000000003
31
0
0
ARC
5
190
100
AcDbEntity
8
0
100
AcDbCircle
10
-43.250000000000028
20
238.25
30
0
40
1.0000000000000142
210
0
220
-0
230
1
100
AcDbArc
50
90
51
180
0
ARC
5
191
100
AcDbEntity
8
0
100
AcDbCircle
10
149.4083333333333
20
240.25000000000006
30
0
40
1.0000000000000497
210
0
220
0
230
1
100
AcDbArc
50
-90
51
0
0
LINE
5
192
100
AcDbEntity
8
0
100
AcDbLine
10
150.40833333333339
20
242.5
30
0
11
150.40833333333339
21
240.25000000000006
31
0
0
ARC
5
193
100
AcDbEntity
8
0
100
AcDbCircle
10
-37.725000000000009
20
242.5
30
0
40
1.5000000000000213
210
0
220
-0
230
1
100
AcDbArc
50
90
51
180
0
LINE
5
194
100
AcDbEntity
8
0
100
AcDbLine
10
234.97500000000002
20
142.249999910593
30
0
11
234.97500005027646
21
143.9999984293346
31
0
0
ENDSEC
0
SECTION
2
OBJECTS
0
DICTIONARY
5
C
100
AcDbDictionary
3
ACAD_GROUP
350
D
3
ACAD_MLINESTYLE
350
17
0
DICTIONARY
5
D
100
AcDbDictionary
0
DICTIONARY
5
1A
330
C
100
AcDbDictionary
0
DICTIONARY
5
17
100
AcDbDictionary
0
ENDSEC
0
EOF
