0
SECTION
2
HEADER
9
$INSUNITS
70
4
9
$ACADVER
1
AC1014
9
$HANDSEED
5
FFFF
0
ENDSEC
0
SECTION
2
TABLES
0
TABLE
2
VPORT
5
8
100
AcDbSymbolTable
0
ENDTAB
0
TABLE
2
LTYPE
5
5
100
AcDbSymbolTable
0
LTYPE
5
14
100
AcDbSymbolTableRecord
100
AcDbLinetypeTableRecord
2
BYBLOCK
70
0
0
LTYPE
5
15
100
AcDbSymbolTableRecord
100
AcDbLinetypeTableRecord
2
BYLAYER
70
0
0
ENDTAB
0
TABLE
2
LAYER
5
2
100
AcDbSymbolTable
70
2
0
LAYER
5
50
100
AcDbSymbolTableRecord
100
AcDbLayerTableRecord
2
0
70
0
6
CONTINUOUS
0
ENDTAB
0
TABLE
2
STYLE
5
3
100
AcDbSymbolTable
70
1
0
STYLE
5
11
100
AcDbSymbolTableRecord
100
AcDbTextStyleTableRecord
2
STANDARD
70
0
0
ENDTAB
0
TABLE
2
VIEW
5
6
100
AcDbSymbolTable
70
0
0
ENDTAB
0
TABLE
2
UCS
5
7
100
AcDbSymbolTable
70
0
0
ENDTAB
0
TABLE
2
APPID
5
9
100
AcDbSymbolTable
70
2
0
APPID
5
12
100
AcDbSymbolTableRecord
100
AcDbRegAppTableRecord
2
ACAD
70
0
0
ENDTAB
0
TABLE
2
DIMSTYLE
5
A
100
AcDbSymbolTable
70
1
0
ENDTAB
0
TABLE
2
BLOCK_RECORD
5
1
100
AcDbSymbolTable
70
1
0
BLOCK_RECORD
5
1F
100
AcDbSymbolTableRecord
100
AcDbBlockTableRecord
2
*MODEL_SPACE
0
BLOCK_RECORD
5
1B
100
AcDbSymbolTableRecord
100
AcDbBlockTableRecord
2
*PAPER_SPACE
0
ENDTAB
0
ENDSEC
0
SECTION
2
BLOCKS
0
BLOCK
5
20
100
AcDbEntity
100
AcDbBlockBegin
2
*MODEL_SPACE
0
ENDBLK
5
21
100
AcDbEntity
100
AcDbBlockEnd
0
BLOCK
5
1C
100
AcDbEntity
100
AcDbBlockBegin
2
*PAPER_SPACE
0
ENDBLK
5
1D
100
AcDbEntity
100
AcDbBlockEnd
0
ENDSEC
0
SECTION
2
ENTITIES
0
LWPOLYLINE
5
100
100
AcDbEntity
8
0
100
AcDbPolyline
90
8
70
1
43
0.0
10
176.83750000000003
20
32.325000000000017
42
0.41421356237309503
10
177.83750000000003
20
31.324999999999932
10
189.83750000000001
20
31.325000000000003
42
0.4142135623730846
10
190.83750000000009
20
32.324999999999982
10
190.83750000000009
20
44.32500000000001
42
0.41421356237313667
10
189.83750000000001
20
45.325000000000024
10
177.83750000000001
20
45.324999999999989
42
0.41421356237307422
10
176.83750000000003
20
44.32500000000001
0
LWPOLYLINE
5
101
100
AcDbEntity
8
0
100
AcDbPolyline
90
14
70
1
43
0.0
10
-43.474999999999966
20
1.2749999999999773
10
249.22499999999999
20
1.2749999999999773
42
0.41421356237309503
10
251.22500000000002
20
3.2749999999999346
10
251.22500000000002
20
111.47499999999997
42
0.41421356237309503
10
249.22499999999999
20
113.47499999999997
10
-12.835996673168637
20
113.47499999999997
42
0.37338743347353526
10
-13.826020330885314
20
112.61590123193753
10
-14.305059014924417
20
109.25
10
-27.594940985075525
20
109.25
10
-28.073979669114664
20
112.61590123193753
42
0.37338743347353526
10
-29.06400332683134
20
113.47499999999997
10
-43.474999999999966
20
113.47499999999997
42
0.41421356237309503
10
-45.474999999999994
20
111.47499999999997
10
-45.474999999999994
20
3.2749999999999346
42
0.41421356237310542
0
LWPOLYLINE
5
102
100
AcDbEntity
8
0
100
AcDbPolyline
90
8
70
1
43
0.0
10
158.78749999999999
20
31.324999999999932
10
170.78749999999999
20
31.325000000000003
42
0.41421356237309503
10
171.78750000000002
20
32.325000000000017
10
171.78750000000002
20
44.32500000000001
42
0.41421356237310542
10
170.78749999999999
20
45.324999999999989
10
158.78749999999999
20
45.324999999999989
42
0.41421356237307422
10
157.78750000000002
20
44.32500000000001
10
157.78750000000002
20
32.325000000000017
42
0.41421356237312623
0
LWPOLYLINE
5
103
100
AcDbEntity
8
0
100
AcDbPolyline
90
8
70
1
43
0.0
10
152.73750000000007
20
32.325000000000017
42
-0.41421356237298057
10
151.73750000000001
20
31.325000000000003
10
139.73750000000001
20
31.324999999999967
42
-0.41421356237312623
10
138.73750000000001
20
32.325000000000017
10
138.73750000000001
20
44.32500000000001
42
-0.41421356237310542
10
139.73750000000001
20
45.324999999999989
10
151.73750000000001
20
45.325000000000024
42
-0.4142135623730222
10
152.73750000000007
20
44.32500000000001
0
CIRCLE
5
104
100
AcDbEntity
8
0
100
AcDbCircle
10
246.22500000000002
20
5.2749999999999631
30
0
40
2.9999999999999916
210
0
220
0
230
1
0
LWPOLYLINE
5
105
100
AcDbEntity
8
0
100
AcDbPolyline
90
8
70
1
43
0.0
10
51.724999999999994
20
88.474999999999994
10
39.724999999999966
20
88.474999999999994
42
-0.4142135623730846
10
38.725000000000023
20
89.47499999999998
10
38.725000000000023
20
101.47500000000001
42
-0.4142135623730846
10
39.724999999999966
20
102.47499999999999
10
51.724999999999994
20
102.47500000000002
42
-0.41421356237309503
10
52.725000000000009
20
101.47500000000001
10
52.724999999999973
20
89.47499999999998
42
-0.41421356237311585
0
LWPOLYLINE
5
106
100
AcDbEntity
8
0
100
AcDbPolyline
90
8
70
1
43
0.0
10
30.200000000000031
20
69.424999999999983
10
42.200000000000024
20
69.424999999999983
42
0.41421356237306384
10
43.200000000000003
20
70.425000000000011
10
43.200000000000003
20
82.424999999999997
42
0.4142135623730846
10
42.199999999999989
20
83.424999999999983
10
30.199999999999996
20
83.424999999999983
42
0.4142135623730846
10
29.200000000000017
20
82.424999999999955
10
29.200000000000017
20
70.425000000000011
42
0.41421356237309503
0
LWPOLYLINE
5
107
100
AcDbEntity
8
0
100
AcDbPolyline
90
8
70
1
43
0.0
10
113.63749999999999
20
31.325000000000003
10
101.6375
20
31.324999999999967
42
-0.41421356237307422
10
100.63750000000002
20
32.325000000000017
10
100.63750000000006
20
44.32500000000001
42
-0.41421356237306384
10
101.6375
20
45.324999999999989
10
113.63749999999999
20
45.324999999999989
42
-0.41421356237307422
10
114.63749999999997
20
44.32500000000001
10
114.63750000000002
20
32.325000000000017
42
-0.41421356237309503
0
LWPOLYLINE
5
108
100
AcDbEntity
8
0
100
AcDbPolyline
90
8
70
1
43
0.0
10
46.962499999999991
20
50.375000000000014
10
34.962499999999999
20
50.375000000000014
42
-0.41421356237309503
10
33.96250000000002
20
51.374999999999993
10
33.96250000000002
20
63.374999999999986
42
-0.4142135623730846
10
34.962499999999999
20
64.375
10
46.962500000000063
20
64.374999999999972
42
-0.41421356237306384
10
47.962500000000006
20
63.374999999999986
10
47.962500000000006
20
51.374999999999993
42
-0.4142135623730846
0
LWPOLYLINE
5
109
100
AcDbEntity
8
0
100
AcDbPolyline
90
8
70
1
43
0.0
10
120.68750000000001
20
31.325000000000003
10
132.68749999999997
20
31.325000000000003
42
0.41421356237310542
10
133.68750000000009
20
32.325000000000017
10
133.68750000000003
20
44.32500000000001
42
0.41421356237306384
10
132.6875
20
45.324999999999989
10
120.68750000000001
20
45.324999999999989
42
0.4142135623730534
10
119.68750000000003
20
44.32500000000001
10
119.68750000000007
20
32.325000000000017
42
0.41421356237307422
0
LWPOLYLINE
5
110
100
AcDbEntity
8
0
100
AcDbPolyline
90
8
70
1
43
0.0
10
9.8624999999999829
20
63.374999999999986
10
9.8624999999999829
20
51.374999999999993
42
-0.41421356237309503
10
8.8625000000000043
20
50.375000000000014
10
-3.1374999999999886
20
50.374999999999979
42
-0.41421356237309503
10
-4.1375000000000028
20
51.374999999999993
10
-4.1375000000000028
20
63.374999999999986
42
-0.41421356237309503
10
-3.1374999999999886
20
64.375
10
8.8625000000000043
20
64.374999999999972
42
-0.41421356237309503
0
LWPOLYLINE
5
111
100
AcDbEntity
8
0
100
AcDbPolyline
90
8
70
1
43
0.0
10
81.587500000000006
20
32.325000000000017
10
81.587500000000006
20
44.32500000000001
42
-0.41421356237309503
10
82.587499999999991
20
45.324999999999989
10
94.587500000000063
20
45.324999999999989
42
-0.41421356237307422
10
95.587500000000034
20
44.32500000000001
10
95.587500000000034
20
32.325000000000017
42
-0.41421356237311585
10
94.58750000000002
20
31.325000000000003
10
82.587499999999991
20
31.325000000000038
42
-0.41421356237309503
0
LWPOLYLINE
5
112
100
AcDbEntity
8
0
100
AcDbPolyline
90
8
70
1
43
0.0
10
76.537500000000023
20
44.32500000000001
10
76.537500000000023
20
32.325000000000017
42
-0.41421356237309503
10
75.537500000000009
20
31.325000000000003
10
63.53749999999998
20
31.325000000000038
42
-0.41421356237309503
10
62.537500000000001
20
32.325000000000017
10
62.537500000000001
20
44.32500000000001
42
-0.41421356237309503
10
63.53749999999998
20
45.324999999999989
10
75.537500000000009
20
45.324999999999989
42
-0.4142135623730846
0
LWPOLYLINE
5
113
100
AcDbEntity
8
0
100
AcDbPolyline
90
8
70
1
43
0.0
10
-35.093749999999986
20
63.374999999999986
10
-35.09374999999995
20
51.374999999999993
42
0.41421356237309503
10
-34.093749999999972
20
50.375000000000014
10
-17.331249999999976
20
50.374999999999979
42
0.4142135623730846
10
-16.331249999999997
20
51.374999999999993
10
-16.331249999999997
20
63.374999999999986
42
0.4142135623730846
10
-17.331249999999976
20
64.375
10
-34.093749999999972
20
64.375
42
0.41421356237309503
0
LWPOLYLINE
5
114
100
AcDbEntity
8
0
100
AcDbPolyline
90
8
70
1
43
0.0
10
43.487500000000026
20
44.32500000000001
10
43.48749999999999
20
32.325000000000017
42
0.4142135623730846
10
44.48750000000004
20
31.325000000000003
10
56.487499999999997
20
31.325000000000038
42
0.4142135623730846
10
57.487500000000011
20
32.325000000000017
10
57.487500000000011
20
44.32500000000001
42
0.4142135623730846
10
56.487499999999997
20
45.324999999999989
10
44.48750000000004
20
45.324999999999989
42
0.4142135623730846
0
LWPOLYLINE
5
115
100
AcDbEntity
8
0
100
AcDbPolyline
90
8
70
1
43
0.0
10
14.912500000000009
20
51.374999999999993
10
14.912500000000009
20
63.374999999999986
42
-0.41421356237309503
10
15.912500000000023
20
64.375
10
27.91249999999998
20
64.375
42
-0.41421356237309503
10
28.912499999999994
20
63.374999999999986
10
28.912499999999959
20
51.374999999999993
42
-0.41421356237309503
10
27.91249999999998
20
50.375000000000014
10
15.912500000000023
20
50.374999999999979
42
-0.41421356237309503
0
LWPOLYLINE
5
116
100
AcDbEntity
8
0
100
AcDbPolyline
90
8
70
1
43
0.0
10
4.1000000000000014
20
69.424999999999983
10
-7.8999999999999915
20
69.424999999999983
42
-0.41421356237309503
10
-8.9000000000000057
20
70.425000000000011
10
-8.8999999999999702
20
82.424999999999997
42
-0.41421356237309503
10
-7.8999999999999915
20
83.424999999999983
10
4.1000000000000014
20
83.425000000000011
42
-0.41421356237309503
10
5.1000000000000156
20
82.424999999999997
10
5.1000000000000156
20
70.425000000000011
42
-0.41421356237309503
0
LWPOLYLINE
5
117
100
AcDbEntity
8
0
100
AcDbPolyline
90
8
70
1
43
0.0
10
38.4375
20
44.32500000000001
10
38.4375
20
32.325000000000017
42
-0.41421356237309503
10
37.437499999999986
20
31.325000000000003
10
25.437499999999993
20
31.325000000000003
42
-0.4142135623730846
10
24.437500000000014
20
32.325000000000017
10
24.437500000000014
20
44.32500000000001
42
-0.41421356237309503
10
25.437499999999993
20
45.324999999999989
10
37.437499999999986
20
45.325000000000024
42
-0.41421356237309503
0
LWPOLYLINE
5
118
100
AcDbEntity
8
0
100
AcDbPolyline
90
8
70
1
43
0.0
10
24.149999999999991
20
82.424999999999997
10
24.150000000000027
20
70.425000000000011
42
-0.41421356237309503
10
23.150000000000013
20
69.424999999999983
10
11.15000000000002
20
69.424999999999983
42
-0.41421356237309503
10
10.150000000000006
20
70.425000000000011
10
10.150000000000041
20
82.424999999999997
42
-0.41421356237309503
10
11.15000000000002
20
83.424999999999983
10
23.150000000000013
20
83.424999999999983
42
-0.41421356237309503
0
LWPOLYLINE
5
119
100
AcDbEntity
8
0
100
AcDbPolyline
90
8
70
1
43
0.0
10
-4.4249999999999901
20
101.47500000000001
10
-4.4249999999999901
20
89.47499999999998
42
-0.4142135623730846
10
-5.4250000000000043
20
88.474999999999994
10
-17.424999999999997
20
88.474999999999994
42
-0.41421356237309503
10
-18.424999999999976
20
89.47499999999998
10
-18.424999999999976
20
101.47500000000001
42
-0.41421356237309503
10
-17.424999999999997
20
102.47499999999999
10
-5.4250000000000043
20
102.47500000000002
42
-0.41421356237309503
0
CIRCLE
5
120
100
AcDbEntity
8
0
100
AcDbCircle
10
-40.474999999999994
20
109.47499999999994
30
0
40
3.0000000000000004
210
0
220
0
230
1
0
LWPOLYLINE
5
121
100
AcDbEntity
8
0
100
AcDbPolyline
90
8
70
1
43
0.0
10
19.675000000000011
20
89.47499999999998
10
19.675000000000011
20
101.47500000000001
42
-0.41421356237309503
10
20.67499999999999
20
102.47499999999999
10
32.674999999999983
20
102.47499999999999
42
-0.41421356237309503
10
33.674999999999997
20
101.47499999999997
10
33.674999999999997
20
89.47499999999998
42
-0.4142135623730846
10
32.674999999999983
20
88.474999999999994
10
20.67499999999999
20
88.474999999999994
42
-0.41421356237309503
0
LWPOLYLINE
5
122
100
AcDbEntity
8
0
100
AcDbPolyline
90
8
70
1
43
0.0
10
213.65000000000009
20
83.42500000000004
10
201.65000000000006
20
83.424999999999983
42
0.41421356237311585
10
200.65000000000001
20
82.424999999999997
10
200.65000000000001
20
70.425000000000011
42
0.41421356237311585
10
201.65000000000006
20
69.425000000000026
10
213.65000000000009
20
69.424999999999983
42
0.41421356237307422
10
214.65000000000003
20
70.425000000000011
10
214.65000000000003
20
82.424999999999997
42
0.41421356237306384
0
LWPOLYLINE
5
123
100
AcDbEntity
8
0
100
AcDbPolyline
90
8
70
1
43
0.0
10
-37.474999999999987
20
101.47500000000001
42
-0.41421356237309503
10
-36.475000000000009
20
102.47499999999999
10
-24.47499999999998
20
102.47500000000002
42
-0.41421356237309503
10
-23.474999999999966
20
101.47500000000001
10
-23.474999999999966
20
89.47499999999998
42
-0.4142135623730846
10
-24.47499999999998
20
88.474999999999994
10
-36.475000000000009
20
88.474999999999966
42
-0.41421356237309503
10
-37.475000000000023
20
89.47499999999998
0
CIRCLE
5
124
100
AcDbEntity
8
0
100
AcDbCircle
10
-40.474999999999994
20
5.2749999999999631
30
0
40
3.0000000000000031
210
0
220
0
230
1
0
LWPOLYLINE
5
125
100
AcDbEntity
8
0
100
AcDbPolyline
90
8
70
1
43
0.0
10
18.38750000000001
20
31.325000000000003
10
6.3875000000000171
20
31.325000000000003
42
-0.41421356237307422
10
5.3875000000000028
20
32.325000000000017
10
5.3875000000000384
20
44.32500000000001
42
-0.41421356237309503
10
6.3875000000000171
20
45.324999999999989
10
18.38750000000001
20
45.324999999999989
42
-0.41421356237309503
10
19.387499999999989
20
44.32500000000001
10
19.387500000000024
20
32.325000000000017
42
-0.41421356237309503
0
LWPOLYLINE
5
126
100
AcDbEntity
8
0
100
AcDbPolyline
90
8
70
1
43
0.0
10
-32.712499999999984
20
82.424999999999997
42
-0.41421356237309503
10
-31.712500000000006
20
83.424999999999983
10
-19.712500000000013
20
83.424999999999983
42
-0.41421356237310542
10
-18.712499999999999
20
82.424999999999997
10
-18.712499999999999
20
70.425000000000011
42
-0.41421356237309503
10
-19.712500000000013
20
69.424999999999983
10
-31.712500000000006
20
69.424999999999983
42
-0.41421356237309503
10
-32.71250000000002
20
70.425000000000011
0
CIRCLE
5
127
100
AcDbEntity
8
0
100
AcDbCircle
10
150.65833333333336
20
109.47499999999994
30
0
40
3.0000000000000071
210
0
220
0
230
1
0
CIRCLE
5
128
100
AcDbEntity
8
0
100
AcDbCircle
10
55.091666666666725
20
109.47499999999994
30
0
40
3.0000000000000071
210
0
220
0
230
1
0
CIRCLE
5
129
100
AcDbEntity
8
0
100
AcDbCircle
10
150.65833333333336
20
5.2749999999999631
30
0
40
3.0000000000000071
210
0
220
0
230
1
0
LWPOLYLINE
5
130
100
AcDbEntity
8
0
100
AcDbPolyline
90
8
70
1
43
0.0
10
204.125
20
88.474999999999994
10
192.12500000000009
20
88.474999999999994
42
-0.4142135623730846
10
191.12500000000011
20
89.475000000000023
10
191.12499999999997
20
101.47500000000001
42
-0.41421356237315748
10
192.12500000000009
20
102.47499999999999
10
204.125
20
102.47500000000002
42
-0.41421356237309503
10
205.12500000000003
20
101.47500000000001
10
205.12500000000003
20
89.47499999999998
42
-0.41421356237310542
0
CIRCLE
5
131
100
AcDbEntity
8
0
100
AcDbCircle
10
55.091666666666654
20
5.2749999999999631
30
0
40
2.9999999999999947
210
0
220
0
230
1
0
LWPOLYLINE
5
132
100
AcDbEntity
8
0
100
AcDbPolyline
90
8
70
1
43
0.0
10
123.16250000000014
20
50.375000000000014
10
111.16250000000005
20
50.375000000000014
42
-0.4142135623730534
10
110.16250000000014
20
51.374999999999993
10
110.16250000000014
20
63.374999999999986
42
-0.41421356237307422
10
111.16250000000008
20
64.375
10
123.16249999999999
20
64.375
42
-0.41421356237303258
10
124.16250000000005
20
63.37499999999995
10
124.16250000000005
20
51.374999999999993
42
-0.4142135623730534
0
LWPOLYLINE
5
133
100
AcDbEntity
8
0
100
AcDbPolyline
90
8
70
1
43
0.0
10
127.92500000000001
20
88.474999999999966
10
115.92500000000001
20
88.475000000000037
42
-0.41421356237309503
10
114.92500000000007
20
89.47499999999998
10
114.92500000000004
20
101.47500000000001
42
-0.41421356237313667
10
115.92500000000001
20
102.47499999999999
10
127.92500000000001
20
102.47500000000005
42
-0.41421356237304302
10
128.92500000000001
20
101.47500000000001
10
128.92500000000001
20
89.47499999999998
42
-0.4142135623730534
0
LWPOLYLINE
5
134
100
AcDbEntity
8
0
100
AcDbPolyline
90
24
70
1
43
0.0
10
218.31875000000002
20
50.375000000000014
42
-0.41421356237310542
10
217.31875000000002
20
51.374999999999993
10
217.31875000000002
20
63.874999999999993
42
0.41421356237313667
10
216.81875000000002
20
64.375
10
216.38075000000003
20
64.375
42
0.41421356237313667
10
215.88075000000003
20
63.874999999999993
10
215.88075000000003
20
49.789999999999992
42
-0.41421356237310542
10
214.88075000000006
20
48.789999999999978
10
209.88075000000006
20
48.789999999999978
42
-0.41421356237310542
10
208.88075000000001
20
49.789999999999992
10
208.88075000000003
20
66.72999999999999
42
-0.4142135623730534
10
209.88075000000006
20
67.72999999999999
10
238.75675000000001
20
67.72999999999999
42
-0.41421356237309503
10
239.75675000000001
20
66.72999999999999
10
239.75675000000001
20
49.789999999999992
42
-0.41421356237309503
10
238.75675000000001
20
48.789999999999978
10
233.75675000000007
20
48.789999999999978
42
-0.41421356237306384
10
232.75675000000004
20
49.789999999999992
10
232.75675000000004
20
63.874999999999922
42
0.4142135623730534
10
232.25675000000007
20
64.374999999999929
10
231.81875000000116
20
64.374999999999972
42
0.41421356237311585
10
231.31875000000116
20
63.874999999999993
10
231.31875000000005
20
51.374999999999993
42
-0.4142135623730222
10
230.31875000000011
20
50.375000000000014
0
LWPOLYLINE
5
135
100
AcDbEntity
8
0
100
AcDbPolyline
90
8
70
1
43
0.0
10
238.46249999999995
20
82.424999999999997
10
238.46250000000001
20
70.425000000000011
42
-0.4142135623730222
10
237.46250000000001
20
69.424999999999955
10
225.46250000000001
20
69.424999999999983
42
-0.41421356237309503
10
224.46249999999998
20
70.425000000000011
10
224.46249999999998
20
82.424999999999997
42
-0.41421356237310542
10
225.46250000000001
20
83.424999999999983
10
237.46250000000001
20
83.425000000000011
42
-0.41421356237307422
0
LWPOLYLINE
5
136
100
AcDbEntity
8
0
100
AcDbPolyline
90
8
70
1
43
0.0
10
14.624999999999986
20
101.47500000000001
10
14.624999999999986
20
89.47499999999998
42
-0.41421356237309503
10
13.625000000000007
20
88.474999999999994
10
1.6250000000000142
20
88.474999999999966
42
-0.41421356237309503
10
0.625
20
89.47499999999998
10
0.62500000000003553
20
101.47500000000001
42
-0.41421356237309503
10
1.6250000000000142
20
102.47499999999999
10
13.625000000000007
20
102.47499999999999
42
-0.41421356237309503
0
LWPOLYLINE
5
137
100
AcDbEntity
8
0
100
AcDbPolyline
90
8
70
1
43
0.0
10
77.824999999999989
20
102.47499999999999
10
89.825000000000017
20
102.47500000000002
42
-0.4142135623730534
10
90.825000000000031
20
101.47500000000001
10
90.825000000000031
20
89.47499999999998
42
-0.41421356237306384
10
89.825000000000017
20
88.474999999999994
10
77.824999999999989
20
88.475000000000037
42
-0.41421356237309503
10
76.825000000000045
20
89.47499999999998
10
76.825000000000045
20
101.47500000000001
42
-0.41421356237310542
0
LWPOLYLINE
5
138
100
AcDbEntity
8
0
100
AcDbPolyline
90
27
70
1
43
0.0
10
212.26200000000006
20
85.120000000000005
10
226.70000000000005
20
85.119999999999976
10
241.13799999999998
20
85.119999999999976
42
0.41421356237309503
10
242.13799999999998
20
86.119999999999976
10
242.13799999999998
20
88.474999999999994
10
242.22500000000002
20
88.474999999999994
42
0.41421356237310542
10
243.22500000000005
20
89.47499999999998
10
243.22500000000005
20
101.47500000000001
42
0.41421356237309503
10
242.22500000000002
20
102.47500000000002
10
242.13799999999998
20
102.47500000000002
10
242.13799999999995
20
103.06
42
0.41421356237309503
10
241.13799999999998
20
104.05999999999999
10
236.13799999999998
20
104.05999999999999
42
0.41421356237312623
10
235.13800000000001
20
103.05999999999997
10
235.13800000000001
20
102.47500000000001
10
218.26200000000011
20
102.47500000000002
10
218.26200000000006
20
103.05999999999997
42
0.41421356237310542
10
217.26200000000006
20
104.05999999999995
10
212.26200000000028
20
104.05999999999999
42
0.41421356237310542
10
211.26200000000026
20
103.06
10
211.26200000000026
20
102.47500000000002
10
211.17500000000004
20
102.47500000000002
42
0.4142135623730534
10
210.17500000000001
20
101.47500000000001
10
210.1750000000001
20
89.47499999999998
42
0.41421356237304302
10
211.17500000000001
20
88.474999999999966
10
211.26200000000006
20
88.474999999999966
10
211.262
20
86.120000000000019
42
0.41421356237310542
0
LWPOLYLINE
5
139
100
AcDbEntity
8
0
100
AcDbPolyline
90
8
70
1
43
0.0
10
154.02500000000003
20
88.474999999999994
10
166.02500000000006
20
88.474999999999966
42
0.41421356237307422
10
167.02500000000001
20
89.47499999999998
10
167.02500000000009
20
101.47500000000001
42
0.41421356237314705
10
166.02500000000006
20
102.47499999999999
10
154.02500000000003
20
102.47500000000002
42
0.41421356237307422
10
153.02500000000009
20
101.47500000000001
10
153.02500000000009
20
89.47499999999998
42
0.4142135623730846
0
LWPOLYLINE
5
140
100
AcDbEntity
8
0
100
AcDbPolyline
90
8
70
1
43
0.0
10
161.26249999999999
20
50.375000000000014
10
149.26250000000007
20
50.374999999999943
42
-0.41421356237306384
10
148.26249999999999
20
51.374999999999993
10
148.26249999999999
20
63.374999999999986
42
-0.41421356237306384
10
149.26249999999999
20
64.374999999999972
10
161.26249999999999
20
64.375
42
-0.41421356237309503
10
162.26249999999999
20
63.374999999999986
10
162.26249999999999
20
51.374999999999993
42
-0.41421356237310542
0
LWPOLYLINE
5
141
100
AcDbEntity
8
0
100
AcDbPolyline
90
8
70
1
43
0.0
10
124.45
20
70.425000000000011
10
124.44999999999996
20
82.424999999999997
42
-0.4142135623730534
10
125.44999999999999
20
83.425000000000011
10
137.45000000000005
20
83.425000000000011
42
-0.41421356237309503
10
138.45000000000005
20
82.424999999999997
10
138.4500000000001
20
70.425000000000011
42
-0.41421356237309503
10
137.45000000000005
20
69.424999999999955
10
125.44999999999987
20
69.424999999999955
42
-0.4142135623730846
0
LWPOLYLINE
5
142
100
AcDbEntity
8
0
100
AcDbPolyline
90
8
70
1
43
0.0
10
195.60000000000002
20
82.424999999999997
10
195.60000000000005
20
70.425000000000011
42
-0.41421356237309503
10
194.60000000000002
20
69.424999999999955
10
182.60000000000002
20
69.424999999999955
42
-0.41421356237304302
10
181.59999999999999
20
70.425000000000011
10
181.59999999999999
20
82.424999999999997
42
-0.4142135623730534
10
182.60000000000002
20
83.425000000000011
10
194.60000000000002
20
83.425000000000011
42
-0.41421356237309503
0
LWPOLYLINE
5
143
100
AcDbEntity
8
0
100
AcDbPolyline
90
8
70
1
43
0.0
10
85.062500000000014
20
50.374999999999979
10
73.062499999999986
20
50.375000000000014
42
-0.41421356237309503
10
72.0625
20
51.374999999999993
10
72.062500000000043
20
63.374999999999986
42
-0.41421356237307422
10
73.062499999999986
20
64.375
10
85.062500000000014
20
64.375
42
-0.41421356237309503
10
86.062500000000028
20
63.374999999999986
10
86.062500000000028
20
51.374999999999993
42
-0.41421356237309503
0
LWPOLYLINE
5
144
100
AcDbEntity
8
0
100
AcDbPolyline
90
8
70
1
43
0.0
10
68.299999999999983
20
83.424999999999983
10
80.300000000000011
20
83.425000000000011
42
-0.41421356237310542
10
81.299999999999983
20
82.424999999999997
10
81.300000000000026
20
70.425000000000011
42
-0.41421356237309503
10
80.300000000000011
20
69.424999999999983
10
68.299999999999983
20
69.424999999999983
42
-0.4142135623730846
10
67.300000000000011
20
70.425000000000011
10
67.300000000000011
20
82.424999999999997
42
-0.41421356237307422
0
LWPOLYLINE
5
145
100
AcDbEntity
8
0
100
AcDbPolyline
90
8
70
1
43
0.0
10
200.36250000000001
20
51.374999999999993
42
-0.41421356237310542
10
199.36250000000001
20
50.375000000000014
10
187.36250000000001
20
50.374999999999979
42
-0.41421356237307422
10
186.36250000000007
20
51.374999999999993
10
186.36250000000004
20
63.374999999999986
42
-0.41421356237310542
10
187.36250000000001
20
64.375
10
199.36250000000001
20
64.375
42
-0.41421356237309503
10
200.36250000000001
20
63.374999999999986
0
LWPOLYLINE
5
146
100
AcDbEntity
8
0
100
AcDbPolyline
90
8
70
1
43
0.0
10
176.55000000000007
20
82.424999999999997
10
176.55000000000007
20
70.425000000000011
42
-0.41421356237313667
10
175.55000000000007
20
69.424999999999983
10
163.55000000000004
20
69.424999999999983
42
-0.41421356237309503
10
162.55000000000001
20
70.425000000000011
10
162.55000000000001
20
82.424999999999997
42
-0.41421356237310542
10
163.55000000000004
20
83.424999999999983
10
175.55000000000007
20
83.425000000000011
42
-0.41421356237313667
0
LWPOLYLINE
5
147
100
AcDbEntity
8
0
100
AcDbPolyline
90
8
70
1
43
0.0
10
168.31250000000011
20
50.374999999999979
10
180.3125
20
50.374999999999979
42
0.41421356237309503
10
181.3125
20
51.374999999999993
10
181.31250000000006
20
63.374999999999986
42
0.41421356237310542
10
180.3125
20
64.375
10
168.3125
20
64.375
42
0.4142135623730846
10
167.31250000000003
20
63.374999999999986
10
167.31250000000003
20
51.374999999999993
42
0.41421356237313667
0
LWPOLYLINE
5
148
100
AcDbEntity
8
0
100
AcDbPolyline
90
8
70
1
43
0.0
10
133.97500000000005
20
89.47499999999998
10
133.97499999999997
20
101.47500000000001
42
-0.4142135623730534
10
134.97499999999999
20
102.47500000000002
10
146.97500000000002
20
102.47500000000002
42
-0.4142135623730846
10
147.97499999999999
20
101.47500000000001
10
147.97499999999997
20
89.47499999999998
42
-0.41421356237307422
10
146.97500000000002
20
88.474999999999966
10
134.97499999999999
20
88.474999999999966
42
-0.4142135623730534
0
LWPOLYLINE
5
149
100
AcDbEntity
8
0
100
AcDbPolyline
90
8
70
1
43
0.0
10
157.50000000000003
20
82.424999999999997
10
157.50000000000006
20
70.425000000000011
42
-0.4142135623730846
10
156.50000000000009
20
69.424999999999983
10
144.5
20
69.424999999999983
42
-0.41421356237310542
10
143.50000000000009
20
70.425000000000011
10
143.5
20
82.424999999999997
42
-0.41421356237310542
10
144.5
20
83.425000000000011
10
156.50000000000009
20
83.425000000000011
42
-0.41421356237307422
0
CIRCLE
5
150
100
AcDbEntity
8
0
100
AcDbCircle
10
246.22500000000002
20
109.47499999999994
30
0
40
3.0000000000000071
210
0
220
0
230
1
0
LWPOLYLINE
5
151
100
AcDbEntity
8
0
100
AcDbPolyline
90
8
70
1
43
0.0
10
48.250000000000028
20
70.425000000000011
10
48.249999999999993
20
82.424999999999997
42
-0.41421356237310542
10
49.250000000000007
20
83.424999999999983
10
61.25
20
83.425000000000011
42
-0.41421356237311585
10
62.250000000000085
20
82.424999999999997
10
62.25000000000005
20
70.425000000000011
42
-0.41421356237312623
10
61.25
20
69.424999999999983
10
49.250000000000007
20
69.424999999999983
42
-0.4142135623730846
0
LWPOLYLINE
5
152
100
AcDbEntity
8
0
100
AcDbPolyline
90
8
70
1
43
0.0
10
105.40000000000006
20
82.424999999999997
10
105.39999999999999
20
70.425000000000011
42
0.41421356237309503
10
106.40000000000001
20
69.424999999999983
10
118.40000000000003
20
69.424999999999983
42
0.4142135623730846
10
119.40000000000001
20
70.425000000000011
10
119.40000000000001
20
82.424999999999997
42
0.4142135623730846
10
118.40000000000003
20
83.425000000000011
10
106.40000000000001
20
83.424999999999983
42
0.41421356237310542
0
LWPOLYLINE
5
153
100
AcDbEntity
8
0
100
AcDbPolyline
90
8
70
1
43
0.0
10
100.34999999999999
20
82.424999999999997
10
100.34999999999999
20
70.425000000000011
42
-0.41421356237306384
10
99.350000000000023
20
69.424999999999983
10
87.349999999999994
20
69.424999999999983
42
-0.41421356237309503
10
86.34999999999998
20
70.425000000000011
10
86.34999999999998
20
82.424999999999997
42
-0.41421356237309503
10
87.349999999999994
20
83.425000000000011
10
99.350000000000023
20
83.424999999999983
42
-0.41421356237307422
0
LWPOLYLINE
5
154
100
AcDbEntity
8
0
100
AcDbPolyline
90
8
70
1
43
0.0
10
92.112499999999997
20
64.375
10
104.11250000000003
20
64.375
42
-0.41421356237309503
10
105.11250000000004
20
63.374999999999986
10
105.11250000000004
20
51.374999999999993
42
-0.41421356237309503
10
104.11250000000003
20
50.374999999999979
10
92.112499999999997
20
50.375000000000014
42
-0.41421356237309503
10
91.112500000000011
20
51.374999999999993
10
91.112499999999983
20
63.374999999999986
42
-0.41421356237309503
0
LWPOLYLINE
5
155
100
AcDbEntity
8
0
100
AcDbPolyline
90
8
70
1
43
0.0
10
130.21250000000009
20
64.375
42
0.41421356237307422
10
129.21250000000001
20
63.374999999999986
10
129.21250000000003
20
51.374999999999993
42
0.41421356237309503
10
130.21250000000009
20
50.375000000000014
10
142.21250000000003
20
50.375000000000014
42
0.4142135623730534
10
143.21250000000003
20
51.374999999999993
10
143.21250000000003
20
63.374999999999986
42
0.4142135623730534
10
142.21250000000003
20
64.375000000000028
0
LWPOLYLINE
5
156
100
AcDbEntity
8
0
100
AcDbPolyline
90
8
70
1
43
0.0
10
186.07500000000002
20
89.47499999999998
42
-0.41421356237310542
10
185.07499999999999
20
88.474999999999994
10
173.07499999999999
20
88.474999999999966
42
-0.41421356237304302
10
172.07500000000007
20
89.47499999999998
10
172.07499999999999
20
101.47500000000001
42
-0.4142135623730534
10
173.07500000000002
20
102.47500000000002
10
185.07499999999999
20
102.47500000000002
42
-0.41421356237309503
10
186.07500000000002
20
101.47500000000001
0
LWPOLYLINE
5
157
100
AcDbEntity
8
0
100
AcDbPolyline
90
8
70
1
43
0.0
10
70.775000000000006
20
88.474999999999994
10
58.775000000000013
20
88.474999999999994
42
-0.41421356237311585
10
57.775000000000034
20
89.47499999999998
10
57.775000000000034
20
101.47500000000001
42
-0.41421356237311585
10
58.775000000000013
20
102.47499999999999
10
70.775000000000006
20
102.47499999999999
42
-0.4142135623730846
10
71.77500000000002
20
101.47500000000001
10
71.77500000000002
20
89.47499999999998
42
-0.41421356237312623
0
LWPOLYLINE
5
158
100
AcDbEntity
8
0
100
AcDbPolyline
90
8
70
1
43
0.0
10
54.01250000000001
20
50.374999999999979
10
66.012500000000003
20
50.375000000000014
42
0.4142135623730846
10
67.012500000000017
20
51.374999999999993
10
67.012500000000045
20
63.374999999999986
42
0.41421356237312623
10
66.012500000000003
20
64.375
10
54.01250000000001
20
64.375
42
0.41421356237306384
10
53.012500000000031
20
63.374999999999986
10
53.012500000000031
20
51.374999999999993
42
0.41421356237306384
0
LWPOLYLINE
5
159
100
AcDbEntity
8
0
100
AcDbPolyline
90
8
70
1
43
0.0
10
96.875
20
88.474999999999994
10
108.87500000000003
20
88.474999999999994
42
0.41421356237306384
10
109.87500000000004
20
89.47499999999998
10
109.875
20
101.47500000000001
42
0.4142135623730846
10
108.87500000000003
20
102.47500000000002
10
96.875
20
102.47500000000002
42
0.41421356237309503
10
95.874999999999986
20
101.47500000000001
10
95.875000000000028
20
89.47499999999998
42
0.41421356237311585
0
LWPOLYLINE
5
160
100
AcDbEntity
8
0
100
AcDbPolyline
90
40
70
1
43
0.0
10
38.22756637820433
20
29.640417321843859
42
0.41421356237309503
10
36.602566378204251
20
28.015417321843778
10
36.602566378204244
20
11.675417321885782
42
0.41421356237310147
10
38.227566378204436
20
10.050417321885625
10
48.227566378205395
20
10.050417321885767
42
0.41421356237310147
10
49.85256637820541
20
11.675417321885817
10
49.85256637820541
20
25.260895461944695
42
-0.41407349183057662
10
50.852088123795639
20
26.260895347581048
10
82.965361544600299
20
26.276253663962773
42
-0.41443335290642908
10
83.965839761991106
20
25.275981679255068
10
83.962574813519268
20
13.276865567972926
42
0.41421332545092154
10
84.964464123289815
20
12.274977970976799
10
108.87220853475861
20
12.27498873692479
42
0.4142162244402734
10
109.87410689765143
20
13.276877197221495
10
109.87411166764466
20
25.276374272700632
42
-0.41431840463116787
10
110.87447000574358
20
26.276373810981433
10
135.84667471630274
20
26.267425318043152
42
-0.41410861146575695
10
136.84631637820374
20
25.267425382246252
10
136.84631637820374
20
11.675417321844179
42
0.41421356237309503
10
138.47131637820377
20
10.050417321844165
10
143.47131637820374
20
10.050417321844165
42
0.41421356237308865
10
145.09631637820368
20
11.675417321844073
10
145.09631637820368
20
25.263752416495684
42
-0.41431852106957656
10
146.09667471630269
20
26.263752352292581
10
154.40396993222254
20
26.26077553172599
42
-0.41410874729006353
10
155.40361159412342
20
25.26077513216147
10
155.40360603637441
20
13.276865567979179
42
0.26540225264050438
10
155.89631637820369
20
12.414005772126835
10
155.89631637820366
20
11.675417321844144
42
0.41421356237309503
10
157.52131637820369
20
10.05041732184413
10
162.52131637820366
20
10.05041732184413
42
0.41421356237309503
10
164.14631637820361
20
11.675417321844073
10
164.14631637820361
20
12.274988736924755
10
170.78470853474298
20
12.274988736924755
42
0.41421446135563705
10
171.78660689762427
20
13.276871166311572
10
171.78662842949083
20
25.274830469376717
42
0.41422113367575175
10
170.78472317645509
20
26.276728832182599
10
164.14631637820361
20
26.27662020419514
10
164.14631637820364
20
28.015417321843991
42
0.41421356237309503
10
162.52131637820366
20
29.640417321843969
0
LWPOLYLINE
5
161
100
AcDbEntity
8
0
100
AcDbPolyline
90
9
70
1
43
0.0
10
194.59474393744688
20
12.272351709209143
42
0.41421596468440519
10
195.59663150917001
20
13.274250072148313
10
195.59660997732328
20
25.272204207622551
42
0.41421597205627297
10
194.5947116144221
20
26.27409180460031
10
177.8307262560821
20
26.274102570523805
42
0.41318583137324982
10
176.83235911605411
20
25.272214973545886
10
176.83236514497116
20
13.270709375268801
10
176.83236504990327
20
13.270764611260368
42
0.41217741964251942
10
177.83072625608202
20
12.272330177406623
0
LWPOLYLINE
5
162
100
AcDbEntity
8
0
100
AcDbPolyline
90
8
70
1
43
0.0
10
201.6461946979675
20
12.272328687238801
42
-0.41421422009154651
10
200.64485986557884
20
13.273662770099861
10
200.64486884728225
20
25.272769282876091
42
-0.4142135490100175
10
201.64620288445894
20
26.274101866679835
10
216.02299582599645
20
26.274091761135224
42
-0.4142129180179378
10
217.02432845548452
20
25.272759926858299
10
217.02434641881689
20
13.273685042585335
42
-0.41421356237309503
10
216.02301458454076
20
12.272350210197587
0
LINE
5
163
100
AcDbEntity
8
0
100
AcDbLine
10
211.87382054399484
20
45.348501439835971
30
0
11
211.87382054399484
21
45.346716355555969
31
0
0
LINE
5
164
100
AcDbEntity
8
0
100
AcDbLine
10
225.55078608416102
20
45.342048355736857
30
0
11
211.87382054399484
21
45.346716355555969
31
0
0
SPLINE
5
165
100
AcDbEntity
8
0
100
AcDbSpline
70
4
71
3
72
8
73
4
74
0
42
0.000000001
43
0.0000000001
44
0.0000000001
40
0
40
0
40
0
40
0
40
1
40
1
40
1
40
1
41
1
41
1
41
1
41
1
10
226.54923841023509
20
44.34359107686646
30
0
10
226.54923754887909
20
44.897505264686117
30
0
10
226.10117097382761
20
45.342048355736857
30
0
10
225.55078608416102
20
45.342048355736857
30
0
0
LINE
5
166
100
AcDbEntity
8
0
100
AcDbLine
10
226.54923841023509
20
31.342491765852625
30
0
11
226.54923841023509
21
44.34359107686646
31
0
0
LINE
5
167
100
AcDbEntity
8
0
100
AcDbLine
10
227.37383654399486
20
31.342491765852625
30
0
11
226.54923841023509
21
31.342491765852625
31
0
0
LINE
5
168
100
AcDbEntity
8
0
100
AcDbLine
10
227.37383654399486
20
45.348501439835957
30
0
11
227.37383654399486
21
31.342491765852625
31
0
0
ARC
5
169
100
AcDbEntity
8
0
100
AcDbCircle
10
227.37383654399514
20
45.848501439835836
30
0
40
0.49999999999988276
210
0
220
0
230
1
100
AcDbArc
50
-90.000000000032571
51
0
0
LINE
5
170
100
AcDbEntity
8
0
100
AcDbLine
10
227.87383654399497
20
45.848501439835943
30
0
11
227.87383654399497
21
45.848500439835917
31
0
0
LINE
5
171
100
AcDbEntity
8
0
100
AcDbLine
10
227.87383654399497
20
45.848500439835917
30
0
11
227.87383654399497
21
46.348502439835912
31
0
0
LINE
5
172
100
AcDbEntity
8
0
100
AcDbLine
10
227.87383654399497
20
46.348502439835912
30
0
11
227.87383654399497
21
46.348502439835926
31
0
0
ARC
5
173
100
AcDbEntity
8
0
100
AcDbCircle
10
228.87383654399491
20
46.348502439835926
30
0
40
1.0000000000000142
210
0
220
-0
230
1
100
AcDbArc
50
90
51
180
0
LINE
5
174
100
AcDbEntity
8
0
100
AcDbLine
10
228.87383654399491
20
47.34850243983594
30
0
11
228.87382854399482
21
47.348502439835904
31
0
0
LINE
5
175
100
AcDbEntity
8
0
100
AcDbLine
10
228.87382854399482
20
47.348502439835904
30
0
11
234.37382854399493
21
47.348502439835904
31
0
0
LINE
5
176
100
AcDbEntity
8
0
100
AcDbLine
10
234.37382154399478
20
47.34850243983594
30
0
11
234.37382854399493
21
47.348502439835904
31
0
0
ARC
5
177
100
AcDbEntity
8
0
100
AcDbCircle
10
234.37382154399478
20
46.348502439835926
30
0
40
1.0000000000002274
210
0
220
0
230
1
100
AcDbArc
50
0
51
90
0
LINE
5
178
100
AcDbEntity
8
0
100
AcDbLine
10
235.37382154399501
20
46.348502439835961
30
0
11
235.37382154399501
21
46.348502439835926
31
0
0
LINE
5
179
100
AcDbEntity
8
0
100
AcDbLine
10
235.37382154399501
20
46.348502439835961
30
0
11
235.37382154399501
21
45.346716355556005
31
0
0
LINE
5
180
100
AcDbEntity
8
0
100
AcDbLine
10
235.37382154399501
20
45.346716355556005
30
0
11
242.22109712904904
21
45.346716355555969
31
0
0
ARC
5
181
100
AcDbEntity
8
0
100
AcDbCircle
10
242.22109712904896
20
44.346716355555884
30
0
40
1.0000000000000853
210
0
220
-0
230
1
100
AcDbArc
50
0
51
89.999999999995111
0
LINE
5
182
100
AcDbEntity
8
0
100
AcDbLine
10
243.22109712904904
20
44.346716355555955
30
0
11
243.2210971290491
21
32.346716355556069
31
0
0
ARC
5
183
100
AcDbEntity
8
0
100
AcDbCircle
10
242.22109712904904
20
32.346716355556069
30
0
40
1.0000000000000853
210
0
220
0
230
1
100
AcDbArc
50
-89.999999999996746
51
0
0
LINE
5
184
100
AcDbEntity
8
0
100
AcDbLine
10
235.37382154399501
20
31.346716355555984
30
0
11
242.2210971290491
21
31.346716355555984
31
0
0
LINE
5
185
100
AcDbEntity
8
0
100
AcDbLine
10
235.37382154399501
20
31.346716355555984
30
0
11
235.37382154399501
21
28.848502439835997
31
0
0
LINE
5
186
100
AcDbEntity
8
0
100
AcDbLine
10
235.37382154394584
20
28.848509439836008
30
0
11
235.37382154399501
21
28.848502439835997
31
0
0
ARC
5
187
100
AcDbEntity
8
0
100
AcDbCircle
10
234.37382154397034
20
28.848502439835997
30
0
40
1.0000000000000142
210
0
220
0
230
1
100
AcDbArc
50
-90
51
0.00040107010969264067
0
LINE
5
188
100
AcDbEntity
8
0
100
AcDbLine
10
204.87382554399494
20
27.848502439835983
30
0
11
204.87381854399496
21
27.848502439836018
31
0
0
ARC
5
189
100
AcDbEntity
8
0
100
AcDbCircle
10
204.87382554399494
20
28.848502439835997
30
0
40
0.99999999999994316
210
0
220
0
230
1
100
AcDbArc
50
180
51
270
0
LINE
5
190
100
AcDbEntity
8
0
100
AcDbLine
10
203.873825543995
20
28.848500439836045
30
0
11
203.873825543995
21
28.848502439835997
31
0
0
LINE
5
191
100
AcDbEntity
8
0
100
AcDbLine
10
203.873825543995
20
28.848500439836045
30
0
11
203.873825543995
21
31.358571061116649
31
0
0
ARC
5
192
100
AcDbEntity
8
0
100
AcDbCircle
10
204.02734712904925
20
32.346716355555927
30
0
40
1.0000000000000142
210
0
220
0
230
1
100
AcDbArc
50
180
51
261.16893690395204
0
LINE
5
193
100
AcDbEntity
8
0
100
AcDbLine
10
203.02734712904922
20
44.346716355555884
30
0
11
203.02734712904922
21
32.346716355555998
31
0
0
ARC
5
194
100
AcDbEntity
8
0
100
AcDbCircle
10
204.02734712904916
20
44.346716355556026
30
0
40
0.9999999999999426
210
0
220
0
230
1
100
AcDbArc
50
98.831063096043763
51
180
0
LINE
5
195
100
AcDbEntity
8
0
100
AcDbLine
10
203.873825543995
20
45.334861649995233
30
0
11
203.873825543995
21
46.348502439835926
31
0
0
LINE
5
196
100
AcDbEntity
8
0
100
AcDbLine
10
203.873825543995
20
46.348500439835902
30
0
11
203.873825543995
21
46.348502439835926
31
0
0
ARC
5
197
100
AcDbEntity
8
0
100
AcDbCircle
10
204.87382554399494
20
46.348500439835902
30
0
40
0.99999999999999645
210
0
220
-0
230
1
100
AcDbArc
50
90
51
180
0
LINE
5
198
100
AcDbEntity
8
0
100
AcDbLine
10
204.87381854399496
20
47.348500439835902
30
0
11
204.87382554399494
21
47.348500439835902
31
0
0
LINE
5
199
100
AcDbEntity
8
0
100
AcDbLine
10
204.87381854399496
20
47.348500439835902
30
0
11
210.3738185439949
21
47.348500439835902
31
0
0
LINE
5
200
100
AcDbEntity
8
0
100
AcDbLine
10
210.37383754399491
20
47.348500439835917
30
0
11
210.3738185439949
21
47.348500439835902
31
0
0
ARC
5
201
100
AcDbEntity
8
0
100
AcDbCircle
10
210.37383754399491
20
46.348500439835902
30
0
40
0.99999999999994316
210
0
220
-0
230
1
100
AcDbArc
50
0
51
90
0
LINE
5
202
100
AcDbEntity
8
0
100
AcDbLine
10
211.37383754399485
20
46.348502439835997
30
0
11
211.37383754399485
21
46.348500439835902
31
0
0
LINE
5
203
100
AcDbEntity
8
0
100
AcDbLine
10
211.37383754399485
20
46.348502439835997
30
0
11
211.37383754399485
21
45.848500439835931
31
0
0
LINE
5
204
100
AcDbEntity
8
0
100
AcDbLine
10
211.37383754399485
20
45.848501439835957
30
0
11
211.37383754399485
21
45.848500439835931
31
0
0
ARC
5
205
100
AcDbEntity
8
0
100
AcDbCircle
10
211.87383754399468
20
45.848501439835836
30
0
40
0.49999999999982947
210
0
220
0
230
1
100
AcDbArc
50
180
51
270.00000000003257
0
LINE
5
206
100
AcDbEntity
8
0
100
AcDbLine
10
234.37382154397034
20
27.848502439835983
30
0
11
204.87381854399496
21
27.848502439836018
31
0
0
LWPOLYLINE
5
207
100
AcDbEntity
8
0
100
AcDbPolyline
90
8
70
1
43
0.0
10
224.4573591160422
20
13.274212846437727
10
224.45735911604228
20
25.272214973555016
42
-0.41318583137058257
10
225.45572625607022
20
26.274102570523787
10
239.83846161441076
20
26.274091804600275
42
-0.41525213718269838
10
240.83682875443867
20
25.27220420762248
10
240.82978784053896
20
13.274250072154636
42
-0.41525530915287634
10
239.83142070051105
20
12.272351709253435
10
225.45572625607019
20
12.272330177406623
42
-0.4131843918108532
0
ARC
5
208
100
AcDbEntity
8
0
100
AcDbCircle
10
-27.907221118800503
20
13.27424056786203
30
0
40
1.0018888586094798
210
0
220
0
230
-1
100
AcDbArc
50
179.99945647130824
51
269.99991420363727
0
LINE
5
209
100
AcDbEntity
8
0
100
AcDbLine
10
28.909115145008141
20
13.270709375268801
30
0
11
28.909109977364903
21
13.274250072145684
31
0
0
LINE
5
210
100
AcDbEntity
8
0
100
AcDbLine
10
28.909115145008141
20
13.270709375268801
30
0
11
28.909109977345096
21
25.27219155084012
31
0
0
ARC
5
211
100
AcDbEntity
8
0
100
AcDbCircle
10
-27.907221118742914
20
25.272185121610562
30
0
40
1.0018888542322686
210
0
220
0
230
-1
100
AcDbArc
50
90.000072149841628
51
179.99963232676313
0
LINE
5
212
100
AcDbEntity
8
0
100
AcDbLine
10
13.522032488571774
20
26.274084746238842
30
0
11
27.907222380373749
21
26.274073975842036
31
0
0
ARC
5
213
100
AcDbEntity
8
0
100
AcDbCircle
10
-13.528008740627207
20
25.272213711915015
30
0
40
1.0018888586090924
210
0
220
0
230
-1
100
AcDbArc
50
0
51
89.658229505451004
0
LINE
5
214
100
AcDbEntity
8
0
100
AcDbLine
10
12.526119882018559
20
13.274228540298871
30
0
11
12.526119882018115
21
25.272213711915015
31
0
0
ARC
5
215
100
AcDbEntity
8
0
100
AcDbCircle
10
-13.528008740582941
20
13.274219036015218
30
0
40
1.0018888586094603
210
-0
220
0
230
-1
100
AcDbArc
50
-89.999927852690206
51
0.00054352869176481052
0
LINE
5
216
100
AcDbEntity
8
0
100
AcDbLine
10
13.528007478996372
20
12.272330177406552
30
0
11
27.907222619057951
21
12.272351709256988
31
0
0
LWPOLYLINE
5
217
100
AcDbEntity
8
0
100
AcDbPolyline
90
9
70
1
43
0.0
10
-11.286384854981808
20
13.27070937526873
10
-11.286380117975501
20
13.274228540310595
42
0.41421597205711941
10
-10.28449252099767
20
12.272330177406552
10
4.0947223803930379
20
12.272351709253345
42
0.4142159720571143
10
5.0966099773708695
20
13.274250072157407
10
5.0966099773510267
20
25.272209375221308
42
0.4142113140208466
10
4.0947223803930388
20
26.274091804600417
10
-10.288023743870944
20
26.274102570523699
42
0.41421282473151583
10
-11.289911340848775
20
25.272214973507729
0
LWPOLYLINE
5
218
100
AcDbEntity
8
0
100
AcDbPolyline
90
9
70
1
43
0.0
10
-19.717772236639313
20
12.272351709253327
42
0.41421597205710908
10
-18.715884639661482
20
13.274250072157407
10
-18.715884639681349
20
25.272209375255983
42
0.41421131401070205
10
-19.717772236639313
20
26.274091804600417
10
-34.096997903953437
20
26.274102570523699
42
0.41421282473151583
10
-35.098885500931267
20
25.272214973507729
10
-35.098884854975871
20
13.270709375268801
10
-35.098885500931267
20
13.274228540310595
42
0.41421597205711941
10
-34.096997903953437
20
12.272330177406552
0
LINE
5
219
100
AcDbEntity
8
0
100
AcDbLine
10
-26.25117945600508
20
45.348501439835971
30
0
11
-26.25117945600508
21
31.342491765852625
31
0
0
LINE
5
220
100
AcDbEntity
8
0
100
AcDbLine
10
-25.575317102954362
20
31.342491765852625
30
0
11
-26.25117945600508
21
31.342491765852625
31
0
0
LINE
5
221
100
AcDbEntity
8
0
100
AcDbLine
10
-25.575317102954362
20
31.342491765852625
30
0
11
-25.575320763716935
21
44.347120375019422
31
0
0
SPLINE
5
222
100
AcDbEntity
8
0
100
AcDbSpline
70
4
71
3
72
8
73
4
74
0
42
0.000000001
43
0.0000000001
44
0.0000000001
40
0
40
0
40
0
40
0
40
1
40
1
40
1
40
1
41
1
41
1
41
1
41
1
10
-24.576860900778787
20
45.345575392830604
30
0
10
-25.130780364403339
20
45.3455758773433
30
0
10
-25.575320763716935
20
44.897505264686117
30
0
10
-25.575320763716935
20
44.347120375019422
30
0
0
LINE
5
223
100
AcDbEntity
8
0
100
AcDbLine
10
-24.576860900778787
20
45.345575392830604
30
0
11
-12.5742139158389
21
45.342048355736857
31
0
0
SPLINE
5
224
100
AcDbEntity
8
0
100
AcDbSpline
70
4
71
3
72
8
73
4
74
0
42
0.000000001
43
0.0000000001
44
0.0000000001
40
0
40
0
40
0
40
0
40
1
40
1
40
1
40
1
41
1
41
1
41
1
41
1
10
-11.575761589764898
20
44.34359107686646
30
0
10
-11.575762451120827
20
44.897505264686117
30
0
10
-12.02382902617224
20
45.342048355736857
30
0
10
-12.5742139158389
20
45.342048355736857
30
0
0
LINE
5
225
100
AcDbEntity
8
0
100
AcDbLine
10
-11.575761589764898
20
44.34359107686646
30
0
11
-11.575761589764898
21
31.342491765852625
31
0
0
LINE
5
226
100
AcDbEntity
8
0
100
AcDbLine
10
-10.751163456005134
20
31.342491765852625
30
0
11
-11.575761589764898
21
31.342491765852625
31
0
0
LINE
5
227
100
AcDbEntity
8
0
100
AcDbLine
10
-10.751163456005134
20
45.348501439835957
30
0
11
-10.751163456005134
21
31.342491765852625
31
0
0
ARC
5
228
100
AcDbEntity
8
0
100
AcDbCircle
10
-10.75116345600485
20
45.848501439835836
30
0
40
0.49999999999988276
210
0
220
0
230
1
100
AcDbArc
50
-90.000000000032571
51
0
0
LINE
5
229
100
AcDbEntity
8
0
100
AcDbLine
10
-10.25116345600502
20
45.848501439835943
30
0
11
-10.25116345600502
21
45.848500439835917
31
0
0
LINE
5
230
100
AcDbEntity
8
0
100
AcDbLine
10
-10.25116345600502
20
45.848500439835917
30
0
11
-10.25116345600502
21
46.348502439835912
31
0
0
LINE
5
231
100
AcDbEntity
8
0
100
AcDbLine
10
-10.25116345600502
20
46.348502439835912
30
0
11
-10.25116345600502
21
46.348502439835926
31
0
0
ARC
5
232
100
AcDbEntity
8
0
100
AcDbCircle
10
-9.2511634560050773
20
46.348502439835926
30
0
40
1.0000000000000142
210
0
220
-0
230
1
100
AcDbArc
50
90
51
180
0
LINE
5
233
100
AcDbEntity
8
0
100
AcDbLine
10
-9.2511634560050773
20
47.34850243983594
30
0
11
-9.2511714560051708
21
47.348502439835904
31
0
0
LINE
5
234
100
AcDbEntity
8
0
100
AcDbLine
10
-9.2511714560051708
20
47.348502439835904
30
0
11
-3.751171456005058
21
47.348502439835904
31
0
0
LINE
5
235
100
AcDbEntity
8
0
100
AcDbLine
10
-3.7511784560050687
20
47.34850243983594
30
0
11
-3.751171456005058
21
47.348502439835904
31
0
0
ARC
5
236
100
AcDbEntity
8
0
100
AcDbCircle
10
-3.7511784560050687
20
46.348502439835926
30
0
40
1.0000000000000853
210
0
220
0
230
1
100
AcDbArc
50
0
51
90
0
LINE
5
237
100
AcDbEntity
8
0
100
AcDbLine
10
-2.7511784560049835
20
46.348502439835961
30
0
11
-2.7511784560049835
21
46.348502439835926
31
0
0
LINE
5
238
100
AcDbEntity
8
0
100
AcDbLine
10
-2.7511784560049835
20
46.348502439835961
30
0
11
-2.7511784560049835
21
28.848502439835997
31
0
0
LINE
5
239
100
AcDbEntity
8
0
100
AcDbLine
10
-2.751178456054153
20
28.848509439836008
30
0
11
-2.7511784560049835
21
28.848502439835997
31
0
0
ARC
5
240
100
AcDbEntity
8
0
100
AcDbCircle
10
-3.7511784560296535
20
28.848502439835997
30
0
40
1.0000000000000142
210
0
220
0
230
1
100
AcDbArc
50
-90
51
0.00040107010969264067
0
LINE
5
241
100
AcDbEntity
8
0
100
AcDbLine
10
-33.251174456004982
20
27.848502439835983
30
0
11
-33.251181456004993
21
27.848502439836018
31
0
0
ARC
5
242
100
AcDbEntity
8
0
100
AcDbCircle
10
-33.251174456004982
20
28.848502439835997
30
0
40
0.99999999999994316
210
0
220
0
230
1
100
AcDbArc
50
180
51
270
0
LINE
5
243
100
AcDbEntity
8
0
100
AcDbLine
10
-34.251174456004925
20
28.848500439836045
30
0
11
-34.251174456004925
21
28.848502439835997
31
0
0
LINE
5
244
100
AcDbEntity
8
0
100
AcDbLine
10
-34.251174456004925
20
28.848500439836045
30
0
11
-34.251174456004925
21
46.348502439835926
31
0
0
LINE
5
245
100
AcDbEntity
8
0
100
AcDbLine
10
-34.251174456004925
20
46.348500439835902
30
0
11
-34.251174456004925
21
46.348502439835926
31
0
0
ARC
5
246
100
AcDbEntity
8
0
100
AcDbCircle
10
-33.251174456004982
20
46.348500439835902
30
0
40
0.99999999999999645
210
0
220
-0
230
1
100
AcDbArc
50
90
51
180
0
LINE
5
247
100
AcDbEntity
8
0
100
AcDbLine
10
-33.251181456004993
20
47.348500439835902
30
0
11
-33.251174456004982
21
47.348500439835902
31
0
0
LINE
5
248
100
AcDbEntity
8
0
100
AcDbLine
10
-33.251181456004993
20
47.348500439835902
30
0
11
-27.751181456005018
21
47.348500439835902
31
0
0
LINE
5
249
100
AcDbEntity
8
0
100
AcDbLine
10
-27.751162456005009
20
47.348500439835917
30
0
11
-27.751181456005018
21
47.348500439835902
31
0
0
ARC
5
250
100
AcDbEntity
8
0
100
AcDbCircle
10
-27.751162456005009
20
46.348500439835902
30
0
40
0.99999999999994316
210
0
220
-0
230
1
100
AcDbArc
50
0
51
90
0
LINE
5
251
100
AcDbEntity
8
0
100
AcDbLine
10
-26.751162456005066
20
46.348502439835997
30
0
11
-26.751162456005066
21
46.348500439835902
31
0
0
LINE
5
252
100
AcDbEntity
8
0
100
AcDbLine
10
-26.751162456005066
20
46.348502439835997
30
0
11
-26.751162456005066
21
45.848500439835931
31
0
0
LINE
5
253
100
AcDbEntity
8
0
100
AcDbLine
10
-26.751162456005066
20
45.848501439835957
30
0
11
-26.751162456005066
21
45.848500439835931
31
0
0
ARC
5
254
100
AcDbEntity
8
0
100
AcDbCircle
10
-26.251162456005236
20
45.848501439835836
30
0
40
0.49999999999982947
210
0
220
0
230
1
100
AcDbArc
50
180
51
270.00000000003257
0
LINE
5
255
100
AcDbEntity
8
0
100
AcDbLine
10
-3.7511784560296535
20
27.848502439835983
30
0
11
-33.251181456004993
21
27.848502439836018
31
0
0
ENDSEC
0
SECTION
2
OBJECTS
0
DICTIONARY
5
C
100
AcDbDictionary
3
ACAD_GROUP
350
D
3
ACAD_MLINESTYLE
350
17
0
DICTIONARY
5
D
100
AcDbDictionary
0
DICTIONARY
5
1A
330
C
100
AcDbDictionary
0
DICTIONARY
5
17
100
AcDbDictionary
0
ENDSEC
0
EOF
