0
SECTION
2
HEADER
9
$INSUNITS
70
4
9
$ACADVER
1
AC1014
9
$HANDSEED
5
FFFF
0
ENDSEC
0
SECTION
2
TABLES
0
TABLE
2
VPORT
5
8
100
AcDbSymbolTable
0
ENDTAB
0
TABLE
2
LTYPE
5
5
100
AcDbSymbolTable
0
LTYPE
5
14
100
AcDbSymbolTableRecord
100
AcDbLinetypeTableRecord
2
BYBLOCK
70
0
0
LTYPE
5
15
100
AcDbSymbolTableRecord
100
AcDbLinetypeTableRecord
2
BYLAYER
70
0
0
ENDTAB
0
TABLE
2
LAYER
5
2
100
AcDbSymbolTable
70
2
0
LAYER
5
50
100
AcDbSymbolTableRecord
100
AcDbLayerTableRecord
2
0
70
0
6
CONTINUOUS
0
ENDTAB
0
TABLE
2
STYLE
5
3
100
AcDbSymbolTable
70
1
0
STYLE
5
11
100
AcDbSymbolTableRecord
100
AcDbTextStyleTableRecord
2
STANDARD
70
0
0
ENDTAB
0
TABLE
2
VIEW
5
6
100
AcDbSymbolTable
70
0
0
ENDTAB
0
TABLE
2
UCS
5
7
100
AcDbSymbolTable
70
0
0
ENDTAB
0
TABLE
2
APPID
5
9
100
AcDbSymbolTable
70
2
0
APPID
5
12
100
AcDbSymbolTableRecord
100
AcDbRegAppTableRecord
2
ACAD
70
0
0
ENDTAB
0
TABLE
2
DIMSTYLE
5
A
100
AcDbSymbolTable
70
1
0
ENDTAB
0
TABLE
2
BLOCK_RECORD
5
1
100
AcDbSymbolTable
70
1
0
BLOCK_RECORD
5
1F
100
AcDbSymbolTableRecord
100
AcDbBlockTableRecord
2
*MODEL_SPACE
0
BLOCK_RECORD
5
1B
100
AcDbSymbolTableRecord
100
AcDbBlockTableRecord
2
*PAPER_SPACE
0
ENDTAB
0
ENDSEC
0
SECTION
2
BLOCKS
0
BLOCK
5
20
100
AcDbEntity
100
AcDbBlockBegin
2
*MODEL_SPACE
0
ENDBLK
5
21
100
AcDbEntity
100
AcDbBlockEnd
0
BLOCK
5
1C
100
AcDbEntity
100
AcDbBlockBegin
2
*PAPER_SPACE
0
ENDBLK
5
1D
100
AcDbEntity
100
AcDbBlockEnd
0
ENDSEC
0
SECTION
2
ENTITIES
0
LINE
5
100
100
AcDbEntity
8
0
100
AcDbLine
10
140.90833336736367
20
-287.74977725949049
30
0
11
140.9083334241717
21
-285.99998068315762
31
0
0
ARC
5
101
100
AcDbEntity
8
0
100
AcDbCircle
10
139.40833338358928
20
-287.7499978877604
30
0
40
1.5000000000000213
210
0
220
0
230
1
100
AcDbArc
50
-90
51
0.0084273791526364734
0
ARC
5
102
100
AcDbEntity
8
0
100
AcDbCircle
10
141.90849337782183
20
-286.0001406693292
30
0
40
1.0001599664458933
210
0
220
0
230
1
100
AcDbArc
50
90.009145027478894
51
179.99083493367894
0
LINE
5
103
100
AcDbEntity
8
0
100
AcDbLine
10
149.40833370471665
20
-284.99998238318074
30
0
11
141.90833374145043
21
-284.99998071562317
31
0
0
LWPOLYLINE
5
104
100
AcDbEntity
8
0
100
AcDbPolyline
90
8
70
1
43
0.0
10
-4.3749999999999645
20
-205.52500000000003
42
0.41421356237309503
10
-3.3749999999999858
20
-206.52500000000001
10
8.6249999999999716
20
-206.52500000000003
42
0.41421356237309503
10
9.6249999999999858
20
-205.52500000000003
10
9.6249999999999503
20
-193.52499999999998
42
0.41421356237309503
10
8.6249999999999716
20
-192.52500000000001
10
-3.3749999999999858
20
-192.52499999999998
42
0.41421356237309503
10
-4.375
20
-193.52499999999998
0
LWPOLYLINE
5
105
100
AcDbEntity
8
0
100
AcDbPolyline
90
8
70
1
43
0.0
10
-15.130750000000006
20
-264.67499999999995
42
0.41421356237310542
10
-14.130749999999992
20
-265.67500000000001
10
-9.1307499999999919
20
-265.67499999999995
42
0.4142135623730846
10
-8.1307499999999777
20
-264.67499999999995
10
-8.1307500000000132
20
-251.67500000000001
42
0.41421356237309503
10
-9.1307499999999919
20
-250.67500000000001
10
-14.130749999999992
20
-250.67499999999998
42
0.41421356237309503
10
-15.130750000000006
20
-251.67500000000001
0
LWPOLYLINE
5
106
100
AcDbEntity
8
0
100
AcDbPolyline
90
8
70
1
43
0.0
10
-33.006749999999982
20
-250.67500000000001
10
-38.006749999999982
20
-250.67499999999998
42
0.41421356237309503
10
-39.006749999999997
20
-251.67500000000001
10
-39.006750000000032
20
-264.67500000000001
42
0.41421356237311585
10
-38.006749999999982
20
-265.67500000000001
10
-33.006749999999982
20
-265.67500000000001
42
0.41421356237309503
10
-32.006749999999968
20
-264.67499999999995
10
-32.006750000000004
20
-251.67500000000001
42
0.41421356237309503
0
LWPOLYLINE
5
107
100
AcDbEntity
8
0
100
AcDbPolyline
90
8
70
1
43
0.0
10
-16.56875000000003
20
-250.67499999999998
42
0.41421356237309503
10
-17.568750000000009
20
-249.67500000000001
10
-29.568749999999966
20
-249.67499999999998
42
0.41421356237309503
10
-30.56874999999998
20
-250.67499999999998
10
-30.568750000000051
20
-262.67499999999995
42
0.41421356237311585
10
-29.568749999999966
20
-263.67500000000001
10
-17.568750000000009
20
-263.67500000000001
42
0.41421356237309503
10
-16.568749999999994
20
-262.67499999999995
0
LWPOLYLINE
5
108
100
AcDbEntity
8
0
100
AcDbPolyline
90
8
70
1
43
0.0
10
167.07500000000005
20
-205.52500000000003
42
0.4142135623730534
10
168.07500000000005
20
-206.52500000000003
10
180.07499999999999
20
-206.52499999999998
42
0.41421356237311585
10
181.07500000000002
20
-205.52500000000003
10
181.07500000000002
20
-193.52499999999998
42
0.41421356237309503
10
180.07499999999999
20
-192.52499999999998
10
168.07500000000005
20
-192.52499999999998
42
0.41421356237307422
10
167.07499999999996
20
-193.52499999999998
0
LWPOLYLINE
5
109
100
AcDbEntity
8
0
100
AcDbPolyline
90
8
70
1
43
0.0
10
-39.093749999999972
20
-230.625
10
-22.331250000000011
20
-230.625
42
-0.41421356237309503
10
-21.331249999999997
20
-231.625
10
-21.331250000000033
20
-243.625
42
-0.41421356237309503
10
-22.331250000000011
20
-244.625
10
-39.093749999999972
20
-244.62500000000003
42
-0.41421356237309503
10
-40.093749999999986
20
-243.625
10
-40.093749999999986
20
-231.625
42
-0.41421356237309503
0
LINE
5
110
100
AcDbEntity
8
0
100
AcDbLine
10
239.0000004203464
20
-285.0000007828022
30
0
11
235.97499987282205
21
-285.00000163050049
31
0
0
LWPOLYLINE
5
111
100
AcDbEntity
8
0
100
AcDbPolyline
90
8
70
1
43
0.0
10
199.125
20
-192.52499999999998
10
187.12500000000006
20
-192.52500000000001
42
0.41421356237314705
10
186.12499999999997
20
-193.52499999999998
10
186.125
20
-205.52500000000003
42
0.41421356237307422
10
187.12500000000006
20
-206.52500000000001
10
199.125
20
-206.52499999999998
42
0.41421356237311585
10
200.12500000000003
20
-205.52500000000003
10
200.12500000000003
20
-193.52499999999998
42
0.41421356237309503
0
LWPOLYLINE
5
112
100
AcDbEntity
8
0
100
AcDbPolyline
90
8
70
1
43
0.0
10
27.674999999999983
20
-206.52500000000001
42
0.4142135623730846
10
28.674999999999997
20
-205.52500000000003
10
28.674999999999962
20
-193.52499999999998
42
0.41421356237309503
10
27.674999999999983
20
-192.52500000000001
10
15.675000000000026
20
-192.52499999999998
42
0.41421356237309503
10
14.675000000000011
20
-193.52499999999998
10
14.675000000000047
20
-205.52500000000003
42
0.41421356237309503
10
15.675000000000026
20
-206.52500000000001
0
LWPOLYLINE
5
113
100
AcDbEntity
8
0
100
AcDbPolyline
90
8
70
1
43
0.0
10
-23.712499999999999
20
-212.57499999999999
42
0.41421356237309503
10
-24.712499999999977
20
-211.57500000000002
10
-36.712500000000006
20
-211.57499999999999
42
0.41421356237309503
10
-37.71250000000002
20
-212.57499999999999
10
-37.71250000000002
20
-224.57499999999999
42
0.41421356237309503
10
-36.712500000000006
20
-225.57500000000002
10
-24.712499999999977
20
-225.57499999999993
42
0.41421356237309503
10
-23.712500000000034
20
-224.57499999999999
0
LWPOLYLINE
5
114
100
AcDbEntity
8
0
100
AcDbPolyline
90
8
70
1
43
0.0
10
203.88075000000001
20
-229.625
42
-0.41421356237306384
10
204.88075000000009
20
-228.625
10
209.88075000000009
20
-228.62500000000006
42
-0.41421356237313667
10
210.88075000000003
20
-229.625
10
210.88075000000006
20
-242.625
42
-0.41421356237307422
10
209.88075000000009
20
-243.62500000000006
10
204.88075000000009
20
-243.62499999999997
42
-0.41421356237314705
10
203.88075000000001
20
-242.625
0
ARC
5
115
100
AcDbEntity
8
0
100
AcDbCircle
10
233.47500000000002
20
-287.75
30
0
40
1.4999999999999858
210
0
220
0
230
1
100
AcDbArc
50
270.00000000000324
51
359.99999658490543
0
ARC
5
116
100
AcDbEntity
8
0
100
AcDbCircle
10
-37.725000000000009
20
-287.75
30
0
40
1.4999999999999858
210
0
220
0
230
1
100
AcDbArc
50
180
51
270
0
LWPOLYLINE
5
117
100
AcDbEntity
8
0
100
AcDbPolyline
90
8
70
1
43
0.0
10
33.725000000000023
20
-193.52499999999998
10
33.724999999999987
20
-205.52500000000003
42
0.41421356237309503
10
34.724999999999966
20
-206.52500000000001
10
46.724999999999994
20
-206.52500000000001
42
0.41421356237309503
10
47.725000000000009
20
-205.52499999999998
10
47.724999999999973
20
-193.52499999999998
42
0.41421356237309503
10
46.724999999999994
20
-192.52500000000001
10
34.724999999999966
20
-192.52500000000003
42
0.41421356237309503
0
ARC
5
118
100
AcDbEntity
8
0
100
AcDbCircle
10
233.47500000000011
20
-187.5
30
0
40
1.4999999999999858
210
0
220
0
230
1
100
AcDbArc
50
0
51
90
0
LWPOLYLINE
5
119
100
AcDbEntity
8
0
100
AcDbPolyline
90
24
70
1
43
0.0
10
197.09325000000001
20
-264.72528005476579
42
-0.41421356237309503
10
196.09324999999998
20
-265.72528005476579
10
-5.1057499999999578
20
-265.72528005476568
42
-0.41421356237311585
10
-6.105749999999972
20
-264.72528005476579
10
-6.105749999999972
20
-248.65000000000003
42
0.41421356237313667
10
-7.1057499999999862
20
-247.65000000000001
10
-18.306249999999977
20
-247.65000000000003
42
-0.41421356237310542
10
-19.306249999999991
20
-246.64999999999998
10
-19.306249999999991
20
-229.60499999999999
42
0.41421356237309503
10
-20.306250000000006
20
-228.60499999999999
10
-20.687500000000014
20
-228.60499999999999
42
-0.41421356237312623
10
-21.687500000000028
20
-227.60500000000002
10
-21.687500000000032
20
-210.81372278763018
42
-0.4138569823868562
10
-20.688717593388901
20
-209.8137235288973
10
216.43749999999997
20
-209.52500000000001
42
-0.41421356237309503
10
217.4375
20
-210.52500000000003
10
217.4375
20
-226.625
42
-0.41421356237309503
10
216.43749999999997
20
-227.62500000000003
10
202.85575
20
-227.62500000000003
42
0.41421356237312623
10
201.85575
20
-228.625
10
201.85575
20
-246.65028005476574
42
-0.41421356237312623
10
200.85575
20
-247.65028005476574
10
198.09325000000001
20
-247.65028005476574
42
0.41421356237309503
10
197.09325000000001
20
-248.65028005476574
0
LWPOLYLINE
5
120
100
AcDbEntity
8
0
100
AcDbPolyline
90
8
70
1
43
0.0
10
220.55624999999998
20
-263.67500000000001
42
0.41421356237309503
10
221.55625000000001
20
-262.67499999999995
10
221.55625000000001
20
-250.67499999999998
42
0.41421356237309503
10
220.55624999999998
20
-249.67499999999998
10
208.55625000000003
20
-249.67500000000004
42
0.41421356237309503
10
207.55625000000009
20
-250.67499999999998
10
207.55625000000009
20
-262.67499999999995
42
0.4142135623730534
10
208.55625000000003
20
-263.67500000000007
0
LINE
5
121
100
AcDbEntity
8
0
100
AcDbLine
10
150.40833338219983
20
-285.9999824137218
30
0
11
150.4083333137871
21
-287.74999994136112
31
0
0
LWPOLYLINE
5
122
100
AcDbEntity
8
0
100
AcDbPolyline
90
8
70
1
43
0.0
10
199.11825000000005
20
-251.67500000000001
42
-0.41421356237309503
10
200.11825000000002
20
-250.67500000000001
10
205.11825000000002
20
-250.67500000000001
42
-0.41421356237310542
10
206.1182500000001
20
-251.67500000000001
10
206.11825000000013
20
-264.67499999999995
42
-0.4142135623730222
10
205.11825000000002
20
-265.67500000000001
10
200.11825000000002
20
-265.67500000000001
42
-0.41421356237313667
10
199.11824999999999
20
-264.67499999999995
0
LWPOLYLINE
5
123
100
AcDbEntity
8
0
100
AcDbPolyline
90
8
70
1
43
0.0
10
219.46249999999998
20
-212.57499999999999
10
219.46249999999995
20
-224.57499999999999
42
0.41421356237309503
10
220.46250000000001
20
-225.57500000000005
10
232.46250000000003
20
-225.57500000000005
42
0.4142135623730222
10
233.46250000000003
20
-224.57499999999999
10
233.46249999999995
20
-212.57499999999999
42
0.4142135623730534
10
232.46250000000003
20
-211.57499999999996
10
220.46250000000001
20
-211.57499999999999
42
0.41421356237309503
0
LINE
5
124
100
AcDbEntity
8
0
100
AcDbLine
10
234.97500000000002
20
-287.75000008940702
30
0
11
234.97500005027646
21
-286.0000015706654
31
0
0
LINE
5
125
100
AcDbEntity
8
0
100
AcDbLine
10
150.40833333333339
20
-187.5
30
0
11
150.40833333333339
21
-189.74999999999994
31
0
0
ARC
5
126
100
AcDbEntity
8
0
100
AcDbCircle
10
-43.25000005221689
20
-283.99999196254322
30
0
40
0.99999994778308121
210
0
220
0
230
1
100
AcDbArc
50
180
51
269.99999800546135
0
ARC
5
127
100
AcDbEntity
8
0
100
AcDbCircle
10
235.97500005027641
20
-286.00000163050049
30
0
40
0.99999999999999445
210
0
220
0
230
1
100
AcDbArc
50
90.000010167385511
51
179.99999658490543
0
LWPOLYLINE
5
128
100
AcDbEntity
8
0
100
AcDbPolyline
90
13
70
1
43
0.0
10
237.22500000000002
20
-263.67499999999995
42
0.41421356237311585
10
238.22500000000005
20
-262.67499999999995
10
238.22500000000005
20
-250.67499999999998
42
0.41421356237309503
10
237.22500000000002
20
-249.67499999999998
10
225.22500000000008
20
-249.67500000000001
42
0.41421356237314705
10
224.22499999999999
20
-250.67499999999998
10
223.99425000000008
20
-250.67500000000001
42
0.41421356237309503
10
222.99425000000014
20
-251.67500000000001
10
222.99424999999999
20
-264.67499999999995
42
0.4142135623730534
10
223.99425000000008
20
-265.67500000000001
10
228.99425000000008
20
-265.67500000000001
42
0.4142135623730222
10
229.99425000000008
20
-264.67499999999995
10
229.99425000000008
20
-263.67500000000001
0
LWPOLYLINE
5
129
100
AcDbEntity
8
0
100
AcDbPolyline
90
8
70
1
43
0.0
10
-10.424999999999969
20
-206.52500000000006
42
0.41421356237306384
10
-9.4249999999999545
20
-205.52500000000003
10
-9.4249999999999901
20
-193.52499999999998
42
0.41421356237309503
10
-10.424999999999969
20
-192.52500000000001
10
-22.424999999999997
20
-192.52499999999998
42
0.41421356237309503
10
-23.425000000000011
20
-193.52499999999998
10
-23.424999999999976
20
-205.52500000000003
42
0.41421356237309503
10
-22.424999999999997
20
-206.52500000000001
0
LWPOLYLINE
5
130
100
AcDbEntity
8
0
100
AcDbPolyline
90
8
70
1
43
0.0
10
213.31875000000002
20
-230.625
10
225.31874999999999
20
-230.62499999999997
42
-0.4142135623730846
10
226.31875000000008
20
-231.625
10
226.31875000000008
20
-243.625
42
-0.4142135623730222
10
225.31875000000014
20
-244.625
10
213.31875000000002
20
-244.62499999999994
42
-0.41421356237311585
10
212.31875000000002
20
-243.625
10
212.31874999999997
20
-231.625
42
-0.41421356237311585
0
ARC
5
131
100
AcDbEntity
8
0
100
AcDbCircle
10
235.97500000000011
20
-189.7499999999998
30
0
40
1.0000000000000142
210
0
220
0
230
1
100
AcDbArc
50
180
51
270
0
LWPOLYLINE
5
132
100
AcDbEntity
8
0
100
AcDbPolyline
90
8
70
1
43
0.0
10
-42.474999999999987
20
-205.52500000000003
42
0.41421356237309503
10
-41.475000000000009
20
-206.52500000000001
10
-29.47499999999998
20
-206.52500000000001
42
0.4142135623730846
10
-28.474999999999966
20
-205.52500000000003
10
-28.475000000000001
20
-193.52499999999998
42
0.41421356237309503
10
-29.47499999999998
20
-192.52500000000001
10
-41.475000000000009
20
-192.52499999999998
42
0.41421356237309503
10
-42.475000000000023
20
-193.52499999999998
0
ARC
5
133
100
AcDbEntity
8
0
100
AcDbCircle
10
239.00000005235057
20
-284.00000078280232
30
0
40
1.0000000000000109
210
0
220
0
230
1
100
AcDbArc
50
270.00002108460757
51
360
0
ARC
5
134
100
AcDbEntity
8
0
100
AcDbCircle
10
238.99999999942949
20
-191.74999999999986
30
0
40
1.0000000002852971
210
0
220
-0
230
1
100
AcDbArc
50
0
51
89.999999983650426
0
LWPOLYLINE
5
135
100
AcDbEntity
8
0
100
AcDbPolyline
90
8
70
1
43
0.0
10
228.75675000000001
20
-228.62500000000006
42
0.41421356237313667
10
227.75675000000007
20
-229.625
10
227.75675000000007
20
-242.625
42
0.41421356237310542
10
228.75675000000001
20
-243.62499999999997
10
233.75675000000001
20
-243.625
42
0.41421356237309503
10
234.75675000000001
20
-242.625
10
234.75675000000001
20
-229.625
42
0.41421356237309503
10
233.75675000000001
20
-228.62499999999997
0
LINE
5
136
100
AcDbEntity
8
0
100
AcDbLine
10
235.97500000000011
20
-190.74999999999986
30
0
11
238.99999999971484
21
-190.74999999999986
31
0
0
LWPOLYLINE
5
137
100
AcDbEntity
8
0
100
AcDbPolyline
90
8
70
1
43
0.0
10
161.02500000000006
20
-206.52500000000003
10
149.02500000000003
20
-206.52499999999998
42
-0.41421356237309503
10
148.02500000000009
20
-205.52500000000003
10
148.02500000000012
20
-193.52499999999998
42
-0.41421356237307422
10
149.02500000000003
20
-192.52500000000001
10
161.02500000000006
20
-192.52500000000003
42
-0.41421356237315748
10
162.02500000000009
20
-193.52499999999998
10
162.02500000000001
20
-205.52500000000003
42
-0.41421356237307422
0
ARC
5
138
100
AcDbEntity
8
0
100
AcDbCircle
10
149.40833348237561
20
-285.9999823746291
30
0
40
0.99999989982421855
210
0
220
0
230
1
100
AcDbArc
50
-2.0913098143694567e-06
51
89.999987260796502
0
LWPOLYLINE
5
139
100
AcDbEntity
8
0
100
AcDbPolyline
90
8
70
1
43
0.0
10
103.87500000000003
20
-206.52500000000001
10
91.875
20
-206.52500000000001
42
-0.4142135623730846
10
90.874999999999986
20
-205.52500000000003
10
90.875000000000028
20
-193.52499999999998
42
-0.41421356237309503
10
91.875
20
-192.52500000000001
10
103.87500000000003
20
-192.52500000000003
42
-0.41421356237309503
10
104.87499999999997
20
-193.52499999999998
10
104.87500000000009
20
-205.52500000000003
42
-0.41421356237307422
0
LINE
5
140
100
AcDbEntity
8
0
100
AcDbLine
10
139.40833333333336
20
-186
30
0
11
56.341666666666725
21
-185.99999999999997
31
0
0
LINE
5
141
100
AcDbEntity
8
0
100
AcDbLine
10
-44.249999999999972
20
-283.99999196254322
30
0
11
-44.249999999999972
21
-191.75
31
0
0
ARC
5
142
100
AcDbEntity
8
0
100
AcDbCircle
10
149.4083333333333
20
-189.74999999999994
30
0
40
1.0000000000000497
210
0
220
0
230
1
100
AcDbArc
50
-90
51
0
0
LWPOLYLINE
5
143
100
AcDbEntity
8
0
100
AcDbPolyline
90
8
70
1
43
0.0
10
141.97500000000005
20
-206.52500000000006
42
0.41421356237304302
10
142.97499999999999
20
-205.52500000000003
10
142.97499999999997
20
-193.52499999999998
42
0.4142135623730846
10
141.97500000000005
20
-192.52499999999998
10
129.97500000000002
20
-192.52499999999998
42
0.41421356237307422
10
128.97499999999994
20
-193.52499999999998
10
128.97500000000002
20
-205.52500000000003
42
0.4142135623730534
10
129.97500000000002
20
-206.52500000000003
0
LWPOLYLINE
5
144
100
AcDbEntity
8
0
100
AcDbPolyline
90
8
70
1
43
0.0
10
53.774999999999977
20
-192.52500000000001
42
0.41421356237310542
10
52.775000000000034
20
-193.52499999999998
10
52.775000000000034
20
-205.52500000000003
42
0.41421356237310542
10
53.774999999999977
20
-206.52500000000001
10
65.775000000000006
20
-206.52500000000001
42
0.41421356237312623
10
66.77500000000002
20
-205.52500000000003
10
66.77500000000002
20
-193.52499999999998
42
0.4142135623730846
10
65.775000000000006
20
-192.52500000000001
0
LWPOLYLINE
5
145
100
AcDbEntity
8
0
100
AcDbPolyline
90
8
70
1
43
0.0
10
85.82499999999996
20
-205.52500000000003
10
85.824999999999989
20
-193.52499999999998
42
0.4142135623730534
10
84.825000000000017
20
-192.52500000000001
10
72.824999999999989
20
-192.52500000000001
42
0.41421356237310542
10
71.825000000000045
20
-193.52499999999998
10
71.825000000000017
20
-205.52500000000003
42
0.41421356237309503
10
72.824999999999989
20
-206.52500000000001
10
84.825000000000017
20
-206.52499999999992
42
0.4142135623730846
0
ARC
5
146
100
AcDbEntity
8
0
100
AcDbCircle
10
141.90833333333336
20
-189.74999999999997
30
0
40
1.0000000000000142
210
0
220
0
230
1
100
AcDbArc
50
180
51
270
0
LINE
5
147
100
AcDbEntity
8
0
100
AcDbLine
10
140.90833333333336
20
-189.75
30
0
11
140.90833333333336
21
-187.5
31
0
0
LINE
5
148
100
AcDbEntity
8
0
100
AcDbLine
10
141.90833333333336
20
-190.75
30
0
11
149.4083333333333
21
-190.75
31
0
0
LINE
5
149
100
AcDbEntity
8
0
100
AcDbLine
10
239.99999999971479
20
-191.74999999942929
30
0
11
240.00000005235052
21
-284.00000078318828
31
0
0
ARC
5
150
100
AcDbEntity
8
0
100
AcDbCircle
10
53.841666666666725
20
-189.75
30
0
40
0.99999999999997868
210
0
220
0
230
1
100
AcDbArc
50
-90
51
0
0
ARC
5
151
100
AcDbEntity
8
0
100
AcDbCircle
10
139.40833333333336
20
-187.5
30
0
40
1.4999999999999858
210
0
220
-0
230
1
100
AcDbArc
50
0
51
90
0
ARC
5
152
100
AcDbEntity
8
0
100
AcDbCircle
10
56.341666666666725
20
-187.5
30
0
40
1.5000000000000213
210
0
220
-0
230
1
100
AcDbArc
50
90
51
180
0
ARC
5
153
100
AcDbEntity
8
0
100
AcDbCircle
10
43.841666666666583
20
-287.75
30
0
40
1.5000000000000213
210
0
220
0
230
1
100
AcDbArc
50
-89.9999999999973
51
0
0
LINE
5
154
100
AcDbEntity
8
0
100
AcDbLine
10
54.841666666666669
20
-286.00000078280226
30
0
11
54.841666666666669
21
-287.7499978877604
31
0
0
LINE
5
155
100
AcDbEntity
8
0
100
AcDbLine
10
45.34166666666664
20
-287.75
30
0
11
45.34166666666664
21
-286.00000078280226
31
0
0
LINE
5
156
100
AcDbEntity
8
0
100
AcDbLine
10
-40.224999965188744
20
-284.99999201563037
30
0
11
-43.250000087028155
21
-284.99999191032629
31
0
0
LINE
5
157
100
AcDbEntity
8
0
100
AcDbLine
10
-39.224999999999994
20
-285.99999203303594
30
0
11
-39.224999999999994
21
-287.75
31
0
0
LINE
5
158
100
AcDbEntity
8
0
100
AcDbLine
10
234.97500000000008
20
-189.74999999999989
30
0
11
234.97500000000008
21
-187.5
31
0
0
ARC
5
159
100
AcDbEntity
8
0
100
AcDbCircle
10
-40.225000000000009
20
-285.99999203303605
30
0
40
1.0000000000000142
210
0
220
-0
230
1
100
AcDbArc
50
0
51
89.999998005461478
0
ARC
5
160
100
AcDbEntity
8
0
100
AcDbCircle
10
151.9083333333333
20
-187.5
30
0
40
1.5000000000000213
210
0
220
-0
230
1
100
AcDbArc
50
90
51
180
0
ARC
5
161
100
AcDbEntity
8
0
100
AcDbCircle
10
151.90833333333336
20
-287.75
30
0
40
1.5000000195462893
210
0
220
0
230
1
100
AcDbArc
50
179.99999774112726
51
269.99999999999784
0
LINE
5
162
100
AcDbEntity
8
0
100
AcDbLine
10
46.341666666666725
20
-190.75
30
0
11
53.841666666666725
21
-190.75
31
0
0
LINE
5
163
100
AcDbEntity
8
0
100
AcDbLine
10
233.47500000000011
20
-186
30
0
11
151.9083333333333
21
-185.99999999999997
31
0
0
ARC
5
164
100
AcDbEntity
8
0
100
AcDbCircle
10
46.341666666666725
20
-189.75
30
0
40
1.0000000000000142
210
0
220
0
230
1
100
AcDbArc
50
180
51
270
0
LINE
5
165
100
AcDbEntity
8
0
100
AcDbLine
10
54.841666666666669
20
-187.5
30
0
11
54.841666666666669
21
-189.75
31
0
0
LINE
5
166
100
AcDbEntity
8
0
100
AcDbLine
10
-43.250000000000028
20
-190.75
30
0
11
-40.225000000000009
21
-190.75
31
0
0
LINE
5
167
100
AcDbEntity
8
0
100
AcDbLine
10
45.341666666666711
20
-189.75
30
0
11
45.341666666666711
21
-187.49999999999997
31
0
0
ARC
5
168
100
AcDbEntity
8
0
100
AcDbCircle
10
-37.725000000000009
20
-187.5
30
0
40
1.5000000000000213
210
0
220
-0
230
1
100
AcDbArc
50
90
51
180
0
ARC
5
169
100
AcDbEntity
8
0
100
AcDbCircle
10
-40.225000000000009
20
-189.74999999999997
30
0
40
1.0000000000000142
210
0
220
0
230
1
100
AcDbArc
50
-90
51
0
0
LINE
5
170
100
AcDbEntity
8
0
100
AcDbLine
10
151.9083333333333
20
-289.25
30
0
11
233.47500000000011
21
-289.25
31
0
0
LINE
5
171
100
AcDbEntity
8
0
100
AcDbLine
10
16.912499999999966
20
-265.72528005476573
30
0
11
16.912499999999966
21
-265.72500000000002
31
0
0
ARC
5
172
100
AcDbEntity
8
0
100
AcDbCircle
10
43.841666666666725
20
-187.49999999999997
30
0
40
1.4999999999999858
210
0
220
-0
230
1
100
AcDbArc
50
0
51
90
0
LINE
5
173
100
AcDbEntity
8
0
100
AcDbLine
10
-39.224999999999994
20
-187.5
30
0
11
-39.224999999999994
21
-189.74999999999997
31
0
0
ARC
5
174
100
AcDbEntity
8
0
100
AcDbCircle
10
-43.250000000000028
20
-191.75
30
0
40
1.0000000000000142
210
0
220
-0
230
1
100
AcDbArc
50
90
51
180
0
ARC
5
175
100
AcDbEntity
8
0
100
AcDbCircle
10
46.341666666666654
20
-286.00000078280226
30
0
40
1.0000000000000142
210
0
220
-0
230
1
100
AcDbArc
50
90
51
180
0
LINE
5
176
100
AcDbEntity
8
0
100
AcDbLine
10
53.841666666666654
20
-285.0000007828022
30
0
11
46.341666666666654
21
-285.0000007828022
31
0
0
ARC
5
177
100
AcDbEntity
8
0
100
AcDbCircle
10
56.341666666666654
20
-287.7499978877604
30
0
40
1.4999999999999858
210
0
220
0
230
1
100
AcDbArc
50
180
51
270
0
ARC
5
178
100
AcDbEntity
8
0
100
AcDbCircle
10
53.841666666666654
20
-286.00000078280226
30
0
40
1.0000000000000142
210
0
220
0
230
1
100
AcDbArc
50
0
51
90
0
LINE
5
179
100
AcDbEntity
8
0
100
AcDbLine
10
56.341666666666654
20
-289.24999788776046
30
0
11
139.40833338358928
21
-289.24999788776046
31
0
0
LINE
5
180
100
AcDbEntity
8
0
100
AcDbLine
10
43.841666666666725
20
-185.99999999999997
30
0
11
-37.725000000000009
21
-185.99999999999997
31
0
0
LWPOLYLINE
5
181
100
AcDbEntity
8
0
100
AcDbPolyline
90
8
70
1
43
0.0
10
109.92500000000004
20
-205.52500000000003
42
0.41421356237309503
10
110.92500000000001
20
-206.52500000000001
10
122.92500000000004
20
-206.52500000000003
42
0.41421356237303258
10
123.92499999999998
20
-205.52500000000003
10
123.92499999999998
20
-193.52499999999998
42
0.41421356237303258
10
122.92500000000004
20
-192.52499999999998
10
110.92500000000001
20
-192.52500000000001
42
0.41421356237312623
10
109.925
20
-193.52499999999998
0
LINE
5
182
100
AcDbEntity
8
0
100
AcDbLine
10
-37.725000000000009
20
-289.25
30
0
11
43.841666666666654
21
-289.25
31
0
0
LWPOLYLINE
5
183
100
AcDbEntity
8
0
100
AcDbPolyline
90
8
70
1
43
0.0
10
104.875
20
-269.72499999999997
10
104.875
20
-281.72500000000002
42
-0.41421356237308982
10
103.87500000000001
20
-282.72500000000002
10
79.968750000000014
20
-282.72500000000002
42
-0.41421356237309503
10
78.968750000000014
20
-281.72500000000002
10
78.968750000000014
20
-269.72499999999997
42
-0.41421356237308982
10
79.968750000000043
20
-268.72499999999997
10
103.87500000000001
20
-268.72500000000002
42
-0.41421356237311063
0
LWPOLYLINE
5
184
100
AcDbEntity
8
0
100
AcDbPolyline
90
8
70
1
43
0.0
10
44.22499999999998
20
-267.72499999999997
10
44.224999999999994
20
-280.72499999999997
42
-0.41421356237309503
10
43.22499999999998
20
-281.72500000000002
10
33.468750000000007
20
-281.72500000000002
42
-0.41421356237309503
10
32.468750000000021
20
-280.72500000000002
10
32.468750000000028
20
-267.72499999999997
42
-0.41421356237309503
10
33.468750000000007
20
-266.72500000000002
10
43.22499999999998
20
-266.72500000000002
42
-0.41421356237307944
0
LWPOLYLINE
5
185
100
AcDbEntity
8
0
100
AcDbPolyline
90
8
70
1
43
0.0
10
7.5312500000000071
20
-269.72499999999997
10
7.5312500000000071
20
-281.72500000000002
42
0.41421356237307944
10
8.5312500000000036
20
-282.72499999999997
10
22.912499999999998
20
-282.72500000000002
42
0.41421356237309764
10
23.912500000000012
20
-281.72500000000002
10
23.912499999999977
20
-269.72499999999997
42
0.41421356237309503
10
22.912499999999998
20
-268.72499999999997
10
8.5312500000000036
20
-268.72500000000002
42
0.41421356237309243
0
LWPOLYLINE
5
186
100
AcDbEntity
8
0
100
AcDbPolyline
90
8
70
1
43
0.0
10
0.10000000000000675
20
-269.72499999999997
10
0.10000000000000675
20
-281.72500000000002
42
-0.41421356237308204
10
-0.89999999999999858
20
-282.72499999999997
10
-15.281249999999989
20
-282.72500000000002
42
-0.41421356237309631
10
-16.281250000000004
20
-281.72500000000002
10
-16.281250000000004
20
-269.72499999999997
42
-0.4142135623730846
10
-15.281249999999989
20
-268.72499999999997
10
-0.89999999999999858
20
-268.72500000000002
42
-0.41421356237309243
0
LWPOLYLINE
5
187
100
AcDbEntity
8
0
100
AcDbPolyline
90
8
70
1
43
0.0
10
-23.712499999999999
20
-269.72499999999997
10
-23.712499999999981
20
-281.72500000000002
42
-0.41421356237309631
10
-24.712499999999999
20
-282.72500000000002
10
-39.09375
20
-282.72500000000002
42
-0.41421356237309764
10
-40.09375
20
-281.72500000000002
10
-40.093749999999993
20
-269.72499999999997
42
-0.41421356237308982
10
-39.09375
20
-268.72500000000002
10
-24.712499999999999
20
-268.72500000000002
42
-0.41421356237309115
0
LWPOLYLINE
5
188
100
AcDbEntity
8
0
100
AcDbPolyline
90
14
70
1
43
0.0
10
150.40625000000009
20
-269.72499999999997
10
150.40625
20
-281.72500000000002
42
0.41421356237313667
10
151.40625
20
-282.72500000000002
10
163.40625000000003
20
-282.72500000000002
42
0.41421356237307422
10
164.40625000000011
20
-281.72500000000002
10
164.40625000000011
20
-269.72499999999997
42
0.41421356237309503
10
163.40625000000003
20
-268.72500000000002
10
158.52500000000006
20
-268.72500000000002
10
158.52500000000003
20
-267.72499999999997
42
0.41421356237306384
10
157.52500000000001
20
-266.72500000000002
10
152.52500000000001
20
-266.72499999999997
42
0.4142135623730846
10
151.52500000000003
20
-267.72499999999997
10
151.52500000000003
20
-268.72499999999997
10
151.40625
20
-268.72500000000002
42
0.41421356237306384
0
LWPOLYLINE
5
189
100
AcDbEntity
8
0
100
AcDbPolyline
90
8
70
1
43
0.0
10
139.46875000000003
20
-267.72500000000002
10
139.46875000000003
20
-280.72499999999997
42
-0.41421356237307422
10
138.46875000000009
20
-281.72500000000002
10
133.46875
20
-281.72500000000002
42
-0.41421356237304302
10
132.46875
20
-280.72499999999997
10
132.46875000000003
20
-267.72499999999997
42
-0.4142135623730846
10
133.46875
20
-266.72499999999997
10
138.46875
20
-266.72500000000002
42
-0.4142135623730534
0
LWPOLYLINE
5
190
100
AcDbEntity
8
0
100
AcDbPolyline
90
8
70
1
43
0.0
10
188.21875000000006
20
-269.72500000000002
10
188.21875000000003
20
-281.72500000000002
42
-0.41421356237309503
10
187.21875
20
-282.72500000000002
10
172.83750000000001
20
-282.72500000000002
42
-0.41421356237307422
10
171.83750000000003
20
-281.72500000000002
10
171.83750000000003
20
-269.72499999999997
42
-0.41421356237309503
10
172.83750000000003
20
-268.72500000000002
10
187.21875
20
-268.72499999999997
42
-0.41421356237304302
0
LWPOLYLINE
5
191
100
AcDbEntity
8
0
100
AcDbPolyline
90
8
70
1
43
0.0
10
212.03125
20
-269.72499999999997
10
212.03124999999997
20
-281.72500000000002
42
-0.41421356237309503
10
211.03125000000003
20
-282.72500000000002
10
196.65000000000006
20
-282.72500000000002
42
-0.41421356237313667
10
195.65000000000003
20
-281.72500000000002
10
195.65000000000003
20
-269.72499999999997
42
-0.41421356237311585
10
196.65000000000006
20
-268.72500000000002
10
211.03125000000003
20
-268.72499999999997
42
-0.41421356237307422
0
LWPOLYLINE
5
192
100
AcDbEntity
8
0
100
AcDbPolyline
90
8
70
1
43
0.0
10
235.84375
20
-269.72499999999997
10
235.84375
20
-281.72500000000002
42
-0.41421356237313667
10
234.84375
20
-282.72500000000002
10
220.46250000000001
20
-282.72500000000002
42
-0.41421356237312623
10
219.46249999999998
20
-281.72500000000002
10
219.46249999999998
20
-269.72499999999997
42
-0.41421356237311585
10
220.46250000000001
20
-268.72500000000002
10
234.84375
20
-268.72499999999997
42
-0.4142135623730846
0
LWPOLYLINE
5
193
100
AcDbEntity
8
0
100
AcDbPolyline
90
20
70
1
43
0.0
10
230.13800000000001
20
-206.52500000000001
10
230.13800000000001
20
-207.52500000000001
42
0.4142135623730534
10
231.13799999999998
20
-208.52499999999998
10
236.13799999999998
20
-208.52499999999998
42
0.4142135623730846
10
237.13799999999998
20
-207.52500000000001
10
237.13799999999998
20
-206.52499999999998
10
237.22500000000002
20
-206.52499999999998
42
0.41421356237310542
10
238.22500000000005
20
-205.52500000000003
10
238.22500000000005
20
-193.52499999999998
42
0.41421356237309503
10
237.22500000000002
20
-192.52499999999998
10
206.1750000000001
20
-192.52499999999998
42
0.41421356237307422
10
205.17500000000001
20
-193.52499999999998
10
205.17500000000001
20
-205.52500000000003
42
0.4142135623730534
10
206.17500000000004
20
-206.52500000000003
10
206.262
20
-206.52500000000003
10
206.262
20
-207.52500000000001
42
0.4142135623730846
10
207.26200000000009
20
-208.52499999999998
10
212.26200000000003
20
-208.52499999999998
42
0.41421356237309503
10
213.262
20
-207.52500000000001
10
213.262
20
-206.52500000000001
0
ENDSEC
0
SECTION
2
OBJECTS
0
DICTIONARY
5
C
100
AcDbDictionary
3
ACAD_GROUP
350
D
3
ACAD_MLINESTYLE
350
17
0
DICTIONARY
5
D
100
AcDbDictionary
0
DICTIONARY
5
1A
330
C
100
AcDbDictionary
0
DICTIONARY
5
17
100
AcDbDictionary
0
ENDSEC
0
EOF
