0
SECTION
2
HEADER
9
$INSUNITS
70
4
9
$ACADVER
1
AC1014
9
$HANDSEED
5
FFFF
0
ENDSEC
0
SECTION
2
TABLES
0
TABLE
2
VPORT
5
8
100
AcDbSymbolTable
0
ENDTAB
0
TABLE
2
LTYPE
5
5
100
AcDbSymbolTable
0
LTYPE
5
14
100
AcDbSymbolTableRecord
100
AcDbLinetypeTableRecord
2
BYBLOCK
70
0
0
LTYPE
5
15
100
AcDbSymbolTableRecord
100
AcDbLinetypeTableRecord
2
BYLAYER
70
0
0
ENDTAB
0
TABLE
2
LAYER
5
2
100
AcDbSymbolTable
70
2
0
LAYER
5
50
100
AcDbSymbolTableRecord
100
AcDbLayerTableRecord
2
0
70
0
6
CONTINUOUS
0
ENDTAB
0
TABLE
2
STYLE
5
3
100
AcDbSymbolTable
70
1
0
STYLE
5
11
100
AcDbSymbolTableRecord
100
AcDbTextStyleTableRecord
2
STANDARD
70
0
0
ENDTAB
0
TABLE
2
VIEW
5
6
100
AcDbSymbolTable
70
0
0
ENDTAB
0
TABLE
2
UCS
5
7
100
AcDbSymbolTable
70
0
0
ENDTAB
0
TABLE
2
APPID
5
9
100
AcDbSymbolTable
70
2
0
APPID
5
12
100
AcDbSymbolTableRecord
100
AcDbRegAppTableRecord
2
ACAD
70
0
0
ENDTAB
0
TABLE
2
DIMSTYLE
5
A
100
AcDbSymbolTable
70
1
0
ENDTAB
0
TABLE
2
BLOCK_RECORD
5
1
100
AcDbSymbolTable
70
1
0
BLOCK_RECORD
5
1F
100
AcDbSymbolTableRecord
100
AcDbBlockTableRecord
2
*MODEL_SPACE
0
BLOCK_RECORD
5
1B
100
AcDbSymbolTableRecord
100
AcDbBlockTableRecord
2
*PAPER_SPACE
0
ENDTAB
0
ENDSEC
0
SECTION
2
BLOCKS
0
BLOCK
5
20
100
AcDbEntity
100
AcDbBlockBegin
2
*MODEL_SPACE
0
ENDBLK
5
21
100
AcDbEntity
100
AcDbBlockEnd
0
BLOCK
5
1C
100
AcDbEntity
100
AcDbBlockBegin
2
*PAPER_SPACE
0
ENDBLK
5
1D
100
AcDbEntity
100
AcDbBlockEnd
0
ENDSEC
0
SECTION
2
ENTITIES
0
LWPOLYLINE
5
100
100
AcDbEntity
8
0
100
AcDbPolyline
90
8
70
1
43
0.0
10
176.83750000000003
20
-157.67499999999998
42
0.41421356237309503
10
177.83750000000003
20
-158.67500000000007
10
189.83750000000001
20
-158.67499999999995
42
0.4142135623730846
10
190.83750000000009
20
-157.67499999999998
10
190.83750000000009
20
-145.67499999999998
42
0.41421356237313667
10
189.83750000000001
20
-144.67499999999998
10
177.83750000000001
20
-144.67500000000001
42
0.41421356237307422
10
176.83750000000003
20
-145.67499999999998
0
LWPOLYLINE
5
101
100
AcDbEntity
8
0
100
AcDbPolyline
90
14
70
1
43
0.0
10
-43.474999999999966
20
-188.72500000000002
10
249.22499999999999
20
-188.72500000000002
42
0.41421356237309503
10
251.22500000000002
20
-186.72500000000008
10
251.22500000000002
20
-78.525000000000034
42
0.41421356237309503
10
249.22499999999999
20
-76.525000000000034
10
-12.835996673168637
20
-76.525000000000034
42
0.37338743347353526
10
-13.826020330885314
20
-77.384098768062472
10
-14.305059014924417
20
-80.75
10
-27.594940985075525
20
-80.75
10
-28.073979669114664
20
-77.384098768062472
42
0.37338743347353526
10
-29.06400332683134
20
-76.525000000000034
10
-43.474999999999966
20
-76.525000000000034
42
0.41421356237309503
10
-45.474999999999994
20
-78.525000000000034
10
-45.474999999999994
20
-186.72500000000008
42
0.41421356237310542
0
LWPOLYLINE
5
102
100
AcDbEntity
8
0
100
AcDbPolyline
90
8
70
1
43
0.0
10
158.78749999999999
20
-158.67500000000007
10
170.78749999999999
20
-158.67500000000001
42
0.41421356237309503
10
171.78750000000002
20
-157.67499999999998
10
171.78750000000002
20
-145.67499999999998
42
0.41421356237310542
10
170.78749999999999
20
-144.67500000000001
10
158.78749999999999
20
-144.67500000000001
42
0.41421356237307422
10
157.78750000000002
20
-145.67499999999998
10
157.78750000000002
20
-157.67499999999998
42
0.41421356237312623
0
LWPOLYLINE
5
103
100
AcDbEntity
8
0
100
AcDbPolyline
90
8
70
1
43
0.0
10
152.73750000000007
20
-157.67499999999998
42
-0.41421356237298057
10
151.73750000000001
20
-158.67500000000001
10
139.73750000000001
20
-158.67500000000004
42
-0.41421356237312623
10
138.73750000000001
20
-157.67499999999998
10
138.73750000000001
20
-145.67499999999998
42
-0.41421356237310542
10
139.73750000000001
20
-144.67500000000001
10
151.73750000000001
20
-144.67499999999998
42
-0.4142135623730222
10
152.73750000000007
20
-145.67499999999998
0
CIRCLE
5
104
100
AcDbEntity
8
0
100
AcDbCircle
10
246.22500000000002
20
-184.72500000000002
30
0
40
2.9999999999999916
210
0
220
0
230
1
0
LWPOLYLINE
5
105
100
AcDbEntity
8
0
100
AcDbPolyline
90
8
70
1
43
0.0
10
51.724999999999994
20
-101.52500000000001
10
39.724999999999966
20
-101.52500000000001
42
-0.4142135623730846
10
38.725000000000023
20
-100.52500000000002
10
38.725000000000023
20
-88.524999999999991
42
-0.4142135623730846
10
39.724999999999966
20
-87.525000000000006
10
51.724999999999994
20
-87.524999999999977
42
-0.41421356237309503
10
52.725000000000009
20
-88.524999999999991
10
52.724999999999973
20
-100.52500000000002
42
-0.41421356237311585
0
LWPOLYLINE
5
106
100
AcDbEntity
8
0
100
AcDbPolyline
90
8
70
1
43
0.0
10
30.200000000000031
20
-120.57500000000002
10
42.200000000000024
20
-120.57500000000002
42
0.41421356237306384
10
43.200000000000003
20
-119.57499999999999
10
43.200000000000003
20
-107.575
42
0.4142135623730846
10
42.199999999999989
20
-106.57500000000002
10
30.199999999999996
20
-106.57499999999999
42
0.4142135623730846
10
29.200000000000017
20
-107.575
10
29.200000000000017
20
-119.57499999999999
42
0.41421356237309503
0
LWPOLYLINE
5
107
100
AcDbEntity
8
0
100
AcDbPolyline
90
8
70
1
43
0.0
10
113.63749999999999
20
-158.67500000000001
10
101.6375
20
-158.67500000000004
42
-0.41421356237307422
10
100.63750000000002
20
-157.67499999999998
10
100.63750000000006
20
-145.67499999999998
42
-0.41421356237306384
10
101.6375
20
-144.67500000000001
10
113.63749999999999
20
-144.67500000000001
42
-0.41421356237307422
10
114.63749999999997
20
-145.67499999999998
10
114.63750000000002
20
-157.67499999999998
42
-0.41421356237309503
0
LWPOLYLINE
5
108
100
AcDbEntity
8
0
100
AcDbPolyline
90
8
70
1
43
0.0
10
46.962499999999991
20
-139.625
10
34.962499999999999
20
-139.625
42
-0.41421356237309503
10
33.96250000000002
20
-138.625
10
33.96250000000002
20
-126.62500000000001
42
-0.4142135623730846
10
34.962499999999999
20
-125.625
10
46.962500000000063
20
-125.62500000000003
42
-0.41421356237306384
10
47.962500000000006
20
-126.62500000000001
10
47.962500000000006
20
-138.625
42
-0.4142135623730846
0
LWPOLYLINE
5
109
100
AcDbEntity
8
0
100
AcDbPolyline
90
8
70
1
43
0.0
10
120.68750000000001
20
-158.67500000000001
10
132.68749999999997
20
-158.67500000000001
42
0.41421356237310542
10
133.68750000000009
20
-157.67499999999998
10
133.68750000000003
20
-145.67499999999998
42
0.41421356237306384
10
132.6875
20
-144.67500000000001
10
120.68750000000001
20
-144.67500000000001
42
0.4142135623730534
10
119.68750000000003
20
-145.67499999999998
10
119.68750000000007
20
-157.67499999999998
42
0.41421356237307422
0
LWPOLYLINE
5
110
100
AcDbEntity
8
0
100
AcDbPolyline
90
8
70
1
43
0.0
10
9.8624999999999829
20
-126.62500000000001
10
9.8624999999999829
20
-138.625
42
-0.41421356237309503
10
8.8625000000000043
20
-139.625
10
-3.1374999999999886
20
-139.62500000000003
42
-0.41421356237309503
10
-4.1375000000000028
20
-138.625
10
-4.1375000000000028
20
-126.62500000000001
42
-0.41421356237309503
10
-3.1374999999999886
20
-125.625
10
8.8625000000000043
20
-125.62500000000003
42
-0.41421356237309503
0
LWPOLYLINE
5
111
100
AcDbEntity
8
0
100
AcDbPolyline
90
8
70
1
43
0.0
10
81.587500000000006
20
-157.67499999999998
10
81.587500000000006
20
-145.67499999999998
42
-0.41421356237309503
10
82.587499999999991
20
-144.67500000000001
10
94.587500000000063
20
-144.67500000000001
42
-0.41421356237307422
10
95.587500000000034
20
-145.67499999999998
10
95.587500000000034
20
-157.67499999999998
42
-0.41421356237311585
10
94.58750000000002
20
-158.67500000000001
10
82.587499999999991
20
-158.67499999999995
42
-0.41421356237309503
0
LWPOLYLINE
5
112
100
AcDbEntity
8
0
100
AcDbPolyline
90
8
70
1
43
0.0
10
76.537500000000023
20
-145.67499999999998
10
76.537500000000023
20
-157.67499999999998
42
-0.41421356237309503
10
75.537500000000009
20
-158.67500000000001
10
63.53749999999998
20
-158.67499999999995
42
-0.41421356237309503
10
62.537500000000001
20
-157.67499999999998
10
62.537500000000001
20
-145.67499999999998
42
-0.41421356237309503
10
63.53749999999998
20
-144.67500000000001
10
75.537500000000009
20
-144.67500000000001
42
-0.4142135623730846
0
LWPOLYLINE
5
113
100
AcDbEntity
8
0
100
AcDbPolyline
90
8
70
1
43
0.0
10
-35.093749999999986
20
-126.62500000000001
10
-35.09374999999995
20
-138.625
42
0.41421356237309503
10
-34.093749999999972
20
-139.625
10
-17.331249999999976
20
-139.62500000000003
42
0.4142135623730846
10
-16.331249999999997
20
-138.625
10
-16.331249999999997
20
-126.62500000000001
42
0.4142135623730846
10
-17.331249999999976
20
-125.625
10
-34.093749999999972
20
-125.625
42
0.41421356237309503
0
LWPOLYLINE
5
114
100
AcDbEntity
8
0
100
AcDbPolyline
90
8
70
1
43
0.0
10
43.487500000000026
20
-145.67499999999998
10
43.48749999999999
20
-157.67499999999998
42
0.4142135623730846
10
44.48750000000004
20
-158.67500000000001
10
56.487499999999997
20
-158.67499999999995
42
0.4142135623730846
10
57.487500000000011
20
-157.67499999999998
10
57.487500000000011
20
-145.67499999999998
42
0.4142135623730846
10
56.487499999999997
20
-144.67500000000001
10
44.48750000000004
20
-144.67500000000001
42
0.4142135623730846
0
LWPOLYLINE
5
115
100
AcDbEntity
8
0
100
AcDbPolyline
90
8
70
1
43
0.0
10
14.912500000000009
20
-138.625
10
14.912500000000009
20
-126.62500000000001
42
-0.41421356237309503
10
15.912500000000023
20
-125.625
10
27.91249999999998
20
-125.625
42
-0.41421356237309503
10
28.912499999999994
20
-126.62500000000001
10
28.912499999999959
20
-138.625
42
-0.41421356237309503
10
27.91249999999998
20
-139.625
10
15.912500000000023
20
-139.62500000000003
42
-0.41421356237309503
0
LWPOLYLINE
5
116
100
AcDbEntity
8
0
100
AcDbPolyline
90
8
70
1
43
0.0
10
4.1000000000000014
20
-120.57500000000002
10
-7.8999999999999915
20
-120.57500000000002
42
-0.41421356237309503
10
-8.9000000000000057
20
-119.57499999999999
10
-8.8999999999999702
20
-107.575
42
-0.41421356237309503
10
-7.8999999999999915
20
-106.57500000000002
10
4.1000000000000014
20
-106.57499999999999
42
-0.41421356237309503
10
5.1000000000000156
20
-107.575
10
5.1000000000000156
20
-119.57499999999999
42
-0.41421356237309503
0
LWPOLYLINE
5
117
100
AcDbEntity
8
0
100
AcDbPolyline
90
8
70
1
43
0.0
10
38.4375
20
-145.67499999999998
10
38.4375
20
-157.67499999999998
42
-0.41421356237309503
10
37.437499999999986
20
-158.67500000000001
10
25.437499999999993
20
-158.67500000000001
42
-0.4142135623730846
10
24.437500000000014
20
-157.67499999999998
10
24.437500000000014
20
-145.67499999999998
42
-0.41421356237309503
10
25.437499999999993
20
-144.67500000000001
10
37.437499999999986
20
-144.67499999999998
42
-0.41421356237309503
0
LWPOLYLINE
5
118
100
AcDbEntity
8
0
100
AcDbPolyline
90
8
70
1
43
0.0
10
24.149999999999991
20
-107.575
10
24.150000000000027
20
-119.57499999999999
42
-0.41421356237309503
10
23.150000000000013
20
-120.57500000000002
10
11.15000000000002
20
-120.57500000000002
42
-0.41421356237309503
10
10.150000000000006
20
-119.57499999999999
10
10.150000000000041
20
-107.575
42
-0.41421356237309503
10
11.15000000000002
20
-106.57500000000002
10
23.150000000000013
20
-106.57500000000002
42
-0.41421356237309503
0
LWPOLYLINE
5
119
100
AcDbEntity
8
0
100
AcDbPolyline
90
8
70
1
43
0.0
10
-4.4249999999999901
20
-88.524999999999991
10
-4.4249999999999901
20
-100.52500000000002
42
-0.4142135623730846
10
-5.4250000000000043
20
-101.52500000000001
10
-17.424999999999997
20
-101.52500000000001
42
-0.41421356237309503
10
-18.424999999999976
20
-100.52500000000002
10
-18.424999999999976
20
-88.524999999999991
42
-0.41421356237309503
10
-17.424999999999997
20
-87.525000000000006
10
-5.4250000000000043
20
-87.524999999999977
42
-0.41421356237309503
0
CIRCLE
5
120
100
AcDbEntity
8
0
100
AcDbCircle
10
-40.474999999999994
20
-80.525000000000063
30
0
40
3.0000000000000004
210
0
220
0
230
1
0
LWPOLYLINE
5
121
100
AcDbEntity
8
0
100
AcDbPolyline
90
8
70
1
43
0.0
10
19.675000000000011
20
-100.52500000000002
10
19.675000000000011
20
-88.524999999999991
42
-0.41421356237309503
10
20.67499999999999
20
-87.525000000000006
10
32.674999999999983
20
-87.524999999999977
42
-0.41421356237309503
10
33.674999999999997
20
-88.524999999999991
10
33.674999999999997
20
-100.52500000000002
42
-0.4142135623730846
10
32.674999999999983
20
-101.52500000000001
10
20.67499999999999
20
-101.52500000000001
42
-0.41421356237309503
0
LWPOLYLINE
5
122
100
AcDbEntity
8
0
100
AcDbPolyline
90
8
70
1
43
0.0
10
213.65000000000009
20
-106.57499999999996
10
201.65000000000006
20
-106.57500000000002
42
0.41421356237311585
10
200.65000000000001
20
-107.575
10
200.65000000000001
20
-119.57499999999999
42
0.41421356237311585
10
201.65000000000006
20
-120.57499999999997
10
213.65000000000009
20
-120.57500000000002
42
0.41421356237307422
10
214.65000000000003
20
-119.57499999999999
10
214.65000000000003
20
-107.575
42
0.41421356237306384
0
LWPOLYLINE
5
123
100
AcDbEntity
8
0
100
AcDbPolyline
90
8
70
1
43
0.0
10
-37.474999999999987
20
-88.524999999999991
42
-0.41421356237309503
10
-36.475000000000009
20
-87.525000000000006
10
-24.47499999999998
20
-87.524999999999977
42
-0.41421356237309503
10
-23.474999999999966
20
-88.524999999999991
10
-23.474999999999966
20
-100.52500000000002
42
-0.4142135623730846
10
-24.47499999999998
20
-101.52500000000001
10
-36.475000000000009
20
-101.52500000000003
42
-0.41421356237309503
10
-37.475000000000023
20
-100.52500000000002
0
CIRCLE
5
124
100
AcDbEntity
8
0
100
AcDbCircle
10
-40.474999999999994
20
-184.72500000000002
30
0
40
3.0000000000000031
210
0
220
0
230
1
0
LWPOLYLINE
5
125
100
AcDbEntity
8
0
100
AcDbPolyline
90
8
70
1
43
0.0
10
18.38750000000001
20
-158.67500000000001
10
6.3875000000000171
20
-158.67500000000001
42
-0.41421356237307422
10
5.3875000000000028
20
-157.67499999999998
10
5.3875000000000384
20
-145.67499999999998
42
-0.41421356237309503
10
6.3875000000000171
20
-144.67500000000001
10
18.38750000000001
20
-144.67500000000001
42
-0.41421356237309503
10
19.387499999999989
20
-145.67499999999998
10
19.387500000000024
20
-157.67499999999998
42
-0.41421356237309503
0
LWPOLYLINE
5
126
100
AcDbEntity
8
0
100
AcDbPolyline
90
8
70
1
43
0.0
10
-32.712499999999984
20
-107.575
42
-0.41421356237309503
10
-31.712500000000006
20
-106.57500000000002
10
-19.712500000000013
20
-106.57500000000002
42
-0.41421356237310542
10
-18.712499999999999
20
-107.575
10
-18.712499999999999
20
-119.57499999999999
42
-0.41421356237309503
10
-19.712500000000013
20
-120.57500000000002
10
-31.712500000000006
20
-120.57500000000002
42
-0.41421356237309503
10
-32.71250000000002
20
-119.57499999999999
0
CIRCLE
5
127
100
AcDbEntity
8
0
100
AcDbCircle
10
150.65833333333336
20
-80.525000000000063
30
0
40
3.0000000000000071
210
0
220
0
230
1
0
CIRCLE
5
128
100
AcDbEntity
8
0
100
AcDbCircle
10
55.091666666666725
20
-80.525000000000063
30
0
40
3.0000000000000071
210
0
220
0
230
1
0
CIRCLE
5
129
100
AcDbEntity
8
0
100
AcDbCircle
10
150.65833333333336
20
-184.72500000000002
30
0
40
3.0000000000000071
210
0
220
0
230
1
0
LWPOLYLINE
5
130
100
AcDbEntity
8
0
100
AcDbPolyline
90
8
70
1
43
0.0
10
204.125
20
-101.52500000000001
10
192.12500000000009
20
-101.52500000000003
42
-0.4142135623730846
10
191.12500000000011
20
-100.52500000000002
10
191.12499999999997
20
-88.524999999999991
42
-0.41421356237315748
10
192.12500000000009
20
-87.525000000000006
10
204.125
20
-87.524999999999977
42
-0.41421356237309503
10
205.12500000000003
20
-88.524999999999991
10
205.12500000000003
20
-100.52500000000002
42
-0.41421356237310542
0
CIRCLE
5
131
100
AcDbEntity
8
0
100
AcDbCircle
10
55.091666666666654
20
-184.72500000000002
30
0
40
2.9999999999999947
210
0
220
0
230
1
0
LWPOLYLINE
5
132
100
AcDbEntity
8
0
100
AcDbPolyline
90
8
70
1
43
0.0
10
123.16250000000014
20
-139.625
10
111.16250000000005
20
-139.625
42
-0.4142135623730534
10
110.16250000000014
20
-138.625
10
110.16250000000014
20
-126.62500000000001
42
-0.41421356237307422
10
111.16250000000008
20
-125.625
10
123.16249999999999
20
-125.62499999999997
42
-0.41421356237303258
10
124.16250000000005
20
-126.62500000000001
10
124.16250000000005
20
-138.625
42
-0.4142135623730534
0
LWPOLYLINE
5
133
100
AcDbEntity
8
0
100
AcDbPolyline
90
8
70
1
43
0.0
10
127.92500000000001
20
-101.52500000000003
10
115.92500000000001
20
-101.52499999999996
42
-0.41421356237309503
10
114.92500000000007
20
-100.52500000000002
10
114.92500000000004
20
-88.524999999999991
42
-0.41421356237313667
10
115.92500000000001
20
-87.525000000000006
10
127.92500000000001
20
-87.524999999999949
42
-0.41421356237304302
10
128.92500000000001
20
-88.524999999999991
10
128.92500000000001
20
-100.52500000000002
42
-0.4142135623730534
0
LWPOLYLINE
5
134
100
AcDbEntity
8
0
100
AcDbPolyline
90
24
70
1
43
0.0
10
218.31875000000002
20
-139.625
42
-0.41421356237310542
10
217.31875000000002
20
-138.625
10
217.31875000000002
20
-126.125
42
0.41421356237313667
10
216.81875000000002
20
-125.625
10
216.38075000000003
20
-125.625
42
0.41421356237313667
10
215.88075000000003
20
-126.125
10
215.88075000000003
20
-140.21000000000001
42
-0.41421356237310542
10
214.88075000000006
20
-141.21000000000004
10
209.88075000000006
20
-141.21000000000004
42
-0.41421356237310542
10
208.88075000000001
20
-140.21000000000001
10
208.88075000000003
20
-123.27000000000001
42
-0.4142135623730534
10
209.88075000000006
20
-122.27000000000001
10
238.75675000000001
20
-122.27000000000001
42
-0.41421356237309503
10
239.75675000000001
20
-123.27000000000001
10
239.75675000000001
20
-140.21000000000001
42
-0.41421356237309503
10
238.75675000000001
20
-141.21000000000004
10
233.75675000000007
20
-141.21000000000004
42
-0.41421356237306384
10
232.75675000000004
20
-140.21000000000001
10
232.75675000000004
20
-126.12500000000009
42
0.4142135623730534
10
232.25675000000007
20
-125.62500000000007
10
231.81875000000116
20
-125.62500000000003
42
0.41421356237311585
10
231.31875000000116
20
-126.125
10
231.31875000000005
20
-138.625
42
-0.4142135623730222
10
230.31875000000011
20
-139.625
0
LWPOLYLINE
5
135
100
AcDbEntity
8
0
100
AcDbPolyline
90
8
70
1
43
0.0
10
238.46249999999995
20
-107.575
10
238.46250000000001
20
-119.57499999999999
42
-0.4142135623730222
10
237.46250000000001
20
-120.57500000000005
10
225.46250000000001
20
-120.57500000000002
42
-0.41421356237309503
10
224.46249999999998
20
-119.57499999999999
10
224.46249999999998
20
-107.575
42
-0.41421356237310542
10
225.46250000000001
20
-106.57500000000002
10
237.46250000000001
20
-106.57499999999999
42
-0.41421356237307422
0
LWPOLYLINE
5
136
100
AcDbEntity
8
0
100
AcDbPolyline
90
8
70
1
43
0.0
10
14.624999999999986
20
-88.524999999999991
10
14.624999999999986
20
-100.52500000000002
42
-0.41421356237309503
10
13.625000000000007
20
-101.52500000000001
10
1.6250000000000142
20
-101.52500000000003
42
-0.41421356237309503
10
0.625
20
-100.52500000000002
10
0.62500000000003553
20
-88.524999999999991
42
-0.41421356237309503
10
1.6250000000000142
20
-87.525000000000006
10
13.625000000000007
20
-87.525000000000006
42
-0.41421356237309503
0
LWPOLYLINE
5
137
100
AcDbEntity
8
0
100
AcDbPolyline
90
8
70
1
43
0.0
10
77.824999999999989
20
-87.525000000000006
10
89.825000000000017
20
-87.524999999999977
42
-0.4142135623730534
10
90.825000000000031
20
-88.524999999999991
10
90.825000000000031
20
-100.52500000000002
42
-0.41421356237306384
10
89.825000000000017
20
-101.52500000000001
10
77.824999999999989
20
-101.52499999999996
42
-0.41421356237309503
10
76.825000000000045
20
-100.52500000000002
10
76.825000000000045
20
-88.524999999999991
42
-0.41421356237310542
0
LWPOLYLINE
5
138
100
AcDbEntity
8
0
100
AcDbPolyline
90
27
70
1
43
0.0
10
212.26200000000006
20
-104.88
10
226.70000000000005
20
-104.88000000000002
10
241.13799999999998
20
-104.88000000000002
42
0.41421356237309503
10
242.13799999999998
20
-103.88000000000002
10
242.13799999999998
20
-101.52500000000001
10
242.22500000000002
20
-101.52500000000001
42
0.41421356237310542
10
243.22500000000005
20
-100.52500000000002
10
243.22500000000005
20
-88.524999999999991
42
0.41421356237309503
10
242.22500000000002
20
-87.524999999999977
10
242.13799999999998
20
-87.524999999999977
10
242.13799999999995
20
-86.939999999999998
42
0.41421356237309503
10
241.13799999999998
20
-85.940000000000012
10
236.13799999999998
20
-85.940000000000012
42
0.41421356237312623
10
235.13800000000001
20
-86.940000000000026
10
235.13800000000001
20
-87.524999999999991
10
218.26200000000011
20
-87.524999999999977
10
218.26200000000006
20
-86.940000000000026
42
0.41421356237310542
10
217.26200000000006
20
-85.940000000000055
10
212.26200000000028
20
-85.940000000000012
42
0.41421356237310542
10
211.26200000000026
20
-86.939999999999998
10
211.26200000000026
20
-87.524999999999977
10
211.17500000000004
20
-87.524999999999977
42
0.4142135623730534
10
210.17500000000001
20
-88.524999999999991
10
210.1750000000001
20
-100.52500000000002
42
0.41421356237304302
10
211.17500000000001
20
-101.52500000000003
10
211.26200000000006
20
-101.52500000000003
10
211.262
20
-103.87999999999998
42
0.41421356237310542
0
LWPOLYLINE
5
139
100
AcDbEntity
8
0
100
AcDbPolyline
90
8
70
1
43
0.0
10
154.02500000000003
20
-101.52500000000001
10
166.02500000000006
20
-101.52500000000003
42
0.41421356237307422
10
167.02500000000001
20
-100.52500000000002
10
167.02500000000009
20
-88.524999999999991
42
0.41421356237314705
10
166.02500000000006
20
-87.525000000000006
10
154.02500000000003
20
-87.524999999999977
42
0.41421356237307422
10
153.02500000000009
20
-88.524999999999991
10
153.02500000000009
20
-100.52500000000002
42
0.4142135623730846
0
LWPOLYLINE
5
140
100
AcDbEntity
8
0
100
AcDbPolyline
90
8
70
1
43
0.0
10
161.26249999999999
20
-139.625
10
149.26250000000007
20
-139.62500000000006
42
-0.41421356237306384
10
148.26249999999999
20
-138.625
10
148.26249999999999
20
-126.62500000000001
42
-0.41421356237306384
10
149.26249999999999
20
-125.62500000000003
10
161.26249999999999
20
-125.625
42
-0.41421356237309503
10
162.26249999999999
20
-126.62500000000001
10
162.26249999999999
20
-138.625
42
-0.41421356237310542
0
LWPOLYLINE
5
141
100
AcDbEntity
8
0
100
AcDbPolyline
90
8
70
1
43
0.0
10
124.45
20
-119.57499999999999
10
124.44999999999996
20
-107.575
42
-0.4142135623730534
10
125.44999999999999
20
-106.57499999999999
10
137.45000000000005
20
-106.57499999999999
42
-0.41421356237309503
10
138.45000000000005
20
-107.575
10
138.4500000000001
20
-119.57499999999999
42
-0.41421356237309503
10
137.45000000000005
20
-120.57500000000005
10
125.44999999999987
20
-120.57500000000005
42
-0.4142135623730846
0
LWPOLYLINE
5
142
100
AcDbEntity
8
0
100
AcDbPolyline
90
8
70
1
43
0.0
10
195.60000000000002
20
-107.575
10
195.60000000000005
20
-119.57499999999999
42
-0.41421356237309503
10
194.60000000000002
20
-120.57500000000005
10
182.60000000000002
20
-120.57500000000005
42
-0.41421356237304302
10
181.59999999999999
20
-119.57499999999999
10
181.59999999999999
20
-107.575
42
-0.4142135623730534
10
182.60000000000002
20
-106.57499999999999
10
194.60000000000002
20
-106.57499999999999
42
-0.41421356237309503
0
LWPOLYLINE
5
143
100
AcDbEntity
8
0
100
AcDbPolyline
90
8
70
1
43
0.0
10
85.062500000000014
20
-139.62500000000003
10
73.062499999999986
20
-139.625
42
-0.41421356237309503
10
72.0625
20
-138.625
10
72.062500000000043
20
-126.62500000000001
42
-0.41421356237307422
10
73.062499999999986
20
-125.625
10
85.062500000000014
20
-125.625
42
-0.41421356237309503
10
86.062500000000028
20
-126.62500000000001
10
86.062500000000028
20
-138.625
42
-0.41421356237309503
0
LWPOLYLINE
5
144
100
AcDbEntity
8
0
100
AcDbPolyline
90
8
70
1
43
0.0
10
68.299999999999983
20
-106.57500000000002
10
80.300000000000011
20
-106.57499999999999
42
-0.41421356237310542
10
81.299999999999983
20
-107.575
10
81.300000000000026
20
-119.57499999999999
42
-0.41421356237309503
10
80.300000000000011
20
-120.57500000000002
10
68.299999999999983
20
-120.57500000000002
42
-0.4142135623730846
10
67.300000000000011
20
-119.57499999999999
10
67.300000000000011
20
-107.575
42
-0.41421356237307422
0
LWPOLYLINE
5
145
100
AcDbEntity
8
0
100
AcDbPolyline
90
8
70
1
43
0.0
10
200.36250000000001
20
-138.625
42
-0.41421356237310542
10
199.36250000000001
20
-139.625
10
187.36250000000001
20
-139.62500000000003
42
-0.41421356237307422
10
186.36250000000007
20
-138.625
10
186.36250000000004
20
-126.62500000000001
42
-0.41421356237310542
10
187.36250000000001
20
-125.625
10
199.36250000000001
20
-125.625
42
-0.41421356237309503
10
200.36250000000001
20
-126.62500000000001
0
LWPOLYLINE
5
146
100
AcDbEntity
8
0
100
AcDbPolyline
90
8
70
1
43
0.0
10
176.55000000000007
20
-107.575
10
176.55000000000007
20
-119.57499999999999
42
-0.41421356237313667
10
175.55000000000007
20
-120.57500000000002
10
163.55000000000004
20
-120.57500000000002
42
-0.41421356237309503
10
162.55000000000001
20
-119.57499999999999
10
162.55000000000001
20
-107.575
42
-0.41421356237310542
10
163.55000000000004
20
-106.57500000000002
10
175.55000000000007
20
-106.57499999999999
42
-0.41421356237313667
0
LWPOLYLINE
5
147
100
AcDbEntity
8
0
100
AcDbPolyline
90
8
70
1
43
0.0
10
168.31250000000011
20
-139.62500000000003
10
180.3125
20
-139.62500000000003
42
0.41421356237309503
10
181.3125
20
-138.625
10
181.31250000000006
20
-126.62500000000001
42
0.41421356237310542
10
180.3125
20
-125.625
10
168.3125
20
-125.625
42
0.4142135623730846
10
167.31250000000003
20
-126.62500000000001
10
167.31250000000003
20
-138.625
42
0.41421356237313667
0
LWPOLYLINE
5
148
100
AcDbEntity
8
0
100
AcDbPolyline
90
8
70
1
43
0.0
10
133.97500000000005
20
-100.52500000000002
10
133.97499999999997
20
-88.524999999999991
42
-0.4142135623730534
10
134.97499999999999
20
-87.524999999999977
10
146.97500000000002
20
-87.524999999999977
42
-0.4142135623730846
10
147.97499999999999
20
-88.524999999999991
10
147.97499999999997
20
-100.52500000000002
42
-0.41421356237307422
10
146.97500000000002
20
-101.52500000000003
10
134.97499999999999
20
-101.52500000000003
42
-0.4142135623730534
0
LWPOLYLINE
5
149
100
AcDbEntity
8
0
100
AcDbPolyline
90
8
70
1
43
0.0
10
157.50000000000003
20
-107.575
10
157.50000000000006
20
-119.57499999999999
42
-0.4142135623730846
10
156.50000000000009
20
-120.57500000000002
10
144.5
20
-120.57500000000002
42
-0.41421356237310542
10
143.50000000000009
20
-119.57499999999999
10
143.5
20
-107.575
42
-0.41421356237310542
10
144.5
20
-106.57499999999999
10
156.50000000000009
20
-106.57499999999999
42
-0.41421356237307422
0
CIRCLE
5
150
100
AcDbEntity
8
0
100
AcDbCircle
10
246.22500000000002
20
-80.525000000000063
30
0
40
3.0000000000000071
210
0
220
0
230
1
0
LWPOLYLINE
5
151
100
AcDbEntity
8
0
100
AcDbPolyline
90
8
70
1
43
0.0
10
48.250000000000028
20
-119.57499999999999
10
48.249999999999993
20
-107.575
42
-0.41421356237310542
10
49.250000000000007
20
-106.57500000000002
10
61.25
20
-106.57499999999999
42
-0.41421356237311585
10
62.250000000000085
20
-107.575
10
62.25000000000005
20
-119.57499999999999
42
-0.41421356237312623
10
61.25
20
-120.57500000000002
10
49.250000000000007
20
-120.57500000000002
42
-0.4142135623730846
0
LWPOLYLINE
5
152
100
AcDbEntity
8
0
100
AcDbPolyline
90
8
70
1
43
0.0
10
105.40000000000006
20
-107.575
10
105.39999999999999
20
-119.57499999999999
42
0.41421356237309503
10
106.40000000000001
20
-120.57500000000002
10
118.40000000000003
20
-120.57500000000002
42
0.4142135623730846
10
119.40000000000001
20
-119.57499999999999
10
119.40000000000001
20
-107.575
42
0.4142135623730846
10
118.40000000000003
20
-106.57499999999999
10
106.40000000000001
20
-106.57500000000002
42
0.41421356237310542
0
LWPOLYLINE
5
153
100
AcDbEntity
8
0
100
AcDbPolyline
90
8
70
1
43
0.0
10
100.34999999999999
20
-107.575
10
100.34999999999999
20
-119.57499999999999
42
-0.41421356237306384
10
99.350000000000023
20
-120.57500000000002
10
87.349999999999994
20
-120.57500000000002
42
-0.41421356237309503
10
86.34999999999998
20
-119.57499999999999
10
86.34999999999998
20
-107.575
42
-0.41421356237309503
10
87.349999999999994
20
-106.57499999999999
10
99.350000000000023
20
-106.57500000000002
42
-0.41421356237307422
0
LWPOLYLINE
5
154
100
AcDbEntity
8
0
100
AcDbPolyline
90
8
70
1
43
0.0
10
92.112499999999997
20
-125.625
10
104.11250000000003
20
-125.625
42
-0.41421356237309503
10
105.11250000000004
20
-126.62500000000001
10
105.11250000000004
20
-138.625
42
-0.41421356237309503
10
104.11250000000003
20
-139.62500000000003
10
92.112499999999997
20
-139.625
42
-0.41421356237309503
10
91.112500000000011
20
-138.625
10
91.112499999999983
20
-126.62500000000001
42
-0.41421356237309503
0
LWPOLYLINE
5
155
100
AcDbEntity
8
0
100
AcDbPolyline
90
8
70
1
43
0.0
10
130.21250000000009
20
-125.625
42
0.41421356237307422
10
129.21250000000001
20
-126.62500000000001
10
129.21250000000003
20
-138.625
42
0.41421356237309503
10
130.21250000000009
20
-139.625
10
142.21250000000003
20
-139.625
42
0.4142135623730534
10
143.21250000000003
20
-138.625
10
143.21249999999998
20
-126.62500000000001
42
0.4142135623730534
10
142.21250000000001
20
-125.62499999999997
0
LWPOLYLINE
5
156
100
AcDbEntity
8
0
100
AcDbPolyline
90
8
70
1
43
0.0
10
186.07500000000002
20
-100.52500000000002
42
-0.41421356237310542
10
185.07499999999999
20
-101.52500000000001
10
173.07499999999999
20
-101.52500000000003
42
-0.41421356237304302
10
172.07500000000007
20
-100.52500000000002
10
172.07499999999999
20
-88.524999999999991
42
-0.4142135623730534
10
173.07500000000002
20
-87.524999999999977
10
185.07499999999999
20
-87.524999999999977
42
-0.41421356237309503
10
186.07500000000002
20
-88.524999999999991
0
LWPOLYLINE
5
157
100
AcDbEntity
8
0
100
AcDbPolyline
90
8
70
1
43
0.0
10
70.775000000000006
20
-101.52500000000001
10
58.775000000000013
20
-101.52500000000001
42
-0.41421356237311585
10
57.775000000000034
20
-100.52500000000002
10
57.775000000000034
20
-88.524999999999991
42
-0.41421356237311585
10
58.775000000000013
20
-87.525000000000006
10
70.775000000000006
20
-87.525000000000006
42
-0.4142135623730846
10
71.77500000000002
20
-88.524999999999991
10
71.77500000000002
20
-100.52500000000002
42
-0.41421356237312623
0
LWPOLYLINE
5
158
100
AcDbEntity
8
0
100
AcDbPolyline
90
8
70
1
43
0.0
10
54.01250000000001
20
-139.62500000000003
10
66.012500000000003
20
-139.625
42
0.4142135623730846
10
67.012500000000017
20
-138.625
10
67.012500000000045
20
-126.62500000000001
42
0.41421356237312623
10
66.012500000000003
20
-125.625
10
54.01250000000001
20
-125.625
42
0.41421356237306384
10
53.012500000000031
20
-126.62500000000001
10
53.012500000000031
20
-138.625
42
0.41421356237306384
0
LWPOLYLINE
5
159
100
AcDbEntity
8
0
100
AcDbPolyline
90
8
70
1
43
0.0
10
96.875
20
-101.52500000000001
10
108.87500000000003
20
-101.52500000000001
42
0.41421356237306384
10
109.87500000000004
20
-100.52500000000002
10
109.875
20
-88.524999999999991
42
0.4142135623730846
10
108.87500000000003
20
-87.524999999999977
10
96.875
20
-87.524999999999977
42
0.41421356237309503
10
95.874999999999986
20
-88.524999999999991
10
95.875000000000028
20
-100.52500000000002
42
0.41421356237311585
0
LWPOLYLINE
5
160
100
AcDbEntity
8
0
100
AcDbPolyline
90
34
70
1
43
0.0
10
38.22756637820433
20
-159.75958267815614
42
0.41421356237309503
10
36.602566378204251
20
-161.38458267815622
10
36.602566378204244
20
-178.32458267811421
42
0.41421356237310147
10
38.227566378204436
20
-179.94958267811438
10
48.227566378205395
20
-179.94958267811424
42
0.41421356237310147
10
49.85256637820541
20
-178.32458267811418
10
49.85256637820541
20
-163.7395826781561
10
83.966112065309602
20
-163.7232677226329
10
83.962574813519268
20
-176.72313443202708
42
0.41421332545092154
10
84.964464123289815
20
-177.72502202902319
10
108.87220853475861
20
-177.7250112630752
42
0.4142162244402734
10
109.87410689765143
20
-176.72312280277851
10
109.87411206530305
20
-163.72326772263284
10
136.84631637820374
20
-163.73293289167265
10
136.84631637820374
20
-178.32458267815582
42
0.41421356237309503
10
138.47131637820377
20
-179.94958267815582
10
143.47131637820374
20
-179.94958267815582
42
0.41421356237308865
10
145.09631637820368
20
-178.32458267815593
10
145.09631637820368
20
-163.7358891811792
10
155.40361205772507
20
-163.73958267815595
10
155.40360603637441
20
-176.72313443202083
42
0.26540225264050438
10
155.89631637820369
20
-177.58599422787316
10
155.89631637820366
20
-178.32458267815585
42
0.41421356237309503
10
157.52131637820369
20
-179.94958267815588
10
162.52131637820366
20
-179.94958267815588
42
0.41421356237309503
10
164.14631637820361
20
-178.32458267815593
10
164.14631637820361
20
-177.72501126307526
10
170.78470853474298
20
-177.72501126307526
42
0.41421446135563705
10
171.78660689762427
20
-176.72312883368843
10
171.78662842949083
20
-164.72516953062328
42
0.41422113367575175
10
170.78472317645509
20
-163.72327116781742
10
164.14631637820361
20
-163.72337979580487
10
164.14631637820364
20
-161.38458267815599
42
0.41421356237309503
10
162.52131637820366
20
-159.75958267815602
0
LWPOLYLINE
5
161
100
AcDbEntity
8
0
100
AcDbPolyline
90
9
70
1
43
0.0
10
194.59474393744688
20
-177.72764829079082
42
0.41421596468440519
10
195.59663150917001
20
-176.72574992785169
10
195.59660997732328
20
-164.72779579237744
42
0.41421597205627297
10
194.5947116144221
20
-163.72590819539968
10
177.8307262560821
20
-163.72589742947616
42
0.41318583137324982
10
176.83235911605411
20
-164.72778502645411
10
176.83236514497116
20
-176.72929062473119
10
176.83236504990327
20
-176.72923538873962
42
0.41217741964251942
10
177.83072625608202
20
-177.72766982259338
0
LWPOLYLINE
5
162
100
AcDbEntity
8
0
100
AcDbPolyline
90
8
70
1
43
0.0
10
201.6461946979675
20
-177.72767131276117
42
-0.41421422009154651
10
200.64485986557884
20
-176.72633722990014
10
200.64486884728225
20
-164.72723071712392
42
-0.4142135490100175
10
201.64620288445894
20
-163.72589813332016
10
216.02299582599645
20
-163.72590823886475
42
-0.4142129180179378
10
217.02432845548452
20
-164.7272400731417
10
217.02434641881689
20
-176.72631495741467
42
-0.41421356237309503
10
216.02301458454076
20
-177.7276497898024
0
LINE
5
163
100
AcDbEntity
8
0
100
AcDbLine
10
211.87382054399484
20
-144.65149856016404
30
0
11
211.87382054399484
21
-144.65328364444403
31
0
0
LINE
5
164
100
AcDbEntity
8
0
100
AcDbLine
10
225.55078608416102
20
-144.65795164426314
30
0
11
211.87382054399484
21
-144.65328364444403
31
0
0
SPLINE
5
165
100
AcDbEntity
8
0
100
AcDbSpline
70
4
71
3
72
8
73
4
74
0
42
0.000000001
43
0.0000000001
44
0.0000000001
40
0
40
0
40
0
40
0
40
1
40
1
40
1
40
1
41
1
41
1
41
1
41
1
10
226.54923841023509
20
-145.65640892313354
30
0
10
226.54923754887909
20
-145.10249473531388
30
0
10
226.10117097382761
20
-144.65795164426314
30
0
10
225.55078608416102
20
-144.65795164426314
30
0
0
LINE
5
166
100
AcDbEntity
8
0
100
AcDbLine
10
226.54923841023509
20
-158.65750823414737
30
0
11
226.54923841023509
21
-145.65640892313354
31
0
0
LINE
5
167
100
AcDbEntity
8
0
100
AcDbLine
10
227.37383654399486
20
-158.65750823414737
30
0
11
226.54923841023509
21
-158.65750823414737
31
0
0
LINE
5
168
100
AcDbEntity
8
0
100
AcDbLine
10
227.37383654399486
20
-144.65149856016404
30
0
11
227.37383654399486
21
-158.65750823414737
31
0
0
ARC
5
169
100
AcDbEntity
8
0
100
AcDbCircle
10
227.37383654399514
20
-144.15149856016416
30
0
40
0.49999999999988276
210
0
220
0
230
1
100
AcDbArc
50
-90.000000000032571
51
0
0
LINE
5
170
100
AcDbEntity
8
0
100
AcDbLine
10
227.87383654399497
20
-144.15149856016404
30
0
11
227.87383654399497
21
-144.1514995601641
31
0
0
LINE
5
171
100
AcDbEntity
8
0
100
AcDbLine
10
227.87383654399497
20
-144.1514995601641
30
0
11
227.87383654399497
21
-143.6514975601641
31
0
0
LINE
5
172
100
AcDbEntity
8
0
100
AcDbLine
10
227.87383654399497
20
-143.6514975601641
30
0
11
227.87383654399497
21
-143.65149756016407
31
0
0
ARC
5
173
100
AcDbEntity
8
0
100
AcDbCircle
10
228.87383654399491
20
-143.65149756016407
30
0
40
1.0000000000000142
210
0
220
-0
230
1
100
AcDbArc
50
90
51
180
0
LINE
5
174
100
AcDbEntity
8
0
100
AcDbLine
10
228.87383654399491
20
-142.65149756016405
30
0
11
228.87382854399482
21
-142.6514975601641
31
0
0
LINE
5
175
100
AcDbEntity
8
0
100
AcDbLine
10
228.87382854399482
20
-142.6514975601641
30
0
11
234.37382854399493
21
-142.6514975601641
31
0
0
LINE
5
176
100
AcDbEntity
8
0
100
AcDbLine
10
234.37382154399478
20
-142.65149756016405
30
0
11
234.37382854399493
21
-142.6514975601641
31
0
0
ARC
5
177
100
AcDbEntity
8
0
100
AcDbCircle
10
234.37382154399478
20
-143.65149756016407
30
0
40
1.0000000000002274
210
0
220
0
230
1
100
AcDbArc
50
0
51
90
0
LINE
5
178
100
AcDbEntity
8
0
100
AcDbLine
10
235.37382154399501
20
-143.65149756016405
30
0
11
235.37382154399501
21
-143.65149756016407
31
0
0
LINE
5
179
100
AcDbEntity
8
0
100
AcDbLine
10
235.37382154399501
20
-143.65149756016405
30
0
11
235.37382154399501
21
-144.653283644444
31
0
0
LINE
5
180
100
AcDbEntity
8
0
100
AcDbLine
10
235.37382154399501
20
-144.653283644444
30
0
11
242.22109712904904
21
-144.65328364444403
31
0
0
ARC
5
181
100
AcDbEntity
8
0
100
AcDbCircle
10
242.22109712904896
20
-145.65328364444412
30
0
40
1.0000000000000853
210
0
220
-0
230
1
100
AcDbArc
50
0
51
89.999999999995111
0
LINE
5
182
100
AcDbEntity
8
0
100
AcDbLine
10
243.22109712904904
20
-145.65328364444406
30
0
11
243.2210971290491
21
-157.65328364444395
31
0
0
ARC
5
183
100
AcDbEntity
8
0
100
AcDbCircle
10
242.22109712904904
20
-157.65328364444395
30
0
40
1.0000000000000853
210
0
220
0
230
1
100
AcDbArc
50
-89.999999999996746
51
0
0
LINE
5
184
100
AcDbEntity
8
0
100
AcDbLine
10
235.37382154399501
20
-158.653283644444
30
0
11
242.2210971290491
21
-158.653283644444
31
0
0
LINE
5
185
100
AcDbEntity
8
0
100
AcDbLine
10
235.37382154399501
20
-158.653283644444
30
0
11
235.37382154399501
21
-161.15149756016399
31
0
0
LINE
5
186
100
AcDbEntity
8
0
100
AcDbLine
10
235.37382154394584
20
-161.15149056016401
30
0
11
235.37382154399501
21
-161.15149756016399
31
0
0
ARC
5
187
100
AcDbEntity
8
0
100
AcDbCircle
10
234.37382154397034
20
-161.15149756016399
30
0
40
1.0000000000000142
210
0
220
0
230
1
100
AcDbArc
50
-90
51
0.00040107010969264067
0
LINE
5
188
100
AcDbEntity
8
0
100
AcDbLine
10
204.87382554399494
20
-162.15149756016402
30
0
11
204.87381854399496
21
-162.15149756016399
31
0
0
ARC
5
189
100
AcDbEntity
8
0
100
AcDbCircle
10
204.87382554399494
20
-161.15149756016399
30
0
40
0.99999999999994316
210
0
220
0
230
1
100
AcDbArc
50
180
51
270
0
LINE
5
190
100
AcDbEntity
8
0
100
AcDbLine
10
203.873825543995
20
-161.15149956016396
30
0
11
203.873825543995
21
-161.15149756016399
31
0
0
LINE
5
191
100
AcDbEntity
8
0
100
AcDbLine
10
203.873825543995
20
-161.15149956016396
30
0
11
203.873825543995
21
-158.64142893888334
31
0
0
ARC
5
192
100
AcDbEntity
8
0
100
AcDbCircle
10
204.02734712904925
20
-157.65328364444406
30
0
40
1.0000000000000142
210
0
220
0
230
1
100
AcDbArc
50
180
51
261.16893690395204
0
LINE
5
193
100
AcDbEntity
8
0
100
AcDbLine
10
203.02734712904922
20
-145.65328364444412
30
0
11
203.02734712904922
21
-157.653283644444
31
0
0
ARC
5
194
100
AcDbEntity
8
0
100
AcDbCircle
10
204.02734712904916
20
-145.65328364444397
30
0
40
0.9999999999999426
210
0
220
0
230
1
100
AcDbArc
50
98.831063096043877
51
180
0
LINE
5
195
100
AcDbEntity
8
0
100
AcDbLine
10
203.873825543995
20
-144.66513835000478
30
0
11
203.873825543995
21
-143.65149756016407
31
0
0
LINE
5
196
100
AcDbEntity
8
0
100
AcDbLine
10
203.873825543995
20
-143.6514995601641
30
0
11
203.873825543995
21
-143.65149756016407
31
0
0
ARC
5
197
100
AcDbEntity
8
0
100
AcDbCircle
10
204.87382554399494
20
-143.6514995601641
30
0
40
0.99999999999999645
210
0
220
-0
230
1
100
AcDbArc
50
90
51
180
0
LINE
5
198
100
AcDbEntity
8
0
100
AcDbLine
10
204.87381854399496
20
-142.6514995601641
30
0
11
204.87382554399494
21
-142.6514995601641
31
0
0
LINE
5
199
100
AcDbEntity
8
0
100
AcDbLine
10
204.87381854399496
20
-142.6514995601641
30
0
11
210.3738185439949
21
-142.6514995601641
31
0
0
LINE
5
200
100
AcDbEntity
8
0
100
AcDbLine
10
210.37383754399491
20
-142.6514995601641
30
0
11
210.3738185439949
21
-142.6514995601641
31
0
0
ARC
5
201
100
AcDbEntity
8
0
100
AcDbCircle
10
210.37383754399491
20
-143.6514995601641
30
0
40
0.99999999999994316
210
0
220
-0
230
1
100
AcDbArc
50
0
51
90
0
LINE
5
202
100
AcDbEntity
8
0
100
AcDbLine
10
211.37383754399485
20
-143.65149756016399
30
0
11
211.37383754399485
21
-143.6514995601641
31
0
0
LINE
5
203
100
AcDbEntity
8
0
100
AcDbLine
10
211.37383754399485
20
-143.65149756016399
30
0
11
211.37383754399485
21
-144.15149956016407
31
0
0
LINE
5
204
100
AcDbEntity
8
0
100
AcDbLine
10
211.37383754399485
20
-144.15149856016404
30
0
11
211.37383754399485
21
-144.15149956016407
31
0
0
ARC
5
205
100
AcDbEntity
8
0
100
AcDbCircle
10
211.87383754399468
20
-144.15149856016416
30
0
40
0.49999999999982947
210
0
220
0
230
1
100
AcDbArc
50
180
51
270.00000000003257
0
LINE
5
206
100
AcDbEntity
8
0
100
AcDbLine
10
234.37382154397034
20
-162.15149756016402
30
0
11
204.87381854399496
21
-162.15149756016399
31
0
0
LWPOLYLINE
5
207
100
AcDbEntity
8
0
100
AcDbPolyline
90
8
70
1
43
0.0
10
224.4573591160422
20
-176.72578715356227
10
224.45735911604228
20
-164.72778502644499
42
-0.41318583137058257
10
225.45572625607022
20
-163.72589742947622
10
239.83846161441076
20
-163.72590819539971
42
-0.41525213718269838
10
240.83682875443867
20
-164.72779579237752
10
240.82978784053896
20
-176.72574992784536
42
-0.41525530915287634
10
239.83142070051105
20
-177.72764829074657
10
225.45572625607019
20
-177.72766982259338
42
-0.4131843918108532
0
ARC
5
208
100
AcDbEntity
8
0
100
AcDbCircle
10
-27.907221118800503
20
-176.72575943213798
30
0
40
1.0018888586094798
210
0
220
0
230
-1
100
AcDbArc
50
179.99945647130824
51
269.99991420363727
0
LINE
5
209
100
AcDbEntity
8
0
100
AcDbLine
10
28.909115145008141
20
-176.72929062473119
30
0
11
28.909109977364903
21
-176.72574992785431
31
0
0
LINE
5
210
100
AcDbEntity
8
0
100
AcDbLine
10
28.909115145008141
20
-176.72929062473119
30
0
11
28.909109977345096
21
-164.72780844915988
31
0
0
ARC
5
211
100
AcDbEntity
8
0
100
AcDbCircle
10
-27.907221118742914
20
-164.72781487838944
30
0
40
1.0018888542322686
210
0
220
0
230
-1
100
AcDbArc
50
90.000072149841628
51
179.99963232676313
0
LINE
5
212
100
AcDbEntity
8
0
100
AcDbLine
10
13.522032488571774
20
-163.72591525376117
30
0
11
27.907222380373749
21
-163.72592602415796
31
0
0
ARC
5
213
100
AcDbEntity
8
0
100
AcDbCircle
10
-13.528008740627207
20
-164.72778628808499
30
0
40
1.0018888586090924
210
0
220
0
230
-1
100
AcDbArc
50
0
51
89.658229505451004
0
LINE
5
214
100
AcDbEntity
8
0
100
AcDbLine
10
12.526119882018559
20
-176.72577145970112
30
0
11
12.526119882018115
21
-164.72778628808499
31
0
0
ARC
5
215
100
AcDbEntity
8
0
100
AcDbCircle
10
-13.528008740582941
20
-176.72578096398479
30
0
40
1.0018888586094603
210
-0
220
0
230
-1
100
AcDbArc
50
-89.999927852690206
51
0.00054352869176481052
0
LINE
5
216
100
AcDbEntity
8
0
100
AcDbLine
10
13.528007478996372
20
-177.72766982259344
30
0
11
27.907222619057951
21
-177.72764829074302
31
0
0
LWPOLYLINE
5
217
100
AcDbEntity
8
0
100
AcDbPolyline
90
9
70
1
43
0.0
10
-11.286384854981808
20
-176.72929062473128
10
-11.286380117975501
20
-176.72577145968941
42
0.41421597205711941
10
-10.28449252099767
20
-177.72766982259344
10
4.0947223803930379
20
-177.72764829074669
42
0.4142159720571143
10
5.0966099773708695
20
-176.7257499278426
10
5.0966099773510267
20
-164.72779062477869
42
0.4142113140208466
10
4.0947223803930388
20
-163.7259081953996
10
-10.288023743870944
20
-163.72589742947633
42
0.41421282473151583
10
-11.289911340848775
20
-164.72778502649226
0
LWPOLYLINE
5
218
100
AcDbEntity
8
0
100
AcDbPolyline
90
9
70
1
43
0.0
10
-19.717772236639313
20
-177.72764829074669
42
0.41421597205710908
10
-18.715884639661482
20
-176.7257499278426
10
-18.715884639681349
20
-164.72779062474402
42
0.41421131401070205
10
-19.717772236639313
20
-163.7259081953996
10
-34.096997903953437
20
-163.72589742947633
42
0.41421282473151583
10
-35.098885500931267
20
-164.72778502649226
10
-35.098884854975871
20
-176.72929062473119
10
-35.098885500931267
20
-176.72577145968941
42
0.41421597205711941
10
-34.096997903953437
20
-177.72766982259344
0
LINE
5
219
100
AcDbEntity
8
0
100
AcDbLine
10
-26.25117945600508
20
-144.65149856016404
30
0
11
-26.25117945600508
21
-158.65750823414737
31
0
0
LINE
5
220
100
AcDbEntity
8
0
100
AcDbLine
10
-25.575317102954362
20
-158.65750823414737
30
0
11
-26.25117945600508
21
-158.65750823414737
31
0
0
LINE
5
221
100
AcDbEntity
8
0
100
AcDbLine
10
-25.575317102954362
20
-158.65750823414737
30
0
11
-25.575320763716935
21
-145.65287962498059
31
0
0
SPLINE
5
222
100
AcDbEntity
8
0
100
AcDbSpline
70
4
71
3
72
8
73
4
74
0
42
0.000000001
43
0.0000000001
44
0.0000000001
40
0
40
0
40
0
40
0
40
1
40
1
40
1
40
1
41
1
41
1
41
1
41
1
10
-24.576860900778787
20
-144.6544246071694
30
0
10
-25.130780364403339
20
-144.65442412265671
30
0
10
-25.575320763716935
20
-145.10249473531388
30
0
10
-25.575320763716935
20
-145.65287962498059
30
0
0
LINE
5
223
100
AcDbEntity
8
0
100
AcDbLine
10
-24.576860900778787
20
-144.6544246071694
30
0
11
-12.5742139158389
21
-144.65795164426314
31
0
0
SPLINE
5
224
100
AcDbEntity
8
0
100
AcDbSpline
70
4
71
3
72
8
73
4
74
0
42
0.000000001
43
0.0000000001
44
0.0000000001
40
0
40
0
40
0
40
0
40
1
40
1
40
1
40
1
41
1
41
1
41
1
41
1
10
-11.575761589764898
20
-145.65640892313354
30
0
10
-11.575762451120827
20
-145.10249473531388
30
0
10
-12.02382902617224
20
-144.65795164426314
30
0
10
-12.5742139158389
20
-144.65795164426314
30
0
0
LINE
5
225
100
AcDbEntity
8
0
100
AcDbLine
10
-11.575761589764898
20
-145.65640892313354
30
0
11
-11.575761589764898
21
-158.65750823414737
31
0
0
LINE
5
226
100
AcDbEntity
8
0
100
AcDbLine
10
-10.751163456005134
20
-158.65750823414737
30
0
11
-11.575761589764898
21
-158.65750823414737
31
0
0
LINE
5
227
100
AcDbEntity
8
0
100
AcDbLine
10
-10.751163456005134
20
-144.65149856016404
30
0
11
-10.751163456005134
21
-158.65750823414737
31
0
0
ARC
5
228
100
AcDbEntity
8
0
100
AcDbCircle
10
-10.75116345600485
20
-144.15149856016416
30
0
40
0.49999999999988276
210
0
220
0
230
1
100
AcDbArc
50
-90.000000000032571
51
0
0
LINE
5
229
100
AcDbEntity
8
0
100
AcDbLine
10
-10.25116345600502
20
-144.15149856016404
30
0
11
-10.25116345600502
21
-144.1514995601641
31
0
0
LINE
5
230
100
AcDbEntity
8
0
100
AcDbLine
10
-10.25116345600502
20
-144.1514995601641
30
0
11
-10.25116345600502
21
-143.6514975601641
31
0
0
LINE
5
231
100
AcDbEntity
8
0
100
AcDbLine
10
-10.25116345600502
20
-143.6514975601641
30
0
11
-10.25116345600502
21
-143.65149756016407
31
0
0
ARC
5
232
100
AcDbEntity
8
0
100
AcDbCircle
10
-9.2511634560050773
20
-143.65149756016407
30
0
40
1.0000000000000142
210
0
220
-0
230
1
100
AcDbArc
50
90
51
180
0
LINE
5
233
100
AcDbEntity
8
0
100
AcDbLine
10
-9.2511634560050773
20
-142.65149756016405
30
0
11
-9.2511714560051708
21
-142.6514975601641
31
0
0
LINE
5
234
100
AcDbEntity
8
0
100
AcDbLine
10
-9.2511714560051708
20
-142.6514975601641
30
0
11
-3.751171456005058
21
-142.6514975601641
31
0
0
LINE
5
235
100
AcDbEntity
8
0
100
AcDbLine
10
-3.7511784560050687
20
-142.65149756016405
30
0
11
-3.751171456005058
21
-142.6514975601641
31
0
0
ARC
5
236
100
AcDbEntity
8
0
100
AcDbCircle
10
-3.7511784560050687
20
-143.65149756016407
30
0
40
1.0000000000000853
210
0
220
0
230
1
100
AcDbArc
50
0
51
90
0
LINE
5
237
100
AcDbEntity
8
0
100
AcDbLine
10
-2.7511784560049835
20
-143.65149756016405
30
0
11
-2.7511784560049835
21
-143.65149756016407
31
0
0
LINE
5
238
100
AcDbEntity
8
0
100
AcDbLine
10
-2.7511784560049835
20
-143.65149756016405
30
0
11
-2.7511784560049835
21
-161.15149756016399
31
0
0
LINE
5
239
100
AcDbEntity
8
0
100
AcDbLine
10
-2.751178456054153
20
-161.15149056016401
30
0
11
-2.7511784560049835
21
-161.15149756016399
31
0
0
ARC
5
240
100
AcDbEntity
8
0
100
AcDbCircle
10
-3.7511784560296535
20
-161.15149756016399
30
0
40
1.0000000000000142
210
0
220
0
230
1
100
AcDbArc
50
-90
51
0.00040107010969264067
0
LINE
5
241
100
AcDbEntity
8
0
100
AcDbLine
10
-33.251174456004982
20
-162.15149756016402
30
0
11
-33.251181456004993
21
-162.15149756016399
31
0
0
ARC
5
242
100
AcDbEntity
8
0
100
AcDbCircle
10
-33.251174456004982
20
-161.15149756016399
30
0
40
0.99999999999994316
210
0
220
0
230
1
100
AcDbArc
50
180
51
270
0
LINE
5
243
100
AcDbEntity
8
0
100
AcDbLine
10
-34.251174456004925
20
-161.15149956016396
30
0
11
-34.251174456004925
21
-161.15149756016399
31
0
0
LINE
5
244
100
AcDbEntity
8
0
100
AcDbLine
10
-34.251174456004925
20
-161.15149956016396
30
0
11
-34.251174456004925
21
-143.65149756016407
31
0
0
LINE
5
245
100
AcDbEntity
8
0
100
AcDbLine
10
-34.251174456004925
20
-143.6514995601641
30
0
11
-34.251174456004925
21
-143.65149756016407
31
0
0
ARC
5
246
100
AcDbEntity
8
0
100
AcDbCircle
10
-33.251174456004982
20
-143.6514995601641
30
0
40
0.99999999999999645
210
0
220
-0
230
1
100
AcDbArc
50
90
51
180
0
LINE
5
247
100
AcDbEntity
8
0
100
AcDbLine
10
-33.251181456004993
20
-142.6514995601641
30
0
11
-33.251174456004982
21
-142.6514995601641
31
0
0
LINE
5
248
100
AcDbEntity
8
0
100
AcDbLine
10
-33.251181456004993
20
-142.6514995601641
30
0
11
-27.751181456005018
21
-142.6514995601641
31
0
0
LINE
5
249
100
AcDbEntity
8
0
100
AcDbLine
10
-27.751162456005009
20
-142.6514995601641
30
0
11
-27.751181456005018
21
-142.6514995601641
31
0
0
ARC
5
250
100
AcDbEntity
8
0
100
AcDbCircle
10
-27.751162456005009
20
-143.6514995601641
30
0
40
0.99999999999994316
210
0
220
-0
230
1
100
AcDbArc
50
0
51
90
0
LINE
5
251
100
AcDbEntity
8
0
100
AcDbLine
10
-26.751162456005066
20
-143.65149756016399
30
0
11
-26.751162456005066
21
-143.6514995601641
31
0
0
LINE
5
252
100
AcDbEntity
8
0
100
AcDbLine
10
-26.751162456005066
20
-143.65149756016399
30
0
11
-26.751162456005066
21
-144.15149956016407
31
0
0
LINE
5
253
100
AcDbEntity
8
0
100
AcDbLine
10
-26.751162456005066
20
-144.15149856016404
30
0
11
-26.751162456005066
21
-144.15149956016407
31
0
0
ARC
5
254
100
AcDbEntity
8
0
100
AcDbCircle
10
-26.251162456005236
20
-144.15149856016416
30
0
40
0.49999999999982947
210
0
220
0
230
1
100
AcDbArc
50
180
51
270.00000000003257
0
LINE
5
255
100
AcDbEntity
8
0
100
AcDbLine
10
-3.7511784560296535
20
-162.15149756016402
30
0
11
-33.251181456004993
21
-162.15149756016399
31
0
0
ENDSEC
0
SECTION
2
OBJECTS
0
DICTIONARY
5
C
100
AcDbDictionary
3
ACAD_GROUP
350
D
3
ACAD_MLINESTYLE
350
17
0
DICTIONARY
5
D
100
AcDbDictionary
0
DICTIONARY
5
1A
330
C
100
AcDbDictionary
0
DICTIONARY
5
17
100
AcDbDictionary
0
ENDSEC
0
EOF
