0
SECTION
2
HEADER
9
$INSUNITS
70
4
9
$ACADVER
1
AC1014
9
$HANDSEED
5
FFFF
0
ENDSEC
0
SECTION
2
TABLES
0
TABLE
2
VPORT
5
8
100
AcDbSymbolTable
0
ENDTAB
0
TABLE
2
LTYPE
5
5
100
AcDbSymbolTable
0
LTYPE
5
14
100
AcDbSymbolTableRecord
100
AcDbLinetypeTableRecord
2
BYBLOCK
70
0
0
LTYPE
5
15
100
AcDbSymbolTableRecord
100
AcDbLinetypeTableRecord
2
BYLAYER
70
0
0
ENDTAB
0
TABLE
2
LAYER
5
2
100
AcDbSymbolTable
70
2
0
LAYER
5
50
100
AcDbSymbolTableRecord
100
AcDbLayerTableRecord
2
0
70
0
6
CONTINUOUS
0
ENDTAB
0
TABLE
2
STYLE
5
3
100
AcDbSymbolTable
70
1
0
STYLE
5
11
100
AcDbSymbolTableRecord
100
AcDbTextStyleTableRecord
2
STANDARD
70
0
0
ENDTAB
0
TABLE
2
VIEW
5
6
100
AcDbSymbolTable
70
0
0
ENDTAB
0
TABLE
2
UCS
5
7
100
AcDbSymbolTable
70
0
0
ENDTAB
0
TABLE
2
APPID
5
9
100
AcDbSymbolTable
70
2
0
APPID
5
12
100
AcDbSymbolTableRecord
100
AcDbRegAppTableRecord
2
ACAD
70
0
0
ENDTAB
0
TABLE
2
DIMSTYLE
5
A
100
AcDbSymbolTable
70
1
0
ENDTAB
0
TABLE
2
BLOCK_RECORD
5
1
100
AcDbSymbolTable
70
1
0
BLOCK_RECORD
5
1F
100
AcDbSymbolTableRecord
100
AcDbBlockTableRecord
2
*MODEL_SPACE
0
BLOCK_RECORD
5
1B
100
AcDbSymbolTableRecord
100
AcDbBlockTableRecord
2
*PAPER_SPACE
0
ENDTAB
0
ENDSEC
0
SECTION
2
BLOCKS
0
BLOCK
5
20
100
AcDbEntity
100
AcDbBlockBegin
2
*MODEL_SPACE
0
ENDBLK
5
21
100
AcDbEntity
100
AcDbBlockEnd
0
BLOCK
5
1C
100
AcDbEntity
100
AcDbBlockBegin
2
*PAPER_SPACE
0
ENDBLK
5
1D
100
AcDbEntity
100
AcDbBlockEnd
0
ENDSEC
0
SECTION
2
ENTITIES
0
LWPOLYLINE
5
100
100
AcDbEntity
8
0
100
AcDbPolyline
90
8
70
1
43
0.0
10
51.724999999999994
20
-227.52499999999998
42
-0.41421356237309503
10
52.725000000000009
20
-228.52499999999998
10
52.724999999999973
20
-240.52500000000003
42
-0.41421356237311585
10
51.724999999999994
20
-241.52500000000001
10
39.724999999999966
20
-241.52500000000001
42
-0.4142135623730846
10
38.725000000000023
20
-240.52500000000003
10
38.725000000000023
20
-228.52499999999998
42
-0.4142135623730846
10
39.724999999999966
20
-227.52500000000001
0
LWPOLYLINE
5
101
100
AcDbEntity
8
0
100
AcDbPolyline
90
8
70
1
43
0.0
10
27.91249999999998
20
-265.625
42
-0.41421356237309503
10
28.912499999999994
20
-266.625
10
28.912499999999959
20
-278.625
42
-0.41421356237309503
10
27.91249999999998
20
-279.625
10
15.912500000000023
20
-279.625
42
-0.41421356237309503
10
14.912500000000009
20
-278.625
10
14.912500000000009
20
-266.625
42
-0.41421356237309503
10
15.912500000000023
20
-265.625
0
LWPOLYLINE
5
102
100
AcDbEntity
8
0
100
AcDbPolyline
90
8
70
1
43
0.0
10
85.062500000000014
20
-279.625
10
73.062499999999986
20
-279.625
42
-0.41421356237309503
10
72.0625
20
-278.625
10
72.062500000000043
20
-266.625
42
-0.41421356237307422
10
73.062499999999986
20
-265.625
10
85.062500000000014
20
-265.625
42
-0.41421356237309503
10
86.062500000000028
20
-266.625
10
86.062500000000028
20
-278.625
42
-0.41421356237309503
0
LWPOLYLINE
5
103
100
AcDbEntity
8
0
100
AcDbPolyline
90
8
70
1
43
0.0
10
163.55000000000004
20
-246.57500000000002
10
175.55000000000007
20
-246.57499999999999
42
-0.41421356237313667
10
176.55000000000007
20
-247.57499999999999
10
176.55000000000007
20
-259.57499999999999
42
-0.41421356237313667
10
175.55000000000007
20
-260.57499999999999
10
163.55000000000004
20
-260.57499999999999
42
-0.41421356237309503
10
162.55000000000001
20
-259.57499999999999
10
162.55000000000001
20
-247.57499999999999
42
-0.41421356237310542
0
CIRCLE
5
104
100
AcDbEntity
8
0
100
AcDbCircle
10
150.65833333333336
20
-220.52500000000006
30
0
40
3.0000000000000071
210
0
220
0
230
1
0
LWPOLYLINE
5
105
100
AcDbEntity
8
0
100
AcDbPolyline
90
40
70
1
43
0.0
10
84.964464123289815
20
-317.72502202904371
42
-0.41421332545092154
10
83.962574813519268
20
-316.72313443202705
10
83.965839761991106
20
-304.7240183207449
42
0.41443335290643424
10
82.965361544600299
20
-303.72374633603721
10
50.852088123795639
20
-303.73910465241897
42
0.4140734918305935
10
49.85256637820541
20
-304.7391045380553
10
49.85256637820541
20
-318.32458267811421
42
-0.41421356237310147
10
48.227566378205395
20
-319.94958267811421
10
38.227566378204436
20
-319.94958267811438
42
-0.41421356237310147
10
36.602566378204251
20
-318.32458267811421
10
36.602566378204251
20
-301.98458267815619
42
-0.41421356237309503
10
38.22756637820433
20
-300.35958267815607
10
162.52131637820366
20
-300.35958267815602
42
-0.41421356237309503
10
164.14631637820361
20
-301.98458267815602
10
164.14631637820361
20
-303.72337979580487
10
170.78472317645509
20
-303.72327116781747
42
-0.41422113367575175
10
171.78662842949083
20
-304.7251695306233
10
171.78660689764328
20
-316.72312420252808
42
-0.41421581523532136
10
170.78470853474298
20
-317.72501126307526
10
164.14631637820361
20
-317.72501126307526
10
164.14631637820361
20
-318.32458267815593
42
-0.41421356237309503
10
162.52131637820366
20
-319.94958267815588
10
157.52131637820369
20
-319.94958267815588
42
-0.41421356237309503
10
155.89631637820369
20
-318.32458267815588
10
155.89631637820875
20
-317.5859942278646
42
-0.26540106046986411
10
155.40360603637231
20
-316.72313889532438
10
155.40361159412342
20
-304.73922486783857
42
0.41410874729006353
10
154.40396993222251
20
-303.73922446827407
10
146.09667471630269
20
-303.73624764770744
42
0.41431852106956618
10
145.09631637820368
20
-304.73624758350434
10
145.09631637820368
20
-318.32458267815593
42
-0.41421356237308865
10
143.47131637820374
20
-319.94958267815582
10
138.47131637820377
20
-319.94958267815582
42
-0.41421356237309503
10
136.84631637820374
20
-318.32458267815582
10
136.84631637820374
20
-304.73257461775376
42
0.41410861146577649
10
135.84667471630274
20
-303.73257468195686
10
110.87447000574358
20
-303.72362618901855
42
0.41431840463115865
10
109.87411166764466
20
-304.72362572729941
10
109.87410689766051
20
-316.72312280277851
42
-0.4142162244402734
10
108.87220853475861
20
-317.7250112630752
0
LINE
5
106
100
AcDbEntity
8
0
100
AcDbLine
10
-33.251181456004993
20
-282.6514995601641
30
0
11
-33.251174456004982
21
-282.6514995601641
31
0
0
LWPOLYLINE
5
107
100
AcDbEntity
8
0
100
AcDbPolyline
90
8
70
1
43
0.0
10
63.53749999999998
20
-298.67499999999995
42
-0.41421356237309503
10
62.537500000000001
20
-297.67499999999995
10
62.537500000000001
20
-285.67500000000001
42
-0.41421356237309503
10
63.53749999999998
20
-284.67500000000001
10
75.537500000000009
20
-284.67500000000001
42
-0.4142135623730846
10
76.537500000000023
20
-285.67500000000001
10
76.537500000000023
20
-297.67499999999995
42
-0.41421356237309503
10
75.537500000000009
20
-298.67500000000001
0
LWPOLYLINE
5
108
100
AcDbEntity
8
0
100
AcDbPolyline
90
8
70
1
43
0.0
10
62.250000000000085
20
-247.57499999999999
10
62.25000000000005
20
-259.57499999999999
42
-0.41421356237312623
10
61.25
20
-260.57499999999999
10
49.250000000000007
20
-260.57499999999999
42
-0.4142135623730846
10
48.250000000000028
20
-259.57499999999999
10
48.249999999999993
20
-247.57499999999999
42
-0.41421356237310542
10
49.250000000000007
20
-246.57500000000002
10
61.25
20
-246.57499999999999
42
-0.41421356237311585
0
ARC
5
109
100
AcDbEntity
8
0
100
AcDbCircle
10
-10.75116345600485
20
-284.15149856016416
30
0
40
0.499999999999865
210
0
220
0
230
1
100
AcDbArc
50
-90.000000000032571
51
0
0
LWPOLYLINE
5
110
100
AcDbEntity
8
0
100
AcDbPolyline
90
27
70
1
43
0.0
10
241.13799999999998
20
-244.88000000000002
42
0.41421356237309503
10
242.13799999999998
20
-243.88000000000002
10
242.13799999999998
20
-241.52500000000001
10
242.22500000000002
20
-241.52500000000001
42
0.41421356237310542
10
243.22500000000005
20
-240.52500000000003
10
243.22500000000005
20
-228.52499999999998
42
0.41421356237309503
10
242.22500000000002
20
-227.52499999999998
10
242.13799999999998
20
-227.52499999999998
10
242.13799999999995
20
-226.94
42
0.41421356237309503
10
241.13799999999998
20
-225.94
10
236.13799999999998
20
-225.94
42
0.41421356237312623
10
235.13800000000001
20
-226.94000000000003
10
235.13800000000001
20
-227.52499999999998
10
218.26200000000011
20
-227.52499999999998
10
218.26200000000006
20
-226.94000000000003
42
0.41421356237310542
10
217.26200000000006
20
-225.94000000000005
10
212.26200000000028
20
-225.94
42
0.41421356237310542
10
211.26200000000026
20
-226.94
10
211.26200000000026
20
-227.52499999999998
10
211.17500000000004
20
-227.52499999999998
42
0.4142135623730534
10
210.17500000000001
20
-228.52499999999998
10
210.1750000000001
20
-240.52500000000003
42
0.41421356237304302
10
211.17500000000001
20
-241.52500000000003
10
211.26200000000006
20
-241.52500000000003
10
211.262
20
-243.88
42
0.41421356237310542
10
212.26200000000006
20
-244.88
10
226.70000000000005
20
-244.88000000000002
0
LINE
5
111
100
AcDbEntity
8
0
100
AcDbLine
10
-34.251174456004925
20
-283.6514995601641
30
0
11
-34.251174456004925
21
-283.6514975601641
31
0
0
LWPOLYLINE
5
112
100
AcDbEntity
8
0
100
AcDbPolyline
90
8
70
1
43
0.0
10
19.675000000000011
20
-228.52499999999998
42
-0.41421356237309503
10
20.67499999999999
20
-227.52500000000001
10
32.674999999999983
20
-227.52500000000001
42
-0.41421356237309503
10
33.674999999999997
20
-228.52500000000003
10
33.674999999999997
20
-240.52500000000003
42
-0.4142135623730846
10
32.674999999999983
20
-241.52500000000001
10
20.67499999999999
20
-241.52500000000001
42
-0.41421356237309503
10
19.675000000000011
20
-240.52500000000003
0
LWPOLYLINE
5
113
100
AcDbEntity
8
0
100
AcDbPolyline
90
8
70
1
43
0.0
10
66.012500000000003
20
-279.625
42
0.4142135623730846
10
67.012500000000017
20
-278.625
10
67.012500000000045
20
-266.625
42
0.41421356237312623
10
66.012500000000003
20
-265.625
10
54.01250000000001
20
-265.625
42
0.41421356237306384
10
53.012500000000031
20
-266.625
10
53.012500000000031
20
-278.625
42
0.41421356237306384
10
54.01250000000001
20
-279.625
0
LWPOLYLINE
5
114
100
AcDbEntity
8
0
100
AcDbPolyline
90
8
70
1
43
0.0
10
204.125
20
-227.52499999999998
42
-0.41421356237309503
10
205.12500000000003
20
-228.52499999999998
10
205.12500000000003
20
-240.52500000000003
42
-0.41421356237310542
10
204.125
20
-241.52500000000001
10
192.12500000000009
20
-241.52500000000001
42
-0.4142135623730846
10
191.12500000000011
20
-240.52499999999998
10
191.12499999999997
20
-228.52499999999998
42
-0.41421356237315748
10
192.12500000000009
20
-227.52500000000001
0
LWPOLYLINE
5
115
100
AcDbEntity
8
0
100
AcDbPolyline
90
8
70
1
43
0.0
10
42.199999999999989
20
-246.57500000000002
10
30.199999999999996
20
-246.57500000000002
42
0.4142135623730846
10
29.200000000000017
20
-247.57500000000005
10
29.200000000000017
20
-259.57499999999999
42
0.41421356237309503
10
30.200000000000031
20
-260.57499999999999
10
42.200000000000024
20
-260.57499999999999
42
0.41421356237306384
10
43.200000000000003
20
-259.57499999999999
10
43.200000000000003
20
-247.57499999999999
42
0.4142135623730846
0
LWPOLYLINE
5
116
100
AcDbEntity
8
0
100
AcDbPolyline
90
8
70
1
43
0.0
10
23.150000000000013
20
-246.57500000000002
42
-0.41421356237309503
10
24.149999999999991
20
-247.57499999999999
10
24.150000000000027
20
-259.57499999999999
42
-0.41421356237309503
10
23.150000000000013
20
-260.57499999999999
10
11.15000000000002
20
-260.57499999999999
42
-0.41421356237309503
10
10.150000000000006
20
-259.57499999999999
10
10.150000000000041
20
-247.57499999999999
42
-0.41421356237309503
10
11.15000000000002
20
-246.57500000000002
0
LWPOLYLINE
5
117
100
AcDbEntity
8
0
100
AcDbPolyline
90
8
70
1
43
0.0
10
-8.8999999999999702
20
-247.57499999999999
42
-0.41421356237309503
10
-7.8999999999999915
20
-246.57500000000002
10
4.1000000000000014
20
-246.57500000000002
42
-0.41421356237309503
10
5.1000000000000156
20
-247.57500000000005
10
5.1000000000000156
20
-259.57499999999999
42
-0.41421356237309503
10
4.1000000000000014
20
-260.57499999999999
10
-7.8999999999999915
20
-260.57499999999999
42
-0.41421356237309503
10
-8.9000000000000057
20
-259.57499999999999
0
LWPOLYLINE
5
118
100
AcDbEntity
8
0
100
AcDbPolyline
90
8
70
1
43
0.0
10
8.8625000000000043
20
-265.62500000000006
42
-0.41421356237309503
10
9.8624999999999829
20
-266.625
10
9.8624999999999829
20
-278.625
42
-0.41421356237309503
10
8.8625000000000043
20
-279.625
10
-3.1374999999999886
20
-279.625
42
-0.41421356237309503
10
-4.1375000000000028
20
-278.625
10
-4.1375000000000028
20
-266.625
42
-0.41421356237309503
10
-3.1374999999999886
20
-265.625
0
LWPOLYLINE
5
119
100
AcDbEntity
8
0
100
AcDbPolyline
90
8
70
1
43
0.0
10
-18.712499999999999
20
-247.57499999999999
10
-18.712499999999999
20
-259.57499999999999
42
-0.41421356237309503
10
-19.712500000000013
20
-260.57499999999999
10
-31.712500000000006
20
-260.57499999999999
42
-0.41421356237309503
10
-32.71250000000002
20
-259.57499999999999
10
-32.712499999999984
20
-247.57499999999999
42
-0.41421356237309503
10
-31.712500000000006
20
-246.57500000000002
10
-19.712500000000013
20
-246.57500000000002
42
-0.41421356237310542
0
LWPOLYLINE
5
120
100
AcDbEntity
8
0
100
AcDbPolyline
90
8
70
1
43
0.0
10
194.60000000000002
20
-246.57499999999999
42
-0.41421356237309503
10
195.60000000000002
20
-247.57499999999999
10
195.60000000000005
20
-259.57499999999999
42
-0.41421356237309503
10
194.60000000000002
20
-260.57500000000005
10
182.60000000000002
20
-260.57500000000005
42
-0.41421356237304302
10
181.59999999999999
20
-259.57499999999999
10
181.59999999999999
20
-247.57499999999999
42
-0.4142135623730534
10
182.60000000000002
20
-246.57499999999999
0
LWPOLYLINE
5
121
100
AcDbEntity
8
0
100
AcDbPolyline
90
9
70
1
43
0.0
10
-10.28449252099767
20
-317.72766982259344
10
4.0947223803930379
20
-317.72764829074669
42
0.4142159720571143
10
5.0966099773708695
20
-316.72574992784257
10
5.0966099773510267
20
-304.72779062477866
42
0.4142113140208466
10
4.0947223803930388
20
-303.7259081953996
10
-10.288023743870944
20
-303.72589742947633
42
0.41421282473151583
10
-11.289911340848775
20
-304.72778502649226
10
-11.286384854981808
20
-316.72929062473128
10
-11.286380117975501
20
-316.72577145968938
42
0.41421597205711941
0
LWPOLYLINE
5
122
100
AcDbEntity
8
0
100
AcDbPolyline
90
8
70
1
43
0.0
10
-17.331249999999976
20
-279.625
42
0.4142135623730846
10
-16.331249999999997
20
-278.625
10
-16.331249999999997
20
-266.625
42
0.4142135623730846
10
-17.331249999999976
20
-265.625
10
-34.093749999999972
20
-265.625
42
0.41421356237309503
10
-35.093749999999986
20
-266.625
10
-35.09374999999995
20
-278.625
42
0.41421356237309503
10
-34.093749999999972
20
-279.625
0
LWPOLYLINE
5
123
100
AcDbEntity
8
0
100
AcDbPolyline
90
8
70
1
43
0.0
10
146.97500000000002
20
-227.52499999999998
42
-0.4142135623730846
10
147.97499999999999
20
-228.52499999999998
10
147.97499999999997
20
-240.52500000000003
42
-0.41421356237307422
10
146.97500000000002
20
-241.52500000000003
10
134.97499999999999
20
-241.52500000000003
42
-0.4142135623730534
10
133.97500000000005
20
-240.52500000000003
10
133.97499999999997
20
-228.52499999999998
42
-0.4142135623730534
10
134.97499999999999
20
-227.52499999999998
0
LINE
5
124
100
AcDbEntity
8
0
100
AcDbLine
10
-10.751163456005134
20
-298.65750823414737
30
0
11
-11.575761589764898
21
-298.65750823414737
31
0
0
LWPOLYLINE
5
125
100
AcDbEntity
8
0
100
AcDbPolyline
90
8
70
1
43
0.0
10
82.587499999999991
20
-298.67499999999995
42
-0.41421356237309503
10
81.587500000000006
20
-297.67499999999995
10
81.587500000000006
20
-285.67500000000001
42
-0.41421356237309503
10
82.587499999999991
20
-284.67500000000001
10
94.587500000000063
20
-284.67500000000001
42
-0.41421356237307422
10
95.587500000000034
20
-285.67500000000001
10
95.587500000000034
20
-297.67499999999995
42
-0.41421356237311585
10
94.58750000000002
20
-298.67500000000001
0
LWPOLYLINE
5
126
100
AcDbEntity
8
0
100
AcDbPolyline
90
8
70
1
43
0.0
10
1.6250000000000142
20
-241.52500000000003
42
-0.41421356237309503
10
0.625
20
-240.52500000000003
10
0.62500000000003553
20
-228.52499999999998
42
-0.41421356237309503
10
1.6250000000000142
20
-227.52500000000001
10
13.625000000000007
20
-227.52500000000001
42
-0.41421356237309503
10
14.624999999999986
20
-228.52499999999998
10
14.624999999999986
20
-240.52500000000003
42
-0.41421356237309503
10
13.625000000000007
20
-241.52500000000001
0
LWPOLYLINE
5
127
100
AcDbEntity
8
0
100
AcDbPolyline
90
8
70
1
43
0.0
10
161.26249999999999
20
-265.625
42
-0.41421356237309503
10
162.26249999999999
20
-266.625
10
162.26249999999999
20
-278.625
42
-0.41421356237310542
10
161.26249999999999
20
-279.625
10
149.26250000000007
20
-279.62500000000006
42
-0.41421356237306384
10
148.26249999999999
20
-278.625
10
148.26249999999999
20
-266.625
42
-0.41421356237306384
10
149.26249999999999
20
-265.62500000000006
0
ARC
5
128
100
AcDbEntity
8
0
100
AcDbCircle
10
-13.528008740627207
20
-304.72778628808499
30
0
40
1.0018888586090924
210
0
220
0
230
-1
100
AcDbArc
50
0
51
89.658229505451004
0
LWPOLYLINE
5
129
100
AcDbEntity
8
0
100
AcDbPolyline
90
8
70
1
43
0.0
10
199.36250000000001
20
-265.625
42
-0.41421356237309503
10
200.36250000000001
20
-266.625
10
200.36250000000001
20
-278.625
42
-0.41421356237310542
10
199.36250000000001
20
-279.625
10
187.36250000000001
20
-279.625
42
-0.41421356237307422
10
186.36250000000007
20
-278.625
10
186.36250000000004
20
-266.625
42
-0.41421356237310542
10
187.36250000000001
20
-265.625
0
LWPOLYLINE
5
130
100
AcDbEntity
8
0
100
AcDbPolyline
90
49
70
1
43
0.0
10
203.02734712904922
20
-297.653283644444
10
203.02734712904922
20
-285.65328364444412
42
-0.3697571554151769
10
203.873825543995
20
-284.66513835000478
10
203.873825543995
20
-283.6514975601641
10
203.87382554399494
20
-283.6514995601641
42
-0.41421356237309503
10
204.87382554399494
20
-282.6514995601641
10
204.87381854399496
20
-282.6514995601641
10
207.86092528067027
20
-282.6514995601641
42
0.41421356237307422
10
208.86092528067027
20
-281.6514995601641
10
208.86092528067036
20
-265.04050233537777
42
-0.41421356237309503
10
209.8609252806703
20
-264.04050233537782
10
214.86092528067019
20
-264.04050233537771
42
-0.41421356237306384
10
215.86092528067024
20
-265.04050233537777
10
215.86092528067024
20
-279.12550233537763
42
0.41421356237303258
10
216.36092528067022
20
-279.62550233537763
10
216.79892528066912
20
-279.62550233537769
42
0.41421356237311585
10
217.29892528066912
20
-279.12550233537775
10
217.29892528067018
20
-266.6255023353778
42
-0.41421356237303258
10
218.29892528067012
20
-265.62550233537775
10
230.29892528067012
20
-265.6255023353778
42
-0.41421356237310542
10
231.29892528067015
20
-266.6255023353778
10
231.29892528067015
20
-279.12550233537775
42
0.41421356237311585
10
231.79892528067015
20
-279.62550233537769
10
232.23692528067011
20
-279.62550233537769
42
0.41421356237311585
10
232.73692528067014
20
-279.12550233537775
10
232.73692528067014
20
-265.04050233537777
42
-0.41421356237309503
10
233.73692528067008
20
-264.04050233537782
10
238.73692528067005
20
-264.04050233537782
42
-0.4142135623730846
10
239.73692528067008
20
-265.04050233537777
10
239.73692528067005
20
-281.98050233537765
42
-0.4142135623730534
10
238.73692528067005
20
-282.98050233537765
10
235.79382154399502
20
-282.98050233537765
42
0.41421356237304546
10
235.37382154399501
20
-283.40050233537767
10
235.37382154399498
20
-284.23328364444399
42
0.41421356237309503
10
235.79382154399502
20
-284.653283644444
10
242.22109712904904
20
-284.65328364444406
42
-0.4142135623730534
10
243.22109712904904
20
-285.65328364444406
10
243.2210971290491
20
-297.65328364444395
42
-0.41421356237307422
10
242.2210971290491
20
-298.653283644444
10
236.37382154399504
20
-298.653283644444
42
0.41421356237309503
10
235.37382154399501
20
-299.65328364444406
10
235.37382154399501
20
-301.15149756016399
10
235.37382154394584
20
-301.15149056016401
42
-0.41421561262711609
10
234.37382154397034
20
-302.15149756016399
10
204.87381854399496
20
-302.15149756016399
10
204.87382554399494
20
-302.15149756016393
42
-0.41421356237309503
10
203.873825543995
20
-301.15149756016399
10
203.873825543995
20
-301.15149956016398
10
203.873825543995
20
-298.64142893888334
42
-0.36975715541513982
0
LWPOLYLINE
5
131
100
AcDbEntity
8
0
100
AcDbPolyline
90
8
70
1
43
0.0
10
19.387500000000024
20
-297.67499999999995
42
-0.41421356237309503
10
18.38750000000001
20
-298.67500000000001
10
6.3875000000000171
20
-298.67500000000001
42
-0.41421356237307422
10
5.3875000000000028
20
-297.67499999999995
10
5.3875000000000384
20
-285.67500000000001
42
-0.41421356237309503
10
6.3875000000000171
20
-284.67500000000001
10
18.38750000000001
20
-284.67500000000001
42
-0.41421356237309503
10
19.387499999999989
20
-285.67500000000001
0
LINE
5
132
100
AcDbEntity
8
0
100
AcDbLine
10
-27.751162456005009
20
-282.6514995601641
30
0
11
-27.751181456005018
21
-282.6514995601641
31
0
0
LWPOLYLINE
5
133
100
AcDbEntity
8
0
100
AcDbPolyline
90
8
70
1
43
0.0
10
153.02500000000009
20
-228.52499999999998
10
153.02500000000009
20
-240.52500000000003
42
0.4142135623730846
10
154.02500000000003
20
-241.52500000000001
10
166.02500000000006
20
-241.52500000000003
42
0.41421356237307422
10
167.02500000000001
20
-240.52500000000003
10
167.02500000000009
20
-228.52499999999998
42
0.41421356237314705
10
166.02500000000006
20
-227.52500000000001
10
154.02500000000003
20
-227.52499999999998
42
0.41421356237307422
0
LWPOLYLINE
5
134
100
AcDbEntity
8
0
100
AcDbPolyline
90
8
70
1
43
0.0
10
-23.474999999999966
20
-240.52500000000003
42
-0.4142135623730846
10
-24.47499999999998
20
-241.52500000000001
10
-36.475000000000009
20
-241.52500000000003
42
-0.41421356237309503
10
-37.475000000000023
20
-240.52500000000003
10
-37.474999999999987
20
-228.52499999999998
42
-0.41421356237309503
10
-36.475000000000009
20
-227.52500000000001
10
-24.47499999999998
20
-227.52500000000001
42
-0.41421356237309503
10
-23.474999999999966
20
-228.52500000000003
0
LWPOLYLINE
5
135
100
AcDbEntity
8
0
100
AcDbPolyline
90
8
70
1
43
0.0
10
46.962499999999991
20
-279.625
10
34.962499999999999
20
-279.625
42
-0.41421356237309503
10
33.96250000000002
20
-278.625
10
33.96250000000002
20
-266.625
42
-0.4142135623730846
10
34.962499999999999
20
-265.625
10
46.962500000000063
20
-265.62500000000006
42
-0.41421356237306384
10
47.962500000000006
20
-266.625
10
47.962500000000006
20
-278.625
42
-0.4142135623730846
0
LWPOLYLINE
5
136
100
AcDbEntity
8
0
100
AcDbPolyline
90
8
70
1
43
0.0
10
137.45000000000005
20
-246.57499999999999
42
-0.41421356237309503
10
138.45000000000005
20
-247.57499999999999
10
138.4500000000001
20
-259.57499999999999
42
-0.41421356237309503
10
137.45000000000005
20
-260.57500000000005
10
125.44999999999987
20
-260.57500000000005
42
-0.4142135623730846
10
124.45
20
-259.57499999999999
10
124.44999999999996
20
-247.57499999999999
42
-0.4142135623730534
10
125.44999999999999
20
-246.57499999999999
0
LINE
5
137
100
AcDbEntity
8
0
100
AcDbLine
10
-26.751162456005066
20
-284.15149856016404
30
0
11
-26.751162456005066
21
-284.1514995601641
31
0
0
LWPOLYLINE
5
138
100
AcDbEntity
8
0
100
AcDbPolyline
90
8
70
1
43
0.0
10
190.83750000000009
20
-297.67500000000001
10
190.83750000000009
20
-285.67500000000001
42
0.41421356237313667
10
189.83750000000001
20
-284.67499999999995
10
177.83750000000001
20
-284.67500000000001
42
0.41421356237307422
10
176.83750000000003
20
-285.67500000000001
10
176.83750000000003
20
-297.67499999999995
42
0.41421356237309503
10
177.83750000000003
20
-298.67500000000007
10
189.83750000000001
20
-298.67500000000001
42
0.4142135623730846
0
LWPOLYLINE
5
139
100
AcDbEntity
8
0
100
AcDbPolyline
90
8
70
1
43
0.0
10
237.46250000000001
20
-246.57499999999999
42
-0.41421356237307422
10
238.46249999999995
20
-247.57499999999999
10
238.46250000000001
20
-259.57499999999999
42
-0.4142135623730222
10
237.46250000000001
20
-260.57500000000005
10
225.46250000000001
20
-260.57499999999999
42
-0.41421356237309503
10
224.46249999999998
20
-259.57499999999999
10
224.46249999999998
20
-247.57499999999999
42
-0.41421356237310542
10
225.46250000000001
20
-246.57500000000002
0
LWPOLYLINE
5
140
100
AcDbEntity
8
0
100
AcDbPolyline
90
8
70
1
43
0.0
10
167.31250000000003
20
-266.625
10
167.31250000000003
20
-278.625
42
0.41421356237313667
10
168.31250000000011
20
-279.625
10
180.3125
20
-279.625
42
0.41421356237309503
10
181.3125
20
-278.625
10
181.3125
20
-266.625
42
0.41421356237310542
10
180.31249999999997
20
-265.625
10
168.3125
20
-265.625
42
0.4142135623730846
0
CIRCLE
5
141
100
AcDbEntity
8
0
100
AcDbCircle
10
246.22500000000002
20
-220.52500000000006
30
0
40
3.0000000000000071
210
0
220
0
230
1
0
LWPOLYLINE
5
142
100
AcDbEntity
8
0
100
AcDbPolyline
90
8
70
1
43
0.0
10
-17.424999999999997
20
-241.52500000000001
42
-0.41421356237309503
10
-18.424999999999976
20
-240.52500000000003
10
-18.424999999999976
20
-228.52499999999998
42
-0.41421356237309503
10
-17.424999999999997
20
-227.52500000000001
10
-5.4250000000000043
20
-227.52499999999998
42
-0.41421356237309503
10
-4.4249999999999901
20
-228.52499999999998
10
-4.4249999999999901
20
-240.52500000000003
42
-0.4142135623730846
10
-5.4250000000000043
20
-241.52500000000001
0
LINE
5
143
100
AcDbEntity
8
0
100
AcDbLine
10
-10.25116345600502
20
-284.1514995601641
30
0
11
-10.25116345600502
21
-283.6514975601641
31
0
0
ARC
5
144
100
AcDbEntity
8
0
100
AcDbCircle
10
-33.251174456004982
20
-283.6514995601641
30
0
40
1.0000000000000142
210
0
220
-0
230
1
100
AcDbArc
50
90
51
180
0
LWPOLYLINE
5
145
100
AcDbEntity
8
0
100
AcDbPolyline
90
8
70
1
43
0.0
10
157.50000000000003
20
-247.57499999999999
10
157.50000000000006
20
-259.57499999999999
42
-0.4142135623730846
10
156.50000000000009
20
-260.57499999999999
10
144.5
20
-260.57499999999999
42
-0.41421356237310542
10
143.50000000000009
20
-259.57499999999999
10
143.5
20
-247.57499999999999
42
-0.41421356237310542
10
144.5
20
-246.57499999999999
10
156.50000000000009
20
-246.57499999999999
42
-0.41421356237307422
0
LWPOLYLINE
5
146
100
AcDbEntity
8
0
100
AcDbPolyline
90
8
70
1
43
0.0
10
200.65000000000001
20
-247.57499999999999
10
200.65000000000001
20
-259.57499999999999
42
0.41421356237311585
10
201.65000000000006
20
-260.57499999999999
10
213.65000000000009
20
-260.57499999999999
42
0.41421356237307422
10
214.65000000000003
20
-259.57499999999999
10
214.65000000000003
20
-247.57499999999999
42
0.41421356237306384
10
213.65000000000009
20
-246.57499999999996
10
201.65000000000006
20
-246.57500000000002
42
0.41421356237311585
0
LINE
5
147
100
AcDbEntity
8
0
100
AcDbLine
10
-26.751162456005066
20
-283.65149756016399
30
0
11
-26.751162456005066
21
-284.1514995601641
31
0
0
ARC
5
148
100
AcDbEntity
8
0
100
AcDbCircle
10
-3.7511784560050687
20
-283.6514975601641
30
0
40
1.0000000000000853
210
0
220
0
230
1
100
AcDbArc
50
0
51
90
0
LWPOLYLINE
5
149
100
AcDbEntity
8
0
100
AcDbPolyline
90
8
70
1
43
0.0
10
57.775000000000034
20
-228.52499999999998
42
-0.41421356237311585
10
58.775000000000013
20
-227.52500000000001
10
70.775000000000006
20
-227.52500000000001
42
-0.4142135623730846
10
71.77500000000002
20
-228.52499999999998
10
71.77500000000002
20
-240.52500000000003
42
-0.41421356237312623
10
70.775000000000006
20
-241.52500000000001
10
58.775000000000013
20
-241.52500000000001
42
-0.41421356237311585
10
57.775000000000034
20
-240.52500000000003
0
LWPOLYLINE
5
150
100
AcDbEntity
8
0
100
AcDbPolyline
90
8
70
1
43
0.0
10
143.21250000000003
20
-278.625
10
143.21249999999998
20
-266.625
42
0.4142135623730534
10
142.21250000000001
20
-265.62499999999994
10
130.21250000000009
20
-265.625
42
0.41421356237307422
10
129.21250000000001
20
-266.625
10
129.21250000000003
20
-278.625
42
0.41421356237309503
10
130.21250000000009
20
-279.625
10
142.21250000000003
20
-279.625
42
0.4142135623730534
0
LWPOLYLINE
5
151
100
AcDbEntity
8
0
100
AcDbPolyline
90
14
70
1
43
0.0
10
-43.474999999999966
20
-328.72500000000002
10
249.22499999999999
20
-328.72500000000002
42
0.41421356237309503
10
251.22500000000002
20
-326.72500000000008
10
251.22500000000002
20
-218.52500000000003
42
0.41421356237309503
10
249.22499999999999
20
-216.52500000000003
10
-12.835996673168637
20
-216.52500000000003
42
0.37338743347353526
10
-13.826020330885314
20
-217.38409876806247
10
-14.305059014924417
20
-220.75
10
-27.594940985075525
20
-220.75
10
-28.073979669114664
20
-217.38409876806247
42
0.37338743347353526
10
-29.06400332683134
20
-216.52500000000003
10
-43.474999999999966
20
-216.52500000000003
42
0.41421356237309503
10
-45.474999999999994
20
-218.52500000000003
10
-45.474999999999994
20
-326.72500000000008
42
0.41421356237310542
0
LWPOLYLINE
5
152
100
AcDbEntity
8
0
100
AcDbPolyline
90
8
70
1
43
0.0
10
127.92500000000001
20
-241.52500000000003
10
115.92500000000001
20
-241.52499999999998
42
-0.41421356237309503
10
114.92500000000007
20
-240.52500000000003
10
114.92500000000004
20
-228.52499999999998
42
-0.41421356237313667
10
115.92500000000001
20
-227.52500000000001
10
127.92500000000001
20
-227.52499999999995
42
-0.41421356237304302
10
128.92500000000001
20
-228.52499999999998
10
128.92500000000001
20
-240.52500000000003
42
-0.4142135623730534
0
LWPOLYLINE
5
153
100
AcDbEntity
8
0
100
AcDbPolyline
90
8
70
1
43
0.0
10
108.87500000000003
20
-227.52499999999998
10
96.875
20
-227.52499999999998
42
0.41421356237309503
10
95.874999999999986
20
-228.52499999999998
10
95.875000000000028
20
-240.52500000000003
42
0.41421356237311585
10
96.875
20
-241.52500000000001
10
108.87500000000003
20
-241.52500000000001
42
0.41421356237306384
10
109.87500000000004
20
-240.52500000000003
10
109.875
20
-228.52499999999998
42
0.4142135623730846
0
LWPOLYLINE
5
154
100
AcDbEntity
8
0
100
AcDbPolyline
90
8
70
1
43
0.0
10
105.39999999999999
20
-259.57499999999999
42
0.41421356237309503
10
106.40000000000001
20
-260.57499999999999
10
118.40000000000003
20
-260.57499999999999
42
0.4142135623730846
10
119.40000000000001
20
-259.57499999999999
10
119.40000000000001
20
-247.57499999999999
42
0.4142135623730846
10
118.40000000000003
20
-246.57499999999999
10
106.40000000000001
20
-246.57500000000002
42
0.41421356237310542
10
105.40000000000006
20
-247.57499999999999
0
LWPOLYLINE
5
155
100
AcDbEntity
8
0
100
AcDbPolyline
90
8
70
1
43
0.0
10
104.11250000000003
20
-265.625
42
-0.41421356237309503
10
105.11250000000004
20
-266.625
10
105.11250000000004
20
-278.625
42
-0.41421356237309503
10
104.11250000000003
20
-279.625
10
92.112499999999997
20
-279.625
42
-0.41421356237309503
10
91.112500000000011
20
-278.625
10
91.112499999999983
20
-266.625
42
-0.41421356237309503
10
92.112499999999997
20
-265.625
0
LWPOLYLINE
5
156
100
AcDbEntity
8
0
100
AcDbPolyline
90
8
70
1
43
0.0
10
132.68749999999997
20
-298.67500000000001
42
0.41421356237310542
10
133.68750000000009
20
-297.67499999999995
10
133.68750000000003
20
-285.67500000000001
42
0.41421356237306384
10
132.6875
20
-284.67500000000001
10
120.68750000000001
20
-284.67500000000001
42
0.4142135623730534
10
119.68750000000003
20
-285.67500000000001
10
119.68750000000007
20
-297.67499999999995
42
0.41421356237307422
10
120.68750000000001
20
-298.67500000000001
0
LWPOLYLINE
5
157
100
AcDbEntity
8
0
100
AcDbPolyline
90
8
70
1
43
0.0
10
152.73750000000007
20
-297.67499999999995
42
-0.41421356237298057
10
151.73750000000001
20
-298.67500000000001
10
139.73750000000001
20
-298.67500000000001
42
-0.41421356237312623
10
138.73750000000001
20
-297.67499999999995
10
138.73750000000001
20
-285.67500000000001
42
-0.41421356237310542
10
139.73750000000001
20
-284.67500000000001
10
151.73750000000001
20
-284.67499999999995
42
-0.4142135623730222
10
152.73750000000007
20
-285.67500000000001
0
LWPOLYLINE
5
158
100
AcDbEntity
8
0
100
AcDbPolyline
90
8
70
1
43
0.0
10
157.78750000000002
20
-297.67499999999995
42
0.41421356237312623
10
158.78749999999999
20
-298.67500000000007
10
170.78749999999999
20
-298.67500000000001
42
0.41421356237309503
10
171.78750000000002
20
-297.67499999999995
10
171.78750000000002
20
-285.67500000000001
42
0.41421356237310542
10
170.78749999999999
20
-284.67500000000001
10
158.78749999999999
20
-284.67500000000001
42
0.41421356237307422
10
157.78750000000002
20
-285.67500000000001
0
CIRCLE
5
159
100
AcDbEntity
8
0
100
AcDbCircle
10
150.65833333333336
20
-324.72500000000002
30
0
40
3.0000000000000071
210
0
220
0
230
1
0
LWPOLYLINE
5
160
100
AcDbEntity
8
0
100
AcDbPolyline
90
8
70
1
43
0.0
10
186.07500000000002
20
-228.52499999999998
10
186.07500000000002
20
-240.52500000000003
42
-0.41421356237310542
10
185.07499999999999
20
-241.52500000000001
10
173.07499999999999
20
-241.52500000000003
42
-0.41421356237304302
10
172.07500000000007
20
-240.52500000000003
10
172.07499999999999
20
-228.52499999999998
42
-0.4142135623730534
10
173.07500000000002
20
-227.52499999999998
10
185.07499999999999
20
-227.52499999999998
42
-0.41421356237309503
0
LINE
5
161
100
AcDbEntity
8
0
100
AcDbLine
10
-33.251181456004993
20
-282.6514995601641
30
0
11
-27.751181456005018
21
-282.6514995601641
31
0
0
LWPOLYLINE
5
162
100
AcDbEntity
8
0
100
AcDbPolyline
90
8
70
1
43
0.0
10
216.02299582599645
20
-303.72590823886475
10
201.64620288445894
20
-303.72589813332019
42
0.4142135490100175
10
200.64486884728225
20
-304.72723071712392
10
200.64485986557884
20
-316.72633722990014
42
0.41421422009154651
10
201.6461946979675
20
-317.72767131276117
10
216.02301458454076
20
-317.7276497898024
42
0.41421356237309503
10
217.02434641881689
20
-316.72631495741467
10
217.02432845548452
20
-304.72724007314173
42
0.4142129180179378
0
LWPOLYLINE
5
163
100
AcDbEntity
8
0
100
AcDbPolyline
90
8
70
1
43
0.0
10
56.487499999999997
20
-284.67500000000001
10
44.48750000000004
20
-284.67500000000001
42
0.4142135623730846
10
43.487500000000026
20
-285.67500000000001
10
43.48749999999999
20
-297.67499999999995
42
0.4142135623730846
10
44.48750000000004
20
-298.67500000000001
10
56.487499999999997
20
-298.67499999999995
42
0.4142135623730846
10
57.487500000000011
20
-297.67499999999995
10
57.487500000000011
20
-285.67500000000001
42
0.4142135623730846
0
CIRCLE
5
164
100
AcDbEntity
8
0
100
AcDbCircle
10
246.22500000000002
20
-324.72500000000002
30
0
40
2.9999999999999916
210
0
220
0
230
1
0
SPLINE
5
165
100
AcDbEntity
8
0
100
AcDbSpline
70
4
71
3
72
8
73
4
74
0
42
0.000000001
43
0.0000000001
44
0.0000000001
40
0
40
0
40
0
40
0
40
1
40
1
40
1
40
1
41
1
41
1
41
1
41
1
10
-24.576860900778787
20
-284.6544246071694
30
0
10
-25.130780364403339
20
-284.65442412265668
30
0
10
-25.575320763716935
20
-285.10249473531388
30
0
10
-25.575320763716935
20
-285.65287962498059
30
0
0
ARC
5
166
100
AcDbEntity
8
0
100
AcDbCircle
10
-26.251162456005236
20
-284.15149856016416
30
0
40
0.49999999999982947
210
0
220
0
230
1
100
AcDbArc
50
180
51
270.00000000003257
0
LINE
5
167
100
AcDbEntity
8
0
100
AcDbLine
10
-26.751162456005066
20
-283.65149756016399
30
0
11
-26.751162456005066
21
-283.6514995601641
31
0
0
LWPOLYLINE
5
168
100
AcDbEntity
8
0
100
AcDbPolyline
90
8
70
1
43
0.0
10
239.83142070051105
20
-317.72764829074652
42
0.41525530915287634
10
240.82978784053896
20
-316.72574992784536
10
240.83682875443867
20
-304.72779579237749
42
0.41525213718269838
10
239.83846161441076
20
-303.72590819539971
10
225.45572625607022
20
-303.72589742947622
42
0.41318583137058251
10
224.45735911604228
20
-304.72778502644496
10
224.4573591159193
20
-316.72578715356229
42
0.4131843918108532
10
225.45572625607019
20
-317.72766982259338
0
LWPOLYLINE
5
169
100
AcDbEntity
8
0
100
AcDbPolyline
90
9
70
1
43
0.0
10
195.59660997732325
20
-304.72779579237744
10
195.59663150917001
20
-316.72574992785167
42
-0.41421596468440519
10
194.59474393744688
20
-317.72764829063487
10
177.83072625608202
20
-317.72766982259338
42
-0.41217741964251942
10
176.83236504990322
20
-316.72923538873965
10
176.83236514497116
20
-316.72929062473122
10
176.83235911605411
20
-304.72778502645411
42
-0.41318583137324982
10
177.8307262560821
20
-303.72589742947622
10
194.5947116144221
20
-303.72590819539971
42
-0.41421597205627297
0
ARC
5
170
100
AcDbEntity
8
0
100
AcDbCircle
10
-27.751162456005009
20
-283.6514995601641
30
0
40
0.99999999999994316
210
0
220
-0
230
1
100
AcDbArc
50
0
51
90
0
LINE
5
171
100
AcDbEntity
8
0
100
AcDbLine
10
28.909115145008141
20
-316.72929062473122
30
0
11
28.909109977364903
21
-316.72574992785434
31
0
0
ARC
5
172
100
AcDbEntity
8
0
100
AcDbCircle
10
-27.907221118800503
20
-316.72575943213798
30
0
40
1.0018888586094798
210
0
220
0
230
-1
100
AcDbArc
50
179.99945647130824
51
269.99991420363727
0
LINE
5
173
100
AcDbEntity
8
0
100
AcDbLine
10
28.909115145008141
20
-316.72929062473122
30
0
11
28.909109977345096
21
-304.72780844915985
31
0
0
ARC
5
174
100
AcDbEntity
8
0
100
AcDbCircle
10
-27.907221118742914
20
-304.72781487838944
30
0
40
1.0018888542322686
210
0
220
0
230
-1
100
AcDbArc
50
90.000072149841628
51
179.99963232676313
0
LWPOLYLINE
5
175
100
AcDbEntity
8
0
100
AcDbPolyline
90
8
70
1
43
0.0
10
37.437499999999986
20
-284.67499999999995
42
-0.41421356237309503
10
38.4375
20
-285.67500000000001
10
38.4375
20
-297.67499999999995
42
-0.41421356237309503
10
37.437499999999986
20
-298.67500000000001
10
25.437499999999993
20
-298.67500000000001
42
-0.4142135623730846
10
24.437500000000014
20
-297.67499999999995
10
24.437500000000014
20
-285.67500000000001
42
-0.41421356237309503
10
25.437499999999993
20
-284.67500000000001
0
CIRCLE
5
176
100
AcDbEntity
8
0
100
AcDbCircle
10
55.091666666666725
20
-220.52500000000006
30
0
40
3.0000000000000071
210
0
220
0
230
1
0
CIRCLE
5
177
100
AcDbEntity
8
0
100
AcDbCircle
10
55.091666666666654
20
-324.72500000000002
30
0
40
2.9999999999999947
210
0
220
0
230
1
0
LWPOLYLINE
5
178
100
AcDbEntity
8
0
100
AcDbPolyline
90
8
70
1
43
0.0
10
113.63749999999999
20
-298.67500000000001
10
101.6375
20
-298.67500000000001
42
-0.41421356237307422
10
100.63750000000002
20
-297.67499999999995
10
100.63750000000006
20
-285.67500000000001
42
-0.41421356237306384
10
101.6375
20
-284.67500000000001
10
113.63749999999999
20
-284.67500000000001
42
-0.41421356237307422
10
114.63749999999997
20
-285.67500000000001
10
114.63750000000002
20
-297.67499999999995
42
-0.41421356237309503
0
LINE
5
179
100
AcDbEntity
8
0
100
AcDbLine
10
13.528007478996372
20
-317.72766982259344
30
0
11
27.907222619057951
21
-317.72764829074299
31
0
0
LWPOLYLINE
5
180
100
AcDbEntity
8
0
100
AcDbPolyline
90
8
70
1
43
0.0
10
111.16250000000005
20
-279.625
42
-0.4142135623730534
10
110.16250000000014
20
-278.625
10
110.16250000000014
20
-266.625
42
-0.41421356237307422
10
111.16250000000008
20
-265.625
10
123.16249999999999
20
-265.62499999999994
42
-0.41421356237303258
10
124.16250000000005
20
-266.625
10
124.16250000000005
20
-278.625
42
-0.4142135623730534
10
123.16250000000014
20
-279.625
0
LWPOLYLINE
5
181
100
AcDbEntity
8
0
100
AcDbPolyline
90
8
70
1
43
0.0
10
100.34999999999999
20
-247.57499999999999
10
100.34999999999999
20
-259.57499999999999
42
-0.41421356237306384
10
99.350000000000023
20
-260.57499999999999
10
87.349999999999994
20
-260.57499999999999
42
-0.41421356237309503
10
86.34999999999998
20
-259.57499999999999
10
86.34999999999998
20
-247.57499999999999
42
-0.41421356237309503
10
87.349999999999994
20
-246.57499999999999
10
99.350000000000023
20
-246.57500000000002
42
-0.41421356237307422
0
LINE
5
182
100
AcDbEntity
8
0
100
AcDbLine
10
13.522032488571774
20
-303.72591525376117
30
0
11
27.907222380373749
21
-303.72592602415796
31
0
0
LINE
5
183
100
AcDbEntity
8
0
100
AcDbLine
10
-26.25117945600508
20
-284.65149856016404
30
0
11
-26.25117945600508
21
-298.65750823414737
31
0
0
LINE
5
184
100
AcDbEntity
8
0
100
AcDbLine
10
-34.251174456004925
20
-301.15149956016398
30
0
11
-34.251174456004925
21
-283.6514975601641
31
0
0
LINE
5
185
100
AcDbEntity
8
0
100
AcDbLine
10
-2.7511784560049835
20
-283.65149756016405
30
0
11
-2.7511784560049835
21
-301.15149756016399
31
0
0
LWPOLYLINE
5
186
100
AcDbEntity
8
0
100
AcDbPolyline
90
8
70
1
43
0.0
10
68.299999999999983
20
-246.57500000000002
10
80.300000000000011
20
-246.57499999999999
42
-0.41421356237310542
10
81.299999999999983
20
-247.57499999999999
10
81.300000000000026
20
-259.57499999999999
42
-0.41421356237309503
10
80.300000000000011
20
-260.57499999999999
10
68.299999999999983
20
-260.57499999999999
42
-0.4142135623730846
10
67.300000000000011
20
-259.57499999999999
10
67.300000000000011
20
-247.57499999999999
42
-0.41421356237307422
0
LINE
5
187
100
AcDbEntity
8
0
100
AcDbLine
10
-33.251174456004982
20
-302.15149756016399
30
0
11
-33.251181456004993
21
-302.15149756016399
31
0
0
ARC
5
188
100
AcDbEntity
8
0
100
AcDbCircle
10
-3.7511784560296535
20
-301.15149756016399
30
0
40
1.0000000000000142
210
0
220
0
230
1
100
AcDbArc
50
-90
51
0.00040107010969264067
0
LINE
5
189
100
AcDbEntity
8
0
100
AcDbLine
10
12.526119882018559
20
-316.72577145970115
30
0
11
12.526119882018115
21
-304.72778628808499
31
0
0
LWPOLYLINE
5
190
100
AcDbEntity
8
0
100
AcDbPolyline
90
9
70
1
43
0.0
10
-35.098885500931267
20
-316.72577145968938
42
0.41421597205711941
10
-34.096997903953437
20
-317.72766982259344
10
-19.717772236639313
20
-317.72764829074669
42
0.41421597205710908
10
-18.715884639661482
20
-316.72574992784257
10
-18.715884639681349
20
-304.72779062474399
42
0.41421131401070205
10
-19.717772236639313
20
-303.7259081953996
10
-34.096997903953437
20
-303.72589742947633
42
0.41421282473151583
10
-35.098885500931267
20
-304.72778502649226
10
-35.098884854975871
20
-316.72929062473122
0
LINE
5
191
100
AcDbEntity
8
0
100
AcDbLine
10
-3.7511784560050687
20
-282.65149756016405
30
0
11
-3.751171456005058
21
-282.6514975601641
31
0
0
LWPOLYLINE
5
192
100
AcDbEntity
8
0
100
AcDbPolyline
90
8
70
1
43
0.0
10
76.825000000000045
20
-240.52500000000006
10
76.825000000000045
20
-228.52499999999998
42
-0.41421356237310542
10
77.824999999999989
20
-227.52500000000001
10
89.825000000000017
20
-227.52500000000001
42
-0.4142135623730534
10
90.825000000000031
20
-228.52500000000003
10
90.825000000000031
20
-240.52500000000003
42
-0.41421356237306384
10
89.825000000000017
20
-241.52500000000001
10
77.824999999999989
20
-241.52500000000001
42
-0.41421356237309503
0
ARC
5
193
100
AcDbEntity
8
0
100
AcDbCircle
10
-13.528008740582941
20
-316.72578096398479
30
0
40
1.0018888586094603
210
-0
220
0
230
-1
100
AcDbArc
50
-89.999927852690206
51
0.00054352869176481052
0
SPLINE
5
194
100
AcDbEntity
8
0
100
AcDbSpline
70
4
71
3
72
8
73
4
74
0
42
0.000000001
43
0.0000000001
44
0.0000000001
40
0
40
0
40
0
40
0
40
1
40
1
40
1
40
1
41
1
41
1
41
1
41
1
10
-11.575761589764898
20
-285.65640892313354
30
0
10
-11.575762451120827
20
-285.10249473531388
30
0
10
-12.02382902617224
20
-284.65795164426316
30
0
10
-12.5742139158389
20
-284.65795164426316
30
0
0
CIRCLE
5
195
100
AcDbEntity
8
0
100
AcDbCircle
10
-40.474999999999994
20
-220.52500000000006
30
0
40
3.0000000000000004
210
0
220
0
230
1
0
LINE
5
196
100
AcDbEntity
8
0
100
AcDbLine
10
-11.575761589764898
20
-285.65640892313354
30
0
11
-11.575761589764898
21
-298.65750823414737
31
0
0
LINE
5
197
100
AcDbEntity
8
0
100
AcDbLine
10
-9.2511714560051708
20
-282.6514975601641
30
0
11
-3.751171456005058
21
-282.6514975601641
31
0
0
LINE
5
198
100
AcDbEntity
8
0
100
AcDbLine
10
-10.751163456005134
20
-284.65149856016404
30
0
11
-10.751163456005134
21
-298.65750823414737
31
0
0
LINE
5
199
100
AcDbEntity
8
0
100
AcDbLine
10
-25.575317102954362
20
-298.65750823414737
30
0
11
-26.25117945600508
21
-298.65750823414737
31
0
0
LINE
5
200
100
AcDbEntity
8
0
100
AcDbLine
10
-3.7511784560296535
20
-302.15149756016399
30
0
11
-33.251181456004993
21
-302.15149756016399
31
0
0
LINE
5
201
100
AcDbEntity
8
0
100
AcDbLine
10
-24.576860900778787
20
-284.6544246071694
30
0
11
-12.5742139158389
21
-284.65795164426316
31
0
0
LINE
5
202
100
AcDbEntity
8
0
100
AcDbLine
10
-25.575317102954362
20
-298.65750823414737
30
0
11
-25.575320763716935
21
-285.65287962498059
31
0
0
ARC
5
203
100
AcDbEntity
8
0
100
AcDbCircle
10
-9.2511634560050773
20
-283.6514975601641
30
0
40
1.0000000000000142
210
0
220
-0
230
1
100
AcDbArc
50
90
51
180
0
ARC
5
204
100
AcDbEntity
8
0
100
AcDbCircle
10
-33.251174456004982
20
-301.15149756016399
30
0
40
0.99999999999994316
210
0
220
0
230
1
100
AcDbArc
50
180
51
270
0
LINE
5
205
100
AcDbEntity
8
0
100
AcDbLine
10
-34.251174456004925
20
-301.15149956016398
30
0
11
-34.251174456004925
21
-301.15149756016399
31
0
0
LINE
5
206
100
AcDbEntity
8
0
100
AcDbLine
10
-10.25116345600502
20
-283.6514975601641
30
0
11
-10.25116345600502
21
-283.6514975601641
31
0
0
LINE
5
207
100
AcDbEntity
8
0
100
AcDbLine
10
-10.25116345600502
20
-284.15149856016404
30
0
11
-10.25116345600502
21
-284.1514995601641
31
0
0
LINE
5
208
100
AcDbEntity
8
0
100
AcDbLine
10
-2.7511784560049835
20
-283.65149756016405
30
0
11
-2.7511784560049835
21
-283.6514975601641
31
0
0
LINE
5
209
100
AcDbEntity
8
0
100
AcDbLine
10
-9.2511634560050773
20
-282.65149756016405
30
0
11
-9.2511714560051708
21
-282.6514975601641
31
0
0
LINE
5
210
100
AcDbEntity
8
0
100
AcDbLine
10
-2.751178456054153
20
-301.15149056016401
30
0
11
-2.7511784560049835
21
-301.15149756016399
31
0
0
CIRCLE
5
211
100
AcDbEntity
8
0
100
AcDbCircle
10
-40.474999999999994
20
-324.72500000000002
30
0
40
3.0000000000000031
210
0
220
0
230
1
0
ENDSEC
0
SECTION
2
OBJECTS
0
DICTIONARY
5
C
100
AcDbDictionary
3
ACAD_GROUP
350
D
3
ACAD_MLINESTYLE
350
17
0
DICTIONARY
5
D
100
AcDbDictionary
0
DICTIONARY
5
1A
330
C
100
AcDbDictionary
0
DICTIONARY
5
17
100
AcDbDictionary
0
ENDSEC
0
EOF
