0
SECTION
2
HEADER
9
$INSUNITS
70
4
9
$ACADVER
1
AC1014
9
$HANDSEED
5
FFFF
0
ENDSEC
0
SECTION
2
TABLES
0
TABLE
2
VPORT
5
8
100
AcDbSymbolTable
0
ENDTAB
0
TABLE
2
LTYPE
5
5
100
AcDbSymbolTable
0
LTYPE
5
14
100
AcDbSymbolTableRecord
100
AcDbLinetypeTableRecord
2
BYBLOCK
70
0
0
LTYPE
5
15
100
AcDbSymbolTableRecord
100
AcDbLinetypeTableRecord
2
BYLAYER
70
0
0
ENDTAB
0
TABLE
2
LAYER
5
2
100
AcDbSymbolTable
70
2
0
LAYER
5
50
100
AcDbSymbolTableRecord
100
AcDbLayerTableRecord
2
0
70
0
6
CONTINUOUS
0
ENDTAB
0
TABLE
2
STYLE
5
3
100
AcDbSymbolTable
70
1
0
STYLE
5
11
100
AcDbSymbolTableRecord
100
AcDbTextStyleTableRecord
2
STANDARD
70
0
0
ENDTAB
0
TABLE
2
VIEW
5
6
100
AcDbSymbolTable
70
0
0
ENDTAB
0
TABLE
2
UCS
5
7
100
AcDbSymbolTable
70
0
0
ENDTAB
0
TABLE
2
APPID
5
9
100
AcDbSymbolTable
70
2
0
APPID
5
12
100
AcDbSymbolTableRecord
100
AcDbRegAppTableRecord
2
ACAD
70
0
0
ENDTAB
0
TABLE
2
DIMSTYLE
5
A
100
AcDbSymbolTable
70
1
0
ENDTAB
0
TABLE
2
BLOCK_RECORD
5
1
100
AcDbSymbolTable
70
1
0
BLOCK_RECORD
5
1F
100
AcDbSymbolTableRecord
100
AcDbBlockTableRecord
2
*MODEL_SPACE
0
BLOCK_RECORD
5
1B
100
AcDbSymbolTableRecord
100
AcDbBlockTableRecord
2
*PAPER_SPACE
0
ENDTAB
0
ENDSEC
0
SECTION
2
BLOCKS
0
BLOCK
5
20
100
AcDbEntity
100
AcDbBlockBegin
2
*MODEL_SPACE
0
ENDBLK
5
21
100
AcDbEntity
100
AcDbBlockEnd
0
BLOCK
5
1C
100
AcDbEntity
100
AcDbBlockBegin
2
*PAPER_SPACE
0
ENDBLK
5
1D
100
AcDbEntity
100
AcDbBlockEnd
0
ENDSEC
0
SECTION
2
ENTITIES
0
LWPOLYLINE
5
100
100
AcDbEntity
8
0
100
AcDbPolyline
90
8
70
1
43
0.0
10
94.968750000000014
20
-92.724999999999994
42
-0.41421356237309503
10
93.968750000000014
20
-91.724999999999994
10
93.968750000000014
20
-79.72499999999998
42
-0.41421356237309503
10
94.968750000000043
20
-78.724999999999994
10
118.87500000000001
20
-78.725000000000023
42
-0.41421356237311585
10
119.875
20
-79.72499999999998
10
119.875
20
-91.724999999999994
42
-0.4142135623730846
10
118.87500000000001
20
-92.724999999999994
0
LWPOLYLINE
5
101
100
AcDbEntity
8
0
100
AcDbPolyline
90
8
70
1
43
0.0
10
129.68750000000003
20
-60.674999999999997
10
129.68750000000003
20
-72.674999999999983
42
0.41421356237308204
10
130.6875
20
-73.674999999999983
10
142.6875
20
-73.674999999999983
42
0.414213562373069
10
143.68750000000003
20
-72.674999999999997
10
143.68750000000003
20
-60.674999999999997
42
0.41421356237306639
10
142.6875
20
-59.675000000000011
10
130.6875
20
-59.675000000000011
42
0.41421356237307683
0
LWPOLYLINE
5
102
100
AcDbEntity
8
0
100
AcDbPolyline
90
14
70
1
43
0.0
10
167.52500000000001
20
-76.724999999999966
42
0.4142135623730846
10
166.52500000000003
20
-77.72499999999998
10
166.52500000000003
20
-78.724999999999994
10
166.40625
20
-78.725000000000023
42
0.414213562373069
10
165.40625000000009
20
-79.72499999999998
10
165.40625000000003
20
-91.724999999999994
42
0.41421356237314183
10
166.40625
20
-92.724999999999994
10
178.40625000000003
20
-92.724999999999994
42
0.414213562373069
10
179.40625000000011
20
-91.724999999999994
10
179.40625000000011
20
-79.72499999999998
42
0.41421356237309764
10
178.40625000000003
20
-78.725000000000023
10
173.52500000000006
20
-78.725000000000023
10
173.52500000000006
20
-77.72499999999998
42
0.41421356237306384
10
172.52500000000001
20
-76.72499999999998
0
LWPOLYLINE
5
103
100
AcDbEntity
8
0
100
AcDbPolyline
90
8
70
1
43
0.0
10
227.03125
20
-91.724999999999994
42
-0.41421356237309503
10
226.03125000000003
20
-92.725000000000023
10
211.65000000000006
20
-92.725000000000009
42
-0.41421356237313667
10
210.65000000000003
20
-91.724999999999994
10
210.65000000000003
20
-79.72499999999998
42
-0.41421356237311846
10
211.65000000000006
20
-78.725000000000023
10
226.03125000000003
20
-78.72499999999998
42
-0.41421356237308204
10
227.03125
20
-79.72499999999998
0
LWPOLYLINE
5
104
100
AcDbEntity
8
0
100
AcDbPolyline
90
8
70
1
43
0.0
10
58.22499999999998
20
-91.724999999999994
10
48.468750000000007
20
-91.724999999999994
42
-0.41421356237309503
10
47.468750000000021
20
-90.725000000000023
10
47.468750000000021
20
-77.72499999999998
42
-0.41421356237309764
10
48.468750000000007
20
-76.72499999999998
10
58.22499999999998
20
-76.72499999999998
42
-0.41421356237308721
10
59.22499999999998
20
-77.72499999999998
10
59.22499999999998
20
-90.724999999999994
42
-0.41421356237309503
0
LWPOLYLINE
5
105
100
AcDbEntity
8
0
100
AcDbPolyline
90
8
70
1
43
0.0
10
186.83750000000003
20
-79.72499999999998
42
-0.41421356237310025
10
187.83750000000003
20
-78.725000000000023
10
202.21875
20
-78.724999999999994
42
-0.41421356237304302
10
203.21875000000006
20
-79.724999999999994
10
203.21875000000006
20
-91.724999999999994
42
-0.41421356237309503
10
202.21875
20
-92.725000000000023
10
187.83750000000001
20
-92.725000000000051
42
-0.41421356237307422
10
186.83750000000003
20
-91.724999999999994
0
LWPOLYLINE
5
106
100
AcDbEntity
8
0
100
AcDbPolyline
90
8
70
1
43
0.0
10
234.46249999999998
20
-79.72499999999998
42
-0.41421356237311846
10
235.46250000000001
20
-78.725000000000023
10
249.84375
20
-78.72499999999998
42
-0.41421356237309243
10
250.84375
20
-79.72499999999998
10
250.84375
20
-91.724999999999994
42
-0.41421356237313667
10
249.84375
20
-92.725000000000023
10
235.46250000000001
20
-92.725000000000023
42
-0.41421356237312101
10
234.46249999999998
20
-91.724999999999994
0
LWPOLYLINE
5
107
100
AcDbEntity
8
0
100
AcDbPolyline
90
8
70
1
43
0.0
10
154.46875000000003
20
-90.724999999999994
42
-0.414213562373069
10
153.46875000000009
20
-91.724999999999994
10
148.46875
20
-91.725000000000051
42
-0.41421356237304302
10
147.46875
20
-90.724999999999994
10
147.46875000000003
20
-77.72499999999998
42
-0.41421356237308721
10
148.46875
20
-76.724999999999966
10
153.46875
20
-76.72499999999998
42
-0.41421356237305601
10
154.46875000000003
20
-77.725000000000009
0
LWPOLYLINE
5
108
100
AcDbEntity
8
0
100
AcDbPolyline
90
20
70
1
43
0.0
10
220.17500000000001
20
-15.525000000000002
10
220.17500000000001
20
-3.5250000000000004
42
-0.41421356237307899
10
221.1750000000001
20
-2.5249999999999861
10
252.22500000000002
20
-2.5249999999999897
42
-0.41421356237309404
10
253.22500000000005
20
-3.5250000000000004
10
253.22500000000005
20
-15.525000000000002
42
-0.41421356237310675
10
252.22500000000002
20
-16.524999999999981
10
252.13799999999998
20
-16.524999999999981
10
252.13799999999998
20
-17.524999999999999
42
-0.4142135623730937
10
251.13799999999998
20
-18.524999999999999
10
246.13799999999998
20
-18.524999999999995
42
-0.41421356237306184
10
245.13800000000001
20
-17.524999999999999
10
245.13800000000001
20
-16.525000000000013
10
228.262
20
-16.525000000000002
10
228.262
20
-17.524999999999999
42
-0.41421356237310153
10
227.26200000000003
20
-18.524999999999999
10
222.26200000000009
20
-18.524999999999991
42
-0.41421356237308593
10
221.262
20
-17.524999999999999
10
221.262
20
-16.525000000000031
10
221.17500000000004
20
-16.525000000000031
42
-0.41421356237305729
0
LWPOLYLINE
5
109
100
AcDbEntity
8
0
100
AcDbPolyline
90
8
70
1
43
0.0
10
200.83750000000006
20
-60.674999999999997
42
0.41421356237311846
10
199.83750000000001
20
-59.675000000000004
10
187.83750000000001
20
-59.674999999999983
42
0.4142135623730846
10
186.83750000000003
20
-60.674999999999997
10
186.83750000000003
20
-72.674999999999983
42
0.4142135623730846
10
187.83750000000003
20
-73.67500000000004
10
199.83750000000001
20
-73.674999999999983
42
0.41421356237309243
10
200.83750000000009
20
-72.674999999999983
0
LWPOLYLINE
5
110
100
AcDbEntity
8
0
100
AcDbPolyline
90
8
70
1
43
0.0
10
0.86925000000000807
20
-60.675000000000026
10
5.8692500000000036
20
-60.675000000000026
42
-0.41421356237310153
10
6.869250000000009
20
-61.675000000000004
10
6.8692500000000134
20
-74.674999999999983
42
-0.41421356237309115
10
5.8692500000000036
20
-75.674999999999983
10
0.86925000000000807
20
-75.675000000000026
42
-0.41421356237310025
10
-0.13074999999999726
20
-74.674999999999983
10
-0.13074999999998393
20
-61.675000000000004
42
-0.41421356237309892
0
LWPOLYLINE
5
111
100
AcDbEntity
8
0
100
AcDbPolyline
90
8
70
1
43
0.0
10
73.537499999999994
20
-59.675000000000004
10
85.537500000000009
20
-59.675000000000004
42
-0.41421356237308721
10
86.537500000000009
20
-60.675000000000011
10
86.537500000000009
20
-72.674999999999983
42
-0.41421356237309764
10
85.537500000000009
20
-73.674999999999983
10
73.537499999999994
20
-73.674999999999983
42
-0.41421356237309503
10
72.537499999999994
20
-72.674999999999983
10
72.537499999999994
20
-60.674999999999997
42
-0.41421356237309503
0
LWPOLYLINE
5
112
100
AcDbEntity
8
0
100
AcDbPolyline
90
8
70
1
43
0.0
10
105.58750000000003
20
-60.674999999999997
10
105.58750000000002
20
-72.674999999999983
42
-0.41421356237310281
10
104.58750000000003
20
-73.674999999999983
10
92.587500000000006
20
-73.674999999999983
42
-0.41421356237309503
10
91.587500000000006
20
-72.674999999999983
10
91.587500000000006
20
-60.674999999999997
42
-0.41421356237309503
10
92.587500000000006
20
-59.675000000000004
10
104.58750000000003
20
-59.675000000000004
42
-0.41421356237309503
0
LWPOLYLINE
5
113
100
AcDbEntity
8
0
100
AcDbPolyline
90
8
70
1
43
0.0
10
54.487500000000026
20
-73.674999999999983
10
66.487499999999997
20
-73.674999999999983
42
0.41421356237308204
10
67.487500000000011
20
-72.674999999999983
10
67.487499999999997
20
-60.674999999999997
42
0.41421356237308982
10
66.487499999999997
20
-59.675000000000011
10
54.487500000000004
20
-59.675000000000011
42
0.41421356237306639
10
53.487500000000026
20
-60.674999999999997
10
53.487500000000026
20
-72.674999999999983
42
0.41421356237307683
0
LWPOLYLINE
5
114
100
AcDbEntity
8
0
100
AcDbPolyline
90
8
70
1
43
0.0
10
123.63749999999999
20
-73.674999999999983
10
111.6375
20
-73.674999999999983
42
-0.41421356237308204
10
110.63750000000002
20
-72.674999999999983
10
110.63750000000002
20
-60.674999999999997
42
-0.414213562373069
10
111.6375
20
-59.675000000000004
10
123.63749999999999
20
-59.674999999999997
42
-0.41421356237308721
10
124.63749999999999
20
-60.674999999999997
10
124.63749999999999
20
-72.674999999999983
42
-0.41421356237309764
0
LWPOLYLINE
5
115
100
AcDbEntity
8
0
100
AcDbPolyline
90
8
70
1
43
0.0
10
34.437500000000014
20
-72.674999999999983
10
34.437500000000007
20
-60.674999999999997
42
-0.41421356237309503
10
35.4375
20
-59.675000000000004
10
47.4375
20
-59.675000000000004
42
-0.41421356237309503
10
48.4375
20
-60.674999999999997
10
48.4375
20
-72.674999999999983
42
-0.41421356237309764
10
47.4375
20
-73.674999999999983
10
35.4375
20
-73.674999999999983
42
-0.4142135623730846
0
LWPOLYLINE
5
116
100
AcDbEntity
8
0
100
AcDbPolyline
90
8
70
1
43
0.0
10
235.55624999999998
20
-73.674999999999983
10
223.55625000000003
20
-73.675000000000054
42
-0.41421356237307944
10
222.55625000000006
20
-72.674999999999983
10
222.55625000000009
20
-60.674999999999997
42
-0.41421356237310281
10
223.55625000000003
20
-59.675000000000018
10
235.55624999999998
20
-59.674999999999983
42
-0.41421356237309503
10
236.55625000000001
20
-60.674999999999997
10
236.55625000000001
20
-72.674999999999983
42
-0.41421356237309243
0
LWPOLYLINE
5
117
100
AcDbEntity
8
0
100
AcDbPolyline
90
8
70
1
43
0.0
10
148.73750000000001
20
-60.674999999999997
42
-0.41421356237311063
10
149.73750000000001
20
-59.675000000000011
10
161.73750000000001
20
-59.674999999999983
42
-0.41421356237304302
10
162.73750000000007
20
-60.674999999999997
10
162.73750000000007
20
-72.674999999999983
42
-0.41421356237304302
10
161.73750000000001
20
-73.674999999999983
10
149.73750000000001
20
-73.675000000000054
42
-0.41421356237313145
10
148.73750000000001
20
-72.674999999999983
0
LWPOLYLINE
5
118
100
AcDbEntity
8
0
100
AcDbPolyline
90
8
70
1
43
0.0
10
-24.09375
20
-78.725000000000023
10
-9.7124999999999986
20
-78.725000000000023
42
-0.41421356237309631
10
-8.7124999999999986
20
-79.72499999999998
10
-8.7124999999999986
20
-91.724999999999994
42
-0.41421356237309631
10
-9.7124999999999986
20
-92.724999999999994
10
-24.09375
20
-92.724999999999994
42
-0.41421356237309764
10
-25.093750000000004
20
-91.724999999999994
10
-25.093749999999993
20
-79.72499999999998
42
-0.41421356237309503
0
LWPOLYLINE
5
119
100
AcDbEntity
8
0
100
AcDbPolyline
90
8
70
1
43
0.0
10
168.78749999999999
20
-59.674999999999983
42
0.4142135623730846
10
167.78750000000002
20
-60.674999999999997
10
167.78750000000002
20
-72.674999999999983
42
0.41421356237309503
10
168.78749999999999
20
-73.67500000000004
10
180.78749999999999
20
-73.674999999999983
42
0.41421356237309243
10
181.78750000000002
20
-72.674999999999983
10
181.78750000000002
20
-60.674999999999997
42
0.41421356237311063
10
180.78749999999999
20
-59.675000000000011
0
LWPOLYLINE
5
120
100
AcDbEntity
8
0
100
AcDbPolyline
90
8
70
1
43
0.0
10
163.02500000000009
20
-15.525000000000002
42
0.41421356237309115
10
164.02500000000003
20
-16.524999999999995
10
176.02500000000006
20
-16.52500000000002
42
0.41421356237307488
10
177.02500000000001
20
-15.525000000000002
10
177.02500000000009
20
-3.5250000000000004
42
0.41421356237313195
10
176.02500000000006
20
-2.5250000000000079
10
164.02500000000003
20
-2.5249999999999968
42
0.41421356237307116
10
163.02500000000009
20
-3.5250000000000004
0
LWPOLYLINE
5
121
100
AcDbEntity
8
0
100
AcDbPolyline
90
8
70
1
43
0.0
10
220.11825000000002
20
-60.675000000000026
10
215.11825000000002
20
-60.675000000000026
42
0.41421356237310542
10
214.11824999999999
20
-61.675000000000004
10
214.11824999999999
20
-74.674999999999983
42
0.41421356237313145
10
215.11825000000002
20
-75.674999999999983
10
220.11825000000002
20
-75.674999999999983
42
0.41421356237304041
10
221.11825000000007
20
-74.674999999999983
10
221.1182500000001
20
-61.675000000000004
42
0.41421356237310281
0
LWPOLYLINE
5
122
100
AcDbEntity
8
0
100
AcDbPolyline
90
8
70
1
43
0.0
10
11.625000000000005
20
-2.5250000000000035
10
23.625000000000007
20
-2.5250000000000021
42
-0.41421356237309553
10
24.625000000000004
20
-3.5250000000000004
10
24.625000000000004
20
-15.525000000000002
42
-0.4142135623730957
10
23.625000000000007
20
-16.525000000000002
10
11.625000000000005
20
-16.524999999999995
42
-0.4142135623730937
10
10.625000000000009
20
-15.525000000000002
10
10.625000000000009
20
-3.5250000000000004
42
-0.41421356237309553
0
LWPOLYLINE
5
123
100
AcDbEntity
8
0
100
AcDbPolyline
90
8
70
1
43
0.0
10
38.912500000000009
20
-91.724999999999994
10
38.912499999999994
20
-79.72499999999998
42
0.41421356237309503
10
37.912499999999994
20
-78.724999999999994
10
23.531250000000004
20
-78.725000000000023
42
0.41421356237310025
10
22.531250000000007
20
-79.72499999999998
10
22.531250000000007
20
-91.724999999999994
42
0.41421356237307944
10
23.531250000000004
20
-92.724999999999966
10
37.912499999999994
20
-92.724999999999966
42
0.41421356237309243
0
LWPOLYLINE
5
124
100
AcDbEntity
8
0
100
AcDbPolyline
90
8
70
1
43
0.0
10
15.100000000000007
20
-91.724999999999994
42
-0.41421356237308204
10
14.100000000000001
20
-92.724999999999966
10
-0.2812499999999884
20
-92.724999999999994
42
-0.41421356237309115
10
-1.2812500000000027
20
-91.724999999999994
10
-1.2812499999999938
20
-79.72499999999998
42
-0.41421356237309243
10
-0.28124999999998845
20
-78.724999999999994
10
14.100000000000001
20
-78.725000000000023
42
-0.41421356237309764
10
15.100000000000007
20
-79.72499999999998
0
LWPOLYLINE
5
125
100
AcDbEntity
8
0
100
AcDbPolyline
90
8
70
1
43
0.0
10
29.675000000000004
20
-15.525000000000002
10
29.675000000000004
20
-3.5250000000000004
42
-0.41421356237309553
10
30.674999999999997
20
-2.5250000000000035
10
42.674999999999983
20
-2.5249999999999999
42
-0.41421356237309881
10
43.67499999999999
20
-3.5250000000000004
10
43.67499999999999
20
-15.525000000000002
42
-0.41421356237309115
10
42.674999999999983
20
-16.524999999999995
10
30.674999999999997
20
-16.524999999999999
42
-0.41421356237309503
0
LWPOLYLINE
5
126
100
AcDbEntity
8
0
100
AcDbPolyline
90
8
70
1
43
0.0
10
119.875
20
-15.525000000000002
10
119.875
20
-3.5250000000000004
42
0.41421356237307538
10
118.87500000000001
20
-2.5249999999999959
10
106.875
20
-2.5250000000000039
42
0.41421356237309503
10
105.875
20
-3.5250000000000004
10
105.875
20
-15.525000000000002
42
0.41421356237309698
10
106.875
20
-16.525000000000002
10
118.87500000000001
20
-16.524999999999991
42
0.41421356237309309
0
LWPOLYLINE
5
127
100
AcDbEntity
8
0
100
AcDbPolyline
90
8
70
1
43
0.0
10
49.72499999999998
20
-16.525000000000002
42
-0.4142135623730957
10
48.725000000000023
20
-15.525000000000002
10
48.725000000000023
20
-3.5250000000000004
42
-0.41421356237309587
10
49.72499999999998
20
-2.5250000000000017
10
61.724999999999994
20
-2.5250000000000048
42
-0.4142135623730947
10
62.724999999999994
20
-3.5250000000000004
10
62.724999999999994
20
-15.525000000000002
42
-0.41421356237309698
10
61.724999999999994
20
-16.525000000000002
0
LWPOLYLINE
5
128
100
AcDbEntity
8
0
100
AcDbPolyline
90
8
70
1
43
0.0
10
99.825000000000003
20
-16.524999999999991
10
87.825000000000003
20
-16.524999999999995
42
-0.41421356237309437
10
86.825000000000045
20
-15.525000000000002
10
86.825000000000031
20
-3.5250000000000004
42
-0.41421356237310936
10
87.825000000000003
20
-2.5250000000000123
10
99.825000000000003
20
-2.5250000000000092
42
-0.41421356237307261
10
100.82499999999999
20
-3.5250000000000004
10
100.82499999999999
20
-15.525000000000002
42
-0.41421356237308071
0
LWPOLYLINE
5
129
100
AcDbEntity
8
0
100
AcDbPolyline
90
8
70
1
43
0.0
10
-8.4249999999999918
20
-3.5250000000000004
42
-0.41421356237309209
10
-7.4250000000000016
20
-2.5250000000000035
10
4.5750000000000046
20
-2.5250000000000004
42
-0.41421356237309342
10
5.5750000000000099
20
-3.5250000000000004
10
5.5750000000000082
20
-15.525000000000002
42
-0.41421356237309176
10
4.5750000000000046
20
-16.525000000000002
10
-7.4250000000000016
20
-16.525000000000002
42
-0.4142135623730937
10
-8.4249999999999901
20
-15.525000000000002
0
LWPOLYLINE
5
130
100
AcDbEntity
8
0
100
AcDbPolyline
90
8
70
1
43
0.0
10
80.775000000000006
20
-16.524999999999995
10
68.775000000000006
20
-16.525000000000002
42
-0.4142135623731113
10
67.775000000000034
20
-15.525000000000002
10
67.775000000000048
20
-3.5250000000000004
42
-0.41421356237311113
10
68.775000000000006
20
-2.5250000000000083
10
80.775000000000006
20
-2.5249999999999995
42
-0.41421356237308071
10
81.77500000000002
20
-3.5250000000000004
10
81.775000000000034
20
-15.525000000000002
42
-0.41421356237311652
0
LWPOLYLINE
5
131
100
AcDbEntity
8
0
100
AcDbPolyline
90
8
70
1
43
0.0
10
-13.474999999999998
20
-15.525000000000002
42
-0.4142135623730937
10
-14.474999999999998
20
-16.525000000000002
10
-26.475000000000001
20
-16.525000000000002
42
-0.41421356237309503
10
-27.475000000000001
20
-15.525000000000002
10
-27.475000000000001
20
-3.5250000000000004
42
-0.41421356237309492
10
-26.475000000000001
20
-2.5249999999999999
10
-14.474999999999998
20
-2.5249999999999999
42
-0.41421356237309492
10
-13.474999999999998
20
-3.5250000000000004
0
LWPOLYLINE
5
132
100
AcDbEntity
8
0
100
AcDbPolyline
90
8
70
1
43
0.0
10
125.92500000000001
20
-2.524999999999999
10
137.92500000000001
20
-2.5249999999999719
42
-0.41421356237305762
10
138.92500000000001
20
-3.5250000000000004
10
138.92500000000001
20
-15.525000000000002
42
-0.41421356237305862
10
137.92500000000001
20
-16.52500000000002
10
125.92500000000001
20
-16.524999999999995
42
-0.4142135623730937
10
124.92500000000001
20
-15.525000000000002
10
124.925
20
-3.5250000000000004
42
-0.41421356237312512
0
LWPOLYLINE
5
133
100
AcDbEntity
8
0
100
AcDbPolyline
90
8
70
1
43
0.0
10
183.07500000000002
20
-16.525000000000031
42
-0.41421356237305729
10
182.07499999999999
20
-15.525000000000002
10
182.07499999999999
20
-3.5250000000000004
42
-0.41421356237305818
10
183.07500000000002
20
-2.5249999999999861
10
195.07499999999999
20
-2.5249999999999897
42
-0.41421356237309404
10
196.07500000000002
20
-3.5250000000000004
10
196.07500000000002
20
-15.525000000000002
42
-0.41421356237310675
10
195.07499999999999
20
-16.524999999999981
0
LWPOLYLINE
5
134
100
AcDbEntity
8
0
100
AcDbPolyline
90
8
70
1
43
0.0
10
143.97499999999999
20
-3.5250000000000004
42
-0.41421356237305818
10
144.97499999999999
20
-2.5249999999999861
10
156.97500000000002
20
-2.5249999999999808
42
-0.41421356237308626
10
157.97499999999999
20
-3.5250000000000004
10
157.97499999999999
20
-15.525000000000002
42
-0.41421356237308982
10
156.97500000000002
20
-16.525000000000027
10
144.97499999999999
20
-16.525000000000031
42
-0.41421356237305729
10
143.97499999999997
20
-15.525000000000002
0
LWPOLYLINE
5
135
100
AcDbEntity
8
0
100
AcDbPolyline
90
8
70
1
43
0.0
10
109.35000000000001
20
-21.575000000000017
42
-0.41421356237310153
10
110.34999999999999
20
-22.574999999999999
10
110.34999999999999
20
-34.575000000000003
42
-0.41421356237308071
10
109.35000000000002
20
-35.57500000000001
10
97.349999999999994
20
-35.575000000000017
42
-0.41421356237308982
10
96.349999999999994
20
-34.575000000000003
10
96.349999999999994
20
-22.574999999999999
42
-0.41421356237309892
10
97.349999999999994
20
-21.574999999999992
0
LWPOLYLINE
5
136
100
AcDbEntity
8
0
100
AcDbPolyline
90
8
70
1
43
0.0
10
33.150000000000013
20
-21.575000000000006
42
-0.4142135623730937
10
34.150000000000006
20
-22.574999999999999
10
34.150000000000013
20
-34.575000000000003
42
-0.41421356237309115
10
33.150000000000013
20
-35.57500000000001
10
21.15000000000002
20
-35.57500000000001
42
-0.41421356237309503
10
20.150000000000013
20
-34.575000000000003
10
20.150000000000013
20
-22.574999999999999
42
-0.41421356237308982
10
21.15000000000002
20
-21.57500000000001
0
LWPOLYLINE
5
137
100
AcDbEntity
8
0
100
AcDbPolyline
90
8
70
1
43
0.0
10
-21.712500000000002
20
-21.57500000000001
10
-9.7124999999999986
20
-21.57500000000001
42
-0.41421356237309115
10
-8.7124999999999986
20
-22.574999999999999
10
-8.7124999999999986
20
-34.575000000000003
42
-0.41421356237308854
10
-9.7124999999999986
20
-35.57500000000001
10
-21.712500000000002
20
-35.57500000000001
42
-0.4142135623730937
10
-22.712500000000002
20
-34.575000000000003
10
-22.712500000000002
20
-22.574999999999999
42
-0.4142135623730937
0
LWPOLYLINE
5
138
100
AcDbEntity
8
0
100
AcDbPolyline
90
8
70
1
43
0.0
10
214.125
20
-16.524999999999981
10
202.12500000000009
20
-16.525000000000013
42
-0.4142135623730937
10
201.125
20
-15.525000000000002
10
201.12499999999997
20
-3.5250000000000004
42
-0.41421356237314139
10
202.12500000000009
20
-2.5250000000000106
10
214.125
20
-2.5249999999999897
42
-0.41421356237309404
10
215.12500000000003
20
-3.5250000000000004
10
215.12500000000003
20
-15.525000000000002
42
-0.41421356237310675
0
LWPOLYLINE
5
139
100
AcDbEntity
8
0
100
AcDbPolyline
90
8
70
1
43
0.0
10
52.200000000000024
20
-35.57500000000001
42
0.41421356237308204
10
53.200000000000003
20
-34.575000000000003
10
53.20000000000001
20
-22.574999999999999
42
0.41421356237307944
10
52.200000000000003
20
-21.57500000000001
10
40.200000000000003
20
-21.575000000000003
42
0.41421356237308721
10
39.200000000000017
20
-22.574999999999999
10
39.200000000000003
20
-34.575000000000003
42
0.41421356237309115
10
40.200000000000003
20
-35.57500000000001
0
LWPOLYLINE
5
140
100
AcDbEntity
8
0
100
AcDbPolyline
90
8
70
1
43
0.0
10
192.59999999999997
20
-35.575000000000038
42
-0.41421356237304818
10
191.59999999999999
20
-34.575000000000003
10
191.59999999999999
20
-22.574999999999999
42
-0.41421356237305729
10
192.60000000000002
20
-21.574999999999985
10
204.60000000000002
20
-21.574999999999985
42
-0.41421356237309503
10
205.60000000000002
20
-22.574999999999999
10
205.60000000000002
20
-34.575000000000003
42
-0.41421356237309631
10
204.60000000000002
20
-35.575000000000017
0
LWPOLYLINE
5
141
100
AcDbEntity
8
0
100
AcDbPolyline
90
8
70
1
43
0.0
10
14.100000000000001
20
-21.57500000000001
42
-0.41421356237308982
10
15.100000000000007
20
-22.574999999999999
10
15.100000000000007
20
-34.575000000000003
42
-0.41421356237309503
10
14.100000000000001
20
-35.57500000000001
10
2.1000000000000041
20
-35.57500000000001
42
-0.41421356237309631
10
1.1000000000000032
20
-34.575000000000003
10
1.0999999999999988
20
-22.574999999999999
42
-0.41421356237309115
10
2.1000000000000041
20
-21.575000000000006
0
LWPOLYLINE
5
142
100
AcDbEntity
8
0
100
AcDbPolyline
90
8
70
1
43
0.0
10
77.299999999999997
20
-22.574999999999999
42
-0.41421356237307944
10
78.299999999999997
20
-21.57500000000001
10
90.300000000000011
20
-21.575000000000006
42
-0.41421356237310936
10
91.299999999999983
20
-22.574999999999999
10
91.300000000000011
20
-34.575000000000003
42
-0.41421356237308982
10
90.300000000000011
20
-35.575000000000017
10
78.299999999999997
20
-35.57500000000001
42
-0.41421356237308721
10
77.300000000000011
20
-34.575000000000003
0
LWPOLYLINE
5
143
100
AcDbEntity
8
0
100
AcDbPolyline
90
8
70
1
43
0.0
10
-7.3312499999999892
20
-40.625
10
-24.09375
20
-40.625000000000007
42
0.41421356237309503
10
-25.093749999999993
20
-41.625000000000007
10
-25.093749999999993
20
-53.625000000000007
42
0.41421356237309503
10
-24.09375
20
-54.625
10
-7.3312499999999892
20
-54.625
42
0.41421356237309631
10
-6.3312499999999927
20
-53.625000000000007
10
-6.3312499999999972
20
-41.625000000000014
42
0.41421356237309115
0
LWPOLYLINE
5
144
100
AcDbEntity
8
0
100
AcDbPolyline
90
8
70
1
43
0.0
10
134.44999999999999
20
-22.574999999999999
42
-0.41421356237305729
10
135.44999999999999
20
-21.574999999999985
10
147.45000000000005
20
-21.574999999999985
42
-0.41421356237309503
10
148.45000000000005
20
-22.574999999999999
10
148.45000000000005
20
-34.575000000000003
42
-0.41421356237309631
10
147.45000000000005
20
-35.575000000000017
10
135.44999999999993
20
-35.575000000000038
42
-0.414213562373069
10
134.45000000000005
20
-34.575000000000003
0
LWPOLYLINE
5
145
100
AcDbEntity
8
0
100
AcDbPolyline
90
8
70
1
43
0.0
10
172.55000000000001
20
-22.574999999999999
42
-0.41421356237310542
10
173.55000000000004
20
-21.575000000000017
10
185.55000000000007
20
-21.574999999999992
42
-0.41421356237312362
10
186.55000000000004
20
-22.574999999999999
10
186.55000000000007
20
-34.575000000000003
42
-0.41421356237311585
10
185.55000000000007
20
-35.57500000000001
10
173.55000000000004
20
-35.575000000000024
42
-0.41421356237309631
10
172.55000000000001
20
-34.575000000000003
0
LWPOLYLINE
5
146
100
AcDbEntity
8
0
100
AcDbPolyline
90
8
70
1
43
0.0
10
116.40000000000001
20
-35.575000000000017
10
128.40000000000001
20
-35.57500000000001
42
0.41421356237308721
10
129.40000000000001
20
-34.575000000000003
10
129.40000000000001
20
-22.574999999999999
42
0.41421356237307944
10
128.40000000000003
20
-21.57500000000001
10
116.40000000000001
20
-21.575000000000003
42
0.41421356237309503
10
115.40000000000005
20
-22.574999999999999
10
115.40000000000001
20
-34.575000000000003
42
0.41421356237308982
0
LWPOLYLINE
5
147
100
AcDbEntity
8
0
100
AcDbPolyline
90
8
70
1
43
0.0
10
224.65000000000003
20
-34.575000000000003
10
224.65000000000003
20
-22.574999999999999
42
0.41421356237307422
10
223.65000000000009
20
-21.574999999999971
10
211.65000000000006
20
-21.575000000000028
42
0.41421356237309243
10
210.65000000000001
20
-22.574999999999999
10
210.64999999999998
20
-34.575000000000003
42
0.41421356237311197
10
211.65000000000006
20
-35.574999999999989
10
223.65000000000009
20
-35.57500000000001
42
0.41421356237309243
0
LWPOLYLINE
5
148
100
AcDbEntity
8
0
100
AcDbPolyline
90
8
70
1
43
0.0
10
77.012500000000017
20
-53.625000000000007
10
77.012500000000031
20
-41.625000000000007
42
0.41421356237311063
10
76.012500000000003
20
-40.625
10
64.012500000000017
20
-40.625
42
0.41421356237307161
10
63.012500000000031
20
-41.625000000000007
10
63.012500000000024
20
-53.625000000000007
42
0.41421356237309243
10
64.012500000000017
20
-54.625000000000021
10
76.012500000000003
20
-54.624999999999993
42
0.41421356237308721
0
LWPOLYLINE
5
149
100
AcDbEntity
8
0
100
AcDbPolyline
90
8
70
1
43
0.0
10
58.250000000000014
20
-22.574999999999999
42
-0.41421356237310414
10
59.250000000000007
20
-21.57500000000001
10
71.25
20
-21.575000000000021
42
-0.41421356237311585
10
72.250000000000057
20
-22.574999999999999
10
72.250000000000028
20
-34.575000000000003
42
-0.41421356237311846
10
71.25
20
-35.575000000000003
10
59.250000000000007
20
-35.575000000000017
42
-0.41421356237308982
10
58.250000000000014
20
-34.575000000000003
0
LWPOLYLINE
5
150
100
AcDbEntity
8
0
100
AcDbPolyline
90
8
70
1
43
0.0
10
235.46250000000001
20
-35.575000000000024
42
-0.41421356237309631
10
234.46249999999998
20
-34.575000000000003
10
234.46249999999998
20
-22.574999999999999
42
-0.41421356237310542
10
235.46250000000001
20
-21.575000000000017
10
247.46250000000001
20
-21.574999999999971
42
-0.4142135623730781
10
248.46249999999995
20
-22.574999999999999
10
248.46250000000003
20
-34.575000000000003
42
-0.41421356237304952
10
247.46250000000001
20
-35.575000000000031
0
LWPOLYLINE
5
151
100
AcDbEntity
8
0
100
AcDbPolyline
90
8
70
1
43
0.0
10
167.50000000000003
20
-34.575000000000003
42
-0.41421356237309243
10
166.50000000000009
20
-35.57500000000001
10
154.5
20
-35.575000000000003
42
-0.41421356237310153
10
153.50000000000009
20
-34.575000000000003
10
153.5
20
-22.574999999999999
42
-0.41421356237311846
10
154.5
20
-21.57500000000001
10
166.50000000000009
20
-21.574999999999989
42
-0.4142135623730937
10
167.50000000000003
20
-22.574999999999999
0
LWPOLYLINE
5
152
100
AcDbEntity
8
0
100
AcDbPolyline
90
8
70
1
43
0.0
10
57.962500000000013
20
-53.625000000000007
42
-0.41421356237312101
10
56.962499999999977
20
-54.624999999999993
10
44.962500000000006
20
-54.625
42
-0.41421356237309503
10
43.962500000000013
20
-53.625000000000007
10
43.962500000000013
20
-41.625000000000007
42
-0.41421356237309243
10
44.962500000000006
20
-40.625
10
56.962500000000027
20
-40.625000000000014
42
-0.41421356237306639
10
57.962500000000006
20
-41.625000000000007
0
LWPOLYLINE
5
153
100
AcDbEntity
8
0
100
AcDbPolyline
90
8
70
1
43
0.0
10
158.26249999999999
20
-41.625000000000007
42
-0.41421356237306639
10
159.26249999999999
20
-40.625000000000014
10
171.26249999999999
20
-40.624999999999993
42
-0.41421356237309503
10
172.26249999999999
20
-41.625000000000007
10
172.26249999999999
20
-53.625000000000007
42
-0.41421356237310802
10
171.26249999999999
20
-54.624999999999993
10
159.26249999999999
20
-54.625000000000043
42
-0.41421356237305862
10
158.26249999999999
20
-53.625000000000007
0
LWPOLYLINE
5
154
100
AcDbEntity
8
0
100
AcDbPolyline
90
8
70
1
43
0.0
10
152.21250000000001
20
-40.624999999999993
10
140.21250000000006
20
-40.625000000000007
42
0.41421356237302737
10
139.21250000000003
20
-41.625000000000007
10
139.21250000000001
20
-53.625000000000007
42
0.41421356237312101
10
140.21250000000006
20
-54.624999999999993
10
152.21250000000003
20
-54.625
42
0.41421356237305862
10
153.21250000000003
20
-53.625000000000007
10
153.21250000000001
20
-41.625000000000007
42
0.41421356237305862
0
LWPOLYLINE
5
155
100
AcDbEntity
8
0
100
AcDbPolyline
90
8
70
1
43
0.0
10
-15.568749999999998
20
-72.674999999999983
10
-15.568749999999994
20
-60.674999999999997
42
-0.41421356237309437
10
-14.56875
20
-59.675000000000004
10
-2.5687499999999996
20
-59.674999999999997
42
-0.41421356237309503
10
-1.5687499999999988
20
-60.674999999999997
10
-1.5687500000000032
20
-72.674999999999983
42
-0.41421356237308721
10
-2.5687499999999996
20
-73.674999999999983
10
-14.56875
20
-73.674999999999983
42
-0.41421356237309892
0
LWPOLYLINE
5
156
100
AcDbEntity
8
0
100
AcDbPolyline
90
8
70
1
43
0.0
10
83.0625
20
-54.625
42
-0.41421356237309503
10
82.0625
20
-53.625000000000007
10
82.0625
20
-41.625000000000007
42
-0.41421356237308204
10
83.0625
20
-40.624999999999993
10
95.062500000000014
20
-40.625
42
-0.41421356237308721
10
96.062500000000014
20
-41.625000000000007
10
96.0625
20
-53.625000000000007
42
-0.41421356237309243
10
95.062500000000014
20
-54.625000000000021
0
LWPOLYLINE
5
157
100
AcDbEntity
8
0
100
AcDbPolyline
90
8
70
1
43
0.0
10
134.16250000000002
20
-53.625000000000007
42
-0.41421356237307161
10
133.16250000000008
20
-54.625
10
121.16250000000007
20
-54.625
42
-0.41421356237307944
10
120.16250000000012
20
-53.625000000000007
10
120.16250000000011
20
-41.625000000000007
42
-0.41421356237308721
10
121.16250000000007
20
-40.625000000000007
10
133.16249999999999
20
-40.624999999999993
42
-0.41421356237304302
10
134.16250000000005
20
-41.625000000000007
0
LWPOLYLINE
5
158
100
AcDbEntity
8
0
100
AcDbPolyline
90
8
70
1
43
0.0
10
243.75675000000001
20
-53.624999999999964
42
-0.41421356237313406
10
242.75675000000004
20
-52.624999999999993
10
242.75675000000004
20
-39.624999999999993
42
-0.41421356237312101
10
243.75675000000001
20
-38.625
10
248.75675000000001
20
-38.624999999999979
42
-0.41421356237309631
10
249.75675000000001
20
-39.624999999999993
10
249.75675000000001
20
-52.624999999999993
42
-0.41421356237309243
10
248.75675000000001
20
-53.625000000000007
0
LWPOLYLINE
5
159
100
AcDbEntity
8
0
100
AcDbPolyline
90
8
70
1
43
0.0
10
5.8625000000000149
20
-41.625
42
-0.41421356237309115
10
6.862499999999998
20
-40.625000000000014
10
18.862500000000004
20
-40.625000000000007
42
-0.41421356237309503
10
19.862500000000001
20
-41.625000000000007
10
19.862500000000001
20
-53.625000000000007
42
-0.41421356237309503
10
18.862500000000004
20
-54.625
10
6.862499999999998
20
-54.625
42
-0.41421356237309115
10
5.8624999999999927
20
-53.625000000000007
0
LWPOLYLINE
5
160
100
AcDbEntity
8
0
100
AcDbPolyline
90
8
70
1
43
0.0
10
209.36250000000001
20
-40.624999999999993
42
-0.41421356237309503
10
210.36250000000001
20
-41.625000000000007
10
210.36250000000001
20
-53.625000000000007
42
-0.41421356237310802
10
209.36250000000001
20
-54.624999999999993
10
197.36250000000001
20
-54.625000000000028
42
-0.41421356237307683
10
196.36250000000007
20
-53.625000000000007
10
196.36250000000004
20
-41.625000000000007
42
-0.41421356237308721
10
197.36250000000001
20
-40.624999999999993
0
LWPOLYLINE
5
161
100
AcDbEntity
8
0
100
AcDbPolyline
90
8
70
1
43
0.0
10
24.912500000000016
20
-41.625000000000007
42
-0.41421356237309243
10
25.912500000000023
20
-40.625000000000007
10
37.912499999999994
20
-40.625000000000007
42
-0.41421356237309503
10
38.912499999999994
20
-41.625000000000007
10
38.912499999999994
20
-53.625000000000007
42
-0.41421356237309503
10
37.912499999999994
20
-54.625
10
25.912500000000023
20
-54.625000000000014
42
-0.41421356237309243
10
24.912500000000009
20
-53.625000000000007
0
LWPOLYLINE
5
162
100
AcDbEntity
8
0
100
AcDbPolyline
90
8
70
1
43
0.0
10
114.11250000000003
20
-40.625
42
-0.41421356237308721
10
115.11250000000003
20
-41.625000000000007
10
115.11250000000001
20
-53.625000000000007
42
-0.41421356237309243
10
114.11250000000003
20
-54.625000000000021
10
102.11250000000001
20
-54.625
42
-0.41421356237309503
10
101.11250000000001
20
-53.625000000000007
10
101.11250000000001
20
-41.625000000000007
42
-0.41421356237309503
10
102.11250000000001
20
-40.625000000000007
0
LWPOLYLINE
5
163
100
AcDbEntity
8
0
100
AcDbPolyline
90
8
70
1
43
0.0
10
15.387500000000003
20
-72.674999999999983
10
15.387500000000012
20
-60.674999999999997
42
-0.41421356237309503
10
16.38750000000001
20
-59.675000000000004
10
28.38750000000001
20
-59.675000000000004
42
-0.41421356237309503
10
29.387500000000006
20
-60.674999999999997
10
29.387500000000006
20
-72.674999999999983
42
-0.41421356237309764
10
28.38750000000001
20
-73.674999999999983
10
16.38750000000001
20
-73.674999999999983
42
-0.4142135623730846
0
LWPOLYLINE
5
164
100
AcDbEntity
8
0
100
AcDbPolyline
90
8
70
1
43
0.0
10
-24.00675
20
-61.675000000000004
42
-0.41421356237310414
10
-23.00675
20
-60.675000000000018
10
-18.00675
20
-60.675000000000018
42
-0.4142135623730937
10
-17.00675
20
-61.675000000000004
10
-17.00675
20
-74.674999999999983
42
-0.41421356237309309
10
-18.00675
20
-75.674999999999983
10
-23.00675
20
-75.674999999999983
42
-0.41421356237310675
10
-24.006749999999997
20
-74.674999999999983
0
LWPOLYLINE
5
165
100
AcDbEntity
8
0
100
AcDbPolyline
90
8
70
1
43
0.0
10
225.88075000000006
20
-39.624999999999993
42
0.41421356237314316
10
224.88075000000009
20
-38.625
10
219.88075000000009
20
-38.625000000000021
42
0.41421356237305212
10
218.88075000000003
20
-39.624999999999993
10
218.88075000000001
20
-52.624999999999993
42
0.41421356237312101
10
219.88075000000009
20
-53.625000000000007
10
224.88075000000009
20
-53.625000000000014
42
0.41421356237307683
10
225.88075000000003
20
-52.624999999999993
0
LWPOLYLINE
5
166
100
AcDbEntity
8
0
100
AcDbPolyline
90
8
70
1
43
0.0
10
191.3125
20
-41.625000000000007
42
0.41421356237311063
10
190.3125
20
-40.625000000000014
10
178.3125
20
-40.624999999999993
42
0.4142135623730846
10
177.31250000000003
20
-41.625000000000007
10
177.31250000000003
20
-53.625000000000007
42
0.41421356237313406
10
178.31250000000011
20
-54.625
10
190.3125
20
-54.625000000000014
42
0.41421356237309243
10
191.3125
20
-53.625000000000007
0
LWPOLYLINE
5
167
100
AcDbEntity
8
0
100
AcDbPolyline
90
8
70
1
43
0.0
10
227.31875000000002
20
-41.625000000000007
10
227.31875000000002
20
-53.625000000000007
42
0.41421356237310802
10
228.31875000000002
20
-54.624999999999993
10
240.31875000000008
20
-54.625
42
0.41421356237305862
10
241.31875000000005
20
-53.625000000000007
10
241.31875000000002
20
-41.625000000000007
42
0.41421356237305862
10
240.31875000000002
20
-40.624999999999993
10
228.31875000000002
20
-40.625
42
0.41421356237309243
0
LWPOLYLINE
5
168
100
AcDbEntity
8
0
100
AcDbPolyline
90
13
70
1
43
0.0
10
244.99425000000008
20
-73.674999999999997
10
244.99425000000008
20
-74.674999999999983
42
-0.41421356237302481
10
243.99425000000005
20
-75.674999999999983
10
238.99425000000005
20
-75.67500000000004
42
-0.41421356237304302
10
237.99425000000002
20
-74.674999999999983
10
237.99425000000011
20
-61.675000000000004
42
-0.4142135623730846
10
238.99425000000005
20
-60.675000000000026
10
239.22500000000002
20
-60.674999999999997
42
-0.41421356237314444
10
240.22500000000011
20
-59.675000000000011
10
252.22500000000002
20
-59.674999999999983
42
-0.41421356237309503
10
253.22500000000005
20
-60.674999999999997
10
253.22500000000005
20
-72.674999999999997
42
-0.41421356237310542
10
252.22500000000002
20
-73.674999999999983
0
LINE
5
169
100
AcDbEntity
8
0
100
AcDbLine
10
165.40833333333339
20
2.5
30
0
11
165.40833333333339
21
0.25000000000005684
31
0
0
ARC
5
170
100
AcDbEntity
8
0
100
AcDbCircle
10
164.40833333333333
20
0.25000000000005684
30
0
40
1.0000000000000497
210
0
220
0
230
1
100
AcDbArc
50
-90
51
0
0
LINE
5
171
100
AcDbEntity
8
0
100
AcDbLine
10
156.90833333333336
20
-0.74999999999999289
30
0
11
164.40833333333333
21
-0.74999999999999289
31
0
0
ARC
5
172
100
AcDbEntity
8
0
100
AcDbCircle
10
156.90833333333336
20
0.25000000000002132
30
0
40
1.0000000000000142
210
0
220
0
230
1
100
AcDbArc
50
180
51
270
0
LINE
5
173
100
AcDbEntity
8
0
100
AcDbLine
10
155.90833333333336
20
0.25000000000000355
30
0
11
155.90833333333336
21
2.5
31
0
0
ARC
5
174
100
AcDbEntity
8
0
100
AcDbCircle
10
154.40833333333336
20
2.5
30
0
40
1.4999999999999858
210
0
220
-0
230
1
100
AcDbArc
50
0
51
90
0
LINE
5
175
100
AcDbEntity
8
0
100
AcDbLine
10
154.40833333333336
20
3.9999999999999858
30
0
11
71.341666666666725
21
4.0000000000000036
31
0
0
ARC
5
176
100
AcDbEntity
8
0
100
AcDbCircle
10
71.341666666666725
20
2.5
30
0
40
1.5000000000000036
210
0
220
-0
230
1
100
AcDbArc
50
90
51
180
0
LINE
5
177
100
AcDbEntity
8
0
100
AcDbLine
10
69.841666666666697
20
2.5000000000000355
30
0
11
69.841666666666669
21
0.24999999999998579
31
0
0
ARC
5
178
100
AcDbEntity
8
0
100
AcDbCircle
10
68.841666666666697
20
0.24999999999998579
30
0
40
0.99999999999999645
210
0
220
0
230
1
100
AcDbArc
50
-90
51
0
0
LINE
5
179
100
AcDbEntity
8
0
100
AcDbLine
10
61.34166666666669
20
-0.74999999999999289
30
0
11
68.841666666666697
21
-0.75000000000001066
31
0
0
ARC
5
180
100
AcDbEntity
8
0
100
AcDbCircle
10
61.34166666666669
20
0.24999999999998579
30
0
40
0.99999999999997868
210
0
220
0
230
1
100
AcDbArc
50
180
51
270
0
LINE
5
181
100
AcDbEntity
8
0
100
AcDbLine
10
60.341666666666711
20
0.24999999999998579
30
0
11
60.341666666666711
21
2.5
31
0
0
ARC
5
182
100
AcDbEntity
8
0
100
AcDbCircle
10
58.84166666666669
20
2.5
30
0
40
1.5000000000000213
210
0
220
-0
230
1
100
AcDbArc
50
0
51
90
0
LINE
5
183
100
AcDbEntity
8
0
100
AcDbLine
10
58.84166666666669
20
4.0000000000000213
30
0
11
-22.724999999999937
21
4.0000000000000036
31
0
0
ARC
5
184
100
AcDbEntity
8
0
100
AcDbCircle
10
-22.724999999999937
20
2.5
30
0
40
1.5000000000000036
210
0
220
-0
230
1
100
AcDbArc
50
90
51
180
0
LINE
5
185
100
AcDbEntity
8
0
100
AcDbLine
10
-24.224999999999994
20
2.5
30
0
11
-24.224999999999994
21
0.25000000000000355
31
0
0
ARC
5
186
100
AcDbEntity
8
0
100
AcDbCircle
10
-25.224999999999937
20
0.25000000000000355
30
0
40
0.99999999999999645
210
0
220
0
230
1
100
AcDbArc
50
-90
51
0
0
LINE
5
187
100
AcDbEntity
8
0
100
AcDbLine
10
-28.250000000000028
20
-0.74999999999999289
30
0
11
-25.224999999999937
21
-0.74999999999999289
31
0
0
ARC
5
188
100
AcDbEntity
8
0
100
AcDbCircle
10
-28.250000000000028
20
-1.7499999999999893
30
0
40
0.99999999999999645
210
0
220
-0
230
1
100
AcDbArc
50
90
51
180
0
LINE
5
189
100
AcDbEntity
8
0
100
AcDbLine
10
-29.249999999999972
20
-93.999991962543206
30
0
11
-29.249999999999972
21
-1.7500000000000071
31
0
0
ARC
5
190
100
AcDbEntity
8
0
100
AcDbCircle
10
-28.250000052216961
20
-93.999991962543206
30
0
40
0.99999994778301016
210
0
220
0
230
1
100
AcDbArc
50
180
51
269.99999800546539
0
LINE
5
191
100
AcDbEntity
8
0
100
AcDbLine
10
-25.224999965188744
20
-94.999992033036008
30
0
11
-28.250000087028155
21
-94.999991910326287
31
0
0
ARC
5
192
100
AcDbEntity
8
0
100
AcDbCircle
10
-25.225000000000009
20
-95.999992033036023
30
0
40
1.0000000000000142
210
0
220
-0
230
1
100
AcDbArc
50
0
51
89.999998005461435
0
LINE
5
193
100
AcDbEntity
8
0
100
AcDbLine
10
-24.224999999999994
20
-95.99999203303598
30
0
11
-24.224999999999994
21
-97.750000000000028
31
0
0
ARC
5
194
100
AcDbEntity
8
0
100
AcDbCircle
10
-22.724999999999937
20
-97.750000000000028
30
0
40
1.5000000000000568
210
0
220
0
230
1
100
AcDbArc
50
180
51
269.99999999999721
0
LINE
5
195
100
AcDbEntity
8
0
100
AcDbLine
10
-22.725000000000009
20
-99.25
30
0
11
58.841666666666654
21
-99.25
31
0
0
ARC
5
196
100
AcDbEntity
8
0
100
AcDbCircle
10
58.841666666666583
20
-97.749999999999972
30
0
40
1.5000000000000391
210
0
220
0
230
1
100
AcDbArc
50
-89.9999999999973
51
0
0
LINE
5
197
100
AcDbEntity
8
0
100
AcDbLine
10
60.34166666666664
20
-97.749999999999972
30
0
11
60.34166666666664
21
-96.000000782802246
31
0
0
ARC
5
198
100
AcDbEntity
8
0
100
AcDbCircle
10
61.341666666666654
20
-96.000000782802246
30
0
40
1.0000000000000142
210
0
220
-0
230
1
100
AcDbArc
50
90
51
180
0
LINE
5
199
100
AcDbEntity
8
0
100
AcDbLine
10
68.841666666666654
20
-95.000000782802232
30
0
11
61.341666666666654
21
-95.000000782802232
31
0
0
ARC
5
200
100
AcDbEntity
8
0
100
AcDbCircle
10
68.841666666666654
20
-96.000000782802246
30
0
40
1.0000000000000142
210
0
220
0
230
1
100
AcDbArc
50
0
51
90
0
LINE
5
201
100
AcDbEntity
8
0
100
AcDbLine
10
69.841666666666669
20
-96.000000782802246
30
0
11
69.841666666666669
21
-97.749997887760429
31
0
0
ARC
5
202
100
AcDbEntity
8
0
100
AcDbCircle
10
71.341666666666654
20
-97.749997887760429
30
0
40
1.4999999999999858
210
0
220
0
230
1
100
AcDbArc
50
180
51
270
0
LINE
5
203
100
AcDbEntity
8
0
100
AcDbLine
10
71.341666666666654
20
-99.249997887760415
30
0
11
154.40833338358925
21
-99.249997887760458
31
0
0
ARC
5
204
100
AcDbEntity
8
0
100
AcDbCircle
10
154.40833338358925
20
-97.749997887760429
30
0
40
1.5000000000000213
210
0
220
0
230
1
100
AcDbArc
50
-90
51
0.0084273653133628019
0
LINE
5
205
100
AcDbEntity
8
0
100
AcDbLine
10
155.9083333673637
20
-97.749777259852692
30
0
11
155.90833342417167
21
-95.999980683157617
31
0
0
ARC
5
206
100
AcDbEntity
8
0
100
AcDbCircle
10
156.90849337782183
20
-96.000140669329213
30
0
40
1.0001599664459111
210
0
220
0
230
1
100
AcDbArc
50
90.00914502747726
51
179.99083493367894
0
LINE
5
207
100
AcDbEntity
8
0
100
AcDbLine
10
164.40833370471663
20
-94.999982383180694
30
0
11
156.90833374145046
21
-94.999980715623153
31
0
0
ARC
5
208
100
AcDbEntity
8
0
100
AcDbCircle
10
164.40833348237564
20
-95.999982374629113
30
0
40
0.99999989982421855
210
0
220
0
230
1
100
AcDbArc
50
-2.0913098143694567e-06
51
89.999987260799756
0
LINE
5
209
100
AcDbEntity
8
0
100
AcDbLine
10
165.40833338219986
20
-95.999982413721753
30
0
11
165.40833331378707
21
-97.749999941361082
31
0
0
ARC
5
210
100
AcDbEntity
8
0
100
AcDbCircle
10
166.90833333333336
20
-97.750000000000028
30
0
40
1.500000019546307
210
0
220
0
230
1
100
AcDbArc
50
179.99999774112726
51
269.99999999999886
0
LINE
5
211
100
AcDbEntity
8
0
100
AcDbLine
10
166.90833333333333
20
-99.25
30
0
11
248.47500000000011
21
-99.25
31
0
0
ARC
5
212
100
AcDbEntity
8
0
100
AcDbCircle
10
248.47500000000002
20
-97.749999999999986
30
0
40
1.5000000000000213
210
0
220
0
230
1
100
AcDbArc
50
270.00000000000324
51
359.99999658490543
0
LINE
5
213
100
AcDbEntity
8
0
100
AcDbLine
10
249.97500000000005
20
-97.750000089406953
30
0
11
249.97500005027646
21
-96.000001601771103
31
0
0
ARC
5
214
100
AcDbEntity
8
0
100
AcDbCircle
10
250.97500005027649
20
-96.000001630500492
30
0
40
0.99999999999999445
210
0
220
0
230
1
100
AcDbArc
50
90.0000101673904
51
179.99999852122065
0
LINE
5
215
100
AcDbEntity
8
0
100
AcDbLine
10
254.0000004203464
20
-95.000000782802218
30
0
11
250.97499987282205
21
-95.00000163050052
31
0
0
ARC
5
216
100
AcDbEntity
8
0
100
AcDbCircle
10
254.00000005235054
20
-94.000000782802275
30
0
40
1.0000000000000109
210
0
220
0
230
1
100
AcDbArc
50
270.00002108460922
51
360
0
LINE
5
217
100
AcDbEntity
8
0
100
AcDbLine
10
254.99999999971482
20
-1.7499999994292992
30
0
11
255.00000005235052
21
-94.000000783188241
31
0
0
ARC
5
218
100
AcDbEntity
8
0
100
AcDbCircle
10
253.99999999942952
20
-1.7499999999998828
30
0
40
1.0000000002852971
210
0
220
-0
230
1
100
AcDbArc
50
0
51
89.999999983652046
0
LINE
5
219
100
AcDbEntity
8
0
100
AcDbLine
10
250.97500000000011
20
-0.74999999999986855
30
0
11
253.99999999971484
21
-0.74999999999986855
31
0
0
ARC
5
220
100
AcDbEntity
8
0
100
AcDbCircle
10
250.97500000000014
20
0.25000000000018119
30
0
40
1.0000000000000497
210
0
220
0
230
1
100
AcDbArc
50
180
51
269.99999999999835
0
LINE
5
221
100
AcDbEntity
8
0
100
AcDbLine
10
249.97500000000008
20
0.2500000000001279
30
0
11
249.97500000000008
21
2.5
31
0
0
ARC
5
222
100
AcDbEntity
8
0
100
AcDbCircle
10
248.47500000000011
20
2.5
30
0
40
1.4999999999999858
210
0
220
0
230
1
100
AcDbArc
50
0
51
90
0
LINE
5
223
100
AcDbEntity
8
0
100
AcDbLine
10
248.47500000000011
20
3.9999999999999858
30
0
11
166.90833333333333
21
4.0000000000000036
31
0
0
ARC
5
224
100
AcDbEntity
8
0
100
AcDbCircle
10
166.90833333333333
20
2.5
30
0
40
1.5000000000000036
210
0
220
-0
230
1
100
AcDbArc
50
90
51
180
0
LWPOLYLINE
5
225
100
AcDbEntity
8
0
100
AcDbPolyline
90
8
70
1
43
0.0
10
63.22499999999998
20
-88.724999999999994
42
-0.41421356237309503
10
62.224999999999966
20
-87.724999999999966
10
62.22499999999998
20
-83.724999999999966
42
-0.41421356237309503
10
63.22499999999998
20
-82.724999999999966
10
89.624999999999986
20
-82.724999999999994
42
-0.41421356237309503
10
90.624999999999972
20
-83.724999999999966
10
90.624999999999986
20
-87.724999999999966
42
-0.41421356237309503
10
89.624999999999986
20
-88.724999999999966
0
LWPOLYLINE
5
226
100
AcDbEntity
8
0
100
AcDbPolyline
90
8
70
1
43
0.0
10
123.875
20
-88.724999999999952
42
-0.41421356237310542
10
122.87499999999997
20
-87.724999999999966
10
122.87499999999996
20
-83.724999999999966
42
-0.41421356237309503
10
123.87499999999996
20
-82.724999999999966
10
143.52499999999998
20
-82.724999999999952
42
-0.41421356237309503
10
144.52499999999998
20
-83.724999999999966
10
144.52499999999998
20
-87.724999999999966
42
-0.41421356237309503
10
143.52499999999998
20
-88.724999999999966
0
ENDSEC
0
SECTION
2
OBJECTS
0
DICTIONARY
5
C
100
AcDbDictionary
3
ACAD_GROUP
350
D
3
ACAD_MLINESTYLE
350
17
0
DICTIONARY
5
D
100
AcDbDictionary
0
DICTIONARY
5
1A
330
C
100
AcDbDictionary
0
DICTIONARY
5
17
100
AcDbDictionary
0
ENDSEC
0
EOF
