0
SECTION
2
HEADER
9
$INSUNITS
70
4
9
$ACADVER
1
AC1014
9
$HANDSEED
5
FFFF
0
ENDSEC
0
SECTION
2
TABLES
0
TABLE
2
VPORT
5
8
100
AcDbSymbolTable
0
ENDTAB
0
TABLE
2
LTYPE
5
5
100
AcDbSymbolTable
0
LTYPE
5
14
100
AcDbSymbolTableRecord
100
AcDbLinetypeTableRecord
2
BYBLOCK
70
0
0
LTYPE
5
15
100
AcDbSymbolTableRecord
100
AcDbLinetypeTableRecord
2
BYLAYER
70
0
0
ENDTAB
0
TABLE
2
LAYER
5
2
100
AcDbSymbolTable
70
2
0
LAYER
5
50
100
AcDbSymbolTableRecord
100
AcDbLayerTableRecord
2
0
70
0
6
CONTINUOUS
0
ENDTAB
0
TABLE
2
STYLE
5
3
100
AcDbSymbolTable
70
1
0
STYLE
5
11
100
AcDbSymbolTableRecord
100
AcDbTextStyleTableRecord
2
STANDARD
70
0
0
ENDTAB
0
TABLE
2
VIEW
5
6
100
AcDbSymbolTable
70
0
0
ENDTAB
0
TABLE
2
UCS
5
7
100
AcDbSymbolTable
70
0
0
ENDTAB
0
TABLE
2
APPID
5
9
100
AcDbSymbolTable
70
2
0
APPID
5
12
100
AcDbSymbolTableRecord
100
AcDbRegAppTableRecord
2
ACAD
70
0
0
ENDTAB
0
TABLE
2
DIMSTYLE
5
A
100
AcDbSymbolTable
70
1
0
ENDTAB
0
TABLE
2
BLOCK_RECORD
5
1
100
AcDbSymbolTable
70
1
0
BLOCK_RECORD
5
1F
100
AcDbSymbolTableRecord
100
AcDbBlockTableRecord
2
*MODEL_SPACE
0
BLOCK_RECORD
5
1B
100
AcDbSymbolTableRecord
100
AcDbBlockTableRecord
2
*PAPER_SPACE
0
ENDTAB
0
ENDSEC
0
SECTION
2
BLOCKS
0
BLOCK
5
20
100
AcDbEntity
100
AcDbBlockBegin
2
*MODEL_SPACE
0
ENDBLK
5
21
100
AcDbEntity
100
AcDbBlockEnd
0
BLOCK
5
1C
100
AcDbEntity
100
AcDbBlockBegin
2
*PAPER_SPACE
0
ENDBLK
5
1D
100
AcDbEntity
100
AcDbBlockEnd
0
ENDSEC
0
SECTION
2
ENTITIES
0
LWPOLYLINE
5
100
100
AcDbEntity
8
0
100
AcDbPolyline
90
8
70
1
43
0.0
10
-179.3125
20
175.32499999999999
42
0.4142135623730534
10
-180.31249999999997
20
174.32500000000002
10
-180.31249999999994
20
162.32500000000002
42
0.41421356237307422
10
-179.3125
20
161.32499999999999
10
-167.31250000000003
20
161.32499999999999
42
0.41421356237310542
10
-166.31249999999991
20
162.32500000000002
10
-166.31249999999997
20
174.32500000000002
42
0.41421356237306384
10
-167.3125
20
175.32499999999999
0
LWPOLYLINE
5
101
100
AcDbEntity
8
0
100
AcDbPolyline
90
8
70
1
43
0.0
10
-307.89999999999998
20
213.42499999999998
10
-295.89999999999998
20
213.42500000000001
42
-0.41421356237309503
10
-294.89999999999998
20
212.42500000000001
10
-294.89999999999998
20
200.42500000000001
42
-0.41421356237309503
10
-295.89999999999998
20
199.42499999999998
10
-307.89999999999998
20
199.42499999999998
42
-0.41421356237309503
10
-308.89999999999998
20
200.42500000000001
10
-308.89999999999998
20
212.42500000000001
42
-0.41421356237309503
0
LWPOLYLINE
5
102
100
AcDbEntity
8
0
100
AcDbPolyline
90
8
70
1
43
0.0
10
-266.03749999999997
20
181.375
10
-266.03749999999997
20
193.375
42
-0.4142135623730846
10
-265.03750000000002
20
194.375
10
-253.03749999999994
20
194.37499999999997
42
-0.41421356237306384
10
-252.03749999999999
20
193.375
10
-252.03749999999999
20
181.375
42
-0.4142135623730846
10
-253.03750000000002
20
180.375
10
-265.03750000000002
20
180.375
42
-0.41421356237309503
0
LWPOLYLINE
5
103
100
AcDbEntity
8
0
100
AcDbPolyline
90
25
70
1
43
0.0
10
-311.56874999999911
20
161.82499999999999
10
-311.56874999999997
20
174.32499999999999
42
0.41421356237306384
10
-312.56874999999997
20
175.32500000000002
10
-324.56874999999997
20
175.32500000000002
42
0.41421356237310542
10
-325.56874999999997
20
174.32499999999999
10
-325.56874999999991
20
161.82499999999999
42
-0.41421356237309503
10
-326.06874999999997
20
161.32499999999996
10
-326.5067499999999
20
161.32499999999999
42
-0.41421356237309503
10
-327.0067499999999
20
161.82499999999999
10
-327.0067499999999
20
175.90999999999997
42
0.4142135623730846
10
-328.0067499999999
20
176.90999999999997
10
-333.00674999999967
20
176.91000000000003
42
0.41421356237309503
10
-334.00674999999973
20
175.91000000000003
10
-334.0067499999999
20
158.96999999999997
42
0.41421356237306384
10
-333.00675000000001
20
157.96999999999997
10
-318.56874999999997
20
157.96999999999997
10
-304.13074999999998
20
157.96999999999997
42
0.41421356237308982
10
-303.13074999999998
20
158.96999999999997
10
-303.13074999999998
20
175.91000000000003
42
0.4142135623730846
10
-304.13074999999998
20
176.91
10
-309.13074999999998
20
176.91
42
0.41421356237307422
10
-310.13075000000003
20
175.90999999999997
10
-310.13074999999998
20
161.82500000000007
42
-0.41421356237307422
10
-310.63074999999992
20
161.32500000000007
10
-311.06874999999906
20
161.32500000000005
42
-0.41421356237313667
0
LWPOLYLINE
5
104
100
AcDbEntity
8
0
100
AcDbPolyline
90
8
70
1
43
0.0
10
-303.13749999999999
20
194.375
10
-291.13749999999999
20
194.37499999999997
42
-0.41421356237309503
10
-290.13750000000005
20
193.375
10
-290.13750000000005
20
181.375
42
-0.41421356237309503
10
-291.13749999999999
20
180.375
10
-303.13749999999999
20
180.37499999999997
42
-0.41421356237309503
10
-304.13749999999999
20
181.375
10
-304.13749999999999
20
193.375
42
-0.41421356237309503
0
LWPOLYLINE
5
105
100
AcDbEntity
8
0
100
AcDbPolyline
90
8
70
1
43
0.0
10
-317.33124999999995
20
180.37499999999997
42
0.4142135623730846
10
-316.33125000000001
20
181.375
10
-316.33125000000001
20
193.375
42
0.4142135623730846
10
-317.33124999999995
20
194.375
10
-334.09375
20
194.375
42
0.41421356237309503
10
-335.09375
20
193.375
10
-335.09374999999989
20
181.375
42
0.41421356237309503
10
-334.09375
20
180.375
0
LWPOLYLINE
5
106
100
AcDbEntity
8
0
100
AcDbPolyline
90
8
70
1
43
0.0
10
-246.98749999999995
20
193.375
10
-246.98749999999995
20
181.375
42
0.41421356237306384
10
-245.98749999999998
20
180.37499999999997
10
-233.98750000000001
20
180.375
42
0.4142135623730846
10
-232.98749999999998
20
181.375
10
-232.98749999999995
20
193.375
42
0.41421356237312623
10
-233.98750000000001
20
194.375
10
-245.98749999999998
20
194.375
42
0.41421356237306384
0
LWPOLYLINE
5
107
100
AcDbEntity
8
0
100
AcDbPolyline
90
8
70
1
43
0.0
10
-127.92500000000001
20
231.47500000000002
42
-0.4142135623730534
10
-126.92499999999998
20
232.47500000000002
10
-114.925
20
232.47500000000002
42
-0.41421356237309503
10
-113.92499999999998
20
231.47500000000002
10
-113.92499999999998
20
219.47499999999997
42
-0.41421356237310542
10
-114.925
20
218.47499999999999
10
-126.92500000000003
20
218.47499999999997
42
-0.41421356237304302
10
-127.92499999999993
20
219.47499999999997
0
LWPOLYLINE
5
108
100
AcDbEntity
8
0
100
AcDbPolyline
90
8
70
1
43
0.0
10
-223.46249999999998
20
162.32500000000002
42
-0.41421356237309503
10
-224.46249999999998
20
161.32499999999999
10
-236.46250000000003
20
161.32500000000005
42
-0.41421356237309503
10
-237.46250000000001
20
162.32500000000002
10
-237.46250000000001
20
174.32500000000002
42
-0.41421356237309503
10
-236.46250000000003
20
175.32499999999999
10
-224.46249999999998
20
175.32499999999999
42
-0.4142135623730846
10
-223.46249999999998
20
174.32500000000002
0
LWPOLYLINE
5
109
100
AcDbEntity
8
0
100
AcDbPolyline
90
8
70
1
43
0.0
10
-332.71250000000003
20
200.42500000000001
10
-332.71249999999998
20
212.42500000000001
42
-0.41421356237309503
10
-331.71249999999998
20
213.42499999999998
10
-319.71250000000003
20
213.42499999999998
42
-0.41421356237310542
10
-318.71249999999998
20
212.42500000000001
10
-318.71249999999998
20
200.42500000000001
42
-0.41421356237309503
10
-319.71250000000003
20
199.42499999999998
10
-331.71249999999998
20
199.42499999999998
42
-0.41421356237309503
0
LWPOLYLINE
5
110
100
AcDbEntity
8
0
100
AcDbPolyline
90
8
70
1
43
0.0
10
-289.85000000000002
20
200.42500000000001
10
-289.84999999999997
20
212.42500000000001
42
-0.41421356237309503
10
-288.84999999999997
20
213.42499999999998
10
-276.84999999999997
20
213.42499999999998
42
-0.41421356237309503
10
-275.85000000000002
20
212.42500000000001
10
-275.84999999999997
20
200.42500000000001
42
-0.41421356237309503
10
-276.84999999999997
20
199.42499999999998
10
-288.84999999999997
20
199.42499999999998
42
-0.41421356237309503
0
LWPOLYLINE
5
111
100
AcDbEntity
8
0
100
AcDbPolyline
90
8
70
1
43
0.0
10
-255.51249999999996
20
161.32499999999999
10
-243.51249999999999
20
161.32500000000005
42
0.4142135623730846
10
-242.51249999999999
20
162.32500000000002
10
-242.51249999999999
20
174.32500000000002
42
0.4142135623730846
10
-243.51249999999999
20
175.32499999999999
10
-255.51249999999996
20
175.32499999999999
42
0.4142135623730846
10
-256.51249999999999
20
174.32500000000002
10
-256.51249999999999
20
162.32500000000002
42
0.4142135623730846
0
LWPOLYLINE
5
112
100
AcDbEntity
8
0
100
AcDbPolyline
90
8
70
1
43
0.0
10
-304.42500000000001
20
219.47499999999997
42
-0.4142135623730846
10
-305.42500000000001
20
218.47499999999999
10
-317.42500000000001
20
218.47499999999999
42
-0.41421356237309503
10
-318.42499999999995
20
219.47499999999997
10
-318.42499999999995
20
231.47500000000002
42
-0.41421356237309503
10
-317.42500000000001
20
232.47499999999999
10
-305.42500000000001
20
232.47500000000002
42
-0.41421356237309503
10
-304.42500000000001
20
231.47500000000002
0
LWPOLYLINE
5
113
100
AcDbEntity
8
0
100
AcDbPolyline
90
8
70
1
43
0.0
10
-337.47500000000002
20
219.47499999999997
10
-337.47500000000002
20
231.47500000000002
42
-0.41421356237309503
10
-336.47500000000002
20
232.47499999999999
10
-324.47499999999997
20
232.47500000000002
42
-0.41421356237309503
10
-323.47499999999997
20
231.47500000000002
10
-323.47499999999997
20
219.47499999999997
42
-0.4142135623730846
10
-324.47499999999997
20
218.47499999999999
10
-336.47500000000002
20
218.47499999999997
42
-0.41421356237309503
0
LWPOLYLINE
5
114
100
AcDbEntity
8
0
100
AcDbPolyline
90
8
70
1
43
0.0
10
-280.32499999999999
20
219.47499999999997
10
-280.32499999999999
20
231.47500000000002
42
-0.41421356237309503
10
-279.32499999999999
20
232.47499999999999
10
-267.32500000000005
20
232.47500000000002
42
-0.41421356237309503
10
-266.32499999999999
20
231.47500000000002
10
-266.32499999999999
20
219.47499999999997
42
-0.4142135623730846
10
-267.32500000000005
20
218.47499999999999
10
-279.32499999999999
20
218.47499999999999
42
-0.41421356237309503
0
LWPOLYLINE
5
115
100
AcDbEntity
8
0
100
AcDbPolyline
90
8
70
1
43
0.0
10
-226.9375
20
194.375
10
-214.9375
20
194.375
42
-0.41421356237309503
10
-213.93749999999997
20
193.375
10
-213.93749999999997
20
181.375
42
-0.41421356237309503
10
-214.9375
20
180.37499999999997
10
-226.9375
20
180.375
42
-0.41421356237309503
10
-227.9375
20
181.375
10
-227.93749999999994
20
193.375
42
-0.41421356237307422
0
LWPOLYLINE
5
116
100
AcDbEntity
8
0
100
AcDbPolyline
90
8
70
1
43
0.0
10
-251.75
20
212.42500000000001
42
-0.41421356237310542
10
-250.75
20
213.42499999999998
10
-238.75
20
213.42500000000001
42
-0.41421356237311585
10
-237.74999999999991
20
212.42500000000001
10
-237.74999999999994
20
200.42500000000001
42
-0.41421356237312623
10
-238.75
20
199.42499999999998
10
-250.75
20
199.42499999999998
42
-0.4142135623730846
10
-251.74999999999997
20
200.42500000000001
0
LWPOLYLINE
5
117
100
AcDbEntity
8
0
100
AcDbPolyline
90
8
70
1
43
0.0
10
-270.79999999999995
20
200.42500000000001
42
0.41421356237309503
10
-269.79999999999995
20
199.42499999999998
10
-257.79999999999995
20
199.42499999999998
42
0.41421356237306384
10
-256.80000000000001
20
200.42500000000001
10
-256.80000000000001
20
212.42500000000001
42
0.4142135623730846
10
-257.80000000000001
20
213.42499999999998
10
-269.80000000000001
20
213.42500000000001
42
0.4142135623730846
10
-270.79999999999995
20
212.42500000000001
0
LWPOLYLINE
5
118
100
AcDbEntity
8
0
100
AcDbPolyline
90
8
70
1
43
0.0
10
-298.375
20
218.47499999999997
42
-0.41421356237309503
10
-299.375
20
219.47499999999997
10
-299.37499999999994
20
231.47500000000002
42
-0.41421356237309503
10
-298.375
20
232.47499999999999
10
-286.375
20
232.47499999999999
42
-0.41421356237309503
10
-285.375
20
231.47500000000002
10
-285.375
20
219.47499999999997
42
-0.41421356237309503
10
-286.375
20
218.47499999999999
0
LWPOLYLINE
5
119
100
AcDbEntity
8
0
100
AcDbPolyline
90
8
70
1
43
0.0
10
-145.97499999999997
20
218.47499999999999
10
-133.97499999999994
20
218.47499999999997
42
0.41421356237307422
10
-132.97499999999999
20
219.47499999999997
10
-132.97499999999991
20
231.47500000000002
42
0.41421356237314705
10
-133.97499999999994
20
232.47499999999999
10
-145.97499999999997
20
232.47500000000002
42
0.41421356237307422
10
-146.97499999999991
20
231.47500000000002
10
-146.97499999999991
20
219.47499999999997
42
0.4142135623730846
0
LWPOLYLINE
5
120
100
AcDbEntity
8
0
100
AcDbPolyline
90
8
70
1
43
0.0
10
-85.349999999999966
20
155.27500000000001
42
0.41421356237310025
10
-86.349999999999937
20
156.27500000000001
10
-98.349999999999937
20
156.27499999999998
42
0.41421356237312101
10
-99.349999999999952
20
155.27500000000001
10
-99.349999999999952
20
143.27500000000001
42
0.41421356237314183
10
-98.349999999999937
20
142.27499999999998
10
-86.349999999999937
20
142.27499999999995
42
0.41421356237306384
10
-85.349999999999966
20
143.27499999999995
0
LWPOLYLINE
5
121
100
AcDbEntity
8
0
100
AcDbPolyline
90
8
70
1
43
0.0
10
-248.27500000000001
20
218.47499999999999
10
-260.27500000000003
20
218.47499999999999
42
-0.4142135623730846
10
-261.27499999999998
20
219.47499999999997
10
-261.27499999999998
20
231.47500000000002
42
-0.4142135623730846
10
-260.27500000000003
20
232.47499999999999
10
-248.27500000000001
20
232.47500000000002
42
-0.41421356237309503
10
-247.27499999999998
20
231.47500000000002
10
-247.27500000000003
20
219.47499999999997
42
-0.41421356237311585
0
LWPOLYLINE
5
122
100
AcDbEntity
8
0
100
AcDbPolyline
90
8
70
1
43
0.0
10
-152.02500000000003
20
219.47499999999997
42
-0.41421356237307422
10
-153.02499999999998
20
218.47499999999997
10
-165.02500000000001
20
218.47499999999997
42
-0.4142135623730534
10
-166.02499999999995
20
219.47499999999997
10
-166.02500000000003
20
231.47500000000002
42
-0.4142135623730534
10
-165.02500000000001
20
232.47500000000002
10
-153.02499999999998
20
232.47500000000002
42
-0.4142135623730846
10
-152.02500000000001
20
231.47500000000002
0
LWPOLYLINE
5
123
100
AcDbEntity
8
0
100
AcDbPolyline
90
8
70
1
43
0.0
10
-332.71249999999998
20
155.27499999999998
42
-0.41421356237310542
10
-331.71249999999998
20
156.27499999999998
10
-319.71250000000003
20
156.27499999999998
42
-0.41421356237310025
10
-318.71249999999998
20
155.27500000000001
10
-318.71249999999998
20
143.27500000000001
42
-0.41421356237310542
10
-319.71250000000003
20
142.27500000000001
10
-331.71249999999998
20
142.27499999999998
42
-0.41421356237309503
10
-332.71250000000003
20
143.27500000000001
0
LWPOLYLINE
5
124
100
AcDbEntity
8
0
100
AcDbPolyline
90
8
70
1
43
0.0
10
-181.59999999999997
20
199.42499999999998
42
0.4142135623730846
10
-180.59999999999999
20
200.42500000000001
10
-180.59999999999999
20
212.42500000000001
42
0.4142135623730846
10
-181.59999999999997
20
213.42500000000001
10
-193.59999999999999
20
213.42499999999998
42
0.41421356237310542
10
-194.59999999999994
20
212.42500000000001
10
-194.60000000000002
20
200.42500000000001
42
0.41421356237309503
10
-193.59999999999999
20
199.42499999999998
0
LWPOLYLINE
5
125
100
AcDbEntity
8
0
100
AcDbPolyline
90
24
70
1
43
0.0
10
-137.4812499999999
20
159.63
10
-256.77500000000003
20
159.62999999999997
42
0.41421356237310542
10
-257.77500000000003
20
158.63
10
-257.77500000000003
20
141.69
42
0.41421356237309503
10
-256.77500000000003
20
140.69
10
-251.77500000000003
20
140.68999999999997
42
0.41421356237309503
10
-250.77500000000001
20
141.69
10
-250.77500000000001
20
155.27500000000001
42
-0.41421356237310025
10
-249.77500000000003
20
156.27500000000001
10
-205.12499999999974
20
156.27500000000001
42
-0.41421356237309503
10
-204.12499999999977
20
155.27499999999998
10
-204.125
20
143.27500000000001
42
0.41421356237313667
10
-203.125
20
142.27500000000001
10
-191.12499999999997
20
142.27500000000003
42
0.41421356237309503
10
-190.125
20
143.27500000000001
10
-190.125
20
155.27499999999998
42
-0.4142135623730846
10
-189.125
20
156.27499999999998
10
-144.48124999999999
20
156.27499999999998
42
-0.41421356237309503
10
-143.48124999999996
20
155.27499999999998
10
-143.48124999999993
20
141.69
42
0.41421356237307422
10
-142.4812499999999
20
140.69000000000005
10
-137.48124999999999
20
140.68999999999997
42
0.41421356237304302
10
-136.48124999999993
20
141.69
10
-136.48124999999996
20
158.63
42
0.41421356237304302
0
LWPOLYLINE
5
126
100
AcDbEntity
8
0
100
AcDbPolyline
90
25
70
1
43
0.0
10
-73.299999999999955
20
215.11999999999998
10
-58.862000000000023
20
215.11999999999998
42
0.41421356237309503
10
-57.862000000000009
20
216.11999999999998
10
-57.862000000000045
20
233.06
42
0.41421356237309503
10
-58.862000000000023
20
234.06
10
-63.862000000000023
20
234.06
42
0.41421356237312623
10
-64.861999999999995
20
233.05999999999997
10
-64.861999999999995
20
218.97500000000011
42
-0.41421356237303258
10
-65.361999999999938
20
218.47500000000008
10
-65.79999999999913
20
218.47500000000002
42
-0.41421356237309503
10
-66.299999999999173
20
218.97500000000002
10
-66.299999999999983
20
231.47500000000002
42
0.4142135623730534
10
-67.300000000000011
20
232.47500000000002
10
-79.299999999999997
20
232.47499999999999
42
0.41421356237310542
10
-80.300000000000011
20
231.47500000000002
10
-80.29999999999994
20
218.97500000000002
42
-0.41421356237313667
10
-80.799999999999955
20
218.47499999999999
10
-81.237999999999914
20
218.47499999999999
42
-0.41421356237313667
10
-81.737999999999928
20
218.97500000000002
10
-81.737999999999928
20
233.05999999999997
42
0.41421356237310542
10
-82.737999999999943
20
234.05999999999995
10
-87.73799999999973
20
234.06
42
0.41421356237310542
10
-88.737999999999744
20
233.06
10
-88.738
20
216.12
42
0.41421356237310542
10
-87.737999999999943
20
215.12
0
LWPOLYLINE
5
127
100
AcDbEntity
8
0
100
AcDbPolyline
90
8
70
1
43
0.0
10
-204.12499999999997
20
219.47499999999997
42
0.41421356237311585
10
-203.125
20
218.47499999999999
10
-191.12499999999997
20
218.47499999999999
42
0.41421356237306384
10
-190.12499999999994
20
219.47499999999997
10
-190.125
20
231.47500000000002
42
0.4142135623730846
10
-191.12499999999997
20
232.47500000000002
10
-203.125
20
232.47500000000002
42
0.41421356237309503
10
-204.125
20
231.47500000000002
0
LWPOLYLINE
5
128
100
AcDbEntity
8
0
100
AcDbPolyline
90
8
70
1
43
0.0
10
-272.08750000000003
20
180.375
10
-284.08749999999998
20
180.37499999999997
42
-0.41421356237309503
10
-285.08749999999998
20
181.375
10
-285.08749999999998
20
193.375
42
-0.41421356237309503
10
-284.08749999999998
20
194.375
10
-272.08750000000003
20
194.375
42
-0.41421356237309503
10
-271.08749999999998
20
193.375
10
-271.08750000000003
20
181.375
42
-0.41421356237309503
0
LWPOLYLINE
5
129
100
AcDbEntity
8
0
100
AcDbPolyline
90
8
70
1
43
0.0
10
-138.73750000000001
20
180.375
10
-150.73749999999993
20
180.37499999999994
42
-0.41421356237306384
10
-151.73750000000001
20
181.375
10
-151.73750000000001
20
193.375
42
-0.41421356237306384
10
-150.73750000000001
20
194.37499999999997
10
-138.73750000000001
20
194.375
42
-0.41421356237309503
10
-137.73750000000001
20
193.375
10
-137.73750000000001
20
181.375
42
-0.41421356237310542
0
LWPOLYLINE
5
130
100
AcDbEntity
8
0
100
AcDbPolyline
90
8
70
1
43
0.0
10
-271.08749999999998
20
143.27500000000001
10
-271.08749999999998
20
155.27500000000001
42
0.41421356237309503
10
-272.08750000000003
20
156.27500000000001
10
-284.08750000000003
20
156.27499999999998
42
0.4142135623730846
10
-285.08749999999998
20
155.27499999999998
10
-285.08749999999998
20
143.27500000000001
42
0.41421356237310542
10
-284.08749999999998
20
142.27500000000003
10
-272.08750000000003
20
142.27500000000006
42
0.41421356237307422
0
LWPOLYLINE
5
131
100
AcDbEntity
8
0
100
AcDbPolyline
90
8
70
1
43
0.0
10
-307.89999999999998
20
156.27500000000001
10
-295.90000000000003
20
156.27499999999998
42
-0.41421356237310025
10
-294.89999999999998
20
155.27500000000001
10
-294.90000000000003
20
143.27500000000001
42
-0.414213562373069
10
-295.89999999999998
20
142.27500000000003
10
-307.89999999999998
20
142.27500000000001
42
-0.41421356237308982
10
-308.89999999999998
20
143.27500000000001
10
-308.89999999999998
20
155.27500000000001
42
-0.41421356237308982
0
LWPOLYLINE
5
132
100
AcDbEntity
8
0
100
AcDbPolyline
90
8
70
1
43
0.0
10
-281.61250000000001
20
161.32499999999999
10
-293.61249999999995
20
161.32499999999999
42
-0.41421356237307422
10
-294.61250000000001
20
162.32500000000002
10
-294.61249999999995
20
174.32500000000002
42
-0.41421356237309503
10
-293.61249999999995
20
175.32499999999999
10
-281.61250000000001
20
175.32499999999999
42
-0.41421356237309503
10
-280.61250000000001
20
174.32500000000002
10
-280.61249999999995
20
162.32500000000002
42
-0.41421356237309503
0
LWPOLYLINE
5
133
100
AcDbEntity
8
0
100
AcDbPolyline
90
8
70
1
43
0.0
10
-85.349999999999966
20
212.42500000000001
42
0.41421356237306384
10
-86.349999999999909
20
213.42500000000004
10
-98.349999999999937
20
213.42499999999998
42
0.41421356237311585
10
-99.349999999999994
20
212.42500000000001
10
-99.349999999999994
20
200.42500000000001
42
0.41421356237311585
10
-98.349999999999937
20
199.42500000000001
10
-86.349999999999909
20
199.42499999999998
42
0.41421356237307422
10
-85.349999999999966
20
200.42500000000001
0
LWPOLYLINE
5
134
100
AcDbEntity
8
0
100
AcDbPolyline
90
8
70
1
43
0.0
10
-75.537500000000009
20
200.42500000000001
10
-75.537500000000009
20
212.42500000000001
42
-0.41421356237310542
10
-74.537499999999994
20
213.42499999999998
10
-62.537500000000001
20
213.42500000000001
42
-0.41421356237307422
10
-61.537500000000058
20
212.42500000000001
10
-61.537499999999987
20
200.42500000000001
42
-0.4142135623730222
10
-62.537500000000001
20
199.42499999999995
10
-74.537499999999994
20
199.42499999999998
42
-0.41421356237309503
0
LWPOLYLINE
5
135
100
AcDbEntity
8
0
100
AcDbPolyline
90
8
70
1
43
0.0
10
-131.68749999999989
20
180.37499999999997
10
-119.6875
20
180.37499999999997
42
0.41421356237309503
10
-118.68749999999999
20
181.375
10
-118.68749999999994
20
193.375
42
0.41421356237310542
10
-119.6875
20
194.375
10
-131.6875
20
194.375
42
0.4142135623730846
10
-132.68749999999997
20
193.375
10
-132.68749999999997
20
181.375
42
0.41421356237313667
0
LWPOLYLINE
5
136
100
AcDbEntity
8
0
100
AcDbPolyline
90
8
70
1
43
0.0
10
-75.537500000000009
20
155.27500000000001
10
-75.537500000000009
20
143.27500000000001
42
0.41421356237314183
10
-74.537499999999994
20
142.27499999999998
10
-62.537500000000001
20
142.27499999999995
42
0.41421356237310542
10
-61.537500000000023
20
143.27499999999998
10
-61.537500000000023
20
155.27500000000001
42
0.41421356237310025
10
-62.537500000000001
20
156.27500000000001
10
-74.537499999999994
20
156.27499999999998
42
0.41421356237312101
0
LWPOLYLINE
5
137
100
AcDbEntity
8
0
100
AcDbPolyline
90
8
70
1
43
0.0
10
-222.17500000000001
20
232.47499999999999
10
-210.17499999999998
20
232.47500000000002
42
-0.4142135623730534
10
-209.17499999999995
20
231.47500000000002
10
-209.17499999999995
20
219.47499999999997
42
-0.41421356237306384
10
-210.17499999999998
20
218.47499999999999
10
-222.17500000000001
20
218.47500000000002
42
-0.41421356237309503
10
-223.17499999999995
20
219.47499999999997
10
-223.17499999999995
20
231.47500000000002
42
-0.41421356237310542
0
LWPOLYLINE
5
138
100
AcDbEntity
8
0
100
AcDbPolyline
90
24
70
1
43
0.0
10
-61.243249999999989
20
197.72999999999999
42
-0.41421356237309503
10
-60.243249999999975
20
196.72999999999999
10
-60.243249999999975
20
179.78999999999999
42
-0.41421356237309503
10
-61.243249999999989
20
178.78999999999996
10
-66.243249999999918
20
178.78999999999996
42
-0.41421356237306384
10
-67.243249999999961
20
179.78999999999999
10
-67.243249999999961
20
193.87499999999991
42
0.4142135623730534
10
-67.743249999999932
20
194.37499999999994
10
-68.18124999999884
20
194.37499999999997
42
0.41421356237311585
10
-68.681249999998855
20
193.875
10
-68.681249999999949
20
181.375
42
-0.4142135623730222
10
-69.681249999999892
20
180.375
10
-81.681249999999963
20
180.375
42
-0.41421356237310542
10
-82.681249999999977
20
181.375
10
-82.681249999999977
20
193.875
42
0.41421356237313667
10
-83.181249999999977
20
194.375
10
-83.619249999999965
20
194.375
42
0.41421356237313667
10
-84.119249999999965
20
193.875
10
-84.119249999999965
20
179.78999999999999
42
-0.41421356237310542
10
-85.119249999999937
20
178.78999999999996
10
-90.119249999999937
20
178.78999999999996
42
-0.41421356237310542
10
-91.119249999999994
20
179.78999999999999
10
-91.119249999999965
20
196.72999999999999
42
-0.4142135623730534
10
-90.119249999999937
20
197.72999999999999
0
LWPOLYLINE
5
139
100
AcDbEntity
8
0
100
AcDbPolyline
90
25
70
1
43
0.0
10
-87.443749999999937
20
174.32499999999999
10
-87.443749999999909
20
161.82499999999999
42
-0.41421356237313667
10
-87.943749999999909
20
161.32499999999996
10
-88.381749999999897
20
161.32499999999996
42
-0.41421356237313667
10
-88.881749999999897
20
161.82499999999999
10
-88.881749999999897
20
175.90999999999997
42
0.4142135623730846
10
-89.881749999999911
20
176.90999999999997
10
-94.881749999999698
20
176.91
42
0.41421356237309503
10
-95.881749999999613
20
175.91000000000003
10
-95.881749999999926
20
158.96999999999997
42
0.4142135623730846
10
-94.881749999999954
20
157.96999999999997
10
-80.443749999999952
20
157.96999999999997
10
-66.005749999999949
20
157.96999999999994
42
0.4142135623730846
10
-65.005749999999978
20
158.96999999999997
10
-65.005749999999978
20
175.91000000000003
42
0.41421356237309503
10
-66.005749999999949
20
176.91
10
-71.005749999999949
20
176.91
42
0.41421356237307422
10
-72.005749999999978
20
175.90999999999997
10
-72.005749999999978
20
161.82500000000007
42
-0.41421356237301177
10
-72.505749999999907
20
161.32500000000007
10
-72.943749999999056
20
161.32499999999999
42
-0.41421356237311585
10
-73.443749999999142
20
161.82499999999999
10
-73.443749999999966
20
174.32499999999999
42
0.41421356237303258
10
-74.443749999999937
20
175.32500000000002
10
-86.443749999999966
20
175.32499999999999
42
0.41421356237312623
0
LWPOLYLINE
5
140
100
AcDbEntity
8
0
100
AcDbPolyline
90
8
70
1
43
0.0
10
-95.874999999999986
20
232.47500000000002
42
-0.41421356237309503
10
-94.874999999999972
20
231.47500000000002
10
-94.874999999999972
20
219.47499999999997
42
-0.41421356237310542
10
-95.874999999999986
20
218.47499999999999
10
-107.87499999999991
20
218.47499999999997
42
-0.4142135623730846
10
-108.87499999999989
20
219.47499999999997
10
-108.87500000000003
20
231.47500000000002
42
-0.41421356237315748
10
-107.87499999999991
20
232.47499999999999
0
LWPOLYLINE
5
141
100
AcDbEntity
8
0
100
AcDbPolyline
90
8
70
1
43
0.0
10
-112.63749999999999
20
194.375
10
-100.63749999999999
20
194.375
42
-0.41421356237309503
10
-99.637499999999974
20
193.375
10
-99.637499999999974
20
181.375
42
-0.41421356237310542
10
-100.63749999999999
20
180.375
10
-112.63749999999999
20
180.37499999999997
42
-0.41421356237307422
10
-113.63749999999993
20
181.375
10
-113.63749999999996
20
193.375
42
-0.41421356237310542
0
LWPOLYLINE
5
142
100
AcDbEntity
8
0
100
AcDbPolyline
90
8
70
1
43
0.0
10
-156.78749999999997
20
181.375
10
-156.78750000000002
20
193.375
42
0.4142135623730534
10
-157.78749999999999
20
194.37500000000003
10
-169.78749999999991
20
194.375
42
0.41421356237307422
10
-170.78749999999999
20
193.375
10
-170.78749999999997
20
181.375
42
0.41421356237309503
10
-169.78749999999991
20
180.375
10
-157.78749999999997
20
180.375
42
0.4142135623730534
0
LWPOLYLINE
5
143
100
AcDbEntity
8
0
100
AcDbPolyline
90
8
70
1
43
0.0
10
-141.21250000000001
20
175.32499999999999
42
0.41421356237307422
10
-142.21249999999998
20
174.32500000000002
10
-142.21249999999998
20
162.32500000000002
42
0.41421356237312623
10
-141.21250000000001
20
161.32499999999993
10
-129.21250000000001
20
161.32499999999999
42
0.41421356237309503
10
-128.21249999999998
20
162.32500000000002
10
-128.21249999999998
20
174.32500000000002
42
0.41421356237310542
10
-129.21250000000001
20
175.32499999999999
0
LWPOLYLINE
5
144
100
AcDbEntity
8
0
100
AcDbPolyline
90
8
70
1
43
0.0
10
-122.16249999999995
20
161.32499999999993
10
-110.16249999999999
20
161.32500000000005
42
0.4142135623730846
10
-109.16249999999991
20
162.32500000000002
10
-109.16249999999991
20
174.32500000000002
42
0.41421356237313667
10
-110.16249999999999
20
175.32500000000002
10
-122.16249999999999
20
175.32499999999999
42
0.41421356237307422
10
-123.16249999999997
20
174.32500000000002
10
-123.16249999999997
20
162.32500000000002
42
0.41421356237309503
0
LWPOLYLINE
5
145
100
AcDbEntity
8
0
100
AcDbPolyline
90
8
70
1
43
0.0
10
-118.40000000000001
20
200.42500000000001
10
-118.40000000000001
20
212.42500000000001
42
-0.4142135623730534
10
-117.39999999999998
20
213.42500000000001
10
-105.39999999999999
20
213.42500000000001
42
-0.41421356237309503
10
-104.39999999999998
20
212.42500000000001
10
-104.39999999999995
20
200.42500000000001
42
-0.41421356237309503
10
-105.39999999999999
20
199.42499999999995
10
-117.39999999999998
20
199.42499999999995
42
-0.41421356237304302
0
LWPOLYLINE
5
146
100
AcDbEntity
8
0
100
AcDbPolyline
90
8
70
1
43
0.0
10
-184.07499999999999
20
232.47499999999999
10
-172.07499999999999
20
232.47500000000005
42
-0.41421356237304302
10
-171.07499999999999
20
231.47500000000002
10
-171.07499999999999
20
219.47499999999997
42
-0.4142135623730534
10
-172.07499999999999
20
218.47499999999997
10
-184.07499999999999
20
218.47500000000002
42
-0.41421356237309503
10
-185.07499999999993
20
219.47499999999997
10
-185.07499999999996
20
231.47500000000002
42
-0.41421356237313667
0
LWPOLYLINE
5
147
100
AcDbEntity
8
0
100
AcDbPolyline
90
8
70
1
43
0.0
10
-174.55000000000013
20
199.42499999999995
42
-0.4142135623730846
10
-175.55000000000001
20
200.42500000000001
10
-175.55000000000004
20
212.42500000000001
42
-0.4142135623730534
10
-174.55000000000001
20
213.42500000000001
10
-162.54999999999995
20
213.42500000000001
42
-0.41421356237309503
10
-161.54999999999995
20
212.42500000000001
10
-161.5499999999999
20
200.42500000000001
42
-0.41421356237309503
10
-162.54999999999995
20
199.42499999999995
0
ARC
5
148
100
AcDbEntity
8
0
100
AcDbCircle
10
-95.874999999999986
20
231.47500000000002
30
0
40
1.0000000000000142
210
0
220
-0
230
1
100
AcDbArc
50
0
51
90
0
LWPOLYLINE
5
149
100
AcDbEntity
8
0
100
AcDbPolyline
90
8
70
1
43
0.0
10
-195.88749999999999
20
194.375
42
-0.41421356237309503
10
-194.88749999999996
20
193.375
10
-194.88749999999996
20
181.375
42
-0.41421356237309503
10
-195.88749999999999
20
180.37499999999997
10
-207.88749999999999
20
180.375
42
-0.41421356237309503
10
-208.88749999999999
20
181.375
10
-208.88750000000002
20
193.375
42
-0.41421356237309503
10
-207.88749999999999
20
194.375
0
LWPOLYLINE
5
150
100
AcDbEntity
8
0
100
AcDbPolyline
90
8
70
1
43
0.0
10
-188.83749999999992
20
194.375
10
-176.83750000000001
20
194.37500000000003
42
-0.41421356237303258
10
-175.83749999999995
20
193.375
10
-175.83749999999995
20
181.375
42
-0.4142135623730534
10
-176.83749999999986
20
180.375
10
-188.83749999999995
20
180.375
42
-0.4142135623730534
10
-189.83749999999986
20
181.375
10
-189.83749999999986
20
193.375
42
-0.41421356237307422
0
LWPOLYLINE
5
151
100
AcDbEntity
8
0
100
AcDbPolyline
90
8
70
1
43
0.0
10
-122.16249999999999
20
142.27499999999995
42
-0.4142135623730846
10
-123.16249999999994
20
143.27500000000001
10
-123.16249999999997
20
155.27500000000001
42
-0.41421356237312101
10
-122.16249999999995
20
156.27499999999998
10
-110.16249999999999
20
156.27500000000003
42
-0.41421356237307422
10
-109.16250000000005
20
155.27500000000003
10
-109.16249999999994
20
143.27499999999995
42
-0.41421356237310025
10
-110.16249999999999
20
142.27499999999995
0
LWPOLYLINE
5
152
100
AcDbEntity
8
0
100
AcDbPolyline
90
8
70
1
43
0.0
10
-147.26249999999993
20
174.32500000000002
10
-147.26249999999993
20
162.32500000000002
42
-0.41421356237298057
10
-148.26249999999999
20
161.32499999999999
10
-160.26249999999999
20
161.32499999999996
42
-0.41421356237312623
10
-161.26249999999999
20
162.32500000000002
10
-161.26249999999999
20
174.32500000000002
42
-0.41421356237310542
10
-160.26249999999999
20
175.32499999999999
10
-148.26249999999999
20
175.32500000000002
42
-0.4142135623730222
0
LWPOLYLINE
5
153
100
AcDbEntity
8
0
100
AcDbPolyline
90
8
70
1
43
0.0
10
-199.65000000000001
20
212.42500000000001
10
-199.65000000000001
20
200.42500000000001
42
-0.41421356237306384
10
-200.64999999999998
20
199.42499999999998
10
-212.65000000000001
20
199.42499999999998
42
-0.41421356237309503
10
-213.65000000000003
20
200.42500000000001
10
-213.65000000000003
20
212.42500000000001
42
-0.41421356237309503
10
-212.65000000000001
20
213.42500000000001
10
-200.64999999999998
20
213.42499999999998
42
-0.41421356237307422
0
ARC
5
154
100
AcDbEntity
8
0
100
AcDbCircle
10
-95.874999999999943
20
219.47499999999997
30
0
40
0.99999999999997868
210
0
220
0
230
1
100
AcDbArc
50
-90.000000000002444
51
0
0
LINE
5
155
100
AcDbEntity
8
0
100
AcDbLine
10
-108.87500000000003
20
231.47500000000002
30
0
11
-108.87499999999989
21
219.47499999999997
31
0
0
LWPOLYLINE
5
156
100
AcDbEntity
8
0
100
AcDbPolyline
90
8
70
1
43
0.0
10
-136.44999999999996
20
213.42499999999998
10
-124.44999999999993
20
213.42500000000001
42
-0.41421356237313667
10
-123.44999999999992
20
212.42500000000001
10
-123.44999999999992
20
200.42500000000001
42
-0.41421356237313667
10
-124.44999999999993
20
199.42499999999998
10
-136.44999999999996
20
199.42499999999998
42
-0.41421356237309503
10
-137.44999999999999
20
200.42500000000001
10
-137.44999999999999
20
212.42500000000001
42
-0.41421356237310542
0
LINE
5
157
100
AcDbEntity
8
0
100
AcDbLine
10
-94.874999999999972
20
219.47499999999997
30
0
11
-94.874999999999972
21
231.47500000000002
31
0
0
LWPOLYLINE
5
158
100
AcDbEntity
8
0
100
AcDbPolyline
90
8
70
1
43
0.0
10
-274.5625
20
161.32499999999999
42
-0.4142135623730846
10
-275.5625
20
162.32500000000002
10
-275.5625
20
174.32500000000002
42
-0.41421356237309503
10
-274.5625
20
175.32499999999999
10
-262.5625
20
175.32500000000002
42
-0.41421356237309503
10
-261.5625
20
174.32500000000002
10
-261.5625
20
162.32500000000002
42
-0.41421356237309503
10
-262.5625
20
161.32499999999999
0
LWPOLYLINE
5
159
100
AcDbEntity
8
0
100
AcDbPolyline
90
8
70
1
43
0.0
10
-156.49999999999991
20
200.42500000000001
10
-156.5
20
212.42500000000001
42
-0.41421356237310542
10
-155.5
20
213.42500000000001
10
-143.49999999999991
20
213.42500000000001
42
-0.41421356237307422
10
-142.49999999999997
20
212.42500000000001
10
-142.49999999999994
20
200.42500000000001
42
-0.4142135623730846
10
-143.49999999999991
20
199.42499999999998
10
-155.5
20
199.42499999999998
42
-0.41421356237310542
0
LWPOLYLINE
5
160
100
AcDbEntity
8
0
100
AcDbPolyline
90
8
70
1
43
0.0
10
-228.22499999999997
20
219.47499999999997
42
-0.41421356237312623
10
-229.22499999999999
20
218.47499999999999
10
-241.22499999999999
20
218.47499999999999
42
-0.41421356237311585
10
-242.22499999999997
20
219.47499999999997
10
-242.22499999999997
20
231.47500000000002
42
-0.41421356237311585
10
-241.22499999999999
20
232.47499999999999
10
-229.22499999999999
20
232.47499999999999
42
-0.4142135623730846
10
-228.22499999999997
20
231.47500000000002
0
LINE
5
161
100
AcDbEntity
8
0
100
AcDbLine
10
-95.874999999999986
20
232.47500000000002
30
0
11
-107.87499999999991
21
232.47499999999999
31
0
0
LWPOLYLINE
5
162
100
AcDbEntity
8
0
100
AcDbPolyline
90
8
70
1
43
0.0
10
-218.70000000000002
20
212.42500000000001
10
-218.69999999999999
20
200.42500000000001
42
-0.41421356237309503
10
-219.69999999999999
20
199.42499999999998
10
-231.70000000000002
20
199.42499999999998
42
-0.4142135623730846
10
-232.69999999999999
20
200.42500000000001
10
-232.69999999999999
20
212.42500000000001
42
-0.41421356237307422
10
-231.70000000000002
20
213.42499999999998
10
-219.69999999999999
20
213.42500000000001
42
-0.41421356237310542
0
LINE
5
163
100
AcDbEntity
8
0
100
AcDbLine
10
-107.87499999999991
20
218.47499999999999
30
0
11
-95.874999999999986
21
218.47499999999999
31
0
0
LWPOLYLINE
5
164
100
AcDbEntity
8
0
100
AcDbPolyline
90
8
70
1
43
0.0
10
-204.41249999999997
20
174.32500000000002
10
-204.41249999999997
20
162.32500000000002
42
-0.41421356237311585
10
-205.41249999999997
20
161.32499999999999
10
-217.41250000000002
20
161.32500000000005
42
-0.41421356237309503
10
-218.41249999999999
20
162.32500000000002
10
-218.41249999999999
20
174.32500000000002
42
-0.41421356237309503
10
-217.41250000000002
20
175.32499999999999
10
-205.41249999999994
20
175.32499999999999
42
-0.41421356237307422
0
ARC
5
165
100
AcDbEntity
8
0
100
AcDbCircle
10
-107.87500000000009
20
231.47500000000005
30
0
40
0.99999999999994316
210
0
220
-0
230
1
100
AcDbArc
50
89.999999999990237
51
180
0
LWPOLYLINE
5
166
100
AcDbEntity
8
0
100
AcDbPolyline
90
8
70
1
43
0.0
10
-198.36250000000001
20
161.32499999999996
42
-0.41421356237307422
10
-199.36249999999998
20
162.32500000000002
10
-199.36249999999995
20
174.32500000000002
42
-0.41421356237306384
10
-198.36250000000001
20
175.32499999999999
10
-186.36250000000001
20
175.32499999999999
42
-0.41421356237307422
10
-185.36250000000001
20
174.32500000000002
10
-185.36249999999998
20
162.32500000000002
42
-0.41421356237309503
10
-186.36250000000001
20
161.32499999999999
0
ARC
5
167
100
AcDbEntity
8
0
100
AcDbCircle
10
-107.87499999999987
20
219.47499999999997
30
0
40
1.0000000000000142
210
0
220
0
230
1
100
AcDbArc
50
180
51
269.99999999999756
0
LWPOLYLINE
5
168
100
AcDbEntity
8
0
100
AcDbPolyline
90
14
70
1
43
0.0
10
-313.82602033088529
20
242.61590123193753
10
-314.30505901492444
20
239.25
10
-327.59494098507554
20
239.25
10
-328.07397966911469
20
242.61590123193753
42
0.37338743347353526
10
-329.06400332683131
20
243.47499999999997
10
-343.47499999999997
20
243.47499999999997
42
0.41421356237309503
10
-345.47500000000002
20
241.47499999999997
10
-345.47500000000002
20
133.27499999999992
42
0.41421356237310542
10
-343.47499999999997
20
131.27499999999998
10
-50.775000000000006
20
131.27499999999998
42
0.41421356237309503
10
-48.774999999999977
20
133.27499999999992
10
-48.774999999999977
20
241.47499999999997
42
0.41421356237309503
10
-50.775000000000006
20
243.47499999999997
10
-312.83599667316867
20
243.47499999999997
42
0.37338743347353526
0
CIRCLE
5
169
100
AcDbEntity
8
0
100
AcDbCircle
10
-340.47500000000002
20
239.47499999999994
30
0
40
3.0000000000000004
210
0
220
0
230
1
0
CIRCLE
5
170
100
AcDbEntity
8
0
100
AcDbCircle
10
-244.90833333333327
20
239.47499999999994
30
0
40
3.0000000000000071
210
0
220
0
230
1
0
CIRCLE
5
171
100
AcDbEntity
8
0
100
AcDbCircle
10
-149.34166666666664
20
239.47499999999994
30
0
40
3.0000000000000071
210
0
220
0
230
1
0
CIRCLE
5
172
100
AcDbEntity
8
0
100
AcDbCircle
10
-53.774999999999977
20
239.47499999999994
30
0
40
3.0000000000000071
210
0
220
0
230
1
0
CIRCLE
5
173
100
AcDbEntity
8
0
100
AcDbCircle
10
-53.774999999999977
20
135.27499999999998
30
0
40
2.9999999999999916
210
0
220
0
230
1
0
CIRCLE
5
174
100
AcDbEntity
8
0
100
AcDbCircle
10
-149.34166666666664
20
135.27499999999998
30
0
40
3.0000000000000071
210
0
220
0
230
1
0
CIRCLE
5
175
100
AcDbEntity
8
0
100
AcDbCircle
10
-244.90833333333336
20
135.27499999999998
30
0
40
2.9999999999999947
210
0
220
0
230
1
0
CIRCLE
5
176
100
AcDbEntity
8
0
100
AcDbCircle
10
-340.47500000000002
20
135.27499999999998
30
0
40
3.0000000000000031
210
0
220
0
230
1
0
ENDSEC
0
SECTION
2
OBJECTS
0
DICTIONARY
5
C
100
AcDbDictionary
3
ACAD_GROUP
350
D
3
ACAD_MLINESTYLE
350
17
0
DICTIONARY
5
D
100
AcDbDictionary
0
DICTIONARY
5
1A
330
C
100
AcDbDictionary
0
DICTIONARY
5
17
100
AcDbDictionary
0
ENDSEC
0
EOF
