0
SECTION
2
HEADER
9
$INSUNITS
70
4
9
$ACADVER
1
AC1014
9
$HANDSEED
5
FFFF
0
ENDSEC
0
SECTION
2
TABLES
0
TABLE
2
VPORT
5
8
100
AcDbSymbolTable
0
ENDTAB
0
TABLE
2
LTYPE
5
5
100
AcDbSymbolTable
0
LTYPE
5
14
100
AcDbSymbolTableRecord
100
AcDbLinetypeTableRecord
2
BYBLOCK
70
0
0
LTYPE
5
15
100
AcDbSymbolTableRecord
100
AcDbLinetypeTableRecord
2
BYLAYER
70
0
0
ENDTAB
0
TABLE
2
LAYER
5
2
100
AcDbSymbolTable
70
2
0
LAYER
5
50
100
AcDbSymbolTableRecord
100
AcDbLayerTableRecord
2
0
70
0
6
CONTINUOUS
0
ENDTAB
0
TABLE
2
STYLE
5
3
100
AcDbSymbolTable
70
1
0
STYLE
5
11
100
AcDbSymbolTableRecord
100
AcDbTextStyleTableRecord
2
STANDARD
70
0
0
ENDTAB
0
TABLE
2
VIEW
5
6
100
AcDbSymbolTable
70
0
0
ENDTAB
0
TABLE
2
UCS
5
7
100
AcDbSymbolTable
70
0
0
ENDTAB
0
TABLE
2
APPID
5
9
100
AcDbSymbolTable
70
2
0
APPID
5
12
100
AcDbSymbolTableRecord
100
AcDbRegAppTableRecord
2
ACAD
70
0
0
ENDTAB
0
TABLE
2
DIMSTYLE
5
A
100
AcDbSymbolTable
70
1
0
ENDTAB
0
TABLE
2
BLOCK_RECORD
5
1
100
AcDbSymbolTable
70
1
0
BLOCK_RECORD
5
1F
100
AcDbSymbolTableRecord
100
AcDbBlockTableRecord
2
*MODEL_SPACE
0
BLOCK_RECORD
5
1B
100
AcDbSymbolTableRecord
100
AcDbBlockTableRecord
2
*PAPER_SPACE
0
ENDTAB
0
ENDSEC
0
SECTION
2
BLOCKS
0
BLOCK
5
20
100
AcDbEntity
100
AcDbBlockBegin
2
*MODEL_SPACE
0
ENDBLK
5
21
100
AcDbEntity
100
AcDbBlockEnd
0
BLOCK
5
1C
100
AcDbEntity
100
AcDbBlockBegin
2
*PAPER_SPACE
0
ENDBLK
5
1D
100
AcDbEntity
100
AcDbBlockEnd
0
ENDSEC
0
SECTION
2
ENTITIES
0
LWPOLYLINE
5
100
100
AcDbEntity
8
0
100
AcDbPolyline
90
20
70
1
43
0.0
10
-58.775000000000048
20
-101.72500000000007
42
-0.41421356237309503
10
-60.775000000000006
20
-103.72500000000002
10
-353.47499999999997
20
-103.72500000000002
42
-0.41421356237310542
10
-355.47500000000002
20
-101.72500000000007
10
-355.47500000000002
20
6.474999999999973
42
-0.41421356237309503
10
-353.47499999999997
20
8.4749999999999659
10
-339.06729540169493
20
8.474999999999941
42
-0.3732377824525403
10
-338.07734590803375
20
7.6164213562372396
10
-337.27539775485747
20
2.0027842840018932
42
-0.035489151692916561
10
-337.26132704598308
20
1.8047943852696935
10
-337.26132704598314
20
-7.5957106781186621
42
0.41421356237325502
10
-336.76132704598308
20
-8.0957106781186621
10
-325.1386729540169
20
-8.095710678118623
42
0.41421356237325568
10
-324.6386729540169
20
-7.5957106781186612
10
-324.6386729540169
20
1.8047943852696959
42
-0.035489151692916561
10
-324.62460224514251
20
2.002784284001895
10
-323.82265409196623
20
7.6164213562372387
42
-0.3732377824525403
10
-322.83270459830504
20
8.4749999999999304
10
-60.775000000000006
20
8.4750000000000014
42
-0.41421356237309503
10
-58.774999999999977
20
6.474999999999973
0
CIRCLE
5
101
100
AcDbEntity
8
0
100
AcDbCircle
10
-254.90833333333336
20
-99.725000000000037
30
0
40
1.750000000000004
210
0
220
0
230
1
0
CIRCLE
5
102
100
AcDbEntity
8
0
100
AcDbCircle
10
-63.774999999999977
20
-99.725000000000037
30
0
40
1.7500000000000058
210
0
220
0
230
1
0
CIRCLE
5
103
100
AcDbEntity
8
0
100
AcDbCircle
10
-159.34166666666664
20
4.4749999999999801
30
0
40
2.9999999999999716
210
0
220
0
230
1
0
LINE
5
104
100
AcDbEntity
8
0
100
AcDbLine
10
-301.47160419266049
20
-92.889785428340375
30
0
11
-301.47160419266049
21
-89.491543241689939
31
0
0
CIRCLE
5
105
100
AcDbEntity
8
0
100
AcDbCircle
10
-254.90833333333327
20
4.4749999999999801
30
0
40
2.9999999999999716
210
0
220
0
230
1
0
LINE
5
106
100
AcDbEntity
8
0
100
AcDbLine
10
-324.21132761788277
20
-89.451235624512506
30
0
11
-325.33994089885061
21
-86.532550729408868
31
0
0
SPLINE
5
107
100
AcDbEntity
8
0
100
AcDbSpline
70
0
71
3
72
8
73
4
74
0
42
0.000000001
43
0.0000000001
44
0.0000000001
40
25
40
25
40
25
40
25
40
26
40
26
40
26
40
26
10
-331.82636667847902
20
-89.24452989539752
30
0
10
-331.58658803270561
20
-89.1756279856925
30
0
10
-331.4666987098189
20
-89.037824166282533
30
0
10
-331.4666987098189
20
-88.831118437167547
30
0
0
SPLINE
5
108
100
AcDbEntity
8
0
100
AcDbSpline
70
0
71
3
72
10
73
6
74
0
42
0.000000001
43
0.0000000001
44
0.0000000001
40
18
40
18
40
18
40
18
40
19
40
19
40
20
40
20
40
20
40
20
10
-340.04498646809105
20
-83.837108021749387
30
0
10
-340.04498646809105
20
-83.80679118147917
30
0
10
-340.04085235350874
20
-83.786120608567671
30
0
10
-340.02431589517948
20
-83.764071997462111
30
0
10
-340.00226728407392
20
-83.75855984468572
30
0
10
-339.96643829102732
20
-83.75855984468572
30
0
0
LINE
5
109
100
AcDbEntity
8
0
100
AcDbLine
10
-323.77724558674123
20
-85.738800729607334
30
0
11
-321.93756459761789
21
-85.738800729607334
31
0
0
SPLINE
5
110
100
AcDbEntity
8
0
100
AcDbSpline
70
0
71
3
72
8
73
4
74
0
42
0.000000001
43
0.0000000001
44
0.0000000001
40
12
40
12
40
12
40
12
40
13
40
13
40
13
40
13
10
-340.9214187595386
20
-89.459503853677091
30
0
10
-340.94346737064416
20
-89.459503853677091
30
0
10
-340.95449167619699
20
-89.448479548124311
30
0
10
-340.95449167619699
20
-89.42643093701875
30
0
0
SPLINE
5
111
100
AcDbEntity
8
0
100
AcDbSpline
70
0
71
3
72
8
73
4
74
0
42
0.000000001
43
0.0000000001
44
0.0000000001
40
10
40
10
40
10
40
10
40
11
40
11
40
11
40
11
10
-338.39960886433568
20
-89.42643093701875
30
0
10
-338.39960886433568
20
-89.448479548124311
30
0
10
-338.41063316988851
20
-89.459503853677091
30
0
10
-338.43268178099407
20
-89.459503853677091
30
0
0
SPLINE
5
112
100
AcDbEntity
8
0
100
AcDbSpline
70
0
71
3
72
12
73
8
74
0
42
0.000000001
43
0.0000000001
44
0.0000000001
40
27
40
27
40
27
40
27
40
28
40
28
40
29
40
29
40
30
40
30
40
30
40
30
10
-331.4666987098189
20
-86.962498645968083
30
0
10
-331.4666987098189
20
-86.83296305572263
30
0
10
-331.53766767681503
20
-86.687580026245143
30
0
10
-331.82154354479962
20
-86.365119088825679
30
0
10
-331.95728030691845
20
-86.284503854470884
30
0
10
-332.21635148740927
20
-86.284503854470884
30
0
10
-332.39549645264225
20
-86.336869305846662
30
0
10
-332.62425079286288
20
-86.441600208598288
30
0
0
SPLINE
5
113
100
AcDbEntity
8
0
100
AcDbSpline
70
0
71
3
72
29
73
25
74
0
42
0.000000001
43
0.0000000001
44
0.0000000001
40
0
40
0
40
0
40
0
40
1
40
1
40
1
40
2
40
2
40
2
40
3
40
3
40
3
40
4
40
4
40
4
40
5
40
5
40
5
40
6
40
6
40
6
40
7
40
7
40
7
40
8
40
8
40
8
40
8
10
-333.75079701653954
20
-89.418162707854094
30
0
10
-333.85690595748531
20
-89.520137534217525
30
0
10
-333.9829964522454
20
-89.571124947399241
30
0
10
-334.12906850081993
20
-89.571124947399241
30
0
10
-334.27789662578277
20
-89.571124947399241
30
0
10
-334.40467613963995
20
-89.520826553314521
30
0
10
-334.50940704239156
20
-89.420229765145294
30
0
10
-334.61413794514317
20
-89.319632976975996
30
0
10
-334.66650339651898
20
-89.193542482215804
30
0
10
-334.66650339651898
20
-89.041958280864861
30
0
10
-334.66650339651898
20
-88.890374079513848
30
0
10
-334.61344892604609
20
-88.761527508365532
30
0
10
-334.50733998510037
20
-88.655418567419844
30
0
10
-334.40123104415471
20
-88.549309626474155
30
0
10
-334.27514054939456
20
-88.49625515600124
30
0
10
-334.12906850081993
20
-88.49625515600124
30
0
10
-333.98024037585719
20
-88.49625515600124
30
0
10
-333.85346086200002
20
-88.550687664668217
30
0
10
-333.74872995924841
20
-88.659552682002101
30
0
10
-333.64399905649685
20
-88.768417699335984
30
0
10
-333.59163360512099
20
-88.896575251387304
30
0
10
-333.59163360512099
20
-89.04402533815599
30
0
10
-333.59163360512099
20
-89.191475424924676
30
0
10
-333.64468807559382
20
-89.316187881490734
30
0
10
-333.75079701653954
20
-89.418162707854094
30
0
0
SPLINE
5
114
100
AcDbEntity
8
0
100
AcDbSpline
70
0
71
3
72
8
73
4
74
0
42
0.000000001
43
0.0000000001
44
0.0000000001
40
24
40
24
40
24
40
24
40
25
40
25
40
25
40
25
10
-338.26318308311977
20
-85.098012969350805
30
0
10
-338.29901207616638
20
-85.169670955444019
30
0
10
-338.32657284004836
20
-85.205499948490626
30
0
10
-338.34586537476576
20
-85.205499948490626
30
0
0
SPLINE
5
115
100
AcDbEntity
8
0
100
AcDbSpline
70
0
71
3
72
8
73
4
74
0
42
0.000000001
43
0.0000000001
44
0.0000000001
40
20
40
20
40
20
40
20
40
21
40
21
40
21
40
21
10
-323.70283152425992
20
-89.442967395347921
30
0
10
-323.73590444091826
20
-89.528405763382111
30
0
10
-323.76622128118845
20
-89.571124947399241
30
0
10
-323.79378204507049
20
-89.571124947399241
30
0
0
LINE
5
116
100
AcDbEntity
8
0
100
AcDbLine
10
-338.39960886433568
20
-89.327212187043514
30
0
11
-338.39960886433568
21
-89.42643093701875
31
0
0
SPLINE
5
117
100
AcDbEntity
8
0
100
AcDbSpline
70
0
71
3
72
11
73
7
74
0
42
0.000000001
43
0.0000000001
44
0.0000000001
40
14
40
14
40
14
40
14
40
15
40
15
40
15
40
16
40
16
40
16
40
16
10
-340.95449167619699
20
-89.327212187043514
30
0
10
-340.95449167619699
20
-89.305163575937883
30
0
10
-340.94346737064416
20
-89.294139270385102
30
0
10
-340.9214187595386
20
-89.294139270385102
30
0
10
-340.50800730130857
20
-89.294139270385102
30
0
10
-340.23377770068271
20
-89.254176162756238
30
0
10
-340.09872995766091
20
-89.174249947498438
30
0
0
SPLINE
5
118
100
AcDbEntity
8
0
100
AcDbSpline
70
0
71
3
72
8
73
4
74
0
42
0.000000001
43
0.0000000001
44
0.0000000001
40
13
40
13
40
13
40
13
40
14
40
14
40
14
40
14
10
-329.43684844990969
20
-88.595473905976476
30
0
10
-329.42858022074512
20
-88.595473905976476
30
0
10
-329.4216900297746
20
-88.598229982364671
30
0
10
-329.41617787699818
20
-88.603742135141061
30
0
0
LINE
5
119
100
AcDbEntity
8
0
100
AcDbLine
10
-330.82177683498014
20
-86.644171823130947
30
0
11
-330.82177683498014
21
-88.831118437167547
31
0
0
SPLINE
5
120
100
AcDbEntity
8
0
100
AcDbSpline
70
0
71
3
72
8
73
4
74
0
42
0.000000001
43
0.0000000001
44
0.0000000001
40
0
40
0
40
0
40
0
40
1
40
1
40
1
40
1
10
-338.37067006225959
20
-85.201365833908298
30
0
10
-338.66832631218517
20
-85.05804986172194
30
0
10
-338.99629940238094
20
-84.843075903442298
30
0
10
-339.3545893328469
20
-84.556443959069583
30
0
0
SPLINE
5
121
100
AcDbEntity
8
0
100
AcDbSpline
70
0
71
3
72
16
73
12
74
0
42
0.000000001
43
0.0000000001
44
0.0000000001
40
10
40
10
40
10
40
10
40
11
40
11
40
12
40
12
40
13
40
13
40
14
40
14
40
15
40
15
40
15
40
15
10
-330.28020782469889
20
-86.148078073254979
30
0
10
-330.23886667887587
20
-86.170126684360611
30
0
10
-330.21819610596435
20
-86.196998429145566
30
0
10
-330.21819610596435
20
-86.260388186074124
30
0
10
-330.22301923964369
20
-86.281058758985623
30
0
10
-330.24231177436116
20
-86.300351293702988
30
0
10
-330.26573842366082
20
-86.310686580158773
30
0
10
-330.34015248614224
20
-86.332735191264334
30
0
10
-330.39045088022692
20
-86.344448515914252
30
0
10
-330.51723039408409
20
-86.369253203408007
30
0
10
-330.57648603643037
20
-86.385100642640182
30
0
10
-330.63160756419438
20
-86.404393177357548
30
0
0
SPLINE
5
122
100
AcDbEntity
8
0
100
AcDbSpline
70
0
71
3
72
8
73
4
74
0
42
0.000000001
43
0.0000000001
44
0.0000000001
40
11
40
11
40
11
40
11
40
12
40
12
40
12
40
12
10
-323.50025990972716
20
-85.912433542063837
30
0
10
-323.62703942358439
20
-85.915189618452104
30
0
10
-323.71523386800675
20
-85.906921389287447
30
0
10
-323.7648432429944
20
-85.887628854570082
30
0
0
SPLINE
5
123
100
AcDbEntity
8
0
100
AcDbSpline
70
0
71
3
72
10
73
6
74
0
42
0.000000001
43
0.0000000001
44
0.0000000001
40
10
40
10
40
10
40
10
40
11
40
11
40
12
40
12
40
12
40
12
10
-329.54846954363177
20
-88.686424426787056
30
0
10
-329.53468916169078
20
-88.678156197622471
30
0
10
-329.52021976065276
20
-88.660930720196234
30
0
10
-329.48990292038252
20
-88.608565268820385
30
0
10
-329.47405548115046
20
-88.595473905976476
30
0
10
-329.4575190228212
20
-88.595473905976476
30
0
0
LINE
5
124
100
AcDbEntity
8
0
100
AcDbLine
10
-322.60729115995042
20
-86.478807239838957
30
0
11
-323.70283152425992
21
-89.442967395347921
31
0
0
LINE
5
125
100
AcDbEntity
8
0
100
AcDbLine
10
-339.44553985365752
20
-84.490298125752759
30
0
11
-339.44553985365752
21
-88.893130155902043
31
0
0
LINE
5
126
100
AcDbEntity
8
0
100
AcDbLine
10
-338.34586537476576
20
-85.205499948490626
30
0
11
-338.37067006225959
21
-85.201365833908298
31
0
0
SPLINE
5
127
100
AcDbEntity
8
0
100
AcDbSpline
70
0
71
3
72
8
73
4
74
0
42
0.000000001
43
0.0000000001
44
0.0000000001
40
10
40
10
40
10
40
10
40
11
40
11
40
11
40
11
10
-323.1902013160547
20
-86.160480417001892
30
0
10
-323.1902013160547
20
-85.989603680933442
30
0
10
-323.2935541806122
20
-85.906921389287447
30
0
10
-323.50025990972716
20
-85.912433542063837
30
0
0
SPLINE
5
128
100
AcDbEntity
8
0
100
AcDbSpline
70
0
71
3
72
10
73
6
74
0
42
0.000000001
43
0.0000000001
44
0.0000000001
40
8
40
8
40
8
40
8
40
9
40
9
40
10
40
10
40
10
40
10
10
-305.13029559799583
20
-83.941494414952444
30
0
10
-305.13029559799583
20
-83.883616810800277
30
0
10
-305.12719501205908
20
-83.847443308205101
30
0
10
-305.11479266831225
20
-83.818504506129017
30
0
10
-305.09308856675511
20
-83.811269805609996
30
0
10
-305.05588153551446
20
-83.811269805609996
30
0
0
SPLINE
5
129
100
AcDbEntity
8
0
100
AcDbSpline
70
0
71
3
72
8
73
4
74
0
42
0.000000001
43
0.0000000001
44
0.0000000001
40
9
40
9
40
9
40
9
40
10
40
10
40
10
40
10
10
-328.41985626266393
20
-89.492576770335504
30
0
10
-328.85256025561137
20
-89.343748645372756
30
0
10
-329.22876468260063
20
-89.075031197523202
30
0
10
-329.54846954363177
20
-88.686424426787056
30
0
0
SPLINE
5
130
100
AcDbEntity
8
0
100
AcDbSpline
70
0
71
3
72
8
73
4
74
0
42
0.000000001
43
0.0000000001
44
0.0000000001
40
31
40
31
40
31
40
31
40
32
40
32
40
32
40
32
10
-332.76894480324336
20
-86.495343698168199
30
0
10
-332.83233456017194
20
-86.495343698168199
30
0
10
-332.89572431710053
20
-86.430575903045508
30
0
10
-332.95911407402912
20
-86.301040312800055
30
0
0
SPLINE
5
131
100
AcDbEntity
8
0
100
AcDbSpline
70
0
71
3
72
10
73
6
74
0
42
0.000000001
43
0.0000000001
44
0.0000000001
40
0
40
0
40
0
40
0
40
1
40
1
40
2
40
2
40
2
40
2
10
-318.0473366103916
20
-83.631435821279965
30
0
10
-318.0183978083154
20
-83.771995717078198
30
0
10
-317.96155373280885
20
-84.001439076395812
30
0
10
-317.79205503493461
20
-84.638092722070013
30
0
10
-317.74347918859257
20
-84.86133490951417
30
0
10
-317.73107684484563
20
-84.989492461565419
30
0
0
LINE
5
132
100
AcDbEntity
8
0
100
AcDbLine
10
-328.15011454240926
20
-86.962498645968083
30
0
11
-328.15011454240926
21
-87.280825468805148
31
0
0
SPLINE
5
133
100
AcDbEntity
8
0
100
AcDbSpline
70
0
71
3
72
10
73
6
74
0
42
0.000000001
43
0.0000000001
44
0.0000000001
40
21
40
21
40
21
40
21
40
22
40
22
40
23
40
23
40
23
40
23
10
-301.47160419266049
20
-83.941494414952444
30
0
10
-301.47160419266049
20
-83.883616810800277
30
0
10
-301.46850360672374
20
-83.847443308205101
30
0
10
-301.45610126297692
20
-83.818504506129017
30
0
10
-301.43439716141978
20
-83.811269805609996
30
0
10
-301.39719013017907
20
-83.811269805609996
30
0
0
LINE
5
134
100
AcDbEntity
8
0
100
AcDbLine
10
-304.34274677006772
20
-89.522549101057223
30
0
11
-305.99225848840535
21
-88.840420194977696
31
0
0
SPLINE
5
135
100
AcDbEntity
8
0
100
AcDbSpline
70
0
71
3
72
8
73
4
74
0
42
0.000000001
43
0.0000000001
44
0.0000000001
40
0
40
0
40
0
40
0
40
0.899147537689585
40
0.899147537689585
40
0.899147537689585
40
0.899147537689585
10
-313.91735614267407
20
-84.803457305362002
30
0
10
-314.21844763739739
20
-84.480062736955404
30
0
10
-314.5847138319225
20
-84.302057883491415
30
0
10
-315.0161547262494
20
-84.269442744969751
30
0
0
SPLINE
5
136
100
AcDbEntity
8
0
100
AcDbSpline
70
0
71
3
72
17
73
13
74
0
42
0.000000001
43
0.0000000001
44
0.0000000001
40
6.4810128242100529
40
6.4810128242100529
40
6.4810128242100529
40
6.4810128242100529
40
7
40
7
40
8
40
8
40
9
40
9
40
9
40
10
40
10
40
11
40
11
40
11
40
11
10
-315.01615472574173
20
-89.04696754469775
30
0
10
-314.82137115916117
20
-88.981433116193074
30
0
10
-314.63493894913535
20
-88.880544611606922
30
0
10
-314.11372658533332
20
-88.481785754963198
30
0
10
-313.84087502290151
20
-88.144855416505763
30
0
10
-313.43573179383611
20
-87.322166614628145
30
0
10
-313.33444598656979
20
-86.874648711094125
30
0
10
-313.33444598656979
20
-86.39095730496507
30
0
10
-313.33444598656979
20
-86.097435169621832
30
0
10
-313.38818947613964
20
-85.805980091569651
30
0
10
-313.60316343441929
20
-85.227204050047689
30
0
10
-313.74372333021745
20
-84.989492461565419
30
0
10
-313.91735614267407
20
-84.803457305362002
30
0
0
SPLINE
5
137
100
AcDbEntity
8
0
100
AcDbSpline
70
0
71
3
72
8
73
4
74
0
42
0.000000001
43
0.0000000001
44
0.0000000001
40
7
40
7
40
7
40
7
40
8
40
8
40
8
40
8
10
-324.21959584704734
20
-88.541730416406565
30
0
10
-324.16447431928333
20
-88.690558541369313
30
0
10
-324.10935279151937
20
-88.694692655951641
30
0
10
-324.05423126375536
20
-88.554132760153479
30
0
0
SPLINE
5
138
100
AcDbEntity
8
0
100
AcDbSpline
70
0
71
3
72
8
73
4
74
0
42
0.000000001
43
0.0000000001
44
0.0000000001
40
1
40
1
40
1
40
1
40
2
40
2
40
2
40
2
10
-339.3545893328469
20
-84.556443959069583
30
0
10
-339.41797908977554
20
-84.506834584081929
30
0
10
-339.44829593004567
20
-84.484785972976368
30
0
10
-339.44553985365752
20
-84.490298125752759
30
0
0
SPLINE
5
139
100
AcDbEntity
8
0
100
AcDbSpline
70
0
71
3
72
8
73
4
74
0
42
0.000000001
43
0.0000000001
44
0.0000000001
40
37
40
37
40
37
40
37
40
38
40
38
40
38
40
38
10
-304.11950458262356
20
-88.784609648116657
30
0
10
-304.1360410409527
20
-88.784609648116657
30
0
10
-304.15051044199072
20
-88.792877877281313
30
0
10
-304.16291278573766
20
-88.809414335610484
30
0
0
CIRCLE
5
140
100
AcDbEntity
8
0
100
AcDbCircle
10
-350.47500000000002
20
4.4749999999999801
30
0
40
2.9999999999999716
210
0
220
0
230
1
0
LINE
5
141
100
AcDbEntity
8
0
100
AcDbLine
10
-300.50422138040233
20
-83.941494414952444
30
0
11
-300.50422138040233
21
-93.230849881380138
31
0
0
LINE
5
142
100
AcDbEntity
8
0
100
AcDbLine
10
-330.22233022054661
20
-89.459503853677091
30
0
11
-332.2935216262789
21
-89.459503853677091
31
0
0
SPLINE
5
143
100
AcDbEntity
8
0
100
AcDbSpline
70
0
71
3
72
11
73
7
74
0
42
0.000000001
43
0.0000000001
44
0.0000000001
40
4
40
4
40
4
40
4
40
5
40
5
40
5
40
6
40
6
40
6
40
6
10
-331.66100209518703
20
-86.251430937812472
30
0
10
-331.57005157437641
20
-86.380966528057854
30
0
10
-331.51355200841829
20
-86.445734323180545
30
0
10
-331.49150339731273
20
-86.445734323180545
30
0
10
-331.47496693898353
20
-86.445734323180545
30
0
10
-331.4666987098189
20
-86.429197864851375
30
0
10
-331.4666987098189
20
-86.396124948192963
30
0
0
SPLINE
5
144
100
AcDbEntity
8
0
100
AcDbSpline
70
0
71
3
72
8
73
4
74
0
42
0.000000001
43
0.0000000001
44
0.0000000001
40
17
40
17
40
17
40
17
40
18
40
18
40
18
40
18
10
-319.47360614128502
20
-88.958242460573302
30
0
10
-319.26690041217
20
-88.834219023104311
30
0
10
-319.08499937054887
20
-88.685390898141492
30
0
10
-318.92790301642145
20
-88.511758085684846
30
0
0
LINE
5
145
100
AcDbEntity
8
0
100
AcDbLine
10
-300.57863544288375
20
-93.361074490722586
30
0
11
-301.41579364579945
21
-93.013808865809366
31
0
0
LINE
5
146
100
AcDbEntity
8
0
100
AcDbLine
10
-340.04498646809105
20
-88.880727812155129
30
0
11
-340.04498646809105
21
-83.837108021749387
31
0
0
LINE
5
147
100
AcDbEntity
8
0
100
AcDbLine
10
-301.39719013017907
20
-83.811269805609996
30
0
11
-300.57863544288375
21
-83.811269805609996
31
0
0
SPLINE
5
148
100
AcDbEntity
8
0
100
AcDbSpline
70
0
71
3
72
12
73
8
74
0
42
0.000000001
43
0.0000000001
44
0.0000000001
40
3.2971826663897641
40
3.2971826663897641
40
3.2971826663897641
40
3.2971826663897641
40
4
40
4
40
5
40
5
40
6
40
6
40
6
40
6
10
-327.73598139492515
20
-85.684137547558947
30
0
10
-327.39449728043263
20
-85.77393867469489
30
0
10
-327.11189241876491
20
-85.96992666241654
30
0
10
-326.56983998708478
20
-86.702049427283185
30
0
10
-326.41067657566623
20
-87.178161623344721
30
0
10
-326.41067657566623
20
-88.222714574472434
30
0
10
-326.55674862424087
20
-88.658863662905034
30
0
10
-326.84889272139003
20
-89.008885364206449
30
0
0
SPLINE
5
149
100
AcDbEntity
8
0
100
AcDbSpline
70
0
71
3
72
16
73
12
74
0
42
0.000000001
43
0.0000000001
44
0.0000000001
40
11
40
11
40
11
40
11
40
12
40
12
40
13
40
13
40
14
40
14
40
15
40
15
40
16
40
16
40
16
40
16
10
-317.5698463761359
20
-88.747402616875988
30
0
10
-317.62772398028812
20
-88.710195585635319
30
0
10
-317.67526629798459
20
-88.684357369495928
30
0
10
-317.74968036046596
20
-88.655418567419844
30
0
10
-317.79412209222573
20
-88.648183866900752
30
0
10
-317.89747495678319
20
-88.648183866900752
30
0
10
-317.94811786041635
20
-88.682290312204799
30
0
10
-318.0473366103916
20
-88.818716093420633
30
0
10
-318.16619240463268
20
-88.942739530889625
30
0
10
-318.542396831622
20
-89.302407499549759
30
0
10
-318.73773374563564
20
-89.460537382322656
30
0
10
-318.94030536016828
20
-89.596963163538561
30
0
0
SPLINE
5
150
100
AcDbEntity
8
0
100
AcDbSpline
70
0
71
3
72
13
73
9
74
0
42
0.000000001
43
0.0000000001
44
0.0000000001
40
5.1957504562249515
40
5.1957504562249515
40
5.1957504562249515
40
5.1957504562249515
40
6
40
6
40
7
40
7
40
7
40
8
40
8
40
8
40
8
10
-315.01615472553402
20
-83.661375689157182
30
0
10
-314.43225328520225
20
-83.743381884001096
30
0
10
-313.88511957794003
20
-83.993851146726826
30
0
10
-312.74016701536419
20
-84.93368191470438
30
0
10
-312.42287372117266
20
-85.582737904125494
30
0
10
-312.42287372117266
20
-86.359951445597858
30
0
10
-312.42287372117266
20
-87.92264675770717
30
0
10
-312.91896747104863
20
-88.918968372041434
30
0
10
-313.91115497080057
20
-89.348916288600577
30
0
0
LINE
5
151
100
AcDbEntity
8
0
100
AcDbLine
10
-324.05423126375536
20
-88.554132760153479
30
0
11
-323.21500600354852
21
-86.259699166977057
31
0
0
LINE
5
152
100
AcDbEntity
8
0
100
AcDbLine
10
-304.16291278573766
20
-83.941494414952444
30
0
11
-304.16291278573766
21
-88.375332304469012
31
0
0
SPLINE
5
153
100
AcDbEntity
8
0
100
AcDbSpline
70
0
71
3
72
8
73
4
74
0
42
0.000000001
43
0.0000000001
44
0.0000000001
40
8
40
8
40
8
40
8
40
8.5453911443967598
40
8.5453911443967598
40
8.5453911443967598
40
8.5453911443967598
10
-313.91115497080057
20
-89.348916288600577
30
0
10
-314.2425972648175
20
-89.490962986036351
30
0
10
-314.61093051639261
20
-89.568450507745183
30
0
10
-315.01615472552589
20
-89.581378853727216
30
0
0
LWPOLYLINE
5
154
100
AcDbEntity
8
0
100
AcDbPolyline
90
4
70
1
43
0.0
10
-306.89142841005554
20
-86.657607695523495
10
-306.89142841005554
20
-85.808047148860851
10
-311.49889911202871
20
-85.808047148860851
10
-311.49889911202871
20
-86.657607695523424
0
SPLINE
5
155
100
AcDbEntity
8
0
100
AcDbSpline
70
0
71
3
72
8
73
4
74
0
42
0.000000001
43
0.0000000001
44
0.0000000001
40
6
40
6
40
6
40
6
40
7
40
7
40
7
40
7
10
-327.19615834630315
20
-86.962498645968083
30
0
10
-327.14654897131561
20
-86.962498645968083
30
0
10
-327.12174428382184
20
-86.936315920280123
30
0
10
-327.12174428382184
20
-86.883950468904345
30
0
0
SPLINE
5
156
100
AcDbEntity
8
0
100
AcDbSpline
70
0
71
3
72
10
73
6
74
0
42
0.000000001
43
0.0000000001
44
0.0000000001
40
12
40
12
40
12
40
12
40
13
40
13
40
14
40
14
40
14
40
14
10
-323.7648432429944
20
-85.887628854570082
30
0
10
-323.79516008326453
20
-85.873848472629106
30
0
10
-323.81031850339969
20
-85.845598689650018
30
0
10
-323.81031850339969
20
-85.760160321615828
30
0
10
-323.79929419784685
20
-85.738800729607334
30
0
10
-323.77724558674123
20
-85.738800729607334
30
0
0
SPLINE
5
157
100
AcDbEntity
8
0
100
AcDbSpline
70
0
71
3
72
10
73
6
74
0
42
0.000000001
43
0.0000000001
44
0.0000000001
40
27
40
27
40
27
40
27
40
28
40
28
40
29
40
29
40
29
40
29
10
-300.50422138040233
20
-93.230849881380138
30
0
10
-300.50422138040233
20
-93.288727485532306
30
0
10
-300.50732196633908
20
-93.324900988127411
30
0
10
-300.51972431008596
20
-93.353839790203494
30
0
10
-300.54142841164298
20
-93.361074490722586
30
0
10
-300.57863544288375
20
-93.361074490722586
30
0
0
LINE
5
158
100
AcDbEntity
8
0
100
AcDbLine
10
-305.05588153551446
20
-83.811269805609996
30
0
11
-304.23732684821908
21
-83.811269805609996
31
0
0
SPLINE
5
159
100
AcDbEntity
8
0
100
AcDbSpline
70
0
71
3
72
10
73
6
74
0
42
0.000000001
43
0.0000000001
44
0.0000000001
40
3
40
3
40
3
40
3
40
4
40
4
40
5
40
5
40
5
40
5
10
-317.30319598557764
20
-86.378554961218157
30
0
10
-317.30319598557764
20
-86.858112252764954
30
0
10
-317.25255308194443
20
-87.275657825577255
30
0
10
-317.04998146741173
20
-87.986725533732795
30
0
10
-316.94352801691753
20
-88.24924180970882
30
0
10
-316.83190692319545
20
-88.418740507583138
30
0
0
LINE
5
160
100
AcDbEntity
8
0
100
AcDbLine
10
-305.13029559799583
20
-88.170693632645154
30
0
11
-305.13029559799583
21
-83.941494414952444
31
0
0
SPLINE
5
161
100
AcDbEntity
8
0
100
AcDbSpline
70
0
71
3
72
18
73
14
74
0
42
0.000000001
43
0.0000000001
44
0.0000000001
40
14
40
14
40
14
40
14
40
15
40
15
40
16
40
16
40
17
40
17
40
18
40
18
40
19
40
19
40
20
40
20
40
20
40
20
10
-304.16291278573766
20
-88.375332304469012
30
0
10
-304.10090106700318
20
-88.453880481532678
30
0
10
-304.03682229097751
20
-88.511758085684846
30
0
10
-303.90453062434398
20
-88.586172148166327
30
0
10
-303.83941831967269
20
-88.625446236698124
30
0
10
-303.71126076762141
20
-88.708128528344119
30
0
10
-303.57690204369669
20
-88.764972603850794
30
0
10
-303.16762470004898
20
-88.909666614231213
30
0
10
-302.94541604125038
20
-88.945840116826389
30
0
10
-302.46585874970356
20
-88.945840116826389
30
0
10
-302.20024188779087
20
-88.860057239243631
30
0
10
-301.61733173168659
20
-88.516925728912739
30
0
10
-301.47160419266049
20
-88.298851184696474
30
0
10
-301.47160419266049
20
-88.034267851429249
30
0
0
SPLINE
5
162
100
AcDbEntity
8
0
100
AcDbSpline
70
0
71
3
72
15
73
11
74
0
42
0.000000001
43
0.0000000001
44
0.0000000001
40
14
40
14
40
14
40
14
40
15
40
15
40
16
40
16
40
17
40
17
40
17
40
18
40
18
40
18
40
18
10
-329.41617787699818
20
-88.603742135141061
30
0
10
-329.06891225208506
20
-88.92895914894865
30
0
10
-328.70717722613381
20
-89.091567655852444
30
0
10
-327.95476837215523
20
-89.091567655852444
30
0
10
-327.63988664480337
20
-88.946873645471953
30
0
10
-327.13276858937462
20
-88.368097603949991
30
0
10
-327.00598907551745
20
-88.009807673483991
30
0
10
-327.00598907551745
20
-87.582615833313042
30
0
10
-327.00598907551745
20
-87.381422256974446
30
0
10
-327.02941572481711
20
-87.280825468805148
30
0
10
-327.0762690234165
20
-87.280825468805148
30
0
0
LINE
5
163
100
AcDbEntity
8
0
100
AcDbLine
10
-306.04806903526639
20
-88.654385038774208
30
0
11
-305.68840106660627
21
-88.679189726268035
31
0
0
SPLINE
5
164
100
AcDbEntity
8
0
100
AcDbSpline
70
0
71
3
72
8
73
4
74
0
42
0.000000001
43
0.0000000001
44
0.0000000001
40
39
40
39
40
39
40
39
40
40
40
40
40
40
40
40
10
-304.16291278573766
20
-89.404726835461616
30
0
10
-304.16291278573766
20
-89.508079700019181
30
0
10
-304.18048277271248
20
-89.559756132297892
30
0
10
-304.21562274666201
20
-89.559756132297892
30
0
0
LINE
5
165
100
AcDbEntity
8
0
100
AcDbLine
10
-315.73156139958121
20
-84.357683269903845
30
0
11
-315.73156153610819
21
-83.639791509120869
31
0
0
LINE
5
166
100
AcDbEntity
8
0
100
AcDbLine
10
-323.21500600354852
20
-86.259699166977057
30
0
11
-323.1902013160547
21
-86.160480417001892
31
0
0
SPLINE
5
167
100
AcDbEntity
8
0
100
AcDbSpline
70
0
71
3
72
8
73
4
74
0
42
0.000000001
43
0.0000000001
44
0.0000000001
40
5
40
5
40
5
40
5
40
5.9005847269305622
40
5.9005847269305622
40
5.9005847269305622
40
5.9005847269305622
10
-316.83190692319545
20
-88.418740507583138
30
0
10
-316.54894976882815
20
-88.850622480038339
30
0
10
-316.18216797906661
20
-89.088031298378709
30
0
10
-315.73156155391069
20
-89.130966962604106
30
0
0
LINE
5
168
100
AcDbEntity
8
0
100
AcDbLine
10
-327.73598121760051
20
-85.972444179245713
30
0
11
-327.73598139492515
21
-85.684137547558947
31
0
0
SPLINE
5
169
100
AcDbEntity
8
0
100
AcDbSpline
70
0
71
3
72
14
73
10
74
0
42
0.000000001
43
0.0000000001
44
0.0000000001
40
32
40
32
40
32
40
32
40
33
40
33
40
34
40
34
40
35
40
35
40
36
40
36
40
36
40
36
10
-301.47160419266049
20
-89.491543241689939
30
0
10
-301.67417580719314
20
-89.537018502095265
30
0
10
-301.86951272120689
20
-89.559756132297892
30
0
10
-302.24571714819609
20
-89.559756132297892
30
0
10
-302.47102639293144
20
-89.504979114082417
30
0
10
-302.99605894488354
20
-89.285871041220517
30
0
10
-303.28337990835337
20
-89.156679960523633
30
0
10
-303.90763121028067
20
-88.859023710598066
30
0
10
-304.06782815034478
20
-88.784609648116657
30
0
10
-304.07609637950935
20
-88.784609648116657
30
0
0
SPLINE
5
170
100
AcDbEntity
8
0
100
AcDbSpline
70
0
71
3
72
10
73
6
74
0
42
0.000000001
43
0.0000000001
44
0.0000000001
40
5
40
5
40
5
40
5
40
6
40
6
40
7
40
7
40
7
40
7
10
-305.68840106660627
20
-88.679189726268035
30
0
10
-305.50236591040283
20
-88.679189726268035
30
0
10
-305.36800718647805
20
-88.639915637736166
30
0
10
-305.20264260318606
20
-88.482819283608762
30
0
10
-305.15096617090734
20
-88.352594674266385
30
0
10
-305.13029559799583
20
-88.170693632645154
30
0
0
SPLINE
5
171
100
AcDbEntity
8
0
100
AcDbSpline
70
0
71
3
72
10
73
6
74
0
42
0.000000001
43
0.0000000001
44
0.0000000001
40
1.3917233721016185
40
1.3917233721016185
40
1.3917233721016185
40
1.3917233721016185
40
2
40
2
40
3
40
3
40
3
40
3
10
-315.73156139958121
20
-84.357683269903845
30
0
10
-316.01756265693052
20
-84.454711778075193
30
0
10
-316.29132692003361
20
-84.62707428207608
30
0
10
-316.98280210544937
20
-85.281981068263164
30
0
10
-317.23291603767848
20
-85.783242461367024
30
0
10
-317.30319598557764
20
-86.378554961218157
30
0
0
SPLINE
5
172
100
AcDbEntity
8
0
100
AcDbSpline
70
0
71
3
72
16
73
12
74
0
42
0.000000001
43
0.0000000001
44
0.0000000001
40
0
40
0
40
0
40
0
40
1
40
1
40
1
40
2
40
2
40
3
40
3
40
3
40
3.0305156186088547
40
3.0305156186088547
40
3.0305156186088547
40
3.0305156186088547
10
-329.47405548115046
20
-87.280825468805148
30
0
10
-329.53193308530263
20
-87.280825468805148
30
0
10
-329.56087188737865
20
-87.221569826458847
30
0
10
-329.56087188737865
20
-87.103058541766245
30
0
10
-329.56087188737865
20
-86.83296305572263
30
0
10
-329.43409237352148
20
-86.519459366564888
30
0
10
-328.92697431809273
20
-85.805635582021154
30
0
10
-328.60037926609101
20
-85.627179635885184
30
0
10
-328.20074818980208
20
-85.627179635885184
30
0
10
-328.18375930786647
20
-85.627179635885184
30
0
10
-328.16688142560878
20
-85.627379820275564
30
0
10
-328.15011454302908
20
-85.627780189056324
30
0
0
LINE
5
173
100
AcDbEntity
8
0
100
AcDbLine
10
-331.33440704318531
20
-85.651984323379011
30
0
11
-330.28020782469889
21
-86.148078073254979
31
0
0
LINE
5
174
100
AcDbEntity
8
0
100
AcDbLine
10
-304.16291278573766
20
-88.809414335610484
30
0
11
-304.16291278573766
21
-89.404726835461616
31
0
0
LINE
5
175
100
AcDbEntity
8
0
100
AcDbLine
10
-327.0762690234165
20
-87.280825468805148
30
0
11
-327.73598121524373
21
-87.280825468805148
31
0
0
SPLINE
5
176
100
AcDbEntity
8
0
100
AcDbSpline
70
0
71
3
72
8
73
4
74
0
42
0.000000001
43
0.0000000001
44
0.0000000001
40
0
40
0
40
0
40
0
40
1
40
1
40
1
40
1
10
-304.21562274666201
20
-89.559756132297892
30
0
10
-304.25076272061153
20
-89.559756132297892
30
0
10
-304.29313739508012
20
-89.547353788550978
30
0
10
-304.34274677006772
20
-89.522549101057223
30
0
0
SPLINE
5
177
100
AcDbEntity
8
0
100
AcDbSpline
70
0
71
3
72
8
73
4
74
0
42
0.000000001
43
0.0000000001
44
0.0000000001
40
8
40
8
40
8
40
8
40
9
40
9
40
9
40
9
10
-338.43268178099407
20
-89.294139270385102
30
0
10
-338.41063316988851
20
-89.294139270385102
30
0
10
-338.39960886433568
20
-89.305163575937883
30
0
10
-338.39960886433568
20
-89.327212187043514
30
0
0
LINE
5
178
100
AcDbEntity
8
0
100
AcDbLine
10
-304.07609637950935
20
-88.784609648116657
30
0
11
-304.11950458262356
21
-88.784609648116657
31
0
0
SPLINE
5
179
100
AcDbEntity
8
0
100
AcDbSpline
70
0
71
3
72
10
73
6
74
0
42
0.000000001
43
0.0000000001
44
0.0000000001
40
9
40
9
40
9
40
9
40
10
40
10
40
11
40
11
40
11
40
11
10
-316.10636981400182
20
-89.479140897943026
30
0
10
-316.4867083555734
20
-89.404726835461616
30
0
10
-316.80503517841044
20
-89.278636340701496
30
0
10
-317.31766538661566
20
-88.923102486623691
30
0
10
-317.4871640844899
20
-88.805280221028156
30
0
10
-317.5698463761359
20
-88.747402616875988
30
0
0
LINE
5
180
100
AcDbEntity
8
0
100
AcDbLine
10
-329.4575190228212
20
-88.595473905976476
30
0
11
-329.43684844990969
21
-88.595473905976476
31
0
0
LINE
5
181
100
AcDbEntity
8
0
100
AcDbLine
10
-318.94030536016828
20
-89.596963163538561
30
0
11
-319.47360614128502
21
-88.958242460573302
31
0
0
LINE
5
182
100
AcDbEntity
8
0
100
AcDbLine
10
-324.32708282618711
20
-88.273012968557083
30
0
11
-324.21959584704734
21
-88.541730416406565
31
0
0
LINE
5
183
100
AcDbEntity
8
0
100
AcDbLine
10
-331.4666987098189
20
-88.831118437167547
30
0
11
-331.4666987098189
21
-86.962498645968083
31
0
0
LINE
5
184
100
AcDbEntity
8
0
100
AcDbLine
10
-318.97131121953555
20
-83.631435821279965
30
0
11
-318.0473366103916
21
-83.631435821279965
31
0
0
SPLINE
5
185
100
AcDbEntity
8
0
100
AcDbSpline
70
0
71
3
72
8
73
4
74
0
42
0.000000001
43
0.0000000001
44
0.0000000001
40
8.8507788992924947
40
8.8507788992924947
40
8.8507788992924947
40
8.8507788992924947
40
9
40
9
40
9
40
9
10
-315.73156156341929
20
-89.542371420331293
30
0
10
-315.85373602489096
20
-89.52612741813283
30
0
10
-315.97867210841849
20
-89.505050577336789
30
0
10
-316.10636981400182
20
-89.479140897943026
30
0
0
SPLINE
5
186
100
AcDbEntity
8
0
100
AcDbSpline
70
0
71
3
72
19
73
15
74
0
42
0.000000001
43
0.0000000001
44
0.0000000001
40
0
40
0
40
0
40
0
40
1
40
1
40
1
40
2
40
2
40
3
40
3
40
4
40
4
40
5
40
5
40
6
40
6
40
6
40
6
10
-324.46764272198538
20
-85.738800729607334
30
0
10
-324.40700904144489
20
-85.738800729607334
30
0
10
-324.37669220117476
20
-85.762227378907028
30
0
10
-324.37669220117476
20
-85.809080677506415
30
0
10
-324.37669220117476
20
-85.89176296915241
30
0
10
-324.44421607268566
20
-85.933104114975407
30
0
10
-324.71431155872921
20
-85.933104114975407
30
0
10
-324.82179853786903
20
-85.973756241701338
30
0
10
-324.98165096838466
20
-86.136364748605132
30
0
10
-325.02161407601352
20
-86.214223906571732
30
0
10
-325.02161407601352
20
-86.363052031534551
30
0
10
-324.99887644581088
20
-86.474673125256629
30
0
10
-324.90792592500031
20
-86.772329375182267
30
0
10
-324.69915313859411
20
-87.322166614628145
30
0
10
-324.32708282618711
20
-88.273012968557083
30
0
0
LINE
5
187
100
AcDbEntity
8
0
100
AcDbLine
10
-315.01615472574173
20
-89.04696754469775
30
0
11
-315.01615472552589
21
-89.581378853727216
31
0
0
LINE
5
188
100
AcDbEntity
8
0
100
AcDbLine
10
-340.95449167619699
20
-89.42643093701875
30
0
11
-340.95449167619699
21
-89.327212187043514
31
0
0
SPLINE
5
189
100
AcDbEntity
8
0
100
AcDbSpline
70
0
71
3
72
8
73
4
74
0
42
0.000000001
43
0.0000000001
44
0.0000000001
40
16
40
16
40
16
40
16
40
17
40
17
40
17
40
17
10
-340.09872995766091
20
-89.174249947498438
30
0
10
-340.0629009646143
20
-89.152201336392807
30
0
10
-340.04498646809105
20
-89.054360624611775
30
0
10
-340.04498646809105
20
-88.880727812155129
30
0
0
SPLINE
5
190
100
AcDbEntity
8
0
100
AcDbSpline
70
0
71
3
72
16
73
12
74
0
42
0.000000001
43
0.0000000001
44
0.0000000001
40
3
40
3
40
3
40
3
40
4
40
4
40
5
40
5
40
6
40
6
40
7
40
7
40
8
40
8
40
8
40
8
10
-339.44553985365752
20
-88.893130155902043
30
0
10
-339.44553985365752
20
-88.973056371159842
30
0
10
-339.44140573907526
20
-89.037824166282533
30
0
10
-339.42486928074601
20
-89.137042916257769
30
0
10
-339.39799753596105
20
-89.174249947498438
30
0
10
-339.30704701515049
20
-89.223859322486021
30
0
10
-339.22780981898973
20
-89.241773819009325
30
0
10
-339.00181155515736
20
-89.263822430114885
30
0
10
-338.89432457601754
20
-89.271401640182475
30
0
10
-338.69037492329079
20
-89.27966986934706
30
0
10
-338.57048560040403
20
-89.285871041220517
30
0
10
-338.43268178099407
20
-89.294139270385102
30
0
0
SPLINE
5
191
100
AcDbEntity
8
0
100
AcDbSpline
70
0
71
3
72
16
73
12
74
0
42
0.000000001
43
0.0000000001
44
0.0000000001
40
0
40
0
40
0
40
0
40
1
40
1
40
1
40
2
40
2
40
3
40
3
40
3
40
4
40
4
40
4
40
4
10
-332.95911407402912
20
-86.301040312800055
30
0
10
-333.02250383095776
20
-86.171504722554673
30
0
10
-333.05419870942205
20
-86.075042048967703
30
0
10
-333.05419870942205
20
-86.011652292039074
30
0
10
-333.05419870942205
20
-85.959286840663296
30
0
10
-332.95429094034978
20
-85.894519045540605
30
0
10
-332.5546598640608
20
-85.740178767801396
30
0
10
-332.40652075819503
20
-85.701593698366594
30
0
10
-332.31005808460804
20
-85.701593698366594
30
0
10
-332.13918134853969
20
-85.701593698366594
30
0
10
-331.922829352066
20
-85.884872778181887
30
0
10
-331.66100209518703
20
-86.251430937812472
30
0
0
SPLINE
5
192
100
AcDbEntity
8
0
100
AcDbSpline
70
0
71
3
72
20
73
16
74
0
42
0.000000001
43
0.0000000001
44
0.0000000001
40
24
40
24
40
24
40
24
40
25
40
25
40
26
40
26
40
27
40
27
40
28
40
28
40
29
40
29
40
30
40
30
40
31
40
31
40
31
40
31
10
-325.33994089885061
20
-86.532550729408868
30
0
10
-325.36474558634438
20
-86.480185278033019
30
0
10
-325.39092831203226
20
-86.421618654783856
30
0
10
-325.44604983979633
20
-86.292083064538403
30
0
10
-325.47843373735765
20
-86.229382326706911
30
0
10
-325.55284779983901
20
-86.108114965626044
30
0
10
-325.59556698385614
20
-86.053682456959137
30
0
10
-325.69202965744319
20
-85.957219783372096
30
0
10
-325.772644891798
20
-85.924835885810751
30
0
10
-325.99864315563036
20
-85.89176296915241
30
0
10
-326.05927683617074
20
-85.876604549017301
30
0
10
-326.07581329449999
20
-85.849043785135279
30
0
10
-326.07994740908225
20
-85.826995174029719
30
0
10
-326.07994740908225
20
-85.766361493489285
30
0
10
-326.06478898894716
20
-85.747068958771848
30
0
10
-326.03447214867697
20
-85.738800729607334
30
0
0
SPLINE
5
193
100
AcDbEntity
8
0
100
AcDbSpline
70
0
71
3
72
8
73
4
74
0
42
0.000000001
43
0.0000000001
44
0.0000000001
40
30
40
30
40
30
40
30
40
31
40
31
40
31
40
31
10
-301.41579364579945
20
-93.013808865809366
30
0
10
-301.45300067704011
20
-92.997272407480196
30
0
10
-301.47160419266049
20
-92.955931261657199
30
0
10
-301.47160419266049
20
-92.889785428340375
30
0
0
SPLINE
5
194
100
AcDbEntity
8
0
100
AcDbSpline
70
0
71
3
72
8
73
4
74
0
42
0.000000001
43
0.0000000001
44
0.0000000001
40
30
40
30
40
30
40
30
40
31
40
31
40
31
40
31
10
-332.62425079286288
20
-86.441600208598288
30
0
10
-332.68764054979147
20
-86.471917048868505
30
0
10
-332.73587188658496
20
-86.489831545391809
30
0
10
-332.76894480324336
20
-86.495343698168199
30
0
0
SPLINE
5
195
100
AcDbEntity
8
0
100
AcDbSpline
70
0
71
3
72
12
73
8
74
0
42
0.000000001
43
0.0000000001
44
0.0000000001
40
2
40
2
40
2
40
2
40
3
40
3
40
4
40
4
40
4.8009259001608626
40
4.8009259001608626
40
4.8009259001608626
40
4.8009259001608626
10
-317.73107684484563
20
-84.989492461565419
30
0
10
-317.57811460530058
20
-84.716640899133679
30
0
10
-317.41585060794529
20
-84.492365183043887
30
0
10
-317.07271909761437
20
-84.14096544354841
30
0
10
-316.85464455339803
20
-83.982835560775442
30
0
10
-316.37814957576632
20
-83.729697603908591
30
0
10
-316.09198301442541
20
-83.662202885289787
30
0
10
-315.73156153610819
20
-83.639791509120869
30
0
0
SPLINE
5
196
100
AcDbEntity
8
0
100
AcDbSpline
70
0
71
3
72
11
73
7
74
0
42
0.000000001
43
0.0000000001
44
0.0000000001
40
18
40
18
40
18
40
18
40
19
40
19
40
19
40
20
40
20
40
20
40
20
10
-318.92790301642145
20
-88.511758085684846
30
0
10
-318.46074806862157
20
-87.986725533732795
30
0
10
-318.2271705947216
20
-87.337669544311751
30
0
10
-318.2271705947216
20
-86.564590117421716
30
0
10
-318.2271705947216
20
-85.795644805113938
30
0
10
-318.47521746965958
20
-84.817926706400044
30
0
10
-318.97131121953555
20
-83.631435821279965
30
0
0
SPLINE
5
197
100
AcDbEntity
8
0
100
AcDbSpline
70
0
71
3
72
12
73
8
74
0
42
0.000000001
43
0.0000000001
44
0.0000000001
40
21
40
21
40
21
40
21
40
22
40
22
40
23
40
23
40
24
40
24
40
24
40
24
10
-339.73492787441847
20
-83.75855984468572
30
0
10
-339.54200252724456
20
-83.990070261294463
30
0
10
-339.29808976688884
20
-84.236739098038385
30
0
10
-338.70828941981409
20
-84.760393611796303
30
0
10
-338.51122995805781
20
-84.923691137797164
30
0
10
-338.31279245810742
20
-85.053226728042546
30
0
10
-338.26318308311977
20
-85.089744740186219
30
0
10
-338.26318308311977
20
-85.098012969350805
30
0
0
SPLINE
5
198
100
AcDbEntity
8
0
100
AcDbSpline
70
0
71
3
72
8
73
4
74
0
42
0.000000001
43
0.0000000001
44
0.0000000001
40
22
40
22
40
22
40
22
40
23
40
23
40
23
40
23
10
-324.12037709707215
20
-89.571124947399241
30
0
10
-324.14793786095413
20
-89.571124947399241
30
0
10
-324.17825470122438
20
-89.531161839770306
30
0
10
-324.21132761788277
20
-89.451235624512506
30
0
0
LINE
5
199
100
AcDbEntity
8
0
100
AcDbLine
10
-316.16453931921745
20
-89.018645037798478
30
0
11
-316.16453931921745
21
-89.018645037798478
31
0
0
SPLINE
5
200
100
AcDbEntity
8
0
100
AcDbSpline
70
0
71
3
72
8
73
4
74
0
42
0.000000001
43
0.0000000001
44
0.0000000001
40
17
40
17
40
17
40
17
40
18
40
18
40
18
40
18
10
-330.82177683498014
20
-88.831118437167547
30
0
10
-330.82177683498014
20
-89.101213923211162
30
0
10
-330.67294871001735
20
-89.258310277338495
30
0
10
-330.37529246009177
20
-89.302407499549759
30
0
0
SPLINE
5
201
100
AcDbEntity
8
0
100
AcDbSpline
70
0
71
3
72
8
73
4
74
0
42
0.000000001
43
0.0000000001
44
0.0000000001
40
15
40
15
40
15
40
15
40
16
40
16
40
16
40
16
10
-330.63160756419438
20
-86.404393177357548
30
0
10
-330.75838707805156
20
-86.44849039956874
30
0
10
-330.82177683498014
20
-86.52841661482654
30
0
10
-330.82177683498014
20
-86.644171823130947
30
0
0
LINE
5
202
100
AcDbEntity
8
0
100
AcDbLine
10
-339.96643829102732
20
-83.75855984468572
30
0
11
-339.73492787441847
21
-83.75855984468572
31
0
0
SPLINE
5
203
100
AcDbEntity
8
0
100
AcDbSpline
70
0
71
3
72
10
73
6
74
0
42
0.000000001
43
0.0000000001
44
0.0000000001
40
0
40
0
40
0
40
0
40
1
40
1
40
1.5379718805380707
40
1.5379718805380707
40
1.5379718805380707
40
1.5379718805380707
10
-327.12174428382184
20
-86.834341093916763
30
0
10
-327.16859758242123
20
-86.594562448143364
30
0
10
-327.27677358065807
20
-86.380966528057854
30
0
10
-327.53745781177651
20
-86.092730305032603
30
0
10
-327.63402745813261
20
-86.019027253560978
30
0
10
-327.73598121760062
20
-85.972444179245713
30
0
0
LINE
5
204
100
AcDbEntity
8
0
100
AcDbLine
10
-328.15011454240926
20
-87.280825468805148
30
0
11
-329.47405548115046
21
-87.280825468805148
31
0
0
LINE
5
205
100
AcDbEntity
8
0
100
AcDbLine
10
-315.0161547262494
20
-84.269442744969751
30
0
11
-315.01615472553402
21
-83.661375689157182
31
0
0
LINE
5
206
100
AcDbEntity
8
0
100
AcDbLine
10
-315.57580661617777
20
-89.138073245787979
30
0
11
-315.57580661617777
21
-89.138073245787979
31
0
0
SPLINE
5
207
100
AcDbEntity
8
0
100
AcDbSpline
70
0
71
3
72
8
73
4
74
0
42
0.000000001
43
0.0000000001
44
0.0000000001
40
17
40
17
40
17
40
17
40
18
40
18
40
18
40
18
10
-322.01197866009926
20
-85.928970000393079
30
0
10
-322.03953942398124
20
-85.931726076781274
30
0
10
-322.0629660732809
20
-85.935860191363602
30
0
10
-322.08225860799837
20
-85.941372344139992
30
0
0
LINE
5
208
100
AcDbEntity
8
0
100
AcDbLine
10
-327.73598121524373
20
-86.962498645968083
30
0
11
-327.73598121524373
21
-87.280825468805148
31
0
0
LINE
5
209
100
AcDbEntity
8
0
100
AcDbLine
10
-323.79378204507049
20
-89.571124947399241
30
0
11
-324.12037709707215
21
-89.571124947399241
31
0
0
CIRCLE
5
210
100
AcDbEntity
8
0
100
AcDbCircle
10
-350.47500000000002
20
-99.725000000000037
30
0
40
1.7500000000000002
210
0
220
0
230
1
0
SPLINE
5
211
100
AcDbEntity
8
0
100
AcDbSpline
70
0
71
3
72
11
73
7
74
0
42
0.000000001
43
0.0000000001
44
0.0000000001
40
7
40
7
40
7
40
7
40
8
40
8
40
8
40
9
40
9
40
9
40
9
10
-331.4666987098189
20
-85.726398385860421
30
0
10
-331.4666987098189
20
-85.660252552543596
30
0
10
-331.44327206051918
20
-85.627179635885184
30
0
10
-331.39641876191979
20
-85.627179635885184
30
0
10
-331.38815053275522
20
-85.627179635885184
30
0
10
-331.36747995984371
20
-85.63544786504977
30
0
10
-331.33440704318531
20
-85.651984323379011
30
0
0
LINE
5
212
100
AcDbEntity
8
0
100
AcDbLine
10
-326.03447214867697
20
-85.738800729607334
30
0
11
-324.46764272198538
21
-85.738800729607334
31
0
0
LINE
5
213
100
AcDbEntity
8
0
100
AcDbLine
10
-328.15011454240874
20
-85.92798512703709
30
0
11
-328.15011454302913
21
-85.627780189056324
31
0
0
LINE
5
214
100
AcDbEntity
8
0
100
AcDbLine
10
-331.4666987098189
20
-86.396124948192963
30
0
11
-331.4666987098189
21
-85.726398385860421
31
0
0
LINE
5
215
100
AcDbEntity
8
0
100
AcDbLine
10
-315.73156155391069
20
-89.130966962604106
30
0
11
-315.73156156341929
21
-89.542371420331293
31
0
0
SPLINE
5
216
100
AcDbEntity
8
0
100
AcDbSpline
70
0
71
3
72
10
73
6
74
0
42
0.000000001
43
0.0000000001
44
0.0000000001
40
11
40
11
40
11
40
11
40
12
40
12
40
13
40
13
40
13
40
13
10
-304.23732684821908
20
-83.811269805609996
30
0
10
-304.20011981697832
20
-83.811269805609996
30
0
10
-304.17841571542124
20
-83.818504506129017
30
0
10
-304.16601337167435
20
-83.847443308205101
30
0
10
-304.16291278573766
20
-83.883616810800277
30
0
10
-304.16291278573766
20
-83.941494414952444
30
0
0
SPLINE
5
217
100
AcDbEntity
8
0
100
AcDbSpline
70
0
71
3
72
14
73
10
74
0
42
0.000000001
43
0.0000000001
44
0.0000000001
40
21
40
21
40
21
40
21
40
22
40
22
40
23
40
23
40
24
40
24
40
25
40
25
40
25
40
25
10
-332.2935216262789
20
-89.459503853677091
30
0
10
-332.32108239016088
20
-89.453991700900701
30
0
10
-332.33486277210193
20
-89.435388185280402
30
0
10
-332.33486277210193
20
-89.371998428351773
30
0
10
-332.32177140925791
20
-89.350638836343208
30
0
10
-332.26940595788216
20
-89.328590225237647
30
0
10
-332.21083933463291
20
-89.3168769005878
30
0
10
-332.02893829301166
20
-89.292072213093974
30
0
10
-331.93109758123057
20
-89.272090659279542
30
0
10
-331.82636667847902
20
-89.24452989539752
30
0
0
SPLINE
5
218
100
AcDbEntity
8
0
100
AcDbSpline
70
0
71
3
72
13
73
9
74
0
42
0.000000001
43
0.0000000001
44
0.0000000001
40
2.2232146004065925
40
2.2232146004065925
40
2.2232146004065925
40
2.2232146004065925
40
3
40
3
40
4
40
4
40
4
40
5
40
5
40
5
40
5
10
-328.15011454240874
20
-85.92798512703709
30
0
10
-328.30898884895635
20
-85.964064738692585
30
0
10
-328.45746937895734
20
-86.062922760689418
30
0
10
-328.7733230594506
20
-86.432642960336636
30
0
10
-328.86220652297004
20
-86.635903593966361
30
0
10
-328.86220652297004
20
-86.834341093916763
30
0
10
-328.86220652297004
20
-86.919779461950952
30
0
10
-328.82637752992343
20
-86.962498645968083
30
0
10
-328.75471954383022
20
-86.962498645968083
30
0
0
SPLINE
5
219
100
AcDbEntity
8
0
100
AcDbSpline
70
0
71
3
72
11
73
7
74
0
42
0.000000001
43
0.0000000001
44
0.0000000001
40
18
40
18
40
18
40
18
40
19
40
19
40
19
40
20
40
20
40
20
40
20
10
-330.37529246009177
20
-89.302407499549759
30
0
10
-330.24575686984633
20
-89.318943957878929
30
0
10
-330.18098907472364
20
-89.352016874537341
30
0
10
-330.18098907472364
20
-89.401626249524924
30
0
10
-330.18098907472364
20
-89.434699166183336
30
0
10
-330.19476945666469
20
-89.453991700900701
30
0
10
-330.22233022054661
20
-89.459503853677091
30
0
0
CIRCLE
5
220
100
AcDbEntity
8
0
100
AcDbCircle
10
-63.774999999999977
20
4.4749999999999801
30
0
40
2.9999999999999716
210
0
220
0
230
1
0
CIRCLE
5
221
100
AcDbEntity
8
0
100
AcDbCircle
10
-159.34166666666664
20
-99.725000000000037
30
0
40
1.7500000000000058
210
0
220
0
230
1
0
LINE
5
222
100
AcDbEntity
8
0
100
AcDbLine
10
-328.75471954383022
20
-86.962498645968083
30
0
11
-328.15011454240926
21
-86.962498645968083
31
0
0
SPLINE
5
223
100
AcDbEntity
8
0
100
AcDbSpline
70
0
71
3
72
10
73
6
74
0
42
0.000000001
43
0.0000000001
44
0.0000000001
40
2
40
2
40
2
40
2
40
3
40
3
40
4
40
4
40
4
40
4
10
-305.99225848840535
20
-88.840420194977696
30
0
10
-306.05427020713984
20
-88.811481392901612
30
0
10
-306.08527606650705
20
-88.773240833015308
30
0
10
-306.08527606650705
20
-88.678156197622471
30
0
10
-306.07287372276016
20
-88.654385038774208
30
0
10
-306.04806903526639
20
-88.654385038774208
30
0
0
SPLINE
5
224
100
AcDbEntity
8
0
100
AcDbSpline
70
0
71
3
72
10
73
6
74
0
42
0.000000001
43
0.0000000001
44
0.0000000001
40
24
40
24
40
24
40
24
40
25
40
25
40
26
40
26
40
26
40
26
10
-300.57863544288375
20
-83.811269805609996
30
0
10
-300.54142841164298
20
-83.811269805609996
30
0
10
-300.51972431008596
20
-83.818504506129017
30
0
10
-300.50732196633908
20
-83.847443308205101
30
0
10
-300.50422138040233
20
-83.883616810800277
30
0
10
-300.50422138040233
20
-83.941494414952444
30
0
0
LINE
5
225
100
AcDbEntity
8
0
100
AcDbLine
10
-327.73598121524373
20
-86.962498645968083
30
0
11
-327.19615834630315
21
-86.962498645968083
31
0
0
SPLINE
5
226
100
AcDbEntity
8
0
100
AcDbSpline
70
0
71
3
72
8
73
4
74
0
42
0.000000001
43
0.0000000001
44
0.0000000001
40
18
40
18
40
18
40
18
40
19
40
19
40
19
40
19
10
-322.08225860799837
20
-85.941372344139992
30
0
10
-322.33030548293635
20
-86.021298559397792
30
0
10
-322.50531633358707
20
-86.200443524630757
30
0
10
-322.60729115995042
20
-86.478807239838957
30
0
0
LINE
5
227
100
AcDbEntity
8
0
100
AcDbLine
10
-327.12174428382184
20
-86.883950468904345
30
0
11
-327.12174428382184
21
-86.834341093916763
31
0
0
LINE
5
228
100
AcDbEntity
8
0
100
AcDbLine
10
-338.43268178099407
20
-89.459503853677091
30
0
11
-340.9214187595386
21
-89.459503853677091
31
0
0
SPLINE
5
229
100
AcDbEntity
8
0
100
AcDbSpline
70
0
71
3
72
10
73
6
74
0
42
0.000000001
43
0.0000000001
44
0.0000000001
40
15
40
15
40
15
40
15
40
16
40
16
40
17
40
17
40
17
40
17
10
-321.93756459761789
20
-85.738800729607334
30
0
10
-321.87141876430104
20
-85.738800729607334
30
0
10
-321.83834584764264
20
-85.767739531683418
30
0
10
-321.83834584764264
20
-85.883494739987754
30
0
10
-321.89622345179487
20
-85.917945694840299
30
0
10
-322.01197866009926
20
-85.928970000393079
30
0
0
LINE
5
230
100
AcDbEntity
8
0
100
AcDbLine
10
-301.47160419266049
20
-88.034267851429249
30
0
11
-301.47160419266049
21
-83.941494414952444
31
0
0
SPLINE
5
231
100
AcDbEntity
8
0
100
AcDbSpline
70
0
71
3
72
12
73
8
74
0
42
0.000000001
43
0.0000000001
44
0.0000000001
40
6
40
6
40
6
40
6
40
7
40
7
40
8
40
8
40
9
40
9
40
9
40
9
10
-326.84889272139003
20
-89.008885364206449
30
0
10
-326.98669654079998
20
-89.177006023886634
30
0
10
-327.15206112409197
20
-89.312742786005472
30
0
10
-327.53791181844002
20
-89.519448515120459
30
0
10
-327.72808108922573
20
-89.571124947399241
30
0
10
-328.102907478021
20
-89.571124947399241
30
0
10
-328.27102813770119
20
-89.544942221711352
30
0
10
-328.41985626266393
20
-89.492576770335504
30
0
0
SPLINE
5
232
100
AcDbEntity
8
0
100
AcDbSpline
70
0
71
3
72
19
73
15
74
0
42
0.000000001
43
0.0000000001
44
0.0000000001
40
0
40
0
40
0
40
0
40
1
40
1
40
1
40
2
40
2
40
3
40
3
40
4
40
4
40
5
40
5
40
6
40
6
40
6
40
6
10
268.73869057085807
20
427.56842559726186
30
0
10
268.78197884966721
20
427.56842559726016
30
0
10
268.80362298907039
20
427.55117207754751
30
0
10
268.80362298906863
20
427.51666503812515
30
0
10
268.80362298906584
20
427.45577026267256
30
0
10
268.75541558766417
20
427.42532287494942
30
0
10
268.56258598206023
20
427.42532287495857
30
0
10
268.48584766962449
20
427.39538294369765
30
0
10
268.37172402548731
20
427.27562321864644
30
0
10
268.34319311445142
20
427.21828063843077
30
0
10
268.34319311444693
20
427.10867004261763
30
0
10
268.3594262189963
20
427.02646209575681
30
0
10
268.42435863720038
20
426.80724090412605
30
0
10
268.57340805171771
20
426.4022906473628
30
0
10
268.83904067165167
20
425.70200072965235
30
0
0
LINE
5
233
100
AcDbEntity
8
0
100
AcDbLine
10
282.72469824962985
20
425.23656778312039
30
0
11
282.72469824974633
21
427.8981425046386
31
0
0
SPLINE
5
234
100
AcDbEntity
8
0
100
AcDbSpline
70
0
71
3
72
8
73
4
74
0
42
0.000000001
43
0.0000000001
44
0.0000000001
40
18
40
18
40
18
40
18
40
19
40
19
40
19
40
19
10
270.4416908121766
20
427.41923339732517
30
0
10
270.26460239886552
20
427.36036844773025
30
0
10
270.13965668502442
20
427.22842976758966
30
0
10
270.06685367065444
20
427.0234173569043
30
0
0
SPLINE
5
235
100
AcDbEntity
8
0
100
AcDbSpline
70
0
71
3
72
8
73
4
74
0
42
0.000000001
43
0.0000000001
44
0.0000000001
40
6
40
6
40
6
40
6
40
7
40
7
40
7
40
7
10
274.5680632097247
20
426.39394951846128
30
0
10
274.1539094340414
20
426.35899954739034
30
0
10
273.86636838406679
20
426.34152456185797
30
0
10
273.70544005980167
20
426.34152456186519
30
0
0
SPLINE
5
236
100
AcDbEntity
8
0
100
AcDbSpline
70
0
71
3
72
8
73
4
74
0
42
0.000000001
43
0.0000000001
44
0.0000000001
40
1
40
1
40
1
40
1
40
2
40
2
40
2
40
2
10
258.11043429877367
20
428.43922088671837
30
0
10
258.06517837092912
20
428.47575775199226
30
0
10
258.04353423152594
20
428.49199635877994
30
0
10
258.04550188056243
20
428.48793670708352
30
0
0
SPLINE
5
237
100
AcDbEntity
8
0
100
AcDbSpline
70
0
71
3
72
10
73
6
74
0
42
0.000000001
43
0.0000000001
44
0.0000000001
40
18
40
18
40
18
40
18
40
19
40
19
40
20
40
20
40
20
40
20
10
257.61753821508591
20
428.96900543317417
30
0
10
257.61753821508682
20
428.99133351750709
30
0
10
257.62048968864292
20
429.00655721136985
30
0
10
257.63229558286361
20
429.02279581815668
30
0
10
257.64803677515829
20
429.02685546985225
30
0
10
257.6736162126362
20
429.02685546985134
30
0
0
LINE
5
238
100
AcDbEntity
8
0
100
AcDbLine
10
281.0810994083804
20
424.26872242991624
30
0
11
280.13682879984481
21
424.71231821687974
31
0
0
LINE
5
239
100
AcDbEntity
8
0
100
AcDbLine
10
265.67801249412059
20
426.66718292071334
30
0
11
266.79071802441467
21
426.6671829206615
31
0
0
SPLINE
5
240
100
AcDbEntity
8
0
100
AcDbSpline
70
0
71
3
72
8
73
4
74
0
42
0.000000001
43
0.0000000001
44
0.0000000001
40
16
40
16
40
16
40
16
40
17
40
17
40
17
40
17
10
252.94830705065581
20
425.03824767796056
30
0
10
252.9738864881347
20
425.05448628474647
30
0
10
252.98667620687596
20
425.12654510236365
30
0
10
252.98667620688144
20
425.25442413081322
30
0
0
LINE
5
241
100
AcDbEntity
8
0
100
AcDbLine
10
273.59184359563193
20
426.72866270318258
30
0
11
273.70544005981901
21
426.72866270317712
31
0
0
LINE
5
242
100
AcDbEntity
8
0
100
AcDbLine
10
269.23158665456867
20
427.56842559723913
30
0
11
270.54499238661447
21
427.56842559717825
31
0
0
SPLINE
5
243
100
AcDbEntity
8
0
100
AcDbSpline
70
0
71
3
72
8
73
4
74
0
42
0.000000001
43
0.0000000001
44
0.0000000001
40
0
40
0
40
0
40
0
40
1
40
1
40
1
40
1
10
281.15387214324983
20
424.24452629608192
30
0
10
281.13375610271578
20
424.24452629608192
30
0
10
281.10949852442809
20
424.25259167402777
30
0
10
281.0810994083804
20
424.26872242991624
30
0
0
SPLINE
5
244
100
AcDbEntity
8
0
100
AcDbSpline
70
0
71
3
72
20
73
16
74
0
42
0.000000001
43
0.0000000001
44
0.0000000001
40
24
40
24
40
24
40
24
40
25
40
25
40
26
40
26
40
27
40
27
40
28
40
28
40
29
40
29
40
30
40
30
40
31
40
31
40
31
40
31
10
268.11592965069389
20
426.9838357529506
30
0
10
268.09822080936459
20
427.02240244407136
30
0
10
268.07952814351768
20
427.06553624335083
30
0
10
268.040175162786
20
427.16093805822766
30
0
10
268.01705528660568
20
427.20711659627966
30
0
10
267.96392876261694
20
427.29642893361233
30
0
10
267.9334302025481
20
427.33651799411916
30
0
10
267.86456248626467
20
427.4075618988162
30
0
10
267.80700875193997
20
427.4314123525383
30
0
10
267.64566153092619
20
427.45577026272622
30
0
10
267.60237325211801
20
427.46693430489449
30
0
10
267.59056735789818
20
427.48723256337968
30
0
10
267.58761588434299
20
427.50347117016645
30
0
10
267.58761588434572
20
427.54812733883136
30
0
10
267.59843795404782
20
427.5623361197695
30
0
10
267.62008209345282
20
427.56842559731376
30
0
0
LINE
5
245
100
AcDbEntity
8
0
100
AcDbLine
10
280.67286211537066
20
427.98282897314493
30
0
11
281.1414475301417
21
427.98282897312401
31
0
0
LINE
5
246
100
AcDbEntity
8
0
100
AcDbLine
10
273.59539348518859
20
427.91427326094885
30
0
11
273.39304978333621
21
427.45857940712267
31
0
0
SPLINE
5
247
100
AcDbEntity
8
0
100
AcDbSpline
70
0
71
3
72
16
73
12
74
0
42
0.000000001
43
0.0000000001
44
0.0000000001
40
3
40
3
40
3
40
3
40
4
40
4
40
5
40
5
40
6
40
6
40
7
40
7
40
8
40
8
40
8
40
8
10
258.0455018804214
20
425.24528991426087
30
0
10
258.04550188041873
20
425.18642496465787
30
0
10
258.04845335397209
20
425.13872405722032
30
0
10
258.06025924818914
20
425.06565032667737
30
0
10
258.07944382629648
20
425.03824767772323
30
0
10
258.14437624450784
20
425.00171081244838
30
0
10
258.20094615431566
20
424.98851694443141
30
0
10
258.3622933753295
20
424.9722783376364
30
0
10
258.43903168776342
20
424.96669631655004
30
0
10
258.58463771648439
20
424.96060683899771
30
0
10
258.67023044958387
20
424.95603973083507
30
0
10
258.76861290142187
20
424.94995025328535
30
0
0
SPLINE
5
248
100
AcDbEntity
8
0
100
AcDbSpline
70
0
71
3
72
10
73
6
74
0
42
0.000000001
43
0.0000000001
44
0.0000000001
40
24
40
24
40
24
40
24
40
25
40
25
40
26
40
26
40
26
40
26
10
283.23588233859118
20
427.9828289730267
30
0
10
283.2571816756253
20
427.98282897302568
30
0
10
283.26960628889628
20
427.97812416922443
30
0
10
283.27670606790798
20
427.95930495402166
30
0
10
283.27848101265948
20
427.93578093501765
30
0
10
283.27848101265772
20
427.89814250461228
30
0
0
LINE
5
249
100
AcDbEntity
8
0
100
AcDbLine
10
280.10487979429757
20
424.83329888604101
30
0
11
280.31077338563591
21
424.81716813014373
31
0
0
SPLINE
5
250
100
AcDbEntity
8
0
100
AcDbSpline
70
0
71
3
72
12
73
8
74
0
42
0.000000001
43
0.0000000001
44
0.0000000001
40
21
40
21
40
21
40
21
40
22
40
22
40
23
40
23
40
24
40
24
40
24
40
24
10
257.83889873172484
20
429.02685546984412
30
0
10
257.97663416429083
20
428.85635009857106
30
0
10
258.15077110403769
20
428.67468068513153
30
0
10
258.57184799788962
20
428.28901377391588
30
0
10
258.71253490401432
20
428.16874659239153
30
0
10
258.85420563465789
20
428.07334477751021
30
0
10
258.88962331731818
20
428.0464495850174
30
0
10
258.88962331731818
20
428.04036010747217
30
0
0
LINE
5
251
100
AcDbEntity
8
0
100
AcDbLine
10
281.1840462042091
20
427.89814250470954
30
0
11
281.18404620408273
21
425.01476988973167
31
0
0
LWPOLYLINE
5
252
100
AcDbEntity
8
0
100
AcDbPolyline
90
4
70
1
43
0.0
10
279.18810959566599
20
426.68430312423072
10
276.5505416928217
20
426.68430312435333
10
276.5505416927972
20
426.13182473518918
10
279.18810959564235
20
426.13182473506731
0
SPLINE
5
253
100
AcDbEntity
8
0
100
AcDbSpline
70
0
71
3
72
8
73
4
74
0
42
0.000000001
43
0.0000000001
44
0.0000000001
40
39
40
39
40
39
40
39
40
40
40
40
40
40
40
40
10
281.18404620405363
20
424.34534352037997
30
0
10
281.18404620405181
20
424.27813203751333
30
0
10
281.17398818378308
20
424.24452629608004
30
0
10
281.15387214324983
20
424.24452629608192
30
0
0
LINE
5
254
100
AcDbEntity
8
0
100
AcDbLine
10
252.33735202472957
20
424.85251861285985
30
0
11
252.33735202473332
21
424.92559234340291
31
0
0
SPLINE
5
255
100
AcDbEntity
8
0
100
AcDbSpline
70
0
71
3
72
10
73
6
74
0
42
0.000000001
43
0.0000000001
44
0.0000000001
40
8
40
8
40
8
40
8
40
9
40
9
40
10
40
10
40
10
40
10
10
280.63026344129599
20
427.89814250473506
30
0
10
280.63026344129781
20
427.93578093514043
30
0
10
280.6320383860521
20
427.95930495414359
30
0
10
280.63913816506374
20
427.9781241693463
30
0
10
280.65156277833569
20
427.9828289731467
30
0
10
280.67286211537066
20
427.98282897314493
30
0
0
SPLINE
5
256
100
AcDbEntity
8
0
100
AcDbSpline
70
0
71
3
72
14
73
10
74
0
42
0.000000001
43
0.0000000001
44
0.0000000001
40
32
40
32
40
32
40
32
40
33
40
33
40
34
40
34
40
35
40
35
40
36
40
36
40
36
40
36
10
282.72469824958898
20
424.2888858747001
30
0
10
282.60873519239516
20
424.25931282224508
30
0
10
282.4969136729606
20
424.24452629601916
30
0
10
282.28155370960673
20
424.24452629602905
30
0
10
282.15257439089601
20
424.28014838195304
30
0
10
281.85201707940729
20
424.42263672564513
30
0
10
281.68753886564082
20
424.50665107923669
30
0
10
281.33018332205938
20
424.700220149909
30
0
10
281.23847784316149
20
424.74861241757651
30
0
10
281.2337446571529
20
424.74861241757759
30
0
0
SPLINE
5
257
100
AcDbEntity
8
0
100
AcDbSpline
70
0
71
3
72
10
73
6
74
0
42
0.000000001
43
0.0000000001
44
0.0000000001
40
11
40
11
40
11
40
11
40
12
40
12
40
13
40
13
40
13
40
13
10
281.1414475301417
20
427.98282897312401
30
0
10
281.16274686717679
20
427.98282897312311
30
0
10
281.17517148044681
20
427.97812416932175
30
0
10
281.1822712594585
20
427.95930495411818
30
0
10
281.18404620421006
20
427.93578093511491
30
0
10
281.1840462042091
20
427.89814250470954
30
0
0
SPLINE
5
258
100
AcDbEntity
8
0
100
AcDbSpline
70
0
71
3
72
8
73
4
74
0
42
0.000000001
43
0.0000000001
44
0.0000000001
40
13
40
13
40
13
40
13
40
14
40
14
40
14
40
14
10
265.19101935746681
20
425.46451110555779
30
0
10
265.19692230457713
20
425.46451110555699
30
0
10
265.2018414271688
20
425.46248127970921
30
0
10
265.20577672524269
20
425.45842162801182
30
0
0
SPLINE
5
259
100
AcDbEntity
8
0
100
AcDbSpline
70
0
71
3
72
8
73
4
74
0
42
0.000000001
43
0.0000000001
44
0.0000000001
40
8
40
8
40
8
40
8
40
9
40
9
40
9
40
9
10
258.76861290142187
20
424.94995025328535
30
0
10
258.7843540937165
20
424.94995025328444
30
0
10
258.79222468986245
20
424.94183094989057
30
0
10
258.79222468986245
20
424.92559234310369
30
0
0
SPLINE
5
260
100
AcDbEntity
8
0
100
AcDbSpline
70
0
71
3
72
14
73
10
74
0
42
0.000000001
43
0.0000000001
44
0.0000000001
40
21
40
21
40
21
40
21
40
22
40
22
40
23
40
23
40
24
40
24
40
25
40
25
40
25
40
25
10
263.15155113082528
20
424.82816070217814
30
0
10
263.13187464045768
20
424.83222035387553
30
0
10
263.12203639527434
20
424.84592167835319
30
0
10
263.12203639527627
20
424.89260767286657
30
0
10
263.13138272820203
20
424.90833882319123
30
0
10
263.16876805990159
20
424.92457742997613
30
0
10
263.21058060193354
20
424.93320418983069
30
0
10
263.3404454383608
20
424.95147262245979
30
0
10
263.41029697916662
20
424.96618885985754
30
0
10
263.4850676425649
20
424.98648711833812
30
0
0
SPLINE
5
261
100
AcDbEntity
8
0
100
AcDbSpline
70
0
71
3
72
8
73
4
74
0
42
0.000000001
43
0.0000000001
44
0.0000000001
40
9
40
9
40
9
40
9
40
10
40
10
40
10
40
10
10
265.9170818520069
20
424.80380279186926
30
0
10
265.60816095323844
20
424.91341338769689
30
0
10
265.3395768597274
20
425.1113214079287
30
0
10
265.11132957147493
20
425.39752685256468
30
0
0
LINE
5
262
100
AcDbEntity
8
0
100
AcDbLine
10
280.63026344117679
20
425.14784862583298
30
0
11
280.63026344129599
21
427.89814250473506
31
0
0
SPLINE
5
263
100
AcDbEntity
8
0
100
AcDbSpline
70
0
71
3
72
29
73
25
74
0
42
0.000000001
43
0.0000000001
44
0.0000000001
40
0
40
0
40
0
40
0
40
1
40
1
40
1
40
2
40
2
40
2
40
3
40
3
40
3
40
4
40
4
40
4
40
5
40
5
40
5
40
6
40
6
40
6
40
7
40
7
40
7
40
8
40
8
40
8
40
8
10
262.1279829398527
20
424.84192643463763
30
0
10
262.06344594341408
20
424.77794398179321
30
0
10
261.98675587621892
20
424.74595275537183
30
0
10
261.89791273826808
20
424.74595275537649
30
0
10
261.80739331469613
20
424.74595275538007
30
0
10
261.7302841760993
20
424.77751166793678
30
0
10
261.66658532247669
20
424.84062949304735
30
0
10
261.60288646885419
20
424.90374731815785
30
0
10
261.57103704204559
20
424.98286075647866
30
0
10
261.57103704204928
20
425.07796980800947
30
0
10
261.57103704205377
20
425.17307885954148
30
0
10
261.60330554027502
20
425.25392155334151
30
0
10
261.66784253671358
20
425.32049788941009
30
0
10
261.7323795331522
20
425.38707422547935
30
0
10
261.80906960034736
20
425.42036239351182
30
0
10
261.89791273829815
20
425.42036239350722
30
0
10
261.98843216187021
20
425.42036239350364
30
0
10
262.06554130046788
20
425.38620959772283
30
0
10
262.12924015409044
20
425.31790400616501
30
0
10
262.19293900771117
20
425.24959841460799
30
0
10
262.22478843452063
20
425.16918803467524
30
0
10
262.224788434517
20
425.07667286636752
30
0
10
262.22478843451245
20
424.9841576980599
30
0
10
262.19251993629217
20
424.90590888748375
30
0
10
262.1279829398527
20
424.84192643463763
30
0
0
LINE
5
264
100
AcDbEntity
8
0
100
AcDbLine
10
264.63023938195869
20
424.82816070210993
30
0
11
263.15155113082528
21
424.82816070217814
31
0
0
SPLINE
5
265
100
AcDbEntity
8
0
100
AcDbSpline
70
0
71
3
72
8
73
4
74
0
42
0.000000001
43
0.0000000001
44
0.0000000001
40
31
40
31
40
31
40
31
40
32
40
32
40
32
40
32
10
262.8121316720771
20
427.01123840215041
30
0
10
262.76687574423158
20
427.01123840215217
30
0
10
262.72161981638783
20
427.05893930959166
30
0
10
262.67636388854589
20
427.15434112446837
30
0
0
LINE
5
266
100
AcDbEntity
8
0
100
AcDbLine
10
265.17626198969083
20
425.46451110555779
30
0
11
265.19101935746681
21
425.46451110555779
31
0
0
SPLINE
5
267
100
AcDbEntity
8
0
100
AcDbSpline
70
0
71
3
72
12
73
8
74
0
42
0.000000001
43
0.0000000001
44
0.0000000001
40
6
40
6
40
6
40
6
40
7
40
7
40
8
40
8
40
9
40
9
40
9
40
9
10
267.03864180298211
20
425.16003722821182
30
0
10
266.94025935113859
20
425.03621785146413
30
0
10
266.82220040892747
20
424.93624892843582
30
0
10
266.54672954377293
20
424.78401198981823
30
0
10
266.41096176023348
20
424.74595275516634
30
0
10
266.14336149123301
20
424.74595275517913
30
0
10
266.02333489999091
20
424.76523610074486
30
0
10
265.9170818520069
20
424.80380279186926
30
0
0
SPLINE
5
268
100
AcDbEntity
8
0
100
AcDbSpline
70
0
71
3
72
15
73
11
74
0
42
0.000000001
43
0.0000000001
44
0.0000000001
40
14
40
14
40
14
40
14
40
15
40
15
40
16
40
16
40
17
40
17
40
17
40
18
40
18
40
18
40
18
10
265.20577672524269
20
425.45842162801182
30
0
10
265.45370050386458
20
425.21890217788848
30
0
10
265.71195443993662
20
425.09914245282096
30
0
10
266.24912262697489
20
425.09914245279646
30
0
10
266.47392652943017
20
425.205708309827
30
0
10
266.83597395221568
20
425.63197173797477
30
0
10
266.9264858079186
20
425.89584909826323
30
0
10
266.92648580793229
20
426.21047210476536
30
0
10
266.92648580793872
20
426.35864939169812
30
0
10
266.90976079112897
20
426.43273803516604
30
0
10
266.87631075750409
20
426.43273803516792
30
0
0
SPLINE
5
269
100
AcDbEntity
8
0
100
AcDbSpline
70
0
71
3
72
20
73
16
74
0
42
0.000000001
43
0.0000000001
44
0.0000000001
40
0
40
0
40
0
40
0
40
1
40
1
40
1
40
2
40
2
40
3
40
3
40
3
40
4
40
4
40
5
40
5
40
6
40
6
40
6
40
6
10
265.16445609551283
20
426.43273803524698
30
0
10
265.12313546574023
20
426.4327380352488
30
0
10
265.10247515085661
20
426.47637929099068
30
0
10
265.1024751508603
20
426.56366180247187
30
0
10
265.10247515086849
20
426.76258473561484
30
0
10
265.1929870065706
20
426.99347742586639
30
0
10
265.5550344293589
20
427.51920232058546
30
0
10
265.78820084022209
20
427.65063354425911
30
0
10
266.07350995055361
20
427.65063354424632
30
0
10
266.4709750559814
20
427.65063354422722
30
0
10
266.78333934056258
20
427.49230712803723
30
0
10
267.23786626802939
20
426.85900146331454
30
0
10
267.35149799988721
20
426.50834904799831
30
0
10
267.35149799985453
20
425.73904505145407
30
0
10
267.24721260089058
20
425.41782511094971
30
0
10
267.03864180298211
20
425.16003722821182
30
0
0
SPLINE
5
270
100
AcDbEntity
8
0
100
AcDbSpline
70
0
71
3
72
29
73
25
74
0
42
0.000000001
43
0.0000000001
44
0.0000000001
40
0
40
0
40
0
40
0
40
1
40
1
40
1
40
2
40
2
40
2
40
3
40
3
40
3
40
4
40
4
40
4
40
5
40
5
40
5
40
6
40
6
40
6
40
7
40
7
40
7
40
8
40
8
40
8
40
8
10
255.68067887410322
20
424.84192643493685
30
0
10
255.61614187766551
20
424.77794398209062
30
0
10
255.53945181047135
20
424.7459527556702
30
0
10
255.45060867251962
20
424.74595275567475
30
0
10
255.36008924894759
20
424.74595275567845
30
0
10
255.28298011035071
20
424.777511668236
30
0
10
255.21928125672818
20
424.84062949334651
30
0
10
255.15558240310571
20
424.90374731845623
30
0
10
255.12373297629622
20
424.98286075677692
30
0
10
255.12373297630069
20
425.07796980830875
30
0
10
255.12373297630444
20
425.17307885984064
30
0
10
255.15600147452548
20
425.25392155363988
30
0
10
255.2205384709651
20
425.32049788970915
30
0
10
255.2850754674046
20
425.38707422577772
30
0
10
255.36176553459791
20
425.42036239381019
30
0
10
255.4506086725487
20
425.42036239380656
30
0
10
255.54112809612067
20
425.42036239380195
30
0
10
255.61823723471844
20
425.38620959802199
30
0
10
255.68193608834011
20
425.31790400646423
30
0
10
255.74563494196258
20
425.24959841490636
30
0
10
255.77748436877212
20
425.16918803497441
30
0
10
255.77748436876851
20
425.07667286666674
30
0
10
255.77748436876479
20
424.9841576983589
30
0
10
255.74521587054284
20
424.905908887782
30
0
10
255.68067887410322
20
424.84192643493685
30
0
0
LINE
5
271
100
AcDbEntity
8
0
100
AcDbLine
10
257.6736162126362
20
429.02685546985134
30
0
11
257.83889873172484
21
429.02685546984412
31
0
0
LINE
5
272
100
AcDbEntity
8
0
100
AcDbLine
10
254.13775089337466
20
424.8281607025956
30
0
11
252.36096381317023
21
424.82816070267745
31
0
0
LINE
5
273
100
AcDbEntity
8
0
100
AcDbLine
10
266.84384454840995
20
426.7250329573389
30
0
11
266.84384454841165
21
426.76156982261006
31
0
0
LINE
5
274
100
AcDbEntity
8
0
100
AcDbLine
10
283.23588233832112
20
421.7721518987355
30
0
11
282.75664725504163
21
421.99798248119077
31
0
0
SPLINE
5
275
100
AcDbEntity
8
0
100
AcDbSpline
70
0
71
3
72
16
73
12
74
0
42
0.000000001
43
0.0000000001
44
0.0000000001
40
3
40
3
40
3
40
3
40
4
40
4
40
5
40
5
40
6
40
6
40
7
40
7
40
8
40
8
40
8
40
8
10
253.41463987237972
20
425.24528991447539
30
0
10
253.41463987237691
20
425.1864249648724
30
0
10
253.41759134593033
20
425.13872405743507
30
0
10
253.42939724014741
20
425.0656503268919
30
0
10
253.44858181825484
20
425.03824767793776
30
0
10
253.51351423646611
20
425.00171081266302
30
0
10
253.57008414627308
20
424.98851694464622
30
0
10
253.73143136728785
20
424.97227833785104
30
0
10
253.80816967972169
20
424.96669631676468
30
0
10
253.95377570844173
20
424.96060683921223
30
0
10
254.03936844154117
20
424.95603973104971
30
0
10
254.13775089338009
20
424.94995025349999
30
0
0
SPLINE
5
276
100
AcDbEntity
8
0
100
AcDbSpline
70
0
71
3
72
8
73
4
74
0
42
0.000000001
43
0.0000000001
44
0.0000000001
40
25
40
25
40
25
40
25
40
26
40
26
40
26
40
26
10
263.4850676425649
20
424.98648711833812
30
0
10
263.65625310876658
20
425.03723276454002
30
0
10
263.7418458418706
20
425.13872405695651
30
0
10
263.74184584187697
20
425.29096099558677
30
0
0
SPLINE
5
277
100
AcDbEntity
8
0
100
AcDbSpline
70
0
71
3
72
8
73
4
74
0
42
0.000000001
43
0.0000000001
44
0.0000000001
40
12
40
12
40
12
40
12
40
13
40
13
40
13
40
13
10
252.36096381317023
20
424.82816070267745
30
0
10
252.34522262087557
20
424.8281607026783
30
0
10
252.33735202472872
20
424.8362800060732
30
0
10
252.33735202472957
20
424.85251861285985
30
0
0
SPLINE
5
278
100
AcDbEntity
8
0
100
AcDbSpline
70
0
71
3
72
8
73
4
74
0
42
0.000000001
43
0.0000000001
44
0.0000000001
40
15
40
15
40
15
40
15
40
16
40
16
40
16
40
16
10
264.33804350009632
20
427.0782226550773
30
0
10
264.24753164440341
20
427.04574544150637
30
0
10
264.20227571655511
20
426.98688049190514
30
0
10
264.20227571655141
20
426.9016278062719
30
0
0
LINE
5
279
100
AcDbEntity
8
0
100
AcDbLine
10
283.27848101265772
20
427.89814250461228
30
0
11
283.27848101239488
21
421.85683836714537
31
0
0
LINE
5
280
100
AcDbEntity
8
0
100
AcDbLine
10
253.0427542045945
20
429.02685547006598
30
0
11
253.20803672368311
21
429.02685547005785
31
0
0
LINE
5
281
100
AcDbEntity
8
0
100
AcDbLine
10
263.74184584187697
20
425.29096099558677
30
0
11
263.74184584193699
21
426.66718292080259
31
0
0
SPLINE
5
282
100
AcDbEntity
8
0
100
AcDbSpline
70
0
71
3
72
8
73
4
74
0
42
0.000000001
43
0.0000000001
44
0.0000000001
40
12
40
12
40
12
40
12
40
13
40
13
40
13
40
13
10
256.99182582121188
20
424.82816070246372
30
0
10
256.97608462891731
20
424.82816070246372
30
0
10
256.96821403277045
20
424.83628000585838
30
0
10
256.96821403277141
20
424.85251861264538
30
0
0
LINE
5
283
100
AcDbEntity
8
0
100
AcDbLine
10
281.18404620407091
20
424.73248166169191
30
0
11
281.18404620405363
21
424.34534352037997
31
0
0
SPLINE
5
284
100
AcDbEntity
8
0
100
AcDbSpline
70
0
71
3
72
10
73
6
74
0
42
0.000000001
43
0.0000000001
44
0.0000000001
40
15
40
15
40
15
40
15
40
16
40
16
40
17
40
17
40
17
40
17
10
270.54499238661447
20
427.56842559717825
30
0
10
270.59221596349653
20
427.56842559717643
30
0
10
270.61582775193619
20
427.54711242576656
30
0
10
270.61582775193261
20
427.46185974013417
30
0
10
270.57450712216001
20
427.43648691703044
30
0
10
270.49186586261465
20
427.42836761364106
30
0
0
LINE
5
285
100
AcDbEntity
8
0
100
AcDbLine
10
273.70544005980167
20
426.34152456186519
30
0
11
273.5918435956155
21
426.34152456187064
31
0
0
SPLINE
5
286
100
AcDbEntity
8
0
100
AcDbSpline
70
0
71
3
72
11
73
7
74
0
42
0.000000001
43
0.0000000001
44
0.0000000001
40
14
40
14
40
14
40
14
40
15
40
15
40
15
40
16
40
16
40
16
40
16
10
256.96821403277499
20
424.92559234318833
30
0
10
256.96821403277499
20
424.94183094997516
30
0
10
256.97608462892282
20
424.94995025336823
30
0
10
256.99182582121745
20
424.94995025336823
30
0
10
257.28697317673317
20
424.94995025335442
30
0
10
257.4827542558923
20
424.97938272814645
30
0
10
257.57916905869752
20
425.0382476777458
30
0
0
SPLINE
5
287
100
AcDbEntity
8
0
100
AcDbSpline
70
0
71
3
72
8
73
4
74
0
42
0.000000001
43
0.0000000001
44
0.0000000001
40
10
40
10
40
10
40
10
40
11
40
11
40
11
40
11
10
254.16136268181708
20
424.85251861277533
30
0
10
254.16136268181617
20
424.8362800059885
30
0
10
254.1534920856684
20
424.82816070259474
30
0
10
254.13775089337466
20
424.8281607025956
30
0
0
LINE
5
288
100
AcDbEntity
8
0
100
AcDbLine
10
273.39304978333621
20
427.45857940712267
30
0
11
273.2226550870555
21
427.4585794071308
31
0
0
LINE
5
289
100
AcDbEntity
8
0
100
AcDbLine
10
254.16136268182072
20
424.92559234331748
30
0
11
254.16136268181708
21
424.85251861277533
31
0
0
LINE
5
290
100
AcDbEntity
8
0
100
AcDbLine
10
269.03383792628301
20
425.49495849310546
30
0
11
269.63298705805391
21
427.18478851187319
31
0
0
LINE
5
291
100
AcDbEntity
8
0
100
AcDbLine
10
274.88755326525916
20
426.57138783321437
30
0
11
274.8875532652574
21
426.54315901040991
31
0
0
SPLINE
5
292
100
AcDbEntity
8
0
100
AcDbSpline
70
0
71
3
72
8
73
4
74
0
42
0.000000001
43
0.0000000001
44
0.0000000001
40
17
40
17
40
17
40
17
40
18
40
18
40
18
40
18
10
270.49186586261465
20
427.42836761364106
30
0
10
270.47218937224721
20
427.42633778779322
30
0
10
270.45546435543474
20
427.42329304902165
30
0
10
270.4416908121766
20
427.41923339732517
30
0
0
SPLINE
5
293
100
AcDbEntity
8
0
100
AcDbSpline
70
0
71
3
72
8
73
4
74
0
42
0.000000001
43
0.0000000001
44
0.0000000001
40
6
40
6
40
6
40
6
40
7
40
7
40
7
40
7
10
266.79071802441467
20
426.6671829206615
30
0
10
266.8261357070769
20
426.66718292066071
30
0
10
266.84384454840801
20
426.68646626621921
30
0
10
266.84384454840995
20
426.7250329573389
30
0
0
SPLINE
5
294
100
AcDbEntity
8
0
100
AcDbSpline
70
0
71
3
72
8
73
4
74
0
42
0.000000001
43
0.0000000001
44
0.0000000001
40
8
40
8
40
8
40
8
40
9
40
9
40
9
40
9
10
254.13775089338009
20
424.94995025349999
30
0
10
254.15349208567483
20
424.94995025349903
30
0
10
254.16136268182072
20
424.94183095010521
30
0
10
254.16136268182072
20
424.92559234331748
30
0
0
LINE
5
295
100
AcDbEntity
8
0
100
AcDbLine
10
256.96821403277141
20
424.85251861264538
30
0
11
256.96821403277499
21
424.92559234318833
31
0
0
SPLINE
5
296
100
AcDbEntity
8
0
100
AcDbSpline
70
0
71
3
72
8
73
4
74
0
42
0.000000001
43
0.0000000001
44
0.0000000001
40
0
40
0
40
0
40
0
40
1
40
1
40
1
40
1
10
254.18202299683895
20
427.96424163837486
30
0
10
253.96951690087192
20
428.06979258250152
30
0
10
253.73536666550362
20
428.22811899868788
30
0
10
253.47957229073202
20
428.43922088693319
30
0
0
LINE
5
297
100
AcDbEntity
8
0
100
AcDbLine
10
258.76861290141642
20
424.82816070238096
30
0
11
256.99182582121188
21
424.82816070246372
31
0
0
SPLINE
5
298
100
AcDbEntity
8
0
100
AcDbSpline
70
0
71
3
72
8
73
4
74
0
42
0.000000001
43
0.0000000001
44
0.0000000001
40
10
40
10
40
10
40
10
40
11
40
11
40
11
40
11
10
258.79222468985881
20
424.85251861256069
30
0
10
258.7922246898579
20
424.83628000577392
30
0
10
258.78435409371099
20
424.82816070238096
30
0
10
258.76861290141642
20
424.82816070238096
30
0
0
SPLINE
5
299
100
AcDbEntity
8
0
100
AcDbSpline
70
0
71
3
72
20
73
16
74
0
42
0.000000001
43
0.0000000001
44
0.0000000001
40
12
40
12
40
12
40
12
40
13
40
13
40
14
40
14
40
14
40
15
40
15
40
16
40
16
40
16
40
17
40
17
40
18
40
18
40
18
40
18
10
274.50416519863211
20
426.68430312444707
30
0
10
274.63669440685226
20
426.72731847347586
30
0
10
274.74259944378082
20
426.81133282705474
30
0
10
274.90116117505198
20
427.06135954331154
30
0
10
274.94080160787416
20
427.21527383907414
30
0
10
274.94080160788229
20
427.39808907247152
30
0
10
274.94080160789139
20
427.6131658176447
30
0
10
274.87631194854288
20
427.78052240998471
30
0
10
274.61835331112803
20
428.01979528900222
30
0
10
274.43553400157998
20
428.07961350876212
30
0
10
274.19887470119011
20
428.07961350877298
30
0
10
274.09001142301065
20
428.07961350877861
30
0
10
273.97818990357609
20
428.06281063806739
30
0
10
273.74863038219519
20
427.99559915521064
30
0
10
273.6592914962967
20
427.95728860998042
30
0
10
273.59539348518859
20
427.91427326094885
30
0
0
LINE
5
300
100
AcDbEntity
8
0
100
AcDbLine
10
282.76729692381929
20
427.98282897304853
30
0
11
283.23588233859118
21
427.9828289730267
31
0
0
LINE
5
301
100
AcDbEntity
8
0
100
AcDbLine
10
269.63298705805391
20
427.18478851187319
30
0
11
269.6506958993877
21
427.25786224241432
31
0
0
LINE
5
302
100
AcDbEntity
8
0
100
AcDbLine
10
273.11970829126949
20
424.78490661870092
30
0
11
273.11970829128131
21
425.0470314018811
31
0
0
SPLINE
5
303
100
AcDbEntity
8
0
100
AcDbSpline
70
0
71
3
72
18
73
14
74
0
42
0.000000001
43
0.0000000001
44
0.0000000001
40
0
40
0
40
0
40
0
40
1
40
1
40
2
40
2
40
2
40
3
40
3
40
4
40
4
40
4
40
5
40
5
40
5
40
5
10
266.84384454841165
20
426.76156982261006
30
0
10
266.8103945147941
20
426.93816467142284
30
0
10
266.73316429010811
20
427.09547617467712
30
0
10
266.49114345859647
20
427.37153249007133
30
0
10
266.35685141183967
20
427.44054656892337
30
0
10
266.20927773408221
20
427.44054656892962
30
0
10
266.05776875825092
20
427.4405465689369
30
0
10
265.91855758889596
20
427.36392064316618
30
0
10
265.66473086313908
20
427.05741694006969
30
0
10
265.60127418169668
20
426.90771728375239
30
0
10
265.60127418169031
20
426.7615698226673
30
0
10
265.60127418168759
20
426.69864522136686
30
0
10
265.6268536191638
20
426.66718292071539
30
0
10
265.67801249412059
20
426.66718292071334
30
0
0
LINE
5
304
100
AcDbEntity
8
0
100
AcDbLine
10
281.2337446571529
20
424.74861241757759
30
0
11
281.20889543061281
21
424.74861241757833
31
0
0
LINE
5
305
100
AcDbEntity
8
0
100
AcDbLine
10
269.21978076022515
20
424.7459527550364
30
0
11
268.98661434936815
21
424.7459527550472
31
0
0
SPLINE
5
306
100
AcDbEntity
8
0
100
AcDbSpline
70
0
71
3
72
8
73
4
74
0
42
0.000000001
43
0.0000000001
44
0.0000000001
40
30
40
30
40
30
40
30
40
31
40
31
40
31
40
31
10
262.91543324650956
20
427.0508200061895
30
0
10
262.87017731866308
20
427.0284919218584
30
0
10
262.83574346051859
20
427.01529805384598
30
0
10
262.8121316720771
20
427.01123840215041
30
0
0
SPLINE
5
307
100
AcDbEntity
8
0
100
AcDbSpline
70
0
71
3
72
8
73
4
74
0
42
0.000000001
43
0.0000000001
44
0.0000000001
40
37
40
37
40
37
40
37
40
38
40
38
40
38
40
38
10
281.20889543061281
20
424.74861241757833
30
0
10
281.1994290585971
20
424.74861241757833
30
0
10
281.19114598308261
20
424.74323549895053
30
0
10
281.18404620407091
20
424.73248166169191
30
0
0
LINE
5
308
100
AcDbEntity
8
0
100
AcDbLine
10
270.06685367065444
20
427.0234173569043
30
0
11
269.28471317844293
21
424.84033965698467
31
0
0
LINE
5
309
100
AcDbEntity
8
0
100
AcDbLine
10
268.92168193115867
20
424.83425017945586
30
0
11
268.11592965069389
21
426.9838357529506
31
0
0
SPLINE
5
310
100
AcDbEntity
8
0
100
AcDbSpline
70
0
71
3
72
8
73
4
74
0
42
0.000000001
43
0.0000000001
44
0.0000000001
40
16
40
16
40
16
40
16
40
17
40
17
40
17
40
17
10
257.57916905869752
20
425.0382476777458
30
0
10
257.6047484961764
20
425.05448628453172
30
0
10
257.61753821491766
20
425.12654510214998
30
0
10
257.61753821492312
20
425.25442413059864
30
0
0
SPLINE
5
311
100
AcDbEntity
8
0
100
AcDbSpline
70
0
71
3
72
8
73
4
74
0
42
0.000000001
43
0.0000000001
44
0.0000000001
40
22
40
22
40
22
40
22
40
23
40
23
40
23
40
23
10
268.98661434936815
20
424.7459527550472
30
0
10
268.9669378589997
20
424.74595275504896
30
0
10
268.94529371959652
20
424.775385229851
30
0
10
268.92168193115867
20
424.83425017945586
30
0
0
LINE
5
312
100
AcDbEntity
8
0
100
AcDbLine
10
258.04550188056243
20
428.48793670708352
30
0
11
258.0455018804214
21
425.24528991426087
31
0
0
SPLINE
5
313
100
AcDbEntity
8
0
100
AcDbSpline
70
0
71
3
72
12
73
8
74
0
42
0.000000001
43
0.0000000001
44
0.0000000001
40
21
40
21
40
21
40
21
40
22
40
22
40
23
40
23
40
24
40
24
40
24
40
24
10
253.20803672368311
20
429.02685547005785
30
0
10
253.34577215624904
20
428.8563500987857
30
0
10
253.51990909599593
20
428.67468068534629
30
0
10
253.94098598984783
20
428.28901377413047
30
0
10
254.08167289597259
20
428.16874659260611
30
0
10
254.22334362661513
20
428.07334477772474
30
0
10
254.25876130927651
20
428.04644958523113
30
0
10
254.25876130927651
20
428.04036010768607
30
0
0
SPLINE
5
314
100
AcDbEntity
8
0
100
AcDbSpline
70
0
71
3
72
8
73
4
74
0
42
0.000000001
43
0.0000000001
44
0.0000000001
40
24
40
24
40
24
40
24
40
25
40
25
40
25
40
25
10
254.25876130927651
20
428.04036010768607
30
0
10
254.23318187179581
20
427.98758463562888
30
0
10
254.21350538142732
20
427.96119689960051
30
0
10
254.1997318381691
20
427.96119689960136
30
0
0
SPLINE
5
315
100
AcDbEntity
8
0
100
AcDbSpline
70
0
71
3
72
11
73
7
74
0
42
0.000000001
43
0.0000000001
44
0.0000000001
40
7
40
7
40
7
40
7
40
8
40
8
40
8
40
9
40
9
40
9
40
9
10
263.7418458419761
20
427.57755981381166
30
0
10
263.74184584197877
20
427.62627563417288
30
0
10
263.75857085879221
20
427.65063354435279
30
0
10
263.79202089241699
20
427.65063354435188
30
0
10
263.79792383952741
20
427.65063354435188
30
0
10
263.81268120730334
20
427.64454406680488
30
0
10
263.8362929957438
20
427.63236511171363
30
0
0
LINE
5
316
100
AcDbEntity
8
0
100
AcDbLine
10
263.74184584195518
20
427.08431213264976
30
0
11
263.7418458419761
21
427.57755981381166
31
0
0
LINE
5
317
100
AcDbEntity
8
0
100
AcDbLine
10
266.87631075750409
20
426.43273803516792
30
0
11
265.16445609551283
21
426.43273803524698
31
0
0
SPLINE
5
318
100
AcDbEntity
8
0
100
AcDbSpline
70
0
71
3
72
10
73
6
74
0
42
0.000000001
43
0.0000000001
44
0.0000000001
40
2
40
2
40
2
40
2
40
3
40
3
40
4
40
4
40
4
40
4
10
280.13682879984481
20
424.71231821687974
30
0
10
280.10132990478718
20
424.73113743208438
30
0
10
280.0835804572589
20
424.75600568074606
30
0
10
280.08358045726158
20
424.81784024498296
30
0
10
280.0906802362752
20
424.83329888604203
30
0
10
280.10487979429757
20
424.83329888604101
30
0
0
SPLINE
5
319
100
AcDbEntity
8
0
100
AcDbSpline
70
0
71
3
72
8
73
4
74
0
42
0.000000001
43
0.0000000001
44
0.0000000001
40
7
40
7
40
7
40
7
40
8
40
8
40
8
40
8
10
268.91577898407741
20
425.50409270942879
30
0
10
268.95513196480806
20
425.39448211361366
30
0
10
268.99448494554338
20
425.39143737483931
30
0
10
269.03383792628301
20
425.49495849310546
30
0
0
LINE
5
320
100
AcDbEntity
8
0
100
AcDbLine
10
282.72469824949263
20
422.07863626063136
30
0
11
282.72469824958898
21
424.2888858747001
31
0
0
LINE
5
321
100
AcDbEntity
8
0
100
AcDbLine
10
258.83059384621168
20
427.96119689938683
30
0
11
258.81288500488063
21
427.96424163816022
31
0
0
SPLINE
5
322
100
AcDbEntity
8
0
100
AcDbSpline
70
0
71
3
72
8
73
4
74
0
42
0.000000001
43
0.0000000001
44
0.0000000001
40
30
40
30
40
30
40
30
40
31
40
31
40
31
40
31
10
282.75664725504163
20
421.99798248119077
30
0
10
282.7353479180066
20
422.00873631844934
30
0
10
282.72469824949087
20
422.0356209115962
30
0
10
282.72469824949263
20
422.07863626063136
30
0
0
SPLINE
5
323
100
AcDbEntity
8
0
100
AcDbSpline
70
0
71
3
72
12
73
8
74
0
42
0.000000001
43
0.0000000001
44
0.0000000001
40
27
40
27
40
27
40
27
40
28
40
28
40
29
40
29
40
30
40
30
40
30
40
30
10
263.74184584193699
20
426.66718292080259
30
0
10
263.7418458419416
20
426.76258473567748
30
0
10
263.69117887924858
20
426.86965804918322
30
0
10
263.4885110284722
20
427.10714767345598
30
0
10
263.39160431341315
20
427.16652007952604
30
0
10
263.20664530395698
20
427.16652007953422
30
0
10
263.07874811656535
20
427.12795338842079
30
0
10
262.91543324650956
20
427.0508200061895
30
0
0
SPLINE
5
324
100
AcDbEntity
8
0
100
AcDbSpline
70
0
71
3
72
8
73
4
74
0
42
0.000000001
43
0.0000000001
44
0.0000000001
40
0
40
0
40
0
40
0
40
1
40
1
40
1
40
1
10
258.81288500488063
20
427.96424163816022
30
0
10
258.60037890891363
20
428.06979258228694
30
0
10
258.36622867354538
20
428.22811899847329
30
0
10
258.11043429877367
20
428.43922088671837
30
0
0
LINE
5
325
100
AcDbEntity
8
0
100
AcDbLine
10
254.1997318381691
20
427.96119689960136
30
0
11
254.18202299683895
21
427.96424163837486
31
0
0
SPLINE
5
326
100
AcDbEntity
8
0
100
AcDbSpline
70
0
71
3
72
11
73
7
74
0
42
0.000000001
43
0.0000000001
44
0.0000000001
40
14
40
14
40
14
40
14
40
15
40
15
40
15
40
16
40
16
40
16
40
16
10
252.33735202473332
20
424.92559234340291
30
0
10
252.33735202473332
20
424.9418309501898
30
0
10
252.34522262088103
20
424.9499502535827
30
0
10
252.36096381317569
20
424.94995025358185
30
0
10
252.65611116869152
20
424.9499502535682
30
0
10
252.8518922478506
20
424.97938272836103
30
0
10
252.94830705065581
20
425.03824767796056
30
0
0
LINE
5
327
100
AcDbEntity
8
0
100
AcDbLine
10
273.5918435956155
20
426.34152456187064
30
0
11
273.59184359563193
21
426.72866270318258
31
0
0
SPLINE
5
328
100
AcDbEntity
8
0
100
AcDbSpline
70
0
71
3
72
8
73
4
74
0
42
0.000000001
43
0.0000000001
44
0.0000000001
40
20
40
20
40
20
40
20
40
21
40
21
40
21
40
21
10
269.28471317844293
20
424.84033965698467
30
0
10
269.26110138999877
20
424.77741505568525
30
0
10
269.23945725059286
20
424.7459527550364
30
0
10
269.21978076022515
20
424.7459527550364
30
0
0
SPLINE
5
329
100
AcDbEntity
8
0
100
AcDbSpline
70
0
71
3
72
10
73
6
74
0
42
0.000000001
43
0.0000000001
44
0.0000000001
40
10
40
10
40
10
40
10
40
11
40
11
40
12
40
12
40
12
40
12
10
265.11132957147493
20
425.39752685256468
30
0
10
265.12116781665918
20
425.40361633010889
30
0
10
265.13149797410284
20
425.41630274166067
30
0
10
265.15314211350869
20
425.4548694327795
30
0
10
265.164456095471
20
425.4645111055587
30
0
10
265.17626198969083
20
425.46451110555779
30
0
0
SPLINE
5
330
100
AcDbEntity
8
0
100
AcDbSpline
70
0
71
3
72
10
73
6
74
0
42
0.000000001
43
0.0000000001
44
0.0000000001
40
18
40
18
40
18
40
18
40
19
40
19
40
20
40
20
40
20
40
20
10
252.98667620704421
20
428.96900543338859
30
0
10
252.98667620704509
20
428.99133351772161
30
0
10
252.98962768060122
20
429.00655721158449
30
0
10
253.00143357482102
20
429.02279581837126
30
0
10
253.01717476711659
20
429.02685547006689
30
0
10
253.0427542045945
20
429.02685547006598
30
0
0
LINE
5
331
100
AcDbEntity
8
0
100
AcDbLine
10
258.79222468986245
20
424.92559234310369
30
0
11
258.79222468985881
21
424.85251861256069
31
0
0
LINE
5
332
100
AcDbEntity
8
0
100
AcDbLine
10
257.61753821492312
20
425.25442413059864
30
0
11
257.61753821508591
21
428.96900543317417
31
0
0
LINE
5
333
100
AcDbEntity
8
0
100
AcDbLine
10
252.98667620688144
20
425.25442413081322
30
0
11
252.98667620704421
21
428.96900543338859
31
0
0
SPLINE
5
334
100
AcDbEntity
8
0
100
AcDbSpline
70
0
71
3
72
10
73
6
74
0
42
0.000000001
43
0.0000000001
44
0.0000000001
40
21
40
21
40
21
40
21
40
22
40
22
40
23
40
23
40
23
40
23
10
282.72469824974633
20
427.8981425046386
30
0
10
282.72469824974723
20
427.93578093504317
30
0
10
282.72647319450061
20
427.95930495404718
30
0
10
282.73357297351413
20
427.97812416924893
30
0
10
282.74599758678414
20
427.98282897304944
30
0
10
282.76729692381929
20
427.98282897304853
30
0
0
SPLINE
5
335
100
AcDbEntity
8
0
100
AcDbSpline
70
0
71
3
72
8
73
4
74
0
42
0.000000001
43
0.0000000001
44
0.0000000001
40
10
40
10
40
10
40
10
40
11
40
11
40
11
40
11
10
269.6506958993877
20
427.25786224241432
30
0
10
269.65069589939321
20
427.38371144501519
30
0
10
269.57690906051721
20
427.44460622047063
30
0
10
269.42933538275889
20
427.44054656878058
30
0
0
LINE
5
336
100
AcDbEntity
8
0
100
AcDbLine
10
267.62008209345282
20
427.56842559731376
30
0
11
268.73869057085807
21
427.56842559726186
31
0
0
SPLINE
5
337
100
AcDbEntity
8
0
100
AcDbSpline
70
0
71
3
72
10
73
6
74
0
42
0.000000001
43
0.0000000001
44
0.0000000001
40
10
40
10
40
10
40
10
40
11
40
11
40
12
40
12
40
12
40
12
10
273.70544005981901
20
426.72866270317712
30
0
10
273.76697147792044
20
426.72866270317434
30
0
10
273.89180925887558
20
426.72395789936758
30
0
10
274.26809754649366
20
426.70513868414764
30
0
10
274.40950147847707
20
426.69505696171115
30
0
10
274.50416519863211
20
426.68430312444707
30
0
0
LINE
5
338
100
AcDbEntity
8
0
100
AcDbLine
10
263.8362929957438
20
427.63236511171363
30
0
11
264.58891875229358
21
427.2669964589669
31
0
0
SPLINE
5
339
100
AcDbEntity
8
0
100
AcDbSpline
70
0
71
3
72
8
73
4
74
0
42
0.000000001
43
0.0000000001
44
0.0000000001
40
17
40
17
40
17
40
17
40
18
40
18
40
18
40
18
10
264.20227571648138
20
425.29096099556511
30
0
10
264.2022757164732
20
425.09203806242203
30
0
10
264.30852876445351
20
424.9763379890573
30
0
10
264.52103486042336
20
424.94386077547369
30
0
0
SPLINE
5
340
100
AcDbEntity
8
0
100
AcDbSpline
70
0
71
3
72
10
73
6
74
0
42
0.000000001
43
0.0000000001
44
0.0000000001
40
27
40
27
40
27
40
27
40
28
40
28
40
29
40
29
40
29
40
29
10
283.27848101239488
20
421.85683836714537
30
0
10
283.27848101239312
20
421.81919993674001
30
0
10
283.27670606763883
20
421.79634803256619
30
0
10
283.26960628862616
20
421.7775288173633
30
0
10
283.25718167535615
20
421.7721518987355
30
0
10
283.23588233832112
20
421.7721518987355
30
0
0
SPLINE
5
341
100
AcDbEntity
8
0
100
AcDbSpline
70
0
71
3
72
16
73
12
74
0
42
0.000000001
43
0.0000000001
44
0.0000000001
40
0
40
0
40
0
40
0
40
1
40
1
40
1
40
2
40
2
40
3
40
3
40
3
40
4
40
4
40
4
40
4
10
262.67636388854589
20
427.15434112446837
30
0
10
262.63110796070492
20
427.24974293934599
30
0
10
262.60847999678481
20
427.32078684404036
30
0
10
262.60847999678663
20
427.36747283855408
30
0
10
262.60847999678839
20
427.40603952967376
30
0
10
262.67980727437407
20
427.45374043710768
30
0
10
262.9651163847102
20
427.56741068460542
30
0
10
263.07087752043844
20
427.59582824647799
30
0
10
263.1397452367255
20
427.59582824647441
30
0
10
263.26173947700499
20
427.59582824646895
30
0
10
263.41619992638613
20
427.46084482754304
30
0
10
263.60312658486782
20
427.1908779896977
30
0
0
SPLINE
5
342
100
AcDbEntity
8
0
100
AcDbSpline
70
0
71
3
72
11
73
7
74
0
42
0.000000001
43
0.0000000001
44
0.0000000001
40
18
40
18
40
18
40
18
40
19
40
19
40
19
40
20
40
20
40
20
40
20
10
264.52103486042336
20
424.94386077547369
30
0
10
264.61351436515093
20
424.9316818203788
30
0
10
264.65975411751418
20
424.90732391019634
30
0
10
264.65975411751242
20
424.87078704492518
30
0
10
264.65975411751145
20
424.84642913474369
30
0
10
264.64991587232731
20
424.83222035380544
30
0
10
264.63023938195869
20
424.82816070210993
30
0
0
LINE
5
343
100
AcDbEntity
8
0
100
AcDbLine
10
268.83904067165167
20
425.70200072965235
30
0
11
268.91577898407741
21
425.50409270942879
31
0
0
SPLINE
5
344
100
AcDbEntity
8
0
100
AcDbSpline
70
0
71
3
72
16
73
12
74
0
42
0.000000001
43
0.0000000001
44
0.0000000001
40
10
40
10
40
10
40
10
40
11
40
11
40
12
40
12
40
13
40
13
40
14
40
14
40
15
40
15
40
15
40
15
10
264.58891875229358
20
427.2669964589669
30
0
10
264.6184334878435
20
427.2507578521782
30
0
10
264.63319085561852
20
427.23096705015541
30
0
10
264.6331908556167
20
427.18428105564271
30
0
10
264.62974746980217
20
427.16905736177978
30
0
10
264.61597392654397
20
427.15484858084068
30
0
10
264.5992489097307
20
427.14723673391012
30
0
10
264.54612238573748
20
427.13099812712517
30
0
10
264.51021279081579
20
427.12237136727168
30
0
10
264.41970093512367
20
427.10410293464065
30
0
10
264.37739648083243
20
427.09243143601373
30
0
10
264.33804350009632
20
427.0782226550773
30
0
0
SPLINE
5
345
100
AcDbEntity
8
0
100
AcDbSpline
70
0
71
3
72
8
73
4
74
0
42
0.000000001
43
0.0000000001
44
0.0000000001
40
24
40
24
40
24
40
24
40
25
40
25
40
25
40
25
10
258.88962331731818
20
428.04036010747217
30
0
10
258.86404387983748
20
427.98758463541435
30
0
10
258.84436738946897
20
427.96119689938587
30
0
10
258.83059384621168
20
427.96119689938683
30
0
0
SPLINE
5
346
100
AcDbEntity
8
0
100
AcDbSpline
70
0
71
3
72
18
73
14
74
0
42
0.000000001
43
0.0000000001
44
0.0000000001
40
26
40
26
40
26
40
26
40
27
40
27
40
28
40
28
40
28
40
29
40
29
40
30
40
30
40
30
40
31
40
31
40
31
40
31
10
274.8875532652574
20
426.54315901040991
30
0
10
275.13131234465618
20
426.48670136479086
30
0
10
275.3247813227199
20
426.37445818839478
30
0
10
275.61113907617801
20
426.03840077404845
30
0
10
275.68272851453639
20
425.83206152164445
30
0
10
275.68272851452548
20
425.58741172401
30
0
10
275.68272851451002
20
425.21640433858659
30
0
10
275.56735710555665
20
424.92941130675086
30
0
10
275.10587146977923
20
424.5234539502581
30
0
10
274.77395680097834
20
424.42196461114509
30
0
10
274.34087028126493
20
424.42196461116504
30
0
10
273.85098552945868
20
424.42196461118772
30
0
10
273.4439315327927
20
424.54294528036644
30
0
10
273.11970829126949
20
424.78490661870092
30
0
0
SPLINE
5
347
100
AcDbEntity
8
0
100
AcDbSpline
70
0
71
3
72
20
73
16
74
0
42
0.000000001
43
0.0000000001
44
0.0000000001
40
0
40
0
40
0
40
0
40
1
40
1
40
2
40
2
40
2
40
3
40
3
40
4
40
4
40
4
40
5
40
5
40
6
40
6
40
6
40
6
10
273.11970829128131
20
425.0470314018811
30
0
10
273.33743484763647
20
424.96368916311616
30
0
10
273.52557899144358
20
424.90857574715665
30
0
10
273.8427024539634
20
424.85480656084832
30
0
10
274.00363077822749
20
424.84136426426812
30
0
10
274.1669256954965
20
424.84136426425994
30
0
10
274.44855026296057
20
424.8413642642472
30
0
10
274.66923506057719
20
424.91126420641831
30
0
10
274.98872511611529
20
425.19086397512916
30
0
10
275.06859763000563
20
425.38174458646603
30
0
10
275.06859763001557
20
425.62370592478601
30
0
10
275.06859763002382
20
425.81189807681312
30
0
10
275.02599895596092
20
425.97387775052357
30
0
10
274.85560425969203
20
426.24541214131204
30
0
10
274.73135812699178
20
426.34018033216034
30
0
10
274.5680632097247
20
426.39394951846128
30
0
0
SPLINE
5
348
100
AcDbEntity
8
0
100
AcDbSpline
70
0
71
3
72
16
73
12
74
0
42
0.000000001
43
0.0000000001
44
0.0000000001
40
21
40
21
40
21
40
21
40
22
40
22
40
22
40
23
40
23
40
24
40
24
40
24
40
25
40
25
40
25
40
25
10
273.21910519758421
20
428.248986445642
30
0
10
273.51966250908299
20
428.34577098095633
30
0
10
273.83796926810919
20
428.39416324860565
30
0
10
274.17402547466281
20
428.3941632485903
30
0
10
274.59291243635295
20
428.3941632485712
30
0
10
274.92541875339697
20
428.30813255048633
30
0
10
275.4176700981925
20
427.96400975818591
30
0
10
275.54073293438529
20
427.72742533848941
30
0
10
275.54073293437159
20
427.42631789524779
30
0
10
275.54073293435431
20
427.0203605387332
30
0
10
275.32300637798289
20
426.73538385138818
30
0
10
274.88755326525916
20
426.57138783321437
30
0
0
SPLINE
5
349
100
AcDbEntity
8
0
100
AcDbSpline
70
0
71
3
72
8
73
4
74
0
42
0.000000001
43
0.0000000001
44
0.0000000001
40
1
40
1
40
1
40
1
40
2
40
2
40
2
40
2
10
253.47957229073202
20
428.43922088693319
30
0
10
253.4343163628873
20
428.47575775220685
30
0
10
253.41267222348407
20
428.49199635899453
30
0
10
253.41463987252064
20
428.4879367072981
30
0
0
SPLINE
5
350
100
AcDbEntity
8
0
100
AcDbSpline
70
0
71
3
72
10
73
6
74
0
42
0.000000001
43
0.0000000001
44
0.0000000001
40
5
40
5
40
5
40
5
40
6
40
6
40
7
40
7
40
7
40
7
10
280.31077338563591
20
424.81716813014373
30
0
10
280.41727007081141
20
424.81716813013918
30
0
10
280.49418434343897
20
424.84270849362474
30
0
10
280.58884806360038
20
424.94486994757784
30
0
10
280.61843047615287
20
425.02955641598874
30
0
10
280.63026344117679
20
425.14784862583298
30
0
0
SPLINE
5
351
100
AcDbEntity
8
0
100
AcDbSpline
70
0
71
3
72
11
73
7
74
0
42
0.000000001
43
0.0000000001
44
0.0000000001
40
4
40
4
40
4
40
4
40
5
40
5
40
5
40
6
40
6
40
6
40
6
10
263.60312658486782
20
427.1908779896977
30
0
10
263.66805900307639
20
427.09547617481888
30
0
10
263.70839580832853
20
427.04777526737962
30
0
10
263.72413700062219
20
427.04777526737962
30
0
10
263.73594289484299
20
427.04777526737865
30
0
10
263.74184584195433
20
427.059954222469
30
0
10
263.74184584195518
20
427.08431213264976
30
0
0
SPLINE
5
352
100
AcDbEntity
8
0
100
AcDbSpline
70
0
71
3
72
18
73
14
74
0
42
0.000000001
43
0.0000000001
44
0.0000000001
40
14
40
14
40
14
40
14
40
15
40
15
40
16
40
16
40
17
40
17
40
18
40
18
40
19
40
19
40
20
40
20
40
20
40
20
10
281.18404620408273
20
425.01476988973167
30
0
10
281.21954509913849
20
424.96368916275054
30
0
10
281.2562272906971
20
424.92605073234421
30
0
10
281.331958266821
20
424.87765846467659
30
0
10
281.36923210663008
20
424.85211810118562
30
0
10
281.44259648974912
20
424.79834891488912
30
0
10
281.51951076237401
20
424.76138259930934
30
0
10
281.75380346975629
20
424.66728652328499
30
0
10
281.88100784371449
20
424.64376250427534
30
0
10
282.1555326321668
20
424.64376250426261
30
0
10
282.30758623266968
20
424.69954803503515
30
0
10
282.64127584622838
20
424.9226901581369
30
0
10
282.72469824962263
20
425.06450638698152
30
0
10
282.72469824962985
20
425.23656778312039
30
0
0
LINE
5
353
100
AcDbEntity
8
0
100
AcDbLine
10
253.41463987252064
20
428.4879367072981
30
0
11
253.41463987237972
21
425.24528991447539
31
0
0
SPLINE
5
354
100
AcDbEntity
8
0
100
AcDbSpline
70
0
71
3
72
10
73
6
74
0
42
0.000000001
43
0.0000000001
44
0.0000000001
40
12
40
12
40
12
40
12
40
13
40
13
40
14
40
14
40
14
40
14
10
269.24044107522968
20
427.45881500142508
30
0
10
269.21879693582559
20
427.4689641306677
30
0
10
269.20797486612452
20
427.48976984561415
30
0
10
269.20797486612719
20
427.5526944469147
30
0
10
269.21584546227501
20
427.56842559723998
30
0
10
269.23158665456867
20
427.56842559723913
30
0
0
SPLINE
5
355
100
AcDbEntity
8
0
100
AcDbSpline
70
0
71
3
72
8
73
4
74
0
42
0.000000001
43
0.0000000001
44
0.0000000001
40
11
40
11
40
11
40
11
40
12
40
12
40
12
40
12
10
269.42933538275889
20
427.44054656878058
30
0
10
269.33882352706678
20
427.43851674293643
30
0
10
269.275858757891
20
427.44460622048513
30
0
10
269.24044107522968
20
427.45881500142508
30
0
0
LINE
5
356
100
AcDbEntity
8
0
100
AcDbLine
10
273.2226550870555
20
427.4585794071308
30
0
11
273.21910519758421
21
428.248986445642
31
0
0
LINE
5
357
100
AcDbEntity
8
0
100
AcDbLine
10
264.20227571655141
20
426.9016278062719
30
0
11
264.20227571648138
21
425.29096099556511
31
0
0
LINE
5
358
100
AcDbEntity
8
0
100
AcDbLine
10
252.33735202472957
20
421.66234116980377
30
0
11
252.33735202473693
21
421.79126045733665
31
0
0
SPLINE
5
359
100
AcDbEntity
8
0
100
AcDbSpline
70
0
71
3
72
10
73
6
74
0
42
0.000000001
43
0.0000000001
44
0.0000000001
40
27
40
27
40
27
40
27
40
28
40
28
40
29
40
29
40
29
40
29
10
311.79746835392331
20
416.37725499605773
30
0
10
311.79746835391961
20
416.31085193170469
30
0
10
311.79405741110713
20
416.27053578549209
30
0
10
311.78041363986085
20
416.23733425331574
30
0
10
311.75653704018436
20
416.22784810126717
30
0
10
311.71560572645097
20
416.22784810126717
30
0
0
SPLINE
5
360
100
AcDbEntity
8
0
100
AcDbSpline
70
0
71
3
72
8
73
4
74
0
42
0.000000001
43
0.0000000001
44
0.0000000001
40
15
40
15
40
15
40
15
40
16
40
16
40
16
40
16
10
275.39929367012149
20
425.58900780159729
30
0
10
275.22535543177219
20
425.53171034047864
30
0
10
275.1383863125929
20
425.42785869219188
30
0
10
275.13838631258659
20
425.27745285673689
30
0
0
SPLINE
5
361
100
AcDbEntity
8
0
100
AcDbSpline
70
0
71
3
72
8
73
4
74
0
42
0.000000001
43
0.0000000001
44
0.0000000001
40
6
40
6
40
6
40
6
40
7
40
7
40
7
40
7
10
280.11264180269058
20
424.86383680902412
30
0
10
280.18070459160941
20
424.86383680902145
30
0
10
280.21473598607008
20
424.89785717656281
30
0
10
280.21473598607281
20
424.96589791165025
30
0
0
LWPOLYLINE
5
362
100
AcDbEntity
8
0
100
AcDbPolyline
90
4
70
1
43
0.0
10
298.8682680406929
20
423.91933876118037
10
303.93692905793802
20
423.9193387609638
10
303.93692905798349
20
424.89404088414261
10
298.86826804074013
20
424.89404088435828
0
LINE
5
363
100
AcDbEntity
8
0
100
AcDbLine
10
307.8680622358188
20
421.47902614583188
30
0
11
307.82030903646586
21
421.47902614583387
31
0
0
SPLINE
5
364
100
AcDbEntity
8
0
100
AcDbSpline
70
0
71
3
72
8
73
4
74
0
42
0.000000001
43
0.0000000001
44
0.0000000001
40
24
40
24
40
24
40
24
40
25
40
25
40
25
40
25
10
264.92896797491267
20
427.2864450878933
30
0
10
264.87981151624456
20
427.19333671356623
30
0
10
264.84199885573247
20
427.1467825264026
30
0
10
264.81552999337509
20
427.14678252640351
30
0
0
SPLINE
5
365
100
AcDbEntity
8
0
100
AcDbSpline
70
0
71
3
72
8
73
4
74
0
42
0.000000001
43
0.0000000001
44
0.0000000001
40
0
40
0
40
0
40
0
40
1
40
1
40
1
40
1
10
307.714569809279
20
420.58969939111364
30
0
10
307.67591245742011
20
420.58969939111364
30
0
10
307.62929623900351
20
420.60392861919354
30
0
10
307.57472115402737
20
420.63238707534487
30
0
0
SPLINE
5
366
100
AcDbEntity
8
0
100
AcDbSpline
70
0
71
3
72
8
73
4
74
0
42
0.000000001
43
0.0000000001
44
0.0000000001
40
16
40
16
40
16
40
16
40
17
40
17
40
17
40
17
10
262.41064478467808
20
421.99001102518827
30
0
10
262.45980124334341
20
422.01865975574856
30
0
10
262.4843794726803
20
422.14578849762069
30
0
10
262.48437947269031
20
422.37139725080306
30
0
0
LINE
5
367
100
AcDbEntity
8
0
100
AcDbLine
10
277.97433585083581
20
424.86383680911513
30
0
11
280.11264180269058
21
424.86383680902412
31
0
0
SPLINE
5
368
100
AcDbEntity
8
0
100
AcDbSpline
70
0
71
3
72
8
73
4
74
0
42
0.000000001
43
0.0000000001
44
0.0000000001
40
8
40
8
40
8
40
8
40
9
40
9
40
9
40
9
10
255.79721046142734
20
421.8342335530333
30
0
10
255.82746058983503
20
421.83423355303239
30
0
10
255.84258565403712
20
421.81990918775045
30
0
10
255.84258565403712
20
421.79126045718755
30
0
0
LINE
5
369
100
AcDbEntity
8
0
100
AcDbLine
10
310.81511682484961
20
427.18494660402291
30
0
11
311.71560572696939
21
427.18494660398483
31
0
0
SPLINE
5
370
100
AcDbEntity
8
0
100
AcDbSpline
70
0
71
3
72
29
73
25
74
0
42
0.000000001
43
0.0000000001
44
0.0000000001
40
0
40
0
40
0
40
0
40
1
40
1
40
1
40
2
40
2
40
2
40
3
40
3
40
3
40
4
40
4
40
4
40
5
40
5
40
5
40
6
40
6
40
6
40
7
40
7
40
7
40
8
40
8
40
8
40
8
10
271.15218109517082
20
421.64365407035348
30
0
10
271.02815920452588
20
421.5307739399131
30
0
10
270.8807825422673
20
421.47433387469567
30
0
10
270.71005110839809
20
421.47433387470392
30
0
10
270.53609832672009
20
421.47433387471119
30
0
10
270.387916327516
20
421.53001123635562
30
0
10
270.26550511078398
20
421.64136595963919
30
0
10
270.14309389405298
20
421.75272068292264
30
0
10
270.081888285692
20
421.89229543881538
30
0
10
270.08188828570019
20
422.06009022731621
30
0
10
270.08188828570741
20
422.22788501581726
30
0
10
270.14389923103499
20
422.37051058604084
30
0
10
270.26792112168181
20
422.48796693798516
30
0
10
270.39194301232686
20
422.60542328993148
30
0
10
270.53931967458544
20
422.66415146589958
30
0
10
270.71005110845454
20
422.6641514658931
30
0
10
270.88400389013259
20
422.66415146588588
30
0
10
271.03218588933669
20
422.60389788273557
30
0
10
271.15459710606871
20
422.48339071644295
30
0
10
271.27700832279879
20
422.3628835501504
30
0
10
271.33821393116068
20
422.22102068350699
30
0
10
271.3382139311534
20
422.05780211651017
30
0
10
271.33821393114516
20
421.89458354951336
30
0
10
271.2762029858186
20
421.75653420079561
30
0
10
271.15218109517082
20
421.64365407035348
30
0
0
LINE
5
371
100
AcDbEntity
8
0
100
AcDbLine
10
255.79721046141643
20
421.61936807381153
30
0
11
252.38272721734035
21
421.61936807395705
31
0
0
LINE
5
372
100
AcDbEntity
8
0
100
AcDbLine
10
253.69293590437252
20
429.02685547006598
30
0
11
254.01056225265893
21
429.02685547005149
31
0
0
LINE
5
373
100
AcDbEntity
8
0
100
AcDbLine
10
284.04893976172747
20
423.1610278860262
30
0
11
284.19640913770132
21
422.81187148228406
31
0
0
SPLINE
5
374
100
AcDbEntity
8
0
100
AcDbSpline
70
0
71
3
72
8
73
4
74
0
42
0.000000001
43
0.0000000001
44
0.0000000001
40
0
40
0
40
0
40
0
40
1
40
1
40
1
40
1
10
264.78149859891533
20
427.15215416338549
30
0
10
264.37312186541391
20
427.33837091206169
30
0
10
263.92315120535568
20
427.61769603506934
30
0
10
263.43158661873991
20
427.99012953240708
30
0
0
SPLINE
5
375
100
AcDbEntity
8
0
100
AcDbSpline
70
0
71
3
72
8
73
4
74
0
42
0.000000001
43
0.0000000001
44
0.0000000001
40
12
40
12
40
12
40
12
40
13
40
13
40
13
40
13
10
252.38272721734035
20
421.61936807395705
30
0
10
252.35247708893158
20
421.61936807395881
30
0
10
252.33735202472786
20
421.6336924392408
30
0
10
252.33735202472957
20
421.66234116980377
30
0
0
LINE
5
376
100
AcDbEntity
8
0
100
AcDbLine
10
262.48437947269031
20
422.37139725080306
30
0
11
262.48437947300221
21
428.92479436706145
31
0
0
LINE
5
377
100
AcDbEntity
8
0
100
AcDbLine
10
284.20775293579851
20
421.63011134656517
30
0
11
282.6593244880832
21
425.42248705489135
31
0
0
SPLINE
5
378
100
AcDbEntity
8
0
100
AcDbSpline
70
0
71
3
72
18
73
14
74
0
42
0.000000001
43
0.0000000001
44
0.0000000001
40
0
40
0
40
0
40
0
40
1
40
1
40
2
40
2
40
2
40
3
40
3
40
4
40
4
40
4
40
5
40
5
40
5
40
5
10
280.21473598607645
20
425.03035755541617
30
0
10
280.15045446322449
20
425.34191250029016
30
0
10
280.00203977073488
20
425.6194470776245
30
0
10
279.53694404648104
20
426.10647549721398
30
0
10
279.27887263850431
20
426.22823260211675
30
0
10
278.9952776846776
20
426.22823260212868
30
0
10
278.70412019874857
20
426.22823260214142
30
0
10
278.43659562563238
20
426.09304640480889
30
0
10
277.94881230502421
20
425.55230161545569
30
0
10
277.82686647486662
20
425.2881961305838
30
0
10
277.82686647485389
20
425.03035755551815
30
0
10
277.82686647484843
20
424.91934372458672
30
0
10
277.87602293350943
20
424.86383680911871
30
0
10
277.97433585083581
20
424.86383680911513
30
0
0
SPLINE
5
379
100
AcDbEntity
8
0
100
AcDbSpline
70
0
71
3
72
16
73
12
74
0
42
0.000000001
43
0.0000000001
44
0.0000000001
40
3
40
3
40
3
40
3
40
4
40
4
40
5
40
5
40
6
40
6
40
7
40
7
40
8
40
8
40
8
40
8
10
254.4075951876994
20
422.35528234020524
30
0
10
254.40759518769482
20
422.25143069191466
30
0
10
254.41326708676752
20
422.1672750458855
30
0
10
254.43595468306651
20
422.03835575835183
30
0
10
254.4728220270627
20
421.99001102552575
30
0
10
254.59760380674294
20
421.92555138175339
30
0
10
254.70631520570981
20
421.90227428816712
30
0
10
255.01637902189208
20
421.87362555759046
30
0
10
255.16384839788219
20
421.8637775564539
30
0
10
255.44366208565592
20
421.85303428248062
30
0
10
255.60814715887597
20
421.84497682700288
30
0
10
255.79721046142734
20
421.8342335530333
30
0
0
SPLINE
5
380
100
AcDbEntity
8
0
100
AcDbSpline
70
0
71
3
72
10
73
6
74
0
42
0.000000001
43
0.0000000001
44
0.0000000001
40
11
40
11
40
11
40
11
40
12
40
12
40
13
40
13
40
13
40
13
10
307.69069320991366
20
427.18494660415564
30
0
10
307.73162452364704
20
427.18494660415399
30
0
10
307.75550112332354
20
427.17664622110885
30
0
10
307.76914489456613
20
427.14344468893154
30
0
10
307.77255583737497
20
427.10194277371102
30
0
10
307.7725558373732
20
427.03553970935798
30
0
0
SPLINE
5
381
100
AcDbEntity
8
0
100
AcDbSpline
70
0
71
3
72
8
73
4
74
0
42
0.000000001
43
0.0000000001
44
0.0000000001
40
1
40
1
40
1
40
1
40
2
40
2
40
2
40
2
10
263.43158661873991
20
427.99012953240708
30
0
10
263.3446174995679
20
428.05458917617761
30
0
10
263.30302357300843
20
428.08323790674143
30
0
10
263.30680483905962
20
428.07607572410149
30
0
0
LINE
5
382
100
AcDbEntity
8
0
100
AcDbLine
10
306.79020430779383
20
427.18494660419401
30
0
11
307.69069320991366
21
427.18494660415564
31
0
0
SPLINE
5
383
100
AcDbEntity
8
0
100
AcDbSpline
70
0
71
3
72
10
73
6
74
0
42
0.000000001
43
0.0000000001
44
0.0000000001
40
24
40
24
40
24
40
24
40
25
40
25
40
26
40
26
40
26
40
26
10
311.71560572696939
20
427.18494660398483
30
0
10
311.75653704070282
20
427.18494660398306
30
0
10
311.78041364037932
20
427.17664622093702
30
0
10
311.79405741162373
20
427.14344468876061
30
0
10
311.79746835443262
20
427.10194277353912
30
0
10
311.79746835442887
20
427.03553970918614
30
0
0
SPLINE
5
384
100
AcDbEntity
8
0
100
AcDbSpline
70
0
71
3
72
10
73
6
74
0
42
0.000000001
43
0.0000000001
44
0.0000000001
40
10
40
10
40
10
40
10
40
11
40
11
40
12
40
12
40
12
40
12
10
276.88533122803437
20
422.6238641882764
30
0
10
276.90423755829033
20
422.63460746223694
30
0
10
276.92408920505841
20
422.65698928298838
30
0
10
276.96568313162334
20
422.72503001807303
30
0
10
276.98742541141843
20
422.74204020184419
30
0
10
277.0101130077237
20
422.74204020184243
30
0
0
LINE
5
385
100
AcDbEntity
8
0
100
AcDbLine
10
293.18248543361551
20
424.28929869138756
30
0
11
293.18248543364831
21
424.97230163901719
31
0
0
SPLINE
5
386
100
AcDbEntity
8
0
100
AcDbSpline
70
0
71
3
72
16
73
12
74
0
42
0.000000001
43
0.0000000001
44
0.0000000001
40
21
40
21
40
21
40
21
40
22
40
22
40
22
40
23
40
23
40
24
40
24
40
24
40
25
40
25
40
25
40
25
10
292.46618744345051
20
427.654511131297
30
0
10
293.04377375946569
20
427.82526186817989
30
0
10
293.65546950358748
20
427.91063723660773
30
0
10
294.30127467581588
20
427.91063723658033
30
0
10
295.10625717922716
20
427.91063723654582
30
0
10
295.7452404658261
20
427.75885880371243
30
0
10
296.69120860539908
20
427.15174507244683
30
0
10
296.92770064028167
20
426.73435438221884
30
0
10
296.9277006402553
20
426.20312986739646
30
0
10
296.92770064022164
20
425.48692538759133
30
0
10
296.50929165537309
20
424.98415932893744
30
0
10
295.67247368571134
20
424.69483169143689
30
0
0
SPLINE
5
387
100
AcDbEntity
8
0
100
AcDbSpline
70
0
71
3
72
8
73
4
74
0
42
0.000000001
43
0.0000000001
44
0.0000000001
40
17
40
17
40
17
40
17
40
18
40
18
40
18
40
18
10
275.13838631245108
20
422.43585689403153
30
0
10
275.1383863124347
20
422.08490994463671
30
0
10
275.3425746791799
20
421.88078773936661
30
0
10
275.75095141268866
20
421.82349027822409
30
0
0
LINE
5
388
100
AcDbEntity
8
0
100
AcDbLine
10
293.18930731936791
20
427.06399816612884
30
0
11
292.80045983886885
21
426.26004677987476
31
0
0
SPLINE
5
389
100
AcDbEntity
8
0
100
AcDbSpline
70
0
71
3
72
14
73
10
74
0
42
0.000000001
43
0.0000000001
44
0.0000000001
40
32
40
32
40
32
40
32
40
33
40
33
40
34
40
34
40
35
40
35
40
36
40
36
40
36
40
36
10
310.73325419707538
20
420.66796014539977
30
0
10
310.51040593341531
20
420.61578630913391
30
0
10
310.29551653631637
20
420.58969939100371
30
0
10
309.88165547524113
20
420.58969939102013
30
0
10
309.63379363097562
20
420.65254514836312
30
0
10
309.05620731497771
20
420.90392817772596
30
0
10
308.7401266144953
20
421.05214930352668
30
0
10
308.05339012854887
20
421.3936507773696
30
0
10
307.87715808331632
20
421.47902614583103
30
0
10
307.8680622358188
20
421.47902614583188
30
0
0
SPLINE
5
390
100
AcDbEntity
8
0
100
AcDbSpline
70
0
71
3
72
8
73
4
74
0
42
0.000000001
43
0.0000000001
44
0.0000000001
40
31
40
31
40
31
40
31
40
32
40
32
40
32
40
32
10
272.46692184754647
20
425.47083178815052
30
0
10
272.3799527283727
20
425.47083178815421
30
0
10
272.29298360920257
20
425.55498743418588
30
0
10
272.20601449003698
20
425.72329872624596
30
0
0
LINE
5
391
100
AcDbEntity
8
0
100
AcDbLine
10
275.96081167851128
20
421.61936807295479
30
0
11
273.11919024116469
21
421.61936807307569
31
0
0
SPLINE
5
392
100
AcDbEntity
8
0
100
AcDbSpline
70
0
71
3
72
8
73
4
74
0
42
0.000000001
43
0.0000000001
44
0.0000000001
40
7
40
7
40
7
40
7
40
8
40
8
40
8
40
8
10
284.19640913770132
20
422.81187148228406
30
0
10
284.27203445871237
20
422.61849255098156
30
0
10
284.34765977973359
20
422.61312091399765
30
0
10
284.42328510076283
20
422.79575657133239
30
0
0
SPLINE
5
393
100
AcDbEntity
8
0
100
AcDbSpline
70
0
71
3
72
10
73
6
74
0
42
0.000000001
43
0.0000000001
44
0.0000000001
40
15
40
15
40
15
40
15
40
16
40
16
40
17
40
17
40
17
40
17
10
287.32729742812353
20
426.45384135495715
30
0
10
287.41804781334849
20
426.45384135495357
30
0
10
287.46342300595819
20
426.41623989608712
30
0
10
287.46342300595092
20
426.26583406063213
30
0
10
287.38401641887765
20
426.22107041913114
30
0
10
287.22520324473413
20
426.20674605385636
30
0
0
SPLINE
5
394
100
AcDbEntity
8
0
100
AcDbSpline
70
0
71
3
72
8
73
4
74
0
42
0.000000001
43
0.0000000001
44
0.0000000001
40
17
40
17
40
17
40
17
40
18
40
18
40
18
40
18
10
287.22520324473413
20
426.20674605385636
30
0
10
287.18739058422403
20
426.2031649625377
30
0
10
287.15524982279021
20
426.19779332555845
30
0
10
287.12878096043187
20
426.19063114291839
30
0
0
SPLINE
5
395
100
AcDbEntity
8
0
100
AcDbSpline
70
0
71
3
72
8
73
4
74
0
42
0.000000001
43
0.0000000001
44
0.0000000001
40
11
40
11
40
11
40
11
40
12
40
12
40
12
40
12
10
285.1833195771805
20
426.22823260186584
30
0
10
285.00938133883386
20
426.22465151055252
30
0
10
284.88838082520118
20
426.23539478451852
30
0
10
284.82031803628439
20
426.26046242376384
30
0
0
SPLINE
5
396
100
AcDbEntity
8
0
100
AcDbSpline
70
0
71
3
72
8
73
4
74
0
42
0.000000001
43
0.0000000001
44
0.0000000001
40
6
40
6
40
6
40
6
40
7
40
7
40
7
40
7
10
295.05850397970522
20
424.38178867379889
30
0
10
294.2626173237868
20
424.32012868550555
30
0
10
293.71004458839337
20
424.28929869136482
30
0
10
293.40078577352318
20
424.28929869137846
30
0
0
SPLINE
5
397
100
AcDbEntity
8
0
100
AcDbSpline
70
0
71
3
72
16
73
12
74
0
42
0.000000001
43
0.0000000001
44
0.0000000001
40
3
40
3
40
3
40
3
40
4
40
4
40
5
40
5
40
6
40
6
40
7
40
7
40
8
40
8
40
8
40
8
10
263.30680483878859
20
422.35528233982672
30
0
10
263.30680483878314
20
422.25143069153631
30
0
10
263.31247673785577
20
422.16727504550732
30
0
10
263.33516433415571
20
422.03835575797348
30
0
10
263.37203167815107
20
421.99001102514734
30
0
10
263.49681345783119
20
421.92555138137595
30
0
10
263.60552485679818
20
421.90227428778877
30
0
10
263.91558867298045
20
421.87362555721222
30
0
10
264.0630580489705
20
421.86377755607555
30
0
10
264.34287173674511
20
421.85303428210136
30
0
10
264.50735680996416
20
421.84497682662453
30
0
10
264.69642011251563
20
421.83423355265489
30
0
0
SPLINE
5
398
100
AcDbEntity
8
0
100
AcDbSpline
70
0
71
3
72
8
73
4
74
0
42
0.000000001
43
0.0000000001
44
0.0000000001
40
1
40
1
40
1
40
1
40
2
40
2
40
2
40
2
10
254.5323769676516
20
427.99012953278634
30
0
10
254.44540784847959
20
428.05458917655608
30
0
10
254.40381392192009
20
428.08323790712075
30
0
10
254.4075951879704
20
428.07607572447984
30
0
0
LINE
5
399
100
AcDbEntity
8
0
100
AcDbLine
10
255.91632034228596
20
427.14678252678192
30
0
11
255.88228894782702
21
427.15215416376395
31
0
0
SPLINE
5
400
100
AcDbEntity
8
0
100
AcDbSpline
70
0
71
3
72
10
73
6
74
0
42
0.000000001
43
0.0000000001
44
0.0000000001
40
18
40
18
40
18
40
18
40
19
40
19
40
20
40
20
40
20
40
20
10
253.5851698219131
20
428.92479436743992
30
0
10
253.58516982191489
20
428.96418637196342
30
0
10
253.59084172099301
20
428.9910445568666
30
0
10
253.61352931729931
20
429.01969328742865
30
0
10
253.64377944570973
20
429.02685547006786
30
0
10
253.69293590437252
20
429.02685547006598
30
0
0
LINE
5
401
100
AcDbEntity
8
0
100
AcDbLine
10
253.58516982160199
20
422.37139725118141
30
0
11
253.5851698219131
21
428.92479436743992
31
0
0
LINE
5
402
100
AcDbEntity
8
0
100
AcDbLine
10
263.30680483905962
20
428.07607572410149
30
0
11
263.30680483878859
21
422.35528233982672
31
0
0
SPLINE
5
403
100
AcDbEntity
8
0
100
AcDbSpline
70
0
71
3
72
29
73
25
74
0
42
0.000000001
43
0.0000000001
44
0.0000000001
40
0
40
0
40
0
40
0
40
1
40
1
40
1
40
2
40
2
40
2
40
3
40
3
40
3
40
4
40
4
40
4
40
5
40
5
40
5
40
6
40
6
40
6
40
7
40
7
40
7
40
8
40
8
40
8
40
8
10
258.7622825264425
20
421.64365407088013
30
0
10
258.63826063579745
20
421.53077394043891
30
0
10
258.49088397353995
20
421.47433387522318
30
0
10
258.32015253966978
20
421.47433387523046
30
0
10
258.14619975799269
20
421.47433387523682
30
0
10
257.9980177587895
20
421.53001123688222
30
0
10
257.87560654205748
20
421.6413659601667
30
0
10
257.75319532532558
20
421.7527206834493
30
0
10
257.69198971696284
20
421.89229543934096
30
0
10
257.69198971697188
20
422.06009022784286
30
0
10
257.69198971697836
20
422.22788501634466
30
0
10
257.75400066230577
20
422.37051058656738
30
0
10
257.87802255295361
20
422.48796693851267
30
0
10
258.00204444360037
20
422.60542329045802
30
0
10
258.14942110585611
20
422.66415146642709
30
0
10
258.32015253972617
20
422.66415146641975
30
0
10
258.49410532140337
20
422.66415146641236
30
0
10
258.64228732060843
20
422.60389788326307
30
0
10
258.76469853733846
20
422.4833907169704
30
0
10
258.88710975407054
20
422.36288355067705
30
0
10
258.94831536243152
20
422.22102068403365
30
0
10
258.94831536242509
20
422.05780211703666
30
0
10
258.94831536241782
20
421.89458355004086
30
0
10
258.88630441709029
20
421.75653420132215
30
0
10
258.7622825264425
20
421.64365407088013
30
0
0
LINE
5
404
100
AcDbEntity
8
0
100
AcDbLine
10
275.13838631258659
20
425.27745285673689
30
0
11
275.13838631245108
21
422.43585689403153
31
0
0
SPLINE
5
405
100
AcDbEntity
8
0
100
AcDbSpline
70
0
71
3
72
8
73
4
74
0
42
0.000000001
43
0.0000000001
44
0.0000000001
40
9
40
9
40
9
40
9
40
10
40
10
40
10
40
10
10
278.43375967587963
20
421.57639497700524
30
0
10
277.84010090587799
20
421.76977390832968
30
0
10
277.32395808992908
20
422.11893031208649
30
0
10
276.88533122803437
20
422.6238641882764
30
0
0
SPLINE
5
406
100
AcDbEntity
8
0
100
AcDbSpline
70
0
71
3
72
8
73
4
74
0
42
0.000000001
43
0.0000000001
44
0.0000000001
40
22
40
22
40
22
40
22
40
23
40
23
40
23
40
23
10
284.33253471547505
20
421.47433387412462
30
0
10
284.29472205496398
20
421.47433387412542
30
0
10
284.25312812840548
20
421.52625969827284
30
0
10
284.20775293579851
20
421.63011134656517
30
0
0
LINE
5
407
100
AcDbEntity
8
0
100
AcDbLine
10
292.4730093290072
20
426.26004677988846
30
0
11
292.46618744345051
21
427.654511131297
31
0
0
LINE
5
408
100
AcDbEntity
8
0
100
AcDbLine
10
311.79746835442887
20
427.03553970918614
30
0
11
311.79746835392331
21
416.37725499605773
31
0
0
LINE
5
409
100
AcDbEntity
8
0
100
AcDbLine
10
264.74179530512629
20
421.79126045680914
30
0
11
264.74179530511901
21
421.66234116927626
31
0
0
SPLINE
5
410
100
AcDbEntity
8
0
100
AcDbSpline
70
0
71
3
72
12
73
8
74
0
42
0.000000001
43
0.0000000001
44
0.0000000001
40
21
40
21
40
21
40
21
40
22
40
22
40
23
40
23
40
24
40
24
40
24
40
24
10
254.01056225265893
20
429.02685547005149
30
0
10
254.27525087621513
20
428.72604379913071
30
0
10
254.60989292171692
20
428.40553612594431
30
0
10
255.41908385660281
20
427.72512877504232
30
0
10
255.68944437924259
20
427.51294911429886
30
0
10
255.96169553490753
20
427.3446378222306
30
0
10
256.02975832382344
20
427.29718836223219
30
0
10
256.02975832382344
20
427.28644508827074
30
0
0
LINE
5
411
100
AcDbEntity
8
0
100
AcDbLine
10
306.70834168009065
20
422.18337293562308
30
0
11
306.7083416803199
21
427.03553970940266
31
0
0
LINE
5
412
100
AcDbEntity
8
0
100
AcDbLine
10
293.18248543364831
20
424.97230163901719
30
0
11
293.40078577355598
21
424.97230163900701
31
0
0
LINE
5
413
100
AcDbEntity
8
0
100
AcDbLine
10
285.57468061344127
20
425.77701509548376
30
0
11
285.60871200790649
21
425.90593438301488
31
0
0
LINE
5
414
100
AcDbEntity
8
0
100
AcDbLine
10
254.4075951879704
20
428.07607572447984
30
0
11
254.4075951876994
21
422.35528234020524
31
0
0
SPLINE
5
415
100
AcDbEntity
8
0
100
AcDbSpline
70
0
71
3
72
10
73
6
74
0
42
0.000000001
43
0.0000000001
44
0.0000000001
40
21
40
21
40
21
40
21
40
22
40
22
40
23
40
23
40
23
40
23
10
310.73325419737733
20
427.03553970923252
30
0
10
310.73325419737921
20
427.10194277358454
30
0
10
310.73666514019169
20
427.14344468880603
30
0
10
310.75030891143984
20
427.17664622098164
30
0
10
310.77418551111441
20
427.18494660402484
30
0
10
310.81511682484961
20
427.18494660402291
30
0
0
LINE
5
416
100
AcDbEntity
8
0
100
AcDbLine
10
284.42328510076283
20
422.79575657133239
30
0
11
285.57468061344127
21
425.77701509548376
31
0
0
SPLINE
5
417
100
AcDbEntity
8
0
100
AcDbSpline
70
0
71
3
72
8
73
4
74
0
42
0.000000001
43
0.0000000001
44
0.0000000001
40
30
40
30
40
30
40
30
40
31
40
31
40
31
40
31
10
310.79465116748179
20
416.62626648742668
30
0
10
310.75371985375017
20
416.64523879152688
30
0
10
310.73325419688632
20
416.69266955177773
30
0
10
310.7332541968899
20
416.76855876818263
30
0
0
SPLINE
5
418
100
AcDbEntity
8
0
100
AcDbSpline
70
0
71
3
72
20
73
16
74
0
42
0.000000001
43
0.0000000001
44
0.0000000001
40
0
40
0
40
0
40
0
40
1
40
1
40
2
40
2
40
2
40
3
40
3
40
4
40
4
40
4
40
5
40
5
40
6
40
6
40
6
40
6
10
292.2751746457634
20
422.00550758529153
30
0
10
292.69358363058018
20
421.8584722284931
30
0
10
293.05514356854928
20
421.76123916996039
30
0
10
293.66456535078851
20
421.6663776494305
30
0
10
293.97382416565608
20
421.64266226929163
30
0
10
294.28763090427401
20
421.64266226927793
30
0
10
294.82883383029639
20
421.64266226925605
30
0
10
295.25292771981088
20
421.7659822458927
30
0
10
295.86689742582712
20
422.25926215248813
30
0
10
296.02038985234049
20
422.59602055026971
30
0
10
296.02038985236049
20
423.02289739253865
30
0
10
296.02038985237687
20
423.35491271430243
30
0
10
295.93852722492375
20
423.64068304482402
30
0
10
295.61107671508489
20
424.11973372338343
30
0
10
295.37231071831866
20
424.28692715328179
30
0
10
295.05850397970522
20
424.38178867379889
30
0
0
LINE
5
419
100
AcDbEntity
8
0
100
AcDbLine
10
307.7725558373732
20
427.03553970935798
30
0
11
307.77255583713122
21
421.94859067233119
31
0
0
SPLINE
5
420
100
AcDbEntity
8
0
100
AcDbSpline
70
0
71
3
72
10
73
6
74
0
42
0.000000001
43
0.0000000001
44
0.0000000001
40
12
40
12
40
12
40
12
40
13
40
13
40
14
40
14
40
14
40
14
10
284.82031803628439
20
426.26046242376384
30
0
10
284.77872410972401
20
426.278367880367
30
0
10
284.75792714644473
20
426.31507406640225
30
0
10
284.75792714645013
20
426.42608789733288
30
0
10
284.77305221065581
20
426.45384135506623
30
0
10
284.80330233906449
20
426.45384135506447
30
0
0
SPLINE
5
421
100
AcDbEntity
8
0
100
AcDbSpline
70
0
71
3
72
12
73
8
74
0
42
0.000000001
43
0.0000000001
44
0.0000000001
40
27
40
27
40
27
40
27
40
28
40
28
40
29
40
29
40
30
40
30
40
30
40
30
10
274.25357005662681
20
424.86383680927332
30
0
10
274.253570056635
20
425.03214810132988
30
0
10
274.15620245582988
20
425.22105066848326
30
0
10
273.76673205259431
20
425.64003835298166
30
0
10
273.58050469958562
20
425.74478527410969
30
0
10
273.22506569078899
20
425.74478527412515
30
0
10
272.97928339746983
20
425.67674453904874
30
0
10
272.66543831522722
20
425.54066306888848
30
0
0
LINE
5
422
100
AcDbEntity
8
0
100
AcDbLine
10
255.84258565403712
20
421.79126045718755
30
0
11
255.84258565403073
21
421.66234116965461
31
0
0
SPLINE
5
423
100
AcDbEntity
8
0
100
AcDbSpline
70
0
71
3
72
12
73
8
74
0
42
0.000000001
43
0.0000000001
44
0.0000000001
40
6
40
6
40
6
40
6
40
7
40
7
40
8
40
8
40
9
40
9
40
9
40
9
10
280.58908132499431
20
422.20487650363708
30
0
10
280.4000180224329
20
421.98642993310295
30
0
10
280.17314205936248
20
421.81006118558435
30
0
10
279.64376481220643
20
421.54147933657981
30
0
10
279.38285745468238
20
421.47433387433381
30
0
10
278.86860527174207
20
421.47433387435655
30
0
10
278.63794804263131
20
421.50835424190973
30
0
10
278.43375967587963
20
421.57639497700524
30
0
0
SPLINE
5
424
100
AcDbEntity
8
0
100
AcDbSpline
70
0
71
3
72
10
73
6
74
0
42
0.000000001
43
0.0000000001
44
0.0000000001
40
18
40
18
40
18
40
18
40
19
40
19
40
20
40
20
40
20
40
20
10
262.48437947300221
20
428.92479436706145
30
0
10
262.4843794730042
20
428.96418637158519
30
0
10
262.49005137208235
20
428.99104455648842
30
0
10
262.51273896838848
20
429.01969328705036
30
0
10
262.54298909679795
20
429.02685546968939
30
0
10
262.59214555546168
20
429.02685546968769
30
0
0
SPLINE
5
425
100
AcDbEntity
8
0
100
AcDbSpline
70
0
71
3
72
11
73
7
74
0
42
0.000000001
43
0.0000000001
44
0.0000000001
40
7
40
7
40
7
40
7
40
8
40
8
40
8
40
9
40
9
40
9
40
9
10
274.2535700567023
20
426.46995626645446
30
0
10
274.25357005670679
20
426.55590245814346
30
0
10
274.28571081814249
20
426.59887555398564
30
0
10
274.34999234101002
20
426.59887555398285
30
0
10
274.36133613916257
20
426.59887555398285
30
0
10
274.38969563454515
20
426.5881322800206
30
0
10
274.43507082715684
20
426.56664573209673
30
0
0
LINE
5
426
100
AcDbEntity
8
0
100
AcDbLine
10
284.78061474252081
20
421.47433387410456
30
0
11
284.33253471547505
21
421.47433387412462
31
0
0
SPLINE
5
427
100
AcDbEntity
8
0
100
AcDbSpline
70
0
71
3
72
16
73
12
74
0
42
0.000000001
43
0.0000000001
44
0.0000000001
40
0
40
0
40
0
40
0
40
1
40
1
40
1
40
2
40
2
40
3
40
3
40
3
40
4
40
4
40
4
40
4
10
272.20601449003698
20
425.72329872624596
30
0
10
272.11904537087139
20
425.89161001830689
30
0
10
272.07556081129042
20
426.01694821452111
30
0
10
272.075560811294
20
426.09931331488951
30
0
10
272.07556081129769
20
426.16735404997689
30
0
10
272.2126317056518
20
426.25150969599963
30
0
10
272.76091528305915
20
426.45205080991587
30
0
10
272.96415833330502
20
426.50218608839253
30
0
10
273.09650264509031
20
426.50218608838713
30
0
10
273.3309411402542
20
426.50218608837719
30
0
10
273.6277705252478
20
426.2640435155609
30
0
10
273.98699080007373
20
425.78775836993736
30
0
0
LINE
5
428
100
AcDbEntity
8
0
100
AcDbLine
10
292.27517464574163
20
421.54305767283489
30
0
11
292.2751746457634
21
422.00550758529153
31
0
0
SPLINE
5
429
100
AcDbEntity
8
0
100
AcDbSpline
70
0
71
3
72
11
73
7
74
0
42
0.000000001
43
0.0000000001
44
0.0000000001
40
18
40
18
40
18
40
18
40
19
40
19
40
19
40
20
40
20
40
20
40
20
10
275.75095141268866
20
421.82349027822409
30
0
10
275.92867091708558
20
421.80200373029493
30
0
10
276.01753066928359
20
421.75903063444639
30
0
10
276.01753066927989
20
421.69457099067938
30
0
10
276.01753066927813
20
421.6515978948355
30
0
10
275.99862433902217
20
421.62653025559393
30
0
10
275.96081167851128
20
421.61936807295479
30
0
0
LINE
5
430
100
AcDbEntity
8
0
100
AcDbLine
10
307.77255583710763
20
421.45056768968516
30
0
11
307.77255583707483
21
420.76756474205558
31
0
0
SPLINE
5
431
100
AcDbEntity
8
0
100
AcDbSpline
70
0
71
3
72
8
73
4
74
0
42
0.000000001
43
0.0000000001
44
0.0000000001
40
10
40
10
40
10
40
10
40
11
40
11
40
11
40
11
10
264.74179530511901
20
421.66234116927626
30
0
10
264.74179530511719
20
421.6336924387133
30
0
10
264.72667024091334
20
421.61936807343216
30
0
10
264.69642011250562
20
421.61936807343324
30
0
0
SPLINE
5
432
100
AcDbEntity
8
0
100
AcDbSpline
70
0
71
3
72
8
73
4
74
0
42
0.000000001
43
0.0000000001
44
0.0000000001
40
37
40
37
40
37
40
37
40
38
40
38
40
38
40
38
10
307.82030903646586
20
421.47902614583387
30
0
10
307.80211734147269
20
421.47902614583472
30
0
10
307.78619960835385
20
421.46953999378553
30
0
10
307.77255583710763
20
421.45056768968516
30
0
0
SPLINE
5
433
100
AcDbEntity
8
0
100
AcDbSpline
70
0
71
3
72
8
73
4
74
0
42
0.000000001
43
0.0000000001
44
0.0000000001
40
0
40
0
40
0
40
0
40
1
40
1
40
1
40
1
10
255.88228894782702
20
427.15215416376395
30
0
10
255.47391221432463
20
427.33837091244089
30
0
10
255.02394155426654
20
427.61769603544792
30
0
10
254.5323769676516
20
427.99012953278634
30
0
0
SPLINE
5
434
100
AcDbEntity
8
0
100
AcDbSpline
70
0
71
3
72
8
73
4
74
0
42
0.000000001
43
0.0000000001
44
0.0000000001
40
10
40
10
40
10
40
10
40
11
40
11
40
11
40
11
10
285.60871200790649
20
425.90593438301488
30
0
10
285.60871200791638
20
426.12796204487768
30
0
10
285.46691453100897
20
426.23539478449402
30
0
10
285.1833195771805
20
426.22823260186584
30
0
0
SPLINE
5
435
100
AcDbEntity
8
0
100
AcDbSpline
70
0
71
3
72
20
73
16
74
0
42
0.000000001
43
0.0000000001
44
0.0000000001
40
12
40
12
40
12
40
12
40
13
40
13
40
14
40
14
40
14
40
15
40
15
40
16
40
16
40
16
40
17
40
17
40
18
40
18
40
18
40
18
10
294.9357100385314
20
424.89404088452551
30
0
10
295.19039376842738
20
424.96993010091774
30
0
10
295.39391335616159
20
425.11815122669759
30
0
10
295.6986242473032
20
425.55925729702722
30
0
10
295.77480197009663
20
425.83079839946731
30
0
10
295.77480197011209
20
426.15332756918173
30
0
10
295.77480197013028
20
426.5327736511972
30
0
10
295.65087104800932
20
426.82803013377088
30
0
10
295.15514735948636
20
427.25016390003475
30
0
10
294.80382024995282
20
427.35569734161066
30
0
10
294.3490278751442
20
427.35569734162971
30
0
10
294.13982338273217
20
427.35569734163892
30
0
10
293.9249339856342
20
427.3260531164907
30
0
10
293.48378538206362
20
427.20747621587816
30
0
10
293.31210126057061
20
427.13988738252738
30
0
10
293.18930731936791
20
427.06399816612884
30
0
0
LINE
5
436
100
AcDbEntity
8
0
100
AcDbLine
10
292.80045983886885
20
426.26004677987476
30
0
11
292.4730093290072
21
426.26004677988846
31
0
0
SPLINE
5
437
100
AcDbEntity
8
0
100
AcDbSpline
70
0
71
3
72
8
73
4
74
0
42
0.000000001
43
0.0000000001
44
0.0000000001
40
39
40
39
40
39
40
39
40
40
40
40
40
40
40
40
10
307.77255583707483
20
420.76756474205558
30
0
10
307.7725558370712
20
420.64898784142667
30
0
10
307.75322716113811
20
420.58969939111023
30
0
10
307.714569809279
20
420.58969939111364
30
0
0
SPLINE
5
438
100
AcDbEntity
8
0
100
AcDbSpline
70
0
71
3
72
10
73
6
74
0
42
0.000000001
43
0.0000000001
44
0.0000000001
40
10
40
10
40
10
40
10
40
11
40
11
40
12
40
12
40
12
40
12
10
293.40078577355598
20
424.97230163900701
30
0
10
293.5190317910064
20
424.97230163900258
30
0
10
293.7589347687163
20
424.96400125594755
30
0
10
294.48205464466082
20
424.93079972374017
30
0
10
294.7537930886084
20
424.91301318863492
30
0
10
294.9357100385314
20
424.89404088452551
30
0
0
SPLINE
5
439
100
AcDbEntity
8
0
100
AcDbSpline
70
0
71
3
72
20
73
16
74
0
42
0.000000001
43
0.0000000001
44
0.0000000001
40
24
40
24
40
24
40
24
40
25
40
25
40
26
40
26
40
27
40
27
40
28
40
28
40
29
40
29
40
30
40
30
40
31
40
31
40
31
40
31
10
282.6593244880832
20
425.42248705489135
30
0
10
282.62529309362799
20
425.49052778997975
30
0
10
282.58937106614673
20
425.56662598053936
30
0
10
282.51374574513369
20
425.73493727259938
30
0
10
282.46931586903787
20
425.81640710013937
30
0
10
282.36722168566848
20
425.97397511823965
30
0
10
282.30861206188001
20
426.04470167181887
30
0
10
282.17626775010012
20
426.1700398680378
30
0
10
282.06566571810885
20
426.21211769105685
30
0
10
281.75560190192766
20
426.25509078691351
30
0
10
281.67241404880588
20
426.27478678917942
30
0
10
281.64972645250151
20
426.31059770238426
30
0
10
281.64405455342614
20
426.33924643294722
30
0
10
281.64405455343064
20
426.4180304419952
30
0
10
281.66485151671168
20
426.44309808123671
30
0
10
281.70644544327388
20
426.45384135519635
30
0
0
LINE
5
440
100
AcDbEntity
8
0
100
AcDbLine
10
293.40078577352318
20
424.28929869137846
30
0
11
293.18248543361551
21
424.28929869138756
31
0
0
LINE
5
441
100
AcDbEntity
8
0
100
AcDbLine
10
310.7332541968899
20
416.76855876818263
30
0
11
310.73325419707538
21
420.66796014539977
31
0
0
LINE
5
442
100
AcDbEntity
8
0
100
AcDbLine
10
264.81552999337509
20
427.14678252640351
30
0
11
264.78149859891533
21
427.15215416338549
31
0
0
SPLINE
5
443
100
AcDbEntity
8
0
100
AcDbSpline
70
0
71
3
72
11
73
7
74
0
42
0.000000001
43
0.0000000001
44
0.0000000001
40
14
40
14
40
14
40
14
40
15
40
15
40
15
40
16
40
16
40
16
40
16
10
261.23656167582521
20
421.79126045695824
30
0
10
261.23656167582521
20
421.8199091875212
30
0
10
261.2516867400318
20
421.83423355280138
30
0
10
261.28193686843946
20
421.83423355280058
30
0
10
261.84912677609367
20
421.83423355277682
30
0
10
262.2253627481723
20
421.8861593769052
30
0
10
262.41064478467808
20
421.99001102518827
30
0
0
SPLINE
5
444
100
AcDbEntity
8
0
100
AcDbSpline
70
0
71
3
72
18
73
14
74
0
42
0.000000001
43
0.0000000001
44
0.0000000001
40
26
40
26
40
26
40
26
40
27
40
27
40
28
40
28
40
28
40
29
40
29
40
30
40
30
40
30
40
31
40
31
40
31
40
31
10
295.67247368570861
20
424.64502939317123
30
0
10
296.1409098317572
20
424.54542479662268
30
0
10
296.51270259815368
20
424.34740137255454
30
0
10
297.06300137164453
20
423.7545168693814
30
0
10
297.20057606500717
20
423.39048578444084
30
0
10
297.20057606498631
20
422.95886586614768
30
0
10
297.20057606495629
20
422.30432137467056
30
0
10
296.97886478221153
20
421.7979980089894
30
0
10
296.09201965130069
20
421.08179352922252
30
0
10
295.45417334562353
20
420.90274240929824
30
0
10
294.62190329972418
20
420.90274240933286
30
0
10
293.68048308387012
20
420.90274240937276
30
0
10
292.89824019920889
20
421.11618083054054
30
0
10
292.27517464574163
20
421.54305767283489
30
0
0
LINE
5
445
100
AcDbEntity
8
0
100
AcDbLine
10
264.69642011250562
20
421.61936807343324
30
0
11
261.28193686842951
21
421.61936807357961
31
0
0
LINE
5
446
100
AcDbEntity
8
0
100
AcDbLine
10
262.59214555546168
20
429.02685546968769
30
0
11
262.90977190374809
21
429.02685546967405
31
0
0
SPLINE
5
447
100
AcDbEntity
8
0
100
AcDbSpline
70
0
71
3
72
11
73
7
74
0
42
0.000000001
43
0.0000000001
44
0.0000000001
40
14
40
14
40
14
40
14
40
15
40
15
40
15
40
16
40
16
40
16
40
16
10
252.33735202473693
20
421.79126045733665
30
0
10
252.33735202473693
20
421.81990918789961
30
0
10
252.35247708894263
20
421.83423355317979
30
0
10
252.3827272173512
20
421.83423355317871
30
0
10
252.9499171250045
20
421.83423355315426
30
0
10
253.32615309708308
20
421.88615937728349
30
0
10
253.51143513358886
20
421.99001102556667
30
0
0
LINE
5
448
100
AcDbEntity
8
0
100
AcDbLine
10
261.2365616758189
20
421.66234116942542
30
0
11
261.23656167582521
21
421.79126045695824
31
0
0
SPLINE
5
449
100
AcDbEntity
8
0
100
AcDbSpline
70
0
71
3
72
8
73
4
74
0
42
0.000000001
43
0.0000000001
44
0.0000000001
40
16
40
16
40
16
40
16
40
17
40
17
40
17
40
17
10
253.51143513358886
20
421.99001102556667
30
0
10
253.5605915922543
20
422.01865975612685
30
0
10
253.58516982159114
20
422.14578849799898
30
0
10
253.58516982160199
20
422.37139725118141
30
0
0
LINE
5
450
100
AcDbEntity
8
0
100
AcDbLine
10
280.21473598607281
20
424.96589791165025
30
0
11
280.21473598607645
21
425.03035755541617
31
0
0
LINE
5
451
100
AcDbEntity
8
0
100
AcDbLine
10
311.71560572645097
20
416.22784810126717
30
0
11
310.79465116748179
21
416.62626648742668
31
0
0
SPLINE
5
452
100
AcDbEntity
8
0
100
AcDbSpline
70
0
71
3
72
10
73
6
74
0
42
0.000000001
43
0.0000000001
44
0.0000000001
40
8
40
8
40
8
40
8
40
9
40
9
40
10
40
10
40
10
40
10
10
306.7083416803199
20
427.03553970940266
30
0
10
306.70834168032337
20
427.10194277375547
30
0
10
306.71175262313773
20
427.14344468897701
30
0
10
306.72539639438037
20
427.17664622115262
30
0
10
306.74927299406039
20
427.18494660419583
30
0
10
306.79020430779383
20
427.18494660419401
30
0
0
SPLINE
5
453
100
AcDbEntity
8
0
100
AcDbSpline
70
0
71
3
72
8
73
4
74
0
42
0.000000001
43
0.0000000001
44
0.0000000001
40
24
40
24
40
24
40
24
40
25
40
25
40
25
40
25
10
256.02975832382344
20
427.28644508827074
30
0
10
255.98060186515522
20
427.19333671394452
30
0
10
255.94278920464333
20
427.14678252678084
30
0
10
255.91632034228596
20
427.14678252678192
30
0
0
LINE
5
454
100
AcDbEntity
8
0
100
AcDbLine
10
286.40844977767847
20
425.49231833547958
30
0
11
284.90539652221287
21
421.64085462049661
31
0
0
SPLINE
5
455
100
AcDbEntity
8
0
100
AcDbSpline
70
0
71
3
72
8
73
4
74
0
42
0.000000001
43
0.0000000001
44
0.0000000001
40
20
40
20
40
20
40
20
40
21
40
21
40
21
40
21
10
284.90539652221287
20
421.64085462049661
30
0
10
284.86002132959578
20
421.52984078956706
30
0
10
284.81842740303182
20
421.47433387410365
30
0
10
284.78061474252081
20
421.47433387410456
30
0
0
LINE
5
456
100
AcDbEntity
8
0
100
AcDbLine
10
295.67247368571134
20
424.69483169143689
30
0
11
295.67247368570861
21
424.64502939317123
31
0
0
LINE
5
457
100
AcDbEntity
8
0
100
AcDbLine
10
274.43507082715684
20
426.56664573209673
30
0
11
275.8814050916435
21
425.92204929437037
31
0
0
SPLINE
5
458
100
AcDbEntity
8
0
100
AcDbSpline
70
0
71
3
72
15
73
11
74
0
42
0.000000001
43
0.0000000001
44
0.0000000001
40
14
40
14
40
14
40
14
40
15
40
15
40
16
40
16
40
17
40
17
40
17
40
18
40
18
40
18
40
18
10
277.06683199848885
20
422.73129692787995
30
0
10
277.54327152089718
20
422.30872815205657
30
0
10
278.0395626900854
20
422.09744376413431
30
0
10
279.07184832201528
20
422.09744376408963
30
0
10
279.50385796835337
20
422.28545105839117
30
0
10
280.199610921778
20
423.03748023563719
30
0
10
280.37354916014738
20
423.50302210727659
30
0
10
280.37354916017381
20
424.05809126193162
30
0
10
280.37354916018649
20
424.31951092831872
30
0
10
280.34140839875909
20
424.45022076151326
30
0
10
280.2771268758915
20
424.45022076151611
30
0
0
SPLINE
5
459
100
AcDbEntity
8
0
100
AcDbSpline
70
0
71
3
72
8
73
4
74
0
42
0.000000001
43
0.0000000001
44
0.0000000001
40
8
40
8
40
8
40
8
40
9
40
9
40
9
40
9
10
264.69642011251563
20
421.83423355265489
30
0
10
264.72667024092419
20
421.83423355265404
30
0
10
264.74179530512629
20
421.8199091873721
30
0
10
264.74179530512629
20
421.79126045680914
30
0
0
LINE
5
460
100
AcDbEntity
8
0
100
AcDbLine
10
277.0101130077237
20
422.74204020184243
30
0
11
277.03847250310719
21
422.74204020184158
31
0
0
SPLINE
5
461
100
AcDbEntity
8
0
100
AcDbSpline
70
0
71
3
72
20
73
16
74
0
42
0.000000001
43
0.0000000001
44
0.0000000001
40
0
40
0
40
0
40
0
40
1
40
1
40
1
40
2
40
2
40
3
40
3
40
3
40
4
40
4
40
5
40
5
40
6
40
6
40
6
40
6
10
276.98742541149932
20
424.45022076165617
30
0
10
276.90801882442793
20
424.45022076165878
30
0
10
276.86831553089542
20
424.52721422504874
30
0
10
276.86831553090269
20
424.6812011518241
30
0
10
276.86831553091906
20
425.03214810121875
30
0
10
277.04225376928571
20
425.43949723890273
30
0
10
277.73800672271864
20
426.36699989084542
30
0
10
278.18608674977531
20
426.59887555382011
30
0
10
278.73437032717447
20
426.59887555379731
30
0
10
279.49818606948156
20
426.59887555376463
30
0
10
280.09846205506801
20
426.31955043075141
30
0
10
280.97193451280236
20
425.20224993876127
30
0
10
281.19030262722038
20
424.58361641315969
30
0
10
281.19030262715569
20
423.22638280274339
30
0
10
280.98989552642428
20
422.65967510130571
30
0
10
280.58908132499431
20
422.20487650363708
30
0
0
SPLINE
5
462
100
AcDbEntity
8
0
100
AcDbSpline
70
0
71
3
72
8
73
4
74
0
42
0.000000001
43
0.0000000001
44
0.0000000001
40
13
40
13
40
13
40
13
40
14
40
14
40
14
40
14
10
277.03847250310719
20
422.74204020184158
30
0
10
277.0498163012598
20
422.74204020184067
30
0
10
277.05926946638647
20
422.73845911052007
30
0
10
277.06683199848885
20
422.73129692787995
30
0
0
SPLINE
5
463
100
AcDbEntity
8
0
100
AcDbSpline
70
0
71
3
72
8
73
4
74
0
42
0.000000001
43
0.0000000001
44
0.0000000001
40
25
40
25
40
25
40
25
40
26
40
26
40
26
40
26
10
273.76011483682669
20
421.89869319603622
30
0
10
274.08908498327042
20
421.98822047903099
30
0
10
274.25357005649948
20
422.16727504504257
30
0
10
274.25357005651131
20
422.43585689406973
30
0
0
SPLINE
5
464
100
AcDbEntity
8
0
100
AcDbSpline
70
0
71
3
72
11
73
7
74
0
42
0.000000001
43
0.0000000001
44
0.0000000001
40
4
40
4
40
4
40
4
40
5
40
5
40
5
40
6
40
6
40
6
40
6
10
273.98699080007373
20
425.78775836993736
30
0
10
274.11177257974941
20
425.61944707787461
30
0
10
274.18928853379106
20
425.53529143184272
30
0
10
274.21953866219883
20
425.53529143184187
30
0
10
274.24222625850507
20
425.53529143184187
30
0
10
274.25357005665961
20
425.55677797976296
30
0
10
274.25357005666234
20
425.59975107560689
30
0
0
SPLINE
5
465
100
AcDbEntity
8
0
100
AcDbSpline
70
0
71
3
72
18
73
14
74
0
42
0.000000001
43
0.0000000001
44
0.0000000001
40
14
40
14
40
14
40
14
40
15
40
15
40
16
40
16
40
17
40
17
40
18
40
18
40
19
40
19
40
20
40
20
40
20
40
20
10
307.77255583713122
20
421.94859067233119
30
0
10
307.84077469334812
20
421.85847222784832
30
0
10
307.91126751143935
20
421.79206916349358
30
0
10
308.05680107137607
20
421.70669379503306
30
0
10
308.12843087040352
20
421.66163457279163
30
0
10
308.26941650659137
20
421.56677305228095
30
0
10
308.4172240284006
20
421.50155575692861
30
0
10
308.86746847945506
20
421.3355480960272
30
0
10
309.11191938091184
20
421.29404618079559
30
0
10
309.6394785356897
20
421.29404618077388
30
0
10
309.93168263651017
20
421.39246500828443
30
0
10
310.57293988500714
20
421.78614031834877
30
0
10
310.73325419714087
20
422.03633757867101
30
0
10
310.7332541971536
20
422.33989444428335
30
0
0
SPLINE
5
466
100
AcDbEntity
8
0
100
AcDbSpline
70
0
71
3
72
8
73
4
74
0
42
0.000000001
43
0.0000000001
44
0.0000000001
40
30
40
30
40
30
40
30
40
31
40
31
40
31
40
31
10
272.66543831522722
20
425.54066306888848
30
0
10
272.57846919605254
20
425.50127106436776
30
0
10
272.51229704015901
20
425.4779939707887
30
0
10
272.46692184754647
20
425.47083178815052
30
0
0
LINE
5
467
100
AcDbEntity
8
0
100
AcDbLine
10
280.2771268758915
20
424.45022076151611
30
0
11
276.98742541149932
21
424.45022076165617
31
0
0
SPLINE
5
468
100
AcDbEntity
8
0
100
AcDbSpline
70
0
71
3
72
19
73
15
74
0
42
0.000000001
43
0.0000000001
44
0.0000000001
40
0
40
0
40
0
40
0
40
1
40
1
40
1
40
2
40
2
40
3
40
3
40
4
40
4
40
5
40
5
40
6
40
6
40
6
40
6
10
283.85609519328233
20
426.45384135510437
30
0
10
283.93928304640485
20
426.45384135510085
30
0
10
283.98087697296432
20
426.42340207887622
30
0
10
283.9808769729616
20
426.36252352642987
30
0
10
283.98087697295614
20
426.25509078681887
30
0
10
283.8882359547033
20
426.20137441701814
30
0
10
283.51767188170288
20
426.2013744170344
30
0
10
283.37020250571015
20
426.14855332006493
30
0
10
283.15088907474086
20
425.93726893217263
30
0
10
283.09606071699636
20
425.83610310237509
30
0
10
283.09606071698732
20
425.64272417107532
30
0
10
283.12725616190164
20
425.49768997259974
30
0
10
283.25203794156641
20
425.1109321099957
30
0
10
283.53846884489849
20
424.39650439157219
30
0
10
284.04893976172747
20
423.1610278860262
30
0
0
SPLINE
5
469
100
AcDbEntity
8
0
100
AcDbSpline
70
0
71
3
72
14
73
10
74
0
42
0.000000001
43
0.0000000001
44
0.0000000001
40
21
40
21
40
21
40
21
40
22
40
22
40
23
40
23
40
24
40
24
40
25
40
25
40
25
40
25
10
273.11919024116469
20
421.61936807307569
30
0
10
273.0813775806555
20
421.62653025571763
30
0
10
273.06247125040147
20
421.65070262213158
30
0
10
273.062471250405
20
421.73306772249998
30
0
10
273.0804322641489
20
421.76082118023174
30
0
10
273.15227631911966
20
421.78946991079101
30
0
10
273.23262822270499
20
421.80468954889875
30
0
10
273.48219178207358
20
421.83691937077134
30
0
10
273.61642672688589
20
421.86288228283956
30
0
10
273.76011483682669
20
421.89869319603622
30
0
0
SPLINE
5
470
100
AcDbEntity
8
0
100
AcDbSpline
70
0
71
3
72
16
73
12
74
0
42
0.000000001
43
0.0000000001
44
0.0000000001
40
10
40
10
40
10
40
10
40
11
40
11
40
12
40
12
40
13
40
13
40
14
40
14
40
15
40
15
40
15
40
15
10
275.8814050916435
20
425.92204929437037
30
0
10
275.93812408240683
20
425.89340056380479
30
0
10
275.96648357778759
20
425.85848492343041
30
0
10
275.96648357778491
20
425.77611982306189
30
0
10
275.95986636219459
20
425.74926163815968
30
0
10
275.93339749983534
20
425.724193998918
30
0
10
275.90125673840066
20
425.71076490646828
30
0
10
275.79916255502206
20
425.68211617590981
30
0
10
275.73015444959043
20
425.66689653780122
30
0
10
275.55621621124101
20
425.63466671592602
30
0
10
275.47491899114362
20
425.61407544083704
30
0
10
275.39929367012149
20
425.58900780159729
30
0
0
LINE
5
471
100
AcDbEntity
8
0
100
AcDbLine
10
305.6987026079878
20
421.62843304071782
30
0
11
306.09437197407169
21
421.59997458455007
31
0
0
LINE
5
472
100
AcDbEntity
8
0
100
AcDbLine
10
281.70644544327388
20
426.45384135519635
30
0
11
283.85609519328233
21
426.45384135510437
31
0
0
LINE
5
473
100
AcDbEntity
8
0
100
AcDbLine
10
274.25357005651131
20
422.43585689406973
30
0
11
274.25357005662681
21
424.86383680927332
31
0
0
SPLINE
5
474
100
AcDbEntity
8
0
100
AcDbSpline
70
0
71
3
72
8
73
4
74
0
42
0.000000001
43
0.0000000001
44
0.0000000001
40
10
40
10
40
10
40
10
40
11
40
11
40
11
40
11
10
255.84258565403073
20
421.66234116965461
30
0
10
255.84258565402891
20
421.63369243909165
30
0
10
255.82746058982411
20
421.61936807381068
30
0
10
255.79721046141643
20
421.61936807381153
30
0
0
SPLINE
5
475
100
AcDbEntity
8
0
100
AcDbSpline
70
0
71
3
72
10
73
6
74
0
42
0.000000001
43
0.0000000001
44
0.0000000001
40
5
40
5
40
5
40
5
40
6
40
6
40
7
40
7
40
7
40
7
10
306.09437197407169
20
421.59997458455007
30
0
10
306.29902854273496
20
421.599974584542
30
0
10
306.44683606454964
20
421.64503380677434
30
0
10
306.6287530144819
20
421.8252706957237
30
0
10
306.68560206134134
20
421.97467759051591
30
0
10
306.70834168009065
20
422.18337293562308
30
0
0
SPLINE
5
476
100
AcDbEntity
8
0
100
AcDbSpline
70
0
71
3
72
10
73
6
74
0
42
0.000000001
43
0.0000000001
44
0.0000000001
40
2
40
2
40
2
40
2
40
3
40
3
40
4
40
4
40
4
40
4
10
305.76009957857599
20
421.41499461958125
30
0
10
305.69188072235738
20
421.44819615176038
30
0
10
305.65777129424902
20
421.49206960499566
30
0
10
305.65777129425436
20
421.60116035357527
30
0
10
305.67141506550252
20
421.6284330407197
30
0
10
305.6987026079878
20
421.62843304071782
30
0
0
LINE
5
477
100
AcDbEntity
8
0
100
AcDbLine
10
307.57472115402737
20
420.63238707534487
30
0
11
305.76009957857599
21
421.41499461958125
31
0
0
SPLINE
5
478
100
AcDbEntity
8
0
100
AcDbSpline
70
0
71
3
72
12
73
8
74
0
42
0.000000001
43
0.0000000001
44
0.0000000001
40
21
40
21
40
21
40
21
40
22
40
22
40
23
40
23
40
24
40
24
40
24
40
24
10
262.90977190374809
20
429.02685546967405
30
0
10
263.17446052730338
20
428.72604379875258
30
0
10
263.5091025728052
20
428.4055361255659
30
0
10
264.31829350769107
20
427.72512877466306
30
0
10
264.58865403033093
20
427.51294911392051
30
0
10
264.86090518599582
20
427.34463782185139
30
0
10
264.92896797491267
20
427.29718836185469
30
0
10
264.92896797491267
20
427.2864450878933
30
0
0
LINE
5
479
100
AcDbEntity
8
0
100
AcDbLine
10
274.25357005666234
20
425.59975107560689
30
0
11
274.2535700567023
21
426.46995626645446
31
0
0
LINE
5
480
100
AcDbEntity
8
0
100
AcDbLine
10
284.80330233906449
20
426.45384135506447
30
0
11
287.32729742812353
21
426.45384135495715
31
0
0
LINE
5
481
100
AcDbEntity
8
0
100
AcDbLine
10
310.7332541971536
20
422.33989444428335
30
0
11
310.73325419737733
21
427.03553970923252
31
0
0
SPLINE
5
482
100
AcDbEntity
8
0
100
AcDbSpline
70
0
71
3
72
8
73
4
74
0
42
0.000000001
43
0.0000000001
44
0.0000000001
40
12
40
12
40
12
40
12
40
13
40
13
40
13
40
13
10
261.28193686842951
20
421.61936807357961
30
0
10
261.25168674002089
20
421.61936807357961
30
0
10
261.23656167581703
20
421.63369243886245
30
0
10
261.2365616758189
20
421.66234116942542
30
0
0
SPLINE
5
483
100
AcDbEntity
8
0
100
AcDbSpline
70
0
71
3
72
8
73
4
74
0
42
0.000000001
43
0.0000000001
44
0.0000000001
40
18
40
18
40
18
40
18
40
19
40
19
40
19
40
19
10
287.12878096043187
20
426.19063114291839
30
0
10
286.78846701583461
20
426.08677949464345
30
0
10
286.54835662158354
20
425.85400855883017
30
0
10
286.40844977767847
20
425.49231833547958
30
0
0
LINE
5
484
100
AcDbEntity
8
0
100
AcDbLine
10
-345.44553985365752
20
-84.490298125752759
30
0
11
-345.44553985365752
21
-88.893130155902043
31
0
0
SPLINE
5
485
100
AcDbEntity
8
0
100
AcDbSpline
70
0
71
3
72
8
73
4
74
0
42
0.000000001
43
0.0000000001
44
0.0000000001
40
10
40
10
40
10
40
10
40
11
40
11
40
11
40
11
10
-344.39960886433568
20
-89.42643093701875
30
0
10
-344.39960886433568
20
-89.448479548124311
30
0
10
-344.41063316988851
20
-89.459503853677091
30
0
10
-344.43268178099407
20
-89.459503853677091
30
0
0
SPLINE
5
486
100
AcDbEntity
8
0
100
AcDbSpline
70
0
71
3
72
8
73
4
74
0
42
0.000000001
43
0.0000000001
44
0.0000000001
40
16
40
16
40
16
40
16
40
17
40
17
40
17
40
17
10
-346.09872995766091
20
-89.174249947498438
30
0
10
-346.0629009646143
20
-89.152201336392807
30
0
10
-346.04498646809105
20
-89.054360624611775
30
0
10
-346.04498646809105
20
-88.880727812155129
30
0
0
SPLINE
5
487
100
AcDbEntity
8
0
100
AcDbSpline
70
0
71
3
72
8
73
4
74
0
42
0.000000001
43
0.0000000001
44
0.0000000001
40
1
40
1
40
1
40
1
40
2
40
2
40
2
40
2
10
-345.35458933284696
20
-84.556443959069583
30
0
10
-345.4179790897756
20
-84.506834584081929
30
0
10
-345.44829593004573
20
-84.484785972976368
30
0
10
-345.44553985365752
20
-84.490298125752759
30
0
0
LINE
5
488
100
AcDbEntity
8
0
100
AcDbLine
10
-344.43268178099407
20
-89.459503853677091
30
0
11
-346.9214187595386
21
-89.459503853677091
31
0
0
SPLINE
5
489
100
AcDbEntity
8
0
100
AcDbSpline
70
0
71
3
72
11
73
7
74
0
42
0.000000001
43
0.0000000001
44
0.0000000001
40
14
40
14
40
14
40
14
40
15
40
15
40
15
40
16
40
16
40
16
40
16
10
-346.95449167619699
20
-89.327212187043514
30
0
10
-346.95449167619699
20
-89.305163575937883
30
0
10
-346.94346737064416
20
-89.294139270385102
30
0
10
-346.9214187595386
20
-89.294139270385102
30
0
10
-346.50800730130862
20
-89.294139270385102
30
0
10
-346.23377770068271
20
-89.254176162756238
30
0
10
-346.09872995766091
20
-89.174249947498438
30
0
0
LINE
5
490
100
AcDbEntity
8
0
100
AcDbLine
10
-344.39960886433568
20
-89.327212187043514
30
0
11
-344.39960886433568
21
-89.42643093701875
31
0
0
SPLINE
5
491
100
AcDbEntity
8
0
100
AcDbSpline
70
0
71
3
72
12
73
8
74
0
42
0.000000001
43
0.0000000001
44
0.0000000001
40
21
40
21
40
21
40
21
40
22
40
22
40
23
40
23
40
24
40
24
40
24
40
24
10
-345.73492787441853
20
-83.75855984468572
30
0
10
-345.54200252724456
20
-83.990070261294463
30
0
10
-345.29808976688884
20
-84.236739098038385
30
0
10
-344.70828941981409
20
-84.760393611796303
30
0
10
-344.51122995805781
20
-84.923691137797164
30
0
10
-344.31279245810742
20
-85.053226728042546
30
0
10
-344.26318308311977
20
-85.089744740186219
30
0
10
-344.26318308311977
20
-85.098012969350805
30
0
0
SPLINE
5
492
100
AcDbEntity
8
0
100
AcDbSpline
70
0
71
3
72
8
73
4
74
0
42
0.000000001
43
0.0000000001
44
0.0000000001
40
24
40
24
40
24
40
24
40
25
40
25
40
25
40
25
10
-344.26318308311977
20
-85.098012969350805
30
0
10
-344.29901207616638
20
-85.169670955444019
30
0
10
-344.32657284004841
20
-85.205499948490626
30
0
10
-344.34586537476576
20
-85.205499948490626
30
0
0
SPLINE
5
493
100
AcDbEntity
8
0
100
AcDbSpline
70
0
71
3
72
8
73
4
74
0
42
0.000000001
43
0.0000000001
44
0.0000000001
40
0
40
0
40
0
40
0
40
1
40
1
40
1
40
1
10
-344.37067006225959
20
-85.201365833908298
30
0
10
-344.66832631218517
20
-85.05804986172194
30
0
10
-344.99629940238094
20
-84.843075903442298
30
0
10
-345.35458933284696
20
-84.556443959069583
30
0
0
SPLINE
5
494
100
AcDbEntity
8
0
100
AcDbSpline
70
0
71
3
72
8
73
4
74
0
42
0.000000001
43
0.0000000001
44
0.0000000001
40
12
40
12
40
12
40
12
40
13
40
13
40
13
40
13
10
-346.9214187595386
20
-89.459503853677091
30
0
10
-346.94346737064416
20
-89.459503853677091
30
0
10
-346.95449167619699
20
-89.448479548124311
30
0
10
-346.95449167619699
20
-89.42643093701875
30
0
0
LINE
5
495
100
AcDbEntity
8
0
100
AcDbLine
10
-346.95449167619699
20
-89.42643093701875
30
0
11
-346.95449167619699
21
-89.327212187043514
31
0
0
SPLINE
5
496
100
AcDbEntity
8
0
100
AcDbSpline
70
0
71
3
72
10
73
6
74
0
42
0.000000001
43
0.0000000001
44
0.0000000001
40
18
40
18
40
18
40
18
40
19
40
19
40
20
40
20
40
20
40
20
10
-346.04498646809105
20
-83.837108021749387
30
0
10
-346.04498646809105
20
-83.80679118147917
30
0
10
-346.04085235350874
20
-83.786120608567671
30
0
10
-346.02431589517948
20
-83.764071997462111
30
0
10
-346.00226728407392
20
-83.75855984468572
30
0
10
-345.96643829102732
20
-83.75855984468572
30
0
0
LINE
5
497
100
AcDbEntity
8
0
100
AcDbLine
10
-344.34586537476576
20
-85.205499948490626
30
0
11
-344.37067006225959
21
-85.201365833908298
31
0
0
LINE
5
498
100
AcDbEntity
8
0
100
AcDbLine
10
-345.96643829102732
20
-83.75855984468572
30
0
11
-345.73492787441853
21
-83.75855984468572
31
0
0
LINE
5
499
100
AcDbEntity
8
0
100
AcDbLine
10
-346.04498646809105
20
-88.880727812155129
30
0
11
-346.04498646809105
21
-83.837108021749387
31
0
0
SPLINE
5
500
100
AcDbEntity
8
0
100
AcDbSpline
70
0
71
3
72
16
73
12
74
0
42
0.000000001
43
0.0000000001
44
0.0000000001
40
3
40
3
40
3
40
3
40
4
40
4
40
5
40
5
40
6
40
6
40
7
40
7
40
8
40
8
40
8
40
8
10
-345.44553985365752
20
-88.893130155902043
30
0
10
-345.44553985365752
20
-88.973056371159842
30
0
10
-345.44140573907526
20
-89.037824166282533
30
0
10
-345.42486928074601
20
-89.137042916257769
30
0
10
-345.39799753596105
20
-89.174249947498438
30
0
10
-345.30704701515049
20
-89.223859322486021
30
0
10
-345.22780981898973
20
-89.241773819009325
30
0
10
-345.00181155515742
20
-89.263822430114885
30
0
10
-344.8943245760176
20
-89.271401640182475
30
0
10
-344.69037492329079
20
-89.27966986934706
30
0
10
-344.57048560040403
20
-89.285871041220517
30
0
10
-344.43268178099407
20
-89.294139270385102
30
0
0
SPLINE
5
501
100
AcDbEntity
8
0
100
AcDbSpline
70
0
71
3
72
8
73
4
74
0
42
0.000000001
43
0.0000000001
44
0.0000000001
40
8
40
8
40
8
40
8
40
9
40
9
40
9
40
9
10
-344.43268178099407
20
-89.294139270385102
30
0
10
-344.41063316988851
20
-89.294139270385102
30
0
10
-344.39960886433568
20
-89.305163575937883
30
0
10
-344.39960886433568
20
-89.327212187043514
30
0
0
SPLINE
5
502
100
AcDbEntity
8
0
100
AcDbSpline
70
0
71
3
72
29
73
25
74
0
42
0.000000001
43
0.0000000001
44
0.0000000001
40
0
40
0
40
0
40
0
40
1
40
1
40
1
40
2
40
2
40
2
40
3
40
3
40
3
40
4
40
4
40
4
40
5
40
5
40
5
40
6
40
6
40
6
40
7
40
7
40
7
40
8
40
8
40
8
40
8
10
-342.25079701653954
20
-89.418162707854094
30
0
10
-342.35690595748531
20
-89.520137534217525
30
0
10
-342.4829964522454
20
-89.571124947399241
30
0
10
-342.62906850081998
20
-89.571124947399241
30
0
10
-342.77789662578277
20
-89.571124947399241
30
0
10
-342.90467613963995
20
-89.520826553314521
30
0
10
-343.00940704239162
20
-89.420229765145294
30
0
10
-343.11413794514317
20
-89.319632976975996
30
0
10
-343.16650339651903
20
-89.193542482215804
30
0
10
-343.16650339651903
20
-89.041958280864861
30
0
10
-343.16650339651903
20
-88.890374079513848
30
0
10
-343.11344892604609
20
-88.761527508365532
30
0
10
-343.00733998510043
20
-88.655418567419844
30
0
10
-342.90123104415471
20
-88.549309626474155
30
0
10
-342.77514054939456
20
-88.49625515600124
30
0
10
-342.62906850081998
20
-88.49625515600124
30
0
10
-342.48024037585719
20
-88.49625515600124
30
0
10
-342.35346086200002
20
-88.550687664668217
30
0
10
-342.24872995924841
20
-88.659552682002101
30
0
10
-342.14399905649685
20
-88.768417699335984
30
0
10
-342.09163360512099
20
-88.896575251387304
30
0
10
-342.09163360512099
20
-89.04402533815599
30
0
10
-342.09163360512099
20
-89.191475424924676
30
0
10
-342.14468807559388
20
-89.316187881490734
30
0
10
-342.25079701653954
20
-89.418162707854094
30
0
0
ENDSEC
0
SECTION
2
OBJECTS
0
DICTIONARY
5
C
100
AcDbDictionary
3
ACAD_GROUP
350
D
3
ACAD_MLINESTYLE
350
17
0
DICTIONARY
5
D
100
AcDbDictionary
0
DICTIONARY
5
1A
330
C
100
AcDbDictionary
0
DICTIONARY
5
17
100
AcDbDictionary
0
ENDSEC
0
EOF
