0
SECTION
2
HEADER
9
$INSUNITS
70
4
9
$ACADVER
1
AC1014
9
$HANDSEED
5
FFFF
0
ENDSEC
0
SECTION
2
TABLES
0
TABLE
2
VPORT
5
8
100
AcDbSymbolTable
0
ENDTAB
0
TABLE
2
LTYPE
5
5
100
AcDbSymbolTable
0
LTYPE
5
14
100
AcDbSymbolTableRecord
100
AcDbLinetypeTableRecord
2
BYBLOCK
70
0
0
LTYPE
5
15
100
AcDbSymbolTableRecord
100
AcDbLinetypeTableRecord
2
BYLAYER
70
0
0
ENDTAB
0
TABLE
2
LAYER
5
2
100
AcDbSymbolTable
70
2
0
LAYER
5
50
100
AcDbSymbolTableRecord
100
AcDbLayerTableRecord
2
0
70
0
6
CONTINUOUS
0
ENDTAB
0
TABLE
2
STYLE
5
3
100
AcDbSymbolTable
70
1
0
STYLE
5
11
100
AcDbSymbolTableRecord
100
AcDbTextStyleTableRecord
2
STANDARD
70
0
0
ENDTAB
0
TABLE
2
VIEW
5
6
100
AcDbSymbolTable
70
0
0
ENDTAB
0
TABLE
2
UCS
5
7
100
AcDbSymbolTable
70
0
0
ENDTAB
0
TABLE
2
APPID
5
9
100
AcDbSymbolTable
70
2
0
APPID
5
12
100
AcDbSymbolTableRecord
100
AcDbRegAppTableRecord
2
ACAD
70
0
0
ENDTAB
0
TABLE
2
DIMSTYLE
5
A
100
AcDbSymbolTable
70
1
0
ENDTAB
0
TABLE
2
BLOCK_RECORD
5
1
100
AcDbSymbolTable
70
1
0
BLOCK_RECORD
5
1F
100
AcDbSymbolTableRecord
100
AcDbBlockTableRecord
2
*MODEL_SPACE
0
BLOCK_RECORD
5
1B
100
AcDbSymbolTableRecord
100
AcDbBlockTableRecord
2
*PAPER_SPACE
0
ENDTAB
0
ENDSEC
0
SECTION
2
BLOCKS
0
BLOCK
5
20
100
AcDbEntity
100
AcDbBlockBegin
2
*MODEL_SPACE
0
ENDBLK
5
21
100
AcDbEntity
100
AcDbBlockEnd
0
BLOCK
5
1C
100
AcDbEntity
100
AcDbBlockBegin
2
*PAPER_SPACE
0
ENDBLK
5
1D
100
AcDbEntity
100
AcDbBlockEnd
0
ENDSEC
0
SECTION
2
ENTITIES
0
SPLINE
5
100
100
AcDbEntity
8
0
100
AcDbSpline
70
0
71
3
72
12
73
8
74
0
42
0.000000001
43
0.0000000001
44
0.0000000001
40
6
40
6
40
6
40
6
40
7
40
7
40
8
40
8
40
9
40
9
40
9
40
9
10
-326.84889272139009
20
-89.008885364206449
30
0
10
-326.98669654080004
20
-89.177006023886619
30
0
10
-327.15206112409197
20
-89.312742786005472
30
0
10
-327.53791181844002
20
-89.519448515120445
30
0
10
-327.72808108922584
20
-89.571124947399241
30
0
10
-328.102907478021
20
-89.571124947399241
30
0
10
-328.27102813770119
20
-89.544942221711352
30
0
10
-328.41985626266393
20
-89.492576770335504
30
0
0
SPLINE
5
101
100
AcDbEntity
8
0
100
AcDbSpline
70
0
71
3
72
8
73
4
74
0
42
0.000000001
43
0.0000000001
44
0.0000000001
40
6
40
6
40
6
40
6
40
7
40
7
40
7
40
7
10
-327.19615834630315
20
-86.962498645968068
30
0
10
-327.14654897131561
20
-86.962498645968068
30
0
10
-327.12174428382184
20
-86.936315920280137
30
0
10
-327.12174428382184
20
-86.883950468904345
30
0
0
SPLINE
5
102
100
AcDbEntity
8
0
100
AcDbSpline
70
0
71
3
72
10
73
6
74
0
42
0.000000001
43
0.0000000001
44
0.0000000001
40
12
40
12
40
12
40
12
40
13
40
13
40
14
40
14
40
14
40
14
10
-323.7648432429944
20
-85.887628854570067
30
0
10
-323.79516008326448
20
-85.873848472629092
30
0
10
-323.81031850339974
20
-85.845598689650018
30
0
10
-323.81031850339974
20
-85.760160321615842
30
0
10
-323.79929419784679
20
-85.73880072960732
30
0
10
-323.77724558674123
20
-85.73880072960732
30
0
0
SPLINE
5
103
100
AcDbEntity
8
0
100
AcDbSpline
70
0
71
3
72
10
73
6
74
0
42
0.000000001
43
0.0000000001
44
0.0000000001
40
3
40
3
40
3
40
3
40
4
40
4
40
5
40
5
40
5
40
5
10
-317.30319598557764
20
-86.378554961218143
30
0
10
-317.30319598557764
20
-86.85811225276494
30
0
10
-317.25255308194443
20
-87.275657825577255
30
0
10
-317.04998146741178
20
-87.98672553373278
30
0
10
-316.94352801691758
20
-88.249241809708806
30
0
10
-316.83190692319545
20
-88.418740507583138
30
0
0
LINE
5
104
100
AcDbEntity
8
0
100
AcDbLine
10
-305.13029559799577
20
-88.170693632645154
30
0
11
-305.13029559799577
21
-83.941494414952444
31
0
0
SPLINE
5
105
100
AcDbEntity
8
0
100
AcDbSpline
70
0
71
3
72
18
73
14
74
0
42
0.000000001
43
0.0000000001
44
0.0000000001
40
14
40
14
40
14
40
14
40
15
40
15
40
16
40
16
40
17
40
17
40
18
40
18
40
19
40
19
40
20
40
20
40
20
40
20
10
-304.16291278573766
20
-88.375332304469012
30
0
10
-304.10090106700318
20
-88.453880481532664
30
0
10
-304.03682229097751
20
-88.511758085684832
30
0
10
-303.90453062434398
20
-88.586172148166312
30
0
10
-303.83941831967269
20
-88.62544623669811
30
0
10
-303.71126076762141
20
-88.708128528344119
30
0
10
-303.57690204369669
20
-88.764972603850779
30
0
10
-303.16762470004892
20
-88.909666614231227
30
0
10
-302.94541604125038
20
-88.945840116826403
30
0
10
-302.46585874970367
20
-88.945840116826403
30
0
10
-302.20024188779087
20
-88.860057239243616
30
0
10
-301.61733173168659
20
-88.516925728912753
30
0
10
-301.47160419266049
20
-88.29885118469646
30
0
10
-301.47160419266049
20
-88.034267851429291
30
0
0
SPLINE
5
106
100
AcDbEntity
8
0
100
AcDbSpline
70
0
71
3
72
8
73
4
74
0
42
0.000000001
43
0.0000000001
44
0.0000000001
40
5
40
5
40
5
40
5
40
5.9005847269305614
40
5.9005847269305614
40
5.9005847269305614
40
5.9005847269305614
10
-316.83190692319545
20
-88.418740507583138
30
0
10
-316.54894976882815
20
-88.850622480038339
30
0
10
-316.18216797906661
20
-89.088031298378709
30
0
10
-315.73156155391069
20
-89.130966962604106
30
0
0
SPLINE
5
107
100
AcDbEntity
8
0
100
AcDbSpline
70
0
71
3
72
8
73
4
74
0
42
0.000000001
43
0.0000000001
44
0.0000000001
40
39
40
39
40
39
40
39
40
40
40
40
40
40
40
40
10
-304.16291278573766
20
-89.404726835461616
30
0
10
-304.16291278573766
20
-89.508079700019195
30
0
10
-304.18048277271254
20
-89.559756132297892
30
0
10
-304.21562274666201
20
-89.559756132297892
30
0
0
SPLINE
5
108
100
AcDbEntity
8
0
100
AcDbSpline
70
0
71
3
72
15
73
11
74
0
42
0.000000001
43
0.0000000001
44
0.0000000001
40
14
40
14
40
14
40
14
40
15
40
15
40
16
40
16
40
17
40
17
40
17
40
18
40
18
40
18
40
18
10
-329.41617787699818
20
-88.603742135141061
30
0
10
-329.06891225208506
20
-88.92895914894865
30
0
10
-328.70717722613387
20
-89.091567655852458
30
0
10
-327.95476837215529
20
-89.091567655852458
30
0
10
-327.63988664480337
20
-88.946873645471953
30
0
10
-327.13276858937462
20
-88.368097603949991
30
0
10
-327.00598907551745
20
-88.009807673483976
30
0
10
-327.00598907551745
20
-87.582615833313042
30
0
10
-327.00598907551745
20
-87.381422256974432
30
0
10
-327.02941572481711
20
-87.280825468805162
30
0
10
-327.0762690234165
20
-87.280825468805162
30
0
0
SPLINE
5
109
100
AcDbEntity
8
0
100
AcDbSpline
70
0
71
3
72
10
73
6
74
0
42
0.000000001
43
0.0000000001
44
0.0000000001
40
27
40
27
40
27
40
27
40
28
40
28
40
29
40
29
40
29
40
29
10
-300.50422138040238
20
-93.230849881380124
30
0
10
-300.50422138040238
20
-93.288727485532306
30
0
10
-300.50732196633908
20
-93.324900988127396
30
0
10
-300.51972431008596
20
-93.35383979020348
30
0
10
-300.54142841164293
20
-93.361074490722586
30
0
10
-300.57863544288375
20
-93.361074490722586
30
0
0
LINE
5
110
100
AcDbEntity
8
0
100
AcDbLine
10
-305.05588153551452
20
-83.811269805609982
30
0
11
-304.23732684821908
21
-83.811269805609982
31
0
0
LINE
5
111
100
AcDbEntity
8
0
100
AcDbLine
10
-339.96643829102732
20
-83.75855984468572
30
0
11
-339.73492787441847
21
-83.75855984468572
31
0
0
SPLINE
5
112
100
AcDbEntity
8
0
100
AcDbSpline
70
0
71
3
72
10
73
6
74
0
42
0.000000001
43
0.0000000001
44
0.0000000001
40
5
40
5
40
5
40
5
40
6
40
6
40
7
40
7
40
7
40
7
10
-305.68840106660627
20
-88.679189726268021
30
0
10
-305.50236591040277
20
-88.679189726268021
30
0
10
-305.36800718647805
20
-88.639915637736152
30
0
10
-305.20264260318606
20
-88.482819283608762
30
0
10
-305.15096617090734
20
-88.352594674266371
30
0
10
-305.13029559799577
20
-88.170693632645154
30
0
0
SPLINE
5
113
100
AcDbEntity
8
0
100
AcDbSpline
70
0
71
3
72
8
73
4
74
0
42
0.000000001
43
0.0000000001
44
0.0000000001
40
30
40
30
40
30
40
30
40
31
40
31
40
31
40
31
10
-301.41579364579945
20
-93.013808865809366
30
0
10
-301.45300067704005
20
-92.997272407480196
30
0
10
-301.47160419266049
20
-92.955931261657213
30
0
10
-301.47160419266049
20
-92.88978542834036
30
0
0
CIRCLE
5
114
100
AcDbEntity
8
0
100
AcDbCircle
10
-63.774999999999984
20
4.4749999999999801
30
0
40
2.999999999999972
210
0
220
0
230
1
0
SPLINE
5
115
100
AcDbEntity
8
0
100
AcDbSpline
70
0
71
3
72
16
73
12
74
0
42
0.000000001
43
0.0000000001
44
0.0000000001
40
3
40
3
40
3
40
3
40
4
40
4
40
5
40
5
40
6
40
6
40
7
40
7
40
8
40
8
40
8
40
8
10
-339.44553985365752
20
-88.893130155902043
30
0
10
-339.44553985365752
20
-88.973056371159842
30
0
10
-339.44140573907526
20
-89.037824166282533
30
0
10
-339.42486928074601
20
-89.137042916257784
30
0
10
-339.39799753596105
20
-89.174249947498438
30
0
10
-339.30704701515049
20
-89.223859322486021
30
0
10
-339.22780981898973
20
-89.24177381900931
30
0
10
-339.00181155515736
20
-89.263822430114885
30
0
10
-338.89432457601765
20
-89.271401640182461
30
0
10
-338.69037492329085
20
-89.27966986934706
30
0
10
-338.57048560040403
20
-89.285871041220517
30
0
10
-338.43268178099407
20
-89.294139270385088
30
0
0
SPLINE
5
116
100
AcDbEntity
8
0
100
AcDbSpline
70
0
71
3
72
8
73
4
74
0
42
0.000000001
43
0.0000000001
44
0.0000000001
40
18
40
18
40
18
40
18
40
19
40
19
40
19
40
19
10
-322.08225860799837
20
-85.941372344139978
30
0
10
-322.33030548293635
20
-86.021298559397792
30
0
10
-322.50531633358713
20
-86.200443524630757
30
0
10
-322.60729115995042
20
-86.478807239838943
30
0
0
SPLINE
5
117
100
AcDbEntity
8
0
100
AcDbSpline
70
0
71
3
72
10
73
6
74
0
42
0.000000001
43
0.0000000001
44
0.0000000001
40
24
40
24
40
24
40
24
40
25
40
25
40
26
40
26
40
26
40
26
10
-300.57863544288375
20
-83.811269805609982
30
0
10
-300.54142841164293
20
-83.811269805609982
30
0
10
-300.51972431008596
20
-83.818504506129017
30
0
10
-300.50732196633908
20
-83.847443308205087
30
0
10
-300.50422138040238
20
-83.883616810800262
30
0
10
-300.50422138040238
20
-83.941494414952444
30
0
0
SPLINE
5
118
100
AcDbEntity
8
0
100
AcDbSpline
70
0
71
3
72
10
73
6
74
0
42
0.000000001
43
0.0000000001
44
0.0000000001
40
2
40
2
40
2
40
2
40
3
40
3
40
4
40
4
40
4
40
4
10
-305.99225848840535
20
-88.840420194977696
30
0
10
-306.05427020713984
20
-88.811481392901626
30
0
10
-306.08527606650705
20
-88.773240833015294
30
0
10
-306.08527606650705
20
-88.678156197622457
30
0
10
-306.07287372276022
20
-88.654385038774208
30
0
10
-306.04806903526639
20
-88.654385038774208
30
0
0
LINE
5
119
100
AcDbEntity
8
0
100
AcDbLine
10
-327.73598121524378
20
-86.962498645968068
30
0
11
-327.19615834630315
21
-86.962498645968068
31
0
0
SPLINE
5
120
100
AcDbEntity
8
0
100
AcDbSpline
70
0
71
3
72
12
73
8
74
0
42
0.000000001
43
0.0000000001
44
0.0000000001
40
2
40
2
40
2
40
2
40
3
40
3
40
4
40
4
40
4.8009259001608635
40
4.8009259001608635
40
4.8009259001608635
40
4.8009259001608635
10
-317.73107684484563
20
-84.989492461565419
30
0
10
-317.57811460530058
20
-84.716640899133694
30
0
10
-317.41585060794523
20
-84.492365183043873
30
0
10
-317.07271909761437
20
-84.140965443548396
30
0
10
-316.85464455339803
20
-83.982835560775442
30
0
10
-316.37814957576632
20
-83.729697603908591
30
0
10
-316.09198301442541
20
-83.662202885289787
30
0
10
-315.73156153610819
20
-83.639791509120869
30
0
0
LINE
5
121
100
AcDbEntity
8
0
100
AcDbLine
10
-318.94030536016828
20
-89.596963163538575
30
0
11
-319.47360614128507
21
-88.958242460573288
31
0
0
SPLINE
5
122
100
AcDbEntity
8
0
100
AcDbSpline
70
0
71
3
72
19
73
15
74
0
42
0.000000001
43
0.0000000001
44
0.0000000001
40
0
40
0
40
0
40
0
40
1
40
1
40
1
40
2
40
2
40
3
40
3
40
4
40
4
40
5
40
5
40
6
40
6
40
6
40
6
10
-324.46764272198544
20
-85.73880072960732
30
0
10
-324.40700904144489
20
-85.73880072960732
30
0
10
-324.37669220117482
20
-85.762227378907056
30
0
10
-324.37669220117482
20
-85.809080677506415
30
0
10
-324.37669220117482
20
-85.89176296915241
30
0
10
-324.44421607268572
20
-85.933104114975393
30
0
10
-324.71431155872915
20
-85.933104114975393
30
0
10
-324.82179853786909
20
-85.973756241701338
30
0
10
-324.98165096838471
20
-86.136364748605132
30
0
10
-325.02161407601352
20
-86.214223906571732
30
0
10
-325.02161407601352
20
-86.363052031534536
30
0
10
-324.99887644581088
20
-86.474673125256629
30
0
10
-324.90792592500037
20
-86.772329375182267
30
0
10
-324.69915313859411
20
-87.322166614628145
30
0
10
-324.32708282618711
20
-88.273012968557097
30
0
0
LINE
5
123
100
AcDbEntity
8
0
100
AcDbLine
10
-328.75471954383033
20
-86.962498645968068
30
0
11
-328.15011454240926
21
-86.962498645968068
31
0
0
SPLINE
5
124
100
AcDbEntity
8
0
100
AcDbSpline
70
0
71
3
72
10
73
6
74
0
42
0.000000001
43
0.0000000001
44
0.0000000001
40
9
40
9
40
9
40
9
40
10
40
10
40
11
40
11
40
11
40
11
10
-316.10636981400182
20
-89.479140897943026
30
0
10
-316.4867083555734
20
-89.404726835461616
30
0
10
-316.80503517841044
20
-89.278636340701482
30
0
10
-317.31766538661566
20
-88.923102486623705
30
0
10
-317.48716408448985
20
-88.805280221028141
30
0
10
-317.56984637613584
20
-88.747402616875988
30
0
0
LINE
5
125
100
AcDbEntity
8
0
100
AcDbLine
10
-315.73156139958121
20
-84.357683269903845
30
0
11
-315.73156153610819
21
-83.639791509120869
31
0
0
SPLINE
5
126
100
AcDbEntity
8
0
100
AcDbSpline
70
0
71
3
72
16
73
12
74
0
42
0.000000001
43
0.0000000001
44
0.0000000001
40
0
40
0
40
0
40
0
40
1
40
1
40
1
40
2
40
2
40
3
40
3
40
3
40
3.0305156186088547
40
3.0305156186088547
40
3.0305156186088547
40
3.0305156186088547
10
-329.47405548115051
20
-87.280825468805162
30
0
10
-329.53193308530268
20
-87.280825468805162
30
0
10
-329.5608718873786
20
-87.221569826458833
30
0
10
-329.5608718873786
20
-87.103058541766245
30
0
10
-329.5608718873786
20
-86.832963055722615
30
0
10
-329.43409237352148
20
-86.519459366564902
30
0
10
-328.92697431809279
20
-85.805635582021154
30
0
10
-328.60037926609101
20
-85.627179635885184
30
0
10
-328.20074818980203
20
-85.627179635885184
30
0
10
-328.18375930786652
20
-85.627179635885184
30
0
10
-328.16688142560884
20
-85.62737982027555
30
0
10
-328.15011454302913
20
-85.62778018905631
30
0
0
SPLINE
5
127
100
AcDbEntity
8
0
100
AcDbSpline
70
0
71
3
72
8
73
4
74
0
42
0.000000001
43
0.0000000001
44
0.0000000001
40
0
40
0
40
0
40
0
40
1
40
1
40
1
40
1
10
-304.21562274666201
20
-89.559756132297892
30
0
10
-304.25076272061165
20
-89.559756132297892
30
0
10
-304.29313739508007
20
-89.547353788550993
30
0
10
-304.34274677006772
20
-89.522549101057223
30
0
0
SPLINE
5
128
100
AcDbEntity
8
0
100
AcDbSpline
70
0
71
3
72
11
73
7
74
0
42
0.000000001
43
0.0000000001
44
0.0000000001
40
18
40
18
40
18
40
18
40
19
40
19
40
19
40
20
40
20
40
20
40
20
10
-318.92790301642145
20
-88.511758085684832
30
0
10
-318.46074806862163
20
-87.98672553373278
30
0
10
-318.22717059472166
20
-87.337669544311737
30
0
10
-318.22717059472166
20
-86.564590117421702
30
0
10
-318.22717059472166
20
-85.795644805113952
30
0
10
-318.4752174696597
20
-84.81792670640003
30
0
10
-318.97131121953555
20
-83.631435821279965
30
0
0
SPLINE
5
129
100
AcDbEntity
8
0
100
AcDbSpline
70
0
71
3
72
8
73
4
74
0
42
0.000000001
43
0.0000000001
44
0.0000000001
40
8
40
8
40
8
40
8
40
9
40
9
40
9
40
9
10
-338.43268178099407
20
-89.294139270385088
30
0
10
-338.41063316988851
20
-89.294139270385088
30
0
10
-338.39960886433568
20
-89.305163575937883
30
0
10
-338.39960886433568
20
-89.3272121870435
30
0
0
SPLINE
5
130
100
AcDbEntity
8
0
100
AcDbSpline
70
0
71
3
72
8
73
4
74
0
42
0.000000001
43
0.0000000001
44
0.0000000001
40
17
40
17
40
17
40
17
40
18
40
18
40
18
40
18
10
-330.82177683498014
20
-88.831118437167547
30
0
10
-330.82177683498014
20
-89.101213923211176
30
0
10
-330.67294871001729
20
-89.258310277338509
30
0
10
-330.37529246009177
20
-89.302407499549773
30
0
0
LINE
5
131
100
AcDbEntity
8
0
100
AcDbLine
10
-327.0762690234165
20
-87.280825468805162
30
0
11
-327.73598121524378
21
-87.280825468805162
31
0
0
SPLINE
5
132
100
AcDbEntity
8
0
100
AcDbSpline
70
0
71
3
72
10
73
6
74
0
42
0.000000001
43
0.0000000001
44
0.0000000001
40
0
40
0
40
0
40
0
40
1
40
1
40
1.5379718805380709
40
1.5379718805380709
40
1.5379718805380709
40
1.5379718805380709
10
-327.12174428382184
20
-86.834341093916763
30
0
10
-327.16859758242128
20
-86.594562448143364
30
0
10
-327.27677358065813
20
-86.380966528057854
30
0
10
-327.53745781177651
20
-86.092730305032617
30
0
10
-327.63402745813261
20
-86.019027253560978
30
0
10
-327.73598121760068
20
-85.972444179245699
30
0
0
LINE
5
133
100
AcDbEntity
8
0
100
AcDbLine
10
-315.0161547262494
20
-84.269442744969737
30
0
11
-315.01615472553397
21
-83.661375689157197
31
0
0
LINE
5
134
100
AcDbEntity
8
0
100
AcDbLine
10
-340.95449167619699
20
-89.42643093701875
30
0
11
-340.95449167619699
21
-89.3272121870435
31
0
0
CIRCLE
5
135
100
AcDbEntity
8
0
100
AcDbCircle
10
-350.47500000000008
20
-99.725000000000037
30
0
40
1.7500000000000004
210
0
220
0
230
1
0
LINE
5
136
100
AcDbEntity
8
0
100
AcDbLine
10
-315.73156155391069
20
-89.130966962604106
30
0
11
-315.73156156341929
21
-89.542371420331293
31
0
0
LINE
5
137
100
AcDbEntity
8
0
100
AcDbLine
10
-331.4666987098189
20
-86.396124948192963
30
0
11
-331.4666987098189
21
-85.726398385860421
31
0
0
SPLINE
5
138
100
AcDbEntity
8
0
100
AcDbSpline
70
0
71
3
72
10
73
6
74
0
42
0.000000001
43
0.0000000001
44
0.0000000001
40
11
40
11
40
11
40
11
40
12
40
12
40
13
40
13
40
13
40
13
10
-304.23732684821908
20
-83.811269805609982
30
0
10
-304.20011981697832
20
-83.811269805609982
30
0
10
-304.17841571542124
20
-83.818504506129017
30
0
10
-304.16601337167441
20
-83.847443308205087
30
0
10
-304.16291278573766
20
-83.883616810800262
30
0
10
-304.16291278573766
20
-83.941494414952444
30
0
0
SPLINE
5
139
100
AcDbEntity
8
0
100
AcDbSpline
70
0
71
3
72
13
73
9
74
0
42
0.000000001
43
0.0000000001
44
0.0000000001
40
2.2232146004065925
40
2.2232146004065925
40
2.2232146004065925
40
2.2232146004065925
40
3
40
3
40
4
40
4
40
4
40
5
40
5
40
5
40
5
10
-328.15011454240874
20
-85.92798512703709
30
0
10
-328.3089888489564
20
-85.964064738692571
30
0
10
-328.45746937895734
20
-86.062922760689418
30
0
10
-328.7733230594506
20
-86.432642960336622
30
0
10
-328.86220652297004
20
-86.635903593966376
30
0
10
-328.86220652297004
20
-86.834341093916763
30
0
10
-328.86220652297004
20
-86.919779461950938
30
0
10
-328.82637752992343
20
-86.962498645968068
30
0
10
-328.75471954383033
20
-86.962498645968068
30
0
0
CIRCLE
5
140
100
AcDbEntity
8
0
100
AcDbCircle
10
-159.34166666666664
20
-99.725000000000037
30
0
40
1.750000000000006
210
0
220
0
230
1
0
SPLINE
5
141
100
AcDbEntity
8
0
100
AcDbSpline
70
0
71
3
72
8
73
4
74
0
42
0.000000001
43
0.0000000001
44
0.0000000001
40
22
40
22
40
22
40
22
40
23
40
23
40
23
40
23
10
-324.12037709707215
20
-89.571124947399241
30
0
10
-324.14793786095413
20
-89.571124947399241
30
0
10
-324.17825470122438
20
-89.531161839770292
30
0
10
-324.21132761788283
20
-89.451235624512506
30
0
0
LINE
5
142
100
AcDbEntity
8
0
100
AcDbLine
10
-318.97131121953555
20
-83.631435821279965
30
0
11
-318.0473366103916
21
-83.631435821279965
31
0
0
SPLINE
5
143
100
AcDbEntity
8
0
100
AcDbSpline
70
0
71
3
72
11
73
7
74
0
42
0.000000001
43
0.0000000001
44
0.0000000001
40
18
40
18
40
18
40
18
40
19
40
19
40
19
40
20
40
20
40
20
40
20
10
-330.37529246009177
20
-89.302407499549773
30
0
10
-330.24575686984639
20
-89.318943957878929
30
0
10
-330.18098907472364
20
-89.352016874537341
30
0
10
-330.18098907472364
20
-89.401626249524938
30
0
10
-330.18098907472364
20
-89.434699166183321
30
0
10
-330.19476945666469
20
-89.453991700900701
30
0
10
-330.22233022054661
20
-89.459503853677106
30
0
0
LINE
5
144
100
AcDbEntity
8
0
100
AcDbLine
10
-327.12174428382184
20
-86.883950468904345
30
0
11
-327.12174428382184
21
-86.834341093916763
31
0
0
LINE
5
145
100
AcDbEntity
8
0
100
AcDbLine
10
-331.33440704318525
20
-85.651984323379011
30
0
11
-330.28020782469889
21
-86.148078073254979
31
0
0
LINE
5
146
100
AcDbEntity
8
0
100
AcDbLine
10
-327.73598121760068
20
-85.972444179245699
30
0
11
-327.7359813949252
21
-85.684137547558933
31
0
0
SPLINE
5
147
100
AcDbEntity
8
0
100
AcDbSpline
70
0
71
3
72
10
73
6
74
0
42
0.000000001
43
0.0000000001
44
0.0000000001
40
1.3917233721016185
40
1.3917233721016185
40
1.3917233721016185
40
1.3917233721016185
40
2
40
2
40
3
40
3
40
3
40
3
10
-315.73156139958121
20
-84.357683269903845
30
0
10
-316.01756265693052
20
-84.454711778075193
30
0
10
-316.29132692003361
20
-84.62707428207608
30
0
10
-316.98280210544937
20
-85.281981068263164
30
0
10
-317.23291603767848
20
-85.78324246136701
30
0
10
-317.30319598557764
20
-86.378554961218143
30
0
0
SPLINE
5
148
100
AcDbEntity
8
0
100
AcDbSpline
70
0
71
3
72
8
73
4
74
0
42
0.000000001
43
0.0000000001
44
0.0000000001
40
8.8507788992924947
40
8.8507788992924947
40
8.8507788992924947
40
8.8507788992924947
40
9
40
9
40
9
40
9
10
-315.73156156341929
20
-89.542371420331293
30
0
10
-315.85373602489096
20
-89.526127418132816
30
0
10
-315.97867210841849
20
-89.505050577336789
30
0
10
-316.10636981400182
20
-89.479140897943026
30
0
0
LINE
5
149
100
AcDbEntity
8
0
100
AcDbLine
10
-315.01615472574179
20
-89.046967544697736
30
0
11
-315.01615472552589
21
-89.58137885372723
31
0
0
SPLINE
5
150
100
AcDbEntity
8
0
100
AcDbSpline
70
0
71
3
72
8
73
4
74
0
42
0.000000001
43
0.0000000001
44
0.0000000001
40
16
40
16
40
16
40
16
40
17
40
17
40
17
40
17
10
-340.09872995766091
20
-89.174249947498438
30
0
10
-340.06290096461436
20
-89.152201336392807
30
0
10
-340.04498646809105
20
-89.054360624611775
30
0
10
-340.04498646809105
20
-88.880727812155129
30
0
0
LINE
5
151
100
AcDbEntity
8
0
100
AcDbLine
10
-327.73598121524378
20
-86.962498645968068
30
0
11
-327.73598121524378
21
-87.280825468805162
31
0
0
LINE
5
152
100
AcDbEntity
8
0
100
AcDbLine
10
-323.21500600354852
20
-86.259699166977057
30
0
11
-323.1902013160547
21
-86.160480417001892
31
0
0
LINE
5
153
100
AcDbEntity
8
0
100
AcDbLine
10
-324.32708282618711
20
-88.273012968557097
30
0
11
-324.21959584704729
21
-88.541730416406551
31
0
0
LINE
5
154
100
AcDbEntity
8
0
100
AcDbLine
10
-331.4666987098189
20
-88.831118437167547
30
0
11
-331.4666987098189
21
-86.962498645968068
31
0
0
LINE
5
155
100
AcDbEntity
8
0
100
AcDbLine
10
-304.07609637950929
20
-88.784609648116671
30
0
11
-304.11950458262362
21
-88.784609648116671
31
0
0
SPLINE
5
156
100
AcDbEntity
8
0
100
AcDbSpline
70
0
71
3
72
8
73
4
74
0
42
0.000000001
43
0.0000000001
44
0.0000000001
40
30
40
30
40
30
40
30
40
31
40
31
40
31
40
31
10
-332.62425079286288
20
-86.441600208598274
30
0
10
-332.68764054979152
20
-86.471917048868505
30
0
10
-332.7358718865849
20
-86.489831545391809
30
0
10
-332.76894480324336
20
-86.495343698168199
30
0
0
LINE
5
157
100
AcDbEntity
8
0
100
AcDbLine
10
-315.57580661617777
20
-89.138073245787979
30
0
11
-315.57580661617777
21
-89.138073245787979
31
0
0
LINE
5
158
100
AcDbEntity
8
0
100
AcDbLine
10
-304.16291278573766
20
-88.809414335610484
30
0
11
-304.16291278573766
21
-89.404726835461616
31
0
0
SPLINE
5
159
100
AcDbEntity
8
0
100
AcDbSpline
70
0
71
3
72
8
73
4
74
0
42
0.000000001
43
0.0000000001
44
0.0000000001
40
15
40
15
40
15
40
15
40
16
40
16
40
16
40
16
10
-330.63160756419444
20
-86.404393177357534
30
0
10
-330.75838707805167
20
-86.448490399568726
30
0
10
-330.82177683498014
20
-86.52841661482654
30
0
10
-330.82177683498014
20
-86.644171823130932
30
0
0
LINE
5
160
100
AcDbEntity
8
0
100
AcDbLine
10
-328.15011454240926
20
-87.280825468805162
30
0
11
-329.47405548115051
21
-87.280825468805162
31
0
0
SPLINE
5
161
100
AcDbEntity
8
0
100
AcDbSpline
70
0
71
3
72
11
73
7
74
0
42
0.000000001
43
0.0000000001
44
0.0000000001
40
7
40
7
40
7
40
7
40
8
40
8
40
8
40
9
40
9
40
9
40
9
10
-331.4666987098189
20
-85.726398385860421
30
0
10
-331.4666987098189
20
-85.660252552543582
30
0
10
-331.44327206051918
20
-85.627179635885184
30
0
10
-331.39641876191973
20
-85.627179635885184
30
0
10
-331.38815053275522
20
-85.627179635885184
30
0
10
-331.36747995984365
20
-85.63544786504977
30
0
10
-331.33440704318525
20
-85.651984323379011
30
0
0
LINE
5
162
100
AcDbEntity
8
0
100
AcDbLine
10
-328.15011454240874
20
-85.92798512703709
30
0
11
-328.15011454302913
21
-85.62778018905631
31
0
0
SPLINE
5
163
100
AcDbEntity
8
0
100
AcDbSpline
70
0
71
3
72
12
73
8
74
0
42
0.000000001
43
0.0000000001
44
0.0000000001
40
21
40
21
40
21
40
21
40
22
40
22
40
23
40
23
40
24
40
24
40
24
40
24
10
-339.73492787441847
20
-83.75855984468572
30
0
10
-339.54200252724456
20
-83.990070261294449
30
0
10
-339.29808976688884
20
-84.236739098038385
30
0
10
-338.70828941981409
20
-84.760393611796289
30
0
10
-338.51122995805781
20
-84.92369113779715
30
0
10
-338.31279245810748
20
-85.053226728042546
30
0
10
-338.26318308311977
20
-85.089744740186219
30
0
10
-338.26318308311977
20
-85.098012969350791
30
0
0
LINE
5
164
100
AcDbEntity
8
0
100
AcDbLine
10
-323.79378204507049
20
-89.571124947399241
30
0
11
-324.12037709707215
21
-89.571124947399241
31
0
0
SPLINE
5
165
100
AcDbEntity
8
0
100
AcDbSpline
70
0
71
3
72
14
73
10
74
0
42
0.000000001
43
0.0000000001
44
0.0000000001
40
32
40
32
40
32
40
32
40
33
40
33
40
34
40
34
40
35
40
35
40
36
40
36
40
36
40
36
10
-301.47160419266049
20
-89.491543241689953
30
0
10
-301.67417580719319
20
-89.537018502095265
30
0
10
-301.86951272120689
20
-89.559756132297892
30
0
10
-302.24571714819609
20
-89.559756132297892
30
0
10
-302.47102639293144
20
-89.504979114082417
30
0
10
-302.9960589448836
20
-89.285871041220517
30
0
10
-303.28337990835337
20
-89.156679960523618
30
0
10
-303.90763121028067
20
-88.859023710598066
30
0
10
-304.06782815034484
20
-88.784609648116671
30
0
10
-304.07609637950929
20
-88.784609648116671
30
0
0
SPLINE
5
166
100
AcDbEntity
8
0
100
AcDbSpline
70
0
71
3
72
20
73
16
74
0
42
0.000000001
43
0.0000000001
44
0.0000000001
40
24
40
24
40
24
40
24
40
25
40
25
40
26
40
26
40
27
40
27
40
28
40
28
40
29
40
29
40
30
40
30
40
31
40
31
40
31
40
31
10
-325.33994089885061
20
-86.532550729408854
30
0
10
-325.36474558634438
20
-86.480185278033005
30
0
10
-325.39092831203226
20
-86.421618654783856
30
0
10
-325.44604983979639
20
-86.292083064538403
30
0
10
-325.47843373735765
20
-86.229382326706911
30
0
10
-325.55284779983901
20
-86.108114965626044
30
0
10
-325.59556698385614
20
-86.053682456959137
30
0
10
-325.69202965744319
20
-85.957219783372096
30
0
10
-325.77264489179805
20
-85.924835885810751
30
0
10
-325.99864315563036
20
-85.89176296915241
30
0
10
-326.05927683617085
20
-85.876604549017301
30
0
10
-326.07581329449999
20
-85.849043785135279
30
0
10
-326.07994740908225
20
-85.826995174029733
30
0
10
-326.07994740908225
20
-85.766361493489285
30
0
10
-326.06478898894716
20
-85.747068958771834
30
0
10
-326.03447214867697
20
-85.73880072960732
30
0
0
SPLINE
5
167
100
AcDbEntity
8
0
100
AcDbSpline
70
0
71
3
72
8
73
4
74
0
42
0.000000001
43
0.0000000001
44
0.0000000001
40
17
40
17
40
17
40
17
40
18
40
18
40
18
40
18
10
-322.01197866009926
20
-85.928970000393079
30
0
10
-322.03953942398124
20
-85.931726076781274
30
0
10
-322.06296607328085
20
-85.935860191363602
30
0
10
-322.08225860799837
20
-85.941372344139978
30
0
0
SPLINE
5
168
100
AcDbEntity
8
0
100
AcDbSpline
70
0
71
3
72
14
73
10
74
0
42
0.000000001
43
0.0000000001
44
0.0000000001
40
21
40
21
40
21
40
21
40
22
40
22
40
23
40
23
40
24
40
24
40
25
40
25
40
25
40
25
10
-332.2935216262789
20
-89.459503853677106
30
0
10
-332.32108239016094
20
-89.453991700900701
30
0
10
-332.33486277210199
20
-89.435388185280402
30
0
10
-332.33486277210199
20
-89.371998428351787
30
0
10
-332.32177140925791
20
-89.350638836343208
30
0
10
-332.26940595788221
20
-89.328590225237633
30
0
10
-332.21083933463285
20
-89.316876900587786
30
0
10
-332.02893829301172
20
-89.292072213093974
30
0
10
-331.93109758123052
20
-89.272090659279556
30
0
10
-331.82636667847908
20
-89.244529895397505
30
0
0
LINE
5
169
100
AcDbEntity
8
0
100
AcDbLine
10
-326.03447214867697
20
-85.73880072960732
30
0
11
-324.46764272198544
21
-85.73880072960732
31
0
0
SPLINE
5
170
100
AcDbEntity
8
0
100
AcDbSpline
70
0
71
3
72
16
73
12
74
0
42
0.000000001
43
0.0000000001
44
0.0000000001
40
0
40
0
40
0
40
0
40
1
40
1
40
1
40
2
40
2
40
3
40
3
40
3
40
4
40
4
40
4
40
4
10
-332.95911407402912
20
-86.301040312800041
30
0
10
-333.02250383095776
20
-86.171504722554658
30
0
10
-333.05419870942211
20
-86.075042048967703
30
0
10
-333.05419870942211
20
-86.011652292039074
30
0
10
-333.05419870942211
20
-85.959286840663296
30
0
10
-332.95429094034972
20
-85.894519045540605
30
0
10
-332.5546598640608
20
-85.740178767801396
30
0
10
-332.40652075819514
20
-85.701593698366594
30
0
10
-332.31005808460816
20
-85.701593698366594
30
0
10
-332.13918134853969
20
-85.701593698366594
30
0
10
-331.922829352066
20
-85.884872778181887
30
0
10
-331.66100209518709
20
-86.251430937812458
30
0
0
LINE
5
171
100
AcDbEntity
8
0
100
AcDbLine
10
-306.04806903526639
20
-88.654385038774208
30
0
11
-305.68840106660627
21
-88.679189726268021
31
0
0
LINE
5
172
100
AcDbEntity
8
0
100
AcDbLine
10
-329.4575190228212
20
-88.595473905976462
30
0
11
-329.43684844990969
21
-88.595473905976462
31
0
0
LINE
5
173
100
AcDbEntity
8
0
100
AcDbLine
10
-316.16453931921745
20
-89.018645037798464
30
0
11
-316.16453931921745
21
-89.018645037798464
31
0
0
SPLINE
5
174
100
AcDbEntity
8
0
100
AcDbSpline
70
0
71
3
72
8
73
4
74
0
42
0.000000001
43
0.0000000001
44
0.0000000001
40
10
40
10
40
10
40
10
40
11
40
11
40
11
40
11
10
-344.39960886433573
20
-89.42643093701875
30
0
10
-344.39960886433573
20
-89.448479548124297
30
0
10
-344.41063316988851
20
-89.459503853677106
30
0
10
-344.43268178099402
20
-89.459503853677106
30
0
0
SPLINE
5
175
100
AcDbEntity
8
0
100
AcDbSpline
70
0
71
3
72
10
73
6
74
0
42
0.000000001
43
0.0000000001
44
0.0000000001
40
15
40
15
40
15
40
15
40
16
40
16
40
17
40
17
40
17
40
17
10
-321.93756459761795
20
-85.73880072960732
30
0
10
-321.8714187643011
20
-85.73880072960732
30
0
10
-321.83834584764264
20
-85.767739531683432
30
0
10
-321.83834584764264
20
-85.883494739987739
30
0
10
-321.89622345179487
20
-85.917945694840299
30
0
10
-322.01197866009926
20
-85.928970000393079
30
0
0
SPLINE
5
176
100
AcDbEntity
8
0
100
AcDbSpline
70
0
71
3
72
8
73
4
74
0
42
0.000000001
43
0.0000000001
44
0.0000000001
40
1
40
1
40
1
40
1
40
2
40
2
40
2
40
2
10
-345.35458933284696
20
-84.556443959069583
30
0
10
-345.41797908977566
20
-84.506834584081929
30
0
10
-345.44829593004579
20
-84.484785972976354
30
0
10
-345.44553985365752
20
-84.490298125752759
30
0
0
LINE
5
177
100
AcDbEntity
8
0
100
AcDbLine
10
-344.43268178099402
20
-89.459503853677106
30
0
11
-346.92141875953865
21
-89.459503853677106
31
0
0
LINE
5
178
100
AcDbEntity
8
0
100
AcDbLine
10
-345.44553985365752
20
-84.490298125752759
30
0
11
-345.44553985365752
21
-88.893130155902043
31
0
0
SPLINE
5
179
100
AcDbEntity
8
0
100
AcDbSpline
70
0
71
3
72
8
73
4
74
0
42
0.000000001
43
0.0000000001
44
0.0000000001
40
16
40
16
40
16
40
16
40
17
40
17
40
17
40
17
10
-346.09872995766091
20
-89.174249947498438
30
0
10
-346.06290096461436
20
-89.152201336392807
30
0
10
-346.04498646809105
20
-89.054360624611775
30
0
10
-346.04498646809105
20
-88.880727812155129
30
0
0
LINE
5
180
100
AcDbEntity
8
0
100
AcDbLine
10
-338.43268178099407
20
-89.459503853677106
30
0
11
-340.92141875953865
21
-89.459503853677106
31
0
0
LINE
5
181
100
AcDbEntity
8
0
100
AcDbLine
10
-301.47160419266049
20
-88.034267851429291
30
0
11
-301.47160419266049
21
-83.941494414952444
31
0
0
LWPOLYLINE
5
182
100
AcDbEntity
8
0
100
AcDbPolyline
90
4
70
1
43
0.0
10
-306.8914284100556
20
-85.808047148860851
10
-306.8914284100556
20
-86.657607695523495
10
-311.49889911202871
20
-86.65760769552341
10
-311.49889911202871
20
-85.808047148860851
0
LWPOLYLINE
5
183
100
AcDbEntity
8
0
100
AcDbPolyline
90
20
70
1
43
0.0
10
-323.82265409196629
20
7.6164213562372396
10
-324.62460224514251
20
2.0027842840018972
42
0.035489151692922452
10
-324.6386729540169
20
1.8047943852696957
10
-324.63867295401684
20
-7.5957106781186612
42
-0.41421356237331808
10
-325.1386729540169
20
-8.0957106781186248
10
-336.76132704598302
20
-8.0957106781186088
42
-0.41421356237337142
10
-337.26132704598319
20
-7.5957106781186621
10
-337.26132704598308
20
1.8047943852696913
42
0.035489151692922452
10
-337.27539775485747
20
2.0027842840018928
10
-338.07734590803375
20
7.6164213562372467
42
0.3732377824525322
10
-339.06729540169493
20
8.474999999999941
10
-353.47500000000002
20
8.4750000000000032
42
0.41421356237307455
10
-355.47500000000008
20
6.474999999999973
10
-355.47500000000008
20
-101.72500000000008
42
0.41421356237308204
10
-353.47500000000002
20
-103.72500000000002
10
-60.775000000000013
20
-103.72500000000002
42
0.4142135623730937
10
-58.775000000000048
20
-101.72500000000008
10
-58.774999999999991
20
6.474999999999973
42
0.41421356237309598
10
-60.775000000000006
20
8.4750000000000014
10
-322.83270459830504
20
8.4749999999998735
42
0.37323778245257921
0
LINE
5
184
100
AcDbEntity
8
0
100
AcDbLine
10
-344.34586537476576
20
-85.205499948490626
30
0
11
-344.37067006225959
21
-85.201365833908298
31
0
0
SPLINE
5
185
100
AcDbEntity
8
0
100
AcDbSpline
70
0
71
3
72
12
73
8
74
0
42
0.000000001
43
0.0000000001
44
0.0000000001
40
27
40
27
40
27
40
27
40
28
40
28
40
29
40
29
40
30
40
30
40
30
40
30
10
-331.4666987098189
20
-86.962498645968068
30
0
10
-331.4666987098189
20
-86.832963055722615
30
0
10
-331.53766767681509
20
-86.687580026245129
30
0
10
-331.82154354479962
20
-86.365119088825679
30
0
10
-331.95728030691845
20
-86.284503854470884
30
0
10
-332.21635148740927
20
-86.284503854470884
30
0
10
-332.39549645264225
20
-86.336869305846648
30
0
10
-332.62425079286288
20
-86.441600208598274
30
0
0
LINE
5
186
100
AcDbEntity
8
0
100
AcDbLine
10
-323.77724558674123
20
-85.73880072960732
30
0
11
-321.93756459761795
21
-85.73880072960732
31
0
0
SPLINE
5
187
100
AcDbEntity
8
0
100
AcDbSpline
70
0
71
3
72
10
73
6
74
0
42
0.000000001
43
0.0000000001
44
0.0000000001
40
18
40
18
40
18
40
18
40
19
40
19
40
20
40
20
40
20
40
20
10
-340.04498646809105
20
-83.837108021749373
30
0
10
-340.04498646809105
20
-83.80679118147917
30
0
10
-340.0408523535088
20
-83.786120608567657
30
0
10
-340.02431589517948
20
-83.764071997462111
30
0
10
-340.00226728407392
20
-83.75855984468572
30
0
10
-339.96643829102732
20
-83.75855984468572
30
0
0
LINE
5
188
100
AcDbEntity
8
0
100
AcDbLine
10
-338.39960886433568
20
-89.3272121870435
30
0
11
-338.39960886433568
21
-89.42643093701875
31
0
0
SPLINE
5
189
100
AcDbEntity
8
0
100
AcDbSpline
70
0
71
3
72
11
73
7
74
0
42
0.000000001
43
0.0000000001
44
0.0000000001
40
14
40
14
40
14
40
14
40
15
40
15
40
15
40
16
40
16
40
16
40
16
10
-340.95449167619699
20
-89.3272121870435
30
0
10
-340.95449167619699
20
-89.305163575937883
30
0
10
-340.94346737064421
20
-89.294139270385088
30
0
10
-340.92141875953865
20
-89.294139270385088
30
0
10
-340.50800730130857
20
-89.294139270385088
30
0
10
-340.23377770068282
20
-89.254176162756224
30
0
10
-340.09872995766091
20
-89.174249947498438
30
0
0
SPLINE
5
190
100
AcDbEntity
8
0
100
AcDbSpline
70
0
71
3
72
8
73
4
74
0
42
0.000000001
43
0.0000000001
44
0.0000000001
40
20
40
20
40
20
40
20
40
21
40
21
40
21
40
21
10
-323.70283152425992
20
-89.442967395347921
30
0
10
-323.73590444091826
20
-89.528405763382111
30
0
10
-323.76622128118845
20
-89.571124947399241
30
0
10
-323.79378204507049
20
-89.571124947399241
30
0
0
SPLINE
5
191
100
AcDbEntity
8
0
100
AcDbSpline
70
0
71
3
72
8
73
4
74
0
42
0.000000001
43
0.0000000001
44
0.0000000001
40
12
40
12
40
12
40
12
40
13
40
13
40
13
40
13
10
-346.92141875953865
20
-89.459503853677106
30
0
10
-346.94346737064416
20
-89.459503853677106
30
0
10
-346.95449167619694
20
-89.448479548124297
30
0
10
-346.95449167619694
20
-89.42643093701875
30
0
0
LINE
5
192
100
AcDbEntity
8
0
100
AcDbLine
10
-345.96643829102726
20
-83.75855984468572
30
0
11
-345.73492787441853
21
-83.75855984468572
31
0
0
SPLINE
5
193
100
AcDbEntity
8
0
100
AcDbSpline
70
0
71
3
72
8
73
4
74
0
42
0.000000001
43
0.0000000001
44
0.0000000001
40
25
40
25
40
25
40
25
40
26
40
26
40
26
40
26
10
-331.82636667847908
20
-89.244529895397505
30
0
10
-331.58658803270561
20
-89.1756279856925
30
0
10
-331.4666987098189
20
-89.037824166282533
30
0
10
-331.4666987098189
20
-88.831118437167547
30
0
0
LINE
5
194
100
AcDbEntity
8
0
100
AcDbLine
10
-346.95449167619694
20
-89.42643093701875
30
0
11
-346.95449167619694
21
-89.3272121870435
31
0
0
LINE
5
195
100
AcDbEntity
8
0
100
AcDbLine
10
-324.21132761788283
20
-89.451235624512506
30
0
11
-325.33994089885061
21
-86.532550729408854
31
0
0
SPLINE
5
196
100
AcDbEntity
8
0
100
AcDbSpline
70
0
71
3
72
12
73
8
74
0
42
0.000000001
43
0.0000000001
44
0.0000000001
40
21
40
21
40
21
40
21
40
22
40
22
40
23
40
23
40
24
40
24
40
24
40
24
10
-345.73492787441853
20
-83.75855984468572
30
0
10
-345.54200252724456
20
-83.990070261294449
30
0
10
-345.29808976688884
20
-84.236739098038385
30
0
10
-344.70828941981409
20
-84.760393611796289
30
0
10
-344.51122995805781
20
-84.92369113779715
30
0
10
-344.31279245810748
20
-85.053226728042546
30
0
10
-344.26318308311971
20
-85.089744740186219
30
0
10
-344.26318308311971
20
-85.098012969350791
30
0
0
SPLINE
5
197
100
AcDbEntity
8
0
100
AcDbSpline
70
0
71
3
72
8
73
4
74
0
42
0.000000001
43
0.0000000001
44
0.0000000001
40
8
40
8
40
8
40
8
40
9
40
9
40
9
40
9
10
-344.43268178099402
20
-89.294139270385088
30
0
10
-344.41063316988851
20
-89.294139270385088
30
0
10
-344.39960886433573
20
-89.305163575937883
30
0
10
-344.39960886433573
20
-89.3272121870435
30
0
0
SPLINE
5
198
100
AcDbEntity
8
0
100
AcDbSpline
70
0
71
3
72
29
73
25
74
0
42
0.000000001
43
0.0000000001
44
0.0000000001
40
0
40
0
40
0
40
0
40
1
40
1
40
1
40
2
40
2
40
2
40
3
40
3
40
3
40
4
40
4
40
4
40
5
40
5
40
5
40
6
40
6
40
6
40
7
40
7
40
7
40
8
40
8
40
8
40
8
10
-342.25079701653959
20
-89.418162707854094
30
0
10
-342.35690595748531
20
-89.520137534217511
30
0
10
-342.48299645224535
20
-89.571124947399241
30
0
10
-342.62906850081998
20
-89.571124947399241
30
0
10
-342.77789662578289
20
-89.571124947399241
30
0
10
-342.90467613963995
20
-89.520826553314535
30
0
10
-343.00940704239162
20
-89.420229765145308
30
0
10
-343.11413794514323
20
-89.319632976975981
30
0
10
-343.16650339651909
20
-89.193542482215804
30
0
10
-343.16650339651909
20
-89.041958280864861
30
0
10
-343.16650339651909
20
-88.890374079513862
30
0
10
-343.11344892604609
20
-88.76152750836556
30
0
10
-343.00733998510049
20
-88.655418567419858
30
0
10
-342.90123104415471
20
-88.549309626474141
30
0
10
-342.77514054939456
20
-88.49625515600124
30
0
10
-342.62906850081998
20
-88.49625515600124
30
0
10
-342.48024037585719
20
-88.49625515600124
30
0
10
-342.35346086200002
20
-88.550687664668203
30
0
10
-342.24872995924841
20
-88.659552682002086
30
0
10
-342.1439990564968
20
-88.76841769933597
30
0
10
-342.09163360512093
20
-88.89657525138729
30
0
10
-342.09163360512093
20
-89.044025338155976
30
0
10
-342.09163360512093
20
-89.191475424924676
30
0
10
-342.14468807559393
20
-89.31618788149072
30
0
10
-342.25079701653959
20
-89.418162707854094
30
0
0
SPLINE
5
199
100
AcDbEntity
8
0
100
AcDbSpline
70
0
71
3
72
8
73
4
74
0
42
0.000000001
43
0.0000000001
44
0.0000000001
40
8
40
8
40
8
40
8
40
8.5453911443967581
40
8.5453911443967581
40
8.5453911443967581
40
8.5453911443967581
10
-313.91115497080057
20
-89.348916288600577
30
0
10
-314.2425972648175
20
-89.490962986036337
30
0
10
-314.61093051639261
20
-89.568450507745183
30
0
10
-315.01615472552589
20
-89.58137885372723
30
0
0
SPLINE
5
200
100
AcDbEntity
8
0
100
AcDbSpline
70
0
71
3
72
16
73
12
74
0
42
0.000000001
43
0.0000000001
44
0.0000000001
40
3
40
3
40
3
40
3
40
4
40
4
40
5
40
5
40
6
40
6
40
7
40
7
40
8
40
8
40
8
40
8
10
-345.44553985365752
20
-88.893130155902043
30
0
10
-345.44553985365752
20
-88.973056371159842
30
0
10
-345.44140573907526
20
-89.037824166282533
30
0
10
-345.42486928074601
20
-89.137042916257784
30
0
10
-345.39799753596105
20
-89.174249947498438
30
0
10
-345.30704701515054
20
-89.223859322486021
30
0
10
-345.22780981898973
20
-89.24177381900931
30
0
10
-345.00181155515747
20
-89.263822430114885
30
0
10
-344.8943245760176
20
-89.271401640182461
30
0
10
-344.69037492329079
20
-89.27966986934706
30
0
10
-344.57048560040403
20
-89.285871041220517
30
0
10
-344.43268178099402
20
-89.294139270385088
30
0
0
LINE
5
201
100
AcDbEntity
8
0
100
AcDbLine
10
-344.39960886433573
20
-89.3272121870435
30
0
11
-344.39960886433573
21
-89.42643093701875
31
0
0
CIRCLE
5
202
100
AcDbEntity
8
0
100
AcDbCircle
10
-254.90833333333339
20
-99.725000000000037
30
0
40
1.7500000000000044
210
0
220
0
230
1
0
SPLINE
5
203
100
AcDbEntity
8
0
100
AcDbSpline
70
0
71
3
72
10
73
6
74
0
42
0.000000001
43
0.0000000001
44
0.0000000001
40
18
40
18
40
18
40
18
40
19
40
19
40
20
40
20
40
20
40
20
10
-346.04498646809105
20
-83.837108021749373
30
0
10
-346.04498646809105
20
-83.80679118147917
30
0
10
-346.04085235350874
20
-83.786120608567657
30
0
10
-346.02431589517954
20
-83.764071997462111
30
0
10
-346.00226728407392
20
-83.75855984468572
30
0
10
-345.96643829102726
20
-83.75855984468572
30
0
0
SPLINE
5
204
100
AcDbEntity
8
0
100
AcDbSpline
70
0
71
3
72
8
73
4
74
0
42
0.000000001
43
0.0000000001
44
0.0000000001
40
0
40
0
40
0
40
0
40
1
40
1
40
1
40
1
10
-344.37067006225959
20
-85.201365833908298
30
0
10
-344.66832631218523
20
-85.05804986172194
30
0
10
-344.99629940238088
20
-84.843075903442298
30
0
10
-345.35458933284696
20
-84.556443959069583
30
0
0
CIRCLE
5
205
100
AcDbEntity
8
0
100
AcDbCircle
10
-63.774999999999984
20
-99.725000000000037
30
0
40
1.750000000000006
210
0
220
0
230
1
0
LINE
5
206
100
AcDbEntity
8
0
100
AcDbLine
10
-301.47160419266049
20
-92.88978542834036
30
0
11
-301.47160419266049
21
-89.491543241689953
31
0
0
LINE
5
207
100
AcDbEntity
8
0
100
AcDbLine
10
-346.04498646809105
20
-88.880727812155129
30
0
11
-346.04498646809105
21
-83.837108021749373
31
0
0
CIRCLE
5
208
100
AcDbEntity
8
0
100
AcDbCircle
10
-159.34166666666664
20
4.4749999999999801
30
0
40
2.999999999999972
210
0
220
0
230
1
0
CIRCLE
5
209
100
AcDbEntity
8
0
100
AcDbCircle
10
-254.90833333333327
20
4.4749999999999801
30
0
40
2.999999999999972
210
0
220
0
230
1
0
SPLINE
5
210
100
AcDbEntity
8
0
100
AcDbSpline
70
0
71
3
72
8
73
4
74
0
42
0.000000001
43
0.0000000001
44
0.0000000001
40
12
40
12
40
12
40
12
40
13
40
13
40
13
40
13
10
-340.92141875953865
20
-89.459503853677106
30
0
10
-340.94346737064421
20
-89.459503853677106
30
0
10
-340.95449167619699
20
-89.448479548124297
30
0
10
-340.95449167619699
20
-89.42643093701875
30
0
0
SPLINE
5
211
100
AcDbEntity
8
0
100
AcDbSpline
70
0
71
3
72
8
73
4
74
0
42
0.000000001
43
0.0000000001
44
0.0000000001
40
10
40
10
40
10
40
10
40
11
40
11
40
11
40
11
10
-338.39960886433568
20
-89.42643093701875
30
0
10
-338.39960886433568
20
-89.448479548124297
30
0
10
-338.41063316988851
20
-89.459503853677106
30
0
10
-338.43268178099407
20
-89.459503853677106
30
0
0
SPLINE
5
212
100
AcDbEntity
8
0
100
AcDbSpline
70
0
71
3
72
11
73
7
74
0
42
0.000000001
43
0.0000000001
44
0.0000000001
40
14
40
14
40
14
40
14
40
15
40
15
40
15
40
16
40
16
40
16
40
16
10
-346.95449167619694
20
-89.3272121870435
30
0
10
-346.95449167619694
20
-89.305163575937883
30
0
10
-346.94346737064416
20
-89.294139270385088
30
0
10
-346.92141875953865
20
-89.294139270385088
30
0
10
-346.50800730130862
20
-89.294139270385088
30
0
10
-346.23377770068282
20
-89.254176162756224
30
0
10
-346.09872995766091
20
-89.174249947498438
30
0
0
SPLINE
5
213
100
AcDbEntity
8
0
100
AcDbSpline
70
0
71
3
72
8
73
4
74
0
42
0.000000001
43
0.0000000001
44
0.0000000001
40
24
40
24
40
24
40
24
40
25
40
25
40
25
40
25
10
-344.26318308311971
20
-85.098012969350791
30
0
10
-344.29901207616638
20
-85.169670955444033
30
0
10
-344.32657284004841
20
-85.205499948490626
30
0
10
-344.34586537476576
20
-85.205499948490626
30
0
0
LINE
5
214
100
AcDbEntity
8
0
100
AcDbLine
10
-324.05423126375536
20
-88.554132760153479
30
0
11
-323.21500600354852
21
-86.259699166977057
31
0
0
LINE
5
215
100
AcDbEntity
8
0
100
AcDbLine
10
-304.34274677006772
20
-89.522549101057223
30
0
11
-305.99225848840535
21
-88.840420194977696
31
0
0
LINE
5
216
100
AcDbEntity
8
0
100
AcDbLine
10
-322.60729115995042
20
-86.478807239838943
30
0
11
-323.70283152425992
21
-89.442967395347921
31
0
0
SPLINE
5
217
100
AcDbEntity
8
0
100
AcDbSpline
70
0
71
3
72
8
73
4
74
0
42
0.000000001
43
0.0000000001
44
0.0000000001
40
13
40
13
40
13
40
13
40
14
40
14
40
14
40
14
10
-329.43684844990969
20
-88.595473905976462
30
0
10
-329.42858022074512
20
-88.595473905976462
30
0
10
-329.42169002977465
20
-88.598229982364671
30
0
10
-329.41617787699818
20
-88.603742135141061
30
0
0
SPLINE
5
218
100
AcDbEntity
8
0
100
AcDbSpline
70
0
71
3
72
10
73
6
74
0
42
0.000000001
43
0.0000000001
44
0.0000000001
40
8
40
8
40
8
40
8
40
9
40
9
40
10
40
10
40
10
40
10
10
-305.13029559799577
20
-83.941494414952444
30
0
10
-305.13029559799577
20
-83.883616810800262
30
0
10
-305.12719501205908
20
-83.847443308205087
30
0
10
-305.11479266831225
20
-83.818504506129017
30
0
10
-305.09308856675517
20
-83.811269805609982
30
0
10
-305.05588153551452
20
-83.811269805609982
30
0
0
SPLINE
5
219
100
AcDbEntity
8
0
100
AcDbSpline
70
0
71
3
72
8
73
4
74
0
42
0.000000001
43
0.0000000001
44
0.0000000001
40
1
40
1
40
1
40
1
40
2
40
2
40
2
40
2
10
-339.35458933284684
20
-84.556443959069583
30
0
10
-339.4179790897756
20
-84.506834584081929
30
0
10
-339.44829593004567
20
-84.484785972976354
30
0
10
-339.44553985365752
20
-84.490298125752759
30
0
0
SPLINE
5
220
100
AcDbEntity
8
0
100
AcDbSpline
70
0
71
3
72
8
73
4
74
0
42
0.000000001
43
0.0000000001
44
0.0000000001
40
0
40
0
40
0
40
0
40
0.89914753768958489
40
0.89914753768958489
40
0.89914753768958489
40
0.89914753768958489
10
-313.91735614267407
20
-84.803457305362002
30
0
10
-314.21844763739739
20
-84.480062736955389
30
0
10
-314.5847138319225
20
-84.302057883491401
30
0
10
-315.0161547262494
20
-84.269442744969737
30
0
0
SPLINE
5
221
100
AcDbEntity
8
0
100
AcDbSpline
70
0
71
3
72
8
73
4
74
0
42
0.000000001
43
0.0000000001
44
0.0000000001
40
31
40
31
40
31
40
31
40
32
40
32
40
32
40
32
10
-332.76894480324336
20
-86.495343698168199
30
0
10
-332.83233456017194
20
-86.495343698168199
30
0
10
-332.89572431710047
20
-86.430575903045508
30
0
10
-332.95911407402912
20
-86.301040312800041
30
0
0
LINE
5
222
100
AcDbEntity
8
0
100
AcDbLine
10
-300.57863544288375
20
-93.361074490722586
30
0
11
-301.41579364579945
21
-93.013808865809366
31
0
0
SPLINE
5
223
100
AcDbEntity
8
0
100
AcDbSpline
70
0
71
3
72
10
73
6
74
0
42
0.000000001
43
0.0000000001
44
0.0000000001
40
10
40
10
40
10
40
10
40
11
40
11
40
12
40
12
40
12
40
12
10
-329.54846954363177
20
-88.68642442678707
30
0
10
-329.53468916169084
20
-88.678156197622457
30
0
10
-329.52021976065282
20
-88.660930720196234
30
0
10
-329.48990292038252
20
-88.608565268820385
30
0
10
-329.47405548115051
20
-88.595473905976462
30
0
10
-329.4575190228212
20
-88.595473905976462
30
0
0
LINE
5
224
100
AcDbEntity
8
0
100
AcDbLine
10
-328.15011454240926
20
-86.962498645968068
30
0
11
-328.15011454240926
21
-87.280825468805162
31
0
0
SPLINE
5
225
100
AcDbEntity
8
0
100
AcDbSpline
70
0
71
3
72
29
73
25
74
0
42
0.000000001
43
0.0000000001
44
0.0000000001
40
0
40
0
40
0
40
0
40
1
40
1
40
1
40
2
40
2
40
2
40
3
40
3
40
3
40
4
40
4
40
4
40
5
40
5
40
5
40
6
40
6
40
6
40
7
40
7
40
7
40
8
40
8
40
8
40
8
10
-333.75079701653959
20
-89.418162707854094
30
0
10
-333.85690595748531
20
-89.520137534217511
30
0
10
-333.98299645224535
20
-89.571124947399241
30
0
10
-334.12906850081993
20
-89.571124947399241
30
0
10
-334.27789662578283
20
-89.571124947399241
30
0
10
-334.40467613963995
20
-89.520826553314535
30
0
10
-334.50940704239167
20
-89.420229765145308
30
0
10
-334.61413794514323
20
-89.319632976975981
30
0
10
-334.66650339651892
20
-89.193542482215804
30
0
10
-334.66650339651892
20
-89.041958280864861
30
0
10
-334.66650339651892
20
-88.890374079513862
30
0
10
-334.61344892604609
20
-88.76152750836556
30
0
10
-334.50733998510037
20
-88.655418567419858
30
0
10
-334.40123104415471
20
-88.549309626474141
30
0
10
-334.27514054939456
20
-88.49625515600124
30
0
10
-334.12906850081993
20
-88.49625515600124
30
0
10
-333.98024037585719
20
-88.49625515600124
30
0
10
-333.85346086200002
20
-88.550687664668203
30
0
10
-333.74872995924841
20
-88.659552682002086
30
0
10
-333.64399905649685
20
-88.76841769933597
30
0
10
-333.59163360512093
20
-88.89657525138729
30
0
10
-333.59163360512093
20
-89.044025338155976
30
0
10
-333.59163360512093
20
-89.191475424924676
30
0
10
-333.64468807559382
20
-89.31618788149072
30
0
10
-333.75079701653959
20
-89.418162707854094
30
0
0
SPLINE
5
226
100
AcDbEntity
8
0
100
AcDbSpline
70
0
71
3
72
12
73
8
74
0
42
0.000000001
43
0.0000000001
44
0.0000000001
40
3.2971826663897641
40
3.2971826663897641
40
3.2971826663897641
40
3.2971826663897641
40
4
40
4
40
5
40
5
40
6
40
6
40
6
40
6
10
-327.7359813949252
20
-85.684137547558933
30
0
10
-327.39449728043263
20
-85.77393867469489
30
0
10
-327.11189241876491
20
-85.969926662416555
30
0
10
-326.56983998708483
20
-86.702049427283185
30
0
10
-326.41067657566623
20
-87.178161623344721
30
0
10
-326.41067657566623
20
-88.222714574472448
30
0
10
-326.55674862424087
20
-88.65886366290502
30
0
10
-326.84889272139009
20
-89.008885364206449
30
0
0
LINE
5
227
100
AcDbEntity
8
0
100
AcDbLine
10
-304.16291278573766
20
-83.941494414952444
30
0
11
-304.16291278573766
21
-88.375332304469012
31
0
0
LINE
5
228
100
AcDbEntity
8
0
100
AcDbLine
10
-330.82177683498014
20
-86.644171823130932
30
0
11
-330.82177683498014
21
-88.831118437167547
31
0
0
SPLINE
5
229
100
AcDbEntity
8
0
100
AcDbSpline
70
0
71
3
72
16
73
12
74
0
42
0.000000001
43
0.0000000001
44
0.0000000001
40
10
40
10
40
10
40
10
40
11
40
11
40
12
40
12
40
13
40
13
40
14
40
14
40
15
40
15
40
15
40
15
10
-330.28020782469889
20
-86.148078073254979
30
0
10
-330.23886667887587
20
-86.170126684360625
30
0
10
-330.21819610596447
20
-86.196998429145566
30
0
10
-330.21819610596447
20
-86.26038818607411
30
0
10
-330.22301923964369
20
-86.281058758985637
30
0
10
-330.24231177436121
20
-86.300351293702988
30
0
10
-330.26573842366082
20
-86.310686580158773
30
0
10
-330.34015248614224
20
-86.332735191264348
30
0
10
-330.39045088022692
20
-86.344448515914266
30
0
10
-330.51723039408409
20
-86.369253203407993
30
0
10
-330.57648603643037
20
-86.385100642640197
30
0
10
-330.63160756419444
20
-86.404393177357534
30
0
0
SPLINE
5
230
100
AcDbEntity
8
0
100
AcDbSpline
70
0
71
3
72
10
73
6
74
0
42
0.000000001
43
0.0000000001
44
0.0000000001
40
21
40
21
40
21
40
21
40
22
40
22
40
23
40
23
40
23
40
23
10
-301.47160419266049
20
-83.941494414952444
30
0
10
-301.47160419266049
20
-83.883616810800262
30
0
10
-301.46850360672374
20
-83.847443308205087
30
0
10
-301.45610126297686
20
-83.818504506129017
30
0
10
-301.43439716141978
20
-83.811269805609982
30
0
10
-301.39719013017907
20
-83.811269805609982
30
0
0
SPLINE
5
231
100
AcDbEntity
8
0
100
AcDbSpline
70
0
71
3
72
8
73
4
74
0
42
0.000000001
43
0.0000000001
44
0.0000000001
40
7
40
7
40
7
40
7
40
8
40
8
40
8
40
8
10
-324.21959584704729
20
-88.541730416406551
30
0
10
-324.16447431928327
20
-88.690558541369299
30
0
10
-324.10935279151937
20
-88.694692655951656
30
0
10
-324.05423126375536
20
-88.554132760153479
30
0
0
SPLINE
5
232
100
AcDbEntity
8
0
100
AcDbSpline
70
0
71
3
72
8
73
4
74
0
42
0.000000001
43
0.0000000001
44
0.0000000001
40
17
40
17
40
17
40
17
40
18
40
18
40
18
40
18
10
-319.47360614128507
20
-88.958242460573288
30
0
10
-319.26690041217
20
-88.834219023104311
30
0
10
-319.08499937054887
20
-88.685390898141478
30
0
10
-318.92790301642145
20
-88.511758085684832
30
0
0
SPLINE
5
233
100
AcDbEntity
8
0
100
AcDbSpline
70
0
71
3
72
10
73
6
74
0
42
0.000000001
43
0.0000000001
44
0.0000000001
40
0
40
0
40
0
40
0
40
1
40
1
40
2
40
2
40
2
40
2
10
-318.0473366103916
20
-83.631435821279965
30
0
10
-318.0183978083154
20
-83.771995717078198
30
0
10
-317.96155373280885
20
-84.001439076395812
30
0
10
-317.79205503493461
20
-84.638092722070013
30
0
10
-317.74347918859257
20
-84.86133490951417
30
0
10
-317.73107684484563
20
-84.989492461565419
30
0
0
LINE
5
234
100
AcDbEntity
8
0
100
AcDbLine
10
-339.44553985365752
20
-84.490298125752759
30
0
11
-339.44553985365752
21
-88.893130155902043
31
0
0
LINE
5
235
100
AcDbEntity
8
0
100
AcDbLine
10
-340.04498646809105
20
-88.880727812155129
30
0
11
-340.04498646809105
21
-83.837108021749373
31
0
0
LINE
5
236
100
AcDbEntity
8
0
100
AcDbLine
10
-300.50422138040238
20
-83.941494414952444
30
0
11
-300.50422138040238
21
-93.230849881380124
31
0
0
SPLINE
5
237
100
AcDbEntity
8
0
100
AcDbSpline
70
0
71
3
72
16
73
12
74
0
42
0.000000001
43
0.0000000001
44
0.0000000001
40
11
40
11
40
11
40
11
40
12
40
12
40
13
40
13
40
14
40
14
40
15
40
15
40
16
40
16
40
16
40
16
10
-317.56984637613584
20
-88.747402616875988
30
0
10
-317.62772398028807
20
-88.710195585635319
30
0
10
-317.67526629798459
20
-88.684357369495942
30
0
10
-317.74968036046602
20
-88.655418567419858
30
0
10
-317.79412209222573
20
-88.648183866900752
30
0
10
-317.89747495678319
20
-88.648183866900752
30
0
10
-317.94811786041635
20
-88.682290312204799
30
0
10
-318.0473366103916
20
-88.818716093420619
30
0
10
-318.16619240463268
20
-88.942739530889625
30
0
10
-318.542396831622
20
-89.302407499549773
30
0
10
-318.73773374563564
20
-89.460537382322656
30
0
10
-318.94030536016828
20
-89.596963163538575
30
0
0
SPLINE
5
238
100
AcDbEntity
8
0
100
AcDbSpline
70
0
71
3
72
8
73
4
74
0
42
0.000000001
43
0.0000000001
44
0.0000000001
40
37
40
37
40
37
40
37
40
38
40
38
40
38
40
38
10
-304.11950458262362
20
-88.784609648116671
30
0
10
-304.1360410409527
20
-88.784609648116671
30
0
10
-304.15051044199072
20
-88.792877877281299
30
0
10
-304.16291278573766
20
-88.809414335610484
30
0
0
SPLINE
5
239
100
AcDbEntity
8
0
100
AcDbSpline
70
0
71
3
72
8
73
4
74
0
42
0.000000001
43
0.0000000001
44
0.0000000001
40
0
40
0
40
0
40
0
40
1
40
1
40
1
40
1
10
-338.37067006225965
20
-85.201365833908298
30
0
10
-338.66832631218523
20
-85.05804986172194
30
0
10
-338.99629940238094
20
-84.843075903442298
30
0
10
-339.35458933284684
20
-84.556443959069583
30
0
0
LINE
5
240
100
AcDbEntity
8
0
100
AcDbLine
10
-338.34586537476576
20
-85.205499948490626
30
0
11
-338.37067006225965
21
-85.201365833908298
31
0
0
SPLINE
5
241
100
AcDbEntity
8
0
100
AcDbSpline
70
0
71
3
72
8
73
4
74
0
42
0.000000001
43
0.0000000001
44
0.0000000001
40
11
40
11
40
11
40
11
40
12
40
12
40
12
40
12
10
-323.50025990972716
20
-85.912433542063823
30
0
10
-323.62703942358445
20
-85.915189618452089
30
0
10
-323.71523386800675
20
-85.906921389287433
30
0
10
-323.7648432429944
20
-85.887628854570067
30
0
0
SPLINE
5
242
100
AcDbEntity
8
0
100
AcDbSpline
70
0
71
3
72
17
73
13
74
0
42
0.000000001
43
0.0000000001
44
0.0000000001
40
6.4810128242100529
40
6.4810128242100529
40
6.4810128242100529
40
6.4810128242100529
40
7
40
7
40
8
40
8
40
9
40
9
40
9
40
10
40
10
40
11
40
11
40
11
40
11
10
-315.01615472574179
20
-89.046967544697736
30
0
10
-314.82137115916117
20
-88.98143311619306
30
0
10
-314.63493894913535
20
-88.880544611606908
30
0
10
-314.11372658533327
20
-88.481785754963212
30
0
10
-313.84087502290151
20
-88.144855416505763
30
0
10
-313.43573179383606
20
-87.322166614628145
30
0
10
-313.33444598656973
20
-86.87464871109411
30
0
10
-313.33444598656973
20
-86.390957304965056
30
0
10
-313.33444598656973
20
-86.097435169621818
30
0
10
-313.38818947613964
20
-85.805980091569651
30
0
10
-313.60316343441923
20
-85.227204050047703
30
0
10
-313.74372333021745
20
-84.989492461565419
30
0
10
-313.91735614267407
20
-84.803457305362002
30
0
0
SPLINE
5
243
100
AcDbEntity
8
0
100
AcDbSpline
70
0
71
3
72
13
73
9
74
0
42
0.000000001
43
0.0000000001
44
0.0000000001
40
5.1957504562249524
40
5.1957504562249524
40
5.1957504562249524
40
5.1957504562249524
40
6
40
6
40
7
40
7
40
7
40
8
40
8
40
8
40
8
10
-315.01615472553397
20
-83.661375689157197
30
0
10
-314.43225328520225
20
-83.743381884001096
30
0
10
-313.88511957794009
20
-83.993851146726811
30
0
10
-312.74016701536419
20
-84.933681914704366
30
0
10
-312.42287372117266
20
-85.58273790412548
30
0
10
-312.42287372117266
20
-86.359951445597858
30
0
10
-312.42287372117266
20
-87.92264675770717
30
0
10
-312.91896747104863
20
-88.918968372041419
30
0
10
-313.91115497080057
20
-89.348916288600577
30
0
0
SPLINE
5
244
100
AcDbEntity
8
0
100
AcDbSpline
70
0
71
3
72
8
73
4
74
0
42
0.000000001
43
0.0000000001
44
0.0000000001
40
10
40
10
40
10
40
10
40
11
40
11
40
11
40
11
10
-323.1902013160547
20
-86.160480417001892
30
0
10
-323.1902013160547
20
-85.989603680933442
30
0
10
-323.2935541806122
20
-85.906921389287433
30
0
10
-323.50025990972716
20
-85.912433542063823
30
0
0
LINE
5
245
100
AcDbEntity
8
0
100
AcDbLine
10
-301.39719013017907
20
-83.811269805609982
30
0
11
-300.57863544288375
21
-83.811269805609982
31
0
0
SPLINE
5
246
100
AcDbEntity
8
0
100
AcDbSpline
70
0
71
3
72
8
73
4
74
0
42
0.000000001
43
0.0000000001
44
0.0000000001
40
24
40
24
40
24
40
24
40
25
40
25
40
25
40
25
10
-338.26318308311977
20
-85.098012969350791
30
0
10
-338.29901207616638
20
-85.169670955444033
30
0
10
-338.32657284004836
20
-85.205499948490626
30
0
10
-338.34586537476576
20
-85.205499948490626
30
0
0
LINE
5
247
100
AcDbEntity
8
0
100
AcDbLine
10
-330.22233022054661
20
-89.459503853677106
30
0
11
-332.2935216262789
21
-89.459503853677106
31
0
0
CIRCLE
5
248
100
AcDbEntity
8
0
100
AcDbCircle
10
-350.47500000000008
20
4.4749999999999801
30
0
40
2.999999999999972
210
0
220
0
230
1
0
SPLINE
5
249
100
AcDbEntity
8
0
100
AcDbSpline
70
0
71
3
72
8
73
4
74
0
42
0.000000001
43
0.0000000001
44
0.0000000001
40
9
40
9
40
9
40
9
40
10
40
10
40
10
40
10
10
-328.41985626266393
20
-89.492576770335504
30
0
10
-328.85256025561142
20
-89.343748645372756
30
0
10
-329.22876468260063
20
-89.075031197523217
30
0
10
-329.54846954363177
20
-88.68642442678707
30
0
0
SPLINE
5
250
100
AcDbEntity
8
0
100
AcDbSpline
70
0
71
3
72
11
73
7
74
0
42
0.000000001
43
0.0000000001
44
0.0000000001
40
4
40
4
40
4
40
4
40
5
40
5
40
5
40
6
40
6
40
6
40
6
10
-331.66100209518709
20
-86.251430937812458
30
0
10
-331.57005157437641
20
-86.380966528057854
30
0
10
-331.51355200841829
20
-86.445734323180545
30
0
10
-331.49150339731273
20
-86.445734323180545
30
0
10
-331.47496693898358
20
-86.445734323180545
30
0
10
-331.4666987098189
20
-86.429197864851375
30
0
10
-331.4666987098189
20
-86.396124948192963
30
0
0
ENDSEC
0
SECTION
2
OBJECTS
0
DICTIONARY
5
C
100
AcDbDictionary
3
ACAD_GROUP
350
D
3
ACAD_MLINESTYLE
350
17
0
DICTIONARY
5
D
100
AcDbDictionary
0
DICTIONARY
5
1A
330
C
100
AcDbDictionary
0
DICTIONARY
5
17
100
AcDbDictionary
0
ENDSEC
0
EOF
