0
SECTION
2
HEADER
9
$INSUNITS
70
4
9
$ACADVER
1
AC1014
9
$HANDSEED
5
FFFF
0
ENDSEC
0
SECTION
2
TABLES
0
TABLE
2
VPORT
5
8
100
AcDbSymbolTable
0
ENDTAB
0
TABLE
2
LTYPE
5
5
100
AcDbSymbolTable
0
LTYPE
5
14
100
AcDbSymbolTableRecord
100
AcDbLinetypeTableRecord
2
BYBLOCK
70
0
0
LTYPE
5
15
100
AcDbSymbolTableRecord
100
AcDbLinetypeTableRecord
2
BYLAYER
70
0
0
ENDTAB
0
TABLE
2
LAYER
5
2
100
AcDbSymbolTable
70
2
0
LAYER
5
50
100
AcDbSymbolTableRecord
100
AcDbLayerTableRecord
2
0
70
0
6
CONTINUOUS
0
ENDTAB
0
TABLE
2
STYLE
5
3
100
AcDbSymbolTable
70
1
0
STYLE
5
11
100
AcDbSymbolTableRecord
100
AcDbTextStyleTableRecord
2
STANDARD
70
0
0
ENDTAB
0
TABLE
2
VIEW
5
6
100
AcDbSymbolTable
70
0
0
ENDTAB
0
TABLE
2
UCS
5
7
100
AcDbSymbolTable
70
0
0
ENDTAB
0
TABLE
2
APPID
5
9
100
AcDbSymbolTable
70
2
0
APPID
5
12
100
AcDbSymbolTableRecord
100
AcDbRegAppTableRecord
2
ACAD
70
0
0
ENDTAB
0
TABLE
2
DIMSTYLE
5
A
100
AcDbSymbolTable
70
1
0
ENDTAB
0
TABLE
2
BLOCK_RECORD
5
1
100
AcDbSymbolTable
70
1
0
BLOCK_RECORD
5
1F
100
AcDbSymbolTableRecord
100
AcDbBlockTableRecord
2
*MODEL_SPACE
0
BLOCK_RECORD
5
1B
100
AcDbSymbolTableRecord
100
AcDbBlockTableRecord
2
*PAPER_SPACE
0
ENDTAB
0
ENDSEC
0
SECTION
2
BLOCKS
0
BLOCK
5
20
100
AcDbEntity
100
AcDbBlockBegin
2
*MODEL_SPACE
0
ENDBLK
5
21
100
AcDbEntity
100
AcDbBlockEnd
0
BLOCK
5
1C
100
AcDbEntity
100
AcDbBlockBegin
2
*PAPER_SPACE
0
ENDBLK
5
1D
100
AcDbEntity
100
AcDbBlockEnd
0
ENDSEC
0
SECTION
2
ENTITIES
0
LWPOLYLINE
5
100
100
AcDbEntity
8
0
100
AcDbPolyline
90
24
70
1
43
0.0
10
-349.47499999999991
20
230.47499999999997
10
-338.19999999999993
20
230.47499999999997
42
0.41421356237309503
10
-337.19999999999999
20
231.47499999999997
10
-338.07397966911469
20
237.61590123193753
42
0.37338743347353526
10
-339.06400332683131
20
238.47499999999997
10
-353.47499999999997
20
238.47499999999997
42
0.41421356237309503
10
-355.47500000000002
20
236.47499999999997
10
-355.47500000000002
20
128.27499999999992
42
0.41421356237310542
10
-353.47499999999997
20
126.27499999999998
10
-60.775000000000006
20
126.27499999999998
42
0.41421356237309503
10
-58.774999999999977
20
128.27499999999992
10
-58.774999999999977
20
236.47499999999997
42
0.41421356237309503
10
-60.775000000000006
20
238.47499999999997
10
-322.83599667316867
20
238.47499999999997
42
0.37338743347353526
10
-323.82602033088529
20
237.61590123193753
10
-324.69999999999999
20
231.47499999999997
42
0.41421356237309503
10
-323.70000000000005
20
230.47499999999997
10
-64.77499999999992
20
230.47499999999991
42
-0.41421356237309503
10
-63.774999999999977
20
229.47499999999997
10
-63.774999999999977
20
135.27499999999998
42
-0.41421356237311585
10
-64.77499999999992
20
134.27499999999995
10
-349.47499999999991
20
134.27499999999995
42
-0.41421356237315748
10
-350.47500000000002
20
135.27499999999998
10
-350.47500000000002
20
229.47499999999997
42
-0.41421356237314705
0
CIRCLE
5
101
100
AcDbEntity
8
0
100
AcDbCircle
10
-350.47500000000002
20
234.47499999999997
30
0
40
2.9999999999999716
210
0
220
0
230
1
0
CIRCLE
5
102
100
AcDbEntity
8
0
100
AcDbCircle
10
-63.774999999999977
20
130.27499999999998
30
0
40
3.0000000000000409
210
0
220
0
230
1
0
CIRCLE
5
103
100
AcDbEntity
8
0
100
AcDbCircle
10
-159.3416666666667
20
234.47499999999997
30
0
40
2.9999999999999716
210
0
220
0
230
1
0
CIRCLE
5
104
100
AcDbEntity
8
0
100
AcDbCircle
10
-63.774999999999977
20
234.47499999999997
30
0
40
2.9999999999999716
210
0
220
0
230
1
0
CIRCLE
5
105
100
AcDbEntity
8
0
100
AcDbCircle
10
-254.90833333333342
20
130.27499999999998
30
0
40
2.9999999999999813
210
0
220
0
230
1
0
CIRCLE
5
106
100
AcDbEntity
8
0
100
AcDbCircle
10
-159.3416666666667
20
130.27499999999998
30
0
40
2.9999999999999716
210
0
220
0
230
1
0
CIRCLE
5
107
100
AcDbEntity
8
0
100
AcDbCircle
10
-254.90833333333327
20
234.47499999999997
30
0
40
2.9999999999999716
210
0
220
0
230
1
0
CIRCLE
5
108
100
AcDbEntity
8
0
100
AcDbCircle
10
-350.47500000000002
20
130.27499999999998
30
0
40
3.0000000000000382
210
0
220
0
230
1
0
ENDSEC
0
SECTION
2
OBJECTS
0
DICTIONARY
5
C
100
AcDbDictionary
3
ACAD_GROUP
350
D
3
ACAD_MLINESTYLE
350
17
0
DICTIONARY
5
D
100
AcDbDictionary
0
DICTIONARY
5
1A
330
C
100
AcDbDictionary
0
DICTIONARY
5
17
100
AcDbDictionary
0
ENDSEC
0
EOF
