0
SECTION
2
HEADER
9
$INSUNITS
70
4
9
$ACADVER
1
AC1014
9
$HANDSEED
5
FFFF
0
ENDSEC
0
SECTION
2
TABLES
0
TABLE
2
VPORT
5
8
100
AcDbSymbolTable
0
ENDTAB
0
TABLE
2
LTYPE
5
5
100
AcDbSymbolTable
0
LTYPE
5
14
100
AcDbSymbolTableRecord
100
AcDbLinetypeTableRecord
2
BYBLOCK
70
0
0
LTYPE
5
15
100
AcDbSymbolTableRecord
100
AcDbLinetypeTableRecord
2
BYLAYER
70
0
0
ENDTAB
0
TABLE
2
LAYER
5
2
100
AcDbSymbolTable
70
2
0
LAYER
5
50
100
AcDbSymbolTableRecord
100
AcDbLayerTableRecord
2
0
70
0
6
CONTINUOUS
0
ENDTAB
0
TABLE
2
STYLE
5
3
100
AcDbSymbolTable
70
1
0
STYLE
5
11
100
AcDbSymbolTableRecord
100
AcDbTextStyleTableRecord
2
STANDARD
70
0
0
ENDTAB
0
TABLE
2
VIEW
5
6
100
AcDbSymbolTable
70
0
0
ENDTAB
0
TABLE
2
UCS
5
7
100
AcDbSymbolTable
70
0
0
ENDTAB
0
TABLE
2
APPID
5
9
100
AcDbSymbolTable
70
2
0
APPID
5
12
100
AcDbSymbolTableRecord
100
AcDbRegAppTableRecord
2
ACAD
70
0
0
ENDTAB
0
TABLE
2
DIMSTYLE
5
A
100
AcDbSymbolTable
70
1
0
ENDTAB
0
TABLE
2
BLOCK_RECORD
5
1
100
AcDbSymbolTable
70
1
0
BLOCK_RECORD
5
1F
100
AcDbSymbolTableRecord
100
AcDbBlockTableRecord
2
*MODEL_SPACE
0
BLOCK_RECORD
5
1B
100
AcDbSymbolTableRecord
100
AcDbBlockTableRecord
2
*PAPER_SPACE
0
ENDTAB
0
ENDSEC
0
SECTION
2
BLOCKS
0
BLOCK
5
20
100
AcDbEntity
100
AcDbBlockBegin
2
*MODEL_SPACE
0
ENDBLK
5
21
100
AcDbEntity
100
AcDbBlockEnd
0
BLOCK
5
1C
100
AcDbEntity
100
AcDbBlockBegin
2
*PAPER_SPACE
0
ENDBLK
5
1D
100
AcDbEntity
100
AcDbBlockEnd
0
ENDSEC
0
SECTION
2
ENTITIES
0
LWPOLYLINE
5
100
100
AcDbEntity
8
0
100
AcDbPolyline
90
8
70
1
43
0.0
10
-285.08749999999998
20
76.375
42
0.41421356237309243
10
-284.08749999999998
20
75.374999999999972
10
-272.08750000000003
20
75.374999999999972
42
0.41421356237309503
10
-271.08749999999998
20
76.375
10
-271.08749999999998
20
88.374999999999986
42
0.41421356237309503
10
-272.08750000000003
20
89.375
10
-284.08749999999998
20
89.375
42
0.41421356237309503
10
-285.08749999999998
20
88.374999999999986
0
LWPOLYLINE
5
101
100
AcDbEntity
8
0
100
AcDbPolyline
90
8
70
1
43
0.0
10
-334.0067499999999
20
55.325000000000003
42
0.41421356237310281
10
-333.00675000000001
20
54.32500000000001
10
-328.00675000000001
20
54.325000000000081
42
0.41421356237309243
10
-327.00675000000001
20
55.325000000000017
10
-327.00674999999995
20
68.324999999999989
42
0.41421356237309243
10
-328.00675000000001
20
69.324999999999974
10
-333.00675000000001
20
69.325000000000017
42
0.41421356237309503
10
-334.00675000000001
20
68.324999999999989
0
LWPOLYLINE
5
102
100
AcDbEntity
8
0
100
AcDbPolyline
90
8
70
1
43
0.0
10
-91.119249999999994
20
90.375000000000014
42
-0.41421356237306384
10
-90.119249999999909
20
91.375
10
-85.119249999999909
20
91.375
42
-0.41421356237313667
10
-84.119249999999937
20
90.375000000000014
10
-84.119249999999965
20
77.375
42
-0.41421356237307683
10
-85.119249999999909
20
76.374999999999972
10
-90.119249999999909
20
76.375
42
-0.41421356237313667
10
-91.119249999999994
20
77.375
0
LWPOLYLINE
5
103
100
AcDbEntity
8
0
100
AcDbPolyline
90
8
70
1
43
0.0
10
-280.61250000000001
20
69.325000000000003
42
0.41421356237309503
10
-281.61250000000001
20
70.325000000000003
10
-293.61249999999995
20
70.325000000000017
42
0.41421356237309503
10
-294.61250000000001
20
69.325000000000003
10
-294.61250000000001
20
57.325000000000017
42
0.41421356237307422
10
-293.61249999999995
20
56.32500000000001
10
-281.61250000000001
20
56.325000000000031
42
0.41421356237309764
10
-280.61250000000001
20
57.325000000000017
0
LINE
5
104
100
AcDbEntity
8
0
100
AcDbLine
10
-338.25
20
129.25
30
0
11
-335.22499999999991
21
129.25
31
0
0
LWPOLYLINE
5
105
100
AcDbEntity
8
0
100
AcDbPolyline
90
8
70
1
43
0.0
10
-207.88749999999999
20
89.375
42
0.41421356237310542
10
-208.88749999999999
20
88.374999999999986
10
-208.88749999999999
20
76.375
42
0.41421356237307683
10
-207.88749999999999
20
75.375
10
-195.88749999999999
20
75.374999999999972
42
0.41421356237309503
10
-194.88749999999996
20
76.375
10
-194.88749999999999
20
88.374999999999986
42
0.41421356237310542
10
-195.88749999999999
20
89.375
0
LINE
5
106
100
AcDbEntity
8
0
100
AcDbLine
10
-155.59166666666664
20
134
30
0
11
-238.65833333333327
21
134
31
0
0
LWPOLYLINE
5
107
100
AcDbEntity
8
0
100
AcDbPolyline
90
8
70
1
43
0.0
10
-317.33124999999995
20
89.375
42
-0.4142135623730846
10
-316.33125000000001
20
88.374999999999986
10
-316.33124999999995
20
76.375
42
-0.41421356237309243
10
-317.33124999999995
20
75.375
10
-334.09375
20
75.374999999999957
42
-0.41421356237309503
10
-335.09375
20
76.374999999999972
10
-335.09375
20
88.374999999999986
42
-0.41421356237309503
10
-334.09375
20
89.375
0
LWPOLYLINE
5
108
100
AcDbEntity
8
0
100
AcDbPolyline
90
8
70
1
43
0.0
10
-119.6875
20
89.375
42
-0.41421356237311585
10
-118.68749999999999
20
88.374999999999986
10
-118.68749999999999
20
76.375
42
-0.41421356237309243
10
-119.6875
20
75.374999999999972
10
-131.68749999999989
20
75.374999999999972
42
-0.41421356237313667
10
-132.68749999999997
20
76.375
10
-132.68749999999994
20
88.374999999999986
42
-0.41421356237308982
10
-131.6875
20
89.375
0
LWPOLYLINE
5
109
100
AcDbEntity
8
0
100
AcDbPolyline
90
8
70
1
43
0.0
10
-194.59999999999997
20
107.425
42
-0.41421356237310025
10
-193.59999999999999
20
108.425
10
-181.59999999999997
20
108.425
42
-0.41421356237307944
10
-180.59999999999999
20
107.425
10
-180.59999999999999
20
95.425000000000011
42
-0.4142135623730846
10
-181.59999999999997
20
94.424999999999983
10
-193.59999999999999
20
94.424999999999983
42
-0.41421356237309503
10
-194.60000000000002
20
95.425000000000011
0
LWPOLYLINE
5
110
100
AcDbEntity
8
0
100
AcDbPolyline
90
8
70
1
43
0.0
10
-81.681249999999963
20
89.375
10
-69.681249999999977
20
89.375
42
-0.4142135623730534
10
-68.681249999999949
20
88.374999999999986
10
-68.681249999999949
20
76.375
42
-0.4142135623730378
10
-69.681249999999935
20
75.375
10
-81.681249999999963
20
75.375000000000014
42
-0.41421356237310542
10
-82.681249999999977
20
76.375
10
-82.681249999999991
20
88.374999999999986
42
-0.41421356237311063
0
LWPOLYLINE
5
111
100
AcDbEntity
8
0
100
AcDbPolyline
90
8
70
1
43
0.0
10
-219.69999999999999
20
94.424999999999983
42
0.41421356237309503
10
-218.69999999999999
20
95.425000000000011
10
-218.70000000000005
20
107.425
42
0.41421356237310542
10
-219.69999999999999
20
108.425
10
-231.70000000000002
20
108.42499999999998
42
0.41421356237307422
10
-232.69999999999999
20
107.425
10
-232.69999999999999
20
95.425000000000011
42
0.4142135623730846
10
-231.70000000000002
20
94.424999999999983
0
LWPOLYLINE
5
112
100
AcDbEntity
8
0
100
AcDbPolyline
90
8
70
1
43
0.0
10
-104.39999999999998
20
95.425000000000011
10
-104.39999999999998
20
107.425
42
0.41421356237309503
10
-105.39999999999999
20
108.42500000000001
10
-117.39999999999998
20
108.42500000000001
42
0.4142135623730534
10
-118.40000000000001
20
107.425
10
-118.40000000000001
20
95.425000000000011
42
0.41421356237304302
10
-117.39999999999998
20
94.424999999999955
10
-105.39999999999999
20
94.424999999999969
42
0.41421356237310025
0
LWPOLYLINE
5
113
100
AcDbEntity
8
0
100
AcDbPolyline
90
8
70
1
43
0.0
10
-175.55000000000001
20
95.425000000000011
42
0.41421356237307944
10
-174.5500000000001
20
94.424999999999955
10
-162.54999999999995
20
94.424999999999969
42
0.41421356237310025
10
-161.54999999999995
20
95.425000000000011
10
-161.54999999999995
20
107.425
42
0.41421356237309503
10
-162.54999999999995
20
108.42500000000001
10
-174.55000000000001
20
108.42500000000001
42
0.4142135623730534
10
-175.55000000000004
20
107.425
0
LINE
5
114
100
AcDbEntity
8
0
100
AcDbLine
10
-60.024999999999906
20
130.25000000000011
30
0
11
-60.024999999999906
21
132.5
31
0
0
LINE
5
115
100
AcDbEntity
8
0
100
AcDbLine
10
-249.6583333333333
20
130.25
30
0
11
-249.6583333333333
21
132.5
31
0
0
LINE
5
116
100
AcDbEntity
8
0
100
AcDbLine
10
-143.09166666666667
20
30.749999999999993
30
0
11
-61.524999999999892
21
30.749999999999993
31
0
0
LINE
5
117
100
AcDbEntity
8
0
100
AcDbLine
10
-240.15833333333333
20
33.999999217197754
30
0
11
-240.15833333333333
21
32.250002112239571
31
0
0
LINE
5
118
100
AcDbEntity
8
0
100
AcDbLine
10
-154.09166666666664
20
130.25
30
0
11
-154.09166666666664
21
132.5
31
0
0
LINE
5
119
100
AcDbEntity
8
0
100
AcDbLine
10
-334.22500000000002
20
34.00000796696402
30
0
11
-334.22500000000002
21
32.249999999999979
31
0
0
LINE
5
120
100
AcDbEntity
8
0
100
AcDbLine
10
-332.72500000000002
20
30.749999999999993
30
0
11
-251.15833333333336
21
30.749999999999993
31
0
0
LINE
5
121
100
AcDbEntity
8
0
100
AcDbLine
10
-251.1583333333333
20
134.00000000000003
30
0
11
-332.72499999999991
21
134
31
0
0
LINE
5
122
100
AcDbEntity
8
0
100
AcDbLine
10
-241.15833333333336
20
34.999999217197768
30
0
11
-248.65833333333336
21
34.999999217197768
31
0
0
LINE
5
123
100
AcDbEntity
8
0
100
AcDbLine
10
-238.65833333333336
20
30.750002112239585
30
0
11
-155.59166661641075
21
30.750002112239549
31
0
0
LINE
5
124
100
AcDbEntity
8
0
100
AcDbLine
10
-240.1583333333333
20
132.50000000000003
30
0
11
-240.15833333333333
21
130.25
31
0
0
LWPOLYLINE
5
125
100
AcDbEntity
8
0
100
AcDbPolyline
90
8
70
1
43
0.0
10
-136.44999999999996
20
94.424999999999969
10
-124.44999999999993
20
94.424999999999983
42
0.41421356237313667
10
-123.44999999999992
20
95.425000000000011
10
-123.44999999999992
20
107.425
42
0.41421356237311585
10
-124.44999999999993
20
108.42500000000001
10
-136.44999999999996
20
108.42499999999998
42
0.41421356237310542
10
-137.44999999999999
20
107.425
10
-137.44999999999999
20
95.425000000000011
42
0.41421356237310025
0
LINE
5
126
100
AcDbEntity
8
0
100
AcDbLine
10
-153.09166666666664
20
129.25
30
0
11
-145.59166666666667
21
129.25
31
0
0
LINE
5
127
100
AcDbEntity
8
0
100
AcDbLine
10
-55.99999957965359
20
34.999999217197782
30
0
11
-59.025000127177933
21
34.99999836949948
31
0
0
LINE
5
128
100
AcDbEntity
8
0
100
AcDbLine
10
-154.0916666326363
20
32.250222740147294
30
0
11
-154.09166657582833
21
34.000019316842383
31
0
0
LINE
5
129
100
AcDbEntity
8
0
100
AcDbLine
10
-249.65833333333336
20
32.250000000000028
30
0
11
-249.65833333333336
21
33.999999217197754
31
0
0
LINE
5
130
100
AcDbEntity
8
0
100
AcDbLine
10
-144.59166666666661
20
132.5
30
0
11
-144.59166666666661
21
130.25000000000006
31
0
0
LINE
5
131
100
AcDbEntity
8
0
100
AcDbLine
10
-61.524999999999892
20
134
30
0
11
-143.09166666666667
21
134
31
0
0
LINE
5
132
100
AcDbEntity
8
0
100
AcDbLine
10
-144.59166661780014
20
34.000017586278247
30
0
11
-144.59166668621293
21
32.250000058638925
31
0
0
LINE
5
133
100
AcDbEntity
8
0
100
AcDbLine
10
-145.59166629528337
20
35.000017616819306
30
0
11
-153.09166625854954
21
35.000019284376847
31
0
0
LINE
5
134
100
AcDbEntity
8
0
100
AcDbLine
10
-59.024999999999892
20
129.25000000000014
30
0
11
-56.000000000285155
21
129.25000000000014
31
0
0
LINE
5
135
100
AcDbEntity
8
0
100
AcDbLine
10
-334.22500000000002
20
132.5
30
0
11
-334.22500000000002
21
130.25
31
0
0
LINE
5
136
100
AcDbEntity
8
0
100
AcDbLine
10
-335.22499996518877
20
35.000007966963992
30
0
11
-338.25000008702818
21
35.000008089673713
31
0
0
LWPOLYLINE
5
137
100
AcDbEntity
8
0
100
AcDbPolyline
90
8
70
1
43
0.0
10
-142.49999999999997
20
95.425000000000011
10
-142.49999999999994
20
107.425
42
0.41421356237308982
10
-143.49999999999991
20
108.42500000000001
10
-155.50000000000006
20
108.425
42
0.41421356237308982
10
-156.5
20
107.425
10
-156.49999999999994
20
95.425000000000011
42
0.41421356237307422
10
-155.5
20
94.424999999999983
10
-143.49999999999991
20
94.425000000000011
42
0.41421356237308982
0
LWPOLYLINE
5
138
100
AcDbEntity
8
0
100
AcDbPolyline
90
8
70
1
43
0.0
10
-250.75
20
108.42499999999994
42
0.41421356237310542
10
-251.74999999999997
20
107.425
10
-251.74999999999997
20
95.425000000000011
42
0.4142135623730846
10
-250.75
20
94.424999999999983
10
-238.75
20
94.425000000000026
42
0.41421356237311585
10
-237.74999999999994
20
95.425000000000011
10
-237.75
20
107.425
42
0.41421356237312101
10
-238.75
20
108.42499999999998
0
LWPOLYLINE
5
139
100
AcDbEntity
8
0
100
AcDbPolyline
90
8
70
1
43
0.0
10
-245.98749999999998
20
89.375
10
-233.98750000000001
20
89.375
42
-0.41421356237311585
10
-232.98749999999998
20
88.374999999999986
10
-232.98749999999998
20
76.375
42
-0.41421356237308721
10
-233.98750000000001
20
75.375
10
-245.98749999999995
20
75.375
42
-0.41421356237307944
10
-246.98749999999995
20
76.375
10
-246.98750000000001
20
88.374999999999986
42
-0.41421356237307422
0
LWPOLYLINE
5
140
100
AcDbEntity
8
0
100
AcDbPolyline
90
8
70
1
43
0.0
10
-265.03750000000002
20
89.375
42
0.4142135623730846
10
-266.03749999999997
20
88.374999999999986
10
-266.03749999999997
20
76.375
42
0.41421356237309503
10
-265.03750000000002
20
75.375
10
-253.03750000000002
20
75.375
42
0.41421356237308982
10
-252.03749999999999
20
76.375
10
-252.03749999999999
20
88.374999999999986
42
0.41421356237306384
10
-253.03749999999994
20
89.374999999999986
0
LWPOLYLINE
5
141
100
AcDbEntity
8
0
100
AcDbPolyline
90
8
70
1
43
0.0
10
-170.78749999999999
20
88.374999999999986
42
-0.4142135623730534
10
-169.78749999999991
20
89.375
10
-157.78749999999999
20
89.375000000000028
42
-0.41421356237306384
10
-156.78749999999997
20
88.374999999999986
10
-156.78749999999997
20
76.375
42
-0.41421356237303519
10
-157.78749999999997
20
75.375
10
-169.78749999999991
20
75.375
42
-0.41421356237312101
10
-170.78749999999999
20
76.375
0
LWPOLYLINE
5
142
100
AcDbEntity
8
0
100
AcDbPolyline
90
8
70
1
43
0.0
10
-99.349999999999994
20
95.425000000000011
10
-99.350000000000009
20
107.425
42
-0.41421356237311063
10
-98.349999999999937
20
108.42499999999998
10
-86.349999999999909
20
108.42500000000004
42
-0.41421356237306384
10
-85.349999999999966
20
107.425
10
-85.349999999999952
20
95.425000000000011
42
-0.41421356237308982
10
-86.349999999999909
20
94.424999999999983
10
-98.349999999999937
20
94.425000000000026
42
-0.41421356237311585
0
LWPOLYLINE
5
143
100
AcDbEntity
8
0
100
AcDbPolyline
90
8
70
1
43
0.0
10
-75.537500000000009
20
107.425
10
-75.537500000000009
20
95.425000000000011
42
0.41421356237310025
10
-74.537499999999994
20
94.424999999999969
10
-62.537500000000001
20
94.424999999999955
42
0.41421356237303258
10
-61.537499999999952
20
95.425000000000011
10
-61.537500000000058
20
107.425
42
0.41421356237307944
10
-62.537500000000001
20
108.42500000000003
10
-74.537499999999994
20
108.42499999999998
42
0.41421356237310542
0
LWPOLYLINE
5
144
100
AcDbEntity
8
0
100
AcDbPolyline
90
8
70
1
43
0.0
10
-307.89999999999998
20
108.425
42
0.41421356237308982
10
-308.89999999999998
20
107.425
10
-308.89999999999998
20
95.425000000000011
42
0.41421356237310025
10
-307.89999999999998
20
94.424999999999983
10
-295.89999999999998
20
94.424999999999983
42
0.41421356237309503
10
-294.89999999999998
20
95.425000000000011
10
-294.89999999999998
20
107.425
42
0.41421356237308982
10
-295.89999999999998
20
108.425
0
LWPOLYLINE
5
145
100
AcDbEntity
8
0
100
AcDbPolyline
90
8
70
1
43
0.0
10
-150.73749999999993
20
75.374999999999957
10
-138.73750000000001
20
75.375000000000014
42
0.41421356237310542
10
-137.73750000000001
20
76.375
10
-137.73750000000001
20
88.374999999999986
42
0.41421356237309503
10
-138.73750000000001
20
89.375
10
-150.73750000000001
20
89.374999999999972
42
0.41421356237306384
10
-151.73750000000001
20
88.374999999999986
10
-151.73750000000001
20
76.375
42
0.41421356237306123
0
LWPOLYLINE
5
146
100
AcDbEntity
8
0
100
AcDbPolyline
90
8
70
1
43
0.0
10
-312.56875000000002
20
70.325000000000003
10
-324.56874999999997
20
70.325000000000017
42
0.41421356237309503
10
-325.56874999999997
20
69.325000000000003
10
-325.56874999999997
20
57.325000000000017
42
0.41421356237309764
10
-324.56874999999997
20
56.32500000000001
10
-312.56875000000002
20
56.32500000000001
42
0.41421356237309243
10
-311.56875000000002
20
57.325000000000017
10
-311.56875000000002
20
69.325000000000003
42
0.41421356237309503
0
LWPOLYLINE
5
147
100
AcDbEntity
8
0
100
AcDbPolyline
90
8
70
1
43
0.0
10
-61.243249999999989
20
76.375
42
0.41421356237309243
10
-60.243249999999975
20
77.375
10
-60.243249999999975
20
90.375000000000014
42
0.41421356237309503
10
-61.243249999999989
20
91.375000000000028
10
-66.243249999999989
20
91.374999999999972
42
0.41421356237313145
10
-67.243249999999961
20
90.375000000000014
10
-67.243249999999961
20
77.375
42
0.41421356237311846
10
-66.243249999999989
20
76.375000000000028
0
LWPOLYLINE
5
148
100
AcDbEntity
8
0
100
AcDbPolyline
90
8
70
1
43
0.0
10
-304.13749999999999
20
88.374999999999986
10
-304.13749999999999
20
76.375
42
0.41421356237309243
10
-303.13749999999999
20
75.375
10
-291.13749999999999
20
75.375000000000014
42
0.41421356237309503
10
-290.13750000000005
20
76.375
10
-290.13749999999999
20
88.374999999999986
42
0.41421356237309503
10
-291.13749999999999
20
89.375
10
-303.13749999999999
20
89.375
42
0.41421356237309503
0
LWPOLYLINE
5
149
100
AcDbEntity
8
0
100
AcDbPolyline
90
8
70
1
43
0.0
10
-188.83749999999992
20
75.375
10
-176.83749999999989
20
75.375
42
0.414213562373069
10
-175.83749999999995
20
76.375
10
-175.83749999999998
20
88.374999999999986
42
0.41421356237303258
10
-176.83750000000001
20
89.375
10
-188.83749999999992
20
89.374999999999972
42
0.41421356237310542
10
-189.83749999999986
20
88.374999999999986
10
-189.83749999999986
20
76.375
42
0.414213562373069
0
LWPOLYLINE
5
150
100
AcDbEntity
8
0
100
AcDbPolyline
90
8
70
1
43
0.0
10
-226.9375
20
75.375
10
-214.9375
20
75.374999999999972
42
0.41421356237309503
10
-213.93749999999997
20
76.375
10
-213.9375
20
88.374999999999986
42
0.41421356237310542
10
-214.9375
20
89.375
10
-226.9375
20
89.375000000000014
42
0.41421356237308982
10
-227.9375
20
88.374999999999986
10
-227.9375
20
76.375
42
0.41421356237307683
0
LWPOLYLINE
5
151
100
AcDbEntity
8
0
100
AcDbPolyline
90
8
70
1
43
0.0
10
-99.637499999999974
20
76.375
10
-99.637499999999974
20
88.374999999999986
42
0.41421356237309503
10
-100.63749999999999
20
89.375
10
-112.63749999999999
20
89.375
42
0.4142135623730846
10
-113.63749999999996
20
88.374999999999986
10
-113.63749999999993
20
76.375
42
0.41421356237307161
10
-112.63749999999999
20
75.374999999999972
10
-100.63749999999999
20
75.375000000000014
42
0.41421356237310542
0
LWPOLYLINE
5
152
100
AcDbEntity
8
0
100
AcDbPolyline
90
8
70
1
43
0.0
10
-332.71250000000003
20
95.425000000000011
42
0.41421356237309503
10
-331.71249999999998
20
94.424999999999983
10
-319.71250000000003
20
94.424999999999983
42
0.41421356237309503
10
-318.71249999999998
20
95.425000000000011
10
-318.71249999999998
20
107.425
42
0.41421356237310542
10
-319.71250000000003
20
108.425
10
-331.71249999999998
20
108.42499999999994
42
0.41421356237309503
10
-332.71249999999998
20
107.425
0
LWPOLYLINE
5
153
100
AcDbEntity
8
0
100
AcDbPolyline
90
8
70
1
43
0.0
10
-82.737999999999971
20
126.47500000000001
42
-0.41421356237304302
10
-81.737999999999928
20
125.47499999999999
10
-81.738
20
112.47500000000001
42
-0.41421356237310025
10
-82.737999999999971
20
111.47500000000001
10
-87.737999999999914
20
111.47500000000002
42
-0.4142135623730846
10
-88.738
20
112.47500000000001
10
-88.738
20
125.47499999999999
42
-0.41421356237308982
10
-87.737999999999914
20
126.47499999999999
0
LWPOLYLINE
5
154
100
AcDbEntity
8
0
100
AcDbPolyline
90
8
70
1
43
0.0
10
-256.80000000000001
20
107.425
10
-256.80000000000001
20
95.425000000000011
42
-0.41421356237307944
10
-257.79999999999995
20
94.424999999999983
10
-269.80000000000001
20
94.424999999999983
42
-0.4142135623730846
10
-270.79999999999995
20
95.425000000000011
10
-270.79999999999995
20
107.425
42
-0.4142135623730846
10
-269.80000000000001
20
108.425
10
-257.80000000000001
20
108.42499999999998
42
-0.4142135623730846
0
LWPOLYLINE
5
155
100
AcDbEntity
8
0
100
AcDbPolyline
90
8
70
1
43
0.0
10
-67.300000000000011
20
113.47499999999997
42
0.41421356237305862
10
-66.299999999999983
20
114.47499999999999
10
-66.299999999999983
20
126.47500000000001
42
0.4142135623730534
10
-67.300000000000011
20
127.47500000000002
10
-79.299999999999997
20
127.47499999999999
42
0.41421356237310542
10
-80.300000000000011
20
126.47500000000001
10
-80.299999999999997
20
114.47499999999999
42
0.41421356237309503
10
-79.299999999999997
20
113.47499999999999
0
LWPOLYLINE
5
156
100
AcDbEntity
8
0
100
AcDbPolyline
90
8
70
1
43
0.0
10
-98.349999999999937
20
51.274999999999977
42
0.41421356237312101
10
-99.349999999999952
20
50.27500000000002
10
-99.349999999999952
20
38.275000000000006
42
0.41421356237314183
10
-98.349999999999937
20
37.274999999999977
10
-86.34999999999998
20
37.274999999999956
42
0.41421356237308982
10
-85.349999999999966
20
38.274999999999949
10
-85.349999999999966
20
50.275000000000006
42
0.41421356237308982
10
-86.34999999999998
20
51.275000000000006
0
LWPOLYLINE
5
157
100
AcDbEntity
8
0
100
AcDbPolyline
90
8
70
1
43
0.0
10
-190.125
20
38.275000000000006
10
-190.125
20
50.27500000000002
42
0.41421356237311063
10
-191.12499999999997
20
51.274999999999977
10
-203.125
20
51.275000000000013
42
0.41421356237310281
10
-204.125
20
50.274999999999991
10
-204.125
20
38.275000000000006
42
0.41421356237310025
10
-203.125
20
37.275000000000006
10
-191.12499999999997
20
37.275000000000027
42
0.41421356237309503
0
LWPOLYLINE
5
158
100
AcDbEntity
8
0
100
AcDbPolyline
90
8
70
1
43
0.0
10
-75.537500000000023
20
38.275000000000006
42
0.41421356237313667
10
-74.537499999999994
20
37.274999999999977
10
-62.537500000000037
20
37.274999999999991
42
0.41421356237310542
10
-61.537500000000023
20
38.27499999999997
10
-61.537500000000023
20
50.275000000000006
42
0.41421356237308982
10
-62.537500000000037
20
51.275000000000006
10
-74.537499999999994
20
51.274999999999977
42
0.41421356237312101
10
-75.537500000000009
20
50.27500000000002
0
LWPOLYLINE
5
159
100
AcDbEntity
8
0
100
AcDbPolyline
90
8
70
1
43
0.0
10
-122.16249999999995
20
51.27499999999997
42
0.41421356237311846
10
-123.16249999999997
20
50.27500000000002
10
-123.16249999999994
20
38.275000000000006
42
0.4142135623730846
10
-122.16249999999999
20
37.274999999999956
10
-110.16249999999999
20
37.274999999999956
42
0.41421356237308982
10
-109.16249999999998
20
38.274999999999949
10
-109.16250000000005
20
50.275000000000034
42
0.41421356237310542
10
-110.16250000000002
20
51.275000000000048
0
LWPOLYLINE
5
160
100
AcDbEntity
8
0
100
AcDbPolyline
90
8
70
1
43
0.0
10
-251.77500000000003
20
53.275000000000013
10
-256.77500000000003
20
53.275000000000013
42
0.41421356237308204
10
-257.77500000000003
20
52.275000000000006
10
-257.77500000000003
20
39.275000000000006
42
0.41421356237309503
10
-256.77500000000003
20
38.275000000000006
10
-251.77500000000003
20
38.275000000000006
42
0.41421356237308982
10
-250.77500000000001
20
39.275000000000006
10
-250.77500000000003
20
52.27500000000002
42
0.41421356237309764
0
LWPOLYLINE
5
161
100
AcDbEntity
8
0
100
AcDbPolyline
90
8
70
1
43
0.0
10
-166.31249999999994
20
57.325000000000017
42
-0.41421356237309503
10
-167.31250000000003
20
56.32500000000001
10
-179.3125
20
56.32500000000001
42
-0.41421356237308204
10
-180.31249999999997
20
57.325000000000017
10
-180.31249999999997
20
69.325000000000003
42
-0.41421356237305601
10
-179.3125
20
70.324999999999989
10
-167.3125
20
70.324999999999974
42
-0.41421356237306384
10
-166.31249999999997
20
69.325000000000003
0
LWPOLYLINE
5
162
100
AcDbEntity
8
0
100
AcDbPolyline
90
8
70
1
43
0.0
10
-217.41250000000002
20
56.32500000000001
10
-205.41249999999997
20
56.325000000000003
42
0.41421356237311585
10
-204.41249999999997
20
57.325000000000017
10
-204.41249999999994
20
69.325000000000003
42
0.41421356237308204
10
-205.41249999999997
20
70.325000000000003
10
-217.41250000000002
20
70.325000000000003
42
0.41421356237310025
10
-218.41249999999999
20
69.325000000000003
10
-218.41249999999997
20
57.325000000000017
42
0.41421356237306639
0
LWPOLYLINE
5
163
100
AcDbEntity
8
0
100
AcDbPolyline
90
8
70
1
43
0.0
10
-303.13075000000003
20
68.324999999999989
42
0.41421356237309243
10
-304.13074999999998
20
69.324999999999974
10
-309.13074999999998
20
69.325000000000017
42
0.41421356237309503
10
-310.13075000000003
20
68.324999999999989
10
-310.13075000000003
20
55.325000000000017
42
0.41421356237310281
10
-309.13074999999998
20
54.324999999999974
10
-304.13074999999998
20
54.325000000000031
42
0.41421356237308721
10
-303.13074999999998
20
55.325000000000017
0
LWPOLYLINE
5
164
100
AcDbEntity
8
0
100
AcDbPolyline
90
8
70
1
43
0.0
10
-243.51249999999999
20
70.325000000000003
42
-0.41421356237308982
10
-242.51249999999999
20
69.325000000000003
10
-242.51249999999996
20
57.325000000000017
42
-0.4142135623730846
10
-243.51249999999999
20
56.32500000000001
10
-255.51249999999996
20
56.325000000000003
42
-0.41421356237309503
10
-256.51249999999999
20
57.325000000000017
10
-256.51249999999999
20
69.325000000000003
42
-0.41421356237307944
10
-255.51249999999996
20
70.324999999999989
0
LINE
5
165
100
AcDbEntity
8
0
100
AcDbLine
10
-55.000000000285176
20
128.25000000057071
30
0
11
-54.999999947649485
21
35.999999216811759
31
0
0
LWPOLYLINE
5
166
100
AcDbEntity
8
0
100
AcDbPolyline
90
8
70
1
43
0.0
10
-110.16249999999999
20
70.325000000000017
42
-0.41421356237313667
10
-109.16249999999991
20
69.325000000000003
10
-109.16249999999989
20
57.325000000000017
42
-0.41421356237308721
10
-110.16249999999999
20
56.32500000000001
10
-122.16249999999995
20
56.324999999999932
42
-0.41421356237309503
10
-123.16249999999997
20
57.325000000000017
10
-123.16249999999997
20
69.325000000000003
42
-0.41421356237308721
10
-122.16249999999999
20
70.325000000000017
0
LWPOLYLINE
5
167
100
AcDbEntity
8
0
100
AcDbPolyline
90
8
70
1
43
0.0
10
-237.46250000000001
20
69.325000000000003
10
-237.46249999999998
20
57.325000000000017
42
0.41421356237306639
10
-236.46250000000003
20
56.32500000000001
10
-224.46249999999998
20
56.324999999999996
42
0.41421356237309764
10
-223.46249999999998
20
57.325000000000017
10
-223.46250000000001
20
69.325000000000003
42
0.41421356237309764
10
-224.46249999999998
20
70.325000000000003
10
-236.46250000000003
20
70.325000000000003
42
0.41421356237310025
0
LWPOLYLINE
5
168
100
AcDbEntity
8
0
100
AcDbPolyline
90
8
70
1
43
0.0
10
-199.36249999999995
20
57.325000000000017
42
0.414213562373069
10
-198.36250000000001
20
56.32500000000001
10
-186.36250000000001
20
56.325000000000031
42
0.41421356237309764
10
-185.36250000000001
20
57.325000000000017
10
-185.36250000000001
20
69.325000000000003
42
0.41421356237309764
10
-186.36250000000001
20
70.325000000000003
10
-198.36250000000001
20
70.325000000000017
42
0.41421356237306384
10
-199.36249999999998
20
69.325000000000003
0
LINE
5
169
100
AcDbEntity
8
0
100
AcDbLine
10
-339.25
20
36.000008037456794
30
0
11
-339.25
21
128.25
31
0
0
LWPOLYLINE
5
170
100
AcDbEntity
8
0
100
AcDbPolyline
90
8
70
1
43
0.0
10
-129.21250000000001
20
70.325000000000003
42
-0.41421356237311063
10
-128.21249999999998
20
69.325000000000003
10
-128.21249999999998
20
57.325000000000017
42
-0.41421356237309243
10
-129.21250000000001
20
56.32500000000001
10
-141.21250000000001
20
56.324999999999939
42
-0.41421356237308204
10
-142.21249999999998
20
57.325000000000017
10
-142.21249999999998
20
69.325000000000003
42
-0.41421356237308721
10
-141.21250000000001
20
70.325000000000017
0
LWPOLYLINE
5
171
100
AcDbEntity
8
0
100
AcDbPolyline
90
8
70
1
43
0.0
10
-63.862000000000023
20
111.47500000000002
42
-0.4142135623730534
10
-64.861999999999995
20
112.47500000000001
10
-64.862000000000023
20
125.47499999999999
42
-0.4142135623730534
10
-63.862000000000023
20
126.47499999999999
10
-58.862000000000023
20
126.47499999999997
42
-0.41421356237310542
10
-57.862000000000009
20
125.47499999999999
10
-57.862000000000009
20
112.47500000000001
42
-0.41421356237309503
10
-58.862000000000023
20
111.47499999999999
0
LWPOLYLINE
5
172
100
AcDbEntity
8
0
100
AcDbPolyline
90
8
70
1
43
0.0
10
-74.443750000000009
20
56.32500000000001
42
0.41421356237309243
10
-73.443749999999994
20
57.325000000000017
10
-73.443749999999994
20
69.325000000000003
42
0.41421356237309503
10
-74.443750000000009
20
70.325000000000017
10
-86.443749999999966
20
70.325000000000003
42
0.41421356237308982
10
-87.443749999999909
20
69.325000000000003
10
-87.443749999999923
20
57.325000000000017
42
0.41421356237306639
10
-86.443749999999966
20
56.324999999999939
0
LWPOLYLINE
5
173
100
AcDbEntity
8
0
100
AcDbPolyline
90
8
70
1
43
0.0
10
-331.71249999999998
20
37.275000000000006
10
-319.71250000000003
20
37.275000000000027
42
0.41421356237310542
10
-318.71249999999998
20
38.275000000000006
10
-318.71249999999998
20
50.27500000000002
42
0.41421356237310025
10
-319.71250000000003
20
51.274999999999977
10
-331.71249999999998
20
51.274999999999977
42
0.41421356237309503
10
-332.71250000000003
20
50.274999999999977
10
-332.71250000000003
20
38.275000000000006
42
0.41421356237309503
0
LWPOLYLINE
5
174
100
AcDbEntity
8
0
100
AcDbPolyline
90
8
70
1
43
0.0
10
-261.5625
20
69.325000000000003
42
0.41421356237309503
10
-262.5625
20
70.325000000000003
10
-274.5625
20
70.324999999999974
42
0.41421356237309503
10
-275.5625
20
69.325000000000003
10
-275.5625
20
57.325000000000017
42
0.41421356237308204
10
-274.5625
20
56.32500000000001
10
-262.5625
20
56.324999999999996
42
0.41421356237309764
10
-261.5625
20
57.325000000000017
0
LWPOLYLINE
5
175
100
AcDbEntity
8
0
100
AcDbPolyline
90
8
70
1
43
0.0
10
-161.26249999999999
20
69.325000000000003
10
-161.26249999999999
20
57.325000000000017
42
0.41421356237313145
10
-160.26249999999999
20
56.324999999999939
10
-148.26249999999999
20
56.32500000000001
42
0.41421356237304041
10
-147.26249999999993
20
57.325000000000017
10
-147.26249999999996
20
69.325000000000003
42
0.41421356237302737
10
-148.26249999999999
20
70.325000000000017
10
-160.26249999999999
20
70.325000000000003
42
0.41421356237311063
0
LWPOLYLINE
5
176
100
AcDbEntity
8
0
100
AcDbPolyline
90
8
70
1
43
0.0
10
-132.97499999999991
20
126.47500000000001
10
-132.97499999999999
20
114.47499999999999
42
-0.41421356237307422
10
-133.97499999999994
20
113.47499999999998
10
-145.97499999999997
20
113.47499999999999
42
-0.41421356237308982
10
-146.97499999999991
20
114.47499999999999
10
-146.97499999999991
20
126.47500000000001
42
-0.414213562373069
10
-145.97499999999997
20
127.47500000000001
10
-133.97499999999994
20
127.47499999999999
42
-0.41421356237314705
0
LWPOLYLINE
5
177
100
AcDbEntity
8
0
100
AcDbPolyline
90
13
70
1
43
0.0
10
-72.005749999999978
20
55.325000000000017
10
-72.005749999999892
20
68.324999999999989
42
-0.4142135623730846
10
-71.005749999999949
20
69.324999999999974
10
-70.774999999999977
20
69.325000000000003
42
-0.41421356237314444
10
-69.774999999999892
20
70.324999999999989
10
-57.774999999999963
20
70.325000000000017
42
-0.41421356237309503
10
-56.774999999999949
20
69.325000000000003
10
-56.774999999999949
20
57.325000000000003
42
-0.41421356237310542
10
-57.774999999999963
20
56.325000000000017
10
-65.005749999999907
20
56.325000000000003
10
-65.005749999999921
20
55.325000000000017
42
-0.41421356237302481
10
-66.005749999999949
20
54.32500000000001
10
-71.005749999999949
20
54.324999999999967
42
-0.41421356237304302
0
LWPOLYLINE
5
178
100
AcDbEntity
8
0
100
AcDbPolyline
90
8
70
1
43
0.0
10
-294.89999999999998
20
50.27500000000002
42
0.41421356237310025
10
-295.89999999999998
20
51.274999999999977
10
-307.89999999999998
20
51.275000000000013
42
0.41421356237309243
10
-308.89999999999998
20
50.275000000000006
10
-308.89999999999998
20
38.275000000000006
42
0.41421356237309503
10
-307.89999999999998
20
37.275000000000006
10
-295.90000000000003
20
37.275000000000006
42
0.414213562373069
10
-294.89999999999998
20
38.275000000000006
0
LWPOLYLINE
5
179
100
AcDbEntity
8
0
100
AcDbPolyline
90
8
70
1
43
0.0
10
-286.375
20
113.47500000000002
42
0.41421356237309503
10
-285.375
20
114.47499999999999
10
-285.375
20
126.47500000000001
42
0.41421356237309503
10
-286.375
20
127.47500000000001
10
-298.375
20
127.47500000000002
42
0.41421356237309503
10
-299.375
20
126.47500000000001
10
-299.375
20
114.47499999999999
42
0.41421356237309503
10
-298.375
20
113.47499999999999
0
LWPOLYLINE
5
180
100
AcDbEntity
8
0
100
AcDbPolyline
90
8
70
1
43
0.0
10
-190.125
20
126.47500000000001
10
-190.12499999999994
20
114.47499999999999
42
-0.41421356237307422
10
-191.12499999999997
20
113.47499999999999
10
-203.125
20
113.47499999999998
42
-0.41421356237309503
10
-204.125
20
114.47499999999999
10
-204.12499999999997
20
126.47500000000001
42
-0.41421356237309503
10
-203.125
20
127.47499999999999
10
-191.12499999999997
20
127.47500000000001
42
-0.41421356237307944
0
LWPOLYLINE
5
181
100
AcDbEntity
8
0
100
AcDbPolyline
90
8
70
1
43
0.0
10
-94.881749999999982
20
54.325000000000017
42
-0.41421356237313145
10
-95.881749999999997
20
55.325000000000017
10
-95.881749999999997
20
68.324999999999989
42
-0.41421356237310542
10
-94.881749999999982
20
69.324999999999974
10
-89.881749999999982
20
69.32499999999996
42
-0.41421356237310281
10
-88.881749999999897
20
68.324999999999989
10
-88.881749999999869
20
55.325000000000017
42
-0.4142135623730222
10
-89.881749999999982
20
54.32500000000001
0
LWPOLYLINE
5
182
100
AcDbEntity
8
0
100
AcDbPolyline
90
8
70
1
43
0.0
10
-279.32499999999999
20
127.47499999999999
42
0.41421356237309503
10
-280.32499999999999
20
126.47500000000001
10
-280.32499999999999
20
114.47499999999999
42
0.41421356237309503
10
-279.32499999999999
20
113.47499999999999
10
-267.32500000000005
20
113.47499999999999
42
0.41421356237308982
10
-266.32499999999999
20
114.47499999999999
10
-266.32499999999999
20
126.47500000000001
42
0.41421356237309503
10
-267.32500000000005
20
127.47500000000001
0
LWPOLYLINE
5
183
100
AcDbEntity
8
0
100
AcDbPolyline
90
8
70
1
43
0.0
10
-271.08749999999998
20
50.27500000000002
10
-271.08749999999998
20
38.275000000000006
42
-0.41421356237307944
10
-272.08750000000003
20
37.275000000000027
10
-284.08750000000003
20
37.275000000000048
42
-0.41421356237309503
10
-285.08749999999998
20
38.27500000000002
10
-285.08749999999998
20
50.274999999999977
42
-0.41421356237309764
10
-284.08750000000003
20
51.274999999999977
10
-272.08750000000003
20
51.275000000000034
42
-0.41421356237309503
0
LWPOLYLINE
5
184
100
AcDbEntity
8
0
100
AcDbPolyline
90
8
70
1
43
0.0
10
-223.17499999999995
20
126.47500000000001
10
-223.17499999999995
20
114.47499999999999
42
0.41421356237310542
10
-222.17500000000001
20
113.47499999999999
10
-210.17499999999998
20
113.47500000000002
42
0.41421356237307422
10
-209.17500000000001
20
114.47499999999999
10
-209.17500000000001
20
126.47500000000001
42
0.4142135623730534
10
-210.17499999999998
20
127.47499999999999
10
-222.17500000000001
20
127.47499999999997
42
0.41421356237310025
0
LWPOLYLINE
5
185
100
AcDbEntity
8
0
100
AcDbPolyline
90
8
70
1
43
0.0
10
-261.27499999999998
20
114.47499999999999
42
0.41421356237308982
10
-260.27500000000003
20
113.47499999999999
10
-248.27500000000001
20
113.47499999999998
42
0.41421356237309503
10
-247.27499999999998
20
114.47499999999999
10
-247.27500000000003
20
126.47500000000001
42
0.41421356237309503
10
-248.27500000000001
20
127.47499999999999
10
-260.27500000000003
20
127.47500000000001
42
0.41421356237308982
10
-261.27499999999998
20
126.47500000000001
0
LWPOLYLINE
5
186
100
AcDbEntity
8
0
100
AcDbPolyline
90
8
70
1
43
0.0
10
-200.64999999999998
20
108.42499999999998
10
-212.65000000000001
20
108.42500000000001
42
0.41421356237309503
10
-213.65000000000003
20
107.425
10
-213.65000000000003
20
95.425000000000011
42
0.41421356237309503
10
-212.65000000000001
20
94.424999999999983
10
-200.64999999999998
20
94.424999999999969
42
0.414213562373069
10
-199.65000000000001
20
95.425000000000011
10
-199.65000000000001
20
107.425
42
0.41421356237307422
0
LWPOLYLINE
5
187
100
AcDbEntity
8
0
100
AcDbPolyline
90
8
70
1
43
0.0
10
-275.85000000000002
20
107.425
42
0.41421356237309503
10
-276.84999999999997
20
108.425
10
-288.84999999999997
20
108.425
42
0.41421356237308982
10
-289.85000000000002
20
107.425
10
-289.85000000000002
20
95.425000000000011
42
0.41421356237309503
10
-288.84999999999997
20
94.424999999999983
10
-276.84999999999997
20
94.425000000000026
42
0.41421356237309503
10
-275.85000000000002
20
95.425000000000011
0
LWPOLYLINE
5
188
100
AcDbEntity
8
0
100
AcDbPolyline
90
8
70
1
43
0.0
10
-337.47500000000002
20
114.47499999999999
42
0.41421356237309503
10
-336.47500000000002
20
113.47499999999999
10
-324.47499999999997
20
113.47499999999991
42
0.41421356237307422
10
-323.47499999999997
20
114.47499999999999
10
-323.47499999999997
20
126.47500000000001
42
0.41421356237308982
10
-324.47499999999997
20
127.47500000000001
10
-336.47500000000002
20
127.47500000000001
42
0.41421356237308982
10
-337.47500000000002
20
126.47500000000001
0
LWPOLYLINE
5
189
100
AcDbEntity
8
0
100
AcDbPolyline
90
8
70
1
43
0.0
10
-241.22499999999999
20
113.47499999999999
10
-229.22499999999999
20
113.47500000000002
42
0.41421356237312623
10
-228.22499999999997
20
114.47499999999999
10
-228.22499999999997
20
126.47500000000001
42
0.4142135623730846
10
-229.22499999999999
20
127.47500000000001
10
-241.22499999999999
20
127.47499999999999
42
0.41421356237311585
10
-242.22499999999997
20
126.47500000000001
10
-242.22499999999997
20
114.47499999999999
42
0.41421356237312101
0
LWPOLYLINE
5
190
100
AcDbEntity
8
0
100
AcDbPolyline
90
8
70
1
43
0.0
10
-153.02499999999998
20
127.47500000000002
10
-165.02500000000001
20
127.47500000000002
42
0.4142135623730534
10
-166.02500000000003
20
126.47500000000001
10
-166.02499999999998
20
114.47499999999999
42
0.41421356237304302
10
-165.02500000000001
20
113.47499999999997
10
-153.02499999999998
20
113.47499999999995
42
0.41421356237307422
10
-152.02500000000001
20
114.47499999999999
10
-152.02500000000003
20
126.47500000000001
42
0.41421356237308982
0
LWPOLYLINE
5
191
100
AcDbEntity
8
0
100
AcDbPolyline
90
8
70
1
43
0.0
10
-126.92499999999998
20
113.47499999999997
10
-114.925
20
113.47500000000002
42
0.41421356237310542
10
-113.92499999999998
20
114.47499999999999
10
-113.92499999999998
20
126.47500000000001
42
0.41421356237308982
10
-114.925
20
127.47500000000001
10
-126.92499999999998
20
127.47500000000002
42
0.4142135623730534
10
-127.92500000000001
20
126.47500000000001
10
-127.92499999999998
20
114.47499999999999
42
0.41421356237304302
0
LWPOLYLINE
5
192
100
AcDbEntity
8
0
100
AcDbPolyline
90
8
70
1
43
0.0
10
-304.42500000000001
20
114.47499999999999
10
-304.42500000000001
20
126.47500000000001
42
0.41421356237308982
10
-305.42500000000001
20
127.47500000000001
10
-317.42500000000001
20
127.47499999999997
42
0.41421356237308982
10
-318.42499999999995
20
126.47500000000001
10
-318.42500000000001
20
114.47499999999999
42
0.41421356237309503
10
-317.42500000000001
20
113.47499999999999
10
-305.42500000000007
20
113.47499999999999
42
0.41421356237308982
0
LWPOLYLINE
5
193
100
AcDbEntity
8
0
100
AcDbPolyline
90
8
70
1
43
0.0
10
-171.07499999999999
20
114.47499999999999
10
-171.07499999999999
20
126.47500000000001
42
0.4142135623730534
10
-172.07499999999999
20
127.47500000000002
10
-184.07499999999999
20
127.47500000000001
42
0.41421356237313145
10
-185.07499999999999
20
126.47500000000001
10
-185.07499999999999
20
114.47499999999999
42
0.41421356237309503
10
-184.07499999999999
20
113.47499999999999
10
-172.07500000000005
20
113.47499999999997
42
0.41421356237305862
0
ARC
5
194
100
AcDbEntity
8
0
100
AcDbCircle
10
-155.59166666666664
20
132.5
30
0
40
1.4999999999999858
210
0
220
-0
230
1
100
AcDbArc
50
0
51
90
0
ARC
5
195
100
AcDbEntity
8
0
100
AcDbCircle
10
-145.59166666666667
20
130.25000000000006
30
0
40
1.0000000000000497
210
0
220
0
230
1
100
AcDbArc
50
-90
51
0
0
ARC
5
196
100
AcDbEntity
8
0
100
AcDbCircle
10
-153.09166666666664
20
130.25000000000003
30
0
40
1.0000000000000142
210
0
220
0
230
1
100
AcDbArc
50
180
51
270
0
ARC
5
197
100
AcDbEntity
8
0
100
AcDbCircle
10
-59.024999949723536
20
33.999998369499508
30
0
40
0.99999999999999445
210
0
220
0
230
1
100
AcDbArc
50
90.000010167387956
51
179.99999658490543
0
ARC
5
198
100
AcDbEntity
8
0
100
AcDbCircle
10
-251.1583333333333
20
132.5
30
0
40
1.5000000000000213
210
0
220
-0
230
1
100
AcDbArc
50
0
51
90
0
ARC
5
199
100
AcDbEntity
8
0
100
AcDbCircle
10
-241.15833333333336
20
33.999999217197754
30
0
40
1.0000000000000142
210
0
220
0
230
1
100
AcDbArc
50
0
51
90
0
ARC
5
200
100
AcDbEntity
8
0
100
AcDbCircle
10
-332.72499999999991
20
132.5
30
0
40
1.5000000000000036
210
0
220
-0
230
1
100
AcDbArc
50
90
51
180
0
ARC
5
201
100
AcDbEntity
8
0
100
AcDbCircle
10
-56.000000000570473
20
128.25000000000011
30
0
40
1.0000000002852971
210
0
220
-0
230
1
100
AcDbArc
50
0
51
89.999999983652458
0
ARC
5
202
100
AcDbEntity
8
0
100
AcDbCircle
10
-55.999999947649464
20
35.999999217197725
30
0
40
1.0000000000000109
210
0
220
0
230
1
100
AcDbArc
50
270.00002108461047
51
360
0
ARC
5
203
100
AcDbEntity
8
0
100
AcDbCircle
10
-338.25000005221693
20
36.000008037456794
30
0
40
0.99999994778301016
210
0
220
0
230
1
100
AcDbArc
50
180
51
269.99999800546215
0
ARC
5
204
100
AcDbEntity
8
0
100
AcDbCircle
10
-335.22500000000002
20
34.000007966963977
30
0
40
1.0000000000000142
210
0
220
-0
230
1
100
AcDbArc
50
0
51
89.99999800546226
0
ARC
5
205
100
AcDbEntity
8
0
100
AcDbCircle
10
-59.024999999999856
20
130.25000000000017
30
0
40
1.0000000000000497
210
0
220
0
230
1
100
AcDbArc
50
180
51
269.99999999999795
0
ARC
5
206
100
AcDbEntity
8
0
100
AcDbCircle
10
-61.524999999999892
20
132.5
30
0
40
1.4999999999999858
210
0
220
0
230
1
100
AcDbArc
50
0
51
90
0
ARC
5
207
100
AcDbEntity
8
0
100
AcDbCircle
10
-143.09166666666667
20
132.5
30
0
40
1.5000000000000036
210
0
220
-0
230
1
100
AcDbArc
50
90
51
180
0
ARC
5
208
100
AcDbEntity
8
0
100
AcDbCircle
10
-338.25
20
128.25
30
0
40
0.99999999999999645
210
0
220
-0
230
1
100
AcDbArc
50
90
51
180
0
ARC
5
209
100
AcDbEntity
8
0
100
AcDbCircle
10
-155.59166661641075
20
32.250002112239571
30
0
40
1.5000000000000213
210
0
220
0
230
1
100
AcDbArc
50
-90
51
0.0084273653133628019
0
ARC
5
210
100
AcDbEntity
8
0
100
AcDbCircle
10
-241.1583333333333
20
130.25
30
0
40
0.99999999999999645
210
0
220
0
230
1
100
AcDbArc
50
-90
51
0
0
ARC
5
211
100
AcDbEntity
8
0
100
AcDbCircle
10
-332.72499999999991
20
32.249999999999979
30
0
40
1.5000000000000568
210
0
220
0
230
1
100
AcDbArc
50
180
51
269.99999999999562
0
ARC
5
212
100
AcDbEntity
8
0
100
AcDbCircle
10
-143.09166666666664
20
32.249999999999979
30
0
40
1.500000019546307
210
0
220
0
230
1
100
AcDbArc
50
179.99999774112726
51
269.99999999999886
0
ARC
5
213
100
AcDbEntity
8
0
100
AcDbCircle
10
-145.59166651762436
20
34.000017625370887
30
0
40
0.99999989982421855
210
0
220
0
230
1
100
AcDbArc
50
-2.0913098143694567e-06
51
89.999987260799756
0
ARC
5
214
100
AcDbEntity
8
0
100
AcDbCircle
10
-61.524999999999963
20
32.250000000000014
30
0
40
1.5000000000000213
210
0
220
0
230
1
100
AcDbArc
50
270.00000000000273
51
359.99999658490543
0
ARC
5
215
100
AcDbEntity
8
0
100
AcDbCircle
10
-248.6583333333333
20
130.25
30
0
40
0.99999999999997868
210
0
220
0
230
1
100
AcDbArc
50
180
51
270
0
ARC
5
216
100
AcDbEntity
8
0
100
AcDbCircle
10
-238.65833333333336
20
32.250002112239571
30
0
40
1.4999999999999858
210
0
220
0
230
1
100
AcDbArc
50
180
51
270
0
LINE
5
217
100
AcDbEntity
8
0
100
AcDbLine
10
-248.6583333333333
20
129.25
30
0
11
-241.1583333333333
21
129.25
31
0
0
ARC
5
218
100
AcDbEntity
8
0
100
AcDbCircle
10
-153.09150662217817
20
33.999859330670787
30
0
40
1.0001599664459111
210
0
220
0
230
1
100
AcDbArc
50
90.00914502747726
51
179.99083493367894
0
ARC
5
219
100
AcDbEntity
8
0
100
AcDbCircle
10
-238.65833333333327
20
132.5
30
0
40
1.5000000000000036
210
0
220
-0
230
1
100
AcDbArc
50
90
51
180
0
ARC
5
220
100
AcDbEntity
8
0
100
AcDbCircle
10
-251.15833333333342
20
32.250000000000028
30
0
40
1.5000000000000391
210
0
220
0
230
1
100
AcDbArc
50
-89.999999999997868
51
0
0
ARC
5
221
100
AcDbEntity
8
0
100
AcDbCircle
10
-248.65833333333336
20
33.999999217197754
30
0
40
1.0000000000000142
210
0
220
-0
230
1
100
AcDbArc
50
90
51
180
0
LWPOLYLINE
5
222
100
AcDbEntity
8
0
100
AcDbPolyline
90
8
70
1
43
0.0
10
-142.48124999999999
20
38.274999999999949
10
-137.4812499999999
20
38.275000000000006
42
0.41421356237308982
10
-136.48124999999996
20
39.275000000000006
10
-136.48124999999996
20
52.27500000000002
42
0.41421356237305079
10
-137.48124999999999
20
53.275000000000034
10
-142.48124999999999
20
53.27500000000002
42
0.41421356237308204
10
-143.48124999999996
20
52.27500000000002
10
-143.48124999999999
20
39.275000000000006
42
0.41421356237302737
0
ARC
5
223
100
AcDbEntity
8
0
100
AcDbCircle
10
-335.22499999999991
20
130.25
30
0
40
0.99999999999999645
210
0
220
0
230
1
100
AcDbArc
50
-90
51
0
0
LWPOLYLINE
5
224
100
AcDbEntity
8
0
100
AcDbPolyline
90
8
70
1
43
0.0
10
-108.875
20
126.47500000000001
10
-108.87499999999997
20
114.47499999999999
42
0.41421356237307944
10
-107.87499999999991
20
113.47499999999998
10
-95.874999999999986
20
113.47500000000002
42
0.41421356237310542
10
-94.874999999999972
20
114.47499999999999
10
-94.874999999999972
20
126.47500000000001
42
0.41421356237308982
10
-95.874999999999986
20
127.47500000000001
10
-107.87499999999991
20
127.47499999999997
42
0.41421356237314183
0
LINE
5
225
100
AcDbEntity
8
0
100
AcDbLine
10
-60.024999999999942
20
32.249999910593047
30
0
11
-60.024999949723536
21
33.999998429334596
31
0
0
ENDSEC
0
SECTION
2
OBJECTS
0
DICTIONARY
5
C
100
AcDbDictionary
3
ACAD_GROUP
350
D
3
ACAD_MLINESTYLE
350
17
0
DICTIONARY
5
D
100
AcDbDictionary
0
DICTIONARY
5
1A
330
C
100
AcDbDictionary
0
DICTIONARY
5
17
100
AcDbDictionary
0
ENDSEC
0
EOF
