0
SECTION
2
HEADER
9
$INSUNITS
70
4
9
$ACADVER
1
AC1014
9
$HANDSEED
5
FFFF
0
ENDSEC
0
SECTION
2
TABLES
0
TABLE
2
VPORT
5
8
100
AcDbSymbolTable
0
ENDTAB
0
TABLE
2
LTYPE
5
5
100
AcDbSymbolTable
0
LTYPE
5
14
100
AcDbSymbolTableRecord
100
AcDbLinetypeTableRecord
2
BYBLOCK
70
0
0
LTYPE
5
15
100
AcDbSymbolTableRecord
100
AcDbLinetypeTableRecord
2
BYLAYER
70
0
0
ENDTAB
0
TABLE
2
LAYER
5
2
100
AcDbSymbolTable
70
2
0
LAYER
5
50
100
AcDbSymbolTableRecord
100
AcDbLayerTableRecord
2
0
70
0
6
CONTINUOUS
0
ENDTAB
0
TABLE
2
STYLE
5
3
100
AcDbSymbolTable
70
1
0
STYLE
5
11
100
AcDbSymbolTableRecord
100
AcDbTextStyleTableRecord
2
STANDARD
70
0
0
ENDTAB
0
TABLE
2
VIEW
5
6
100
AcDbSymbolTable
70
0
0
ENDTAB
0
TABLE
2
UCS
5
7
100
AcDbSymbolTable
70
0
0
ENDTAB
0
TABLE
2
APPID
5
9
100
AcDbSymbolTable
70
2
0
APPID
5
12
100
AcDbSymbolTableRecord
100
AcDbRegAppTableRecord
2
ACAD
70
0
0
ENDTAB
0
TABLE
2
DIMSTYLE
5
A
100
AcDbSymbolTable
70
1
0
ENDTAB
0
TABLE
2
BLOCK_RECORD
5
1
100
AcDbSymbolTable
70
1
0
BLOCK_RECORD
5
1F
100
AcDbSymbolTableRecord
100
AcDbBlockTableRecord
2
*MODEL_SPACE
0
BLOCK_RECORD
5
1B
100
AcDbSymbolTableRecord
100
AcDbBlockTableRecord
2
*PAPER_SPACE
0
ENDTAB
0
ENDSEC
0
SECTION
2
BLOCKS
0
BLOCK
5
20
100
AcDbEntity
100
AcDbBlockBegin
2
*MODEL_SPACE
0
ENDBLK
5
21
100
AcDbEntity
100
AcDbBlockEnd
0
BLOCK
5
1C
100
AcDbEntity
100
AcDbBlockBegin
2
*PAPER_SPACE
0
ENDBLK
5
1D
100
AcDbEntity
100
AcDbBlockEnd
0
ENDSEC
0
SECTION
2
ENTITIES
0
LWPOLYLINE
5
100
100
AcDbEntity
8
0
100
AcDbPolyline
90
70
70
1
43
0.0
10
-350.47500000000002
20
-0.024999999999977263
10
-350.47500000000002
20
-95.224999999999994
42
0.41421356237304302
10
-349.97500000000002
20
-95.724999999999994
10
-345.97499999999997
20
-95.725000000000051
42
-0.41421356237309503
10
-344.97500000000002
20
-96.724999999999994
10
-344.97500000000002
20
-99.000000000000028
42
0.41421356237309503
10
-343.97500000000002
20
-100.00000000000001
10
-259.90833333333336
20
-100.00000000000001
42
0.41421356237309503
10
-258.9083333333333
20
-99.000000000000043
10
-258.9083333333333
20
-96.724999999999994
42
-0.41421356237309503
10
-257.9083333333333
20
-95.724999999999994
10
-251.90833333333336
20
-95.72499999999998
42
-0.41421356237309503
10
-250.90833333333336
20
-96.724999999999994
10
-250.90833333333336
20
-98.999997887760429
42
0.41421356237309503
10
-249.90833333333336
20
-99.999997887760429
10
-164.34166666666664
20
-99.999997887760401
42
0.4142135623730846
10
-163.34166666666664
20
-98.999997887760401
10
-163.34166666666664
20
-96.724999999999994
42
-0.41421356237307422
10
-162.34166666666664
20
-95.72499999999998
10
-156.34166666666664
20
-95.725000000000023
42
-0.41421356237310542
10
-155.34166666666664
20
-96.724999999999994
10
-155.34166666666664
20
-99.000000000000028
42
0.41421356237310542
10
-154.34166666666664
20
-100
10
-70.274999999999963
20
-100
42
0.41421356237310542
10
-69.274999999999949
20
-99.000000000000028
10
-69.274999999999949
20
-96.724999999999994
42
-0.41421356237310542
10
-68.274999999999935
20
-95.725000000000023
10
-64.274999999999949
20
-95.725000000000023
42
0.41421356237310542
10
-63.774999999999977
20
-95.225000000000023
10
-63.774999999999977
20
-0.025000000000005435
42
0.4142135623731284
10
-64.274999999999977
20
0.47499999999998754
10
-68.274999999999935
20
0.47499999999999737
42
-0.41421356237309004
10
-69.274999999999949
20
1.4749999999999943
10
-69.274999999999949
20
3.7499999999999916
42
0.41421356237309503
10
-70.274999999999963
20
4.7500000000000062
10
-154.34166666666664
20
4.7500000000000053
42
0.41421356237309503
10
-155.34166666666664
20
3.7499999999999911
10
-155.34166666666664
20
1.4749999999999963
42
-0.41421356237309004
10
-156.34166666666664
20
0.47499999999999903
10
-162.34166666666664
20
0.47499999999999987
42
-0.41421356237306922
10
-163.34166666666664
20
1.474999999999997
10
-163.34166666666664
20
3.7499999999999551
42
0.4142135623730846
10
-164.34166666666667
20
4.7500000000000044
10
-249.90833333333327
20
4.7500000000000098
42
0.41421356237310542
10
-250.90833333333333
20
3.7500000000000133
10
-250.9083333333333
20
1.4749999999999976
42
-0.41421356237309792
10
-251.9083333333333
20
0.47499999999999154
10
-257.9083333333333
20
0.47499999999997378
42
-0.41421356237309781
10
-258.9083333333333
20
1.4749999999999974
10
-258.9083333333333
20
3.7500000000000178
42
0.41421356237309503
10
-259.9083333333333
20
4.7500000000000071
10
-324.2338984770729
20
4.7500000000000062
10
-323.82602033088523
20
7.6159012319375101
42
-0.37338743347353526
10
-322.83599667316867
20
8.4749999999999659
10
-60.775000000000006
20
8.4750000000000014
42
-0.41421356237309503
10
-58.774999999999977
20
6.474999999999973
10
-58.775000000000048
20
-101.72500000000007
42
-0.41421356237309503
10
-60.775000000000006
20
-103.72500000000002
10
-353.47499999999997
20
-103.72500000000002
42
-0.41421356237310542
10
-355.47500000000002
20
-101.72500000000007
10
-355.47500000000002
20
6.474999999999973
42
-0.41421356237309503
10
-353.47499999999997
20
8.4749999999999659
10
-339.06400332683131
20
8.4750000000000494
42
-0.37338743347353526
10
-338.07397966911469
20
7.6159012319375208
10
-337.66610152292697
20
4.7500000000000098
10
-343.97500000000002
20
4.7500000000000071
42
0.41421356237309503
10
-344.97500000000002
20
3.7500000000000067
10
-344.97499999999997
20
1.4749999999999994
42
-0.41421356237309498
10
-345.97499999999997
20
0.47499999999999987
10
-349.97500000000002
20
0.47500000000000009
42
0.41421356237308182
0
CIRCLE
5
101
100
AcDbEntity
8
0
100
AcDbCircle
10
-159.34166666666664
20
-99.724999999999994
30
0
40
3.0000000000000018
210
0
220
0
230
1
0
CIRCLE
5
102
100
AcDbEntity
8
0
100
AcDbCircle
10
-63.774999999999977
20
-99.724999999999994
30
0
40
3.0000000000000053
210
0
220
0
230
1
0
CIRCLE
5
103
100
AcDbEntity
8
0
100
AcDbCircle
10
-254.90833333333336
20
-99.724999999999994
30
0
40
3.0000000000000071
210
0
220
0
230
1
0
CIRCLE
5
104
100
AcDbEntity
8
0
100
AcDbCircle
10
-350.47500000000002
20
-99.724999999999994
30
0
40
3.0000000000000018
210
0
220
0
230
1
0
CIRCLE
5
105
100
AcDbEntity
8
0
100
AcDbCircle
10
-350.47500000000002
20
4.4749999999999996
30
0
40
3.0000000000000004
210
0
220
0
230
1
0
CIRCLE
5
106
100
AcDbEntity
8
0
100
AcDbCircle
10
-254.9083333333333
20
4.4749999999999996
30
0
40
2.9999999999999938
210
0
220
0
230
1
0
CIRCLE
5
107
100
AcDbEntity
8
0
100
AcDbCircle
10
-159.34166666666664
20
4.4750000000000014
30
0
40
2.9999999999999853
210
0
220
0
230
1
0
CIRCLE
5
108
100
AcDbEntity
8
0
100
AcDbCircle
10
-63.774999999999977
20
4.4749999999999996
30
0
40
2.9999999999999933
210
0
220
0
230
1
0
ENDSEC
0
SECTION
2
OBJECTS
0
DICTIONARY
5
C
100
AcDbDictionary
3
ACAD_GROUP
350
D
3
ACAD_MLINESTYLE
350
17
0
DICTIONARY
5
D
100
AcDbDictionary
0
DICTIONARY
5
1A
330
C
100
AcDbDictionary
0
DICTIONARY
5
17
100
AcDbDictionary
0
ENDSEC
0
EOF
