0
SECTION
2
HEADER
9
$INSUNITS
70
4
9
$ACADVER
1
AC1014
9
$HANDSEED
5
FFFF
0
ENDSEC
0
SECTION
2
TABLES
0
TABLE
2
VPORT
5
8
100
AcDbSymbolTable
0
ENDTAB
0
TABLE
2
LTYPE
5
5
100
AcDbSymbolTable
0
LTYPE
5
14
100
AcDbSymbolTableRecord
100
AcDbLinetypeTableRecord
2
BYBLOCK
70
0
0
LTYPE
5
15
100
AcDbSymbolTableRecord
100
AcDbLinetypeTableRecord
2
BYLAYER
70
0
0
ENDTAB
0
TABLE
2
LAYER
5
2
100
AcDbSymbolTable
70
2
0
LAYER
5
50
100
AcDbSymbolTableRecord
100
AcDbLayerTableRecord
2
0
70
0
6
CONTINUOUS
0
ENDTAB
0
TABLE
2
STYLE
5
3
100
AcDbSymbolTable
70
1
0
STYLE
5
11
100
AcDbSymbolTableRecord
100
AcDbTextStyleTableRecord
2
STANDARD
70
0
0
ENDTAB
0
TABLE
2
VIEW
5
6
100
AcDbSymbolTable
70
0
0
ENDTAB
0
TABLE
2
UCS
5
7
100
AcDbSymbolTable
70
0
0
ENDTAB
0
TABLE
2
APPID
5
9
100
AcDbSymbolTable
70
2
0
APPID
5
12
100
AcDbSymbolTableRecord
100
AcDbRegAppTableRecord
2
ACAD
70
0
0
ENDTAB
0
TABLE
2
DIMSTYLE
5
A
100
AcDbSymbolTable
70
1
0
ENDTAB
0
TABLE
2
BLOCK_RECORD
5
1
100
AcDbSymbolTable
70
1
0
BLOCK_RECORD
5
1F
100
AcDbSymbolTableRecord
100
AcDbBlockTableRecord
2
*MODEL_SPACE
0
BLOCK_RECORD
5
1B
100
AcDbSymbolTableRecord
100
AcDbBlockTableRecord
2
*PAPER_SPACE
0
ENDTAB
0
ENDSEC
0
SECTION
2
BLOCKS
0
BLOCK
5
20
100
AcDbEntity
100
AcDbBlockBegin
2
*MODEL_SPACE
0
ENDBLK
5
21
100
AcDbEntity
100
AcDbBlockEnd
0
BLOCK
5
1C
100
AcDbEntity
100
AcDbBlockBegin
2
*PAPER_SPACE
0
ENDBLK
5
1D
100
AcDbEntity
100
AcDbBlockEnd
0
ENDSEC
0
SECTION
2
ENTITIES
0
LWPOLYLINE
5
100
100
AcDbEntity
8
0
100
AcDbPolyline
90
8
70
1
43
0.0
10
202.26249999999993
20
-577.4375
42
-0.41421356237309503
10
201.26249999999999
20
-578.4375
10
189.26249999999999
20
-578.43750000000011
42
-0.41421356237309503
10
188.26249999999999
20
-577.4375
10
188.26249999999999
20
-565.4375
42
-0.41421356237309503
10
189.26249999999999
20
-564.4375
10
201.26249999999999
20
-564.4375
42
-0.41421356237309503
10
202.26249999999999
20
-565.4375
0
LWPOLYLINE
5
101
100
AcDbEntity
8
0
100
AcDbPolyline
90
8
70
1
43
0.0
10
192.73749999999995
20
-596.48750000000007
42
-0.41421356237309503
10
191.73750000000001
20
-597.48749999999995
10
179.73750000000001
20
-597.48750000000007
42
-0.41421356237309503
10
178.73750000000001
20
-596.48750000000007
10
178.73750000000001
20
-584.48750000000007
42
-0.41421356237309503
10
179.7375000000001
20
-583.48749999999995
10
191.73750000000001
20
-583.48750000000007
42
-0.41421356237309503
10
192.73750000000004
20
-584.48750000000007
0
LWPOLYLINE
5
102
100
AcDbEntity
8
0
100
AcDbPolyline
90
8
70
1
43
0.0
10
197.78750000000002
20
-615.53750000000014
10
197.78750000000002
20
-603.53750000000002
42
-0.41421356237309503
10
198.78750000000011
20
-602.53749999999991
10
210.78749999999999
20
-602.53750000000002
42
-0.41421356237309503
10
211.78750000000002
20
-603.53750000000002
10
211.78749999999994
20
-615.53750000000014
42
-0.41421356237309503
10
210.78749999999999
20
-616.53750000000002
10
198.78749999999999
20
-616.53750000000002
42
-0.41421356237309503
0
LWPOLYLINE
5
103
100
AcDbEntity
8
0
100
AcDbPolyline
90
8
70
1
43
0.0
10
208.3125
20
-578.4375
42
-0.41421356237309503
10
207.31250000000003
20
-577.4375
10
207.3125
20
-565.4375
42
-0.41421356237309503
10
208.3125
20
-564.4375
10
220.3125
20
-564.4375
42
-0.41421356237309503
10
221.3125
20
-565.4375
10
221.31249999999994
20
-577.4375
42
-0.41421356237309503
10
220.3125
20
-578.4375
0
LWPOLYLINE
5
104
100
AcDbEntity
8
0
100
AcDbPolyline
90
8
70
1
43
0.0
10
197.78750000000002
20
-596.48750000000007
10
197.78749999999991
20
-584.48750000000007
42
-0.41421356237309503
10
198.78749999999999
20
-583.48749999999995
10
210.78749999999999
20
-583.48750000000007
42
-0.41421356237309503
10
211.78750000000002
20
-584.48750000000007
10
211.78749999999994
20
-596.48750000000007
42
-0.41421356237309503
10
210.78749999999999
20
-597.48749999999995
10
198.78749999999999
20
-597.48749999999995
42
-0.41421356237309503
0
LWPOLYLINE
5
105
100
AcDbEntity
8
0
100
AcDbPolyline
90
8
70
1
43
0.0
10
229.83750000000001
20
-583.48750000000007
42
-0.41421356237309503
10
230.83750000000003
20
-584.48750000000007
10
230.83749999999995
20
-596.48750000000007
42
-0.41421356237309503
10
229.83750000000001
20
-597.48749999999995
10
217.83750000000001
20
-597.48749999999995
42
-0.41421356237309503
10
216.83750000000003
20
-596.48750000000007
10
216.83749999999992
20
-584.48750000000007
42
-0.41421356237309503
10
217.83750000000001
20
-583.48749999999995
0
LWPOLYLINE
5
106
100
AcDbEntity
8
0
100
AcDbPolyline
90
8
70
1
43
0.0
10
227.36250000000001
20
-578.43750000000011
42
-0.41421356237309503
10
226.36250000000001
20
-577.4375
10
226.36250000000001
20
-565.4375
42
-0.41421356237309503
10
227.36250000000001
20
-564.4375
10
239.36250000000001
20
-564.4375
42
-0.41421356237309503
10
240.36250000000001
20
-565.4375
10
240.36249999999995
20
-577.4375
42
-0.41421356237309503
10
239.36250000000001
20
-578.4375
0
LWPOLYLINE
5
107
100
AcDbEntity
8
0
100
AcDbPolyline
90
8
70
1
43
0.0
10
227.36250000000001
20
-616.53750000000002
42
-0.41421356237309503
10
226.36250000000004
20
-615.53750000000014
10
226.36250000000001
20
-603.53750000000002
42
-0.41421356237309503
10
227.3625000000001
20
-602.53749999999991
10
239.36250000000001
20
-602.53749999999991
42
-0.41421356237309503
10
240.36250000000001
20
-603.53749999999991
10
240.36249999999995
20
-615.53750000000014
42
-0.41421356237309503
10
239.36250000000001
20
-616.53750000000002
0
LWPOLYLINE
5
108
100
AcDbEntity
8
0
100
AcDbPolyline
90
8
70
1
43
0.0
10
254.93750000000003
20
-608.29999999999995
42
-0.41421356237309503
10
255.93749999999997
20
-607.30000000000007
10
267.9375
20
-607.30000000000007
42
-0.41421356237309503
10
268.9375
20
-608.29999999999995
10
268.9375
20
-620.29999999999995
42
-0.41421356237309503
10
267.9375
20
-621.29999999999995
10
255.9375
20
-621.29999999999995
42
-0.41421356237309503
10
254.93750000000003
20
-620.29999999999995
0
LWPOLYLINE
5
109
100
AcDbEntity
8
0
100
AcDbPolyline
90
8
70
1
43
0.0
10
273.98750000000001
20
-601.25
10
273.98750000000007
20
-589.25
42
-0.41421356237309503
10
274.98750000000001
20
-588.25
10
286.98750000000007
20
-588.25
42
-0.41421356237309503
10
287.98750000000001
20
-589.25
10
287.98750000000007
20
-601.25
42
-0.41421356237309503
10
286.98750000000013
20
-602.25
10
274.98750000000001
20
-602.25
42
-0.41421356237309503
0
LWPOLYLINE
5
110
100
AcDbEntity
8
0
100
AcDbPolyline
90
8
70
1
43
0.0
10
257.03124999999994
20
-596.48750000000007
42
-0.41421356237309503
10
256.03125
20
-597.48749999999995
10
244.03125000000003
20
-597.48750000000007
42
-0.41421356237309503
10
243.03125
20
-596.48750000000007
10
243.03124999999994
20
-584.48750000000007
42
-0.41421356237309503
10
244.03125000000003
20
-583.48749999999995
10
256.03125
20
-583.48750000000007
42
-0.41421356237309503
10
257.03125000000006
20
-584.48750000000007
0
LWPOLYLINE
5
111
100
AcDbEntity
8
0
100
AcDbPolyline
90
8
70
1
43
0.0
10
274.98750000000001
20
-621.30000000000007
42
-0.41421356237309503
10
273.98750000000001
20
-620.29999999999995
10
273.98750000000007
20
-608.29999999999995
42
-0.41421356237309503
10
274.98750000000001
20
-607.30000000000007
10
286.98750000000007
20
-607.29999999999995
42
-0.41421356237309503
10
287.98750000000007
20
-608.29999999999995
10
287.98749999999995
20
-620.29999999999995
42
-0.41421356237309503
10
286.98750000000007
20
-621.29999999999995
0
LWPOLYLINE
5
112
100
AcDbEntity
8
0
100
AcDbPolyline
90
8
70
1
43
0.0
10
92.724999999999937
20
-539.33750000000009
42
-0.41421356237309503
10
91.724999999999994
20
-540.33749999999998
10
79.724999999999994
20
-540.33750000000009
42
-0.41421356237309503
10
78.724999999999994
20
-539.33750000000009
10
78.724999999999994
20
-527.33749999999998
42
-0.41421356237309503
10
79.724999999999994
20
-526.33749999999998
10
91.724999999999994
20
-526.33749999999998
42
-0.41421356237309503
10
92.724999999999994
20
-527.33749999999998
0
LWPOLYLINE
5
113
100
AcDbEntity
8
0
100
AcDbPolyline
90
8
70
1
43
0.0
10
186.97500000000002
20
-540.33749999999998
10
174.97499999999999
20
-540.33749999999998
42
-0.41421356237309503
10
173.97500000000002
20
-539.33750000000009
10
173.97499999999997
20
-527.33749999999998
42
-0.41421356237309503
10
174.97499999999999
20
-526.33749999999998
10
186.97500000000002
20
-526.33750000000009
42
-0.41421356237309503
10
187.97499999999999
20
-527.33749999999998
10
187.97499999999997
20
-539.33750000000009
42
-0.41421356237309503
0
LWPOLYLINE
5
114
100
AcDbEntity
8
0
100
AcDbPolyline
90
14
70
1
43
0.0
10
372.95000000000005
20
-633.29999999999995
10
-1.4750000000000001
20
-633.29999999999995
42
-0.41421356237306906
10
-5.4749999999999872
20
-629.29999999999995
10
-5.4750000000000281
20
-494.52499999999998
42
-0.41421356237309809
10
-1.4750000000000085
20
-490.52500000000003
10
282.01250000000005
20
-490.52500000000003
42
-0.41421356237307422
10
284.01250000000005
20
-492.52500000000003
10
284.01249999999999
20
-504.29314321881344
10
297.01250000000005
20
-504.34551692410395
10
297.01250000000005
20
-492.52499999999998
42
-0.41421356237305862
10
299.01249999999999
20
-490.52500000000003
10
372.95000000000005
20
-490.52500000000003
42
-0.41421356237310542
10
376.94999999999999
20
-494.52499999999998
10
376.95000000000005
20
-629.29999999999995
42
-0.41421356237307422
0
LWPOLYLINE
5
115
100
AcDbEntity
8
0
100
AcDbPolyline
90
8
70
1
43
0.0
10
282.22500000000002
20
-502.52499999999998
10
270.22500000000002
20
-502.52499999999998
42
0.41421356237309503
10
269.22500000000002
20
-503.52499999999998
10
269.22500000000002
20
-515.52499999999998
42
0.41421356237309503
10
270.22500000000002
20
-516.52500000000009
10
282.22500000000002
20
-516.52500000000009
42
0.41421356237309503
10
283.22500000000002
20
-515.52499999999998
10
283.22500000000002
20
-503.52499999999998
42
0.41421356237309503
0
LWPOLYLINE
5
116
100
AcDbEntity
8
0
100
AcDbPolyline
90
8
70
1
43
0.0
10
154.63749999999993
20
-596.48750000000007
42
-0.41421356237309503
10
153.63749999999999
20
-597.48749999999995
10
141.63749999999999
20
-597.48750000000007
42
-0.41421356237309503
10
140.63750000000002
20
-596.48750000000007
10
140.63749999999993
20
-584.48750000000007
42
-0.41421356237309503
10
141.63749999999999
20
-583.48749999999995
10
153.63749999999999
20
-583.48750000000007
42
-0.41421356237309503
10
154.63749999999999
20
-584.48750000000007
0
LWPOLYLINE
5
117
100
AcDbEntity
8
0
100
AcDbPolyline
90
8
70
1
43
0.0
10
101.25000000000006
20
-559.38750000000005
10
89.25
20
-559.38750000000005
42
-0.41421356237309503
10
88.250000000000014
20
-558.38750000000005
10
88.250000000000014
20
-546.38750000000005
42
-0.41421356237309503
10
89.250000000000028
20
-545.38750000000005
10
101.25
20
-545.38750000000005
42
-0.41421356237309503
10
102.25
20
-546.38750000000005
10
102.25
20
-558.38750000000005
42
-0.41421356237309503
0
LWPOLYLINE
5
118
100
AcDbEntity
8
0
100
AcDbPolyline
90
8
70
1
43
0.0
10
96.487499999999997
20
-516.52500000000009
10
84.487500000000011
20
-516.52500000000009
42
-0.41421356237309503
10
83.487500000000011
20
-515.52499999999998
10
83.487500000000011
20
-503.52499999999998
42
-0.41421356237309503
10
84.487500000000026
20
-502.52499999999998
10
96.487499999999997
20
-502.52499999999998
42
-0.41421356237309503
10
97.487499999999997
20
-503.52499999999998
10
97.487500000000011
20
-515.52499999999998
42
-0.41421356237309503
0
LWPOLYLINE
5
119
100
AcDbEntity
8
0
100
AcDbPolyline
90
8
70
1
43
0.0
10
96.487499999999997
20
-597.48749999999995
10
84.487500000000011
20
-597.48750000000007
42
-0.41421356237309503
10
83.487500000000011
20
-596.48750000000007
10
83.487499999999926
20
-584.48750000000007
42
-0.41421356237309503
10
84.487500000000011
20
-583.48749999999995
10
96.487499999999997
20
-583.48750000000007
42
-0.41421356237309503
10
97.487500000000011
20
-584.48750000000007
10
97.48749999999994
20
-596.48750000000007
42
-0.41421356237309503
0
LWPOLYLINE
5
120
100
AcDbEntity
8
0
100
AcDbPolyline
90
8
70
1
43
0.0
10
277.46249999999998
20
-545.38750000000005
42
-0.41421356237309503
10
278.46249999999998
20
-546.38750000000005
10
278.46249999999998
20
-558.38750000000005
42
-0.41421356237309503
10
277.46250000000003
20
-559.38750000000005
10
265.46249999999998
20
-559.38750000000005
42
-0.41421356237309503
10
264.46249999999998
20
-558.38749999999993
10
264.46249999999998
20
-546.38750000000005
42
-0.41421356237309503
10
265.46249999999998
20
-545.38750000000005
0
LWPOLYLINE
5
121
100
AcDbEntity
8
0
100
AcDbPolyline
90
8
70
1
43
0.0
10
54.912500000000009
20
-577.4375
10
54.912499999999994
20
-565.4375
42
-0.41421356237309503
10
55.912500000000009
20
-564.4375
10
67.912499999999994
20
-564.4375
42
-0.41421356237309503
10
68.912499999999994
20
-565.4375
10
68.912499999999937
20
-577.4375
42
-0.41421356237309503
10
67.912499999999994
20
-578.4375
10
55.912500000000009
20
-578.43750000000011
42
-0.41421356237309503
0
LWPOLYLINE
5
122
100
AcDbEntity
8
0
100
AcDbPolyline
90
8
70
1
43
0.0
10
23.668749999999946
20
-577.4375
10
23.668749999999999
20
-565.4375
42
0.41421356237309503
10
22.668750000000003
20
-564.4375
10
5.9062500000000151
20
-564.4375
42
0.41421356237309503
10
4.90625
20
-565.4375
10
4.90625
20
-577.4375
42
0.41421356237309503
10
5.9062500000000018
20
-578.4375
10
22.668750000000003
20
-578.4375
42
0.41421356237309503
0
LWPOLYLINE
5
123
100
AcDbEntity
8
0
100
AcDbPolyline
90
8
70
1
43
0.0
10
49.862499999999997
20
-577.4375
10
49.862499999999997
20
-565.4375
42
0.41421356237309503
10
48.862500000000004
20
-564.4375
10
36.862499999999997
20
-564.4375
42
0.41421356237309503
10
35.862499999999997
20
-565.4375
10
35.862499999999997
20
-577.4375
42
0.41421356237309503
10
36.862499999999997
20
-578.4375
10
48.862500000000004
20
-578.4375
42
0.41421356237309503
0
LWPOLYLINE
5
124
100
AcDbEntity
8
0
100
AcDbPolyline
90
8
70
1
43
0.0
10
140.34999999999994
20
-558.38750000000005
10
140.34999999999999
20
-546.38750000000005
42
0.41421356237309503
10
139.34999999999999
20
-545.38750000000005
10
127.35000000000001
20
-545.38750000000005
42
0.41421356237309503
10
126.34999999999999
20
-546.38750000000005
10
126.34999999999999
20
-558.38749999999993
42
0.41421356237309503
10
127.34999999999999
20
-559.38750000000005
10
139.34999999999999
20
-559.38750000000005
42
0.41421356237309503
0
LWPOLYLINE
5
125
100
AcDbEntity
8
0
100
AcDbPolyline
90
8
70
1
43
0.0
10
160.6875
20
-597.48750000000007
42
-0.41421356237309503
10
159.6875
20
-596.48750000000007
10
159.68749999999994
20
-584.48750000000007
42
-0.41421356237309503
10
160.6875
20
-583.48749999999995
10
172.6875
20
-583.48750000000007
42
-0.41421356237309503
10
173.68750000000003
20
-584.48750000000007
10
173.68749999999994
20
-596.48750000000007
42
-0.41421356237309503
10
172.6875
20
-597.48749999999995
0
LWPOLYLINE
5
126
100
AcDbEntity
8
0
100
AcDbPolyline
90
8
70
1
43
0.0
10
234.60000000000002
20
-545.38750000000005
10
222.60000000000002
20
-545.38750000000005
42
0.41421356237309503
10
221.59999999999999
20
-546.38750000000005
10
221.59999999999999
20
-558.38749999999993
42
0.41421356237309503
10
222.60000000000002
20
-559.38750000000005
10
234.60000000000002
20
-559.38750000000005
42
0.41421356237309503
10
235.59999999999997
20
-558.38750000000005
10
235.60000000000002
20
-546.38750000000005
42
0.41421356237309503
0
LWPOLYLINE
5
127
100
AcDbEntity
8
0
100
AcDbPolyline
90
8
70
1
43
0.0
10
159.40000000000001
20
-558.38750000000005
10
159.40000000000001
20
-546.38750000000005
42
0.41421356237309503
10
158.40000000000001
20
-545.38750000000005
10
146.40000000000001
20
-545.38750000000005
42
0.41421356237309503
10
145.39999999999998
20
-546.38750000000005
10
145.40000000000001
20
-558.38749999999993
42
0.41421356237309503
10
146.40000000000001
20
-559.38750000000005
10
158.40000000000006
20
-559.38750000000005
42
0.41421356237309503
0
LWPOLYLINE
5
128
100
AcDbEntity
8
0
100
AcDbPolyline
90
8
70
1
43
0.0
10
87.962500000000006
20
-577.4375
10
87.962500000000006
20
-565.4375
42
0.41421356237309503
10
86.962500000000006
20
-564.4375
10
74.962500000000006
20
-564.4375
42
0.41421356237309503
10
73.962500000000006
20
-565.4375
10
73.962500000000006
20
-577.4375
42
0.41421356237309503
10
74.962500000000006
20
-578.4375
10
86.962500000000006
20
-578.4375
42
0.41421356237309503
0
LWPOLYLINE
5
129
100
AcDbEntity
8
0
100
AcDbPolyline
90
8
70
1
43
0.0
10
239.36250000000001
20
-516.52500000000009
10
227.36250000000001
20
-516.52500000000009
42
-0.41421356237309503
10
226.36250000000004
20
-515.52499999999998
10
226.36250000000001
20
-503.52499999999998
42
-0.41421356237309503
10
227.36250000000001
20
-502.52499999999998
10
239.36250000000001
20
-502.52499999999998
42
-0.41421356237309503
10
240.36250000000001
20
-503.52499999999998
10
240.36250000000001
20
-515.52499999999998
42
-0.41421356237309503
0
LWPOLYLINE
5
130
100
AcDbEntity
8
0
100
AcDbPolyline
90
8
70
1
43
0.0
10
164.44999999999996
20
-558.38749999999993
10
164.44999999999999
20
-546.38750000000005
42
-0.41421356237309503
10
165.45000000000002
20
-545.38750000000005
10
177.45000000000002
20
-545.38750000000005
42
-0.41421356237309503
10
178.45000000000002
20
-546.38750000000005
10
178.44999999999996
20
-558.38750000000005
42
-0.41421356237309503
10
177.45000000000002
20
-559.38750000000005
10
165.44999999999999
20
-559.38750000000005
42
-0.41421356237309503
0
LWPOLYLINE
5
131
100
AcDbEntity
8
0
100
AcDbPolyline
90
8
70
1
43
0.0
10
121.30000000000001
20
-558.38750000000005
10
121.30000000000001
20
-546.38750000000005
42
0.41421356237309503
10
120.30000000000001
20
-545.38750000000005
10
108.3
20
-545.38750000000005
42
0.41421356237309503
10
107.29999999999998
20
-546.38750000000005
10
107.30000000000001
20
-558.38749999999993
42
0.41421356237309503
10
108.3
20
-559.38750000000005
10
120.30000000000007
20
-559.38750000000005
42
0.41421356237309503
0
LWPOLYLINE
5
132
100
AcDbEntity
8
0
100
AcDbPolyline
90
8
70
1
43
0.0
10
183.5
20
-558.38750000000005
10
183.49999999999997
20
-546.38750000000005
42
-0.41421356237309503
10
184.5
20
-545.38750000000005
10
196.50000000000003
20
-545.38750000000005
42
-0.41421356237309503
10
197.5
20
-546.38750000000005
10
197.50000000000003
20
-558.38750000000005
42
-0.41421356237309503
10
196.50000000000009
20
-559.38750000000005
10
184.5
20
-559.38750000000005
42
-0.41421356237309503
0
LWPOLYLINE
5
133
100
AcDbEntity
8
0
100
AcDbPolyline
90
8
70
1
43
0.0
10
212.07499999999999
20
-539.33750000000009
10
212.07499999999999
20
-527.33749999999998
42
-0.41421356237309503
10
213.07500000000002
20
-526.33749999999998
10
225.07499999999999
20
-526.33749999999998
42
-0.41421356237309503
10
226.07500000000002
20
-527.33749999999998
10
226.07499999999993
20
-539.33750000000009
42
-0.41421356237309503
10
225.07499999999999
20
-540.33749999999998
10
213.07500000000002
20
-540.33750000000009
42
-0.41421356237309503
0
LWPOLYLINE
5
134
100
AcDbEntity
8
0
100
AcDbPolyline
90
8
70
1
43
0.0
10
164.16249999999994
20
-577.4375
42
-0.41421356237309503
10
163.16249999999999
20
-578.4375
10
151.16250000000002
20
-578.43750000000011
42
-0.41421356237309503
10
150.16250000000002
20
-577.4375
10
150.16249999999999
20
-565.4375
42
-0.41421356237309503
10
151.16250000000002
20
-564.4375
10
163.16249999999999
20
-564.4375
42
-0.41421356237309503
10
164.16250000000002
20
-565.4375
0
LWPOLYLINE
5
135
100
AcDbEntity
8
0
100
AcDbPolyline
90
8
70
1
43
0.0
10
107.29999999999998
20
-503.52499999999998
42
-0.41421356237309503
10
108.3
20
-502.52499999999998
10
120.30000000000001
20
-502.52499999999998
42
-0.41421356237309503
10
121.30000000000001
20
-503.52499999999998
10
121.30000000000003
20
-515.52499999999998
42
-0.41421356237309503
10
120.30000000000001
20
-516.52500000000009
10
108.3
20
-516.52500000000009
42
-0.41421356237309503
10
107.30000000000001
20
-515.52499999999998
0
LWPOLYLINE
5
136
100
AcDbEntity
8
0
100
AcDbPolyline
90
8
70
1
43
0.0
10
317.85000000000002
20
-616.53750000000014
42
-0.41421356237309503
10
316.85000000000002
20
-615.53750000000014
10
316.84999999999997
20
-603.53750000000002
42
-0.41421356237309503
10
317.85000000000002
20
-602.53749999999991
10
329.85000000000008
20
-602.53750000000002
42
-0.41421356237309503
10
330.85000000000008
20
-603.53750000000002
10
330.85000000000002
20
-615.53750000000014
42
-0.41421356237309503
10
329.85000000000008
20
-616.53750000000002
0
LWPOLYLINE
5
137
100
AcDbEntity
8
0
100
AcDbPolyline
90
8
70
1
43
0.0
10
111.77499999999995
20
-539.33750000000009
42
-0.41421356237309503
10
110.77500000000001
20
-540.33749999999998
10
98.775000000000006
20
-540.33750000000009
42
-0.41421356237309503
10
97.77500000000002
20
-539.33750000000009
10
97.775000000000006
20
-527.33749999999998
42
-0.41421356237309503
10
98.775000000000006
20
-526.33749999999998
10
110.77500000000001
20
-526.33749999999998
42
-0.41421356237309503
10
111.77500000000002
20
-527.33749999999998
0
LWPOLYLINE
5
138
100
AcDbEntity
8
0
100
AcDbPolyline
90
8
70
1
43
0.0
10
201.26249999999999
20
-516.52500000000009
10
189.26249999999999
20
-516.52500000000009
42
-0.41421356237309503
10
188.26249999999999
20
-515.52499999999998
10
188.26249999999999
20
-503.52499999999998
42
-0.41421356237309503
10
189.26249999999999
20
-502.52499999999998
10
201.26249999999999
20
-502.52499999999998
42
-0.41421356237309503
10
202.26249999999999
20
-503.52499999999998
10
202.26249999999999
20
-515.52499999999998
42
-0.41421356237309503
0
LWPOLYLINE
5
139
100
AcDbEntity
8
0
100
AcDbPolyline
90
8
70
1
43
0.0
10
82.200000000000003
20
-545.38750000000005
42
-0.41421356237309503
10
83.200000000000003
20
-546.38750000000005
10
83.200000000000003
20
-558.38750000000005
42
-0.41421356237309503
10
82.20000000000006
20
-559.38750000000005
10
70.200000000000003
20
-559.38750000000005
42
-0.41421356237309503
10
69.200000000000003
20
-558.38750000000005
10
69.199999999999989
20
-546.38750000000005
42
-0.41421356237309503
10
70.200000000000003
20
-545.38750000000005
0
LWPOLYLINE
5
140
100
AcDbEntity
8
0
100
AcDbPolyline
90
8
70
1
43
0.0
10
220.3125
20
-502.52499999999998
42
-0.41421356237309503
10
221.3125
20
-503.52499999999998
10
221.3125
20
-515.52499999999998
42
-0.41421356237309503
10
220.3125
20
-516.52500000000009
10
208.3125
20
-516.52500000000009
42
-0.41421356237309503
10
207.31250000000003
20
-515.52499999999998
10
207.3125
20
-503.52499999999998
42
-0.41421356237309503
10
208.3125
20
-502.52499999999998
0
LWPOLYLINE
5
141
100
AcDbEntity
8
0
100
AcDbPolyline
90
8
70
1
43
0.0
10
16.525000000000002
20
-539.33750000000009
10
16.525000000000002
20
-527.33749999999998
42
0.41421356237309503
10
15.525000000000002
20
-526.33749999999998
10
3.5250000000000004
20
-526.33749999999998
42
0.41421356237309503
10
2.5249999999999861
20
-527.33749999999998
10
2.5250000000000004
20
-539.33750000000009
42
0.41421356237309503
10
3.5250000000000004
20
-540.33749999999998
10
15.525000000000002
20
-540.33749999999998
42
0.41421356237309503
0
LWPOLYLINE
5
142
100
AcDbEntity
8
0
100
AcDbPolyline
90
8
70
1
43
0.0
10
293.03750000000002
20
-620.29999999999995
10
293.03750000000008
20
-608.29999999999995
42
-0.41421356237309503
10
294.03750000000002
20
-607.30000000000007
10
306.03750000000002
20
-607.30000000000007
42
-0.41421356237309503
10
307.03750000000002
20
-608.29999999999995
10
307.03750000000002
20
-620.29999999999995
42
-0.41421356237309503
10
306.03750000000002
20
-621.29999999999995
10
294.03750000000002
20
-621.29999999999995
42
-0.41421356237309503
0
LWPOLYLINE
5
143
100
AcDbEntity
8
0
100
AcDbPolyline
90
8
70
1
43
0.0
10
145.39999999999998
20
-503.52499999999998
42
-0.41421356237309503
10
146.40000000000001
20
-502.52499999999998
10
158.40000000000001
20
-502.52499999999998
42
-0.41421356237309503
10
159.40000000000001
20
-503.52499999999998
10
159.40000000000001
20
-515.52499999999998
42
-0.41421356237309503
10
158.40000000000001
20
-516.52500000000009
10
146.40000000000001
20
-516.52500000000009
42
-0.41421356237309503
10
145.40000000000001
20
-515.52499999999998
0
LWPOLYLINE
5
144
100
AcDbEntity
8
0
100
AcDbPolyline
90
8
70
1
43
0.0
10
178.45000000000002
20
-515.52499999999998
10
178.44999999999999
20
-503.52499999999992
42
0.41421356237309503
10
177.45000000000002
20
-502.52499999999998
10
165.44999999999999
20
-502.52499999999998
42
0.41421356237309503
10
164.44999999999996
20
-503.52499999999998
10
164.44999999999996
20
-515.52499999999998
42
0.41421356237309503
10
165.44999999999999
20
-516.52500000000009
10
177.45000000000002
20
-516.52500000000009
42
0.41421356237309503
0
LWPOLYLINE
5
145
100
AcDbEntity
8
0
100
AcDbPolyline
90
8
70
1
43
0.0
10
216.54999999999998
20
-558.38750000000005
10
216.55000000000004
20
-546.38750000000005
42
0.41421356237309503
10
215.55000000000004
20
-545.38750000000005
10
203.55000000000004
20
-545.38750000000005
42
0.41421356237309503
10
202.55000000000001
20
-546.38750000000005
10
202.55000000000001
20
-558.38750000000005
42
0.41421356237309503
10
203.55000000000004
20
-559.38750000000005
10
215.55000000000004
20
-559.38750000000005
42
0.41421356237309503
0
LWPOLYLINE
5
146
100
AcDbEntity
8
0
100
AcDbPolyline
90
8
70
1
43
0.0
10
116.53749999999995
20
-596.48750000000007
42
-0.41421356237309503
10
115.53750000000001
20
-597.48749999999995
10
103.53749999999999
20
-597.48750000000007
42
-0.41421356237309503
10
102.53749999999999
20
-596.48750000000007
10
102.53749999999991
20
-584.48750000000007
42
-0.41421356237309503
10
103.53749999999999
20
-583.48749999999995
10
115.53750000000001
20
-583.48750000000007
42
-0.41421356237309503
10
116.53750000000001
20
-584.48750000000007
0
ARC
5
147
100
AcDbEntity
8
0
100
AcDbCircle
10
117.825
20
-603.53750000000002
30
0
40
1.0000000000000853
210
0
220
-0
230
1
100
AcDbArc
50
90
51
180
0
LWPOLYLINE
5
148
100
AcDbEntity
8
0
100
AcDbPolyline
90
8
70
1
43
0.0
10
240.65000000000001
20
-558.38749999999993
10
240.65000000000001
20
-546.38750000000005
42
-0.41421356237309503
10
241.65000000000003
20
-545.38750000000005
10
253.65000000000003
20
-545.38750000000005
42
-0.41421356237309503
10
254.65000000000003
20
-546.38750000000005
10
254.64999999999998
20
-558.38750000000005
42
-0.41421356237309503
10
253.65000000000003
20
-559.38750000000005
10
241.65000000000003
20
-559.38750000000005
42
-0.41421356237309503
0
LWPOLYLINE
5
149
100
AcDbEntity
8
0
100
AcDbPolyline
90
8
70
1
43
0.0
10
50.150000000000006
20
-546.38750000000005
42
-0.41421356237309503
10
51.15000000000002
20
-545.38750000000005
10
63.150000000000006
20
-545.38750000000005
42
-0.41421356237309503
10
64.150000000000006
20
-546.38750000000005
10
64.149999999999949
20
-558.38750000000005
42
-0.41421356237309503
10
63.150000000000006
20
-559.38750000000005
10
51.150000000000006
20
-559.38750000000005
42
-0.41421356237309503
10
50.150000000000006
20
-558.38749999999993
0
LINE
5
150
100
AcDbEntity
8
0
100
AcDbLine
10
136.96875
20
-602.53750000000014
30
0
11
117.825
21
-602.53749999999991
31
0
0
LWPOLYLINE
5
151
100
AcDbEntity
8
0
100
AcDbPolyline
90
8
70
1
43
0.0
10
145.11249999999995
20
-577.4375
42
-0.41421356237309503
10
144.11250000000001
20
-578.4375
10
132.11250000000001
20
-578.43750000000011
42
-0.41421356237309503
10
131.11250000000001
20
-577.4375
10
131.11250000000001
20
-565.4375
42
-0.41421356237309503
10
132.11250000000001
20
-564.4375
10
144.11250000000001
20
-564.4375
42
-0.41421356237309503
10
145.11250000000001
20
-565.4375
0
LWPOLYLINE
5
152
100
AcDbEntity
8
0
100
AcDbPolyline
90
8
70
1
43
0.0
10
182.21250000000001
20
-564.4375
42
-0.41421356237309503
10
183.21250000000003
20
-565.4375
10
183.21249999999995
20
-577.4375
42
-0.41421356237309503
10
182.21250000000001
20
-578.4375
10
170.21250000000003
20
-578.43750000000011
42
-0.41421356237309503
10
169.21250000000001
20
-577.4375
10
169.21250000000001
20
-565.4375
42
-0.41421356237309503
10
170.21250000000003
20
-564.4375
0
LWPOLYLINE
5
153
100
AcDbEntity
8
0
100
AcDbPolyline
90
8
70
1
43
0.0
10
72.674999999999997
20
-540.33749999999998
10
60.674999999999997
20
-540.33750000000009
42
-0.41421356237309503
10
59.675000000000004
20
-539.33750000000009
10
59.674999999999983
20
-527.33749999999998
42
-0.41421356237309503
10
60.674999999999997
20
-526.33749999999998
10
72.674999999999997
20
-526.33749999999998
42
-0.41421356237309503
10
73.674999999999997
20
-527.33749999999998
10
73.67499999999994
20
-539.33750000000009
42
-0.41421356237309503
0
LWPOLYLINE
5
154
100
AcDbEntity
8
0
100
AcDbPolyline
90
8
70
1
43
0.0
10
258.41250000000002
20
-502.52499999999998
42
-0.41421356237309503
10
259.41250000000002
20
-503.52499999999998
10
259.41250000000002
20
-515.52499999999998
42
-0.41421356237309503
10
258.41250000000002
20
-516.52500000000009
10
246.41249999999999
20
-516.52500000000009
42
-0.41421356237309503
10
245.41250000000002
20
-515.52499999999998
10
245.41249999999997
20
-503.52499999999998
42
-0.41421356237309503
10
246.41249999999999
20
-502.52499999999998
0
LWPOLYLINE
5
155
100
AcDbEntity
8
0
100
AcDbPolyline
90
8
70
1
43
0.0
10
5.9062500000000009
20
-616.53750000000014
42
-0.41421356237309503
10
4.90625
20
-615.53750000000014
10
4.9062499999999156
20
-603.53750000000002
42
-0.41421356237309503
10
5.9062500000000018
20
-602.53749999999991
10
20.287500000000001
20
-602.53749999999991
42
-0.41421356237309503
10
21.287500000000001
20
-603.53749999999991
10
21.287499999999945
20
-615.53750000000014
42
-0.41421356237309503
10
20.287500000000001
20
-616.53750000000002
0
LWPOLYLINE
5
156
100
AcDbEntity
8
0
100
AcDbPolyline
90
8
70
1
43
0.0
10
167.92500000000001
20
-526.33749999999998
42
-0.41421356237309503
10
168.92500000000001
20
-527.33749999999998
10
168.92500000000001
20
-539.33750000000009
42
-0.41421356237309503
10
167.92500000000007
20
-540.33749999999998
10
155.92500000000001
20
-540.33750000000009
42
-0.41421356237309503
10
154.92500000000001
20
-539.33750000000009
10
154.92500000000001
20
-527.33749999999998
42
-0.41421356237309503
10
155.92500000000001
20
-526.33749999999998
0
LWPOLYLINE
5
157
100
AcDbEntity
8
0
100
AcDbPolyline
90
8
70
1
43
0.0
10
58.38750000000001
20
-583.48750000000007
42
-0.41421356237309503
10
59.387500000000003
20
-584.48750000000007
10
59.387499999999953
20
-596.48750000000007
42
-0.41421356237309503
10
58.38750000000001
20
-597.48749999999995
10
46.38750000000001
20
-597.48750000000007
42
-0.41421356237309503
10
45.38750000000001
20
-596.48750000000007
10
45.387499999999925
20
-584.48750000000007
42
-0.41421356237309503
10
46.38750000000001
20
-583.48749999999995
0
LWPOLYLINE
5
158
100
AcDbEntity
8
0
100
AcDbPolyline
90
8
70
1
43
0.0
10
130.82499999999999
20
-539.33750000000009
10
130.82499999999999
20
-527.33749999999998
42
0.41421356237309503
10
129.82499999999999
20
-526.33749999999998
10
117.825
20
-526.33749999999998
42
0.41421356237309503
10
116.82500000000002
20
-527.33749999999998
10
116.82500000000002
20
-539.33750000000009
42
0.41421356237309503
10
117.825
20
-540.33750000000009
10
129.82500000000005
20
-540.33749999999998
42
0.41421356237309503
0
LWPOLYLINE
5
159
100
AcDbEntity
8
0
100
AcDbPolyline
90
8
70
1
43
0.0
10
207.02500000000003
20
-539.33750000000009
10
207.02500000000001
20
-527.33749999999998
42
0.41421356237309503
10
206.02500000000003
20
-526.33749999999998
10
194.02500000000003
20
-526.33749999999998
42
0.41421356237309503
10
193.02500000000003
20
-527.33749999999998
10
193.02500000000003
20
-539.33750000000009
42
0.41421356237309503
10
194.02500000000003
20
-540.33749999999998
10
206.02500000000003
20
-540.33749999999998
42
0.41421356237309503
0
LWPOLYLINE
5
160
100
AcDbEntity
8
0
100
AcDbPolyline
90
8
70
1
43
0.0
10
148.87500000000006
20
-540.33749999999998
10
136.875
20
-540.33749999999998
42
-0.41421356237309503
10
135.875
20
-539.33749999999998
10
135.875
20
-527.33749999999998
42
-0.41421356237309503
10
136.87500000000003
20
-526.33749999999998
10
148.875
20
-526.33749999999998
42
-0.41421356237309503
10
149.875
20
-527.33749999999998
10
149.875
20
-539.33750000000009
42
-0.41421356237309503
0
LWPOLYLINE
5
161
100
AcDbEntity
8
0
100
AcDbPolyline
90
8
70
1
43
0.0
10
231.125
20
-539.33750000000009
10
231.125
20
-527.33749999999998
42
-0.41421356237309503
10
232.12500000000003
20
-526.33749999999998
10
244.125
20
-526.33749999999998
42
-0.41421356237309503
10
245.12500000000003
20
-527.33749999999998
10
245.12499999999994
20
-539.33750000000009
42
-0.41421356237309503
10
244.125
20
-540.33749999999998
10
232.12500000000003
20
-540.33750000000009
42
-0.41421356237309503
0
LWPOLYLINE
5
162
100
AcDbEntity
8
0
100
AcDbPolyline
90
8
70
1
43
0.0
10
58.38750000000001
20
-502.52499999999998
10
46.38750000000001
20
-502.52499999999998
42
0.41421356237309503
10
45.387500000000003
20
-503.52499999999998
10
45.38750000000001
20
-515.52499999999998
42
0.41421356237309503
10
46.38750000000001
20
-516.52500000000009
10
58.38750000000001
20
-516.52500000000009
42
0.41421356237309503
10
59.387500000000003
20
-515.52499999999998
10
59.387500000000003
20
-503.52499999999998
42
0.41421356237309503
0
LWPOLYLINE
5
163
100
AcDbEntity
8
0
100
AcDbPolyline
90
8
70
1
43
0.0
10
139.34999999999999
20
-516.52500000000009
10
127.34999999999999
20
-516.52500000000009
42
-0.41421356237309503
10
126.34999999999999
20
-515.52499999999998
10
126.34999999999998
20
-503.52499999999998
42
-0.41421356237309503
10
127.34999999999999
20
-502.52499999999998
10
139.34999999999999
20
-502.52499999999998
42
-0.41421356237309503
10
140.34999999999999
20
-503.52499999999998
10
140.35000000000002
20
-515.52499999999998
42
-0.41421356237309503
0
LWPOLYLINE
5
164
100
AcDbEntity
8
0
100
AcDbPolyline
90
8
70
1
43
0.0
10
29.718750000000004
20
-616.53750000000002
10
48.862500000000004
20
-616.53750000000002
42
0.41421356237309503
10
49.862499999999947
20
-615.53750000000014
10
49.862499999999997
20
-603.53749999999991
42
0.41421356237312884
10
48.862500000000004
20
-602.53749999999991
10
29.718750000000092
20
-602.53749999999991
42
0.41421356237309503
10
28.718750000000007
20
-603.53750000000002
10
28.71875
20
-615.53750000000014
42
0.41421356237309503
0
LWPOLYLINE
5
165
100
AcDbEntity
8
0
100
AcDbPolyline
90
8
70
1
43
0.0
10
53.625000000000007
20
-526.33749999999998
10
41.625000000000007
20
-526.33749999999998
42
0.41421356237309503
10
40.624999999999993
20
-527.33749999999998
10
40.625
20
-539.33750000000009
42
0.41421356237309503
10
41.625000000000007
20
-540.33750000000009
10
53.625000000000007
20
-540.33749999999998
42
0.41421356237309503
10
54.62499999999995
20
-539.33750000000009
10
54.625
20
-527.33749999999998
42
0.41421356237309503
0
LWPOLYLINE
5
166
100
AcDbEntity
8
0
100
AcDbPolyline
90
8
70
1
43
0.0
10
77.4375
20
-583.48749999999995
10
65.4375
20
-583.48749999999995
42
0.41421356237309503
10
64.4375
20
-584.48750000000007
10
64.4375
20
-596.48750000000007
42
0.41421356237309503
10
65.4375
20
-597.48749999999995
10
77.4375
20
-597.48749999999995
42
0.41421356237309503
10
78.4375
20
-596.48750000000007
10
78.4375
20
-584.48750000000007
42
0.41421356237309503
0
LWPOLYLINE
5
167
100
AcDbEntity
8
0
100
AcDbPolyline
90
8
70
1
43
0.0
10
135.58750000000001
20
-596.48750000000007
10
135.58750000000001
20
-584.48750000000007
42
0.41421356237309503
10
134.58750000000003
20
-583.48749999999995
10
122.58750000000001
20
-583.48749999999995
42
0.41421356237309503
10
121.58749999999992
20
-584.48750000000007
10
121.58750000000001
20
-596.48750000000007
42
0.41421356237309503
10
122.58750000000001
20
-597.48749999999995
10
134.58750000000003
20
-597.48749999999995
42
0.41421356237309503
0
LWPOLYLINE
5
168
100
AcDbEntity
8
0
100
AcDbPolyline
90
8
70
1
43
0.0
10
317.85000000000002
20
-597.48750000000007
42
-0.41421356237309503
10
316.85000000000002
20
-596.48750000000007
10
316.85000000000002
20
-584.48750000000007
42
-0.41421356237309503
10
317.85000000000014
20
-583.48749999999995
10
329.85000000000008
20
-583.48750000000007
42
-0.41421356237309503
10
330.85000000000002
20
-584.48750000000007
10
330.85000000000002
20
-596.48750000000007
42
-0.41421356237309503
10
329.85000000000008
20
-597.48749999999995
0
LWPOLYLINE
5
169
100
AcDbEntity
8
0
100
AcDbPolyline
90
8
70
1
43
0.0
10
21.287499999999945
20
-558.38750000000005
42
-0.41421356237309503
10
20.287500000000001
20
-559.38750000000005
10
8.2874999999999996
20
-559.38750000000005
42
-0.41421356237309503
10
7.2874999999999996
20
-558.38750000000005
10
7.2874999999999854
20
-546.38750000000005
42
-0.41421356237309503
10
8.2874999999999979
20
-545.38750000000005
10
20.287500000000001
20
-545.38750000000005
42
-0.41421356237309503
10
21.287500000000001
20
-546.38750000000005
0
LINE
5
170
100
AcDbEntity
8
0
100
AcDbLine
10
52.531250000000007
20
-603.53750000000002
30
0
11
52.531250000000007
21
-615.53750000000014
31
0
0
LWPOLYLINE
5
171
100
AcDbEntity
8
0
100
AcDbPolyline
90
8
70
1
43
0.0
10
31.100000000000001
20
-558.38750000000005
10
31.100000000000001
20
-546.38750000000005
42
-0.41421356237309503
10
32.100000000000016
20
-545.38750000000005
10
44.100000000000001
20
-545.38750000000005
42
-0.41421356237309503
10
45.099999999999994
20
-546.38750000000005
10
45.099999999999945
20
-558.38750000000005
42
-0.41421356237309503
10
44.100000000000001
20
-559.38750000000005
10
32.100000000000001
20
-559.38750000000005
42
-0.41421356237309503
0
LINE
5
172
100
AcDbEntity
8
0
100
AcDbLine
10
53.531250000000092
20
-602.53749999999991
30
0
11
62.508869163663299
21
-602.53749999999991
31
0
0
LWPOLYLINE
5
173
100
AcDbEntity
8
0
100
AcDbPolyline
90
8
70
1
43
0.0
10
310.80000000000001
20
-597.48749999999995
10
298.80000000000001
20
-597.48750000000007
42
-0.41421356237309503
10
297.80000000000001
20
-596.48750000000007
10
297.79999999999995
20
-584.48750000000007
42
-0.41421356237309503
10
298.80000000000001
20
-583.48749999999995
10
310.80000000000001
20
-583.48750000000007
42
-0.41421356237309503
10
311.80000000000001
20
-584.48750000000007
10
311.79999999999995
20
-596.48750000000007
42
-0.41421356237309503
0
ARC
5
174
100
AcDbEntity
8
0
100
AcDbCircle
10
136.96875
20
-603.53750000000002
30
0
40
0.99999999999999645
210
0
220
0
230
1
100
AcDbArc
50
0
51
90
0
LWPOLYLINE
5
175
100
AcDbEntity
8
0
100
AcDbPolyline
90
8
70
1
43
0.0
10
35.574999999999946
20
-539.33750000000009
10
35.575000000000003
20
-527.33749999999998
42
0.41421356237309503
10
34.575000000000003
20
-526.33749999999998
10
22.574999999999999
20
-526.33749999999998
42
0.41421356237309503
10
21.575000000000003
20
-527.33749999999998
10
21.575000000000003
20
-539.33750000000009
42
0.41421356237309503
10
22.574999999999999
20
-540.33750000000009
10
34.575000000000003
20
-540.33749999999998
42
0.41421356237309503
0
LWPOLYLINE
5
176
100
AcDbEntity
8
0
100
AcDbPolyline
90
8
70
1
43
0.0
10
77.4375
20
-502.52499999999998
42
-0.41421356237309503
10
78.4375
20
-503.52499999999998
10
78.437500000000014
20
-515.52499999999998
42
-0.41421356237309503
10
77.4375
20
-516.52500000000009
10
65.4375
20
-516.52500000000009
42
-0.41421356237309503
10
64.4375
20
-515.52499999999998
10
64.437499999999986
20
-503.52499999999998
42
-0.41421356237309503
10
65.4375
20
-502.52499999999998
0
ARC
5
177
100
AcDbEntity
8
0
100
AcDbCircle
10
53.531250000000092
20
-603.53750000000002
30
0
40
1.0000000000000853
210
0
220
-0
230
1
100
AcDbArc
50
90
51
180
0
ARC
5
178
100
AcDbEntity
8
0
100
AcDbCircle
10
53.53125
20
-615.53750000000014
30
0
40
0.99999999999999645
210
0
220
0
230
1
100
AcDbArc
50
180
51
270
0
LWPOLYLINE
5
179
100
AcDbEntity
8
0
100
AcDbPolyline
90
8
70
1
43
0.0
10
329.85000000000002
20
-516.52500000000009
10
317.85000000000002
20
-516.52500000000009
42
-0.41421356237309503
10
316.85000000000002
20
-515.52499999999998
10
316.85000000000002
20
-503.52499999999998
42
-0.41421356237309503
10
317.85000000000002
20
-502.52499999999998
10
329.85000000000008
20
-502.52500000000003
42
-0.41421356237309503
10
330.85000000000002
20
-503.52499999999998
10
330.85000000000002
20
-515.52499999999998
42
-0.41421356237309503
0
LWPOLYLINE
5
180
100
AcDbEntity
8
0
100
AcDbPolyline
90
8
70
1
43
0.0
10
40.337500000000013
20
-515.52499999999998
42
-0.41421356237309503
10
39.337499999999999
20
-516.52500000000009
10
27.337500000000002
20
-516.52500000000009
42
-0.41421356237309503
10
26.337499999999999
20
-515.52499999999998
10
26.337499999999988
20
-503.52499999999998
42
-0.41421356237309503
10
27.337500000000002
20
-502.52499999999998
10
39.337499999999999
20
-502.52499999999998
42
-0.41421356237309503
10
40.337500000000006
20
-503.52499999999998
0
LWPOLYLINE
5
181
100
AcDbEntity
8
0
100
AcDbPolyline
90
8
70
1
43
0.0
10
329.85000000000008
20
-559.38750000000005
10
317.85000000000002
20
-559.38750000000005
42
-0.41421356237309503
10
316.85000000000002
20
-558.38750000000005
10
316.85000000000002
20
-546.38750000000005
42
-0.41421356237309503
10
317.85000000000002
20
-545.38750000000005
10
329.85000000000008
20
-545.38750000000005
42
-0.41421356237309503
10
330.85000000000002
20
-546.38749999999993
10
330.85000000000002
20
-558.38750000000005
42
-0.41421356237309503
0
LWPOLYLINE
5
182
100
AcDbEntity
8
0
100
AcDbPolyline
90
8
70
1
43
0.0
10
316.85000000000002
20
-577.4375
10
316.85000000000002
20
-565.4375
42
-0.41421356237309503
10
317.85000000000002
20
-564.4375
10
329.85000000000008
20
-564.43750000000011
42
-0.41421356237309503
10
330.85000000000002
20
-565.4375
10
330.85000000000002
20
-577.4375
42
-0.41421356237309503
10
329.85000000000008
20
-578.4375
10
317.85000000000002
20
-578.43750000000011
42
-0.41421356237309503
0
LWPOLYLINE
5
183
100
AcDbEntity
8
0
100
AcDbPolyline
90
8
70
1
43
0.0
10
310.80000000000001
20
-564.4375
10
298.80000000000001
20
-564.4375
42
0.41421356237309503
10
297.80000000000001
20
-565.4375
10
297.80000000000001
20
-577.4375
42
0.41421356237309503
10
298.80000000000001
20
-578.4375
10
310.80000000000001
20
-578.4375
42
0.41421356237309503
10
311.80000000000001
20
-577.4375
10
311.80000000000001
20
-565.4375
42
0.41421356237309503
0
LWPOLYLINE
5
184
100
AcDbEntity
8
0
100
AcDbPolyline
90
8
70
1
43
0.0
10
106.0125
20
-564.4375
42
-0.41421356237309503
10
107.01250000000002
20
-565.4375
10
107.01249999999995
20
-577.4375
42
-0.41421356237309503
10
106.0125
20
-578.4375
10
94.012500000000017
20
-578.43750000000011
42
-0.41421356237309503
10
93.012500000000017
20
-577.4375
10
93.012499999999989
20
-565.4375
42
-0.41421356237309503
10
94.012500000000017
20
-564.4375
0
LWPOLYLINE
5
185
100
AcDbEntity
8
0
100
AcDbPolyline
90
8
70
1
43
0.0
10
15.525000000000002
20
-502.52499999999998
42
-0.41421356237309503
10
16.524999999999999
20
-503.52499999999998
10
16.525000000000016
20
-515.52499999999998
42
-0.41421356237309503
10
15.525000000000002
20
-516.52500000000009
10
3.5250000000000004
20
-516.52500000000009
42
-0.41421356237309503
10
2.5250000000000004
20
-515.52499999999998
10
2.5249999999999861
20
-503.52499999999998
42
-0.41421356237309503
10
3.5250000000000004
20
-502.52499999999998
0
LWPOLYLINE
5
186
100
AcDbEntity
8
0
100
AcDbPolyline
90
8
70
1
43
0.0
10
113.0625
20
-578.43750000000011
42
-0.41421356237309503
10
112.0625
20
-577.4375
10
112.06249999999999
20
-565.4375
42
-0.41421356237309503
10
113.0625
20
-564.4375
10
125.06250000000001
20
-564.4375
42
-0.41421356237309503
10
126.06250000000001
20
-565.4375
10
126.06249999999996
20
-577.4375
42
-0.41421356237309503
10
125.06250000000001
20
-578.4375
0
LWPOLYLINE
5
187
100
AcDbEntity
8
0
100
AcDbPolyline
90
8
70
1
43
0.0
10
316.85000000000002
20
-539.33750000000009
10
316.85000000000002
20
-527.33749999999998
42
-0.41421356237309503
10
317.85000000000002
20
-526.33749999999998
10
329.85000000000008
20
-526.33750000000009
42
-0.41421356237309503
10
330.85000000000002
20
-527.33749999999998
10
330.85000000000002
20
-539.33750000000009
42
-0.41421356237309503
10
329.85000000000008
20
-540.33749999999998
10
317.85000000000002
20
-540.33750000000009
42
-0.41421356237309503
0
LWPOLYLINE
5
188
100
AcDbEntity
8
0
100
AcDbPolyline
90
8
70
1
43
0.0
10
368.95000000000005
20
-539.33750000000009
10
368.95000000000005
20
-527.33749999999998
42
0.41421356237309503
10
367.95000000000005
20
-526.33749999999998
10
355.94999999999999
20
-526.33749999999998
42
0.41421356237309503
10
354.94999999999999
20
-527.33749999999998
10
354.94999999999999
20
-539.33749999999998
42
0.41421356237309503
10
355.94999999999999
20
-540.33749999999998
10
367.9500000000001
20
-540.33749999999998
42
0.41421356237309503
0
LWPOLYLINE
5
189
100
AcDbEntity
8
0
100
AcDbPolyline
90
8
70
1
43
0.0
10
335.89999999999998
20
-515.52499999999998
10
335.89999999999998
20
-503.52499999999998
42
-0.41421356237309503
10
336.89999999999998
20
-502.52499999999998
10
348.89999999999998
20
-502.52499999999998
42
-0.41421356237309503
10
349.90000000000003
20
-503.52499999999998
10
349.90000000000003
20
-515.52499999999998
42
-0.41421356237309503
10
348.89999999999998
20
-516.52500000000009
10
336.89999999999998
20
-516.52500000000009
42
-0.41421356237309503
0
LWPOLYLINE
5
190
100
AcDbEntity
8
0
100
AcDbPolyline
90
8
70
1
43
0.0
10
311.80000000000001
20
-539.33750000000009
10
311.80000000000001
20
-527.33749999999998
42
0.41421356237309503
10
310.80000000000001
20
-526.33749999999998
10
298.80000000000001
20
-526.33749999999998
42
0.41421356237309503
10
297.80000000000001
20
-527.33749999999998
10
297.80000000000001
20
-539.33750000000009
42
0.41421356237309503
10
298.80000000000001
20
-540.33749999999998
10
310.80000000000001
20
-540.33749999999998
42
0.41421356237309503
0
LWPOLYLINE
5
191
100
AcDbEntity
8
0
100
AcDbPolyline
90
8
70
1
43
0.0
10
349.89999999999998
20
-539.33750000000009
10
349.90000000000003
20
-527.33749999999998
42
0.41421356237309503
10
348.89999999999998
20
-526.33749999999998
10
336.89999999999998
20
-526.33749999999998
42
0.41421356237309503
10
335.89999999999998
20
-527.33749999999998
10
335.89999999999998
20
-539.33750000000009
42
0.41421356237309503
10
336.89999999999998
20
-540.33750000000009
10
348.89999999999998
20
-540.33749999999998
42
0.41421356237309503
0
LWPOLYLINE
5
192
100
AcDbEntity
8
0
100
AcDbPolyline
90
8
70
1
43
0.0
10
368.95000000000005
20
-515.52499999999998
10
368.95000000000005
20
-503.52499999999998
42
0.41421356237309503
10
367.95000000000005
20
-502.52499999999998
10
355.94999999999999
20
-502.52499999999998
42
0.41421356237309503
10
354.94999999999999
20
-503.52499999999998
10
354.94999999999999
20
-515.52499999999998
42
0.41421356237309503
10
355.94999999999999
20
-516.52500000000009
10
367.95000000000005
20
-516.52500000000009
42
0.41421356237309503
0
LWPOLYLINE
5
193
100
AcDbEntity
8
0
100
AcDbPolyline
90
8
70
1
43
0.0
10
310.80000000000001
20
-545.38750000000005
42
-0.41421356237309503
10
311.80000000000001
20
-546.38750000000005
10
311.79999999999995
20
-558.38750000000005
42
-0.41421356237309503
10
310.80000000000001
20
-559.38750000000005
10
298.80000000000001
20
-559.38750000000005
42
-0.41421356237309503
10
297.80000000000001
20
-558.38750000000005
10
297.80000000000001
20
-546.38750000000005
42
-0.41421356237309503
10
298.80000000000001
20
-545.38750000000005
0
LWPOLYLINE
5
194
100
AcDbEntity
8
0
100
AcDbPolyline
90
8
70
1
43
0.0
10
335.89999999999998
20
-596.48750000000007
10
335.89999999999986
20
-584.48750000000007
42
-0.41421356237309503
10
336.89999999999998
20
-583.48749999999995
10
348.89999999999998
20
-583.48750000000007
42
-0.41421356237309503
10
349.90000000000003
20
-584.48750000000007
10
349.89999999999998
20
-596.48750000000007
42
-0.41421356237309503
10
348.89999999999998
20
-597.48749999999995
10
336.89999999999998
20
-597.48750000000007
42
-0.41421356237309503
0
LWPOLYLINE
5
195
100
AcDbEntity
8
0
100
AcDbPolyline
90
8
70
1
43
0.0
10
348.89999999999998
20
-564.4375
42
-0.41421356237309503
10
349.90000000000003
20
-565.4375
10
349.89999999999998
20
-577.4375
42
-0.41421356237309503
10
348.89999999999998
20
-578.4375
10
336.89999999999998
20
-578.43750000000011
42
-0.41421356237309503
10
335.89999999999998
20
-577.4375
10
335.89999999999998
20
-565.4375
42
-0.41421356237309503
10
336.89999999999998
20
-564.4375
0
LWPOLYLINE
5
196
100
AcDbEntity
8
0
100
AcDbPolyline
90
8
70
1
43
0.0
10
336.89999999999998
20
-559.38750000000005
42
-0.41421356237309503
10
335.89999999999998
20
-558.38750000000005
10
335.89999999999998
20
-546.38750000000005
42
-0.41421356237309503
10
336.89999999999998
20
-545.38750000000005
10
348.89999999999998
20
-545.38750000000005
42
-0.41421356237309503
10
349.90000000000003
20
-546.38750000000005
10
349.89999999999998
20
-558.38750000000005
42
-0.41421356237309503
10
348.89999999999998
20
-559.38750000000005
0
LWPOLYLINE
5
197
100
AcDbEntity
8
0
100
AcDbPolyline
90
8
70
1
43
0.0
10
298.80000000000001
20
-516.52500000000009
42
-0.41421356237309503
10
297.80000000000001
20
-515.52499999999998
10
297.80000000000001
20
-503.52499999999998
42
-0.41421356237309503
10
298.80000000000001
20
-502.52499999999998
10
310.80000000000001
20
-502.52499999999998
42
-0.41421356237309503
10
311.80000000000001
20
-503.52499999999998
10
311.80000000000001
20
-515.52499999999998
42
-0.41421356237309503
10
310.80000000000001
20
-516.52500000000009
0
LWPOLYLINE
5
198
100
AcDbEntity
8
0
100
AcDbPolyline
90
8
70
1
43
0.0
10
336.89999999999998
20
-616.53750000000014
42
-0.41421356237309503
10
335.89999999999998
20
-615.53750000000014
10
335.89999999999998
20
-603.53750000000002
42
-0.41421356237309503
10
336.90000000000003
20
-602.53749999999991
10
348.89999999999998
20
-602.53749999999991
42
-0.41421356237309503
10
349.90000000000003
20
-603.53749999999991
10
349.89999999999998
20
-615.53750000000014
42
-0.41421356237309503
10
348.89999999999998
20
-616.53750000000002
0
LINE
5
199
100
AcDbEntity
8
0
100
AcDbLine
10
49.862499999999997
20
-603.53750000000002
30
0
11
49.862499999999997
21
-603.53749999999991
31
0
0
LINE
5
200
100
AcDbEntity
8
0
100
AcDbLine
10
48.862500000000004
20
-602.53749999999991
30
0
11
48.862500000000004
21
-602.53749999999991
31
0
0
LINE
5
201
100
AcDbEntity
8
0
100
AcDbLine
10
13.71664444855057
20
-583.48969107525795
30
0
11
13.71664444855057
21
-597.49570074924122
31
0
0
LINE
5
202
100
AcDbEntity
8
0
100
AcDbLine
10
14.392506801601288
20
-597.49570074924122
30
0
11
13.71664444855057
21
-597.49570074924122
31
0
0
LINE
5
203
100
AcDbEntity
8
0
100
AcDbLine
10
14.392506801601288
20
-597.49570074924122
30
0
11
14.392503140838715
21
-584.49107214007449
31
0
0
SPLINE
5
204
100
AcDbEntity
8
0
100
AcDbSpline
70
4
71
3
72
8
73
4
74
0
42
0.000000001
43
0.0000000001
44
0.0000000001
40
0
40
0
40
0
40
0
40
1
40
1
40
1
40
1
41
1
41
1
41
1
41
1
10
15.390963003776863
20
-583.49261712226337
30
0
10
14.83704354015231
20
-583.49261663775053
30
0
10
14.392503140838715
20
-583.94068725040779
30
0
10
14.392503140838715
20
-584.49107214007449
30
0
0
LINE
5
205
100
AcDbEntity
8
0
100
AcDbLine
10
15.390963003776863
20
-583.49261712226337
30
0
11
27.393609988716747
21
-583.49614415935707
31
0
0
SPLINE
5
206
100
AcDbEntity
8
0
100
AcDbSpline
70
4
71
3
72
8
73
4
74
0
42
0.000000001
43
0.0000000001
44
0.0000000001
40
0
40
0
40
0
40
0
40
1
40
1
40
1
40
1
41
1
41
1
41
1
41
1
10
28.392062314790749
20
-584.49460143822751
30
0
10
28.39206145343482
20
-583.94068725040779
30
0
10
27.943994878383407
20
-583.49614415935707
30
0
10
27.393609988716747
20
-583.49614415935707
30
0
0
LINE
5
207
100
AcDbEntity
8
0
100
AcDbLine
10
28.392062314790749
20
-584.49460143822751
30
0
11
28.392062314790749
21
-597.49570074924122
31
0
0
LINE
5
208
100
AcDbEntity
8
0
100
AcDbLine
10
29.216660448550513
20
-597.49570074924122
30
0
11
28.392062314790749
21
-597.49570074924122
31
0
0
LINE
5
209
100
AcDbEntity
8
0
100
AcDbLine
10
29.216660448550513
20
-583.48969107525795
30
0
11
29.216660448550513
21
-597.49570074924122
31
0
0
ARC
5
210
100
AcDbEntity
8
0
100
AcDbCircle
10
29.216660448550797
20
-582.98969107525807
30
0
40
0.49999999999982947
210
0
220
0
230
1
100
AcDbArc
50
-90.000000000032571
51
0
0
LINE
5
211
100
AcDbEntity
8
0
100
AcDbLine
10
29.716660448550627
20
-582.98969107525795
30
0
11
29.716660448550627
21
-582.98969207525806
31
0
0
LINE
5
212
100
AcDbEntity
8
0
100
AcDbLine
10
29.716660448550627
20
-582.98969207525806
30
0
11
29.716660448550627
21
-582.48969007525807
31
0
0
LINE
5
213
100
AcDbEntity
8
0
100
AcDbLine
10
29.716660448550627
20
-582.48969007525807
30
0
11
29.716660448550627
21
-582.48969007525807
31
0
0
ARC
5
214
100
AcDbEntity
8
0
100
AcDbCircle
10
30.71666044855057
20
-582.48969007525807
30
0
40
1.0000000000000853
210
0
220
-0
230
1
100
AcDbArc
50
90
51
180
0
LINE
5
215
100
AcDbEntity
8
0
100
AcDbLine
10
30.71666044855057
20
-581.48969007525795
30
0
11
30.716652448550477
21
-581.48969007525807
31
0
0
LINE
5
216
100
AcDbEntity
8
0
100
AcDbLine
10
30.716652448550477
20
-581.48969007525807
30
0
11
36.21665244855059
21
-581.48969007525807
31
0
0
LINE
5
217
100
AcDbEntity
8
0
100
AcDbLine
10
36.21664544855058
20
-581.48969007525795
30
0
11
36.21665244855059
21
-581.48969007525807
31
0
0
ARC
5
218
100
AcDbEntity
8
0
100
AcDbCircle
10
36.21664544855058
20
-582.48969007525807
30
0
40
1.0000000000000853
210
0
220
0
230
1
100
AcDbArc
50
0
51
90
0
LINE
5
219
100
AcDbEntity
8
0
100
AcDbLine
10
37.216645448550665
20
-582.48969007525807
30
0
11
37.216645448550665
21
-582.48969007525807
31
0
0
LINE
5
220
100
AcDbEntity
8
0
100
AcDbLine
10
37.216645448550665
20
-582.48969007525807
30
0
11
37.216645448550665
21
-599.98969007525784
31
0
0
LINE
5
221
100
AcDbEntity
8
0
100
AcDbLine
10
37.216645448501495
20
-599.98968307525786
30
0
11
37.216645448550665
21
-599.98969007525784
31
0
0
ARC
5
222
100
AcDbEntity
8
0
100
AcDbCircle
10
36.216645448525995
20
-599.98969007525784
30
0
40
1.0000000000000853
210
0
220
0
230
1
100
AcDbArc
50
-90
51
0.00040107010969264067
0
LINE
5
223
100
AcDbEntity
8
0
100
AcDbLine
10
36.216645448525995
20
-600.98969007525795
30
0
11
6.7166424485506599
21
-600.98969007525795
31
0
0
LINE
5
224
100
AcDbEntity
8
0
100
AcDbLine
10
6.7166494485506707
20
-600.98969007525795
30
0
11
6.7166424485506599
21
-600.98969007525795
31
0
0
ARC
5
225
100
AcDbEntity
8
0
100
AcDbCircle
10
6.7166494485506707
20
-599.98969007525784
30
0
40
0.99999999999994316
210
0
220
0
230
1
100
AcDbArc
50
180
51
270
0
LINE
5
226
100
AcDbEntity
8
0
100
AcDbLine
10
5.7166494485507275
20
-599.98969207525784
30
0
11
5.7166494485507275
21
-599.98969007525784
31
0
0
LINE
5
227
100
AcDbEntity
8
0
100
AcDbLine
10
5.7166494485507275
20
-599.98969207525784
30
0
11
5.7166494485507275
21
-582.48969007525807
31
0
0
LINE
5
228
100
AcDbEntity
8
0
100
AcDbLine
10
5.7166494485507275
20
-582.48969207525806
30
0
11
5.7166494485507275
21
-582.48969007525807
31
0
0
ARC
5
229
100
AcDbEntity
8
0
100
AcDbCircle
10
6.7166494485506707
20
-582.48969207525806
30
0
40
1.0000000000000853
210
0
220
-0
230
1
100
AcDbArc
50
90
51
180
0
LINE
5
230
100
AcDbEntity
8
0
100
AcDbLine
10
6.7166424485506599
20
-581.48969207525795
30
0
11
6.7166494485506707
21
-581.48969207525795
31
0
0
LINE
5
231
100
AcDbEntity
8
0
100
AcDbLine
10
6.7166424485506599
20
-581.48969207525795
30
0
11
12.216642448550632
21
-581.48969207525795
31
0
0
LINE
5
232
100
AcDbEntity
8
0
100
AcDbLine
10
12.21666144855064
20
-581.48969207525795
30
0
11
12.216642448550632
21
-581.48969207525795
31
0
0
ARC
5
233
100
AcDbEntity
8
0
100
AcDbCircle
10
12.21666144855064
20
-582.48969207525806
30
0
40
0.99999999999994316
210
0
220
-0
230
1
100
AcDbArc
50
0
51
90
0
LINE
5
234
100
AcDbEntity
8
0
100
AcDbLine
10
13.216661448550584
20
-582.48969007525784
30
0
11
13.216661448550584
21
-582.48969207525806
31
0
0
LINE
5
235
100
AcDbEntity
8
0
100
AcDbLine
10
13.216661448550584
20
-582.48969007525784
30
0
11
13.216661448550584
21
-582.98969207525806
31
0
0
LINE
5
236
100
AcDbEntity
8
0
100
AcDbLine
10
13.216661448550584
20
-582.98969107525795
30
0
11
13.216661448550584
21
-582.98969207525806
31
0
0
ARC
5
237
100
AcDbEntity
8
0
100
AcDbCircle
10
13.716661448550413
20
-582.98969107525807
30
0
40
0.49999999999982947
210
0
220
0
230
1
100
AcDbArc
50
180
51
270.00000000003257
0
ARC
5
238
100
AcDbEntity
8
0
100
AcDbCircle
10
183.43664336244447
20
-601.96452929541294
30
0
40
1.6249999999999432
210
0
220
0
230
1
100
AcDbArc
50
0
51
90
0
LINE
5
239
100
AcDbEntity
8
0
100
AcDbLine
10
178.43664336244439
20
-600.33952929541306
30
0
11
183.43664336244447
21
-600.33952929541306
31
0
0
ARC
5
240
100
AcDbEntity
8
0
100
AcDbCircle
10
178.43664336244439
20
-601.96452929541294
30
0
40
1.6249999999999432
210
0
220
-0
230
1
100
AcDbArc
50
90
51
180
0
LINE
5
241
100
AcDbEntity
8
0
100
AcDbLine
10
271.95610546456669
20
-578.44722318644472
30
0
11
271.95610546456669
21
-564.44121351246156
31
0
0
LINE
5
242
100
AcDbEntity
8
0
100
AcDbLine
10
271.28024311151597
20
-564.44121351246156
30
0
11
271.95610546456669
21
-564.44121351246156
31
0
0
LINE
5
243
100
AcDbEntity
8
0
100
AcDbLine
10
271.28024311151597
20
-564.44121351246156
30
0
11
271.28024677227847
21
-577.44584212162817
31
0
0
SPLINE
5
244
100
AcDbEntity
8
0
100
AcDbSpline
70
4
71
3
72
8
73
4
74
0
42
0.000000001
43
0.0000000001
44
0.0000000001
40
0
40
0
40
0
40
0
40
1
40
1
40
1
40
1
41
1
41
1
41
1
41
1
10
270.28178690934033
20
-578.44429713943941
30
0
10
270.83570637296498
20
-578.44429762395202
30
0
10
271.28024677227847
20
-577.99622701129488
30
0
10
271.28024677227847
20
-577.44584212162817
30
0
0
SPLINE
5
245
100
AcDbEntity
8
0
100
AcDbSpline
70
4
71
3
72
8
73
4
74
0
42
0.000000001
43
0.0000000001
44
0.0000000001
40
0
40
0
40
0
40
0
40
1
40
1
40
1
40
1
41
1
41
1
41
1
41
1
10
257.28068759832661
20
-577.44231282347528
30
0
10
257.28068845968261
20
-577.99622701129488
30
0
10
257.72875503473409
20
-578.4407701023456
30
0
10
258.27913992440068
20
-578.4407701023456
30
0
0
LINE
5
246
100
AcDbEntity
8
0
100
AcDbLine
10
257.28068759832661
20
-577.44231282347528
30
0
11
257.28068759832661
21
-564.44121351246156
31
0
0
LINE
5
247
100
AcDbEntity
8
0
100
AcDbLine
10
256.45608946456684
20
-564.44121351246156
30
0
11
257.28068759832661
21
-564.44121351246156
31
0
0
LINE
5
248
100
AcDbEntity
8
0
100
AcDbLine
10
256.45608946456684
20
-578.44722318644472
30
0
11
256.45608946456684
21
-564.44121351246156
31
0
0
ARC
5
249
100
AcDbEntity
8
0
100
AcDbCircle
10
256.45608946456656
20
-578.94722318644449
30
0
40
0.49999999999982947
210
0
220
-0
230
1
100
AcDbArc
50
89.999999999967429
51
180
0
LINE
5
250
100
AcDbEntity
8
0
100
AcDbLine
10
255.95608946456673
20
-578.94722318644472
30
0
11
255.95608946456673
21
-578.94722218644461
31
0
0
LINE
5
251
100
AcDbEntity
8
0
100
AcDbLine
10
255.95608946456673
20
-578.94722218644461
30
0
11
255.95608946456673
21
-579.4472241864446
31
0
0
LINE
5
252
100
AcDbEntity
8
0
100
AcDbLine
10
255.95608946456673
20
-579.4472241864446
30
0
11
255.95608946456673
21
-579.44722418644471
31
0
0
ARC
5
253
100
AcDbEntity
8
0
100
AcDbCircle
10
254.95608946456679
20
-579.44722418644471
30
0
40
0.99999999999994316
210
0
220
0
230
1
100
AcDbArc
50
-90
51
0
0
LINE
5
254
100
AcDbEntity
8
0
100
AcDbLine
10
254.95608946456679
20
-580.44722418644471
30
0
11
254.95609746456688
21
-580.44722418644471
31
0
0
LINE
5
255
100
AcDbEntity
8
0
100
AcDbLine
10
254.95609746456688
20
-580.44722418644471
30
0
11
249.45609746456677
21
-580.44722418644471
31
0
0
LINE
5
256
100
AcDbEntity
8
0
100
AcDbLine
10
249.45610446456692
20
-580.44722418644471
30
0
11
249.45609746456677
21
-580.44722418644471
31
0
0
ARC
5
257
100
AcDbEntity
8
0
100
AcDbCircle
10
249.45610446456692
20
-579.44722418644449
30
0
40
1.0000000000002274
210
0
220
0
230
1
100
AcDbArc
50
180
51
270
0
LINE
5
258
100
AcDbEntity
8
0
100
AcDbLine
10
248.45610446456669
20
-579.44722418644471
30
0
11
248.45610446456669
21
-579.44722418644449
31
0
0
LINE
5
259
100
AcDbEntity
8
0
100
AcDbLine
10
248.45610446456669
20
-579.44722418644471
30
0
11
248.45610446456669
21
-561.94722418644483
31
0
0
LINE
5
260
100
AcDbEntity
8
0
100
AcDbLine
10
248.45610446461586
20
-561.94723118644492
30
0
11
248.45610446456669
21
-561.94722418644483
31
0
0
ARC
5
261
100
AcDbEntity
8
0
100
AcDbCircle
10
249.45610446459136
20
-561.94722418644483
30
0
40
1.0000000000000142
210
0
220
-0
230
1
100
AcDbArc
50
90
51
180.00040107010969
0
LINE
5
262
100
AcDbEntity
8
0
100
AcDbLine
10
249.45610446459136
20
-560.94722418644483
30
0
11
278.95610746456663
21
-560.94722418644494
31
0
0
LINE
5
263
100
AcDbEntity
8
0
100
AcDbLine
10
278.95610046456659
20
-560.94722418644494
30
0
11
278.95610746456663
21
-560.94722418644494
31
0
0
ARC
5
264
100
AcDbEntity
8
0
100
AcDbCircle
10
278.95610046456659
20
-561.94722418644483
30
0
40
0.99999999999994316
210
-0
220
0
230
1
100
AcDbArc
50
0
51
90
0
LINE
5
265
100
AcDbEntity
8
0
100
AcDbLine
10
279.95610046456653
20
-561.94722218644506
30
0
11
279.95610046456653
21
-561.94722418644483
31
0
0
LINE
5
266
100
AcDbEntity
8
0
100
AcDbLine
10
279.95610046456653
20
-561.94722218644506
30
0
11
279.95610046456653
21
-579.44722418644471
31
0
0
LINE
5
267
100
AcDbEntity
8
0
100
AcDbLine
10
279.95610046456653
20
-579.44722218644472
30
0
11
279.95610046456653
21
-579.44722418644471
31
0
0
ARC
5
268
100
AcDbEntity
8
0
100
AcDbCircle
10
278.95610046456659
20
-579.44722218644472
30
0
40
0.99999999999994316
210
0
220
0
230
1
100
AcDbArc
50
-90
51
0
0
LINE
5
269
100
AcDbEntity
8
0
100
AcDbLine
10
278.95610746456663
20
-580.44722218644461
30
0
11
278.95610046456659
21
-580.44722218644461
31
0
0
LINE
5
270
100
AcDbEntity
8
0
100
AcDbLine
10
278.95610746456663
20
-580.44722218644461
30
0
11
273.45610746456663
21
-580.44722218644461
31
0
0
LINE
5
271
100
AcDbEntity
8
0
100
AcDbLine
10
273.45608846456662
20
-580.44722218644461
30
0
11
273.45610746456663
21
-580.44722218644461
31
0
0
ARC
5
272
100
AcDbEntity
8
0
100
AcDbCircle
10
273.45608846456662
20
-579.44722218644472
30
0
40
0.99999999999994316
210
0
220
0
230
1
100
AcDbArc
50
180
51
270
0
LINE
5
273
100
AcDbEntity
8
0
100
AcDbLine
10
272.45608846456668
20
-579.44722418644471
30
0
11
272.45608846456668
21
-579.44722218644472
31
0
0
LINE
5
274
100
AcDbEntity
8
0
100
AcDbLine
10
272.45608846456668
20
-579.44722418644471
30
0
11
272.45608846456668
21
-578.94722218644472
31
0
0
LINE
5
275
100
AcDbEntity
8
0
100
AcDbLine
10
272.45608846456668
20
-578.94722318644472
30
0
11
272.45608846456668
21
-578.94722218644472
31
0
0
ARC
5
276
100
AcDbEntity
8
0
100
AcDbCircle
10
271.95608846456685
20
-578.94722318644449
30
0
40
0.49999999999982947
210
-0
220
0
230
1
100
AcDbArc
50
0
51
90.000000000032571
0
LINE
5
277
100
AcDbEntity
8
0
100
AcDbLine
10
270.28178690934033
20
-578.44429713943941
30
0
11
258.27913992440068
21
-578.4407701023456
31
0
0
LINE
5
278
100
AcDbEntity
8
0
100
AcDbLine
10
258.98539444855055
20
-526.33969107525797
30
0
11
258.98539444855055
21
-540.34570074924125
31
0
0
LINE
5
279
100
AcDbEntity
8
0
100
AcDbLine
10
259.66125680160127
20
-540.34570074924125
30
0
11
258.98539444855055
21
-540.34570074924125
31
0
0
LINE
5
280
100
AcDbEntity
8
0
100
AcDbLine
10
259.66125680160127
20
-540.34570074924125
30
0
11
259.66125314083877
21
-527.34107214007452
31
0
0
SPLINE
5
281
100
AcDbEntity
8
0
100
AcDbSpline
70
4
71
3
72
8
73
4
74
0
42
0.000000001
43
0.0000000001
44
0.0000000001
40
0
40
0
40
0
40
0
40
1
40
1
40
1
40
1
41
1
41
1
41
1
41
1
10
260.65971300377691
20
-526.34261712226339
30
0
10
260.10579354015226
20
-526.34261663775067
30
0
10
259.66125314083877
20
-526.79068725040781
30
0
10
259.66125314083877
20
-527.34107214007452
30
0
0
LINE
5
282
100
AcDbEntity
8
0
100
AcDbLine
10
260.65971300377691
20
-526.34261712226339
30
0
11
272.66235998871673
21
-526.34614415935698
31
0
0
SPLINE
5
283
100
AcDbEntity
8
0
100
AcDbSpline
70
4
71
3
72
8
73
4
74
0
42
0.000000001
43
0.0000000001
44
0.0000000001
40
0
40
0
40
0
40
0
40
1
40
1
40
1
40
1
41
1
41
1
41
1
41
1
10
273.6608123147908
20
-527.34460143822741
30
0
10
273.6608114534348
20
-526.79068725040781
30
0
10
273.21274487838332
20
-526.34614415935698
30
0
10
272.66235998871673
20
-526.34614415935698
30
0
0
LINE
5
284
100
AcDbEntity
8
0
100
AcDbLine
10
273.6608123147908
20
-527.34460143822741
30
0
11
273.6608123147908
21
-540.34570074924125
31
0
0
LINE
5
285
100
AcDbEntity
8
0
100
AcDbLine
10
274.48541044855057
20
-540.34570074924125
30
0
11
273.6608123147908
21
-540.34570074924125
31
0
0
LINE
5
286
100
AcDbEntity
8
0
100
AcDbLine
10
274.48541044855057
20
-526.33969107525797
30
0
11
274.48541044855057
21
-540.34570074924125
31
0
0
ARC
5
287
100
AcDbEntity
8
0
100
AcDbCircle
10
274.48541044855085
20
-525.83969107525809
30
0
40
0.49999999999990052
210
0
220
0
230
1
100
AcDbArc
50
-90.000000000032571
51
0
0
LINE
5
288
100
AcDbEntity
8
0
100
AcDbLine
10
274.98541044855068
20
-525.83969107525797
30
0
11
274.98541044855068
21
-525.83969207525797
31
0
0
LINE
5
289
100
AcDbEntity
8
0
100
AcDbLine
10
274.98541044855068
20
-525.83969207525797
30
0
11
274.98541044855068
21
-525.33969007525798
31
0
0
LINE
5
290
100
AcDbEntity
8
0
100
AcDbLine
10
274.98541044855068
20
-525.33969007525798
30
0
11
274.98541044855051
21
-525.33969007525798
31
0
0
ARC
5
291
100
AcDbEntity
8
0
100
AcDbCircle
10
275.98541044855062
20
-525.33969007525798
30
0
40
1.0000000000000142
210
0
220
-0
230
1
100
AcDbArc
50
90
51
180
0
LINE
5
292
100
AcDbEntity
8
0
100
AcDbLine
10
275.98541044855062
20
-524.33969007525798
30
0
11
275.98540244855053
21
-524.33969007525798
31
0
0
LINE
5
293
100
AcDbEntity
8
0
100
AcDbLine
10
275.98540244855053
20
-524.33969007525798
30
0
11
281.48540244855064
21
-524.33969007525798
31
0
0
LINE
5
294
100
AcDbEntity
8
0
100
AcDbLine
10
281.48539544855049
20
-524.33969007525775
30
0
11
281.48540244855064
21
-524.33969007525798
31
0
0
ARC
5
295
100
AcDbEntity
8
0
100
AcDbCircle
10
281.48539544855049
20
-525.33969007525798
30
0
40
1.0000000000002274
210
0
220
0
230
1
100
AcDbArc
50
0
51
90
0
LINE
5
296
100
AcDbEntity
8
0
100
AcDbLine
10
282.48539544855072
20
-525.33969007525798
30
0
11
282.48539544855072
21
-525.33969007525798
31
0
0
LINE
5
297
100
AcDbEntity
8
0
100
AcDbLine
10
282.48539544855072
20
-525.33969007525798
30
0
11
282.48539544855072
21
-542.83969007525786
31
0
0
LINE
5
298
100
AcDbEntity
8
0
100
AcDbLine
10
282.48539544850155
20
-542.83968307525788
30
0
11
282.48539544855072
21
-542.83969007525786
31
0
0
ARC
5
299
100
AcDbEntity
8
0
100
AcDbCircle
10
281.48539544852605
20
-542.83969007525786
30
0
40
1.0000000000000853
210
0
220
0
230
1
100
AcDbArc
50
-90
51
0.00040107010969264067
0
LINE
5
300
100
AcDbEntity
8
0
100
AcDbLine
10
251.98539944855065
20
-543.83969007525775
30
0
11
251.98539244855061
21
-543.83969007525798
31
0
0
ARC
5
301
100
AcDbEntity
8
0
100
AcDbCircle
10
251.98539944855065
20
-542.83969007525786
30
0
40
0.99999999999994316
210
0
220
0
230
1
100
AcDbArc
50
180
51
270
0
LINE
5
302
100
AcDbEntity
8
0
100
AcDbLine
10
250.98539944855071
20
-542.83969207525786
30
0
11
250.98539944855071
21
-542.83969007525786
31
0
0
LINE
5
303
100
AcDbEntity
8
0
100
AcDbLine
10
250.98539944855071
20
-542.83969207525786
30
0
11
250.98539944855071
21
-525.33969007525798
31
0
0
LINE
5
304
100
AcDbEntity
8
0
100
AcDbLine
10
250.98539944855071
20
-525.33969207525797
30
0
11
250.98539944855071
21
-525.33969007525798
31
0
0
ARC
5
305
100
AcDbEntity
8
0
100
AcDbCircle
10
251.98539944855077
20
-525.33969207525797
30
0
40
1.0000000000000142
210
0
220
-0
230
1
100
AcDbArc
50
90
51
180
0
LINE
5
306
100
AcDbEntity
8
0
100
AcDbLine
10
251.98539244855061
20
-524.33969207525797
30
0
11
251.98539944855077
21
-524.33969207525797
31
0
0
LINE
5
307
100
AcDbEntity
8
0
100
AcDbLine
10
251.98539244855061
20
-524.33969207525797
30
0
11
257.48539244855061
21
-524.33969207525797
31
0
0
LINE
5
308
100
AcDbEntity
8
0
100
AcDbLine
10
257.48541144855062
20
-524.33969207525797
30
0
11
257.48539244855061
21
-524.33969207525797
31
0
0
ARC
5
309
100
AcDbEntity
8
0
100
AcDbCircle
10
257.48541144855062
20
-525.33969207525797
30
0
40
0.99999999999994316
210
0
220
-0
230
1
100
AcDbArc
50
0
51
90
0
LINE
5
310
100
AcDbEntity
8
0
100
AcDbLine
10
258.48541144855056
20
-525.33969007525786
30
0
11
258.48541144855056
21
-525.33969207525797
31
0
0
LINE
5
311
100
AcDbEntity
8
0
100
AcDbLine
10
258.48541144855056
20
-525.33969007525786
30
0
11
258.48541144855056
21
-525.83969207525797
31
0
0
LINE
5
312
100
AcDbEntity
8
0
100
AcDbLine
10
258.48541144855056
20
-525.83969107525786
30
0
11
258.48541144855056
21
-525.83969207525797
31
0
0
ARC
5
313
100
AcDbEntity
8
0
100
AcDbCircle
10
258.98541144855039
20
-525.83969107525809
30
0
40
0.49999999999982947
210
0
220
0
230
1
100
AcDbArc
50
180
51
270.00000000003257
0
LINE
5
314
100
AcDbEntity
8
0
100
AcDbLine
10
281.48539544852605
20
-543.83969007525798
30
0
11
251.98539244855061
21
-543.83969007525798
31
0
0
LINE
5
315
100
AcDbEntity
8
0
100
AcDbLine
10
63.174999999999997
20
-616.53750000000002
30
0
11
63.165904908308896
21
-616.53750000000002
31
0
0
LINE
5
316
100
AcDbEntity
8
0
100
AcDbLine
10
62.508869163663299
20
-616.53750000000002
30
0
11
53.53125
21
-616.53750000000002
31
0
0
LINE
5
317
100
AcDbEntity
8
0
100
AcDbLine
10
70.758869163663263
20
-601.95432314625862
30
0
11
70.758869163663263
21
-616.54301664323521
31
0
0
ARC
5
318
100
AcDbEntity
8
0
100
AcDbCircle
10
69.13386916366332
20
-601.95432314625862
30
0
40
1.6249999999999432
210
0
220
0
230
1
100
AcDbArc
50
0
51
90
0
LINE
5
319
100
AcDbEntity
8
0
100
AcDbLine
10
64.133869163663235
20
-600.32932314625873
30
0
11
69.13386916366332
21
-600.32932314625873
31
0
0
ARC
5
320
100
AcDbEntity
8
0
100
AcDbCircle
10
64.133869163663235
20
-601.95432314625862
30
0
40
1.6249999999999432
210
0
220
-0
230
1
100
AcDbArc
50
90
51
180
0
LINE
5
321
100
AcDbEntity
8
0
100
AcDbLine
10
85.049619767902158
20
-601.95447147852747
30
0
11
85.049619767902158
21
-616.54316497550417
31
0
0
ARC
5
322
100
AcDbEntity
8
0
100
AcDbCircle
10
83.424619767902215
20
-601.95447147852747
30
0
40
1.6249999999999432
210
0
220
0
230
1
100
AcDbArc
50
0
51
90
0
LINE
5
323
100
AcDbEntity
8
0
100
AcDbLine
10
78.424619767902158
20
-600.32947147852747
30
0
11
83.424619767902215
21
-600.32947147852747
31
0
0
ARC
5
324
100
AcDbEntity
8
0
100
AcDbCircle
10
78.424619767902158
20
-601.95447147852747
30
0
40
1.6249999999999432
210
0
220
-0
230
1
100
AcDbArc
50
90
51
180
0
LINE
5
325
100
AcDbEntity
8
0
100
AcDbLine
10
76.799619767902215
20
-601.95447147852747
30
0
11
76.799619767902215
21
-616.5461212650107
31
0
0
LINE
5
326
100
AcDbEntity
8
0
100
AcDbLine
10
185.06164336244441
20
-601.96452929541294
30
0
11
185.06164336244441
21
-618.52952929541289
31
0
0
LINE
5
327
100
AcDbEntity
8
0
100
AcDbLine
10
176.81164336244444
20
-601.96452929541294
30
0
11
176.81164336244444
21
-616.5376172104684
31
0
0
LINE
5
328
100
AcDbEntity
8
0
100
AcDbLine
10
137.96875
20
-603.53750000000002
30
0
11
137.96875
21
-616.5376172104684
31
0
0
LINE
5
329
100
AcDbEntity
8
0
100
AcDbLine
10
116.82499999999992
20
-603.53750000000002
30
0
11
116.82499999999992
21
-616.5376172104684
31
0
0
LINE
5
330
100
AcDbEntity
8
0
100
AcDbLine
10
70.758869163663263
20
-616.54301664323521
30
0
11
76.799619767902215
21
-616.54230860402822
31
0
0
LINE
5
331
100
AcDbEntity
8
0
100
AcDbLine
10
183.06164336244439
20
-620.52952929541289
30
0
11
64.508869163663292
21
-620.52952929541289
31
0
0
LINE
5
332
100
AcDbEntity
8
0
100
AcDbLine
10
62.508869163663263
20
-618.52952929541289
30
0
11
62.508869163663299
21
-616.54597293274173
31
0
0
LINE
5
333
100
AcDbEntity
8
0
100
AcDbLine
10
62.508869163663299
20
-601.95432314625862
30
0
11
62.508869163663299
21
-602.53749999999991
31
0
0
LINE
5
334
100
AcDbEntity
8
0
100
AcDbLine
10
62.508869163663299
20
-616.53750000000002
30
0
11
62.508869163663299
21
-616.54597293274173
31
0
0
LINE
5
335
100
AcDbEntity
8
0
100
AcDbLine
10
85.049619767902158
20
-616.54316497550417
30
0
11
116.82499999999992
21
-616.5376172104684
31
0
0
LINE
5
336
100
AcDbEntity
8
0
100
AcDbLine
10
137.96875
20
-616.5376172104684
30
0
11
176.81164336244444
21
-616.5376172104684
31
0
0
ARC
5
337
100
AcDbEntity
8
0
100
AcDbCircle
10
64.508869163663292
20
-618.52952929541289
30
0
40
2.0000000000000284
210
0
220
0
230
1
100
AcDbArc
50
180
51
270
0
ARC
5
338
100
AcDbEntity
8
0
100
AcDbCircle
10
183.06164336244439
20
-618.52952929541289
30
0
40
2.0000000000000284
210
0
220
0
230
1
100
AcDbArc
50
-90
51
0
0
LINE
5
339
100
AcDbEntity
8
0
100
AcDbLine
10
368.95016938633779
20
-592.33258087440049
30
0
11
354.94415971235463
21
-592.33258087440049
31
0
0
LINE
5
340
100
AcDbEntity
8
0
100
AcDbLine
10
354.94415971235463
20
-593.00844322745115
30
0
11
354.94415971235463
21
-592.33258087440049
31
0
0
LINE
5
341
100
AcDbEntity
8
0
100
AcDbLine
10
354.94415971235463
20
-593.00844322745115
30
0
11
367.94878832152131
21
-593.00843956668871
31
0
0
SPLINE
5
342
100
AcDbEntity
8
0
100
AcDbSpline
70
4
71
3
72
8
73
4
74
0
42
0.000000001
43
0.0000000001
44
0.0000000001
40
0
40
0
40
0
40
0
40
1
40
1
40
1
40
1
41
1
41
1
41
1
41
1
10
368.94724333933249
20
-594.00689942962686
30
0
10
368.94724382384516
20
-593.4529799660022
30
0
10
368.49917321118801
20
-593.00843956668871
30
0
10
367.94878832152131
20
-593.00843956668871
30
0
0
LINE
5
343
100
AcDbEntity
8
0
100
AcDbLine
10
368.94724333933249
20
-594.00689942962686
30
0
11
368.94371630223867
21
-606.00954641456656
31
0
0
SPLINE
5
344
100
AcDbEntity
8
0
100
AcDbSpline
70
4
71
3
72
8
73
4
74
0
42
0.000000001
43
0.0000000001
44
0.0000000001
40
0
40
0
40
0
40
0
40
1
40
1
40
1
40
1
41
1
41
1
41
1
41
1
10
367.94525902336835
20
-607.00799874064057
30
0
10
368.49917321118801
20
-607.00799787928463
30
0
10
368.94371630223867
20
-606.55993130423315
30
0
10
368.94371630223867
20
-606.00954641456656
30
0
0
LINE
5
345
100
AcDbEntity
8
0
100
AcDbLine
10
367.94525902336835
20
-607.00799874064057
30
0
11
354.94415971235463
21
-607.00799874064057
31
0
0
LINE
5
346
100
AcDbEntity
8
0
100
AcDbLine
10
354.94415971235463
20
-607.83259687440034
30
0
11
354.94415971235463
21
-607.00799874064057
31
0
0
LINE
5
347
100
AcDbEntity
8
0
100
AcDbLine
10
368.95016938633779
20
-607.83259687440034
30
0
11
354.94415971235463
21
-607.83259687440034
31
0
0
ARC
5
348
100
AcDbEntity
8
0
100
AcDbCircle
10
369.45016938633762
20
-607.83259687440068
30
0
40
0.49999999999982947
210
0
220
0
230
1
100
AcDbArc
50
180
51
270.00000000001955
0
LINE
5
349
100
AcDbEntity
8
0
100
AcDbLine
10
369.45016938633779
20
-608.33259687440045
30
0
11
369.45016838633768
21
-608.33259687440045
31
0
0
LINE
5
350
100
AcDbEntity
8
0
100
AcDbLine
10
369.45016838633768
20
-608.33259687440045
30
0
11
369.95017038633767
21
-608.33259687440045
31
0
0
LINE
5
351
100
AcDbEntity
8
0
100
AcDbLine
10
369.95017038633767
20
-608.33259687440045
30
0
11
369.95017038633785
21
-608.33259687440045
31
0
0
ARC
5
352
100
AcDbEntity
8
0
100
AcDbCircle
10
369.95017038633785
20
-609.33259687440045
30
0
40
0.99999999999994316
210
0
220
-0
230
1
100
AcDbArc
50
0
51
90
0
LINE
5
353
100
AcDbEntity
8
0
100
AcDbLine
10
370.95017038633779
20
-609.33259687440045
30
0
11
370.95017038633779
21
-609.33258887440036
31
0
0
LINE
5
354
100
AcDbEntity
8
0
100
AcDbLine
10
370.95017038633779
20
-609.33258887440036
30
0
11
370.95017038633779
21
-614.83258887440024
31
0
0
LINE
5
355
100
AcDbEntity
8
0
100
AcDbLine
10
370.95017038633779
20
-614.83258187440015
30
0
11
370.95017038633779
21
-614.83258887440024
31
0
0
ARC
5
356
100
AcDbEntity
8
0
100
AcDbCircle
10
369.95017038633756
20
-614.83258187440015
30
0
40
1.0000000000002274
210
-0
220
0
230
1
100
AcDbArc
50
-90
51
0
0
LINE
5
357
100
AcDbEntity
8
0
100
AcDbLine
10
369.95017038633785
20
-615.83258187440038
30
0
11
369.95017038633756
21
-615.83258187440038
31
0
0
LINE
5
358
100
AcDbEntity
8
0
100
AcDbLine
10
369.95017038633785
20
-615.83258187440038
30
0
11
352.45017038633796
21
-615.83258187440038
31
0
0
LINE
5
359
100
AcDbEntity
8
0
100
AcDbLine
10
352.450177386338
20
-615.83258187435126
30
0
11
352.45017038633796
21
-615.83258187440038
31
0
0
ARC
5
360
100
AcDbEntity
8
0
100
AcDbCircle
10
352.45017038633796
20
-614.83258187437571
30
0
40
1.0000000000000142
210
0
220
0
230
1
100
AcDbArc
50
180
51
270.00040107045885
0
LINE
5
361
100
AcDbEntity
8
0
100
AcDbLine
10
351.45017038633796
20
-614.83258187437571
30
0
11
351.45017038633807
21
-585.33257887440061
31
0
0
LINE
5
362
100
AcDbEntity
8
0
100
AcDbLine
10
351.45017038633807
20
-585.33258587440059
30
0
11
351.45017038633807
21
-585.33257887440061
31
0
0
ARC
5
363
100
AcDbEntity
8
0
100
AcDbCircle
10
352.45017038633807
20
-585.33258587440059
30
0
40
0.99999999999994316
210
0
220
-0
230
1
100
AcDbArc
50
90
51
180
0
LINE
5
364
100
AcDbEntity
8
0
100
AcDbLine
10
352.45016838633819
20
-584.33258587440059
30
0
11
352.45017038633807
21
-584.33258587440059
31
0
0
LINE
5
365
100
AcDbEntity
8
0
100
AcDbLine
10
352.45016838633819
20
-584.33258587440059
30
0
11
369.9501703863379
21
-584.33258587440059
31
0
0
LINE
5
366
100
AcDbEntity
8
0
100
AcDbLine
10
369.95016838633785
20
-584.33258587440059
30
0
11
369.9501703863379
21
-584.33258587440059
31
0
0
ARC
5
367
100
AcDbEntity
8
0
100
AcDbCircle
10
369.95016838633785
20
-585.33258587440059
30
0
40
0.99999999999994316
210
0
220
-0
230
1
100
AcDbArc
50
0
51
90
0
LINE
5
368
100
AcDbEntity
8
0
100
AcDbLine
10
370.95016838633785
20
-585.33257887440061
30
0
11
370.95016838633785
21
-585.33258587440059
31
0
0
LINE
5
369
100
AcDbEntity
8
0
100
AcDbLine
10
370.95016838633785
20
-585.33257887440061
30
0
11
370.95016838633774
21
-590.8325788744005
31
0
0
LINE
5
370
100
AcDbEntity
8
0
100
AcDbLine
10
370.95016838633774
20
-590.83259787440056
30
0
11
370.95016838633774
21
-590.8325788744005
31
0
0
ARC
5
371
100
AcDbEntity
8
0
100
AcDbCircle
10
369.95016838633779
20
-590.83259787440056
30
0
40
0.99999999999994316
210
-0
220
0
230
1
100
AcDbArc
50
-90
51
0
0
LINE
5
372
100
AcDbEntity
8
0
100
AcDbLine
10
369.95017038633785
20
-591.83259787440056
30
0
11
369.95016838633779
21
-591.83259787440056
31
0
0
LINE
5
373
100
AcDbEntity
8
0
100
AcDbLine
10
369.95017038633785
20
-591.83259787440056
30
0
11
369.45016838633785
21
-591.83259787440056
31
0
0
LINE
5
374
100
AcDbEntity
8
0
100
AcDbLine
10
369.45016938633779
20
-591.83259787440056
30
0
11
369.45016838633785
21
-591.83259787440056
31
0
0
ARC
5
375
100
AcDbEntity
8
0
100
AcDbCircle
10
369.45016938633762
20
-592.33259787440034
30
0
40
0.49999999999982947
210
0
220
-0
230
1
100
AcDbArc
50
89.99999999998046
51
180
0
LINE
5
376
100
AcDbEntity
8
0
100
AcDbLine
10
368.95016938633779
20
-554.23258087440047
30
0
11
354.94415971235463
21
-554.23258087440047
31
0
0
LINE
5
377
100
AcDbEntity
8
0
100
AcDbLine
10
354.94415971235463
20
-554.90844322745124
30
0
11
354.94415971235463
21
-554.23258087440047
31
0
0
LINE
5
378
100
AcDbEntity
8
0
100
AcDbLine
10
354.94415971235463
20
-554.90844322745124
30
0
11
367.94878832152131
21
-554.90843956668868
31
0
0
SPLINE
5
379
100
AcDbEntity
8
0
100
AcDbSpline
70
4
71
3
72
8
73
4
74
0
42
0.000000001
43
0.0000000001
44
0.0000000001
40
0
40
0
40
0
40
0
40
1
40
1
40
1
40
1
41
1
41
1
41
1
41
1
10
368.94724333933249
20
-555.90689942962683
30
0
10
368.94724382384516
20
-555.35297996600218
30
0
10
368.49917321118801
20
-554.90843956668868
30
0
10
367.94878832152131
20
-554.90843956668868
30
0
0
LINE
5
380
100
AcDbEntity
8
0
100
AcDbLine
10
368.94724333933249
20
-555.90689942962683
30
0
11
368.94371630223867
21
-567.90954641456653
31
0
0
SPLINE
5
381
100
AcDbEntity
8
0
100
AcDbSpline
70
4
71
3
72
8
73
4
74
0
42
0.000000001
43
0.0000000001
44
0.0000000001
40
0
40
0
40
0
40
0
40
1
40
1
40
1
40
1
41
1
41
1
41
1
41
1
10
367.94525902336835
20
-568.90799874064055
30
0
10
368.49917321118801
20
-568.90799787928461
30
0
10
368.94371630223867
20
-568.45993130423312
30
0
10
368.94371630223867
20
-567.90954641456653
30
0
0
LINE
5
382
100
AcDbEntity
8
0
100
AcDbLine
10
367.94525902336835
20
-568.90799874064055
30
0
11
354.94415971235463
21
-568.90799874064055
31
0
0
LINE
5
383
100
AcDbEntity
8
0
100
AcDbLine
10
354.94415971235463
20
-569.73259687440031
30
0
11
354.94415971235463
21
-568.90799874064055
31
0
0
LINE
5
384
100
AcDbEntity
8
0
100
AcDbLine
10
368.95016938633779
20
-569.73259687440031
30
0
11
354.94415971235463
21
-569.73259687440031
31
0
0
ARC
5
385
100
AcDbEntity
8
0
100
AcDbCircle
10
369.45016938633762
20
-569.73259687440066
30
0
40
0.49999999999982947
210
0
220
0
230
1
100
AcDbArc
50
180
51
270.00000000001955
0
LINE
5
386
100
AcDbEntity
8
0
100
AcDbLine
10
369.45016938633779
20
-570.23259687440043
30
0
11
369.45016838633768
21
-570.23259687440043
31
0
0
LINE
5
387
100
AcDbEntity
8
0
100
AcDbLine
10
369.45016838633768
20
-570.23259687440043
30
0
11
369.95017038633767
21
-570.23259687440043
31
0
0
LINE
5
388
100
AcDbEntity
8
0
100
AcDbLine
10
369.95017038633767
20
-570.23259687440043
30
0
11
369.95017038633785
21
-570.23259687440043
31
0
0
ARC
5
389
100
AcDbEntity
8
0
100
AcDbCircle
10
369.95017038633785
20
-571.23259687440043
30
0
40
0.99999999999994316
210
0
220
-0
230
1
100
AcDbArc
50
0
51
90
0
LINE
5
390
100
AcDbEntity
8
0
100
AcDbLine
10
370.95017038633779
20
-571.23259687440043
30
0
11
370.95017038633779
21
-571.23258887440034
31
0
0
LINE
5
391
100
AcDbEntity
8
0
100
AcDbLine
10
370.95017038633779
20
-571.23258887440034
30
0
11
370.95017038633779
21
-576.73258887440034
31
0
0
LINE
5
392
100
AcDbEntity
8
0
100
AcDbLine
10
370.95017038633779
20
-576.73258187440013
30
0
11
370.95017038633779
21
-576.73258887440034
31
0
0
ARC
5
393
100
AcDbEntity
8
0
100
AcDbCircle
10
369.95017038633756
20
-576.73258187440013
30
0
40
1.0000000000002274
210
-0
220
0
230
1
100
AcDbArc
50
-90
51
0
0
LINE
5
394
100
AcDbEntity
8
0
100
AcDbLine
10
369.95017038633785
20
-577.73258187440035
30
0
11
369.95017038633756
21
-577.73258187440035
31
0
0
LINE
5
395
100
AcDbEntity
8
0
100
AcDbLine
10
369.95017038633785
20
-577.73258187440035
30
0
11
352.45017038633796
21
-577.73258187440035
31
0
0
LINE
5
396
100
AcDbEntity
8
0
100
AcDbLine
10
352.450177386338
20
-577.73258187435113
30
0
11
352.45017038633796
21
-577.73258187440035
31
0
0
ARC
5
397
100
AcDbEntity
8
0
100
AcDbCircle
10
352.45017038633796
20
-576.73258187437568
30
0
40
1.0000000000000142
210
0
220
0
230
1
100
AcDbArc
50
180
51
270.00040107045885
0
LINE
5
398
100
AcDbEntity
8
0
100
AcDbLine
10
351.45017038633796
20
-576.73258187437568
30
0
11
351.45017038633807
21
-547.23257887440059
31
0
0
LINE
5
399
100
AcDbEntity
8
0
100
AcDbLine
10
351.45017038633807
20
-547.23258587440057
30
0
11
351.45017038633807
21
-547.23257887440059
31
0
0
ARC
5
400
100
AcDbEntity
8
0
100
AcDbCircle
10
352.45017038633807
20
-547.23258587440057
30
0
40
0.99999999999994316
210
0
220
-0
230
1
100
AcDbArc
50
90
51
180
0
LINE
5
401
100
AcDbEntity
8
0
100
AcDbLine
10
352.45016838633819
20
-546.23258587440068
30
0
11
352.45017038633807
21
-546.23258587440068
31
0
0
LINE
5
402
100
AcDbEntity
8
0
100
AcDbLine
10
352.45016838633819
20
-546.23258587440068
30
0
11
369.9501703863379
21
-546.23258587440068
31
0
0
LINE
5
403
100
AcDbEntity
8
0
100
AcDbLine
10
369.95016838633785
20
-546.23258587440068
30
0
11
369.9501703863379
21
-546.23258587440068
31
0
0
ARC
5
404
100
AcDbEntity
8
0
100
AcDbCircle
10
369.95016838633785
20
-547.23258587440057
30
0
40
0.99999999999994316
210
0
220
-0
230
1
100
AcDbArc
50
0
51
90
0
LINE
5
405
100
AcDbEntity
8
0
100
AcDbLine
10
370.95016838633785
20
-547.23257887440059
30
0
11
370.95016838633785
21
-547.23258587440057
31
0
0
LINE
5
406
100
AcDbEntity
8
0
100
AcDbLine
10
370.95016838633785
20
-547.23257887440059
30
0
11
370.95016838633774
21
-552.73257887440059
31
0
0
LINE
5
407
100
AcDbEntity
8
0
100
AcDbLine
10
370.95016838633774
20
-552.73259787440054
30
0
11
370.95016838633774
21
-552.73257887440059
31
0
0
ARC
5
408
100
AcDbEntity
8
0
100
AcDbCircle
10
369.95016838633779
20
-552.73259787440054
30
0
40
0.99999999999994316
210
-0
220
0
230
1
100
AcDbArc
50
-90
51
0
0
LINE
5
409
100
AcDbEntity
8
0
100
AcDbLine
10
369.95017038633785
20
-553.73259787440043
30
0
11
369.95016838633779
21
-553.73259787440043
31
0
0
LINE
5
410
100
AcDbEntity
8
0
100
AcDbLine
10
369.95017038633785
20
-553.73259787440043
30
0
11
369.45016838633785
21
-553.73259787440043
31
0
0
LINE
5
411
100
AcDbEntity
8
0
100
AcDbLine
10
369.45016938633779
20
-553.73259787440043
30
0
11
369.45016838633785
21
-553.73259787440043
31
0
0
ARC
5
412
100
AcDbEntity
8
0
100
AcDbCircle
10
369.45016938633762
20
-554.23259787440031
30
0
40
0.49999999999982947
210
0
220
-0
230
1
100
AcDbArc
50
89.99999999998046
51
180
0
CIRCLE
5
413
100
AcDbEntity
8
0
100
AcDbCircle
10
-0.47499999999999987
20
-495.02499999999998
30
0
40
3.0000000000000022
210
0
220
0
230
1
0
CIRCLE
5
414
100
AcDbEntity
8
0
100
AcDbCircle
10
-0.47499999999999432
20
-628.79999999999995
30
0
40
3.0000000000000004
210
0
220
0
230
1
0
CIRCLE
5
415
100
AcDbEntity
8
0
100
AcDbCircle
10
127.01666666666669
20
-628.79999999999995
30
0
40
3.0000000000000071
210
0
220
0
230
1
0
CIRCLE
5
416
100
AcDbEntity
8
0
100
AcDbCircle
10
244.45799999999997
20
-628.79999999999995
30
0
40
3.0000000000000071
210
0
220
0
230
1
0
CIRCLE
5
417
100
AcDbEntity
8
0
100
AcDbCircle
10
371.94999999999948
20
-628.79999999999995
30
0
40
2.9999999999999716
210
0
220
0
230
1
0
CIRCLE
5
418
100
AcDbEntity
8
0
100
AcDbCircle
10
371.94999999999999
20
-495.02499999999998
30
0
40
3.0000000000000049
210
0
220
0
230
1
0
CIRCLE
5
419
100
AcDbEntity
8
0
100
AcDbCircle
10
244.45799999999997
20
-495.02499999999998
30
0
40
3.0000000000000071
210
0
220
0
230
1
0
ENDSEC
0
SECTION
2
OBJECTS
0
DICTIONARY
5
C
100
AcDbDictionary
3
ACAD_GROUP
350
D
3
ACAD_MLINESTYLE
350
17
0
DICTIONARY
5
D
100
AcDbDictionary
0
DICTIONARY
5
1A
330
C
100
AcDbDictionary
0
DICTIONARY
5
17
100
AcDbDictionary
0
ENDSEC
0
EOF
