0
SECTION
2
HEADER
9
$INSUNITS
70
4
9
$ACADVER
1
AC1014
9
$HANDSEED
5
FFFF
0
ENDSEC
0
SECTION
2
TABLES
0
TABLE
2
VPORT
5
8
100
AcDbSymbolTable
0
ENDTAB
0
TABLE
2
LTYPE
5
5
100
AcDbSymbolTable
0
LTYPE
5
14
100
AcDbSymbolTableRecord
100
AcDbLinetypeTableRecord
2
BYBLOCK
70
0
0
LTYPE
5
15
100
AcDbSymbolTableRecord
100
AcDbLinetypeTableRecord
2
BYLAYER
70
0
0
ENDTAB
0
TABLE
2
LAYER
5
2
100
AcDbSymbolTable
70
2
0
LAYER
5
50
100
AcDbSymbolTableRecord
100
AcDbLayerTableRecord
2
0
70
0
6
CONTINUOUS
0
ENDTAB
0
TABLE
2
STYLE
5
3
100
AcDbSymbolTable
70
1
0
STYLE
5
11
100
AcDbSymbolTableRecord
100
AcDbTextStyleTableRecord
2
STANDARD
70
0
0
ENDTAB
0
TABLE
2
VIEW
5
6
100
AcDbSymbolTable
70
0
0
ENDTAB
0
TABLE
2
UCS
5
7
100
AcDbSymbolTable
70
0
0
ENDTAB
0
TABLE
2
APPID
5
9
100
AcDbSymbolTable
70
2
0
APPID
5
12
100
AcDbSymbolTableRecord
100
AcDbRegAppTableRecord
2
ACAD
70
0
0
ENDTAB
0
TABLE
2
DIMSTYLE
5
A
100
AcDbSymbolTable
70
1
0
ENDTAB
0
TABLE
2
BLOCK_RECORD
5
1
100
AcDbSymbolTable
70
1
0
BLOCK_RECORD
5
1F
100
AcDbSymbolTableRecord
100
AcDbBlockTableRecord
2
*MODEL_SPACE
0
BLOCK_RECORD
5
1B
100
AcDbSymbolTableRecord
100
AcDbBlockTableRecord
2
*PAPER_SPACE
0
ENDTAB
0
ENDSEC
0
SECTION
2
BLOCKS
0
BLOCK
5
20
100
AcDbEntity
100
AcDbBlockBegin
2
*MODEL_SPACE
0
ENDBLK
5
21
100
AcDbEntity
100
AcDbBlockEnd
0
BLOCK
5
1C
100
AcDbEntity
100
AcDbBlockBegin
2
*PAPER_SPACE
0
ENDBLK
5
1D
100
AcDbEntity
100
AcDbBlockEnd
0
ENDSEC
0
SECTION
2
ENTITIES
0
LWPOLYLINE
5
100
100
AcDbEntity
8
0
100
AcDbPolyline
90
8
70
1
43
0.0
10
776.94999999999993
20
-384.52499999999998
10
776.94999999999993
20
-519.29999999999995
42
-0.41421356237310025
10
772.95000000000005
20
-523.29999999999995
10
398.52499999999998
20
-523.29999999999995
42
-0.41421356237309503
10
394.52499999999998
20
-519.29999999999995
10
394.52499999999998
20
-384.52499999999998
42
-0.41421356237309503
10
398.52499999999998
20
-380.52500000000003
10
772.94999999999982
20
-380.52500000000003
42
-0.41421356237310025
0
CIRCLE
5
101
100
AcDbEntity
8
0
100
AcDbCircle
10
771.94999999999948
20
-518.80000000000007
30
0
40
1.7499999999999716
210
0
220
0
230
1
0
CIRCLE
5
102
100
AcDbEntity
8
0
100
AcDbCircle
10
644.45799999999986
20
-518.80000000000007
30
0
40
1.7499999999999996
210
0
220
0
230
1
0
CIRCLE
5
103
100
AcDbEntity
8
0
100
AcDbCircle
10
527.01666666666665
20
-518.80000000000007
30
0
40
1.750000000000006
210
0
220
0
230
1
0
CIRCLE
5
104
100
AcDbEntity
8
0
100
AcDbCircle
10
399.52499999999998
20
-518.80000000000007
30
0
40
1.7500000000000036
210
0
220
0
230
1
0
CIRCLE
5
105
100
AcDbEntity
8
0
100
AcDbCircle
10
771.94999999999993
20
-385.02499999999998
30
0
40
3.0000000000000049
210
0
220
0
230
1
0
CIRCLE
5
106
100
AcDbEntity
8
0
100
AcDbCircle
10
644.45799999999986
20
-385.02499999999998
30
0
40
3.0000000000000071
210
0
220
0
230
1
0
CIRCLE
5
107
100
AcDbEntity
8
0
100
AcDbCircle
10
527.01666666666665
20
-385.02499999999998
30
0
40
3.0000000000000071
210
0
220
0
230
1
0
CIRCLE
5
108
100
AcDbEntity
8
0
100
AcDbCircle
10
399.52499999999998
20
-385.02499999999998
30
0
40
3.0000000000000022
210
0
220
0
230
1
0
LINE
5
109
100
AcDbEntity
8
0
100
AcDbLine
10
738.47595021944585
20
-508.69272940536223
30
0
11
738.50839660996758
21
-508.56860428015187
31
0
0
SPLINE
5
110
100
AcDbEntity
8
0
100
AcDbSpline
70
0
71
3
72
8
73
4
74
0
42
0.000000001
43
0.0000000001
44
0.0000000001
40
30
40
30
40
30
40
30
40
31
40
31
40
31
40
31
10
726.16795275036588
20
-508.9202921343678
30
0
10
726.08503419682381
20
-508.95821925595664
30
0
10
726.02194399304096
20
-508.98063073689548
30
0
10
725.97868213902007
20
-508.98752657718182
30
0
0
SPLINE
5
111
100
AcDbEntity
8
0
100
AcDbSpline
70
0
71
3
72
8
73
4
74
0
42
0.000000001
43
0.0000000001
44
0.0000000001
40
12
40
12
40
12
40
12
40
13
40
13
40
13
40
13
10
715.31463512259347
20
-512.69576469243862
30
0
10
715.28579388657943
20
-512.69576469243771
30
0
10
715.27137326857269
20
-512.68197301185705
30
0
10
715.27137326857451
20
-512.65438965069939
30
0
0
LINE
5
112
100
AcDbEntity
8
0
100
AcDbLine
10
737.37818067352532
20
-511.56312292586171
30
0
11
738.47595021944585
21
-508.69272940536223
31
0
0
LINE
5
113
100
AcDbEntity
8
0
100
AcDbLine
10
737.74049870111253
20
-508.04107249796209
30
0
11
740.14693933104923
21
-508.04107249807038
31
0
0
SPLINE
5
114
100
AcDbEntity
8
0
100
AcDbSpline
70
0
71
3
72
8
73
4
74
0
42
0.000000001
43
0.0000000001
44
0.0000000001
40
10
40
10
40
10
40
10
40
11
40
11
40
11
40
11
10
738.50839660996758
20
-508.56860428015187
30
0
10
738.50839660997747
20
-508.35483323117398
30
0
10
738.37320331616525
20
-508.25139562682318
30
0
10
738.10281672853239
20
-508.25829146710129
30
0
0
LWPOLYLINE
5
115
100
AcDbEntity
8
0
100
AcDbPolyline
90
4
70
1
43
0.0
10
751.94249184216687
20
-509.3362428584436
10
751.94249184212686
20
-510.22960869410542
10
756.968771719919
20
-510.22960869433098
10
756.96877171995891
20
-509.33624285866927
0
SPLINE
5
116
100
AcDbEntity
8
0
100
AcDbSpline
70
0
71
3
72
10
73
6
74
0
42
0.000000001
43
0.0000000001
44
0.0000000001
40
10
40
10
40
10
40
10
40
11
40
11
40
12
40
12
40
12
40
12
10
730.19130517422423
20
-511.72862309248944
30
0
10
730.20933094673399
20
-511.71827933205543
30
0
10
730.22825800786927
20
-511.69672983115117
30
0
10
730.26791470739158
20
-511.631219348402
30
0
10
730.28864434577758
20
-511.61484172771458
30
0
10
730.31027527278752
20
-511.6148417277156
30
0
0
SPLINE
5
117
100
AcDbEntity
8
0
100
AcDbSpline
70
0
71
3
72
8
73
4
74
0
42
0.000000001
43
0.0000000001
44
0.0000000001
40
0
40
0
40
0
40
0
40
1
40
1
40
1
40
1
10
718.65120561422771
20
-507.36872806886936
30
0
10
718.26184892804417
20
-507.18943622132088
30
0
10
717.83283554234481
20
-506.9204984500077
30
0
10
717.3641654571295
20
-506.56191475492705
30
0
0
SPLINE
5
118
100
AcDbEntity
8
0
100
AcDbSpline
70
0
71
3
72
8
73
4
74
0
42
0.000000001
43
0.0000000001
44
0.0000000001
40
16
40
16
40
16
40
16
40
17
40
17
40
17
40
17
10
716.39077374139049
20
-512.33890495749915
30
0
10
716.43764074991418
20
-512.31132159634319
30
0
10
716.46107425418211
20
-512.188920431204
30
0
10
716.4610742541912
20
-511.97170146208214
30
0
0
LINE
5
119
100
AcDbEntity
8
0
100
AcDbLine
10
734.7878771641565
20
-508.04107249782925
30
0
11
736.83740749841706
21
-508.04107249792128
31
0
0
SPLINE
5
120
100
AcDbEntity
8
0
100
AcDbSpline
70
0
71
3
72
8
73
4
74
0
42
0.000000001
43
0.0000000001
44
0.0000000001
40
1
40
1
40
1
40
1
40
2
40
2
40
2
40
2
10
717.3641654571295
20
-506.56191475492705
30
0
10
717.28124690359095
20
-506.49985219231729
30
0
10
717.2415902040733
20
-506.47226883115701
30
0
10
717.24519535857451
20
-506.47916467144682
30
0
0
SPLINE
5
121
100
AcDbEntity
8
0
100
AcDbSpline
70
0
71
3
72
10
73
6
74
0
42
0.000000001
43
0.0000000001
44
0.0000000001
40
18
40
18
40
18
40
18
40
19
40
19
40
20
40
20
40
20
40
20
10
716.46107425447497
20
-505.66200759709329
30
0
10
716.46107425447678
20
-505.62408047550099
30
0
10
716.46648198623041
20
-505.59822107441437
30
0
10
716.48811291324205
20
-505.5706377132575
30
0
10
716.51695414925723
20
-505.56374187296854
30
0
10
716.56382115778001
20
-505.56374187297138
30
0
0
LINE
5
122
100
AcDbEntity
8
0
100
AcDbLine
10
716.56382115778001
20
-505.56374187297138
30
0
11
716.86665413593016
21
-505.56374187298496
31
0
0
ELLIPSE
5
123
100
AcDbEntity
8
0
100
AcDbEllipse
10
758.09924290465869
20
-506.004478200336
30
0
11
-2.5209739491001688
21
7.2749995790421229
31
0.0
40
0.066317827205818525
41
3.118616177836953
42
3.3306861013652651
0
LINE
5
124
100
AcDbEntity
8
0
100
AcDbLine
10
758.6094554293345
20
-512.32934445427179
30
0
11
759.00181644267332
21
-512.35542812832261
31
0
0
SPLINE
5
125
100
AcDbEntity
8
0
100
AcDbSpline
70
0
71
3
72
8
73
4
74
0
42
0.000000001
43
0.0000000001
44
0.0000000001
40
15
40
15
40
15
40
15
40
16
40
16
40
16
40
16
10
728.77447945515303
20
-508.87374521252889
30
0
10
728.60864234806854
20
-508.92891193483882
30
0
10
728.52572379452363
20
-509.02890161903366
30
0
10
728.52572379451726
20
-509.17371426511556
30
0
0
LINE
5
126
100
AcDbEntity
8
0
100
AcDbLine
10
737.02127037786636
20
-511.21143507107638
30
0
11
737.16187140341958
21
-511.54760728519994
31
0
0
LINE
5
127
100
AcDbEntity
8
0
100
AcDbLine
10
718.61335149172862
20
-512.53026452563631
30
0
11
718.61335149172317
21
-512.65438965084945
31
0
0
LINE
5
128
100
AcDbEntity
8
0
100
AcDbLine
10
716.4610742541912
20
-511.97170146208214
30
0
11
716.46107425447497
21
-505.66200759709329
31
0
0
SPLINE
5
129
100
AcDbEntity
8
0
100
AcDbSpline
70
0
71
3
72
8
73
4
74
0
42
0.000000001
43
0.0000000001
44
0.0000000001
40
24
40
24
40
24
40
24
40
25
40
25
40
25
40
25
10
718.79180663980367
20
-507.23943106344569
30
0
10
718.74493963127622
20
-507.32907698720749
30
0
10
718.70888808625591
20
-507.37389994908909
30
0
10
718.68365200474386
20
-507.37389994908716
30
0
0
SPLINE
5
130
100
AcDbEntity
8
0
100
AcDbSpline
70
0
71
3
72
11
73
7
74
0
42
0.000000001
43
0.0000000001
44
0.0000000001
40
14
40
14
40
14
40
14
40
15
40
15
40
15
40
16
40
16
40
16
40
16
10
715.27137326858008
20
-512.53026452548625
30
0
10
715.27137326858099
20
-512.50268116432756
30
0
10
715.28579388658943
20
-512.48888948374974
30
0
10
715.31463512260359
20
-512.48888948375065
30
0
10
715.85540829787021
20
-512.48888948377521
30
0
10
716.21412117079888
20
-512.43889464169047
30
0
10
716.39077374139049
20
-512.33890495749915
30
0
0
LINE
5
131
100
AcDbEntity
8
0
100
AcDbLine
10
718.68365200474386
20
-507.37389994908716
30
0
11
718.65120561422771
21
-507.36872806886936
31
0
0
SPLINE
5
132
100
AcDbEntity
8
0
100
AcDbSpline
70
0
71
3
72
10
73
6
74
0
42
0.000000001
43
0.0000000001
44
0.0000000001
40
15
40
15
40
15
40
15
40
16
40
16
40
17
40
17
40
17
40
17
10
740.14693933104923
20
-508.04107249807038
30
0
10
740.2334630390917
20
-508.04107249807396
30
0
10
740.27672489311158
20
-508.0772756595963
30
0
10
740.27672489310521
20
-508.22208830567808
30
0
10
740.20101664856622
20
-508.26518730748484
30
0
10
740.04960015949121
20
-508.27897898805725
30
0
0
LINE
5
133
100
AcDbEntity
8
0
100
AcDbLine
10
727.85516505724286
20
-507.93246301295687
30
0
11
729.23413665414432
21
-508.55308863908357
31
0
0
LINE
5
134
100
AcDbEntity
8
0
100
AcDbLine
10
764.65722691104418
20
-507.37344638809503
30
0
11
764.65722691060591
21
-517.1417823138039
31
0
0
LINE
5
135
100
AcDbEntity
8
0
100
AcDbLine
10
764.57604876990843
20
-517.27872160247841
30
0
11
763.6627946871489
21
-516.91355016596253
31
0
0
LINE
5
136
100
AcDbEntity
8
0
100
AcDbLine
10
730.31027527278752
20
-511.6148417277156
30
0
11
730.33731393155108
21
-511.61484172771742
31
0
0
SPLINE
5
137
100
AcDbEntity
8
0
100
AcDbSpline
70
0
71
3
72
14
73
10
74
0
42
0.000000001
43
0.0000000001
44
0.0000000001
40
3
40
3
40
3
40
3
40
4
40
4
40
5
40
5
40
6
40
6
40
7
40
7
40
7
40
7
10
744.79380446599612
20
-507.86251527504396
30
0
10
744.77592594692862
20
-507.58863669768681
30
0
10
744.76094664716697
20
-507.38415932445628
30
0
10
744.73871929913298
20
-507.11493854603413
30
0
10
744.74645055062979
20
-507.0474004614818
30
0
10
744.80056931109016
20
-507.04740046148453
30
0
10
744.86048651017177
20
-507.05811339903738
30
0
10
745.04507013959869
20
-507.10189670903048
30
0
10
745.30551667431359
20
-507.15592717668295
30
0
10
745.73411792902994
20
-507.24302801678112
30
0
0
SPLINE
5
138
100
AcDbEntity
8
0
100
AcDbSpline
70
0
71
3
72
10
73
6
74
0
42
0.000000001
43
0.0000000001
44
0.0000000001
40
27
40
27
40
27
40
27
40
28
40
28
40
29
40
29
40
29
40
29
10
764.65722691060591
20
-517.1417823138039
30
0
10
764.65722691060319
20
-517.20279947984761
30
0
10
764.65384448807197
20
-517.2405276512186
30
0
10
764.64031479795665
20
-517.27126912418623
30
0
10
764.61663784025359
20
-517.27872160248023
30
0
10
764.57604876990843
20
-517.27872160247841
30
0
0
LINE
5
139
100
AcDbEntity
8
0
100
AcDbLine
10
715.27137326857451
20
-512.65438965069939
30
0
11
715.27137326858008
21
-512.53026452548625
31
0
0
LINE
5
140
100
AcDbEntity
8
0
100
AcDbLine
10
727.68211764111516
20
-508.86340145204593
30
0
11
727.68211764115244
21
-508.02555685685934
31
0
0
SPLINE
5
141
100
AcDbEntity
8
0
100
AcDbSpline
70
0
71
3
72
8
73
4
74
0
42
0.000000001
43
0.0000000001
44
0.0000000001
40
25
40
25
40
25
40
25
40
26
40
26
40
26
40
26
10
727.21164497847371
20
-512.42682692167739
30
0
10
727.5252934201319
20
-512.34062891807218
30
0
10
727.68211764096691
20
-512.16823291083915
30
0
10
727.68211764097782
20
-511.90963889997897
30
0
0
ELLIPSE
5
142
100
AcDbEntity
8
0
100
AcDbEllipse
10
760.8318817424805
20
-513.05919904857637
30
0
11
0.12967086994152702
21
-0.5917252323640354
31
0.0
40
0.28955942334782603
41
3.0782194867454704
42
3.3759435785280978
0
SPLINE
5
143
100
AcDbEntity
8
0
100
AcDbSpline
70
0
71
3
72
19
73
15
74
0
42
0.000000001
43
0.0000000001
44
0.0000000001
40
0
40
0
40
0
40
0
40
1
40
1
40
1
40
2
40
2
40
3
40
3
40
4
40
4
40
5
40
5
40
6
40
6
40
6
40
6
10
736.83740749841706
20
-508.04107249792128
30
0
10
736.91672089745612
20
-508.04107249792474
30
0
10
736.95637759697479
20
-508.07037981915732
30
0
10
736.95637759697206
20
-508.1289944616193
30
0
10
736.95637759696751
20
-508.23243206596271
30
0
10
736.86805131167159
20
-508.28415086813146
30
0
10
736.51474617049655
20
-508.28415086811594
30
0
10
736.37414514492616
20
-508.33500769024533
30
0
10
736.16504618381373
20
-508.53843497877926
30
0
10
736.11277144353369
20
-508.63583872286762
30
0
10
736.11277144352539
20
-508.82202641068693
30
0
10
736.14251396815905
20
-508.96166717655268
30
0
10
736.2614840666995
20
-509.33404255219665
30
0
10
736.53457452017858
20
-510.02190262109718
30
0
10
737.02127037786636
20
-511.21143507107638
30
0
0
SPLINE
5
144
100
AcDbEntity
8
0
100
AcDbSpline
70
0
71
3
72
8
73
4
74
0
42
0.000000001
43
0.0000000001
44
0.0000000001
40
11
40
11
40
11
40
11
40
12
40
12
40
12
40
12
10
738.10281672853239
20
-508.25829146710129
30
0
10
737.93697962144972
20
-508.26173938723889
30
0
10
737.8216146773932
20
-508.25139562679874
30
0
10
737.75672189636236
20
-508.22726018578231
30
0
0
SPLINE
5
145
100
AcDbEntity
8
0
100
AcDbSpline
70
0
71
3
72
14
73
10
74
0
42
0.000000001
43
0.0000000001
44
0.0000000001
40
32
40
32
40
32
40
32
40
33
40
33
40
34
40
34
40
35
40
35
40
36
40
36
40
36
40
36
10
763.60191108179731
20
-513.20966845314001
30
0
10
763.38108721098752
20
-513.25764378215752
30
0
10
763.1679945916726
20
-513.28139855671498
30
0
10
762.75727185603273
20
-513.28139855669588
30
0
10
762.51180462108778
20
-513.22364184989556
30
0
10
761.93872560407681
20
-512.99354658249865
30
0
10
761.6256099185598
20
-512.85753885359418
30
0
10
760.94429338063082
20
-512.54453476515619
30
0
10
760.76985701879164
20
-512.46628374304646
30
0
10
760.76067615764305
20
-512.46628374304646
30
0
0
SPLINE
5
146
100
AcDbEntity
8
0
100
AcDbSpline
70
0
71
3
72
10
73
6
74
0
42
0.000000001
43
0.0000000001
44
0.0000000001
40
21
40
21
40
21
40
21
40
22
40
22
40
23
40
23
40
23
40
23
10
763.60191108205925
20
-507.37344638804768
30
0
10
763.60191108206209
20
-507.31242922200403
30
0
10
763.60529350459319
20
-507.27470105063321
30
0
10
763.61882319471033
20
-507.24395957766546
30
0
10
763.64250015241169
20
-507.23650709937147
30
0
10
763.68308922275764
20
-507.23650709937317
30
0
0
SPLINE
5
147
100
AcDbEntity
8
0
100
AcDbSpline
70
0
71
3
72
15
73
11
74
0
42
0.000000001
43
0.0000000001
44
0.0000000001
40
14
40
14
40
14
40
14
40
15
40
15
40
16
40
16
40
17
40
17
40
17
40
18
40
18
40
18
40
18
10
730.36435259031373
20
-511.62518548815308
30
0
10
730.81860205751968
20
-512.03204006526005
30
0
10
731.29177858586922
20
-512.2354673538249
30
0
10
732.27598576485457
20
-512.23546735386856
30
0
10
732.68787466669096
20
-512.05445154628546
30
0
10
733.35122309505027
20
-511.33038831590619
30
0
10
733.51706020215192
20
-510.88215869708995
30
0
10
733.51706020217557
20
-510.34773107464594
30
0
10
733.51706020218739
20
-510.0960329040746
30
0
10
733.48641638892809
20
-509.97018381878769
30
0
10
733.42512876239766
20
-509.97018381878496
30
0
0
ELLIPSE
5
148
100
AcDbEntity
8
0
100
AcDbEllipse
10
767.03470855824571
20
-512.44934815754038
30
0
11
3.3901395116125559
21
4.4536661820872174
31
0.0
40
0.1211345652515152
41
2.983780469991212
42
3.1723988710596229
0
SPLINE
5
149
100
AcDbEntity
8
0
100
AcDbSpline
70
0
71
3
72
20
73
16
74
0
42
0.000000001
43
0.0000000001
44
0.0000000001
40
24
40
24
40
24
40
24
40
25
40
25
40
26
40
26
40
27
40
27
40
28
40
28
40
29
40
29
40
30
40
30
40
31
40
31
40
31
40
31
10
735.69637609856034
20
-509.03407349957365
30
0
10
735.66392970804668
20
-508.96856301682158
30
0
10
735.62968074028345
20
-508.89529471374237
30
0
10
735.55757765025487
20
-508.73324246693323
30
0
10
735.51521708486257
20
-508.65480228363703
30
0
10
735.41787791332115
20
-508.50309379726076
30
0
10
735.36199801854696
20
-508.43499737439947
30
0
10
735.23581761099035
20
-508.31432016932473
30
0
10
735.13036684181532
20
-508.27380710761935
30
0
10
734.83474417267121
20
-508.2324320658683
30
0
10
734.75543077363295
20
-508.21346850506876
30
0
10
734.73379984662301
20
-508.17898930361946
30
0
10
734.72839211487212
20
-508.15140594245997
30
0
10
734.72839211487576
20
-508.07555169927514
30
0
10
734.74822046463692
20
-508.05141625826229
30
0
10
734.7878771641565
20
-508.04107249782925
30
0
0
SPLINE
5
150
100
AcDbEntity
8
0
100
AcDbSpline
70
0
71
3
72
8
73
4
74
0
42
0.000000001
43
0.0000000001
44
0.0000000001
40
24
40
24
40
24
40
24
40
25
40
25
40
25
40
25
10
749.01506778171301
20
-512.77928783063192
30
0
10
748.64058528743885
20
-513.11418357401385
30
0
10
748.15496605294015
20
-513.28139855574523
30
0
10
747.55724367177959
20
-513.28139855571874
30
0
0
SPLINE
5
151
100
AcDbEntity
8
0
100
AcDbSpline
70
0
71
3
72
10
73
6
74
0
42
0.000000001
43
0.0000000001
44
0.0000000001
40
11
40
11
40
11
40
11
40
12
40
12
40
13
40
13
40
13
40
13
10
760.58479018638025
20
-507.23650709923402
30
0
10
760.62537925672541
20
-507.23650709923584
30
0
10
760.64905621442767
20
-507.24395957753177
30
0
10
760.66258590454026
20
-507.27470105050116
30
0
10
760.66596832706682
20
-507.31242922187221
30
0
10
760.66596832706409
20
-507.37344638791581
30
0
0
LINE
5
152
100
AcDbEntity
8
0
100
AcDbLine
10
760.76067615764305
20
-512.46628374304646
30
0
11
760.71332224223943
21
-512.46628374304453
31
0
0
SPLINE
5
153
100
AcDbEntity
8
0
100
AcDbSpline
70
0
71
3
72
8
73
4
74
0
42
0.000000001
43
0.0000000001
44
0.0000000001
40
10
40
10
40
10
40
10
40
11
40
11
40
11
40
11
10
718.61335149172317
20
-512.65438965084945
30
0
10
718.61335149172135
20
-512.68197301200701
30
0
10
718.5989308737129
20
-512.69576469258595
30
0
10
718.57008963769874
20
-512.69576469258504
30
0
0
SPLINE
5
154
100
AcDbEntity
8
0
100
AcDbSpline
70
0
71
3
72
8
73
4
74
0
42
0.000000001
43
0.0000000001
44
0.0000000001
40
31
40
31
40
31
40
31
40
32
40
32
40
32
40
32
10
725.97868213902007
20
-508.98752657718182
30
0
10
725.8957635854789
20
-508.98752657717813
30
0
10
725.81284503194206
20
-508.9065004537718
30
0
10
725.72992647840806
20
-508.74444820696249
30
0
0
LINE
5
155
100
AcDbEntity
8
0
100
AcDbLine
10
763.60191108186655
20
-511.67725260364693
30
0
11
763.60191108205925
21
-507.37344638804768
31
0
0
LINE
5
156
100
AcDbEntity
8
0
100
AcDbLine
10
718.57008963769874
20
-512.69576469258504
30
0
11
715.31463512259347
21
-512.69576469243862
31
0
0
SPLINE
5
157
100
AcDbEntity
8
0
100
AcDbSpline
70
0
71
3
72
29
73
25
74
0
42
0.000000001
43
0.0000000001
44
0.0000000001
40
0
40
0
40
0
40
0
40
1
40
1
40
1
40
2
40
2
40
2
40
3
40
3
40
3
40
4
40
4
40
4
40
5
40
5
40
5
40
6
40
6
40
6
40
7
40
7
40
7
40
8
40
8
40
8
40
8
10
724.69434584759642
20
-512.64404589068738
30
0
10
724.55554739927288
20
-512.77161893603909
30
0
10
724.39061158081427
20
-512.83540545870994
30
0
10
724.19953839221978
20
-512.83540545870187
30
0
10
724.00486004912398
20
-512.83540545869278
30
0
10
723.83902294204506
20
-512.77248091604292
30
0
10
723.70202707098201
20
-512.64663183075129
30
0
10
723.56503119991999
20
-512.52078274545988
30
0
10
723.49653326439352
20
-512.36304039883203
30
0
10
723.49653326440171
20
-512.17340479086874
30
0
10
723.4965332644108
20
-511.9837691829045
30
0
10
723.56593248857757
20
-511.82257891613722
30
0
10
723.70473093690111
20
-511.6898339905685
30
0
10
723.84352938522647
20
-511.55708906500075
30
0
10
724.0084652036852
20
-511.49071660222057
30
0
10
724.19953839227969
20
-511.49071660222967
30
0
10
724.39421673537549
20
-511.49071660223774
30
0
10
724.56005384245441
20
-511.55881302510466
30
0
10
724.69704971351564
20
-511.69500587083093
30
0
10
724.83404558457767
20
-511.83119871655634
30
0
10
724.90254352010413
20
-511.99152700329256
30
0
10
724.90254352009583
20
-512.17599073103986
30
0
10
724.90254352008765
20
-512.36045445878619
30
0
10
724.83314429592087
20
-512.51647284533567
30
0
10
724.69434584759642
20
-512.64404589068738
30
0
0
LINE
5
158
100
AcDbEntity
8
0
100
AcDbLine
10
749.55625538657773
20
-507.06044229871458
30
0
11
750.82804625737947
21
-507.63428312751893
31
0
0
LINE
5
159
100
AcDbEntity
8
0
100
AcDbLine
10
717.24519535857451
20
-506.47916467144682
30
0
11
717.24519535832712
21
-511.98721710276851
31
0
0
LINE
5
160
100
AcDbEntity
8
0
100
AcDbLine
10
759.69183063877733
20
-507.23650709919406
30
0
11
760.58479018638025
21
-507.23650709923402
31
0
0
LINE
5
161
100
AcDbEntity
8
0
100
AcDbLine
10
739.27088678707617
20
-508.96683905691066
30
0
11
737.83783787245295
21
-512.67507717258115
31
0
0
SPLINE
5
162
100
AcDbEntity
8
0
100
AcDbSpline
70
0
71
3
72
14
73
10
74
0
42
0.000000001
43
0.0000000001
44
0.0000000001
40
21
40
21
40
21
40
21
40
22
40
22
40
23
40
23
40
24
40
24
40
25
40
25
40
25
40
25
10
726.60057129040911
20
-512.69576469294509
30
0
10
726.56451974539254
20
-512.68886885265351
30
0
10
726.54649397288483
20
-512.6655953916752
30
0
10
726.54649397288836
20
-512.58629322834463
30
0
10
726.56361845677225
20
-512.55957184722331
30
0
10
726.63211639230781
20
-512.53198848606837
30
0
10
726.70872592547073
20
-512.51733482545581
30
0
10
726.94666612258993
20
-512.48630354416332
30
0
10
727.0746491074035
20
-512.46130612312038
30
0
10
727.21164497847371
20
-512.42682692167739
30
0
0
SPLINE
5
163
100
AcDbEntity
8
0
100
AcDbSpline
70
0
71
3
72
12
73
8
74
0
42
0.000000001
43
0.0000000001
44
0.0000000001
40
6
40
6
40
6
40
6
40
7
40
7
40
8
40
8
40
9
40
9
40
9
40
9
10
733.72255400869778
20
-512.13202974958949
30
0
10
733.5422962835994
20
-512.34235287841432
30
0
10
733.32598701348547
20
-512.51216294553626
30
0
10
732.82126538322461
20
-512.7707569563737
30
0
10
732.57250972259885
20
-512.83540545907738
30
0
10
732.08220871035724
20
-512.83540545905555
30
0
10
731.8622942857495
20
-512.80265021766991
30
0
10
731.66761594265631
20
-512.73713973490987
30
0
0
LINE
5
164
100
AcDbEntity
8
0
100
AcDbLine
10
737.71886777388704
20
-512.83540545930839
30
0
11
737.29165696542645
21
-512.8354054592894
31
0
0
SPLINE
5
165
100
AcDbEntity
8
0
100
AcDbSpline
70
0
71
3
72
11
73
7
74
0
42
0.000000001
43
0.0000000001
44
0.0000000001
40
7
40
7
40
7
40
7
40
8
40
8
40
8
40
9
40
9
40
9
40
9
10
727.68211764115244
20
-508.02555685685934
30
0
10
727.68211764115608
20
-507.9428067733844
30
0
10
727.71276145442357
20
-507.90143173164699
30
0
10
727.774049080954
20
-507.90143173164972
30
0
10
727.78486454445851
20
-507.90143173165069
30
0
10
727.81190320322207
20
-507.91177549208646
30
0
10
727.85516505724286
20
-507.93246301295687
30
0
0
SPLINE
5
166
100
AcDbEntity
8
0
100
AcDbSpline
70
0
71
3
72
8
73
4
74
0
42
0.000000001
43
0.0000000001
44
0.0000000001
40
17
40
17
40
17
40
17
40
18
40
18
40
18
40
18
10
728.52572379439448
20
-511.9096389000162
30
0
10
728.52572379438004
20
-512.24753507420712
30
0
10
728.72040213746675
20
-512.44406652247028
30
0
10
729.10975882365551
20
-512.4992332448038
30
0
0
SPLINE
5
167
100
AcDbEntity
8
0
100
AcDbSpline
70
0
71
3
72
10
73
6
74
0
42
0.000000001
43
0.0000000001
44
0.0000000001
40
24
40
24
40
24
40
24
40
25
40
25
40
26
40
26
40
26
40
26
10
764.57604877035965
20
-507.23650709941325
30
0
10
764.6166378407047
20
-507.23650709941512
30
0
10
764.64031479840685
20
-507.24395957771083
30
0
10
764.65384448851955
20
-507.27470105068045
30
0
10
764.65722691104702
20
-507.31242922205138
30
0
10
764.65722691104418
20
-507.37344638809503
30
0
0
SPLINE
5
168
100
AcDbEntity
8
0
100
AcDbSpline
70
0
71
3
72
8
73
4
74
0
42
0.000000001
43
0.0000000001
44
0.0000000001
40
22
40
22
40
22
40
22
40
23
40
23
40
23
40
23
10
737.29165696542645
20
-512.8354054592894
30
0
10
737.25560542040898
20
-512.83540545928747
30
0
10
737.21594872089122
20
-512.78541061718636
30
0
10
737.17268686687407
20
-512.68542093298504
30
0
0
ELLIPSE
5
169
100
AcDbEntity
8
0
100
AcDbEllipse
10
-1776.9191801740942
20
4226.027719150431
30
0
11
-2525.5958048290181
21
4739.0435662463242
31
0.0
40
0.017763067664493811
41
3.145890192507883
42
3.1722807856045927
0
SPLINE
5
170
100
AcDbEntity
8
0
100
AcDbSpline
70
0
71
3
72
13
73
9
74
0
42
0.000000001
43
0.0000000001
44
0.0000000001
40
7
40
7
40
7
40
7
40
8
40
8
40
8
40
9
40
9
40
10
40
10
40
10
40
10
10
745.73411792902994
20
-507.24302801678112
30
0
10
745.82882575983535
20
-507.2649196717777
30
0
10
745.87617967523624
20
-507.32127903888903
30
0
10
745.8761796752317
20
-507.41257189800785
30
0
10
745.87617967518531
20
-508.45172684032343
30
0
10
745.90565507146505
20
-509.39493112458797
30
0
10
746.02259025024182
20
-511.09036993679916
30
0
10
746.157887151365
20
-511.72289903212845
30
0
10
746.3700133642235
20
-512.1402378166805
30
0
0
SPLINE
5
171
100
AcDbEntity
8
0
100
AcDbSpline
70
0
71
3
72
18
73
14
74
0
42
0.000000001
43
0.0000000001
44
0.0000000001
40
14
40
14
40
14
40
14
40
15
40
15
40
16
40
16
40
17
40
17
40
18
40
18
40
19
40
19
40
20
40
20
40
20
40
20
10
760.66596832685491
20
-512.03590312148151
30
0
10
760.73361677742787
20
-512.1183461626282
30
0
10
760.80368124409256
20
-512.17936332867555
30
0
10
760.94767580317284
20
-512.25761435078255
30
0
10
761.01870667627497
20
-512.29906876130497
30
0
10
761.15883560960674
20
-512.3857038214951
30
0
10
761.30524618477864
20
-512.44578942775786
30
0
10
761.75172595857339
20
-512.59763367304777
30
0
10
761.99429397420818
20
-512.63582762432225
30
0
10
762.51711985651627
20
-512.63582762434578
30
0
10
762.80704178756093
20
-512.54546632502695
30
0
10
763.44293722299096
20
-512.18495268751531
30
0
10
763.60191108185381
20
-511.95532320004372
30
0
10
763.60191108186655
20
-511.67725260364693
30
0
0
SPLINE
5
172
100
AcDbEntity
8
0
100
AcDbSpline
70
0
71
3
72
11
73
7
74
0
42
0.000000001
43
0.0000000001
44
0.0000000001
40
4
40
4
40
4
40
4
40
5
40
5
40
5
40
6
40
6
40
6
40
6
10
727.42795424874873
20
-508.68238564443277
30
0
10
727.54692434730021
20
-508.84443789124384
30
0
10
727.62083001458291
20
-508.92546401464932
30
0
10
727.64967125059707
20
-508.92546401465103
30
0
10
727.67130217760712
20
-508.92546401465199
30
0
10
727.68211764111345
20
-508.9047764937842
30
0
10
727.68211764111516
20
-508.86340145204593
30
0
0
SPLINE
5
173
100
AcDbEntity
8
0
100
AcDbSpline
70
0
71
3
72
12
73
8
74
0
42
0.000000001
43
0.0000000001
44
0.0000000001
40
27
40
27
40
27
40
27
40
28
40
28
40
29
40
29
40
30
40
30
40
30
40
30
10
727.68211764108332
20
-509.57194904180346
30
0
10
727.68211764109071
20
-509.40989679499785
30
0
10
727.58928491267875
20
-509.22801900735453
30
0
10
727.21795399901328
20
-508.82461235039608
30
0
10
727.04040013980591
20
-508.72376068615273
30
0
10
726.70151561663829
20
-508.72376068613738
30
0
10
726.46718057401927
20
-508.78927116887843
30
0
10
726.16795275036588
20
-508.9202921343678
30
0
0
SPLINE
5
174
100
AcDbEntity
8
0
100
AcDbSpline
70
0
71
3
72
11
73
7
74
0
42
0.000000001
43
0.0000000001
44
0.0000000001
40
18
40
18
40
18
40
18
40
19
40
19
40
19
40
20
40
20
40
20
40
20
10
729.10975882365551
20
-512.4992332448038
30
0
10
729.27920108523836
20
-512.51992076567979
30
0
10
729.36392221602841
20
-512.56129580742277
30
0
10
729.36392221602568
20
-512.62335837002877
30
0
10
729.36392221602387
20
-512.66473341176618
30
0
10
729.34589644351422
20
-512.68886885277902
30
0
10
729.30984489849595
20
-512.69576469306696
30
0
0
SPLINE
5
175
100
AcDbEntity
8
0
100
AcDbSpline
70
0
71
3
72
12
73
8
74
0
42
0.000000001
43
0.0000000001
44
0.0000000001
40
0
40
0
40
0
40
0
40
1
40
1
40
2
40
2
40
3
40
3
40
3
40
3
10
747.55724367177959
20
-513.28139855571874
30
0
10
746.95952129061993
20
-513.28139855569145
30
0
10
746.49178057521499
20
-513.1542406447553
30
0
10
745.81529606947811
20
-512.64560900106358
30
0
10
745.54470226719081
20
-512.28462958361729
30
0
10
745.13881156377761
20
-511.35027511731107
30
0
10
744.95616074728173
20
-510.03165223890949
30
0
10
744.79380446599612
20
-507.86251527504396
30
0
0
SPLINE
5
176
100
AcDbEntity
8
0
100
AcDbSpline
70
0
71
3
72
12
73
8
74
0
42
0.000000001
43
0.0000000001
44
0.0000000001
40
21
40
21
40
21
40
21
40
22
40
22
40
23
40
23
40
24
40
24
40
24
40
24
10
716.86665413593016
20
-505.56374187298496
30
0
10
717.11901495104053
20
-505.85336716515951
30
0
10
717.43807112443415
20
-506.16195601813365
30
0
10
718.20957418778585
20
-506.81706084568054
30
0
10
718.4673427346537
20
-507.0213501142718
30
0
10
718.72691385877476
20
-507.18340236108838
30
0
10
718.79180663980367
20
-507.22908730301077
30
0
10
718.79180663980367
20
-507.23943106344569
30
0
0
LINE
5
177
100
AcDbEntity
8
0
100
AcDbLine
10
760.6659683268349
20
-512.49236741707534
30
0
11
760.66596832680671
21
-513.11837559389039
31
0
0
LINE
5
178
100
AcDbEntity
8
0
100
AcDbLine
10
760.46978782013184
20
-513.24227304554313
30
0
11
758.67033903484344
21
-512.52497200952848
31
0
0
LINE
5
179
100
AcDbEntity
8
0
100
AcDbLine
10
727.68211764097782
20
-511.90963889997897
30
0
11
727.68211764108332
21
-509.57194904180346
31
0
0
SPLINE
5
180
100
AcDbEntity
8
0
100
AcDbSpline
70
0
71
3
72
8
73
4
74
0
42
0.000000001
43
0.0000000001
44
0.0000000001
40
17
40
17
40
17
40
17
40
18
40
18
40
18
40
18
10
740.04960015949121
20
-508.27897898805725
30
0
10
740.01354861447294
20
-508.28242690820042
30
0
10
739.98290480120727
20
-508.28759878841646
30
0
10
739.95766871969522
20
-508.29449462870451
30
0
0
SPLINE
5
181
100
AcDbEntity
8
0
100
AcDbSpline
70
0
71
3
72
16
73
12
74
0
42
0.000000001
43
0.0000000001
44
0.0000000001
40
0
40
0
40
0
40
0
40
1
40
1
40
1
40
2
40
2
40
3
40
3
40
3
40
4
40
4
40
4
40
4
10
725.72992647840806
20
-508.74444820696249
30
0
10
725.64700792487417
20
-508.58239596015318
30
0
10
725.60554864810842
20
-508.4617187550831
30
0
10
725.60554864811206
20
-508.38241659175247
30
0
10
725.60554864811581
20
-508.31690610900131
30
0
10
725.73623549880938
20
-508.2358799856039
30
0
10
726.25898290157534
20
-508.04279645751842
30
0
10
726.45275995604823
20
-507.9945255755012
30
0
10
726.57894036361017
20
-507.9945255755066
30
0
10
726.80245994272116
20
-507.99452557551655
30
0
10
727.08546457109901
20
-508.22381226515807
30
0
10
727.42795424874873
20
-508.68238564443277
30
0
0
SPLINE
5
182
100
AcDbEntity
8
0
100
AcDbSpline
70
0
71
3
72
16
73
12
74
0
42
0.000000001
43
0.0000000001
44
0.0000000001
40
18
40
18
40
18
40
18
40
19
40
19
40
20
40
20
40
21
40
21
40
22
40
22
40
23
40
23
40
23
40
23
10
750.82804625737947
20
-507.63428312751893
30
0
10
750.90922439806877
20
-507.67340863857243
30
0
10
750.94981346841291
20
-507.72883644589649
30
0
10
750.94981346840655
20
-507.87229665308325
30
0
10
750.88458103391918
20
-507.91794308263991
30
0
10
750.62268488954498
20
-507.95706859367891
30
0
10
750.51686338471438
20
-507.97569978941294
30
0
10
750.35450710333157
20
-508.01016750152223
30
0
10
750.27912740125817
20
-508.05814283054508
30
0
10
750.13899846791651
20
-508.2146448747427
30
0
10
750.09309416214933
20
-508.63850457779171
30
0
10
750.07038361084983
20
-509.40797296179176
30
0
0
LINE
5
183
100
AcDbEntity
8
0
100
AcDbLine
10
729.30984489849595
20
-512.69576469306696
30
0
11
726.60057129040911
21
-512.69576469294509
31
0
0
LINE
5
184
100
AcDbEntity
8
0
100
AcDbLine
10
763.60191108163735
20
-516.78313179579027
30
0
11
763.60191108179731
21
-513.20966845314001
31
0
0
SPLINE
5
185
100
AcDbEntity
8
0
100
AcDbSpline
70
0
71
3
72
22
73
18
74
0
42
0.000000001
43
0.0000000001
44
0.0000000001
40
10
40
10
40
10
40
10
40
11
40
11
40
11
40
12
40
12
40
13
40
13
40
14
40
14
40
15
40
15
40
15
40
16
40
16
40
17
40
17
40
17
40
17
10
746.3700133642235
20
-512.1402378166805
30
0
10
746.62707747639001
20
-512.64886946035426
30
0
10
747.01702247362596
20
-512.90318528220189
30
0
10
747.54033155915226
20
-512.90318528222554
30
0
10
747.82880388053695
20
-512.90318528223827
30
0
10
748.07378791227097
20
-512.78487718930967
30
0
10
748.47484658356393
20
-512.31071325778271
30
0
10
748.64396771002089
20
-511.9446102615276
30
0
10
748.91939354455201
20
-510.95343064825124
30
0
10
749.02279903332794
20
-510.09686142417758
30
0
10
749.1629279667734
20
-507.66269570094494
30
0
10
749.28566158427407
20
-507.05392138019414
30
0
10
749.4615475557714
20
-507.05392138020238
30
0
10
749.47942607485243
20
-507.05392138020324
30
0
10
749.49778779715166
20
-507.05392138020324
30
0
10
749.53354483531268
20
-507.053921380205
30
0
10
749.54707452542903
20
-507.05625027967301
30
0
10
749.55625538657773
20
-507.06044229871458
30
0
0
LINE
5
186
100
AcDbEntity
8
0
100
AcDbLine
10
728.52572379451726
20
-509.17371426511556
30
0
11
728.52572379439448
21
-511.9096389000162
31
0
0
LINE
5
187
100
AcDbEntity
8
0
100
AcDbLine
10
737.17268686687407
20
-512.68542093298504
30
0
11
735.69637609856034
21
-509.03407349957365
31
0
0
SPLINE
5
188
100
AcDbEntity
8
0
100
AcDbSpline
70
0
71
3
72
8
73
4
74
0
42
0.000000001
43
0.0000000001
44
0.0000000001
40
13
40
13
40
13
40
13
40
14
40
14
40
14
40
14
10
730.33731393155108
20
-511.61484172771742
30
0
10
730.3481293950565
20
-511.61484172771742
30
0
10
730.35714228131144
20
-511.61828964786321
30
0
10
730.36435259031373
20
-511.62518548815308
30
0
0
SPLINE
5
189
100
AcDbEntity
8
0
100
AcDbSpline
70
0
71
3
72
10
73
6
74
0
42
0.000000001
43
0.0000000001
44
0.0000000001
40
2
40
2
40
2
40
2
40
3
40
3
40
4
40
4
40
4
40
4
10
758.67033903484344
20
-512.52497200952848
30
0
10
758.60269058426866
20
-512.49469631644968
30
0
10
758.56886635898206
20
-512.4541734657181
30
0
10
758.56886635898672
20
-512.35449656851711
30
0
10
758.58239604910386
20
-512.32934445426997
30
0
10
758.6094554293345
20
-512.32934445427179
30
0
0
SPLINE
5
190
100
AcDbEntity
8
0
100
AcDbSpline
70
0
71
3
72
16
73
12
74
0
42
0.000000001
43
0.0000000001
44
0.0000000001
40
3
40
3
40
3
40
3
40
4
40
4
40
5
40
5
40
6
40
6
40
7
40
7
40
8
40
8
40
8
40
8
10
717.24519535832712
20
-511.98721710276851
30
0
10
717.24519535832337
20
-512.08720678696704
30
0
10
717.25060309007245
20
-512.16823291037076
30
0
10
717.27223401707704
20
-512.2923580355847
30
0
10
717.30738427346773
20
-512.33890495753997
30
0
10
717.42635437202296
20
-512.40096752015256
30
0
10
717.53000256394841
20
-512.42337900109783
30
0
10
717.82562523309321
20
-512.45096236227005
30
0
10
717.96622625866189
20
-512.46044414267476
30
0
10
718.23300769179366
20
-512.47078790312128
30
0
10
718.38983191261957
20
-512.47854572345398
30
0
10
718.57008963770863
20
-512.48888948389697
30
0
0
LINE
5
191
100
AcDbEntity
8
0
100
AcDbLine
10
763.68308922275764
20
-507.23650709937317
30
0
11
764.57604877035965
21
-507.23650709941325
31
0
0
SPLINE
5
192
100
AcDbEntity
8
0
100
AcDbSpline
70
0
71
3
72
8
73
4
74
0
42
0.000000001
43
0.0000000001
44
0.0000000001
40
7
40
7
40
7
40
7
40
8
40
8
40
8
40
8
10
737.16187140341958
20
-511.54760728519994
30
0
10
737.23397449344725
20
-511.73379497302273
30
0
10
737.3060775834831
20
-511.73896685324343
30
0
10
737.37818067352532
20
-511.56312292586171
30
0
0
SPLINE
5
193
100
AcDbEntity
8
0
100
AcDbSpline
70
0
71
3
72
10
73
6
74
0
42
0.000000001
43
0.0000000001
44
0.0000000001
40
5
40
5
40
5
40
5
40
6
40
6
40
7
40
7
40
7
40
7
10
759.00181644267332
20
-512.35542812832261
30
0
10
759.20476179440027
20
-512.35542812833171
30
0
10
759.35117236957694
20
-512.3139737178202
30
0
10
759.53189037326638
20
-512.1490876355432
30
0
10
759.58794194660686
20
-512.01214834686698
30
0
10
759.6106524978801
20
-511.82071281065447
30
0
0
SPLINE
5
194
100
AcDbEntity
8
0
100
AcDbSpline
70
0
71
3
72
16
73
12
74
0
42
0.000000001
43
0.0000000001
44
0.0000000001
40
10
40
10
40
10
40
10
40
11
40
11
40
12
40
12
40
13
40
13
40
14
40
14
40
15
40
15
40
15
40
15
10
729.23413665414432
20
-508.55308863908357
30
0
10
729.28821397167053
20
-508.58067200024391
30
0
10
729.31525263043227
20
-508.6142892216568
30
0
10
729.31525263042874
20
-508.6935913849876
30
0
10
729.30894361004925
20
-508.71945078607331
30
0
10
729.28370752853539
20
-508.74358622708593
30
0
10
729.25306371526972
20
-508.75651592762745
30
0
10
729.15572454372091
20
-508.78409928878148
30
0
10
729.08993047406273
20
-508.79875294939404
30
0
10
728.92409336697926
20
-508.82978423069028
30
0
10
728.84658254518968
20
-508.84960977151889
30
0
10
728.77447945515303
20
-508.87374521252889
30
0
0
SPLINE
5
195
100
AcDbEntity
8
0
100
AcDbSpline
70
0
71
3
72
8
73
4
74
0
42
0.000000001
43
0.0000000001
44
0.0000000001
40
20
40
20
40
20
40
20
40
21
40
21
40
21
40
21
10
737.83783787245295
20
-512.67507717258115
30
0
10
737.79457601842682
20
-512.7819626970678
30
0
10
737.75491931890542
20
-512.83540545931021
30
0
10
737.71886777388704
20
-512.83540545930839
30
0
0
SPLINE
5
196
100
AcDbEntity
8
0
100
AcDbSpline
70
0
71
3
72
8
73
4
74
0
42
0.000000001
43
0.0000000001
44
0.0000000001
40
6
40
6
40
6
40
6
40
7
40
7
40
7
40
7
10
733.26830454158903
20
-509.57194904205346
30
0
10
733.33319732262066
20
-509.57194904205619
30
0
10
733.36564371313784
20
-509.53919380068248
30
0
10
733.36564371314148
20
-509.47368331793149
30
0
0
LINE
5
197
100
AcDbEntity
8
0
100
AcDbLine
10
760.66596832706409
20
-507.37344638791581
30
0
11
760.66596832685491
21
-512.03590312148151
31
0
0
LINE
5
198
100
AcDbEntity
8
0
100
AcDbLine
10
759.6106524978801
20
-511.82071281065447
30
0
11
759.61065249807916
21
-507.37344638786851
31
0
0
SPLINE
5
199
100
AcDbEntity
8
0
100
AcDbSpline
70
0
71
3
72
8
73
4
74
0
42
0.000000001
43
0.0000000001
44
0.0000000001
40
18
40
18
40
18
40
18
40
19
40
19
40
19
40
19
10
739.95766871969522
20
-508.29449462870451
30
0
10
739.6332048145307
20
-508.39448431288849
30
0
10
739.40427750365802
20
-508.61859912229124
30
0
10
739.27088678707617
20
-508.96683905691066
30
0
0
SPLINE
5
200
100
AcDbEntity
8
0
100
AcDbSpline
70
0
71
3
72
8
73
4
74
0
42
0.000000001
43
0.0000000001
44
0.0000000001
40
9
40
9
40
9
40
9
40
10
40
10
40
10
40
10
10
731.66761594265631
20
-512.73713973490987
30
0
10
731.10160668588674
20
-512.55095204706527
30
0
10
730.60950309640816
20
-512.21477983292527
30
0
10
730.19130517422423
20
-511.72862309248944
30
0
0
SPLINE
5
201
100
AcDbEntity
8
0
100
AcDbSpline
70
0
71
3
72
10
73
6
74
0
42
0.000000001
43
0.0000000001
44
0.0000000001
40
8
40
8
40
8
40
8
40
9
40
9
40
10
40
10
40
10
40
10
10
759.61065249807916
20
-507.37344638786851
30
0
10
759.61065249808189
20
-507.31242922182491
30
0
10
759.61403492061299
20
-507.27470105045398
30
0
10
759.62756461073013
20
-507.24395957748629
30
0
10
759.65124156843149
20
-507.23650709919229
30
0
10
759.69183063877733
20
-507.23650709919406
30
0
0
ELLIPSE
5
202
100
AcDbEntity
8
0
100
AcDbEllipse
10
759.13611357571085
20
-510.94333840616861
30
0
11
-1.5387424097478142
21
2.3199300809899359
31
0.0
40
0.18885700442120165
41
2.8337786787494337
42
3.0169779612875662
0
SPLINE
5
203
100
AcDbEntity
8
0
100
AcDbSpline
70
0
71
3
72
10
73
6
74
0
42
0.000000001
43
0.0000000001
44
0.0000000001
40
12
40
12
40
12
40
12
40
13
40
13
40
14
40
14
40
14
40
14
10
737.75672189636236
20
-508.22726018578231
30
0
10
737.71706519684369
20
-508.21002058505678
30
0
10
737.69723684708538
20
-508.17467940357182
30
0
10
737.69723684708993
20
-508.06779387908244
30
0
10
737.71165746509837
20
-508.04107249796124
30
0
10
737.74049870111253
20
-508.04107249796209
30
0
0
LINE
5
204
100
AcDbEntity
8
0
100
AcDbLine
10
733.36564371314148
20
-509.47368331793149
30
0
11
733.36564371314421
21
-509.41162075532441
31
0
0
SPLINE
5
205
100
AcDbEntity
8
0
100
AcDbSpline
70
0
71
3
72
8
73
4
74
0
42
0.000000001
43
0.0000000001
44
0.0000000001
40
8
40
8
40
8
40
8
40
9
40
9
40
9
40
9
10
718.57008963770863
20
-512.48888948389697
30
0
10
718.59893087372279
20
-512.48888948389799
30
0
10
718.61335149172942
20
-512.50268116447774
30
0
10
718.61335149172862
20
-512.53026452563631
30
0
0
LINE
5
206
100
AcDbEntity
8
0
100
AcDbLine
10
733.42512876239766
20
-509.97018381878496
30
0
11
732.78070935596577
21
-509.97018381875597
31
0
0
LINE
5
207
100
AcDbEntity
8
0
100
AcDbLine
10
731.85688655412446
20
-509.97018381871447
30
0
11
730.28864434585125
21
-509.97018381864399
31
0
0
LINE
5
208
100
AcDbEntity
8
0
100
AcDbLine
10
731.22958967083309
20
-509.57194904196263
30
0
11
731.85688655412446
21
-509.57194904199059
31
0
0
LINE
5
209
100
AcDbEntity
8
0
100
AcDbLine
10
732.7807093559835
20
-509.57194904203169
30
0
11
733.26830454158903
21
-509.57194904205346
31
0
0
SPLINE
5
210
100
AcDbEntity
8
0
100
AcDbSpline
70
0
71
3
72
10
73
6
74
0
42
0.000000001
43
0.0000000001
44
0.0000000001
40
0
40
0
40
0
40
0
40
1
40
1
40
1.2351218940210302
40
1.2351218940210302
40
1.2351218940210302
40
1.2351218940210302
10
733.36564371314421
20
-509.41162075532441
30
0
10
733.30435608662651
20
-509.11165170272409
30
0
10
733.16285377244481
20
-508.84443789149577
30
0
10
732.8890062491846
20
-508.55485297862504
30
0
10
732.83553044432915
20
-508.50620734070048
30
0
10
732.78070935602977
20
-508.46404240786569
30
0
0
SPLINE
5
211
100
AcDbEntity
8
0
100
AcDbSpline
70
0
71
3
72
13
73
9
74
0
42
0.000000001
43
0.0000000001
44
0.0000000001
40
2.4306369979964142
40
2.4306369979964142
40
2.4306369979964142
40
2.4306369979964142
40
3
40
3
40
4
40
4
40
4
40
5
40
5
40
5
40
5
10
731.85688658182653
20
-508.33070472491443
30
0
10
731.70988247205992
20
-508.39453176903845
30
0
10
731.57018272590176
20
-508.5005530018002
30
0
10
731.20525487797511
20
-508.90908639412197
30
0
10
731.08898864528169
20
-509.16337050479717
30
0
10
731.08898864527077
20
-509.41162075522266
30
0
10
731.08898864526532
20
-509.51850627971191
30
0
10
731.1358556537873
20
-509.57194904195796
30
0
10
731.22958967083309
20
-509.57194904196263
30
0
0
SPLINE
5
212
100
AcDbEntity
8
0
100
AcDbSpline
70
0
71
3
72
13
73
9
74
0
42
0.000000001
43
0.0000000001
44
0.0000000001
40
0
40
0
40
0
40
0
40
1
40
1
40
1
40
2
40
2
40
2.9372105075470922
40
2.9372105075470922
40
2.9372105075470922
40
2.9372105075470922
10
730.28864434585125
20
-509.97018381864399
30
0
10
730.2129361013134
20
-509.97018381864029
30
0
10
730.17508197904885
20
-509.89605353552645
30
0
10
730.17508197905522
20
-509.74779296929972
30
0
10
730.1750819790708
20
-509.4098967951096
30
0
10
730.34091908616961
20
-509.01769587864527
30
0
10
730.98344185896872
20
-508.15272042486083
30
0
10
731.37820627830752
20
-507.93034777432831
30
0
10
731.85688655836987
20
-507.90407226831036
30
0
0
SPLINE
5
213
100
AcDbEntity
8
0
100
AcDbSpline
70
0
71
3
72
12
73
8
74
0
42
0.000000001
43
0.0000000001
44
0.0000000001
40
3.415214194007969
40
3.415214194007969
40
3.415214194007969
40
3.415214194007969
40
4
40
4
40
5
40
5
40
6
40
6
40
6
40
6
10
732.78070932324852
20
-508.04052862797334
30
0
10
733.13085472515331
20
-508.17113092381635
30
0
10
733.42767846980428
20
-508.39370306309172
30
0
10
734.08757590213213
20
-509.2461205884066
30
0
10
734.29577357458243
20
-509.84174879343038
30
0
10
734.29577357452422
20
-511.14851052831006
30
0
10
734.10470038590597
20
-511.69414389121732
30
0
10
733.72255400869778
20
-512.13202974958949
30
0
0
LINE
5
214
100
AcDbEntity
8
0
100
AcDbLine
10
732.78070935596577
20
-509.97018381875597
30
0
11
732.7807093559835
21
-509.57194904203169
31
0
0
LINE
5
215
100
AcDbEntity
8
0
100
AcDbLine
10
732.78070935603
20
-508.46404240786569
30
0
11
732.78070932324852
21
-508.04052862797334
31
0
0
LINE
5
216
100
AcDbEntity
8
0
100
AcDbLine
10
731.85688655412446
20
-509.97018381871447
30
0
11
731.85688655412446
21
-509.57194904199059
31
0
0
LINE
5
217
100
AcDbEntity
8
0
100
AcDbLine
10
731.85688658182653
20
-508.33070472491443
30
0
11
731.85688655836987
21
-507.90407226831036
31
0
0
ENDSEC
0
SECTION
2
OBJECTS
0
DICTIONARY
5
C
100
AcDbDictionary
3
ACAD_GROUP
350
D
3
ACAD_MLINESTYLE
350
17
0
DICTIONARY
5
D
100
AcDbDictionary
0
DICTIONARY
5
1A
330
C
100
AcDbDictionary
0
DICTIONARY
5
17
100
AcDbDictionary
0
ENDSEC
0
EOF
