0
SECTION
2
HEADER
9
$INSUNITS
70
4
9
$ACADVER
1
AC1014
9
$HANDSEED
5
FFFF
0
ENDSEC
0
SECTION
2
TABLES
0
TABLE
2
VPORT
5
8
100
AcDbSymbolTable
0
ENDTAB
0
TABLE
2
LTYPE
5
5
100
AcDbSymbolTable
0
LTYPE
5
14
100
AcDbSymbolTableRecord
100
AcDbLinetypeTableRecord
2
BYBLOCK
70
0
0
LTYPE
5
15
100
AcDbSymbolTableRecord
100
AcDbLinetypeTableRecord
2
BYLAYER
70
0
0
ENDTAB
0
TABLE
2
LAYER
5
2
100
AcDbSymbolTable
70
2
0
LAYER
5
50
100
AcDbSymbolTableRecord
100
AcDbLayerTableRecord
2
0
70
0
6
CONTINUOUS
0
ENDTAB
0
TABLE
2
STYLE
5
3
100
AcDbSymbolTable
70
1
0
STYLE
5
11
100
AcDbSymbolTableRecord
100
AcDbTextStyleTableRecord
2
STANDARD
70
0
0
ENDTAB
0
TABLE
2
VIEW
5
6
100
AcDbSymbolTable
70
0
0
ENDTAB
0
TABLE
2
UCS
5
7
100
AcDbSymbolTable
70
0
0
ENDTAB
0
TABLE
2
APPID
5
9
100
AcDbSymbolTable
70
2
0
APPID
5
12
100
AcDbSymbolTableRecord
100
AcDbRegAppTableRecord
2
ACAD
70
0
0
ENDTAB
0
TABLE
2
DIMSTYLE
5
A
100
AcDbSymbolTable
70
1
0
ENDTAB
0
TABLE
2
BLOCK_RECORD
5
1
100
AcDbSymbolTable
70
1
0
BLOCK_RECORD
5
1F
100
AcDbSymbolTableRecord
100
AcDbBlockTableRecord
2
*MODEL_SPACE
0
BLOCK_RECORD
5
1B
100
AcDbSymbolTableRecord
100
AcDbBlockTableRecord
2
*PAPER_SPACE
0
ENDTAB
0
ENDSEC
0
SECTION
2
BLOCKS
0
BLOCK
5
20
100
AcDbEntity
100
AcDbBlockBegin
2
*MODEL_SPACE
0
ENDBLK
5
21
100
AcDbEntity
100
AcDbBlockEnd
0
BLOCK
5
1C
100
AcDbEntity
100
AcDbBlockBegin
2
*PAPER_SPACE
0
ENDBLK
5
1D
100
AcDbEntity
100
AcDbBlockEnd
0
ENDSEC
0
SECTION
2
ENTITIES
0
LWPOLYLINE
5
100
100
AcDbEntity
8
0
100
AcDbPolyline
90
24
70
1
43
0.0
10
-5.4749999999999641
20
-339.52499999999998
42
-0.41421356237309348
10
-1.4750000000000085
20
-335.52500000000003
10
282.01250000000005
20
-335.52500000000009
42
-0.41421356237307422
10
284.01249999999999
20
-337.52500000000003
10
284.01249999999999
20
-342.52500000000259
42
-0.41421356237307422
10
282.01249999999999
20
-344.52500000000265
10
0.77499999999999958
20
-344.52499999999998
42
0.41421356237309775
10
-0.47499999999999432
20
-345.77499999999998
10
-0.47500000000000031
20
-469.05000000000001
42
0.41421356237309781
10
0.77500000000000568
20
-470.30000000000001
10
370.69999999999999
20
-470.30000000000007
42
0.41421356237309503
10
371.94999999999999
20
-469.05000000000007
10
371.94999999999999
20
-345.77499999999998
42
0.41421356237309503
10
370.69999999999999
20
-344.52499999999998
10
299.01249999999999
20
-344.52499999999998
42
-0.41421356237308982
10
297.01250000000005
20
-342.52499999999998
10
297.01250000000005
20
-337.52500000000009
42
-0.414213562373069
10
299.01249999999999
20
-335.52500000000003
10
372.95000000000005
20
-335.52499999999998
42
-0.41421356237310025
10
376.94999999999999
20
-339.52499999999998
10
376.94999999999993
20
-474.30000000000001
42
-0.41421356237310025
10
372.95000000000005
20
-478.29999999999995
10
-1.4749999999999999
20
-478.29999999999995
42
-0.41421356237309681
10
-5.4750000000000103
20
-474.30000000000001
0
CIRCLE
5
101
100
AcDbEntity
8
0
100
AcDbCircle
10
-0.47499999999999987
20
-340.02499999999998
30
0
40
3.0000000000000022
210
0
220
0
230
1
0
CIRCLE
5
102
100
AcDbEntity
8
0
100
AcDbCircle
10
127.01666666666669
20
-340.02499999999998
30
0
40
3.0000000000000071
210
0
220
0
230
1
0
CIRCLE
5
103
100
AcDbEntity
8
0
100
AcDbCircle
10
244.45799999999997
20
-340.02499999999998
30
0
40
3.0000000000000071
210
0
220
0
230
1
0
CIRCLE
5
104
100
AcDbEntity
8
0
100
AcDbCircle
10
371.94999999999999
20
-340.02499999999998
30
0
40
3.0000000000000049
210
0
220
0
230
1
0
CIRCLE
5
105
100
AcDbEntity
8
0
100
AcDbCircle
10
371.94999999999948
20
-473.80000000000001
30
0
40
2.9999999999999716
210
0
220
0
230
1
0
CIRCLE
5
106
100
AcDbEntity
8
0
100
AcDbCircle
10
244.45799999999997
20
-473.80000000000001
30
0
40
3.0000000000000071
210
0
220
0
230
1
0
CIRCLE
5
107
100
AcDbEntity
8
0
100
AcDbCircle
10
127.01666666666669
20
-473.80000000000001
30
0
40
3.0000000000000071
210
0
220
0
230
1
0
CIRCLE
5
108
100
AcDbEntity
8
0
100
AcDbCircle
10
-0.47499999999999432
20
-473.80000000000001
30
0
40
3.0000000000000004
210
0
220
0
230
1
0
ENDSEC
0
SECTION
2
OBJECTS
0
DICTIONARY
5
C
100
AcDbDictionary
3
ACAD_GROUP
350
D
3
ACAD_MLINESTYLE
350
17
0
DICTIONARY
5
D
100
AcDbDictionary
0
DICTIONARY
5
1A
330
C
100
AcDbDictionary
0
DICTIONARY
5
17
100
AcDbDictionary
0
ENDSEC
0
EOF
