0
SECTION
2
HEADER
9
$INSUNITS
70
4
9
$ACADVER
1
AC1014
9
$HANDSEED
5
FFFF
0
ENDSEC
0
SECTION
2
TABLES
0
TABLE
2
VPORT
5
8
100
AcDbSymbolTable
0
ENDTAB
0
TABLE
2
LTYPE
5
5
100
AcDbSymbolTable
0
LTYPE
5
14
100
AcDbSymbolTableRecord
100
AcDbLinetypeTableRecord
2
BYBLOCK
70
0
0
LTYPE
5
15
100
AcDbSymbolTableRecord
100
AcDbLinetypeTableRecord
2
BYLAYER
70
0
0
ENDTAB
0
TABLE
2
LAYER
5
2
100
AcDbSymbolTable
70
2
0
LAYER
5
50
100
AcDbSymbolTableRecord
100
AcDbLayerTableRecord
2
0
70
0
6
CONTINUOUS
0
ENDTAB
0
TABLE
2
STYLE
5
3
100
AcDbSymbolTable
70
1
0
STYLE
5
11
100
AcDbSymbolTableRecord
100
AcDbTextStyleTableRecord
2
STANDARD
70
0
0
ENDTAB
0
TABLE
2
VIEW
5
6
100
AcDbSymbolTable
70
0
0
ENDTAB
0
TABLE
2
UCS
5
7
100
AcDbSymbolTable
70
0
0
ENDTAB
0
TABLE
2
APPID
5
9
100
AcDbSymbolTable
70
2
0
APPID
5
12
100
AcDbSymbolTableRecord
100
AcDbRegAppTableRecord
2
ACAD
70
0
0
ENDTAB
0
TABLE
2
DIMSTYLE
5
A
100
AcDbSymbolTable
70
1
0
ENDTAB
0
TABLE
2
BLOCK_RECORD
5
1
100
AcDbSymbolTable
70
1
0
BLOCK_RECORD
5
1F
100
AcDbSymbolTableRecord
100
AcDbBlockTableRecord
2
*MODEL_SPACE
0
BLOCK_RECORD
5
1B
100
AcDbSymbolTableRecord
100
AcDbBlockTableRecord
2
*PAPER_SPACE
0
ENDTAB
0
ENDSEC
0
SECTION
2
BLOCKS
0
BLOCK
5
20
100
AcDbEntity
100
AcDbBlockBegin
2
*MODEL_SPACE
0
ENDBLK
5
21
100
AcDbEntity
100
AcDbBlockEnd
0
BLOCK
5
1C
100
AcDbEntity
100
AcDbBlockBegin
2
*PAPER_SPACE
0
ENDBLK
5
1D
100
AcDbEntity
100
AcDbBlockEnd
0
ENDSEC
0
SECTION
2
ENTITIES
0
LWPOLYLINE
5
100
100
AcDbEntity
8
0
100
AcDbPolyline
90
8
70
1
43
0.0
10
352.95000000000005
20
35.549499999999995
10
352.95000000000005
20
40.549499999999981
42
-0.41421356237309503
10
353.95000000000005
20
41.549499999999995
10
366.94999999999999
20
41.549499999999995
42
-0.41421356237309503
10
367.95000000000005
20
40.549499999999981
10
367.95000000000005
20
35.549499999999981
42
-0.41421356237309503
10
366.94999999999999
20
34.549499999999981
10
353.95000000000005
20
34.549499999999981
42
-0.41421356237309503
0
LWPOLYLINE
5
101
100
AcDbEntity
8
0
100
AcDbPolyline
90
8
70
1
43
0.0
10
367.95000000000005
20
56.987499999999983
42
-0.41421356237309503
10
368.95000000000005
20
55.987499999999969
10
368.95000000000005
20
43.987499999999997
42
-0.41421356237309503
10
367.95000000000005
20
42.987499999999997
10
355.94999999999999
20
42.987499999999983
42
-0.41421356237309503
10
354.94999999999999
20
43.987499999999997
10
354.94999999999999
20
55.98749999999999
42
-0.41421356237309503
10
355.94999999999999
20
56.987499999999983
0
LWPOLYLINE
5
102
100
AcDbEntity
8
0
100
AcDbPolyline
90
8
70
1
43
0.0
10
330.85000000000002
20
34.462499999999991
42
-0.41421356237309503
10
329.85000000000002
20
33.462499999999991
10
317.85000000000002
20
33.462499999999977
42
-0.41421356237309503
10
316.85000000000002
20
34.462499999999991
10
316.85000000000002
20
46.462500000000006
42
-0.41421356237309503
10
317.85000000000002
20
47.462499999999999
10
329.85000000000008
20
47.46250000000002
42
-0.41421356237309503
10
330.85000000000008
20
46.462500000000006
0
LWPOLYLINE
5
103
100
AcDbEntity
8
0
100
AcDbPolyline
90
8
70
1
43
0.0
10
349.90000000000003
20
34.462499999999991
42
-0.41421356237309503
10
348.89999999999998
20
33.462499999999991
10
336.89999999999998
20
33.462499999999977
42
-0.41421356237309503
10
335.89999999999998
20
34.462499999999991
10
335.89999999999998
20
46.462500000000006
42
-0.41421356237309503
10
336.89999999999998
20
47.462499999999999
10
348.89999999999998
20
47.462499999999999
42
-0.41421356237309503
10
349.90000000000003
20
46.462499999999984
0
LWPOLYLINE
5
104
100
AcDbEntity
8
0
100
AcDbPolyline
90
8
70
1
43
0.0
10
367.95000000000005
20
59.425499999999985
42
-0.41421356237309503
10
366.94999999999999
20
58.425499999999992
10
353.95000000000005
20
58.425499999999971
42
-0.41421356237309503
10
352.95000000000005
20
59.425499999999985
10
352.95000000000005
20
64.425499999999985
42
-0.41421356237309503
10
353.95000000000005
20
65.4255
10
366.94999999999999
20
65.425499999999985
42
-0.41421356237309503
10
367.95000000000005
20
64.425499999999971
0
LWPOLYLINE
5
105
100
AcDbEntity
8
0
100
AcDbPolyline
90
8
70
1
43
0.0
10
336.89999999999998
20
52.512499999999989
42
-0.41421356237309503
10
335.89999999999998
20
53.512500000000003
10
335.89999999999998
20
65.512499999999989
42
-0.41421356237309503
10
336.89999999999998
20
66.512499999999989
10
348.89999999999998
20
66.512500000000017
42
-0.41421356237309503
10
349.90000000000003
20
65.512499999999989
10
349.90000000000003
20
53.512500000000003
42
-0.41421356237309503
10
348.89999999999998
20
52.512499999999989
0
LWPOLYLINE
5
106
100
AcDbEntity
8
0
100
AcDbPolyline
90
8
70
1
43
0.0
10
36.869250000000001
20
51.512499999999989
42
-0.41421356237309503
10
35.869250000000001
20
50.512499999999996
10
30.869250000000005
20
50.512499999999996
42
-0.41421356237309503
10
29.869250000000001
20
51.512499999999989
10
29.869250000000008
20
64.512500000000003
42
-0.41421356237309503
10
30.869250000000005
20
65.512499999999989
10
35.869250000000001
20
65.512499999999989
42
-0.41421356237309503
10
36.869250000000008
20
64.512500000000003
0
LWPOLYLINE
5
107
100
AcDbEntity
8
0
100
AcDbPolyline
90
8
70
1
43
0.0
10
48.862500000000004
20
85.5625
42
-0.41421356237309503
10
49.862499999999997
20
84.5625
10
49.862499999999997
20
72.5625
42
-0.41421356237309503
10
48.862500000000004
20
71.5625
10
36.862499999999997
20
71.5625
42
-0.41421356237309503
10
35.862499999999997
20
72.5625
10
35.862500000000018
20
84.5625
42
-0.41421356237309503
10
36.862499999999997
20
85.562499999999986
0
LWPOLYLINE
5
108
100
AcDbEntity
8
0
100
AcDbPolyline
90
8
70
1
43
0.0
10
7.2874999999999854
20
103.61249999999998
42
-0.41421356237309503
10
8.2874999999999979
20
104.6125
10
20.287500000000001
20
104.61249999999998
42
-0.41421356237309503
10
21.287500000000001
20
103.61249999999998
10
21.287499999999998
20
91.612499999999983
42
-0.41421356237309503
10
20.287500000000001
20
90.612499999999997
10
8.2874999999999996
20
90.612499999999997
42
-0.41421356237309503
10
7.2874999999999996
20
91.612499999999983
0
LWPOLYLINE
5
109
100
AcDbEntity
8
0
100
AcDbPolyline
90
8
70
1
43
0.0
10
140.63750000000002
20
65.512499999999989
42
-0.41421356237309503
10
141.63749999999999
20
66.512499999999989
10
153.63749999999999
20
66.512499999999989
42
-0.41421356237309503
10
154.63749999999999
20
65.512499999999989
10
154.63749999999999
20
53.512500000000003
42
-0.41421356237309503
10
153.63749999999999
20
52.512500000000003
10
141.63749999999999
20
52.512500000000003
42
-0.41421356237309503
10
140.63750000000002
20
53.512500000000003
0
LWPOLYLINE
5
110
100
AcDbEntity
8
0
100
AcDbPolyline
90
8
70
1
43
0.0
10
77.4375
20
133.47499999999999
10
65.4375
20
133.47499999999999
42
-0.41421356237309503
10
64.4375
20
134.47499999999999
10
64.4375
20
146.47500000000002
42
-0.41421356237309503
10
65.4375
20
147.47499999999999
10
77.4375
20
147.47499999999999
42
-0.41421356237309503
10
78.4375
20
146.47500000000002
10
78.4375
20
134.47499999999999
42
-0.41421356237309503
0
LWPOLYLINE
5
111
100
AcDbEntity
8
0
100
AcDbPolyline
90
8
70
1
43
0.0
10
59.387500000000003
20
134.47499999999999
10
59.387500000000003
20
146.47500000000002
42
0.41421356237309503
10
58.38750000000001
20
147.47499999999999
10
46.38750000000001
20
147.47499999999999
42
0.41421356237309503
10
45.387500000000003
20
146.47500000000002
10
45.38750000000001
20
134.47499999999999
42
0.41421356237309503
10
46.38750000000001
20
133.47499999999999
10
58.38750000000001
20
133.47499999999999
42
0.41421356237309503
0
LWPOLYLINE
5
112
100
AcDbEntity
8
0
100
AcDbPolyline
90
8
70
1
43
0.0
10
44.100000000000001
20
90.612499999999997
10
32.100000000000001
20
90.612499999999997
42
-0.41421356237309503
10
31.100000000000001
20
91.612499999999983
10
31.099999999999994
20
103.61249999999998
42
-0.41421356237309503
10
32.100000000000009
20
104.6125
10
44.100000000000001
20
104.61249999999998
42
-0.41421356237309503
10
45.099999999999994
20
103.61249999999998
10
45.099999999999994
20
91.612499999999983
42
-0.41421356237309503
0
LWPOLYLINE
5
113
100
AcDbEntity
8
0
100
AcDbPolyline
90
8
70
1
43
0.0
10
67.912499999999994
20
85.562499999999986
10
55.912500000000009
20
85.562499999999986
42
0.41421356237309503
10
54.912500000000009
20
84.5625
10
54.912500000000009
20
72.5625
42
0.41421356237309503
10
55.912500000000009
20
71.5625
10
67.912499999999994
20
71.5625
42
0.41421356237309503
10
68.912499999999994
20
72.5625
10
68.912499999999994
20
84.5625
42
0.41421356237309503
0
LWPOLYLINE
5
114
100
AcDbEntity
8
0
100
AcDbPolyline
90
8
70
1
43
0.0
10
82.200000000000003
20
90.612499999999997
10
70.200000000000003
20
90.612499999999997
42
-0.41421356237309503
10
69.200000000000003
20
91.612499999999983
10
69.199999999999989
20
103.61249999999998
42
-0.41421356237309503
10
70.200000000000003
20
104.6125
10
82.200000000000003
20
104.61249999999998
42
-0.41421356237309503
10
83.200000000000003
20
103.61249999999998
10
83.200000000000003
20
91.612499999999983
42
-0.41421356237309503
0
LWPOLYLINE
5
115
100
AcDbEntity
8
0
100
AcDbPolyline
90
8
70
1
43
0.0
10
88.250000000000014
20
91.612499999999983
10
88.25
20
103.61249999999998
42
-0.41421356237309503
10
89.25
20
104.6125
10
101.25
20
104.61249999999998
42
-0.41421356237309503
10
102.25
20
103.61249999999998
10
102.25
20
91.612499999999983
42
-0.41421356237309503
10
101.25
20
90.612499999999997
10
89.25
20
90.612499999999997
42
-0.41421356237309503
0
LWPOLYLINE
5
116
100
AcDbEntity
8
0
100
AcDbPolyline
90
8
70
1
43
0.0
10
34.575000000000003
20
123.66249999999999
42
-0.41421356237309503
10
35.575000000000003
20
122.66249999999999
10
35.575000000000017
20
110.66249999999999
42
-0.41421356237309503
10
34.575000000000003
20
109.66249999999999
10
22.574999999999999
20
109.66250000000001
42
-0.41421356237309503
10
21.575000000000003
20
110.66249999999999
10
21.574999999999985
20
122.66249999999999
42
-0.41421356237309503
10
22.574999999999999
20
123.66250000000001
0
LWPOLYLINE
5
117
100
AcDbEntity
8
0
100
AcDbPolyline
90
8
70
1
43
0.0
10
72.674999999999997
20
109.66249999999999
10
60.674999999999997
20
109.66250000000001
42
-0.41421356237309503
10
59.675000000000004
20
110.66249999999999
10
59.674999999999983
20
122.66249999999999
42
-0.41421356237309503
10
60.674999999999997
20
123.66250000000001
10
72.674999999999997
20
123.66249999999999
42
-0.41421356237309503
10
73.674999999999997
20
122.66249999999999
10
73.675000000000011
20
110.66249999999999
42
-0.41421356237309503
0
LWPOLYLINE
5
118
100
AcDbEntity
8
0
100
AcDbPolyline
90
8
70
1
43
0.0
10
125.06250000000001
20
85.5625
42
-0.41421356237309503
10
126.06250000000001
20
84.5625
10
126.06250000000001
20
72.5625
42
-0.41421356237309503
10
125.06250000000001
20
71.5625
10
113.0625
20
71.5625
42
-0.41421356237309503
10
112.0625
20
72.5625
10
112.06250000000003
20
84.5625
42
-0.41421356237309503
10
113.0625
20
85.562499999999986
0
LWPOLYLINE
5
119
100
AcDbEntity
8
0
100
AcDbPolyline
90
8
70
1
43
0.0
10
3.5250000000000004
20
109.66250000000001
42
-0.41421356237309503
10
2.5250000000000004
20
110.66249999999999
10
2.5249999999999861
20
122.66249999999999
42
-0.41421356237309503
10
3.5250000000000004
20
123.66250000000001
10
15.525000000000002
20
123.66249999999999
42
-0.41421356237309503
10
16.525000000000002
20
122.66249999999999
10
16.524999999999999
20
110.66249999999999
42
-0.41421356237309503
10
15.525000000000002
20
109.66250000000001
0
LWPOLYLINE
5
120
100
AcDbEntity
8
0
100
AcDbPolyline
90
8
70
1
43
0.0
10
14.431250000000004
20
65.512499999999989
42
-0.41421356237309503
10
15.43125
20
66.512499999999989
10
27.431249999999999
20
66.512499999999989
42
-0.41421356237309503
10
28.431250000000002
20
65.512499999999989
10
28.431250000000013
20
53.512500000000003
42
-0.41421356237309503
10
27.431249999999999
20
52.512499999999989
10
15.43125
20
52.512500000000003
42
-0.41421356237309503
10
14.43125
20
53.512500000000003
0
LWPOLYLINE
5
121
100
AcDbEntity
8
0
100
AcDbPolyline
90
8
70
1
43
0.0
10
91.724999999999994
20
109.66249999999999
10
79.724999999999994
20
109.66249999999999
42
-0.41421356237309503
10
78.724999999999994
20
110.66249999999999
10
78.724999999999994
20
122.66249999999999
42
-0.41421356237309503
10
79.724999999999994
20
123.66250000000001
10
91.724999999999994
20
123.66249999999999
42
-0.41421356237309503
10
92.724999999999994
20
122.66249999999999
10
92.725000000000009
20
110.66249999999999
42
-0.41421356237309503
0
LWPOLYLINE
5
122
100
AcDbEntity
8
0
100
AcDbPolyline
90
8
70
1
43
0.0
10
39.337499999999999
20
147.47500000000002
42
-0.41421356237309503
10
40.337500000000006
20
146.47500000000002
10
40.337499999999991
20
134.47499999999999
42
-0.41421356237309503
10
39.337499999999999
20
133.47499999999999
10
27.337500000000002
20
133.47499999999999
42
-0.41421356237309503
10
26.337499999999999
20
134.47499999999999
10
26.337500000000006
20
146.47500000000002
42
-0.41421356237309503
10
27.337500000000002
20
147.47499999999999
0
LWPOLYLINE
5
123
100
AcDbEntity
8
0
100
AcDbPolyline
90
8
70
1
43
0.0
10
29.718750000000004
20
33.462499999999991
42
-0.41421356237309503
10
28.71875
20
34.462499999999991
10
28.718750000000007
20
46.462500000000006
42
-0.41421356237309503
10
29.718750000000004
20
47.462499999999999
10
48.862500000000004
20
47.462499999999999
42
-0.41421356237309503
10
49.862499999999997
20
46.462500000000006
10
49.862499999999997
20
34.462499999999991
42
-0.41421356237309503
10
48.862500000000004
20
33.462499999999991
0
LWPOLYLINE
5
124
100
AcDbEntity
8
0
100
AcDbPolyline
90
8
70
1
43
0.0
10
96.487499999999997
20
66.512500000000017
42
-0.41421356237309503
10
97.487500000000011
20
65.512499999999989
10
97.487500000000011
20
53.512500000000003
42
-0.41421356237309503
10
96.487499999999997
20
52.512499999999989
10
84.487500000000011
20
52.512500000000003
42
-0.41421356237309503
10
83.487500000000011
20
53.512500000000003
10
83.487500000000011
20
65.512499999999989
42
-0.41421356237309503
10
84.487500000000011
20
66.512499999999989
0
LWPOLYLINE
5
125
100
AcDbEntity
8
0
100
AcDbPolyline
90
8
70
1
43
0.0
10
127.34999999999999
20
90.612499999999997
42
-0.41421356237309503
10
126.34999999999999
20
91.612499999999983
10
126.34999999999998
20
103.61249999999998
42
-0.41421356237309503
10
127.34999999999999
20
104.6125
10
139.34999999999999
20
104.61249999999998
42
-0.41421356237309503
10
140.34999999999999
20
103.61249999999998
10
140.34999999999999
20
91.612499999999983
42
-0.41421356237309503
10
139.34999999999999
20
90.612499999999997
0
LWPOLYLINE
5
126
100
AcDbEntity
8
0
100
AcDbPolyline
90
8
70
1
43
0.0
10
132.11250000000001
20
71.5625
42
-0.41421356237309503
10
131.11250000000001
20
72.5625
10
131.11250000000004
20
84.5625
42
-0.41421356237309503
10
132.11250000000001
20
85.562499999999986
10
144.11250000000001
20
85.5625
42
-0.41421356237309503
10
145.11250000000001
20
84.5625
10
145.11250000000001
20
72.5625
42
-0.41421356237309503
10
144.11250000000001
20
71.5625
0
LWPOLYLINE
5
127
100
AcDbEntity
8
0
100
AcDbPolyline
90
8
70
1
43
0.0
10
86.962500000000006
20
85.562499999999986
10
74.962500000000006
20
85.562499999999986
42
0.41421356237309503
10
73.962500000000006
20
84.5625
10
73.962500000000006
20
72.5625
42
0.41421356237309503
10
74.962500000000006
20
71.5625
10
86.962500000000006
20
71.5625
42
0.41421356237309503
10
87.962500000000006
20
72.5625
10
87.962500000000006
20
84.5625
42
0.41421356237309503
0
LWPOLYLINE
5
128
100
AcDbEntity
8
0
100
AcDbPolyline
90
8
70
1
43
0.0
10
64.150000000000006
20
91.612499999999983
10
64.150000000000006
20
103.61249999999998
42
0.41421356237309503
10
63.150000000000006
20
104.6125
10
51.150000000000013
20
104.6125
42
0.41421356237309503
10
50.150000000000006
20
103.61249999999998
10
50.150000000000006
20
91.612499999999983
42
0.41421356237309503
10
51.150000000000006
20
90.612499999999997
10
63.150000000000006
20
90.612499999999997
42
0.41421356237309503
0
LWPOLYLINE
5
129
100
AcDbEntity
8
0
100
AcDbPolyline
90
8
70
1
43
0.0
10
53.625000000000007
20
123.66249999999999
42
-0.41421356237309503
10
54.625
20
122.66249999999999
10
54.625000000000021
20
110.66249999999999
42
-0.41421356237309503
10
53.625000000000007
20
109.66249999999999
10
41.625000000000007
20
109.66249999999999
42
-0.41421356237309503
10
40.625
20
110.66249999999999
10
40.624999999999993
20
122.66249999999999
42
-0.41421356237309503
10
41.625000000000007
20
123.66250000000001
0
LWPOLYLINE
5
130
100
AcDbEntity
8
0
100
AcDbPolyline
90
8
70
1
43
0.0
10
183.21249999999998
20
72.5625
42
-0.41421356237309503
10
182.21250000000001
20
71.5625
10
170.21250000000003
20
71.562499999999986
42
-0.41421356237309503
10
169.21250000000001
20
72.5625
10
169.21250000000003
20
84.5625
42
-0.41421356237309503
10
170.21250000000003
20
85.562499999999986
10
182.21250000000001
20
85.562500000000028
42
-0.41421356237309503
10
183.21250000000003
20
84.5625
0
LWPOLYLINE
5
131
100
AcDbEntity
8
0
100
AcDbPolyline
90
8
70
1
43
0.0
10
5.9932500000000033
20
64.512500000000003
42
-0.41421356237309503
10
6.9932499999999997
20
65.512499999999989
10
11.99325
20
65.512499999999989
42
-0.41421356237309503
10
12.99325
20
64.512500000000003
10
12.993249999999996
20
51.512499999999989
42
-0.41421356237309503
10
11.99325
20
50.512499999999996
10
6.9932499999999997
20
50.512499999999996
42
-0.41421356237309503
10
5.9932499999999997
20
51.512499999999989
0
LWPOLYLINE
5
132
100
AcDbEntity
8
0
100
AcDbPolyline
90
8
70
1
43
0.0
10
21.287499999999998
20
34.462499999999991
42
-0.41421356237309503
10
20.287500000000001
20
33.462499999999991
10
5.9062500000000009
20
33.462499999999991
42
-0.41421356237309503
10
4.90625
20
34.462499999999991
10
4.9062500000000044
20
46.462500000000006
42
-0.41421356237309503
10
5.9062500000000018
20
47.462499999999999
10
20.287500000000001
20
47.462499999999999
42
-0.41421356237309503
10
21.287500000000001
20
46.462500000000006
0
LWPOLYLINE
5
133
100
AcDbEntity
8
0
100
AcDbPolyline
90
8
70
1
43
0.0
10
115.53750000000001
20
66.512499999999989
10
103.53749999999999
20
66.512499999999989
42
0.41421356237309503
10
102.53749999999999
20
65.512499999999989
10
102.53749999999999
20
53.512500000000003
42
0.41421356237309503
10
103.53749999999999
20
52.512500000000003
10
115.53750000000001
20
52.512499999999989
42
0.41421356237309503
10
116.53750000000001
20
53.512500000000003
10
116.53750000000001
20
65.512499999999989
42
0.41421356237309503
0
LWPOLYLINE
5
134
100
AcDbEntity
8
0
100
AcDbPolyline
90
8
70
1
43
0.0
10
310.80000000000001
20
104.6125
42
-0.41421356237309503
10
311.80000000000001
20
103.61249999999998
10
311.80000000000001
20
91.612499999999983
42
-0.41421356237309503
10
310.80000000000001
20
90.612499999999997
10
298.80000000000001
20
90.612499999999983
42
-0.41421356237309503
10
297.80000000000001
20
91.612499999999983
10
297.80000000000001
20
103.61249999999998
42
-0.41421356237309503
10
298.80000000000001
20
104.6125
0
LWPOLYLINE
5
135
100
AcDbEntity
8
0
100
AcDbPolyline
90
8
70
1
43
0.0
10
367.95000000000005
20
97.525499999999994
42
-0.41421356237309503
10
366.94999999999999
20
96.525499999999994
10
353.95000000000005
20
96.52549999999998
42
-0.41421356237309503
10
352.95000000000005
20
97.525499999999994
10
352.95000000000005
20
102.52549999999999
42
-0.41421356237309503
10
353.95000000000005
20
103.52550000000001
10
366.94999999999999
20
103.52550000000001
42
-0.41421356237309503
10
367.95000000000005
20
102.52549999999999
0
LWPOLYLINE
5
136
100
AcDbEntity
8
0
100
AcDbPolyline
90
8
70
1
43
0.0
10
349.90000000000003
20
91.612499999999983
10
349.90000000000003
20
103.61249999999998
42
0.41421356237309503
10
348.89999999999998
20
104.6125
10
336.89999999999998
20
104.6125
42
0.41421356237309503
10
335.89999999999998
20
103.61249999999998
10
335.89999999999998
20
91.612499999999983
42
0.41421356237309503
10
336.89999999999998
20
90.612499999999997
10
348.89999999999998
20
90.612499999999997
42
0.41421356237309503
0
LWPOLYLINE
5
137
100
AcDbEntity
8
0
100
AcDbPolyline
90
8
70
1
43
0.0
10
220.3125
20
133.47499999999999
10
208.3125
20
133.47500000000002
42
-0.41421356237309503
10
207.31250000000003
20
134.47499999999999
10
207.31250000000003
20
146.47500000000002
42
-0.41421356237309503
10
208.3125
20
147.47499999999999
10
220.3125
20
147.47500000000002
42
-0.41421356237309503
10
221.3125
20
146.47500000000002
10
221.3125
20
134.47499999999999
42
-0.41421356237309503
0
LWPOLYLINE
5
138
100
AcDbEntity
8
0
100
AcDbPolyline
90
8
70
1
43
0.0
10
188.26250000000002
20
146.47500000000002
42
-0.41421356237309503
10
189.26249999999999
20
147.47499999999999
10
201.26249999999999
20
147.47500000000002
42
-0.41421356237309503
10
202.26249999999999
20
146.47500000000002
10
202.26249999999999
20
134.47499999999999
42
-0.41421356237309503
10
201.26249999999999
20
133.47499999999999
10
189.26249999999999
20
133.47499999999999
42
-0.41421356237309503
10
188.26249999999999
20
134.47499999999999
0
LWPOLYLINE
5
139
100
AcDbEntity
8
0
100
AcDbPolyline
90
8
70
1
43
0.0
10
317.85000000000002
20
109.66249999999999
42
-0.41421356237309503
10
316.85000000000002
20
110.66249999999999
10
316.85000000000002
20
122.66249999999999
42
-0.41421356237309503
10
317.85000000000002
20
123.66250000000001
10
329.85000000000008
20
123.66249999999994
42
-0.41421356237309503
10
330.85000000000002
20
122.66249999999999
10
330.85000000000008
20
110.66249999999999
42
-0.41421356237309503
10
329.85000000000008
20
109.66249999999999
0
LWPOLYLINE
5
140
100
AcDbEntity
8
0
100
AcDbPolyline
90
8
70
1
43
0.0
10
111.77500000000001
20
110.66249999999999
10
111.77500000000002
20
122.66249999999999
42
0.41421356237309503
10
110.77500000000001
20
123.66250000000001
10
98.775000000000006
20
123.66250000000001
42
0.41421356237309503
10
97.77500000000002
20
122.66249999999999
10
97.77500000000002
20
110.66249999999999
42
0.41421356237309503
10
98.775000000000006
20
109.66249999999999
10
110.77500000000001
20
109.66250000000001
42
0.41421356237309503
0
LWPOLYLINE
5
141
100
AcDbEntity
8
0
100
AcDbPolyline
90
8
70
1
43
0.0
10
154.92500000000001
20
110.66249999999999
10
154.92500000000001
20
122.66249999999999
42
-0.41421356237309503
10
155.92500000000001
20
123.66250000000001
10
167.92500000000001
20
123.66250000000001
42
-0.41421356237309503
10
168.92500000000001
20
122.66249999999999
10
168.92499999999998
20
110.66249999999999
42
-0.41421356237309503
10
167.92500000000001
20
109.66250000000001
10
155.92500000000001
20
109.66250000000001
42
-0.41421356237309503
0
LWPOLYLINE
5
142
100
AcDbEntity
8
0
100
AcDbPolyline
90
8
70
1
43
0.0
10
231.125
20
122.66249999999999
42
-0.41421356237309503
10
232.12500000000003
20
123.66250000000001
10
244.125
20
123.66250000000001
42
-0.41421356237309503
10
245.12500000000003
20
122.66249999999999
10
245.12500000000003
20
110.66249999999999
42
-0.41421356237309503
10
244.125
20
109.66249999999999
10
232.12500000000003
20
109.66249999999999
42
-0.41421356237309503
10
231.125
20
110.66249999999999
0
LWPOLYLINE
5
143
100
AcDbEntity
8
0
100
AcDbPolyline
90
8
70
1
43
0.0
10
335.89999999999998
20
110.66249999999999
10
335.89999999999998
20
122.66249999999999
42
-0.41421356237309503
10
336.89999999999998
20
123.66250000000001
10
348.89999999999998
20
123.66250000000001
42
-0.41421356237309503
10
349.90000000000003
20
122.66249999999999
10
349.90000000000003
20
110.66249999999999
42
-0.41421356237309503
10
348.89999999999998
20
109.66249999999999
10
336.89999999999998
20
109.66249999999999
42
-0.41421356237309503
0
LWPOLYLINE
5
144
100
AcDbEntity
8
0
100
AcDbPolyline
90
8
70
1
43
0.0
10
226.36250000000004
20
134.47499999999999
10
226.36250000000004
20
146.47500000000002
42
-0.41421356237309503
10
227.36250000000001
20
147.47499999999999
10
239.36250000000001
20
147.47499999999999
42
-0.41421356237309503
10
240.36250000000001
20
146.47499999999997
10
240.36250000000001
20
134.47499999999999
42
-0.41421356237309503
10
239.36250000000001
20
133.47499999999999
10
227.36250000000001
20
133.47500000000002
42
-0.41421356237309503
0
LWPOLYLINE
5
145
100
AcDbEntity
8
0
100
AcDbPolyline
90
8
70
1
43
0.0
10
368.95000000000005
20
110.66249999999999
10
368.95000000000005
20
122.66249999999999
42
0.41421356237309503
10
367.95000000000005
20
123.66250000000001
10
355.94999999999999
20
123.66250000000001
42
0.41421356237309503
10
354.94999999999999
20
122.66249999999999
10
354.94999999999999
20
110.66250000000002
42
0.41421356237309503
10
355.94999999999999
20
109.66250000000001
10
367.95000000000005
20
109.66250000000001
42
0.41421356237309503
0
LWPOLYLINE
5
146
100
AcDbEntity
8
0
100
AcDbPolyline
90
8
70
1
43
0.0
10
272.69999999999999
20
123.66250000000001
42
-0.41421356237309503
10
273.69999999999999
20
122.66249999999999
10
273.69999999999999
20
110.66249999999999
42
-0.41421356237309503
10
272.69999999999999
20
109.66249999999999
10
260.69999999999999
20
109.66249999999999
42
-0.41421356237309503
10
259.69999999999999
20
110.66249999999999
10
259.69999999999999
20
122.66249999999999
42
-0.41421356237309503
10
260.69999999999999
20
123.66250000000001
0
LWPOLYLINE
5
147
100
AcDbEntity
8
0
100
AcDbPolyline
90
8
70
1
43
0.0
10
282.13799999999998
20
108.66250000000001
10
282.13799999999998
20
121.66249999999999
42
0.41421356237309503
10
281.13799999999998
20
122.66249999999999
10
276.13800000000003
20
122.66249999999999
42
0.41421356237309503
10
275.13799999999998
20
121.66249999999999
10
275.13799999999998
20
108.66250000000001
42
0.41421356237309503
10
276.13799999999998
20
107.66249999999999
10
281.13799999999998
20
107.66249999999999
42
0.41421356237309503
0
LWPOLYLINE
5
148
100
AcDbEntity
8
0
100
AcDbPolyline
90
8
70
1
43
0.0
10
329.85000000000008
20
104.6125
42
-0.41421356237309503
10
330.85000000000002
20
103.61250000000005
10
330.85000000000002
20
91.612499999999983
42
-0.41421356237309503
10
329.85000000000002
20
90.612499999999997
10
317.85000000000002
20
90.612499999999983
42
-0.41421356237309503
10
316.85000000000002
20
91.612499999999983
10
316.85000000000002
20
103.61249999999998
42
-0.41421356237309503
10
317.85000000000002
20
104.6125
0
LWPOLYLINE
5
149
100
AcDbEntity
8
0
100
AcDbPolyline
90
8
70
1
43
0.0
10
215.55000000000004
20
90.612499999999997
10
203.55000000000004
20
90.612499999999983
42
-0.41421356237309503
10
202.55000000000001
20
91.612499999999983
10
202.55000000000001
20
103.61249999999998
42
-0.41421356237309503
10
203.55000000000004
20
104.6125
10
215.55000000000004
20
104.6125
42
-0.41421356237309503
10
216.55000000000004
20
103.61249999999998
10
216.55000000000001
20
91.612499999999983
42
-0.41421356237309503
0
LWPOLYLINE
5
150
100
AcDbEntity
8
0
100
AcDbPolyline
90
8
70
1
43
0.0
10
225.07499999999999
20
123.66250000000001
42
-0.41421356237309503
10
226.07500000000002
20
122.66249999999999
10
226.07500000000002
20
110.66249999999999
42
-0.41421356237309503
10
225.07499999999999
20
109.66249999999999
10
213.07500000000002
20
109.66249999999999
42
-0.41421356237309503
10
212.07499999999999
20
110.66249999999999
10
212.07499999999999
20
122.66249999999999
42
-0.41421356237309503
10
213.07500000000002
20
123.66250000000001
0
LWPOLYLINE
5
151
100
AcDbEntity
8
0
100
AcDbPolyline
90
8
70
1
43
0.0
10
349.90000000000003
20
134.47499999999999
42
-0.41421356237309503
10
348.89999999999998
20
133.47499999999999
10
336.89999999999998
20
133.47499999999999
42
-0.41421356237309503
10
335.89999999999998
20
134.47499999999999
10
335.89999999999998
20
146.47500000000002
42
-0.41421356237309503
10
336.89999999999998
20
147.47499999999999
10
348.89999999999998
20
147.47499999999999
42
-0.41421356237309503
10
349.90000000000003
20
146.47499999999997
0
LWPOLYLINE
5
152
100
AcDbEntity
8
0
100
AcDbPolyline
90
8
70
1
43
0.0
10
368.95000000000005
20
134.47499999999999
42
-0.41421356237309503
10
367.95000000000005
20
133.47499999999999
10
355.94999999999999
20
133.47499999999999
42
-0.41421356237309503
10
354.94999999999999
20
134.47499999999999
10
354.94999999999999
20
146.47500000000002
42
-0.41421356237309503
10
355.94999999999999
20
147.47499999999999
10
367.95000000000005
20
147.47500000000002
42
-0.41421356237309503
10
368.95000000000005
20
146.47500000000002
0
LWPOLYLINE
5
153
100
AcDbEntity
8
0
100
AcDbPolyline
90
8
70
1
43
0.0
10
193.02500000000003
20
122.66249999999999
42
-0.41421356237309503
10
194.02500000000003
20
123.66250000000001
10
206.02500000000003
20
123.66249999999997
42
-0.41421356237309503
10
207.02500000000001
20
122.66249999999999
10
207.02500000000001
20
110.66249999999999
42
-0.41421356237309503
10
206.02500000000003
20
109.66250000000001
10
194.02500000000003
20
109.66249999999999
42
-0.41421356237309503
10
193.02500000000003
20
110.66249999999999
0
LWPOLYLINE
5
154
100
AcDbEntity
8
0
100
AcDbPolyline
90
8
70
1
43
0.0
10
297.80000000000001
20
110.66249999999999
10
297.80000000000001
20
122.66249999999999
42
-0.41421356237309503
10
298.80000000000001
20
123.66250000000001
10
310.80000000000001
20
123.66250000000001
42
-0.41421356237309503
10
311.80000000000001
20
122.66249999999999
10
311.80000000000001
20
110.66249999999999
42
-0.41421356237309503
10
310.80000000000001
20
109.66250000000001
10
298.80000000000001
20
109.66249999999999
42
-0.41421356237309503
0
LWPOLYLINE
5
155
100
AcDbEntity
8
0
100
AcDbPolyline
90
8
70
1
43
0.0
10
197.50000000000003
20
91.612499999999983
10
197.5
20
103.61250000000001
42
0.41421356237309503
10
196.50000000000003
20
104.6125
10
184.5
20
104.6125
42
0.41421356237309503
10
183.49999999999997
20
103.61249999999998
10
183.5
20
91.612499999999983
42
0.41421356237309503
10
184.5
20
90.612500000000011
10
196.50000000000006
20
90.612499999999997
42
0.41421356237309503
0
LWPOLYLINE
5
156
100
AcDbEntity
8
0
100
AcDbPolyline
90
8
70
1
43
0.0
10
245.41249999999997
20
146.47500000000002
42
-0.41421356237309503
10
246.41249999999999
20
147.47499999999999
10
258.41250000000002
20
147.47500000000002
42
-0.41421356237309503
10
259.41250000000002
20
146.47500000000002
10
259.41250000000002
20
134.47499999999999
42
-0.41421356237309503
10
258.41250000000002
20
133.47499999999999
10
246.41249999999999
20
133.47500000000002
42
-0.41421356237309503
10
245.41250000000002
20
134.47499999999999
0
LWPOLYLINE
5
157
100
AcDbEntity
8
0
100
AcDbPolyline
90
8
70
1
43
0.0
10
220.3125
20
71.5625
10
208.3125
20
71.562500000000014
42
-0.41421356237309503
10
207.31250000000003
20
72.5625
10
207.31250000000003
20
84.5625
42
-0.41421356237309503
10
208.3125
20
85.562499999999986
10
220.3125
20
85.562500000000028
42
-0.41421356237309503
10
221.3125
20
84.5625
10
221.3125
20
72.5625
42
-0.41421356237309503
0
LWPOLYLINE
5
158
100
AcDbEntity
8
0
100
AcDbPolyline
90
8
70
1
43
0.0
10
202.26249999999999
20
72.5625
42
-0.41421356237309503
10
201.26249999999999
20
71.5625
10
189.26249999999999
20
71.562499999999986
42
-0.41421356237309503
10
188.26249999999999
20
72.5625
10
188.26250000000002
20
84.5625
42
-0.41421356237309503
10
189.26249999999999
20
85.562499999999986
10
201.26249999999999
20
85.562500000000028
42
-0.41421356237309503
10
202.26249999999999
20
84.5625
0
LINE
5
159
100
AcDbEntity
8
0
100
AcDbLine
10
0
20
148.5
30
0
11
0
21
27.675000000000018
31
0
0
LWPOLYLINE
5
160
100
AcDbEntity
8
0
100
AcDbPolyline
90
8
70
1
43
0.0
10
355.94999999999999
20
95.087499999999991
10
367.95000000000005
20
95.087500000000006
42
-0.41421356237309503
10
368.95000000000005
20
94.087499999999991
10
368.95000000000005
20
82.087500000000006
42
-0.41421356237309503
10
367.95000000000005
20
81.087500000000006
10
355.94999999999999
20
81.087500000000006
42
-0.41421356237309503
10
354.94999999999999
20
82.08750000000002
10
354.94999999999999
20
94.087499999999991
42
-0.41421356237309503
0
LWPOLYLINE
5
161
100
AcDbEntity
8
0
100
AcDbPolyline
90
8
70
1
43
0.0
10
117.825
20
109.66250000000001
42
-0.41421356237309503
10
116.82500000000002
20
110.66249999999999
10
116.82499999999999
20
122.66249999999999
42
-0.41421356237309503
10
117.825
20
123.66250000000001
10
129.82499999999999
20
123.66249999999999
42
-0.41421356237309503
10
130.82499999999999
20
122.66249999999999
10
130.82500000000002
20
110.66249999999999
42
-0.41421356237309503
10
129.82499999999999
20
109.66249999999999
0
LWPOLYLINE
5
162
100
AcDbEntity
8
0
100
AcDbPolyline
90
8
70
1
43
0.0
10
120.30000000000001
20
104.6125
10
108.3
20
104.6125
42
0.41421356237309503
10
107.29999999999998
20
103.61249999999998
10
107.30000000000001
20
91.612499999999983
42
0.41421356237309503
10
108.3
20
90.612499999999997
10
120.30000000000001
20
90.612499999999997
42
0.41421356237309503
10
121.30000000000001
20
91.612499999999983
10
121.30000000000001
20
103.61249999999998
42
0.41421356237309503
0
LWPOLYLINE
5
163
100
AcDbEntity
8
0
100
AcDbPolyline
90
8
70
1
43
0.0
10
184.47500000000002
20
32.462499999999999
10
184.47500000000002
20
45.462500000000006
42
0.41421356237309503
10
183.47499999999999
20
46.46250000000002
10
178.47499999999999
20
46.462500000000006
42
0.41421356237309503
10
177.47500000000002
20
45.462500000000006
10
177.47499999999999
20
32.46250000000002
42
0.41421356237309503
10
178.47499999999999
20
31.462500000000002
10
183.47500000000002
20
31.462500000000002
42
0.41421356237309503
0
LWPOLYLINE
5
164
100
AcDbEntity
8
0
100
AcDbPolyline
90
8
70
1
43
0.0
10
4.90625
20
72.5625
10
4.9062500000000187
20
84.5625
42
-0.41421356237309503
10
5.9062499999999973
20
85.562499999999986
10
22.668750000000003
20
85.5625
42
-0.41421356237309503
10
23.668749999999999
20
84.5625
10
23.668749999999999
20
72.5625
42
-0.41421356237309503
10
22.668750000000003
20
71.5625
10
5.9062500000000009
20
71.5625
42
-0.41421356237309503
0
LWPOLYLINE
5
165
100
AcDbEntity
8
0
100
AcDbPolyline
90
8
70
1
43
0.0
10
198.78749999999999
20
33.462500000000013
42
-0.41421356237309503
10
197.78750000000002
20
34.462499999999991
10
197.78750000000002
20
46.462500000000006
42
-0.41421356237309503
10
198.78750000000002
20
47.462499999999999
10
210.78749999999999
20
47.46250000000002
42
-0.41421356237309503
10
211.78750000000002
20
46.462500000000006
10
211.78750000000002
20
34.462499999999991
42
-0.41421356237309503
10
210.78749999999999
20
33.462499999999991
0
LWPOLYLINE
5
166
100
AcDbEntity
8
0
100
AcDbPolyline
90
8
70
1
43
0.0
10
159.6875
20
53.512500000000003
10
159.68750000000003
20
65.512499999999989
42
-0.41421356237309503
10
160.6875
20
66.512499999999989
10
172.6875
20
66.512500000000017
42
-0.41421356237309503
10
173.68750000000003
20
65.512499999999989
10
173.6875
20
53.512500000000003
42
-0.41421356237309503
10
172.6875
20
52.512500000000003
10
160.6875
20
52.512499999999989
42
-0.41421356237309503
0
LWPOLYLINE
5
167
100
AcDbEntity
8
0
100
AcDbPolyline
90
8
70
1
43
0.0
10
297.80000000000001
20
134.47499999999999
10
297.80000000000001
20
146.47500000000002
42
-0.41421356237309503
10
298.80000000000001
20
147.47499999999999
10
310.80000000000001
20
147.47500000000002
42
-0.41421356237309503
10
311.80000000000001
20
146.47500000000002
10
311.80000000000001
20
134.47499999999999
42
-0.41421356237309503
10
310.80000000000001
20
133.47499999999999
10
298.80000000000001
20
133.47499999999999
42
-0.41421356237309503
0
LWPOLYLINE
5
168
100
AcDbEntity
8
0
100
AcDbPolyline
90
8
70
1
43
0.0
10
283.22500000000002
20
134.47499999999999
42
-0.41421356237309503
10
282.22500000000002
20
133.47499999999999
10
270.22500000000002
20
133.47499999999999
42
-0.41421356237309503
10
269.22500000000002
20
134.47500000000002
10
269.22500000000008
20
146.47500000000002
42
-0.41421356237309503
10
270.22500000000002
20
147.47499999999999
10
282.22500000000002
20
147.47500000000002
42
-0.41421356237309503
10
283.22500000000002
20
146.47500000000002
0
LWPOLYLINE
5
169
100
AcDbEntity
8
0
100
AcDbPolyline
90
8
70
1
43
0.0
10
191.73750000000001
20
66.512500000000017
42
-0.41421356237309503
10
192.73750000000004
20
65.512499999999989
10
192.73750000000004
20
53.512500000000003
42
-0.41421356237309503
10
191.73750000000001
20
52.512499999999989
10
179.73750000000001
20
52.512499999999989
42
-0.41421356237309503
10
178.73750000000001
20
53.512500000000003
10
178.73750000000001
20
65.512499999999989
42
-0.41421356237309503
10
179.73750000000001
20
66.512499999999989
0
LWPOLYLINE
5
170
100
AcDbEntity
8
0
100
AcDbPolyline
90
8
70
1
43
0.0
10
317.85000000000002
20
133.47499999999999
42
-0.41421356237309503
10
316.85000000000002
20
134.47499999999999
10
316.85000000000002
20
146.47500000000002
42
-0.41421356237309503
10
317.85000000000002
20
147.47499999999999
10
329.85000000000008
20
147.47499999999997
42
-0.41421356237309503
10
330.85000000000002
20
146.47500000000002
10
330.85000000000002
20
134.47499999999999
42
-0.41421356237309503
10
329.85000000000002
20
133.47499999999999
0
LWPOLYLINE
5
171
100
AcDbEntity
8
0
100
AcDbPolyline
90
8
70
1
43
0.0
10
163.16249999999999
20
85.562499999999986
10
151.16250000000002
20
85.562499999999986
42
0.41421356237309503
10
150.16249999999999
20
84.5625
10
150.16250000000002
20
72.5625
42
0.41421356237309503
10
151.16250000000002
20
71.5625
10
163.16249999999999
20
71.5625
42
0.41421356237309503
10
164.16250000000002
20
72.5625
10
164.16250000000002
20
84.5625
42
0.41421356237309503
0
LWPOLYLINE
5
172
100
AcDbEntity
8
0
100
AcDbPolyline
90
8
70
1
43
0.0
10
177.45000000000002
20
90.612499999999997
10
165.44999999999999
20
90.612499999999997
42
-0.41421356237309503
10
164.44999999999996
20
91.612500000000011
10
164.44999999999999
20
103.61249999999998
42
-0.41421356237309503
10
165.45000000000002
20
104.6125
10
177.45000000000002
20
104.6125
42
-0.41421356237309503
10
178.45000000000002
20
103.61249999999998
10
178.44999999999999
20
91.612499999999983
42
-0.41421356237309503
0
LWPOLYLINE
5
173
100
AcDbEntity
8
0
100
AcDbPolyline
90
8
70
1
43
0.0
10
59.387500000000003
20
53.512500000000003
10
59.387500000000003
20
65.512499999999989
42
0.41421356237309503
10
58.38750000000001
20
66.512499999999989
10
46.38750000000001
20
66.512499999999989
42
0.41421356237309503
10
45.38750000000001
20
65.512499999999989
10
45.38750000000001
20
53.512500000000003
42
0.41421356237309503
10
46.38750000000001
20
52.512499999999989
10
58.38750000000001
20
52.512499999999989
42
0.41421356237309503
0
LWPOLYLINE
5
174
100
AcDbEntity
8
0
100
AcDbPolyline
90
8
70
1
43
0.0
10
197.78750000000002
20
65.512499999999989
42
-0.41421356237309503
10
198.78749999999999
20
66.512499999999989
10
210.78749999999999
20
66.512500000000017
42
-0.41421356237309503
10
211.78750000000002
20
65.512499999999989
10
211.78750000000002
20
53.512500000000003
42
-0.41421356237309503
10
210.78749999999999
20
52.512499999999989
10
198.78749999999999
20
52.512500000000024
42
-0.41421356237309503
10
197.78750000000002
20
53.512500000000003
0
LWPOLYLINE
5
175
100
AcDbEntity
8
0
100
AcDbPolyline
90
13
70
1
43
0.0
10
69.175000000000011
20
31.462500000000002
10
64.175000000000011
20
31.462499999999991
42
-0.41421356237309503
10
63.174999999999997
20
32.462499999999999
10
63.174999999999997
20
33.462499999999991
10
53.53125
20
33.462499999999991
42
-0.41421356237309503
10
52.531250000000007
20
34.462499999999991
10
52.531250000000007
20
46.462500000000006
42
-0.41421356237309503
10
53.53125
20
47.462499999999999
10
65.53125
20
47.462499999999999
42
-0.41421356237309503
10
66.53125
20
46.462500000000006
10
69.175000000000011
20
46.462500000000006
42
-0.41421356237309503
10
70.174999999999997
20
45.462500000000006
10
70.174999999999997
20
32.462499999999999
42
-0.41421356237309503
0
LWPOLYLINE
5
176
100
AcDbEntity
8
0
100
AcDbPolyline
90
8
70
1
43
0.0
10
135.875
20
110.66249999999999
10
135.875
20
122.66249999999999
42
-0.41421356237309503
10
136.875
20
123.66250000000001
10
148.875
20
123.66249999999999
42
-0.41421356237309503
10
149.875
20
122.66249999999999
10
149.875
20
110.66249999999999
42
-0.41421356237309503
10
148.875
20
109.66250000000001
10
136.875
20
109.66250000000001
42
-0.41421356237309503
0
LWPOLYLINE
5
177
100
AcDbEntity
8
0
100
AcDbPolyline
90
8
70
1
43
0.0
10
65.4375
20
52.512500000000003
42
-0.41421356237309503
10
64.4375
20
53.512500000000003
10
64.4375
20
65.512499999999989
42
-0.41421356237309503
10
65.4375
20
66.512499999999989
10
77.4375
20
66.512499999999989
42
-0.41421356237309503
10
78.4375
20
65.512499999999989
10
78.437500000000014
20
53.512500000000003
42
-0.41421356237309503
10
77.4375
20
52.512499999999989
0
LWPOLYLINE
5
178
100
AcDbEntity
8
0
100
AcDbPolyline
90
8
70
1
43
0.0
10
173.97500000000002
20
110.66249999999999
10
173.97499999999997
20
122.66249999999999
42
-0.41421356237309503
10
174.97499999999999
20
123.66250000000001
10
186.97500000000002
20
123.66249999999997
42
-0.41421356237309503
10
187.97499999999999
20
122.66249999999999
10
187.97500000000002
20
110.66249999999999
42
-0.41421356237309503
10
186.97500000000002
20
109.66249999999999
10
174.97499999999999
20
109.66250000000002
42
-0.41421356237309503
0
LWPOLYLINE
5
179
100
AcDbEntity
8
0
100
AcDbPolyline
90
8
70
1
43
0.0
10
177.45000000000002
20
147.47499999999999
10
165.44999999999999
20
147.47499999999999
42
0.41421356237309503
10
164.44999999999996
20
146.47500000000002
10
164.44999999999996
20
134.47499999999999
42
0.41421356237309503
10
165.44999999999999
20
133.47499999999999
10
177.45000000000002
20
133.47499999999999
42
0.41421356237309503
10
178.45000000000002
20
134.47499999999999
10
178.44999999999999
20
146.47500000000002
42
0.41421356237309503
0
LWPOLYLINE
5
180
100
AcDbEntity
8
0
100
AcDbPolyline
90
8
70
1
43
0.0
10
159.40000000000001
20
134.47499999999999
10
159.40000000000001
20
146.47500000000002
42
0.41421356237309503
10
158.40000000000001
20
147.47499999999999
10
146.40000000000001
20
147.47499999999999
42
0.41421356237309503
10
145.40000000000001
20
146.47500000000002
10
145.40000000000001
20
134.47499999999999
42
0.41421356237309503
10
146.40000000000001
20
133.47499999999999
10
158.40000000000001
20
133.47499999999999
42
0.41421356237309503
0
LWPOLYLINE
5
181
100
AcDbEntity
8
0
100
AcDbPolyline
90
8
70
1
43
0.0
10
158.40000000000001
20
90.612499999999997
10
146.40000000000001
20
90.612499999999997
42
-0.41421356237309503
10
145.40000000000001
20
91.612499999999983
10
145.39999999999998
20
103.61249999999998
42
-0.41421356237309503
10
146.40000000000001
20
104.6125
10
158.40000000000001
20
104.61249999999998
42
-0.41421356237309503
10
159.40000000000001
20
103.61249999999998
10
159.40000000000001
20
91.612499999999983
42
-0.41421356237309503
0
LWPOLYLINE
5
182
100
AcDbEntity
8
0
100
AcDbPolyline
90
8
70
1
43
0.0
10
184.46875
20
32.462499999999999
10
184.46875000000003
20
45.462500000000006
42
0.41421356237309503
10
183.46875
20
46.46250000000002
10
178.46874999999997
20
46.462500000000006
42
0.41421356237309503
10
177.46875
20
45.462500000000006
10
177.46875
20
32.462499999999999
42
0.41421356237309503
10
178.46875
20
31.462499999999984
10
183.46875
20
31.462500000000002
42
0.41421356237309503
0
LWPOLYLINE
5
183
100
AcDbEntity
8
0
100
AcDbPolyline
90
8
70
1
43
0.0
10
120.30000000000001
20
147.47499999999999
42
-0.41421356237309503
10
121.30000000000001
20
146.47500000000002
10
121.30000000000001
20
134.47499999999999
42
-0.41421356237309503
10
120.30000000000001
20
133.47499999999999
10
108.3
20
133.47499999999999
42
-0.41421356237309503
10
107.30000000000001
20
134.47499999999999
10
107.30000000000001
20
146.47500000000002
42
-0.41421356237309503
10
108.3
20
147.47499999999999
0
LWPOLYLINE
5
184
100
AcDbEntity
8
0
100
AcDbPolyline
90
8
70
1
43
0.0
10
117.825
20
47.462499999999999
10
136.96875
20
47.462499999999999
42
-0.41421356237309503
10
137.96875
20
46.462500000000006
10
137.96875
20
34.462499999999991
42
-0.41421356237309503
10
136.96875
20
33.462499999999991
10
117.825
20
33.462499999999991
42
-0.41421356237309503
10
116.82500000000002
20
34.462499999999991
10
116.82500000000002
20
46.462500000000006
42
-0.41421356237309503
0
LWPOLYLINE
5
185
100
AcDbEntity
8
0
100
AcDbPolyline
90
8
70
1
43
0.0
10
140.34999999999999
20
134.47499999999999
42
-0.41421356237309503
10
139.34999999999999
20
133.47499999999999
10
127.34999999999999
20
133.47499999999999
42
-0.41421356237309503
10
126.34999999999999
20
134.47499999999999
10
126.34999999999999
20
146.47500000000002
42
-0.41421356237309503
10
127.34999999999999
20
147.47499999999999
10
139.34999999999999
20
147.47499999999999
42
-0.41421356237309503
10
140.34999999999999
20
146.47500000000002
0
LWPOLYLINE
5
186
100
AcDbEntity
8
0
100
AcDbPolyline
90
8
70
1
43
0.0
10
135.58750000000001
20
53.512500000000003
10
135.58750000000001
20
65.512499999999989
42
0.41421356237309503
10
134.58750000000003
20
66.512499999999989
10
122.58750000000001
20
66.512499999999989
42
0.41421356237309503
10
121.58750000000001
20
65.512499999999989
10
121.58750000000001
20
53.512500000000003
42
0.41421356237309503
10
122.58750000000001
20
52.512500000000003
10
134.58750000000003
20
52.512500000000003
42
0.41421356237309503
0
LWPOLYLINE
5
187
100
AcDbEntity
8
0
100
AcDbPolyline
90
8
70
1
43
0.0
10
96.487499999999997
20
147.47499999999999
42
-0.41421356237309503
10
97.487499999999997
20
146.47500000000002
10
97.487500000000011
20
134.47499999999999
42
-0.41421356237309503
10
96.487500000000011
20
133.47499999999999
10
84.487500000000011
20
133.47499999999999
42
-0.41421356237309503
10
83.487500000000011
20
134.47499999999999
10
83.487500000000011
20
146.47500000000002
42
-0.41421356237309503
10
84.487500000000011
20
147.47499999999999
0
LWPOLYLINE
5
188
100
AcDbEntity
8
0
100
AcDbPolyline
90
8
70
1
43
0.0
10
16.524999999999999
20
134.47499999999999
10
16.524999999999999
20
146.47500000000002
42
0.41421356237309503
10
15.525000000000002
20
147.47499999999999
10
3.5250000000000004
20
147.47499999999999
42
0.41421356237309503
10
2.5250000000000004
20
146.47500000000002
10
2.5250000000000004
20
134.47499999999999
42
0.41421356237309503
10
3.5250000000000004
20
133.47499999999999
10
15.525000000000002
20
133.47499999999999
42
0.41421356237309503
0
LWPOLYLINE
5
189
100
AcDbEntity
8
0
100
AcDbPolyline
90
8
70
1
43
0.0
10
93.012500000000017
20
72.5625
10
93.012500000000031
20
84.5625
42
-0.41421356237309503
10
94.012500000000017
20
85.562499999999986
10
106.0125
20
85.562500000000028
42
-0.41421356237309503
10
107.01250000000002
20
84.5625
10
107.0125
20
72.5625
42
-0.41421356237309503
10
106.0125
20
71.5625
10
94.012500000000017
20
71.5625
42
-0.41421356237309503
0
LWPOLYLINE
5
190
100
AcDbEntity
8
0
100
AcDbPolyline
90
8
70
1
43
0.0
10
330.85000000000008
20
53.512500000000003
42
-0.41421356237309503
10
329.85000000000008
20
52.512499999999989
10
317.85000000000002
20
52.512499999999989
42
-0.41421356237309503
10
316.85000000000002
20
53.512500000000003
10
316.85000000000002
20
65.512499999999989
42
-0.41421356237309503
10
317.85000000000002
20
66.512499999999989
10
329.85000000000008
20
66.512499999999932
42
-0.41421356237309503
10
330.85000000000002
20
65.512499999999989
0
LWPOLYLINE
5
191
100
AcDbEntity
8
0
100
AcDbPolyline
90
8
70
1
43
0.0
10
336.89999999999998
20
71.562499999999986
42
-0.41421356237309503
10
335.89999999999998
20
72.5625
10
335.90000000000003
20
84.5625
42
-0.41421356237309503
10
336.89999999999998
20
85.562499999999986
10
348.89999999999998
20
85.562500000000028
42
-0.41421356237309503
10
349.90000000000003
20
84.5625
10
349.90000000000003
20
72.5625
42
-0.41421356237309503
10
348.89999999999998
20
71.5625
0
LWPOLYLINE
5
192
100
AcDbEntity
8
0
100
AcDbPolyline
90
8
70
1
43
0.0
10
367.95000000000005
20
73.649500000000003
10
367.95000000000005
20
78.649499999999989
42
0.41421356237309503
10
366.94999999999999
20
79.649500000000003
10
353.95000000000005
20
79.649500000000003
42
0.41421356237309503
10
352.95000000000005
20
78.649500000000003
10
352.95000000000005
20
73.649500000000003
42
0.41421356237309503
10
353.95000000000005
20
72.649500000000003
10
366.94999999999999
20
72.649500000000003
42
0.41421356237309503
0
LWPOLYLINE
5
193
100
AcDbEntity
8
0
100
AcDbPolyline
90
8
70
1
43
0.0
10
330.85000000000008
20
72.5625
10
330.85000000000002
20
84.5625
42
0.41421356237309503
10
329.85000000000008
20
85.562499999999986
10
317.85000000000002
20
85.562499999999986
42
0.41421356237309503
10
316.85000000000002
20
84.5625
10
316.85000000000002
20
72.5625
42
0.41421356237309503
10
317.85000000000002
20
71.5625
10
329.85000000000008
20
71.5625
42
0.41421356237309503
0
LWPOLYLINE
5
194
100
AcDbEntity
8
0
100
AcDbPolyline
90
8
70
1
43
0.0
10
311.80000000000001
20
72.5625
42
-0.41421356237309503
10
310.80000000000001
20
71.5625
10
298.80000000000001
20
71.562499999999986
42
-0.41421356237309503
10
297.80000000000001
20
72.5625
10
297.80000000000007
20
84.5625
42
-0.41421356237309503
10
298.80000000000001
20
85.562499999999986
10
310.80000000000001
20
85.562500000000028
42
-0.41421356237309503
10
311.80000000000001
20
84.5625
0
LWPOLYLINE
5
195
100
AcDbEntity
8
0
100
AcDbPolyline
90
8
70
1
43
0.0
10
255.9375
20
28.70000000000001
42
-0.41421356237309503
10
254.93750000000003
20
29.699999999999989
10
254.9375
20
41.700000000000003
42
-0.41421356237309503
10
255.9375
20
42.699999999999996
10
267.9375
20
42.699999999999974
42
-0.41421356237309503
10
268.9375
20
41.700000000000003
10
268.93750000000006
20
29.699999999999989
42
-0.41421356237309503
10
267.9375
20
28.699999999999992
0
LWPOLYLINE
5
196
100
AcDbEntity
8
0
100
AcDbPolyline
90
8
70
1
43
0.0
10
287.98750000000007
20
48.75
10
287.98750000000001
20
60.749999999999993
42
0.41421356237309503
10
286.98750000000007
20
61.749999999999972
10
274.98750000000001
20
61.749999999999986
42
0.41421356237309503
10
273.98750000000001
20
60.749999999999993
10
273.98750000000001
20
48.75
42
0.41421356237309503
10
274.98750000000001
20
47.749999999999986
10
286.98750000000007
20
47.75
42
0.41421356237309503
0
LWPOLYLINE
5
197
100
AcDbEntity
8
0
100
AcDbPolyline
90
8
70
1
43
0.0
10
257.03125000000006
20
53.512500000000003
42
-0.41421356237309503
10
256.03125
20
52.512499999999989
10
244.03125000000003
20
52.512499999999989
42
-0.41421356237309503
10
243.03125
20
53.512500000000003
10
243.03125
20
65.512499999999989
42
-0.41421356237309503
10
244.03125000000003
20
66.512499999999989
10
256.03125
20
66.512500000000017
42
-0.41421356237309503
10
257.03125000000006
20
65.512499999999989
0
LWPOLYLINE
5
198
100
AcDbEntity
8
0
100
AcDbPolyline
90
8
70
1
43
0.0
10
255.88075000000003
20
73.5625
10
255.88075000000003
20
86.5625
42
0.41421356237309503
10
254.88075000000003
20
87.562499999999972
10
249.88075000000003
20
87.562499999999972
42
0.41421356237309503
10
248.88075000000001
20
86.5625
10
248.88075000000001
20
73.5625
42
0.41421356237309503
10
249.88075000000003
20
72.562499999999986
10
254.88075000000003
20
72.562499999999986
42
0.41421356237309503
0
LWPOLYLINE
5
199
100
AcDbEntity
8
0
100
AcDbPolyline
90
8
70
1
43
0.0
10
277.46249999999998
20
104.61249999999995
10
265.46249999999998
20
104.6125
42
0.41421356237309503
10
264.46249999999998
20
103.61249999999998
10
264.46249999999998
20
91.612500000000011
42
0.41421356237309503
10
265.46249999999998
20
90.612499999999997
10
277.46249999999998
20
90.612499999999997
42
0.41421356237309503
10
278.46249999999998
20
91.612499999999983
10
278.46249999999998
20
103.61249999999998
42
0.41421356237309503
0
LWPOLYLINE
5
200
100
AcDbEntity
8
0
100
AcDbPolyline
90
8
70
1
43
0.0
10
258.26200000000006
20
108.66250000000001
10
258.262
20
121.66249999999999
42
0.41421356237309503
10
257.262
20
122.66249999999999
10
252.26200000000003
20
122.66249999999999
42
0.41421356237309503
10
251.262
20
121.66249999999999
10
251.262
20
108.66250000000001
42
0.41421356237309503
10
252.26200000000003
20
107.66249999999999
10
257.262
20
107.66249999999999
42
0.41421356237309503
0
LWPOLYLINE
5
201
100
AcDbEntity
8
0
100
AcDbPolyline
90
28
70
1
43
0.0
10
-5.4749999999999988
20
155.47499999999999
10
-5.4749999999999996
20
20.699999999999999
42
0.41421356237309515
10
-1.4750000000000085
20
16.699999999999999
10
372.95000000000005
20
16.699999999999999
42
0.41421356237309798
10
376.94999999999999
20
20.700000000000003
10
376.94999999999999
20
155.47499999999999
42
0.41421356237309764
10
372.95000000000005
20
159.47499999999999
10
299.01249999999999
20
159.47499999999997
42
0.41421356237309503
10
297.01250000000005
20
157.47499999999999
10
297.01250000000005
20
151
42
0.41421356237308982
10
298.01250000000005
20
150
10
299.26918920626974
20
150
10
301.01666666666625
20
149.36397021936463
10
301.01666666666625
20
148.99999998509884
10
298.01250000000005
20
148.99999998509884
42
0.41421356237308982
10
297.01250000000005
20
147.99999998509884
10
297.01250000000005
20
145.65448307589605
10
284.01249999999999
20
145.70685678118656
10
284.01249999999999
20
147.99999998509884
42
0.414213562373069
10
283.01249999999999
20
148.99999998509884
10
248.01666666666614
20
148.99999998509884
10
248.01666666666614
20
149.36397021936446
10
249.76414412706418
20
150
10
283.01249999999999
20
150
42
0.414213562373069
10
284.01249999999999
20
151
10
284.01249999999999
20
157.47499999999999
42
0.41421356237309764
10
282.01250000000005
20
159.47499999999997
10
-1.4749999999999996
20
159.47499999999999
42
0.41421356237309248
0
LWPOLYLINE
5
202
100
AcDbEntity
8
0
100
AcDbPolyline
90
8
70
1
43
0.0
10
311.80000000000001
20
53.512500000000003
10
311.80000000000001
20
65.512499999999989
42
0.41421356237309503
10
310.80000000000001
20
66.512500000000017
10
298.80000000000001
20
66.512499999999989
42
0.41421356237309503
10
297.80000000000001
20
65.512499999999989
10
297.80000000000001
20
53.512500000000003
42
0.41421356237309503
10
298.80000000000001
20
52.512499999999989
10
310.80000000000001
20
52.512499999999989
42
0.41421356237309503
0
LWPOLYLINE
5
203
100
AcDbEntity
8
0
100
AcDbPolyline
90
8
70
1
43
0.0
10
239.36250000000001
20
85.562500000000028
42
-0.41421356237309503
10
240.36250000000001
20
84.5625
10
240.36250000000001
20
72.5625
42
-0.41421356237309503
10
239.36250000000001
20
71.5625
10
227.36250000000001
20
71.562499999999986
42
-0.41421356237309503
10
226.36250000000001
20
72.5625
10
226.36250000000004
20
84.5625
42
-0.41421356237309503
10
227.36250000000001
20
85.562499999999986
0
LWPOLYLINE
5
204
100
AcDbEntity
8
0
100
AcDbPolyline
90
8
70
1
43
0.0
10
272.75675000000001
20
86.5625
42
-0.41421356237309503
10
273.75675000000001
20
87.562499999999972
10
278.75675000000001
20
87.562500000000014
42
-0.41421356237309503
10
279.75675000000001
20
86.5625
10
279.75675000000001
20
73.5625
42
-0.41421356237309503
10
278.75675000000001
20
72.562499999999986
10
273.75675000000001
20
72.562500000000014
42
-0.41421356237309503
10
272.75675000000001
20
73.5625
0
LWPOLYLINE
5
205
100
AcDbEntity
8
0
100
AcDbPolyline
90
8
70
1
43
0.0
10
306.03750000000002
20
42.699999999999996
10
294.03750000000002
20
42.699999999999996
42
0.41421356237309503
10
293.03750000000002
20
41.700000000000003
10
293.03750000000002
20
29.699999999999989
42
0.41421356237309503
10
294.03750000000002
20
28.699999999999992
10
306.03750000000002
20
28.699999999999992
42
0.41421356237309503
10
307.03750000000008
20
29.699999999999989
10
307.03750000000002
20
41.700000000000003
42
0.41421356237309503
0
LWPOLYLINE
5
206
100
AcDbEntity
8
0
100
AcDbPolyline
90
8
70
1
43
0.0
10
286.98750000000007
20
42.700000000000017
42
-0.41421356237309503
10
287.98750000000007
20
41.700000000000003
10
287.98750000000007
20
29.699999999999989
42
-0.41421356237309503
10
286.98750000000007
20
28.699999999999992
10
274.98750000000001
20
28.699999999999974
42
-0.41421356237309503
10
273.98750000000001
20
29.699999999999989
10
273.98750000000001
20
41.700000000000003
42
-0.41421356237309503
10
274.98750000000001
20
42.699999999999996
0
LWPOLYLINE
5
207
100
AcDbEntity
8
0
100
AcDbPolyline
90
8
70
1
43
0.0
10
239.36250000000001
20
47.462499999999999
10
227.36249999999998
20
47.462499999999999
42
0.41421356237309503
10
226.36250000000001
20
46.462500000000006
10
226.36250000000004
20
34.462499999999991
42
0.41421356237309503
10
227.36250000000001
20
33.462499999999991
10
239.36250000000001
20
33.462499999999991
42
0.41421356237309503
10
240.36250000000001
20
34.462499999999991
10
240.36250000000001
20
46.462499999999984
42
0.41421356237309503
0
LWPOLYLINE
5
208
100
AcDbEntity
8
0
100
AcDbPolyline
90
8
70
1
43
0.0
10
234.60000000000002
20
104.6125
10
222.60000000000002
20
104.6125
42
0.41421356237309503
10
221.59999999999999
20
103.61249999999998
10
221.59999999999999
20
91.612500000000011
42
0.41421356237309503
10
222.60000000000002
20
90.612499999999997
10
234.60000000000002
20
90.612499999999997
42
0.41421356237309503
10
235.60000000000002
20
91.612499999999983
10
235.60000000000002
20
103.61249999999998
42
0.41421356237309503
0
LINE
5
209
100
AcDbEntity
8
0
100
AcDbLine
10
371.47500000000002
20
148.5
30
0
11
371.47500000000002
21
27.674999999999983
31
0
0
LWPOLYLINE
5
210
100
AcDbEntity
8
0
100
AcDbPolyline
90
8
70
1
43
0.0
10
84.46875
20
32.462499999999999
42
-0.41421356237309503
10
83.46875
20
31.462500000000002
10
78.46875
20
31.462499999999991
42
-0.41421356237309503
10
77.46875
20
32.462499999999999
10
77.468750000000014
20
45.462500000000006
42
-0.41421356237309503
10
78.46875
20
46.462500000000006
10
83.46875
20
46.462500000000006
42
-0.41421356237309503
10
84.46875
20
45.462500000000006
0
LWPOLYLINE
5
211
100
AcDbEntity
8
0
100
AcDbPolyline
90
8
70
1
43
0.0
10
258.31875000000002
20
71.562499999999986
42
-0.41421356237309503
10
257.31875000000002
20
72.5625
10
257.31875000000008
20
84.5625
42
-0.41421356237309503
10
258.31875000000002
20
85.562499999999986
10
270.31875000000002
20
85.562500000000028
42
-0.41421356237309503
10
271.31875000000002
20
84.5625
10
271.31875000000002
20
72.5625
42
-0.41421356237309503
10
270.31875000000002
20
71.5625
0
LWPOLYLINE
5
212
100
AcDbEntity
8
0
100
AcDbPolyline
90
8
70
1
43
0.0
10
217.83750000000001
20
52.512500000000024
42
-0.41421356237309503
10
216.83750000000003
20
53.512500000000003
10
216.83750000000003
20
65.512499999999989
42
-0.41421356237309503
10
217.83750000000001
20
66.512499999999989
10
229.83750000000001
20
66.512500000000017
42
-0.41421356237309503
10
230.83750000000003
20
65.512499999999989
10
230.83750000000003
20
53.512500000000003
42
-0.41421356237309503
10
229.83750000000001
20
52.512499999999989
0
LWPOLYLINE
5
213
100
AcDbEntity
8
0
100
AcDbPolyline
90
8
70
1
43
0.0
10
240.65000000000001
20
91.612500000000011
10
240.65000000000001
20
103.61249999999998
42
-0.41421356237309503
10
241.65000000000003
20
104.6125
10
253.65000000000003
20
104.6125
42
-0.41421356237309503
10
254.65000000000003
20
103.61249999999998
10
254.65000000000003
20
91.612499999999983
42
-0.41421356237309503
10
253.65000000000003
20
90.612499999999997
10
241.65000000000003
20
90.612499999999997
42
-0.41421356237309503
0
LINE
5
214
100
AcDbEntity
8
0
100
AcDbLine
10
370.47499998509886
20
146.99999998509884
30
0
11
370.47499998509886
21
29.175000014901169
31
0
0
LINE
5
215
100
AcDbEntity
8
0
100
AcDbLine
10
1.0000000149011612
20
146.99999998509884
30
0
11
1.0000000149011612
21
29.175000014901151
31
0
0
LWPOLYLINE
5
216
100
AcDbEntity
8
0
100
AcDbPolyline
90
8
70
1
43
0.0
10
5.9999999999999432
20
130.56874999999999
10
5.9999999999999432
20
126.56874999999999
42
0.41421356237309698
10
6.9999999999999396
20
125.56874999999999
10
96.487500000000011
20
125.56874999999999
42
0.41421356237309503
10
97.487500000000011
20
126.56874999999999
10
97.487500000000011
20
130.56874999999999
42
0.41421356237309503
10
96.487500000000011
20
131.56874999999999
10
6.9999999999999432
20
131.56874999999999
42
0.41421356237309537
0
LWPOLYLINE
5
217
100
AcDbEntity
8
0
100
AcDbPolyline
90
8
70
1
43
0.0
10
365.47500000000002
20
130.56875000000002
10
365.47500000000002
20
126.56874999999999
42
-0.41421356237313145
10
364.47499999999997
20
125.56874999999999
10
334.85000000000002
20
125.56875000000004
42
-0.41421356237312101
10
333.84999999999997
20
126.56874999999999
10
333.84999999999991
20
130.56875000000002
42
-0.41421356237312101
10
334.85000000000002
20
131.56875000000002
10
364.47499999999997
20
131.56875000000002
42
-0.41421356237313145
0
LINE
5
218
100
AcDbEntity
8
0
100
AcDbLine
10
293.51250000000005
20
121.56874999999998
30
0
11
293.51249999999993
21
65.749749999999977
31
0
0
LINE
5
219
100
AcDbEntity
8
0
100
AcDbLine
10
287.51249999999993
20
67.749750000000006
30
0
11
287.51249999999993
21
121.56874999999997
31
0
0
LWPOLYLINE
5
220
100
AcDbEntity
8
0
100
AcDbPolyline
90
8
70
1
43
0.0
10
293.51249999999999
20
141.99974999999998
10
293.51249999999999
20
135.56875000000002
42
-0.41421356237307422
10
292.51250000000005
20
134.56875000000002
10
288.51250000000005
20
134.56875000000002
42
-0.41421356237307422
10
287.51250000000005
20
135.56875000000002
10
287.51250000000005
20
141.99974999999998
42
-0.4142135623730846
10
288.51250000000005
20
142.99975000000003
10
292.51250000000005
20
142.99975000000001
42
-0.41421356237307422
0
LINE
5
221
100
AcDbEntity
8
0
100
AcDbLine
10
288.51249999999993
20
122.56874999999999
30
0
11
292.51250000000005
21
122.56874999999997
31
0
0
LWPOLYLINE
5
222
100
AcDbEntity
8
0
100
AcDbPolyline
90
8
70
1
43
0.0
10
100.48750000000001
20
130.56874999999999
10
100.48750000000001
20
126.56874999999999
42
0.41421356237310542
10
101.48750000000004
20
125.56875000000002
10
258.41250000000002
20
125.56875000000002
42
0.41421356237310542
10
259.41250000000002
20
126.56874999999999
10
259.41250000000002
20
130.56875000000002
42
0.41421356237310542
10
258.41250000000002
20
131.56874999999999
10
101.48750000000001
20
131.56874999999999
42
0.41421356237309503
0
LWPOLYLINE
5
223
100
AcDbEntity
8
0
100
AcDbPolyline
90
8
70
1
43
0.0
10
262.41250000000002
20
126.56874999999999
10
262.41250000000002
20
130.56875000000002
42
-0.41421356237307422
10
263.41250000000008
20
131.56875000000002
10
329.85000000000002
20
131.56875000000005
42
-0.41421356237312101
10
330.85000000000008
20
130.56875000000002
10
330.85000000000002
20
126.56874999999998
42
-0.41421356237313145
10
329.85000000000008
20
125.56875000000005
10
263.41250000000008
20
125.56874999999998
42
-0.41421356237307422
0
LWPOLYLINE
5
224
100
AcDbEntity
8
0
100
AcDbPolyline
90
8
70
1
43
0.0
10
23.431250000000002
20
145.99976381654832
10
19.431249999999999
20
145.99976381654832
42
0.41421356237309764
10
18.431249999999991
20
144.99976381654832
10
18.431249999999991
20
135.56876381654831
42
0.41421356237309764
10
19.431249999999999
20
134.56876381654831
10
23.431250000000002
20
134.56876381654834
42
0.41421356237309892
10
24.431250000000002
20
135.56876381654831
10
24.431250000000013
20
144.99976381654832
42
0.41421356237309892
0
LWPOLYLINE
5
225
100
AcDbEntity
8
0
100
AcDbPolyline
90
8
70
1
43
0.0
10
99.393750000000011
20
144.99976381654832
10
99.393750000000011
20
135.56876381654831
42
0.41421356237309503
10
100.39375000000001
20
134.56876381654831
10
104.39375000000001
20
134.56876381654831
42
0.41421356237310542
10
105.39375000000001
20
135.56876381654831
10
105.39375000000001
20
144.99976381654832
42
0.41421356237310542
10
104.39375000000001
20
145.99976381654832
10
100.39375000000001
20
145.99976381654832
42
0.41421356237309503
0
LWPOLYLINE
5
226
100
AcDbEntity
8
0
100
AcDbPolyline
90
8
70
1
43
0.0
10
185.35625000000005
20
145.99976381654832
10
181.35625000000005
20
145.99976381654832
42
0.41421356237310542
10
180.35625000000005
20
144.99976381654832
10
180.35625000000005
20
135.56876381654834
42
0.41421356237308982
10
181.35625000000005
20
134.56876381654831
10
185.35625000000005
20
134.56876381654834
42
0.41421356237310542
10
186.35625000000005
20
135.56876381654831
10
186.35625000000005
20
144.99976381654832
42
0.41421356237310542
0
LWPOLYLINE
5
227
100
AcDbEntity
8
0
100
AcDbPolyline
90
8
70
1
43
0.0
10
262.31875000000008
20
134.56876381654831
10
266.31875000000002
20
134.56876381654831
42
0.41421356237307422
10
267.31875000000002
20
135.56876381654831
10
267.31875000000002
20
144.99976381654832
42
0.41421356237307422
10
266.31875000000002
20
145.99976381654832
10
262.31875000000008
20
145.99976381654835
42
0.41421356237307422
10
261.31875000000002
20
144.99976381654832
10
261.31875000000008
20
135.56876381654831
42
0.41421356237307422
0
ARC
5
228
100
AcDbEntity
8
0
100
AcDbCircle
10
292.51249999999993
20
65.74975000000002
30
0
40
1.0000000000000142
210
-0
220
0
230
1
100
AcDbArc
50
270
51
360
0
ARC
5
229
100
AcDbEntity
8
0
100
AcDbCircle
10
288.51249999999993
20
121.56874999999997
30
0
40
1.000000000000032
210
0
220
-0
230
1
100
AcDbArc
50
90
51
180
0
ARC
5
230
100
AcDbEntity
8
0
100
AcDbCircle
10
292.51249999999999
20
121.56874999999992
30
0
40
1.0000000000000497
210
0
220
-0
230
1
100
AcDbArc
50
0
51
89.999999999996746
0
CIRCLE
5
231
100
AcDbEntity
8
0
100
AcDbCircle
10
244.45799999999997
20
21.199999999999974
30
0
40
3.0000000000000071
210
0
220
0
230
1
0
CIRCLE
5
232
100
AcDbEntity
8
0
100
AcDbCircle
10
371.94999999999948
20
21.199999999999974
30
0
40
2.9999999999999716
210
0
220
0
230
1
0
CIRCLE
5
233
100
AcDbEntity
8
0
100
AcDbCircle
10
127.01666666666669
20
21.199999999999974
30
0
40
3.0000000000000071
210
0
220
0
230
1
0
CIRCLE
5
234
100
AcDbEntity
8
0
100
AcDbCircle
10
-0.47499999999999432
20
21.199999999999974
30
0
40
3.0000000000000004
210
0
220
0
230
1
0
CIRCLE
5
235
100
AcDbEntity
8
0
100
AcDbCircle
10
-0.47499999999999987
20
154.97499999999999
30
0
40
3.0000000000000022
210
0
220
0
230
1
0
CIRCLE
5
236
100
AcDbEntity
8
0
100
AcDbCircle
10
127.01666666666669
20
154.97499999999999
30
0
40
3.0000000000000071
210
0
220
0
230
1
0
CIRCLE
5
237
100
AcDbEntity
8
0
100
AcDbCircle
10
244.45799999999997
20
154.97499999999999
30
0
40
3.0000000000000071
210
0
220
0
230
1
0
CIRCLE
5
238
100
AcDbEntity
8
0
100
AcDbCircle
10
371.94999999999999
20
154.97499999999999
30
0
40
3.0000000000000049
210
0
220
0
230
1
0
LWPOLYLINE
5
239
100
AcDbEntity
8
0
100
AcDbPolyline
90
6
70
1
43
0.0
10
74.764144127064171
20
150
10
73.016666666666111
20
149.36397021936446
10
73.016666666666126
20
148.99999998509884
10
236.01666666666617
20
148.99999998509884
10
236.01666666666617
20
149.36397021936446
10
234.26918920626917
20
150
0
LINE
5
240
100
AcDbEntity
8
0
100
AcDbLine
10
61.016666666666168
20
149.36397021936446
30
0
11
59.269189206269189
21
150
31
0
0
LINE
5
241
100
AcDbEntity
8
0
100
AcDbLine
10
3.0000000149011607
20
148.99999998509884
30
0
11
61.016666666666168
21
148.99999998509884
31
0
0
LINE
5
242
100
AcDbEntity
8
0
100
AcDbLine
10
1.4999999999999996
20
150
30
0
11
59.269189206269189
21
150
31
0
0
LINE
5
243
100
AcDbEntity
8
0
100
AcDbLine
10
61.016666666666168
20
148.99999998509884
30
0
11
61.016666666666168
21
149.36397021936446
31
0
0
LINE
5
244
100
AcDbEntity
8
0
100
AcDbLine
10
313.01666666666625
20
148.99999998509884
30
0
11
313.01666666666625
21
149.36397021936463
31
0
0
LINE
5
245
100
AcDbEntity
8
0
100
AcDbLine
10
313.01666666666625
20
149.36397021936463
30
0
11
314.76414412706339
21
150
31
0
0
LINE
5
246
100
AcDbEntity
8
0
100
AcDbLine
10
314.76414412706339
20
150
30
0
11
369.97500000000002
21
150
31
0
0
LINE
5
247
100
AcDbEntity
8
0
100
AcDbLine
10
313.01666666666625
20
148.99999998509884
30
0
11
368.47499998509886
21
148.99999998509884
31
0
0
LINE
5
248
100
AcDbEntity
8
0
100
AcDbLine
10
39.764144127064185
20
26.810999999999972
30
0
11
39.764144127064185
21
27.175000014901158
31
0
0
LINE
5
249
100
AcDbEntity
8
0
100
AcDbLine
10
39.764144127064185
20
26.810999999999972
30
0
11
38.01452631693779
21
26.174970219364422
31
0
0
LINE
5
250
100
AcDbEntity
8
0
100
AcDbLine
10
51.764144127064128
20
26.810999999999989
30
0
11
51.764144127064128
21
27.175000014901158
31
0
0
LINE
5
251
100
AcDbEntity
8
0
100
AcDbLine
10
51.764144127064128
20
26.810999999999989
30
0
11
53.552301659657019
21
26.17497021936444
31
0
0
LINE
5
252
100
AcDbEntity
8
0
100
AcDbLine
10
1.4999999999999996
20
26.175000000000001
30
0
11
38.01460823877872
21
26.174999999999997
31
0
0
LINE
5
253
100
AcDbEntity
8
0
100
AcDbLine
10
3.0000000149011607
20
27.175000014901155
30
0
11
39.764144127064185
21
27.175000014901158
31
0
0
LINE
5
254
100
AcDbEntity
8
0
100
AcDbLine
10
346.76414412706413
20
26.810999999999989
30
0
11
348.55230165965702
21
26.17497021936444
31
0
0
LINE
5
255
100
AcDbEntity
8
0
100
AcDbLine
10
346.76414412706413
20
26.810999999999989
30
0
11
346.76414412706413
21
27.175000014901158
31
0
0
LINE
5
256
100
AcDbEntity
8
0
100
AcDbLine
10
334.76414412706418
20
26.810999999999972
30
0
11
333.0145263169378
21
26.174970219364422
31
0
0
LINE
5
257
100
AcDbEntity
8
0
100
AcDbLine
10
334.76414412706418
20
26.810999999999972
30
0
11
334.76414412706418
21
27.175000014901158
31
0
0
LINE
5
258
100
AcDbEntity
8
0
100
AcDbLine
10
346.76414412706413
20
27.175000014901158
30
0
11
368.4749999850988
21
27.175000014901165
31
0
0
LINE
5
259
100
AcDbEntity
8
0
100
AcDbLine
10
348.55221793328218
20
26.174999999999997
30
0
11
369.97500000000002
21
26.17499999999999
31
0
0
LINE
5
260
100
AcDbEntity
8
0
100
AcDbLine
10
241.76414412706413
20
26.810999999999989
30
0
11
243.55230165965702
21
26.17497021936444
31
0
0
LINE
5
261
100
AcDbEntity
8
0
100
AcDbLine
10
241.76414412706413
20
26.810999999999989
30
0
11
241.76414412706413
21
27.175000014901158
31
0
0
LINE
5
262
100
AcDbEntity
8
0
100
AcDbLine
10
229.76414412706418
20
26.810999999999972
30
0
11
228.01452631693778
21
26.174970219364422
31
0
0
LINE
5
263
100
AcDbEntity
8
0
100
AcDbLine
10
229.76414412706418
20
26.810999999999972
30
0
11
229.76414412706418
21
27.175000014901158
31
0
0
LINE
5
264
100
AcDbEntity
8
0
100
AcDbLine
10
53.552217933282222
20
26.174999999999997
30
0
11
228.01460823877852
21
26.174999999999997
31
0
0
LINE
5
265
100
AcDbEntity
8
0
100
AcDbLine
10
243.55221793328218
20
26.174999999999997
30
0
11
333.01460823877852
21
26.174999999999997
31
0
0
LINE
5
266
100
AcDbEntity
8
0
100
AcDbLine
10
51.764144127064128
20
27.175000014901158
30
0
11
229.76414412706418
21
27.175000014901158
31
0
0
LINE
5
267
100
AcDbEntity
8
0
100
AcDbLine
10
241.76414412706413
20
27.175000014901158
30
0
11
334.76414412706418
21
27.175000014901158
31
0
0
LWPOLYLINE
5
268
100
AcDbEntity
8
0
100
AcDbPolyline
90
8
70
1
43
0.0
10
112.825
20
43.462499999999991
10
88.468999999999994
20
43.462499999999991
42
0.41421356237309503
10
87.468999999999994
20
42.462499999999999
10
87.468999999999994
20
38.462499999999991
42
0.41421356237309503
10
88.468999999999994
20
37.462499999999991
10
112.825
20
37.462499999999999
42
0.41421356237309503
10
113.825
20
38.462499999999991
10
113.825
20
42.462499999999999
42
0.41421356237309503
0
LWPOLYLINE
5
269
100
AcDbEntity
8
0
100
AcDbPolyline
90
8
70
1
43
0.0
10
173.47475
20
43.462499999999906
10
141.96875
20
43.462499999999991
42
0.41421356237310025
10
140.96875
20
42.462499999999991
10
140.96875
20
38.462499999999906
42
0.41421356237309503
10
141.96875
20
37.462499999999906
10
173.47475000000003
20
37.462499999999906
42
0.41421356237305862
10
174.47475
20
38.462499999999906
10
174.47475
20
42.462499999999906
42
0.414213562373069
0
LINE
5
270
100
AcDbEntity
8
0
100
AcDbLine
10
49.862499999999997
20
46.462500000000006
30
0
11
49.862499999999997
21
46.462500000000006
31
0
0
LINE
5
271
100
AcDbEntity
8
0
100
AcDbLine
10
48.862500000000004
20
47.462499999999999
30
0
11
48.862500000000004
21
47.462499999999999
31
0
0
ARC
5
272
100
AcDbEntity
8
0
100
AcDbCircle
10
269.57874999999996
20
46.699874469927458
30
0
40
1.0000000000000497
210
0
220
0
230
1
100
AcDbArc
50
270.00000000000324
51
360
0
LWPOLYLINE
5
273
100
AcDbEntity
8
0
100
AcDbPolyline
90
16
70
1
43
0.0
10
312.39375000000001
20
48.699874469927394
42
-0.41421356237306639
10
313.39375000000001
20
47.699874469927408
10
313.39375000000001
20
29.699874469927401
42
-0.414213562373069
10
312.39375000000001
20
28.699874469927408
10
311.39375000000001
20
28.699874469927408
42
-0.41421356237308982
10
310.39375000000001
20
29.699874469927401
10
310.39375000000001
20
44.699874469927401
42
0.41421356237308721
10
309.39374999999995
20
45.699874469927394
10
292.39375000000001
20
45.699874469927408
42
-0.41421356237308982
10
291.39375000000001
20
46.699874469927408
10
291.39375000000001
20
53.749874469927413
42
-0.41421356237309503
10
292.39375000000001
20
54.749874469927427
10
293.39375000000001
20
54.749874469927427
42
-0.4142135623730846
10
294.39375000000001
20
53.749874469927377
10
294.39375000000001
20
49.699874469927401
42
0.41421356237305601
10
295.39375000000001
20
48.69987446992738
0
ARC
5
274
100
AcDbEntity
8
0
100
AcDbCircle
10
249.59375
20
29.699874469927423
30
0
40
1.0000000000000142
210
0
220
0
230
1
100
AcDbArc
50
180
51
270
0
LINE
5
275
100
AcDbEntity
8
0
100
AcDbLine
10
249.59375
20
28.699874469927408
30
0
11
250.59375
21
28.699874469927408
31
0
0
ARC
5
276
100
AcDbEntity
8
0
100
AcDbCircle
10
250.59374999999994
20
29.699874469927458
30
0
40
1.0000000000000497
210
0
220
0
230
1
100
AcDbArc
50
270.00000000000324
51
360
0
LINE
5
277
100
AcDbEntity
8
0
100
AcDbLine
10
251.59375
20
29.699874469927401
30
0
11
251.59375
21
44.699874469926812
31
0
0
LINE
5
278
100
AcDbEntity
8
0
100
AcDbLine
10
269.57875000000001
20
45.699874469927408
30
0
11
252.59375
21
45.699874469926804
31
0
0
LINE
5
279
100
AcDbEntity
8
0
100
AcDbLine
10
248.59375
20
29.699874469927401
30
0
11
248.59374999999969
21
47.699874469926755
31
0
0
LINE
5
280
100
AcDbEntity
8
0
100
AcDbLine
10
266.57875000000001
20
48.699874469926741
30
0
11
249.59374999999969
21
48.699874469926769
31
0
0
ARC
5
281
100
AcDbEntity
8
0
100
AcDbCircle
10
249.59374999999972
20
47.699874469926719
30
0
40
1.0000000000000497
210
0
220
0
230
1
100
AcDbArc
50
90.000000000001634
51
180
0
ARC
5
282
100
AcDbEntity
8
0
100
AcDbCircle
10
252.59375
20
44.699874469926819
30
0
40
0.99999999999998757
210
0
220
-0
230
1
100
AcDbArc
50
90
51
180
0
ARC
5
283
100
AcDbEntity
8
0
100
AcDbCircle
10
266.57874999999996
20
49.699874469926826
30
0
40
1.0000000000000853
210
-0
220
0
230
1
100
AcDbArc
50
270.00000000000324
51
360
0
ARC
5
284
100
AcDbEntity
8
0
100
AcDbCircle
10
3.0000000149011488
20
146.99999998509884
30
0
40
1.9999999999999929
210
0
220
-0
230
1
100
AcDbArc
50
89.999999999999659
51
180
0
ARC
5
285
100
AcDbEntity
8
0
100
AcDbCircle
10
3.0000000149011621
20
29.175000014901155
30
0
40
2.0000000000000009
210
0
220
0
230
1
100
AcDbArc
50
180
51
269.99999999999994
0
ARC
5
286
100
AcDbEntity
8
0
100
AcDbCircle
10
368.47499998509875
20
29.175000014901265
30
0
40
2.0000000000000995
210
-0
220
0
230
1
100
AcDbArc
50
270.00000000000159
51
360
0
ARC
5
287
100
AcDbEntity
8
0
100
AcDbCircle
10
368.47499998509875
20
146.99999998509873
30
0
40
2.0000000000000995
210
0
220
-0
230
1
100
AcDbArc
50
0
51
89.999999999996746
0
ARC
5
288
100
AcDbEntity
8
0
100
AcDbCircle
10
369.97500000000002
20
148.5
30
0
40
1.4999999999999858
210
0
220
0
230
1
100
AcDbArc
50
0
51
90
0
ARC
5
289
100
AcDbEntity
8
0
100
AcDbCircle
10
369.97500000000002
20
27.674999999999976
30
0
40
1.4999999999999858
210
-0
220
0
230
1
100
AcDbArc
50
-90
51
0
0
ARC
5
290
100
AcDbEntity
8
0
100
AcDbCircle
10
1.5000000000000009
20
27.675000000000001
30
0
40
1.5000000000000009
210
0
220
0
230
1
100
AcDbArc
50
180
51
269.99999999999994
0
ARC
5
291
100
AcDbEntity
8
0
100
AcDbCircle
10
1.5000000000000069
20
148.5
30
0
40
1.5000000000000036
210
0
220
0
230
1
100
AcDbArc
50
90.00000000000027
51
180
0
LINE
5
292
100
AcDbEntity
8
0
100
AcDbLine
10
287.51249999999993
20
67.749750000000006
30
0
11
268.57875000000001
21
67.749750000000006
31
0
0
LINE
5
293
100
AcDbEntity
8
0
100
AcDbLine
10
270.57875000000001
20
46.699874469927408
30
0
11
270.57875000000092
21
63.749750000000056
31
0
0
LINE
5
294
100
AcDbEntity
8
0
100
AcDbLine
10
267.57875000000001
20
49.699874469926762
30
0
11
267.57875000000001
21
66.749750000000006
31
0
0
LINE
5
295
100
AcDbEntity
8
0
100
AcDbLine
10
292.51249999999993
20
64.749750000000006
30
0
11
271.57875000000098
21
64.749750000000006
31
0
0
ARC
5
296
100
AcDbEntity
8
0
100
AcDbCircle
10
268.57875000000007
20
66.749749999999949
30
0
40
1.0000000000000586
210
0
220
0
230
1
100
AcDbArc
50
90.000000000003254
51
180
0
ARC
5
297
100
AcDbEntity
8
0
100
AcDbCircle
10
271.57875000000098
20
63.749749999999956
30
0
40
1.0000000000000497
210
0
220
0
230
1
100
AcDbArc
50
90
51
180
0
LINE
5
298
100
AcDbEntity
8
0
100
AcDbLine
10
297.51250000000005
20
159.47499999999997
30
0
11
299.01249999999999
21
159.47499999999997
31
0
0
ENDSEC
0
SECTION
2
OBJECTS
0
DICTIONARY
5
C
100
AcDbDictionary
3
ACAD_GROUP
350
D
3
ACAD_MLINESTYLE
350
17
0
DICTIONARY
5
D
100
AcDbDictionary
0
DICTIONARY
5
1A
330
C
100
AcDbDictionary
0
DICTIONARY
5
17
100
AcDbDictionary
0
ENDSEC
0
EOF
