0
SECTION
2
HEADER
9
$INSUNITS
70
4
9
$ACADVER
1
AC1014
9
$HANDSEED
5
FFFF
0
ENDSEC
0
SECTION
2
TABLES
0
TABLE
2
VPORT
5
8
100
AcDbSymbolTable
0
ENDTAB
0
TABLE
2
LTYPE
5
5
100
AcDbSymbolTable
0
LTYPE
5
14
100
AcDbSymbolTableRecord
100
AcDbLinetypeTableRecord
2
BYBLOCK
70
0
0
LTYPE
5
15
100
AcDbSymbolTableRecord
100
AcDbLinetypeTableRecord
2
BYLAYER
70
0
0
ENDTAB
0
TABLE
2
LAYER
5
2
100
AcDbSymbolTable
70
2
0
LAYER
5
50
100
AcDbSymbolTableRecord
100
AcDbLayerTableRecord
2
0
70
0
6
CONTINUOUS
0
ENDTAB
0
TABLE
2
STYLE
5
3
100
AcDbSymbolTable
70
1
0
STYLE
5
11
100
AcDbSymbolTableRecord
100
AcDbTextStyleTableRecord
2
STANDARD
70
0
0
ENDTAB
0
TABLE
2
VIEW
5
6
100
AcDbSymbolTable
70
0
0
ENDTAB
0
TABLE
2
UCS
5
7
100
AcDbSymbolTable
70
0
0
ENDTAB
0
TABLE
2
APPID
5
9
100
AcDbSymbolTable
70
2
0
APPID
5
12
100
AcDbSymbolTableRecord
100
AcDbRegAppTableRecord
2
ACAD
70
0
0
ENDTAB
0
TABLE
2
DIMSTYLE
5
A
100
AcDbSymbolTable
70
1
0
ENDTAB
0
TABLE
2
BLOCK_RECORD
5
1
100
AcDbSymbolTable
70
1
0
BLOCK_RECORD
5
1F
100
AcDbSymbolTableRecord
100
AcDbBlockTableRecord
2
*MODEL_SPACE
0
BLOCK_RECORD
5
1B
100
AcDbSymbolTableRecord
100
AcDbBlockTableRecord
2
*PAPER_SPACE
0
ENDTAB
0
ENDSEC
0
SECTION
2
BLOCKS
0
BLOCK
5
20
100
AcDbEntity
100
AcDbBlockBegin
2
*MODEL_SPACE
0
ENDBLK
5
21
100
AcDbEntity
100
AcDbBlockEnd
0
BLOCK
5
1C
100
AcDbEntity
100
AcDbBlockBegin
2
*PAPER_SPACE
0
ENDBLK
5
1D
100
AcDbEntity
100
AcDbBlockEnd
0
ENDSEC
0
SECTION
2
ENTITIES
0
LWPOLYLINE
5
100
100
AcDbEntity
8
0
100
AcDbPolyline
90
8
70
1
43
0.0
10
100.01249999999999
20
-167.80000000000001
10
100.0125
20
-150.77500000000001
42
0.41421356237310336
10
98.762500000000003
20
-149.52500000000001
10
25.0625
20
-149.52500000000001
42
0.41421356237310125
10
23.8125
20
-150.77500000000001
10
23.812500000000007
20
-167.80000000000001
42
0.41421356237309709
10
25.062500000000014
20
-169.05000000000001
10
98.762499999999989
20
-169.05000000000001
42
0.41421356237310752
0
LWPOLYLINE
5
101
100
AcDbEntity
8
0
100
AcDbPolyline
90
8
70
1
43
0.0
10
0.77499999999999902
20
-169.05000000000001
10
17.800000000000011
20
-169.05000000000001
42
0.41421356237309764
10
19.050000000000022
20
-167.80000000000001
10
19.050000000000004
20
-150.77500000000001
42
0.41421356237310281
10
17.800000000000004
20
-149.52500000000001
10
0.77499999999999958
20
-149.52500000000001
42
0.41421356237310192
10
-0.47499999999999432
20
-150.77500000000001
10
-0.47500000000001236
20
-167.80000000000001
42
0.4142135623730977
0
LWPOLYLINE
5
102
100
AcDbEntity
8
0
100
AcDbPolyline
90
8
70
1
43
0.0
10
376.94999999999999
20
-144.52499999999998
10
376.94999999999999
20
-279.30000000000001
42
-0.41421356237309764
10
372.95000000000005
20
-283.30000000000001
10
-1.4749999999999999
20
-283.29999999999995
42
-0.41421356237309681
10
-5.4750000000000103
20
-279.30000000000001
10
-5.4749999999999996
20
-144.52500000000003
42
-0.41421356237309215
10
-1.4750000000000085
20
-140.52500000000003
10
372.95000000000005
20
-140.52499999999998
42
-0.41421356237309764
0
LWPOLYLINE
5
103
100
AcDbEntity
8
0
100
AcDbPolyline
90
16
70
1
43
0.0
10
247.64950000000002
20
-251.77486880261944
10
247.64950000000002
20
-273.05000000000001
42
-0.41421356237310336
10
246.39950000000005
20
-274.30000000000001
10
0.77499999999999958
20
-274.30000000000001
42
-0.41421356237309781
10
-0.47500000000000014
20
-273.05000000000001
10
-0.47500000000001252
20
-175.0625
42
-0.41421356237310764
10
0.77500000000004121
20
-173.8125
10
284.50000000000006
20
-173.8125
42
-0.41421356237311169
10
285.75000000000006
20
-175.0625
10
285.75000000000006
20
-229.75000120699411
42
-0.41421356237311169
10
284.50000000000006
20
-231.00000120699411
10
267.94950000000006
20
-231.00000120699406
42
0.41421356237311169
10
266.69950000000006
20
-232.25000120699406
10
266.6995
20
-249.27486880261944
42
-0.41421356237311169
10
265.4495
20
-250.52486880261944
10
248.89950000000002
20
-250.52486880261944
42
0.41421356237311169
0
LWPOLYLINE
5
104
100
AcDbEntity
8
0
100
AcDbPolyline
90
8
70
1
43
0.0
10
180.97499999999999
20
-167.80000000000001
10
180.97499999999999
20
-150.77500000000001
42
0.41421356237310752
10
179.72499999999999
20
-149.52500000000003
10
106.02549999999999
20
-149.52500000000001
42
0.41421356237310336
10
104.77549999999999
20
-150.77500000000001
10
104.77550000000001
20
-167.80000000000001
42
0.41421356237310752
10
106.02550000000001
20
-169.05000000000001
10
179.72499999999999
20
-169.05000000000001
42
0.41421356237311169
0
LWPOLYLINE
5
105
100
AcDbEntity
8
0
100
AcDbPolyline
90
8
70
1
43
0.0
10
285.75000000000006
20
-167.80000000000001
10
285.75000000000006
20
-150.77500000000001
42
0.41421356237310752
10
284.50000000000006
20
-149.52500000000003
10
267.95000000000005
20
-149.52500000000003
42
0.41421356237310752
10
266.70000000000005
20
-150.77500000000001
10
266.70000000000005
20
-167.80000000000001
42
0.41421356237311169
10
267.95000000000005
20
-169.05000000000001
10
284.50000000000006
20
-169.05000000000001
42
0.41421356237311169
0
LWPOLYLINE
5
106
100
AcDbEntity
8
0
100
AcDbPolyline
90
8
70
1
43
0.0
10
185.738
20
-167.80000000000001
10
185.73800000000003
20
-150.77500000000001
42
-0.41421356237310752
10
186.98800000000003
20
-149.52500000000003
10
260.68700000000007
20
-149.52500000000003
42
-0.41421356237310752
10
261.93700000000007
20
-150.77500000000001
10
261.93700000000007
20
-167.80000000000001
42
-0.41421356237311169
10
260.68700000000007
20
-169.05000000000001
10
186.988
20
-169.05000000000001
42
-0.41421356237311169
0
LWPOLYLINE
5
107
100
AcDbEntity
8
0
100
AcDbPolyline
90
8
70
1
43
0.0
10
295.27499999999998
20
-167.80000000000001
10
295.27499999999998
20
-150.77500000000001
42
-0.41421356237310752
10
296.52499999999998
20
-149.52500000000003
10
370.69999999999999
20
-149.52499999999998
42
-0.4142135623730992
10
371.94999999999999
20
-150.77500000000001
10
371.94999999999993
20
-167.80000000000001
42
-0.41421356237310336
10
370.69999999999999
20
-169.05000000000001
10
296.52499999999998
20
-169.05000000000001
42
-0.41421356237311169
0
LWPOLYLINE
5
108
100
AcDbEntity
8
0
100
AcDbPolyline
90
13
70
1
43
0.0
10
295.27499999999998
20
-235.72543789099839
10
295.27499999999998
20
-175.0625
42
-0.41421356237311169
10
296.52499999999998
20
-173.8125
10
370.69999999999993
20
-173.81250000000006
42
-0.41421356237310336
10
371.94999999999993
20
-175.0625
10
371.94999999999999
20
-273.05000000000001
42
-0.41421356237310336
10
370.69999999999999
20
-274.30000000000001
10
315.57550000000009
20
-274.30000000000001
42
-0.41421356237311169
10
314.32550000000009
20
-273.05000000000001
10
314.32550000000003
20
-251.262
42
0.41421356237311169
10
313.07550000000003
20
-250.012
10
296.52499999999998
20
-250.012
42
-0.41421356237311169
10
295.27499999999998
20
-248.762
0
LWPOLYLINE
5
109
100
AcDbEntity
8
0
100
AcDbPolyline
90
16
70
1
43
0.0
10
309.56250000000006
20
-256.02499999999998
10
309.56250000000006
20
-273.05000000000001
42
-0.41421356237311169
10
308.31250000000006
20
-274.30000000000001
10
253.66250000000002
20
-274.30000000000001
42
-0.41421356237311169
10
252.41250000000002
20
-273.05000000000001
10
252.41250000000002
20
-256.02499999999998
42
-0.41421356237311169
10
253.66250000000002
20
-254.77499999999998
10
270.21249999999998
20
-254.77499999999998
42
0.41421356237311169
10
271.46249999999998
20
-253.52499999999998
10
271.46249999999998
20
-236.97543789099839
42
-0.41421356237311169
10
272.71249999999998
20
-235.72543789099839
10
289.26250000000005
20
-235.72543789099839
42
-0.41421356237311169
10
290.51250000000005
20
-236.97543789099839
10
290.51250000000005
20
-253.52499999999998
42
0.41421356237311169
10
291.76250000000005
20
-254.77499999999998
10
308.31250000000006
20
-254.77499999999998
42
-0.41421356237311169
0
CIRCLE
5
110
100
AcDbEntity
8
0
100
AcDbCircle
10
-0.47499999999999987
20
-145.02500000000001
30
0
40
1.7500000000000002
210
0
220
0
230
1
0
CIRCLE
5
111
100
AcDbEntity
8
0
100
AcDbCircle
10
-0.47499999999999432
20
-278.80000000000001
30
0
40
1.7500000000000036
210
0
220
0
230
1
0
CIRCLE
5
112
100
AcDbEntity
8
0
100
AcDbCircle
10
127.01666666666669
20
-278.80000000000001
30
0
40
1.750000000000006
210
0
220
0
230
1
0
CIRCLE
5
113
100
AcDbEntity
8
0
100
AcDbCircle
10
244.45799999999997
20
-278.80000000000001
30
0
40
1.7499999999999996
210
0
220
0
230
1
0
CIRCLE
5
114
100
AcDbEntity
8
0
100
AcDbCircle
10
371.94999999999948
20
-278.80000000000001
30
0
40
1.7499999999999716
210
0
220
0
230
1
0
CIRCLE
5
115
100
AcDbEntity
8
0
100
AcDbCircle
10
371.94999999999999
20
-145.02500000000001
30
0
40
1.7499999999999716
210
0
220
0
230
1
0
CIRCLE
5
116
100
AcDbEntity
8
0
100
AcDbCircle
10
127.01666666666669
20
-145.02500000000001
30
0
40
1.7499999999999987
210
0
220
0
230
1
0
CIRCLE
5
117
100
AcDbEntity
8
0
100
AcDbCircle
10
244.45799999999997
20
-145.02500000000001
30
0
40
1.7500000000000002
210
0
220
0
230
1
0
ENDSEC
0
SECTION
2
OBJECTS
0
DICTIONARY
5
C
100
AcDbDictionary
3
ACAD_GROUP
350
D
3
ACAD_MLINESTYLE
350
17
0
DICTIONARY
5
D
100
AcDbDictionary
0
DICTIONARY
5
1A
330
C
100
AcDbDictionary
0
DICTIONARY
5
17
100
AcDbDictionary
0
ENDSEC
0
EOF
